<svg width="232" height="110" viewBox="0 0 232 110" fill="none" xmlns="http://www.w3.org/2000/svg">
<path d="M0.5 0.5H220C226.351 0.5 231.5 5.64873 231.5 12V98C231.5 104.351 226.351 109.5 220 109.5H12C5.64873 109.5 0.5 104.351 0.5 98V0.5Z" stroke="#939393"/>
<path d="M17.352 18.242V28H16.078V18.242H17.352ZM23.2613 20.188C24.1946 20.188 24.9506 20.4727 25.5293 21.042C26.108 21.602 26.3973 22.414 26.3973 23.478V28H25.1373V23.66C25.1373 22.8947 24.946 22.3113 24.5633 21.91C24.1806 21.4993 23.658 21.294 22.9953 21.294C22.3233 21.294 21.7866 21.504 21.3853 21.924C20.9933 22.344 20.7973 22.9553 20.7973 23.758V28H19.5233V20.328H20.7973V21.42C21.0493 21.028 21.39 20.7247 21.8193 20.51C22.258 20.2953 22.7386 20.188 23.2613 20.188ZM31.7348 24.136C31.7348 23.352 31.8935 22.666 32.2108 22.078C32.5281 21.4807 32.9621 21.0187 33.5128 20.692C34.0728 20.3653 34.6935 20.202 35.3748 20.202C36.0468 20.202 36.6301 20.3467 37.1248 20.636C37.6195 20.9253 37.9881 21.2893 38.2308 21.728V20.328H39.5188V28H38.2308V26.572C37.9788 27.02 37.6008 27.3933 37.0968 27.692C36.6021 27.9813 36.0235 28.126 35.3608 28.126C34.6795 28.126 34.0635 27.958 33.5128 27.622C32.9621 27.286 32.5281 26.8147 32.2108 26.208C31.8935 25.6013 31.7348 24.9107 31.7348 24.136ZM38.2308 24.15C38.2308 23.5713 38.1141 23.0673 37.8808 22.638C37.6475 22.2087 37.3301 21.882 36.9288 21.658C36.5368 21.4247 36.1028 21.308 35.6268 21.308C35.1508 21.308 34.7168 21.42 34.3248 21.644C33.9328 21.868 33.6201 22.1947 33.3868 22.624C33.1535 23.0533 33.0368 23.5573 33.0368 24.136C33.0368 24.724 33.1535 25.2373 33.3868 25.676C33.6201 26.1053 33.9328 26.4367 34.3248 26.67C34.7168 26.894 35.1508 27.006 35.6268 27.006C36.1028 27.006 36.5368 26.894 36.9288 26.67C37.3301 26.4367 37.6475 26.1053 37.8808 25.676C38.1141 25.2373 38.2308 24.7287 38.2308 24.15ZM49.2122 20.188C49.7908 20.188 50.3135 20.314 50.7802 20.566C51.2468 20.8087 51.6108 21.1773 51.8722 21.672C52.1428 22.1667 52.2782 22.7687 52.2782 23.478V28H51.0182V23.66C51.0182 22.8947 50.8268 22.3113 50.4442 21.91C50.0615 21.4993 49.5388 21.294 48.8762 21.294C48.2042 21.294 47.6675 21.504 47.2662 21.924C46.8742 22.344 46.6782 22.9553 46.6782 23.758V28H45.4042V17.64H46.6782V21.42C46.9302 21.028 47.2755 20.7247 47.7142 20.51C48.1622 20.2953 48.6615 20.188 49.2122 20.188ZM61.3593 23.87C61.3593 24.1127 61.3453 24.3693 61.3173 24.64H55.1853C55.2319 25.396 55.4886 25.9887 55.9553 26.418C56.4313 26.838 57.0053 27.048 57.6773 27.048C58.2279 27.048 58.6853 26.922 59.0493 26.67C59.4226 26.4087 59.6839 26.0633 59.8333 25.634H61.2053C60.9999 26.3713 60.5893 26.9733 59.9733 27.44C59.3573 27.8973 58.5919 28.126 57.6773 28.126C56.9493 28.126 56.2959 27.9627 55.7173 27.636C55.1479 27.3093 54.6999 26.8473 54.3733 26.25C54.0466 25.6433 53.8833 24.9433 53.8833 24.15C53.8833 23.3567 54.0419 22.6613 54.3593 22.064C54.6766 21.4667 55.1199 21.0093 55.6893 20.692C56.2679 20.3653 56.9306 20.202 57.6773 20.202C58.4053 20.202 59.0493 20.3607 59.6093 20.678C60.1693 20.9953 60.5986 21.434 60.8973 21.994C61.2053 22.5447 61.3593 23.17 61.3593 23.87ZM60.0433 23.604C60.0433 23.1187 59.9359 22.7033 59.7213 22.358C59.5066 22.0033 59.2126 21.7373 58.8393 21.56C58.4753 21.3733 58.0693 21.28 57.6213 21.28C56.9773 21.28 56.4266 21.4853 55.9693 21.896C55.5213 22.3067 55.2646 22.876 55.1993 23.604H60.0433ZM62.5649 24.136C62.5649 23.352 62.7236 22.666 63.0409 22.078C63.3582 21.4807 63.7922 21.0187 64.3429 20.692C64.9029 20.3653 65.5236 20.202 66.2049 20.202C66.8769 20.202 67.4602 20.3467 67.9549 20.636C68.4496 20.9253 68.8182 21.2893 69.0609 21.728V20.328H70.3489V28H69.0609V26.572C68.8089 27.02 68.4309 27.3933 67.9269 27.692C67.4322 27.9813 66.8536 28.126 66.1909 28.126C65.5096 28.126 64.8936 27.958 64.3429 27.622C63.7922 27.286 63.3582 26.8147 63.0409 26.208C62.7236 25.6013 62.5649 24.9107 62.5649 24.136ZM69.0609 24.15C69.0609 23.5713 68.9442 23.0673 68.7109 22.638C68.4776 22.2087 68.1602 21.882 67.7589 21.658C67.3669 21.4247 66.9329 21.308 66.4569 21.308C65.9809 21.308 65.5469 21.42 65.1549 21.644C64.7629 21.868 64.4502 22.1947 64.2169 22.624C63.9836 23.0533 63.8669 23.5573 63.8669 24.136C63.8669 24.724 63.9836 25.2373 64.2169 25.676C64.4502 26.1053 64.7629 26.4367 65.1549 26.67C65.5469 26.894 65.9809 27.006 66.4569 27.006C66.9329 27.006 67.3669 26.894 67.7589 26.67C68.1602 26.4367 68.4776 26.1053 68.7109 25.676C68.9442 25.2373 69.0609 24.7287 69.0609 24.15ZM74.0558 21.378V25.9C74.0558 26.2733 74.1352 26.5393 74.2938 26.698C74.4525 26.8473 74.7278 26.922 75.1198 26.922H76.0578V28H74.9098C74.2005 28 73.6685 27.8367 73.3138 27.51C72.9592 27.1833 72.7818 26.6467 72.7818 25.9V21.378H71.7878V20.328H72.7818V18.396H74.0558V20.328H76.0578V21.378H74.0558ZM84.6014 23.87C84.6014 24.1127 84.5874 24.3693 84.5594 24.64H78.4274C78.4741 25.396 78.7308 25.9887 79.1974 26.418C79.6734 26.838 80.2474 27.048 80.9194 27.048C81.4701 27.048 81.9274 26.922 82.2914 26.67C82.6648 26.4087 82.9261 26.0633 83.0754 25.634H84.4474C84.2421 26.3713 83.8314 26.9733 83.2154 27.44C82.5994 27.8973 81.8341 28.126 80.9194 28.126C80.1914 28.126 79.5381 27.9627 78.9594 27.636C78.3901 27.3093 77.9421 26.8473 77.6154 26.25C77.2888 25.6433 77.1254 24.9433 77.1254 24.15C77.1254 23.3567 77.2841 22.6613 77.6014 22.064C77.9188 21.4667 78.3621 21.0093 78.9314 20.692C79.5101 20.3653 80.1728 20.202 80.9194 20.202C81.6474 20.202 82.2914 20.3607 82.8514 20.678C83.4114 20.9953 83.8408 21.434 84.1394 21.994C84.4474 22.5447 84.6014 23.17 84.6014 23.87ZM83.2854 23.604C83.2854 23.1187 83.1781 22.7033 82.9634 22.358C82.7488 22.0033 82.4548 21.7373 82.0814 21.56C81.7174 21.3733 81.3114 21.28 80.8634 21.28C80.2194 21.28 79.6688 21.4853 79.2114 21.896C78.7634 22.3067 78.5068 22.876 78.4414 23.604H83.2854ZM85.8071 24.136C85.8071 23.352 85.9657 22.666 86.2831 22.078C86.6004 21.4807 87.0344 21.0187 87.5851 20.692C88.1451 20.3653 88.7704 20.202 89.4611 20.202C90.0584 20.202 90.6137 20.342 91.1271 20.622C91.6404 20.8927 92.0324 21.252 92.3031 21.7V17.64H93.5911V28H92.3031V26.558C92.0511 27.0153 91.6777 27.3933 91.1831 27.692C90.6884 27.9813 90.1097 28.126 89.4471 28.126C88.7657 28.126 88.1451 27.958 87.5851 27.622C87.0344 27.286 86.6004 26.8147 86.2831 26.208C85.9657 25.6013 85.8071 24.9107 85.8071 24.136ZM92.3031 24.15C92.3031 23.5713 92.1864 23.0673 91.9531 22.638C91.7197 22.2087 91.4024 21.882 91.0011 21.658C90.6091 21.4247 90.1751 21.308 89.6991 21.308C89.2231 21.308 88.7891 21.42 88.3971 21.644C88.0051 21.868 87.6924 22.1947 87.4591 22.624C87.2257 23.0533 87.1091 23.5573 87.1091 24.136C87.1091 24.724 87.2257 25.2373 87.4591 25.676C87.6924 26.1053 88.0051 26.4367 88.3971 26.67C88.7891 26.894 89.2231 27.006 89.6991 27.006C90.1751 27.006 90.6091 26.894 91.0011 26.67C91.4024 26.4367 91.7197 26.1053 91.9531 25.676C92.1864 25.2373 92.3031 24.7287 92.3031 24.15ZM99.0004 24.136C99.0004 23.352 99.1591 22.666 99.4764 22.078C99.7938 21.4807 100.228 21.0187 100.778 20.692C101.338 20.3653 101.964 20.202 102.654 20.202C103.252 20.202 103.807 20.342 104.32 20.622C104.834 20.8927 105.226 21.252 105.496 21.7V17.64H106.784V28H105.496V26.558C105.244 27.0153 104.871 27.3933 104.376 27.692C103.882 27.9813 103.303 28.126 102.64 28.126C101.959 28.126 101.338 27.958 100.778 27.622C100.228 27.286 99.7938 26.8147 99.4764 26.208C99.1591 25.6013 99.0004 24.9107 99.0004 24.136ZM105.496 24.15C105.496 23.5713 105.38 23.0673 105.146 22.638C104.913 22.2087 104.596 21.882 104.194 21.658C103.802 21.4247 103.368 21.308 102.892 21.308C102.416 21.308 101.982 21.42 101.59 21.644C101.198 21.868 100.886 22.1947 100.652 22.624C100.419 23.0533 100.302 23.5573 100.302 24.136C100.302 24.724 100.419 25.2373 100.652 25.676C100.886 26.1053 101.198 26.4367 101.59 26.67C101.982 26.894 102.416 27.006 102.892 27.006C103.368 27.006 103.802 26.894 104.194 26.67C104.596 26.4367 104.913 26.1053 105.146 25.676C105.38 25.2373 105.496 24.7287 105.496 24.15ZM109.595 19.082C109.353 19.082 109.147 18.998 108.979 18.83C108.811 18.662 108.727 18.4567 108.727 18.214C108.727 17.9713 108.811 17.766 108.979 17.598C109.147 17.43 109.353 17.346 109.595 17.346C109.829 17.346 110.025 17.43 110.183 17.598C110.351 17.766 110.435 17.9713 110.435 18.214C110.435 18.4567 110.351 18.662 110.183 18.83C110.025 18.998 109.829 19.082 109.595 19.082ZM110.211 20.328V28H108.937V20.328H110.211ZM115.099 28.126C114.511 28.126 113.983 28.028 113.517 27.832C113.05 27.6267 112.681 27.3467 112.411 26.992C112.14 26.628 111.991 26.2127 111.963 25.746H113.279C113.316 26.1287 113.493 26.4413 113.811 26.684C114.137 26.9267 114.562 27.048 115.085 27.048C115.57 27.048 115.953 26.9407 116.233 26.726C116.513 26.5113 116.653 26.2407 116.653 25.914C116.653 25.578 116.503 25.3307 116.205 25.172C115.906 25.004 115.444 24.8407 114.819 24.682C114.249 24.5327 113.783 24.3833 113.419 24.234C113.064 24.0753 112.756 23.8467 112.495 23.548C112.243 23.24 112.117 22.8387 112.117 22.344C112.117 21.952 112.233 21.5927 112.467 21.266C112.7 20.9393 113.031 20.6827 113.461 20.496C113.89 20.3 114.38 20.202 114.931 20.202C115.78 20.202 116.466 20.4167 116.989 20.846C117.511 21.2753 117.791 21.8633 117.829 22.61H116.555C116.527 22.2087 116.363 21.8867 116.065 21.644C115.775 21.4013 115.383 21.28 114.889 21.28C114.431 21.28 114.067 21.378 113.797 21.574C113.526 21.77 113.391 22.0267 113.391 22.344C113.391 22.596 113.47 22.806 113.629 22.974C113.797 23.1327 114.002 23.2633 114.245 23.366C114.497 23.4593 114.842 23.5667 115.281 23.688C115.831 23.8373 116.279 23.9867 116.625 24.136C116.97 24.276 117.264 24.4907 117.507 24.78C117.759 25.0693 117.889 25.4473 117.899 25.914C117.899 26.334 117.782 26.712 117.549 27.048C117.315 27.384 116.984 27.65 116.555 27.846C116.135 28.0327 115.649 28.126 115.099 28.126ZM119.221 24.15C119.221 23.3567 119.38 22.666 119.697 22.078C120.014 21.4807 120.453 21.0187 121.013 20.692C121.582 20.3653 122.231 20.202 122.959 20.202C123.902 20.202 124.676 20.4307 125.283 20.888C125.899 21.3453 126.305 21.98 126.501 22.792H125.129C124.998 22.3253 124.742 21.9567 124.359 21.686C123.986 21.4153 123.519 21.28 122.959 21.28C122.231 21.28 121.643 21.532 121.195 22.036C120.747 22.5307 120.523 23.2353 120.523 24.15C120.523 25.074 120.747 25.788 121.195 26.292C121.643 26.796 122.231 27.048 122.959 27.048C123.519 27.048 123.986 26.9173 124.359 26.656C124.732 26.3947 124.989 26.0213 125.129 25.536H126.501C126.296 26.32 125.885 26.95 125.269 27.426C124.653 27.8927 123.883 28.126 122.959 28.126C122.231 28.126 121.582 27.9627 121.013 27.636C120.453 27.3093 120.014 26.8473 119.697 26.25C119.38 25.6527 119.221 24.9527 119.221 24.15ZM135.005 20.328V28H133.731V26.866C133.488 27.258 133.148 27.566 132.709 27.79C132.28 28.0047 131.804 28.112 131.281 28.112C130.684 28.112 130.147 27.9907 129.671 27.748C129.195 27.496 128.817 27.1227 128.537 26.628C128.266 26.1333 128.131 25.5313 128.131 24.822V20.328H129.391V24.654C129.391 25.41 129.582 25.9933 129.965 26.404C130.348 26.8053 130.87 27.006 131.533 27.006C132.214 27.006 132.751 26.796 133.143 26.376C133.535 25.956 133.731 25.3447 133.731 24.542V20.328H135.005ZM139.872 28.126C139.284 28.126 138.757 28.028 138.29 27.832C137.823 27.6267 137.455 27.3467 137.184 26.992C136.913 26.628 136.764 26.2127 136.736 25.746H138.052C138.089 26.1287 138.267 26.4413 138.584 26.684C138.911 26.9267 139.335 27.048 139.858 27.048C140.343 27.048 140.726 26.9407 141.006 26.726C141.286 26.5113 141.426 26.2407 141.426 25.914C141.426 25.578 141.277 25.3307 140.978 25.172C140.679 25.004 140.217 24.8407 139.592 24.682C139.023 24.5327 138.556 24.3833 138.192 24.234C137.837 24.0753 137.529 23.8467 137.268 23.548C137.016 23.24 136.89 22.8387 136.89 22.344C136.89 21.952 137.007 21.5927 137.24 21.266C137.473 20.9393 137.805 20.6827 138.234 20.496C138.663 20.3 139.153 20.202 139.704 20.202C140.553 20.202 141.239 20.4167 141.762 20.846C142.285 21.2753 142.565 21.8633 142.602 22.61H141.328C141.3 22.2087 141.137 21.8867 140.838 21.644C140.549 21.4013 140.157 21.28 139.662 21.28C139.205 21.28 138.841 21.378 138.57 21.574C138.299 21.77 138.164 22.0267 138.164 22.344C138.164 22.596 138.243 22.806 138.402 22.974C138.57 23.1327 138.775 23.2633 139.018 23.366C139.27 23.4593 139.615 23.5667 140.054 23.688C140.605 23.8373 141.053 23.9867 141.398 24.136C141.743 24.276 142.037 24.4907 142.28 24.78C142.532 25.0693 142.663 25.4473 142.672 25.914C142.672 26.334 142.555 26.712 142.322 27.048C142.089 27.384 141.757 27.65 141.328 27.846C140.908 28.0327 140.423 28.126 139.872 28.126ZM147.187 28.126C146.599 28.126 146.071 28.028 145.605 27.832C145.138 27.6267 144.769 27.3467 144.499 26.992C144.228 26.628 144.079 26.2127 144.051 25.746H145.367C145.404 26.1287 145.581 26.4413 145.899 26.684C146.225 26.9267 146.65 27.048 147.173 27.048C147.658 27.048 148.041 26.9407 148.321 26.726C148.601 26.5113 148.741 26.2407 148.741 25.914C148.741 25.578 148.591 25.3307 148.293 25.172C147.994 25.004 147.532 24.8407 146.907 24.682C146.337 24.5327 145.871 24.3833 145.507 24.234C145.152 24.0753 144.844 23.8467 144.583 23.548C144.331 23.24 144.205 22.8387 144.205 22.344C144.205 21.952 144.321 21.5927 144.555 21.266C144.788 20.9393 145.119 20.6827 145.549 20.496C145.978 20.3 146.468 20.202 147.019 20.202C147.868 20.202 148.554 20.4167 149.077 20.846C149.599 21.2753 149.879 21.8633 149.917 22.61H148.643C148.615 22.2087 148.451 21.8867 148.153 21.644C147.863 21.4013 147.471 21.28 146.977 21.28C146.519 21.28 146.155 21.378 145.885 21.574C145.614 21.77 145.479 22.0267 145.479 22.344C145.479 22.596 145.558 22.806 145.717 22.974C145.885 23.1327 146.09 23.2633 146.333 23.366C146.585 23.4593 146.93 23.5667 147.369 23.688C147.919 23.8373 148.367 23.9867 148.713 24.136C149.058 24.276 149.352 24.4907 149.595 24.78C149.847 25.0693 149.977 25.4473 149.987 25.914C149.987 26.334 149.87 26.712 149.637 27.048C149.403 27.384 149.072 27.65 148.643 27.846C148.223 28.0327 147.737 28.126 147.187 28.126ZM152.443 19.082C152.2 19.082 151.995 18.998 151.827 18.83C151.659 18.662 151.575 18.4567 151.575 18.214C151.575 17.9713 151.659 17.766 151.827 17.598C151.995 17.43 152.2 17.346 152.443 17.346C152.676 17.346 152.872 17.43 153.031 17.598C153.199 17.766 153.283 17.9713 153.283 18.214C153.283 18.4567 153.199 18.662 153.031 18.83C152.872 18.998 152.676 19.082 152.443 19.082ZM153.059 20.328V28H151.785V20.328H153.059ZM158.576 28.126C157.858 28.126 157.204 27.9627 156.616 27.636C156.038 27.3093 155.58 26.8473 155.244 26.25C154.918 25.6433 154.754 24.9433 154.754 24.15C154.754 23.366 154.922 22.6753 155.258 22.078C155.604 21.4713 156.07 21.0093 156.658 20.692C157.246 20.3653 157.904 20.202 158.632 20.202C159.36 20.202 160.018 20.3653 160.606 20.692C161.194 21.0093 161.656 21.4667 161.992 22.064C162.338 22.6613 162.51 23.3567 162.51 24.15C162.51 24.9433 162.333 25.6433 161.978 26.25C161.633 26.8473 161.162 27.3093 160.564 27.636C159.967 27.9627 159.304 28.126 158.576 28.126ZM158.576 27.006C159.034 27.006 159.463 26.8987 159.864 26.684C160.266 26.4693 160.588 26.1473 160.83 25.718C161.082 25.2887 161.208 24.766 161.208 24.15C161.208 23.534 161.087 23.0113 160.844 22.582C160.602 22.1527 160.284 21.8353 159.892 21.63C159.5 21.4153 159.076 21.308 158.618 21.308C158.152 21.308 157.722 21.4153 157.33 21.63C156.948 21.8353 156.64 22.1527 156.406 22.582C156.173 23.0113 156.056 23.534 156.056 24.15C156.056 24.7753 156.168 25.3027 156.392 25.732C156.626 26.1613 156.934 26.4833 157.316 26.698C157.699 26.9033 158.119 27.006 158.576 27.006ZM167.923 20.188C168.857 20.188 169.613 20.4727 170.191 21.042C170.77 21.602 171.059 22.414 171.059 23.478V28H169.799V23.66C169.799 22.8947 169.608 22.3113 169.225 21.91C168.843 21.4993 168.32 21.294 167.657 21.294C166.985 21.294 166.449 21.504 166.047 21.924C165.655 22.344 165.459 22.9553 165.459 23.758V28H164.185V20.328H165.459V21.42C165.711 21.028 166.052 20.7247 166.481 20.51C166.92 20.2953 167.401 20.188 167.923 20.188ZM187.093 20.328L184.699 28H183.383L181.535 21.91L179.687 28H178.371L175.963 20.328H177.265L179.029 26.768L180.933 20.328H182.235L184.097 26.782L185.833 20.328H187.093ZM189.015 19.082C188.773 19.082 188.567 18.998 188.399 18.83C188.231 18.662 188.147 18.4567 188.147 18.214C188.147 17.9713 188.231 17.766 188.399 17.598C188.567 17.43 188.773 17.346 189.015 17.346C189.249 17.346 189.445 17.43 189.603 17.598C189.771 17.766 189.855 17.9713 189.855 18.214C189.855 18.4567 189.771 18.662 189.603 18.83C189.445 18.998 189.249 19.082 189.015 19.082ZM189.631 20.328V28H188.357V20.328H189.631ZM193.357 21.378V25.9C193.357 26.2733 193.436 26.5393 193.595 26.698C193.753 26.8473 194.029 26.922 194.421 26.922H195.359V28H194.211C193.501 28 192.969 27.8367 192.615 27.51C192.26 27.1833 192.083 26.6467 192.083 25.9V21.378H191.089V20.328H192.083V18.396H193.357V20.328H195.359V21.378H193.357ZM200.71 20.188C201.289 20.188 201.812 20.314 202.278 20.566C202.745 20.8087 203.109 21.1773 203.37 21.672C203.641 22.1667 203.776 22.7687 203.776 23.478V28H202.516V23.66C202.516 22.8947 202.325 22.3113 201.942 21.91C201.56 21.4993 201.037 21.294 200.374 21.294C199.702 21.294 199.166 21.504 198.764 21.924C198.372 22.344 198.176 22.9553 198.176 23.758V28H196.902V17.64H198.176V21.42C198.428 21.028 198.774 20.7247 199.212 20.51C199.66 20.2953 200.16 20.188 200.71 20.188ZM209.114 24.136C209.114 23.352 209.272 22.666 209.59 22.078C209.907 21.4807 210.341 21.0187 210.892 20.692C211.452 20.3653 212.072 20.202 212.754 20.202C213.426 20.202 214.009 20.3467 214.504 20.636C214.998 20.9253 215.367 21.2893 215.61 21.728V20.328H216.898V28H215.61V26.572C215.358 27.02 214.98 27.3933 214.476 27.692C213.981 27.9813 213.402 28.126 212.74 28.126C212.058 28.126 211.442 27.958 210.892 27.622C210.341 27.286 209.907 26.8147 209.59 26.208C209.272 25.6013 209.114 24.9107 209.114 24.136ZM215.61 24.15C215.61 23.5713 215.493 23.0673 215.26 22.638C215.026 22.2087 214.709 21.882 214.308 21.658C213.916 21.4247 213.482 21.308 213.006 21.308C212.53 21.308 212.096 21.42 211.704 21.644C211.312 21.868 210.999 22.1947 210.766 22.624C210.532 23.0533 210.416 23.5573 210.416 24.136C210.416 24.724 210.532 25.2373 210.766 25.676C210.999 26.1053 211.312 26.4367 211.704 26.67C212.096 26.894 212.53 27.006 213.006 27.006C213.482 27.006 213.916 26.894 214.308 26.67C214.709 26.4367 215.026 26.1053 215.26 25.676C215.493 25.2373 215.61 24.7287 215.61 24.15ZM15.602 45.15C15.602 44.3567 15.7607 43.666 16.078 43.078C16.3953 42.4807 16.834 42.0187 17.394 41.692C17.9633 41.3653 18.612 41.202 19.34 41.202C20.2827 41.202 21.0573 41.4307 21.664 41.888C22.28 42.3453 22.686 42.98 22.882 43.792H21.51C21.3793 43.3253 21.1227 42.9567 20.74 42.686C20.3667 42.4153 19.9 42.28 19.34 42.28C18.612 42.28 18.024 42.532 17.576 43.036C17.128 43.5307 16.904 44.2353 16.904 45.15C16.904 46.074 17.128 46.788 17.576 47.292C18.024 47.796 18.612 48.048 19.34 48.048C19.9 48.048 20.3667 47.9173 20.74 47.656C21.1133 47.3947 21.37 47.0213 21.51 46.536H22.882C22.6767 47.32 22.266 47.95 21.65 48.426C21.034 48.8927 20.264 49.126 19.34 49.126C18.612 49.126 17.9633 48.9627 17.394 48.636C16.834 48.3093 16.3953 47.8473 16.078 47.25C15.7607 46.6527 15.602 45.9527 15.602 45.15ZM25.8559 38.64V49H24.5819V38.64H25.8559ZM31.3732 49.126C30.6546 49.126 30.0012 48.9627 29.4132 48.636C28.8346 48.3093 28.3772 47.8473 28.0412 47.25C27.7146 46.6433 27.5512 45.9433 27.5512 45.15C27.5512 44.366 27.7192 43.6753 28.0552 43.078C28.4006 42.4713 28.8672 42.0093 29.4552 41.692C30.0432 41.3653 30.7012 41.202 31.4292 41.202C32.1572 41.202 32.8152 41.3653 33.4032 41.692C33.9912 42.0093 34.4532 42.4667 34.7892 43.064C35.1346 43.6613 35.3072 44.3567 35.3072 45.15C35.3072 45.9433 35.1299 46.6433 34.7752 47.25C34.4299 47.8473 33.9586 48.3093 33.3612 48.636C32.7639 48.9627 32.1012 49.126 31.3732 49.126ZM31.3732 48.006C31.8306 48.006 32.2599 47.8987 32.6612 47.684C33.0626 47.4693 33.3846 47.1473 33.6272 46.718C33.8792 46.2887 34.0052 45.766 34.0052 45.15C34.0052 44.534 33.8839 44.0113 33.6412 43.582C33.3986 43.1527 33.0812 42.8353 32.6892 42.63C32.2972 42.4153 31.8726 42.308 31.4152 42.308C30.9486 42.308 30.5192 42.4153 30.1272 42.63C29.7446 42.8353 29.4366 43.1527 29.2032 43.582C28.9699 44.0113 28.8532 44.534 28.8532 45.15C28.8532 45.7753 28.9652 46.3027 29.1892 46.732C29.4226 47.1613 29.7306 47.4833 30.1132 47.698C30.4959 47.9033 30.9159 48.006 31.3732 48.006ZM39.6983 49.126C39.1103 49.126 38.583 49.028 38.1163 48.832C37.6496 48.6267 37.281 48.3467 37.0103 47.992C36.7396 47.628 36.5903 47.2127 36.5623 46.746H37.8783C37.9156 47.1287 38.093 47.4413 38.4103 47.684C38.737 47.9267 39.1616 48.048 39.6843 48.048C40.1696 48.048 40.5523 47.9407 40.8323 47.726C41.1123 47.5113 41.2523 47.2407 41.2523 46.914C41.2523 46.578 41.103 46.3307 40.8043 46.172C40.5056 46.004 40.0436 45.8407 39.4183 45.682C38.849 45.5327 38.3823 45.3833 38.0183 45.234C37.6636 45.0753 37.3556 44.8467 37.0943 44.548C36.8423 44.24 36.7163 43.8387 36.7163 43.344C36.7163 42.952 36.833 42.5927 37.0663 42.266C37.2996 41.9393 37.631 41.6827 38.0603 41.496C38.4896 41.3 38.9796 41.202 39.5303 41.202C40.3796 41.202 41.0656 41.4167 41.5883 41.846C42.111 42.2753 42.391 42.8633 42.4283 43.61H41.1543C41.1263 43.2087 40.963 42.8867 40.6643 42.644C40.375 42.4013 39.983 42.28 39.4883 42.28C39.031 42.28 38.667 42.378 38.3963 42.574C38.1256 42.77 37.9903 43.0267 37.9903 43.344C37.9903 43.596 38.0696 43.806 38.2283 43.974C38.3963 44.1327 38.6016 44.2633 38.8443 44.366C39.0963 44.4593 39.4416 44.5667 39.8803 44.688C40.431 44.8373 40.879 44.9867 41.2243 45.136C41.5696 45.276 41.8636 45.4907 42.1063 45.78C42.3583 46.0693 42.489 46.4473 42.4983 46.914C42.4983 47.334 42.3816 47.712 42.1483 48.048C41.915 48.384 41.5836 48.65 41.1543 48.846C40.7343 49.0327 40.249 49.126 39.6983 49.126ZM51.2968 44.87C51.2968 45.1127 51.2828 45.3693 51.2548 45.64H45.1228C45.1694 46.396 45.4261 46.9887 45.8928 47.418C46.3688 47.838 46.9428 48.048 47.6148 48.048C48.1654 48.048 48.6228 47.922 48.9868 47.67C49.3601 47.4087 49.6214 47.0633 49.7708 46.634H51.1428C50.9374 47.3713 50.5268 47.9733 49.9108 48.44C49.2948 48.8973 48.5294 49.126 47.6148 49.126C46.8868 49.126 46.2334 48.9627 45.6548 48.636C45.0854 48.3093 44.6374 47.8473 44.3108 47.25C43.9841 46.6433 43.8208 45.9433 43.8208 45.15C43.8208 44.3567 43.9794 43.6613 44.2968 43.064C44.6141 42.4667 45.0574 42.0093 45.6268 41.692C46.2054 41.3653 46.8681 41.202 47.6148 41.202C48.3428 41.202 48.9868 41.3607 49.5468 41.678C50.1068 41.9953 50.5361 42.434 50.8348 42.994C51.1428 43.5447 51.2968 44.17 51.2968 44.87ZM49.9808 44.604C49.9808 44.1187 49.8734 43.7033 49.6588 43.358C49.4441 43.0033 49.1501 42.7373 48.7768 42.56C48.4128 42.3733 48.0068 42.28 47.5588 42.28C46.9148 42.28 46.3641 42.4853 45.9068 42.896C45.4588 43.3067 45.2021 43.876 45.1368 44.604H49.9808ZM59.8328 42.378H58.2228V49H56.9488V42.378H55.9548V41.328H56.9488V40.782C56.9488 39.9233 57.1681 39.298 57.6068 38.906C58.0548 38.5047 58.7688 38.304 59.7488 38.304V39.368C59.1888 39.368 58.7921 39.48 58.5588 39.704C58.3348 39.9187 58.2228 40.278 58.2228 40.782V41.328H59.8328V42.378ZM62.5922 42.574C62.8162 42.1353 63.1336 41.7947 63.5442 41.552C63.9642 41.3093 64.4729 41.188 65.0702 41.188V42.504H64.7342C63.3062 42.504 62.5922 43.2787 62.5922 44.828V49H61.3182V41.328H62.5922V42.574ZM67.1989 40.082C66.9562 40.082 66.7509 39.998 66.5829 39.83C66.4149 39.662 66.3309 39.4567 66.3309 39.214C66.3309 38.9713 66.4149 38.766 66.5829 38.598C66.7509 38.43 66.9562 38.346 67.1989 38.346C67.4322 38.346 67.6282 38.43 67.7869 38.598C67.9549 38.766 68.0389 38.9713 68.0389 39.214C68.0389 39.4567 67.9549 39.662 67.7869 39.83C67.6282 39.998 67.4322 40.082 67.1989 40.082ZM67.8149 41.328V49H66.5409V41.328H67.8149ZM76.9862 44.87C76.9862 45.1127 76.9722 45.3693 76.9442 45.64H70.8122C70.8589 46.396 71.1155 46.9887 71.5822 47.418C72.0582 47.838 72.6322 48.048 73.3042 48.048C73.8549 48.048 74.3122 47.922 74.6762 47.67C75.0495 47.4087 75.3109 47.0633 75.4602 46.634H76.8322C76.6269 47.3713 76.2162 47.9733 75.6002 48.44C74.9842 48.8973 74.2189 49.126 73.3042 49.126C72.5762 49.126 71.9229 48.9627 71.3442 48.636C70.7749 48.3093 70.3269 47.8473 70.0002 47.25C69.6735 46.6433 69.5102 45.9433 69.5102 45.15C69.5102 44.3567 69.6689 43.6613 69.9862 43.064C70.3035 42.4667 70.7469 42.0093 71.3162 41.692C71.8949 41.3653 72.5575 41.202 73.3042 41.202C74.0322 41.202 74.6762 41.3607 75.2362 41.678C75.7962 41.9953 76.2255 42.434 76.5242 42.994C76.8322 43.5447 76.9862 44.17 76.9862 44.87ZM75.6702 44.604C75.6702 44.1187 75.5629 43.7033 75.3482 43.358C75.1335 43.0033 74.8395 42.7373 74.4662 42.56C74.1022 42.3733 73.6962 42.28 73.2482 42.28C72.6042 42.28 72.0535 42.4853 71.5962 42.896C71.1482 43.3067 70.8915 43.876 70.8262 44.604H75.6702ZM82.4058 41.188C83.3392 41.188 84.0952 41.4727 84.6738 42.042C85.2525 42.602 85.5418 43.414 85.5418 44.478V49H84.2818V44.66C84.2818 43.8947 84.0905 43.3113 83.7078 42.91C83.3252 42.4993 82.8025 42.294 82.1398 42.294C81.4678 42.294 80.9312 42.504 80.5298 42.924C80.1378 43.344 79.9418 43.9553 79.9418 44.758V49H78.6678V41.328H79.9418V42.42C80.1938 42.028 80.5345 41.7247 80.9638 41.51C81.4025 41.2953 81.8832 41.188 82.4058 41.188ZM87.1469 45.136C87.1469 44.352 87.3056 43.666 87.6229 43.078C87.9403 42.4807 88.3743 42.0187 88.9249 41.692C89.4849 41.3653 90.1103 41.202 90.8009 41.202C91.3983 41.202 91.9536 41.342 92.4669 41.622C92.9803 41.8927 93.3723 42.252 93.6429 42.7V38.64H94.9309V49H93.6429V47.558C93.3909 48.0153 93.0176 48.3933 92.5229 48.692C92.0283 48.9813 91.4496 49.126 90.7869 49.126C90.1056 49.126 89.4849 48.958 88.9249 48.622C88.3743 48.286 87.9403 47.8147 87.6229 47.208C87.3056 46.6013 87.1469 45.9107 87.1469 45.136ZM93.6429 45.15C93.6429 44.5713 93.5263 44.0673 93.2929 43.638C93.0596 43.2087 92.7423 42.882 92.3409 42.658C91.9489 42.4247 91.5149 42.308 91.0389 42.308C90.5629 42.308 90.1289 42.42 89.7369 42.644C89.3449 42.868 89.0323 43.1947 88.7989 43.624C88.5656 44.0533 88.4489 44.5573 88.4489 45.136C88.4489 45.724 88.5656 46.2373 88.7989 46.676C89.0323 47.1053 89.3449 47.4367 89.7369 47.67C90.1289 47.894 90.5629 48.006 91.0389 48.006C91.5149 48.006 91.9489 47.894 92.3409 47.67C92.7423 47.4367 93.0596 47.1053 93.2929 46.676C93.5263 46.2373 93.6429 45.7287 93.6429 45.15ZM98.3999 47.236L96.8319 51.002H95.9779L96.9999 47.236H98.3999ZM105.146 42.378V46.9C105.146 47.2733 105.225 47.5393 105.384 47.698C105.542 47.8473 105.818 47.922 106.21 47.922H107.148V49H106C105.29 49 104.758 48.8367 104.404 48.51C104.049 48.1833 103.872 47.6467 103.872 46.9V42.378H102.878V41.328H103.872V39.396H105.146V41.328H107.148V42.378H105.146ZM112.499 41.188C113.078 41.188 113.601 41.314 114.067 41.566C114.534 41.8087 114.898 42.1773 115.159 42.672C115.43 43.1667 115.565 43.7687 115.565 44.478V49H114.305V44.66C114.305 43.8947 114.114 43.3113 113.731 42.91C113.349 42.4993 112.826 42.294 112.163 42.294C111.491 42.294 110.955 42.504 110.553 42.924C110.161 43.344 109.965 43.9553 109.965 44.758V49H108.691V38.64H109.965V42.42C110.217 42.028 110.563 41.7247 111.001 41.51C111.449 41.2953 111.949 41.188 112.499 41.188ZM124.646 44.87C124.646 45.1127 124.632 45.3693 124.604 45.64H118.472C118.519 46.396 118.776 46.9887 119.242 47.418C119.718 47.838 120.292 48.048 120.964 48.048C121.515 48.048 121.972 47.922 122.336 47.67C122.71 47.4087 122.971 47.0633 123.12 46.634H124.492C124.287 47.3713 123.876 47.9733 123.26 48.44C122.644 48.8973 121.879 49.126 120.964 49.126C120.236 49.126 119.583 48.9627 119.004 48.636C118.435 48.3093 117.987 47.8473 117.66 47.25C117.334 46.6433 117.17 45.9433 117.17 45.15C117.17 44.3567 117.329 43.6613 117.646 43.064C117.964 42.4667 118.407 42.0093 118.976 41.692C119.555 41.3653 120.218 41.202 120.964 41.202C121.692 41.202 122.336 41.3607 122.896 41.678C123.456 41.9953 123.886 42.434 124.184 42.994C124.492 43.5447 124.646 44.17 124.646 44.87ZM123.33 44.604C123.33 44.1187 123.223 43.7033 123.008 43.358C122.794 43.0033 122.5 42.7373 122.126 42.56C121.762 42.3733 121.356 42.28 120.908 42.28C120.264 42.28 119.714 42.4853 119.256 42.896C118.808 43.3067 118.552 43.876 118.486 44.604H123.33ZM132.936 41.328L128.316 52.612H127L128.512 48.916L125.418 41.328H126.832L129.24 47.544L131.62 41.328H132.936ZM137.473 45.136C137.473 44.352 137.632 43.666 137.949 43.078C138.266 42.4807 138.7 42.0187 139.251 41.692C139.811 41.3653 140.432 41.202 141.113 41.202C141.785 41.202 142.368 41.3467 142.863 41.636C143.358 41.9253 143.726 42.2893 143.969 42.728V41.328H145.257V49H143.969V47.572C143.717 48.02 143.339 48.3933 142.835 48.692C142.34 48.9813 141.762 49.126 141.099 49.126C140.418 49.126 139.802 48.958 139.251 48.622C138.7 48.286 138.266 47.8147 137.949 47.208C137.632 46.6013 137.473 45.9107 137.473 45.136ZM143.969 45.15C143.969 44.5713 143.852 44.0673 143.619 43.638C143.386 43.2087 143.068 42.882 142.667 42.658C142.275 42.4247 141.841 42.308 141.365 42.308C140.889 42.308 140.455 42.42 140.063 42.644C139.671 42.868 139.358 43.1947 139.125 43.624C138.892 44.0533 138.775 44.5573 138.775 45.136C138.775 45.724 138.892 46.2373 139.125 46.676C139.358 47.1053 139.671 47.4367 140.063 47.67C140.455 47.894 140.889 48.006 141.365 48.006C141.841 48.006 142.275 47.894 142.667 47.67C143.068 47.4367 143.386 47.1053 143.619 46.676C143.852 46.2373 143.969 45.7287 143.969 45.15ZM150.126 49.126C149.538 49.126 149.011 49.028 148.544 48.832C148.077 48.6267 147.709 48.3467 147.438 47.992C147.167 47.628 147.018 47.2127 146.99 46.746H148.306C148.343 47.1287 148.521 47.4413 148.838 47.684C149.165 47.9267 149.589 48.048 150.112 48.048C150.597 48.048 150.98 47.9407 151.26 47.726C151.54 47.5113 151.68 47.2407 151.68 46.914C151.68 46.578 151.531 46.3307 151.232 46.172C150.933 46.004 150.471 45.8407 149.846 45.682C149.277 45.5327 148.81 45.3833 148.446 45.234C148.091 45.0753 147.783 44.8467 147.522 44.548C147.27 44.24 147.144 43.8387 147.144 43.344C147.144 42.952 147.261 42.5927 147.494 42.266C147.727 41.9393 148.059 41.6827 148.488 41.496C148.917 41.3 149.407 41.202 149.958 41.202C150.807 41.202 151.493 41.4167 152.016 41.846C152.539 42.2753 152.819 42.8633 152.856 43.61H151.582C151.554 43.2087 151.391 42.8867 151.092 42.644C150.803 42.4013 150.411 42.28 149.916 42.28C149.459 42.28 149.095 42.378 148.824 42.574C148.553 42.77 148.418 43.0267 148.418 43.344C148.418 43.596 148.497 43.806 148.656 43.974C148.824 44.1327 149.029 44.2633 149.272 44.366C149.524 44.4593 149.869 44.5667 150.308 44.688C150.859 44.8373 151.307 44.9867 151.652 45.136C151.997 45.276 152.291 45.4907 152.534 45.78C152.786 46.0693 152.917 46.4473 152.926 46.914C152.926 47.334 152.809 47.712 152.576 48.048C152.343 48.384 152.011 48.65 151.582 48.846C151.162 49.0327 150.677 49.126 150.126 49.126ZM159.008 49L155.998 45.612V49H154.724V38.64H155.998V44.73L158.952 41.328H160.73L157.118 45.15L160.744 49H159.008ZM168.784 42.378H167.174V49H165.9V42.378H164.906V41.328H165.9V40.782C165.9 39.9233 166.119 39.298 166.558 38.906C167.006 38.5047 167.72 38.304 168.7 38.304V39.368C168.14 39.368 167.743 39.48 167.51 39.704C167.286 39.9187 167.174 40.278 167.174 40.782V41.328H168.784V42.378ZM173.615 49.126C172.897 49.126 172.243 48.9627 171.655 48.636C171.077 48.3093 170.619 47.8473 170.283 47.25C169.957 46.6433 169.793 45.9433 169.793 45.15C169.793 44.366 169.961 43.6753 170.297 43.078C170.643 42.4713 171.109 42.0093 171.697 41.692C172.285 41.3653 172.943 41.202 173.671 41.202C174.399 41.202 175.057 41.3653 175.645 41.692C176.233 42.0093 176.695 42.4667 177.031 43.064C177.377 43.6613 177.549 44.3567 177.549 45.15C177.549 45.9433 177.372 46.6433 177.017 47.25C176.672 47.8473 176.201 48.3093 175.603 48.636C175.006 48.9627 174.343 49.126 173.615 49.126ZM173.615 48.006C174.073 48.006 174.502 47.8987 174.903 47.684C175.305 47.4693 175.627 47.1473 175.869 46.718C176.121 46.2887 176.247 45.766 176.247 45.15C176.247 44.534 176.126 44.0113 175.883 43.582C175.641 43.1527 175.323 42.8353 174.931 42.63C174.539 42.4153 174.115 42.308 173.657 42.308C173.191 42.308 172.761 42.4153 172.369 42.63C171.987 42.8353 171.679 43.1527 171.445 43.582C171.212 44.0113 171.095 44.534 171.095 45.15C171.095 45.7753 171.207 46.3027 171.431 46.732C171.665 47.1613 171.973 47.4833 172.355 47.698C172.738 47.9033 173.158 48.006 173.615 48.006ZM180.498 42.574C180.722 42.1353 181.04 41.7947 181.45 41.552C181.87 41.3093 182.379 41.188 182.976 41.188V42.504H182.64C181.212 42.504 180.498 43.2787 180.498 44.828V49H179.224V41.328H180.498V42.574ZM22.686 62.328L18.066 73.612H16.75L18.262 69.916L15.168 62.328H16.582L18.99 68.544L21.37 62.328H22.686ZM27.3127 70.126C26.594 70.126 25.9407 69.9627 25.3527 69.636C24.774 69.3093 24.3167 68.8473 23.9807 68.25C23.654 67.6433 23.4907 66.9433 23.4907 66.15C23.4907 65.366 23.6587 64.6753 23.9947 64.078C24.34 63.4713 24.8067 63.0093 25.3947 62.692C25.9827 62.3653 26.6407 62.202 27.3687 62.202C28.0967 62.202 28.7547 62.3653 29.3427 62.692C29.9307 63.0093 30.3927 63.4667 30.7287 64.064C31.074 64.6613 31.2467 65.3567 31.2467 66.15C31.2467 66.9433 31.0693 67.6433 30.7147 68.25C30.3693 68.8473 29.898 69.3093 29.3007 69.636C28.7033 69.9627 28.0407 70.126 27.3127 70.126ZM27.3127 69.006C27.77 69.006 28.1993 68.8987 28.6007 68.684C29.002 68.4693 29.324 68.1473 29.5667 67.718C29.8187 67.2887 29.9447 66.766 29.9447 66.15C29.9447 65.534 29.8233 65.0113 29.5807 64.582C29.338 64.1527 29.0207 63.8353 28.6287 63.63C28.2367 63.4153 27.812 63.308 27.3547 63.308C26.888 63.308 26.4587 63.4153 26.0667 63.63C25.684 63.8353 25.376 64.1527 25.1427 64.582C24.9093 65.0113 24.7927 65.534 24.7927 66.15C24.7927 66.7753 24.9047 67.3027 25.1287 67.732C25.362 68.1613 25.67 68.4833 26.0527 68.698C26.4353 68.9033 26.8553 69.006 27.3127 69.006ZM39.7258 62.328V70H38.4518V68.866C38.2091 69.258 37.8684 69.566 37.4298 69.79C37.0004 70.0047 36.5244 70.112 36.0018 70.112C35.4044 70.112 34.8678 69.9907 34.3918 69.748C33.9158 69.496 33.5378 69.1227 33.2578 68.628C32.9871 68.1333 32.8518 67.5313 32.8518 66.822V62.328H34.1118V66.654C34.1118 67.41 34.3031 67.9933 34.6858 68.404C35.0684 68.8053 35.5911 69.006 36.2538 69.006C36.9351 69.006 37.4718 68.796 37.8638 68.376C38.2558 67.956 38.4518 67.3447 38.4518 66.542V62.328H39.7258ZM43.1508 63.574C43.3748 63.1353 43.6922 62.7947 44.1028 62.552C44.5228 62.3093 45.0315 62.188 45.6288 62.188V63.504H45.2928C43.8648 63.504 43.1508 64.2787 43.1508 65.828V70H41.8768V62.328H43.1508V63.574ZM54.6399 62.188C55.2186 62.188 55.7412 62.314 56.2079 62.566C56.6746 62.8087 57.0386 63.1773 57.2999 63.672C57.5706 64.1667 57.7059 64.7687 57.7059 65.478V70H56.4459V65.66C56.4459 64.8947 56.2546 64.3113 55.8719 63.91C55.4892 63.4993 54.9666 63.294 54.3039 63.294C53.6319 63.294 53.0952 63.504 52.6939 63.924C52.3019 64.344 52.1059 64.9553 52.1059 65.758V70H50.8319V59.64H52.1059V63.42C52.3579 63.028 52.7032 62.7247 53.1419 62.51C53.5899 62.2953 54.0892 62.188 54.6399 62.188ZM63.133 70.126C62.4143 70.126 61.761 69.9627 61.173 69.636C60.5943 69.3093 60.137 68.8473 59.801 68.25C59.4743 67.6433 59.311 66.9433 59.311 66.15C59.311 65.366 59.479 64.6753 59.815 64.078C60.1603 63.4713 60.627 63.0093 61.215 62.692C61.803 62.3653 62.461 62.202 63.189 62.202C63.917 62.202 64.575 62.3653 65.163 62.692C65.751 63.0093 66.213 63.4667 66.549 64.064C66.8943 64.6613 67.067 65.3567 67.067 66.15C67.067 66.9433 66.8897 67.6433 66.535 68.25C66.1897 68.8473 65.7183 69.3093 65.121 69.636C64.5237 69.9627 63.861 70.126 63.133 70.126ZM63.133 69.006C63.5903 69.006 64.0197 68.8987 64.421 68.684C64.8223 68.4693 65.1443 68.1473 65.387 67.718C65.639 67.2887 65.765 66.766 65.765 66.15C65.765 65.534 65.6437 65.0113 65.401 64.582C65.1583 64.1527 64.841 63.8353 64.449 63.63C64.057 63.4153 63.6323 63.308 63.175 63.308C62.7083 63.308 62.279 63.4153 61.887 63.63C61.5043 63.8353 61.1963 64.1527 60.963 64.582C60.7297 65.0113 60.613 65.534 60.613 66.15C60.613 66.7753 60.725 67.3027 60.949 67.732C61.1823 68.1613 61.4903 68.4833 61.873 68.698C62.2557 68.9033 62.6757 69.006 63.133 69.006ZM72.4801 62.188C73.4134 62.188 74.1694 62.4727 74.7481 63.042C75.3267 63.602 75.6161 64.414 75.6161 65.478V70H74.3561V65.66C74.3561 64.8947 74.1647 64.3113 73.7821 63.91C73.3994 63.4993 72.8767 63.294 72.2141 63.294C71.5421 63.294 71.0054 63.504 70.6041 63.924C70.2121 64.344 70.0161 64.9553 70.0161 65.758V70H68.7421V62.328H70.0161V63.42C70.2681 63.028 70.6087 62.7247 71.0381 62.51C71.4767 62.2953 71.9574 62.188 72.4801 62.188ZM84.6971 65.87C84.6971 66.1127 84.6831 66.3693 84.6551 66.64H78.5231C78.5698 67.396 78.8265 67.9887 79.2931 68.418C79.7691 68.838 80.3431 69.048 81.0151 69.048C81.5658 69.048 82.0231 68.922 82.3871 68.67C82.7605 68.4087 83.0218 68.0633 83.1711 67.634H84.5431C84.3378 68.3713 83.9271 68.9733 83.3111 69.44C82.6951 69.8973 81.9298 70.126 81.0151 70.126C80.2871 70.126 79.6338 69.9627 79.0551 69.636C78.4858 69.3093 78.0378 68.8473 77.7111 68.25C77.3845 67.6433 77.2211 66.9433 77.2211 66.15C77.2211 65.3567 77.3798 64.6613 77.6971 64.064C78.0145 63.4667 78.4578 63.0093 79.0271 62.692C79.6058 62.3653 80.2685 62.202 81.0151 62.202C81.7431 62.202 82.3871 62.3607 82.9471 62.678C83.5071 62.9953 83.9365 63.434 84.2351 63.994C84.5431 64.5447 84.6971 65.17 84.6971 65.87ZM83.3811 65.604C83.3811 65.1187 83.2738 64.7033 83.0591 64.358C82.8445 64.0033 82.5505 63.7373 82.1771 63.56C81.8131 63.3733 81.4071 63.28 80.9591 63.28C80.3151 63.28 79.7645 63.4853 79.3071 63.896C78.8591 64.3067 78.6025 64.876 78.5371 65.604H83.3811ZM89.0948 70.126C88.5068 70.126 87.9794 70.028 87.5128 69.832C87.0461 69.6267 86.6774 69.3467 86.4068 68.992C86.1361 68.628 85.9868 68.2127 85.9588 67.746H87.2748C87.3121 68.1287 87.4894 68.4413 87.8068 68.684C88.1334 68.9267 88.5581 69.048 89.0808 69.048C89.5661 69.048 89.9488 68.9407 90.2288 68.726C90.5088 68.5113 90.6488 68.2407 90.6488 67.914C90.6488 67.578 90.4994 67.3307 90.2008 67.172C89.9021 67.004 89.4401 66.8407 88.8148 66.682C88.2454 66.5327 87.7788 66.3833 87.4148 66.234C87.0601 66.0753 86.7521 65.8467 86.4908 65.548C86.2388 65.24 86.1128 64.8387 86.1128 64.344C86.1128 63.952 86.2294 63.5927 86.4628 63.266C86.6961 62.9393 87.0274 62.6827 87.4568 62.496C87.8861 62.3 88.3761 62.202 88.9268 62.202C89.7761 62.202 90.4621 62.4167 90.9848 62.846C91.5074 63.2753 91.7874 63.8633 91.8248 64.61H90.5508C90.5228 64.2087 90.3594 63.8867 90.0608 63.644C89.7714 63.4013 89.3794 63.28 88.8848 63.28C88.4274 63.28 88.0634 63.378 87.7928 63.574C87.5221 63.77 87.3868 64.0267 87.3868 64.344C87.3868 64.596 87.4661 64.806 87.6248 64.974C87.7928 65.1327 87.9981 65.2633 88.2408 65.366C88.4928 65.4593 88.8381 65.5667 89.2768 65.688C89.8274 65.8373 90.2754 65.9867 90.6208 66.136C90.9661 66.276 91.2601 66.4907 91.5028 66.78C91.7548 67.0693 91.8854 67.4473 91.8948 67.914C91.8948 68.334 91.7781 68.712 91.5448 69.048C91.3114 69.384 90.9801 69.65 90.5508 69.846C90.1308 70.0327 89.6454 70.126 89.0948 70.126ZM95.2472 63.378V67.9C95.2472 68.2733 95.3266 68.5393 95.4852 68.698C95.6439 68.8473 95.9192 68.922 96.3112 68.922H97.2492V70H96.1012C95.3919 70 94.8599 69.8367 94.5052 69.51C94.1506 69.1833 93.9732 68.6467 93.9732 67.9V63.378H92.9792V62.328H93.9732V60.396H95.2472V62.328H97.2492V63.378H95.2472ZM105.647 63.378H104.037V70H102.763V63.378H101.769V62.328H102.763V61.782C102.763 60.9233 102.983 60.298 103.421 59.906C103.869 59.5047 104.583 59.304 105.563 59.304V60.368C105.003 60.368 104.607 60.48 104.373 60.704C104.149 60.9187 104.037 61.278 104.037 61.782V62.328H105.647V63.378ZM114.133 65.87C114.133 66.1127 114.119 66.3693 114.091 66.64H107.959C108.005 67.396 108.262 67.9887 108.729 68.418C109.205 68.838 109.779 69.048 110.451 69.048C111.001 69.048 111.459 68.922 111.823 68.67C112.196 68.4087 112.457 68.0633 112.607 67.634H113.979C113.773 68.3713 113.363 68.9733 112.747 69.44C112.131 69.8973 111.365 70.126 110.451 70.126C109.723 70.126 109.069 69.9627 108.491 69.636C107.921 69.3093 107.473 68.8473 107.147 68.25C106.82 67.6433 106.657 66.9433 106.657 66.15C106.657 65.3567 106.815 64.6613 107.133 64.064C107.45 63.4667 107.893 63.0093 108.463 62.692C109.041 62.3653 109.704 62.202 110.451 62.202C111.179 62.202 111.823 62.3607 112.383 62.678C112.943 62.9953 113.372 63.434 113.671 63.994C113.979 64.5447 114.133 65.17 114.133 65.87ZM112.817 65.604C112.817 65.1187 112.709 64.7033 112.495 64.358C112.28 64.0033 111.986 63.7373 111.613 63.56C111.249 63.3733 110.843 63.28 110.395 63.28C109.751 63.28 109.2 63.4853 108.743 63.896C108.295 64.3067 108.038 64.876 107.973 65.604H112.817ZM122.814 65.87C122.814 66.1127 122.8 66.3693 122.772 66.64H116.64C116.687 67.396 116.944 67.9887 117.41 68.418C117.886 68.838 118.46 69.048 119.132 69.048C119.683 69.048 120.14 68.922 120.504 68.67C120.878 68.4087 121.139 68.0633 121.288 67.634H122.66C122.455 68.3713 122.044 68.9733 121.428 69.44C120.812 69.8973 120.047 70.126 119.132 70.126C118.404 70.126 117.751 69.9627 117.172 69.636C116.603 69.3093 116.155 68.8473 115.828 68.25C115.502 67.6433 115.338 66.9433 115.338 66.15C115.338 65.3567 115.497 64.6613 115.814 64.064C116.132 63.4667 116.575 63.0093 117.144 62.692C117.723 62.3653 118.386 62.202 119.132 62.202C119.86 62.202 120.504 62.3607 121.064 62.678C121.624 62.9953 122.054 63.434 122.352 63.994C122.66 64.5447 122.814 65.17 122.814 65.87ZM121.498 65.604C121.498 65.1187 121.391 64.7033 121.176 64.358C120.962 64.0033 120.668 63.7373 120.294 63.56C119.93 63.3733 119.524 63.28 119.076 63.28C118.432 63.28 117.882 63.4853 117.424 63.896C116.976 64.3067 116.72 64.876 116.654 65.604H121.498ZM125.77 59.64V70H124.496V59.64H125.77ZM128.599 61.082C128.357 61.082 128.151 60.998 127.983 60.83C127.815 60.662 127.731 60.4567 127.731 60.214C127.731 59.9713 127.815 59.766 127.983 59.598C128.151 59.43 128.357 59.346 128.599 59.346C128.833 59.346 129.029 59.43 129.187 59.598C129.355 59.766 129.439 59.9713 129.439 60.214C129.439 60.4567 129.355 60.662 129.187 60.83C129.029 60.998 128.833 61.082 128.599 61.082ZM129.215 62.328V70H127.941V62.328H129.215ZM135.125 62.188C136.058 62.188 136.814 62.4727 137.393 63.042C137.971 63.602 138.261 64.414 138.261 65.478V70H137.001V65.66C137.001 64.8947 136.809 64.3113 136.427 63.91C136.044 63.4993 135.521 63.294 134.859 63.294C134.187 63.294 133.65 63.504 133.249 63.924C132.857 64.344 132.661 64.9553 132.661 65.758V70H131.387V62.328H132.661V63.42C132.913 63.028 133.253 62.7247 133.683 62.51C134.121 62.2953 134.602 62.188 135.125 62.188ZM143.506 62.202C144.168 62.202 144.747 62.3467 145.242 62.636C145.746 62.9253 146.119 63.2893 146.362 63.728V62.328H147.65V70.168C147.65 70.868 147.5 71.4887 147.202 72.03C146.903 72.5807 146.474 73.01 145.914 73.318C145.363 73.626 144.719 73.78 143.982 73.78C142.974 73.78 142.134 73.542 141.462 73.066C140.79 72.59 140.393 71.9413 140.272 71.12H141.532C141.672 71.5867 141.961 71.96 142.4 72.24C142.838 72.5293 143.366 72.674 143.982 72.674C144.682 72.674 145.251 72.4547 145.69 72.016C146.138 71.5773 146.362 70.9613 146.362 70.168V68.558C146.11 69.006 145.736 69.3793 145.242 69.678C144.747 69.9767 144.168 70.126 143.506 70.126C142.824 70.126 142.204 69.958 141.644 69.622C141.093 69.286 140.659 68.8147 140.342 68.208C140.024 67.6013 139.866 66.9107 139.866 66.136C139.866 65.352 140.024 64.666 140.342 64.078C140.659 63.4807 141.093 63.0187 141.644 62.692C142.204 62.3653 142.824 62.202 143.506 62.202ZM146.362 66.15C146.362 65.5713 146.245 65.0673 146.012 64.638C145.778 64.2087 145.461 63.882 145.06 63.658C144.668 63.4247 144.234 63.308 143.758 63.308C143.282 63.308 142.848 63.42 142.456 63.644C142.064 63.868 141.751 64.1947 141.518 64.624C141.284 65.0533 141.168 65.5573 141.168 66.136C141.168 66.724 141.284 67.2373 141.518 67.676C141.751 68.1053 142.064 68.4367 142.456 68.67C142.848 68.894 143.282 69.006 143.758 69.006C144.234 69.006 144.668 68.894 145.06 68.67C145.461 68.4367 145.778 68.1053 146.012 67.676C146.245 67.2373 146.362 66.7287 146.362 66.15ZM152.519 70.126C151.931 70.126 151.403 70.028 150.937 69.832C150.47 69.6267 150.101 69.3467 149.831 68.992C149.56 68.628 149.411 68.2127 149.383 67.746H150.699C150.736 68.1287 150.913 68.4413 151.231 68.684C151.557 68.9267 151.982 69.048 152.505 69.048C152.99 69.048 153.373 68.9407 153.653 68.726C153.933 68.5113 154.073 68.2407 154.073 67.914C154.073 67.578 153.923 67.3307 153.625 67.172C153.326 67.004 152.864 66.8407 152.239 66.682C151.669 66.5327 151.203 66.3833 150.839 66.234C150.484 66.0753 150.176 65.8467 149.915 65.548C149.663 65.24 149.537 64.8387 149.537 64.344C149.537 63.952 149.653 63.5927 149.887 63.266C150.12 62.9393 150.451 62.6827 150.881 62.496C151.31 62.3 151.8 62.202 152.351 62.202C153.2 62.202 153.886 62.4167 154.409 62.846C154.931 63.2753 155.211 63.8633 155.249 64.61H153.975C153.947 64.2087 153.783 63.8867 153.485 63.644C153.195 63.4013 152.803 63.28 152.309 63.28C151.851 63.28 151.487 63.378 151.217 63.574C150.946 63.77 150.811 64.0267 150.811 64.344C150.811 64.596 150.89 64.806 151.049 64.974C151.217 65.1327 151.422 65.2633 151.665 65.366C151.917 65.4593 152.262 65.5667 152.701 65.688C153.251 65.8373 153.699 65.9867 154.045 66.136C154.39 66.276 154.684 66.4907 154.927 66.78C155.179 67.0693 155.309 67.4473 155.319 67.914C155.319 68.334 155.202 68.712 154.969 69.048C154.735 69.384 154.404 69.65 153.975 69.846C153.555 70.0327 153.069 70.126 152.519 70.126ZM157.523 70.084C157.28 70.084 157.075 70 156.907 69.832C156.739 69.664 156.655 69.4587 156.655 69.216C156.655 68.9733 156.739 68.768 156.907 68.6C157.075 68.432 157.28 68.348 157.523 68.348C157.756 68.348 157.952 68.432 158.111 68.6C158.279 68.768 158.363 68.9733 158.363 69.216C158.363 69.4587 158.279 69.664 158.111 69.832C157.952 70 157.756 70.084 157.523 70.084ZM163.313 65.114C163.313 64.162 163.528 63.308 163.957 62.552C164.386 61.7867 164.97 61.1893 165.707 60.76C166.454 60.3307 167.28 60.116 168.185 60.116C169.249 60.116 170.178 60.3727 170.971 60.886C171.764 61.3993 172.343 62.1273 172.707 63.07H171.181C170.91 62.482 170.518 62.0293 170.005 61.712C169.501 61.3947 168.894 61.236 168.185 61.236C167.504 61.236 166.892 61.3947 166.351 61.712C165.81 62.0293 165.385 62.482 165.077 63.07C164.769 63.6487 164.615 64.33 164.615 65.114C164.615 65.8887 164.769 66.57 165.077 67.158C165.385 67.7367 165.81 68.1847 166.351 68.502C166.892 68.8193 167.504 68.978 168.185 68.978C168.894 68.978 169.501 68.824 170.005 68.516C170.518 68.1987 170.91 67.746 171.181 67.158H172.707C172.343 68.0913 171.764 68.8147 170.971 69.328C170.178 69.832 169.249 70.084 168.185 70.084C167.28 70.084 166.454 69.874 165.707 69.454C164.97 69.0247 164.386 68.432 163.957 67.676C163.528 66.92 163.313 66.066 163.313 65.114ZM174.127 66.136C174.127 65.352 174.286 64.666 174.603 64.078C174.921 63.4807 175.355 63.0187 175.905 62.692C176.465 62.3653 177.086 62.202 177.767 62.202C178.439 62.202 179.023 62.3467 179.517 62.636C180.012 62.9253 180.381 63.2893 180.623 63.728V62.328H181.911V70H180.623V68.572C180.371 69.02 179.993 69.3933 179.489 69.692C178.995 69.9813 178.416 70.126 177.753 70.126C177.072 70.126 176.456 69.958 175.905 69.622C175.355 69.286 174.921 68.8147 174.603 68.208C174.286 67.6013 174.127 66.9107 174.127 66.136ZM180.623 66.15C180.623 65.5713 180.507 65.0673 180.273 64.638C180.04 64.2087 179.723 63.882 179.321 63.658C178.929 63.4247 178.495 63.308 178.019 63.308C177.543 63.308 177.109 63.42 176.717 63.644C176.325 63.868 176.013 64.1947 175.779 64.624C175.546 65.0533 175.429 65.5573 175.429 66.136C175.429 66.724 175.546 67.2373 175.779 67.676C176.013 68.1053 176.325 68.4367 176.717 68.67C177.109 68.894 177.543 69.006 178.019 69.006C178.495 69.006 178.929 68.894 179.321 68.67C179.723 68.4367 180.04 68.1053 180.273 67.676C180.507 67.2373 180.623 66.7287 180.623 66.15ZM187.802 62.188C188.736 62.188 189.492 62.4727 190.07 63.042C190.649 63.602 190.938 64.414 190.938 65.478V70H189.678V65.66C189.678 64.8947 189.487 64.3113 189.104 63.91C188.722 63.4993 188.199 63.294 187.536 63.294C186.864 63.294 186.328 63.504 185.926 63.924C185.534 64.344 185.338 64.9553 185.338 65.758V70H184.064V62.328H185.338V63.42C185.59 63.028 185.931 62.7247 186.36 62.51C186.799 62.2953 187.28 62.188 187.802 62.188ZM22.686 83.328L18.066 94.612H16.75L18.262 90.916L15.168 83.328H16.582L18.99 89.544L21.37 83.328H22.686ZM27.3127 91.126C26.594 91.126 25.9407 90.9627 25.3527 90.636C24.774 90.3093 24.3167 89.8473 23.9807 89.25C23.654 88.6433 23.4907 87.9433 23.4907 87.15C23.4907 86.366 23.6587 85.6753 23.9947 85.078C24.34 84.4713 24.8067 84.0093 25.3947 83.692C25.9827 83.3653 26.6407 83.202 27.3687 83.202C28.0967 83.202 28.7547 83.3653 29.3427 83.692C29.9307 84.0093 30.3927 84.4667 30.7287 85.064C31.074 85.6613 31.2467 86.3567 31.2467 87.15C31.2467 87.9433 31.0693 88.6433 30.7147 89.25C30.3693 89.8473 29.898 90.3093 29.3007 90.636C28.7033 90.9627 28.0407 91.126 27.3127 91.126ZM27.3127 90.006C27.77 90.006 28.1993 89.8987 28.6007 89.684C29.002 89.4693 29.324 89.1473 29.5667 88.718C29.8187 88.2887 29.9447 87.766 29.9447 87.15C29.9447 86.534 29.8233 86.0113 29.5807 85.582C29.338 85.1527 29.0207 84.8353 28.6287 84.63C28.2367 84.4153 27.812 84.308 27.3547 84.308C26.888 84.308 26.4587 84.4153 26.0667 84.63C25.684 84.8353 25.376 85.1527 25.1427 85.582C24.9093 86.0113 24.7927 86.534 24.7927 87.15C24.7927 87.7753 24.9047 88.3027 25.1287 88.732C25.362 89.1613 25.67 89.4833 26.0527 89.698C26.4353 89.9033 26.8553 90.006 27.3127 90.006ZM39.7258 83.328V91H38.4518V89.866C38.2091 90.258 37.8684 90.566 37.4298 90.79C37.0004 91.0047 36.5244 91.112 36.0018 91.112C35.4044 91.112 34.8678 90.9907 34.3918 90.748C33.9158 90.496 33.5378 90.1227 33.2578 89.628C32.9871 89.1333 32.8518 88.5313 32.8518 87.822V83.328H34.1118V87.654C34.1118 88.41 34.3031 88.9933 34.6858 89.404C35.0684 89.8053 35.5911 90.006 36.2538 90.006C36.9351 90.006 37.4718 89.796 37.8638 89.376C38.2558 88.956 38.4518 88.3447 38.4518 87.542V83.328H39.7258ZM48.9553 91.126C48.2366 91.126 47.5833 90.9627 46.9953 90.636C46.4166 90.3093 45.9593 89.8473 45.6233 89.25C45.2966 88.6433 45.1333 87.9433 45.1333 87.15C45.1333 86.366 45.3013 85.6753 45.6373 85.078C45.9826 84.4713 46.4493 84.0093 47.0373 83.692C47.6253 83.3653 48.2833 83.202 49.0113 83.202C49.7393 83.202 50.3973 83.3653 50.9853 83.692C51.5733 84.0093 52.0353 84.4667 52.3713 85.064C52.7166 85.6613 52.8893 86.3567 52.8893 87.15C52.8893 87.9433 52.7119 88.6433 52.3573 89.25C52.0119 89.8473 51.5406 90.3093 50.9433 90.636C50.3459 90.9627 49.6833 91.126 48.9553 91.126ZM48.9553 90.006C49.4126 90.006 49.8419 89.8987 50.2433 89.684C50.6446 89.4693 50.9666 89.1473 51.2093 88.718C51.4613 88.2887 51.5873 87.766 51.5873 87.15C51.5873 86.534 51.4659 86.0113 51.2233 85.582C50.9806 85.1527 50.6633 84.8353 50.2713 84.63C49.8793 84.4153 49.4546 84.308 48.9973 84.308C48.5306 84.308 48.1013 84.4153 47.7093 84.63C47.3266 84.8353 47.0186 85.1527 46.7853 85.582C46.5519 86.0113 46.4353 86.534 46.4353 87.15C46.4353 87.7753 46.5473 88.3027 46.7713 88.732C47.0046 89.1613 47.3126 89.4833 47.6953 89.698C48.0779 89.9033 48.4979 90.006 48.9553 90.006ZM55.8383 84.742C56.0903 84.3033 56.4637 83.9393 56.9583 83.65C57.4623 83.3513 58.0457 83.202 58.7083 83.202C59.3897 83.202 60.0057 83.3653 60.5563 83.692C61.1163 84.0187 61.555 84.4807 61.8723 85.078C62.1897 85.666 62.3483 86.352 62.3483 87.136C62.3483 87.9107 62.1897 88.6013 61.8723 89.208C61.555 89.8147 61.1163 90.286 60.5563 90.622C60.0057 90.958 59.3897 91.126 58.7083 91.126C58.055 91.126 57.4763 90.9813 56.9723 90.692C56.4777 90.3933 56.0997 90.0247 55.8383 89.586V94.64H54.5643V83.328H55.8383V84.742ZM61.0463 87.136C61.0463 86.5573 60.9297 86.0533 60.6963 85.624C60.463 85.1947 60.1457 84.868 59.7443 84.644C59.3523 84.42 58.9183 84.308 58.4423 84.308C57.9757 84.308 57.5417 84.4247 57.1403 84.658C56.7483 84.882 56.431 85.2133 56.1883 85.652C55.955 86.0813 55.8383 86.5807 55.8383 87.15C55.8383 87.7287 55.955 88.2373 56.1883 88.676C56.431 89.1053 56.7483 89.4367 57.1403 89.67C57.5417 89.894 57.9757 90.006 58.4423 90.006C58.9183 90.006 59.3523 89.894 59.7443 89.67C60.1457 89.4367 60.463 89.1053 60.6963 88.676C60.9297 88.2373 61.0463 87.724 61.0463 87.136ZM71.0253 86.87C71.0253 87.1127 71.0113 87.3693 70.9833 87.64H64.8513C64.8979 88.396 65.1546 88.9887 65.6213 89.418C66.0973 89.838 66.6713 90.048 67.3433 90.048C67.8939 90.048 68.3513 89.922 68.7153 89.67C69.0886 89.4087 69.3499 89.0633 69.4993 88.634H70.8713C70.6659 89.3713 70.2553 89.9733 69.6393 90.44C69.0233 90.8973 68.2579 91.126 67.3433 91.126C66.6153 91.126 65.9619 90.9627 65.3833 90.636C64.8139 90.3093 64.3659 89.8473 64.0393 89.25C63.7126 88.6433 63.5493 87.9433 63.5493 87.15C63.5493 86.3567 63.7079 85.6613 64.0253 85.064C64.3426 84.4667 64.7859 84.0093 65.3553 83.692C65.9339 83.3653 66.5966 83.202 67.3433 83.202C68.0713 83.202 68.7153 83.3607 69.2753 83.678C69.8353 83.9953 70.2646 84.434 70.5633 84.994C70.8713 85.5447 71.0253 86.17 71.0253 86.87ZM69.7093 86.604C69.7093 86.1187 69.6019 85.7033 69.3873 85.358C69.1726 85.0033 68.8786 84.7373 68.5053 84.56C68.1413 84.3733 67.7353 84.28 67.2873 84.28C66.6433 84.28 66.0926 84.4853 65.6353 84.896C65.1873 85.3067 64.9306 85.876 64.8653 86.604H69.7093ZM76.4449 83.188C77.3782 83.188 78.1342 83.4727 78.7129 84.042C79.2916 84.602 79.5809 85.414 79.5809 86.478V91H78.3209V86.66C78.3209 85.8947 78.1296 85.3113 77.7469 84.91C77.3642 84.4993 76.8416 84.294 76.1789 84.294C75.5069 84.294 74.9702 84.504 74.5689 84.924C74.1769 85.344 73.9809 85.9553 73.9809 86.758V91H72.7069V83.328H73.9809V84.42C74.2329 84.028 74.5736 83.7247 75.0029 83.51C75.4416 83.2953 75.9222 83.188 76.4449 83.188ZM92.1984 83.328V91H90.9244V89.866C90.6817 90.258 90.3411 90.566 89.9024 90.79C89.4731 91.0047 88.9971 91.112 88.4744 91.112C87.8771 91.112 87.3404 90.9907 86.8644 90.748C86.3884 90.496 86.0104 90.1227 85.7304 89.628C85.4597 89.1333 85.3244 88.5313 85.3244 87.822V83.328H86.5844V87.654C86.5844 88.41 86.7757 88.9933 87.1584 89.404C87.5411 89.8053 88.0637 90.006 88.7264 90.006C89.4077 90.006 89.9444 89.796 90.3364 89.376C90.7284 88.956 90.9244 88.3447 90.9244 87.542V83.328H92.1984ZM95.6235 84.742C95.8755 84.3033 96.2488 83.9393 96.7435 83.65C97.2475 83.3513 97.8308 83.202 98.4935 83.202C99.1748 83.202 99.7908 83.3653 100.341 83.692C100.901 84.0187 101.34 84.4807 101.657 85.078C101.975 85.666 102.133 86.352 102.133 87.136C102.133 87.9107 101.975 88.6013 101.657 89.208C101.34 89.8147 100.901 90.286 100.341 90.622C99.7908 90.958 99.1748 91.126 98.4935 91.126C97.8402 91.126 97.2615 90.9813 96.7575 90.692C96.2628 90.3933 95.8848 90.0247 95.6235 89.586V94.64H94.3495V83.328H95.6235V84.742ZM100.831 87.136C100.831 86.5573 100.715 86.0533 100.481 85.624C100.248 85.1947 99.9308 84.868 99.5295 84.644C99.1375 84.42 98.7035 84.308 98.2275 84.308C97.7608 84.308 97.3268 84.4247 96.9255 84.658C96.5335 84.882 96.2162 85.2133 95.9735 85.652C95.7402 86.0813 95.6235 86.5807 95.6235 87.15C95.6235 87.7287 95.7402 88.2373 95.9735 88.676C96.2162 89.1053 96.5335 89.4367 96.9255 89.67C97.3268 89.894 97.7608 90.006 98.2275 90.006C98.7035 90.006 99.1375 89.894 99.5295 89.67C99.9308 89.4367 100.248 89.1053 100.481 88.676C100.715 88.2373 100.831 87.724 100.831 87.136ZM106.302 81.116C107.226 81.116 107.973 81.3773 108.542 81.9C109.112 82.4227 109.396 83.1227 109.396 84C109.396 84.98 109.093 85.708 108.486 86.184C107.88 86.6507 107.058 86.884 106.022 86.884L105.98 88.214H104.874L104.818 86.002H105.224C106.148 86.002 106.872 85.862 107.394 85.582C107.917 85.302 108.178 84.7747 108.178 84C108.178 83.44 108.01 82.9967 107.674 82.67C107.338 82.3433 106.886 82.18 106.316 82.18C105.738 82.18 105.28 82.3387 104.944 82.656C104.618 82.964 104.454 83.3887 104.454 83.93H103.25C103.25 83.37 103.376 82.88 103.628 82.46C103.88 82.0307 104.235 81.6993 104.692 81.466C105.159 81.2327 105.696 81.116 106.302 81.116ZM105.42 91.084C105.178 91.084 104.972 91 104.804 90.832C104.636 90.664 104.552 90.4587 104.552 90.216C104.552 89.9733 104.636 89.768 104.804 89.6C104.972 89.432 105.178 89.348 105.42 89.348C105.654 89.348 105.85 89.432 106.008 89.6C106.176 89.768 106.26 89.9733 106.26 90.216C106.26 90.4587 106.176 90.664 106.008 90.832C105.85 91 105.654 91.084 105.42 91.084Z" fill="black"/>
</svg>
