<svg width="232" height="110" viewBox="0 0 232 110" fill="none" xmlns="http://www.w3.org/2000/svg">
<path d="M0.5 0.5H220C226.351 0.5 231.5 5.64873 231.5 12V98C231.5 104.351 226.351 109.5 220 109.5H12C5.64873 109.5 0.5 104.351 0.5 98V0.5Z" stroke="#939393"/>
<path d="M18.91 28.242L15.732 34.318V38H14.458V34.318L11.266 28.242H12.68L15.088 33.184L17.496 28.242H18.91ZM23.5998 38.126C22.8811 38.126 22.2278 37.9627 21.6398 37.636C21.0611 37.3093 20.6038 36.8473 20.2678 36.25C19.9411 35.6433 19.7778 34.9433 19.7778 34.15C19.7778 33.366 19.9458 32.6753 20.2818 32.078C20.6271 31.4713 21.0938 31.0093 21.6818 30.692C22.2698 30.3653 22.9278 30.202 23.6558 30.202C24.3838 30.202 25.0418 30.3653 25.6298 30.692C26.2178 31.0093 26.6798 31.4667 27.0158 32.064C27.3611 32.6613 27.5338 33.3567 27.5338 34.15C27.5338 34.9433 27.3564 35.6433 27.0018 36.25C26.6564 36.8473 26.1851 37.3093 25.5878 37.636C24.9904 37.9627 24.3278 38.126 23.5998 38.126ZM23.5998 37.006C24.0571 37.006 24.4864 36.8987 24.8878 36.684C25.2891 36.4693 25.6111 36.1473 25.8538 35.718C26.1058 35.2887 26.2318 34.766 26.2318 34.15C26.2318 33.534 26.1104 33.0113 25.8678 32.582C25.6251 32.1527 25.3078 31.8353 24.9158 31.63C24.5238 31.4153 24.0991 31.308 23.6418 31.308C23.1751 31.308 22.7458 31.4153 22.3538 31.63C21.9711 31.8353 21.6631 32.1527 21.4298 32.582C21.1964 33.0113 21.0798 33.534 21.0798 34.15C21.0798 34.7753 21.1918 35.3027 21.4158 35.732C21.6491 36.1613 21.9571 36.4833 22.3398 36.698C22.7224 36.9033 23.1424 37.006 23.5998 37.006ZM36.0129 30.328V38H34.7389V36.866C34.4962 37.258 34.1555 37.566 33.7169 37.79C33.2875 38.0047 32.8115 38.112 32.2889 38.112C31.6915 38.112 31.1549 37.9907 30.6789 37.748C30.2029 37.496 29.8249 37.1227 29.5449 36.628C29.2742 36.1333 29.1389 35.5313 29.1389 34.822V30.328H30.3989V34.654C30.3989 35.41 30.5902 35.9933 30.9729 36.404C31.3555 36.8053 31.8782 37.006 32.5409 37.006C33.2222 37.006 33.7589 36.796 34.1509 36.376C34.5429 35.956 34.7389 35.3447 34.7389 34.542V30.328H36.0129ZM39.4379 31.574C39.6619 31.1353 39.9793 30.7947 40.3899 30.552C40.8099 30.3093 41.3186 30.188 41.9159 30.188V31.504H41.5799C40.1519 31.504 39.4379 32.2787 39.4379 33.828V38H38.1639V30.328H39.4379V31.574ZM46.643 34.15C46.643 33.3567 46.8017 32.666 47.119 32.078C47.4363 31.4807 47.875 31.0187 48.435 30.692C49.0043 30.3653 49.653 30.202 50.381 30.202C51.3237 30.202 52.0983 30.4307 52.705 30.888C53.321 31.3453 53.727 31.98 53.923 32.792H52.551C52.4203 32.3253 52.1637 31.9567 51.781 31.686C51.4077 31.4153 50.941 31.28 50.381 31.28C49.653 31.28 49.065 31.532 48.617 32.036C48.169 32.5307 47.945 33.2353 47.945 34.15C47.945 35.074 48.169 35.788 48.617 36.292C49.065 36.796 49.653 37.048 50.381 37.048C50.941 37.048 51.4077 36.9173 51.781 36.656C52.1543 36.3947 52.411 36.0213 52.551 35.536H53.923C53.7177 36.32 53.307 36.95 52.691 37.426C52.075 37.8927 51.305 38.126 50.381 38.126C49.653 38.126 49.0043 37.9627 48.435 37.636C47.875 37.3093 47.4363 36.8473 47.119 36.25C46.8017 35.6527 46.643 34.9527 46.643 34.15ZM55.1469 34.136C55.1469 33.352 55.3056 32.666 55.6229 32.078C55.9403 31.4807 56.3743 31.0187 56.9249 30.692C57.4849 30.3653 58.1056 30.202 58.7869 30.202C59.4589 30.202 60.0423 30.3467 60.5369 30.636C61.0316 30.9253 61.4003 31.2893 61.6429 31.728V30.328H62.9309V38H61.6429V36.572C61.3909 37.02 61.0129 37.3933 60.5089 37.692C60.0143 37.9813 59.4356 38.126 58.7729 38.126C58.0916 38.126 57.4756 37.958 56.9249 37.622C56.3743 37.286 55.9403 36.8147 55.6229 36.208C55.3056 35.6013 55.1469 34.9107 55.1469 34.136ZM61.6429 34.15C61.6429 33.5713 61.5263 33.0673 61.2929 32.638C61.0596 32.2087 60.7423 31.882 60.3409 31.658C59.9489 31.4247 59.5149 31.308 59.0389 31.308C58.5629 31.308 58.1289 31.42 57.7369 31.644C57.3449 31.868 57.0323 32.1947 56.7989 32.624C56.5656 33.0533 56.4489 33.5573 56.4489 34.136C56.4489 34.724 56.5656 35.2373 56.7989 35.676C57.0323 36.1053 57.3449 36.4367 57.7369 36.67C58.1289 36.894 58.5629 37.006 59.0389 37.006C59.5149 37.006 59.9489 36.894 60.3409 36.67C60.7423 36.4367 61.0596 36.1053 61.2929 35.676C61.5263 35.2373 61.6429 34.7287 61.6429 34.15ZM66.3579 31.574C66.5819 31.1353 66.8992 30.7947 67.3099 30.552C67.7299 30.3093 68.2385 30.188 68.8359 30.188V31.504H68.4999C67.0719 31.504 66.3579 32.2787 66.3579 33.828V38H65.0839V30.328H66.3579V31.574ZM77.3065 33.87C77.3065 34.1127 77.2925 34.3693 77.2645 34.64H71.1325C71.1792 35.396 71.4358 35.9887 71.9025 36.418C72.3785 36.838 72.9525 37.048 73.6245 37.048C74.1752 37.048 74.6325 36.922 74.9965 36.67C75.3698 36.4087 75.6312 36.0633 75.7805 35.634H77.1525C76.9472 36.3713 76.5365 36.9733 75.9205 37.44C75.3045 37.8973 74.5392 38.126 73.6245 38.126C72.8965 38.126 72.2432 37.9627 71.6645 37.636C71.0952 37.3093 70.6472 36.8473 70.3205 36.25C69.9938 35.6433 69.8305 34.9433 69.8305 34.15C69.8305 33.3567 69.9892 32.6613 70.3065 32.064C70.6238 31.4667 71.0672 31.0093 71.6365 30.692C72.2152 30.3653 72.8778 30.202 73.6245 30.202C74.3525 30.202 74.9965 30.3607 75.5565 30.678C76.1165 30.9953 76.5458 31.434 76.8445 31.994C77.1525 32.5447 77.3065 33.17 77.3065 33.87ZM75.9905 33.604C75.9905 33.1187 75.8832 32.7033 75.6685 32.358C75.4538 32.0033 75.1598 31.7373 74.7865 31.56C74.4225 31.3733 74.0165 31.28 73.5685 31.28C72.9245 31.28 72.3738 31.4853 71.9165 31.896C71.4685 32.3067 71.2118 32.876 71.1465 33.604H75.9905ZM82.1102 31.378H80.5002V38H79.2262V31.378H78.2322V30.328H79.2262V29.782C79.2262 28.9233 79.4455 28.298 79.8842 27.906C80.3322 27.5047 81.0462 27.304 82.0262 27.304V28.368C81.4662 28.368 81.0695 28.48 80.8362 28.704C80.6122 28.9187 80.5002 29.278 80.5002 29.782V30.328H82.1102V31.378ZM90.3996 30.328V38H89.1256V36.866C88.8829 37.258 88.5422 37.566 88.1036 37.79C87.6742 38.0047 87.1982 38.112 86.6756 38.112C86.0782 38.112 85.5416 37.9907 85.0656 37.748C84.5896 37.496 84.2116 37.1227 83.9316 36.628C83.6609 36.1333 83.5256 35.5313 83.5256 34.822V30.328H84.7856V34.654C84.7856 35.41 84.9769 35.9933 85.3596 36.404C85.7422 36.8053 86.2649 37.006 86.9276 37.006C87.6089 37.006 88.1456 36.796 88.5376 36.376C88.9296 35.956 89.1256 35.3447 89.1256 34.542V30.328H90.3996ZM93.8247 27.64V38H92.5507V27.64H93.8247ZM97.27 27.64V38H95.996V27.64H97.27ZM106.049 30.328L101.429 41.612H100.113L101.625 37.916L98.5313 30.328H99.9453L102.353 36.544L104.733 30.328H106.049ZM112.336 31.742C112.588 31.3033 112.962 30.9393 113.456 30.65C113.96 30.3513 114.544 30.202 115.206 30.202C115.888 30.202 116.504 30.3653 117.054 30.692C117.614 31.0187 118.053 31.4807 118.37 32.078C118.688 32.666 118.846 33.352 118.846 34.136C118.846 34.9107 118.688 35.6013 118.37 36.208C118.053 36.8147 117.614 37.286 117.054 37.622C116.504 37.958 115.888 38.126 115.206 38.126C114.553 38.126 113.974 37.9813 113.47 37.692C112.976 37.3933 112.598 37.0247 112.336 36.586V41.64H111.062V30.328H112.336V31.742ZM117.544 34.136C117.544 33.5573 117.428 33.0533 117.194 32.624C116.961 32.1947 116.644 31.868 116.242 31.644C115.85 31.42 115.416 31.308 114.94 31.308C114.474 31.308 114.04 31.4247 113.638 31.658C113.246 31.882 112.929 32.2133 112.686 32.652C112.453 33.0813 112.336 33.5807 112.336 34.15C112.336 34.7287 112.453 35.2373 112.686 35.676C112.929 36.1053 113.246 36.4367 113.638 36.67C114.04 36.894 114.474 37.006 114.94 37.006C115.416 37.006 115.85 36.894 116.242 36.67C116.644 36.4367 116.961 36.1053 117.194 35.676C117.428 35.2373 117.544 34.724 117.544 34.136ZM121.797 27.64V38H120.523V27.64H121.797ZM123.493 34.136C123.493 33.352 123.651 32.666 123.969 32.078C124.286 31.4807 124.72 31.0187 125.271 30.692C125.831 30.3653 126.451 30.202 127.133 30.202C127.805 30.202 128.388 30.3467 128.883 30.636C129.377 30.9253 129.746 31.2893 129.989 31.728V30.328H131.277V38H129.989V36.572C129.737 37.02 129.359 37.3933 128.855 37.692C128.36 37.9813 127.781 38.126 127.119 38.126C126.437 38.126 125.821 37.958 125.271 37.622C124.72 37.286 124.286 36.8147 123.969 36.208C123.651 35.6013 123.493 34.9107 123.493 34.136ZM129.989 34.15C129.989 33.5713 129.872 33.0673 129.639 32.638C129.405 32.2087 129.088 31.882 128.687 31.658C128.295 31.4247 127.861 31.308 127.385 31.308C126.909 31.308 126.475 31.42 126.083 31.644C125.691 31.868 125.378 32.1947 125.145 32.624C124.911 33.0533 124.795 33.5573 124.795 34.136C124.795 34.724 124.911 35.2373 125.145 35.676C125.378 36.1053 125.691 36.4367 126.083 36.67C126.475 36.894 126.909 37.006 127.385 37.006C127.861 37.006 128.295 36.894 128.687 36.67C129.088 36.4367 129.405 36.1053 129.639 35.676C129.872 35.2373 129.989 34.7287 129.989 34.15ZM137.168 30.188C138.101 30.188 138.857 30.4727 139.436 31.042C140.014 31.602 140.304 32.414 140.304 33.478V38H139.044V33.66C139.044 32.8947 138.852 32.3113 138.47 31.91C138.087 31.4993 137.564 31.294 136.902 31.294C136.23 31.294 135.693 31.504 135.292 31.924C134.9 32.344 134.704 32.9553 134.704 33.758V38H133.43V30.328H134.704V31.42C134.956 31.028 135.296 30.7247 135.726 30.51C136.164 30.2953 136.645 30.188 137.168 30.188ZM146.123 30.188C147.056 30.188 147.812 30.4727 148.391 31.042C148.969 31.602 149.259 32.414 149.259 33.478V38H147.999V33.66C147.999 32.8947 147.807 32.3113 147.425 31.91C147.042 31.4993 146.519 31.294 145.857 31.294C145.185 31.294 144.648 31.504 144.247 31.924C143.855 32.344 143.659 32.9553 143.659 33.758V38H142.385V30.328H143.659V31.42C143.911 31.028 144.251 30.7247 144.681 30.51C145.119 30.2953 145.6 30.188 146.123 30.188ZM158.34 33.87C158.34 34.1127 158.326 34.3693 158.298 34.64H152.166C152.212 35.396 152.469 35.9887 152.936 36.418C153.412 36.838 153.986 37.048 154.658 37.048C155.208 37.048 155.666 36.922 156.03 36.67C156.403 36.4087 156.664 36.0633 156.814 35.634H158.186C157.98 36.3713 157.57 36.9733 156.954 37.44C156.338 37.8973 155.572 38.126 154.658 38.126C153.93 38.126 153.276 37.9627 152.698 37.636C152.128 37.3093 151.68 36.8473 151.354 36.25C151.027 35.6433 150.864 34.9433 150.864 34.15C150.864 33.3567 151.022 32.6613 151.34 32.064C151.657 31.4667 152.1 31.0093 152.67 30.692C153.248 30.3653 153.911 30.202 154.658 30.202C155.386 30.202 156.03 30.3607 156.59 30.678C157.15 30.9953 157.579 31.434 157.878 31.994C158.186 32.5447 158.34 33.17 158.34 33.87ZM157.024 33.604C157.024 33.1187 156.916 32.7033 156.702 32.358C156.487 32.0033 156.193 31.7373 155.82 31.56C155.456 31.3733 155.05 31.28 154.602 31.28C153.958 31.28 153.407 31.4853 152.95 31.896C152.502 32.3067 152.245 32.876 152.18 33.604H157.024ZM159.545 34.136C159.545 33.352 159.704 32.666 160.021 32.078C160.339 31.4807 160.773 31.0187 161.323 30.692C161.883 30.3653 162.509 30.202 163.199 30.202C163.797 30.202 164.352 30.342 164.865 30.622C165.379 30.8927 165.771 31.252 166.041 31.7V27.64H167.329V38H166.041V36.558C165.789 37.0153 165.416 37.3933 164.921 37.692C164.427 37.9813 163.848 38.126 163.185 38.126C162.504 38.126 161.883 37.958 161.323 37.622C160.773 37.286 160.339 36.8147 160.021 36.208C159.704 35.6013 159.545 34.9107 159.545 34.136ZM166.041 34.15C166.041 33.5713 165.925 33.0673 165.691 32.638C165.458 32.2087 165.141 31.882 164.739 31.658C164.347 31.4247 163.913 31.308 163.437 31.308C162.961 31.308 162.527 31.42 162.135 31.644C161.743 31.868 161.431 32.1947 161.197 32.624C160.964 33.0533 160.847 33.5573 160.847 34.136C160.847 34.724 160.964 35.2373 161.197 35.676C161.431 36.1053 161.743 36.4367 162.135 36.67C162.527 36.894 162.961 37.006 163.437 37.006C163.913 37.006 164.347 36.894 164.739 36.67C165.141 36.4367 165.458 36.1053 165.691 35.676C165.925 35.2373 166.041 34.7287 166.041 34.15ZM11.602 55.15C11.602 54.3567 11.7607 53.666 12.078 53.078C12.3953 52.4807 12.834 52.0187 13.394 51.692C13.9633 51.3653 14.612 51.202 15.34 51.202C16.2827 51.202 17.0573 51.4307 17.664 51.888C18.28 52.3453 18.686 52.98 18.882 53.792H17.51C17.3793 53.3253 17.1227 52.9567 16.74 52.686C16.3667 52.4153 15.9 52.28 15.34 52.28C14.612 52.28 14.024 52.532 13.576 53.036C13.128 53.5307 12.904 54.2353 12.904 55.15C12.904 56.074 13.128 56.788 13.576 57.292C14.024 57.796 14.612 58.048 15.34 58.048C15.9 58.048 16.3667 57.9173 16.74 57.656C17.1133 57.3947 17.37 57.0213 17.51 56.536H18.882C18.6767 57.32 18.266 57.95 17.65 58.426C17.034 58.8927 16.264 59.126 15.34 59.126C14.612 59.126 13.9633 58.9627 13.394 58.636C12.834 58.3093 12.3953 57.8473 12.078 57.25C11.7607 56.6527 11.602 55.9527 11.602 55.15ZM23.9279 59.126C23.2092 59.126 22.5559 58.9627 21.9679 58.636C21.3892 58.3093 20.9319 57.8473 20.5959 57.25C20.2692 56.6433 20.1059 55.9433 20.1059 55.15C20.1059 54.366 20.2739 53.6753 20.6099 53.078C20.9552 52.4713 21.4219 52.0093 22.0099 51.692C22.5979 51.3653 23.2559 51.202 23.9839 51.202C24.7119 51.202 25.3699 51.3653 25.9579 51.692C26.5459 52.0093 27.0079 52.4667 27.3439 53.064C27.6892 53.6613 27.8619 54.3567 27.8619 55.15C27.8619 55.9433 27.6846 56.6433 27.3299 57.25C26.9846 57.8473 26.5132 58.3093 25.9159 58.636C25.3186 58.9627 24.6559 59.126 23.9279 59.126ZM23.9279 58.006C24.3852 58.006 24.8146 57.8987 25.2159 57.684C25.6172 57.4693 25.9392 57.1473 26.1819 56.718C26.4339 56.2887 26.5599 55.766 26.5599 55.15C26.5599 54.534 26.4386 54.0113 26.1959 53.582C25.9532 53.1527 25.6359 52.8353 25.2439 52.63C24.8519 52.4153 24.4272 52.308 23.9699 52.308C23.5032 52.308 23.0739 52.4153 22.6819 52.63C22.2992 52.8353 21.9912 53.1527 21.7579 53.582C21.5246 54.0113 21.4079 54.534 21.4079 55.15C21.4079 55.7753 21.5199 56.3027 21.7439 56.732C21.9772 57.1613 22.2852 57.4833 22.6679 57.698C23.0506 57.9033 23.4706 58.006 23.9279 58.006ZM33.275 51.188C34.2083 51.188 34.9643 51.4727 35.543 52.042C36.1217 52.602 36.411 53.414 36.411 54.478V59H35.151V54.66C35.151 53.8947 34.9597 53.3113 34.577 52.91C34.1943 52.4993 33.6717 52.294 33.009 52.294C32.337 52.294 31.8003 52.504 31.399 52.924C31.007 53.344 30.811 53.9553 30.811 54.758V59H29.537V51.328H30.811V52.42C31.063 52.028 31.4037 51.7247 31.833 51.51C32.2717 51.2953 32.7523 51.188 33.275 51.188ZM41.3481 57.824L43.7281 51.328H45.0861L42.0761 59H40.5921L37.5821 51.328H38.9541L41.3481 57.824ZM53.3397 54.87C53.3397 55.1127 53.3257 55.3693 53.2977 55.64H47.1657C47.2124 56.396 47.4691 56.9887 47.9357 57.418C48.4117 57.838 48.9857 58.048 49.6577 58.048C50.2084 58.048 50.6657 57.922 51.0297 57.67C51.4031 57.4087 51.6644 57.0633 51.8137 56.634H53.1857C52.9804 57.3713 52.5697 57.9733 51.9537 58.44C51.3377 58.8973 50.5724 59.126 49.6577 59.126C48.9297 59.126 48.2764 58.9627 47.6977 58.636C47.1284 58.3093 46.6804 57.8473 46.3537 57.25C46.0271 56.6433 45.8637 55.9433 45.8637 55.15C45.8637 54.3567 46.0224 53.6613 46.3397 53.064C46.6571 52.4667 47.1004 52.0093 47.6697 51.692C48.2484 51.3653 48.9111 51.202 49.6577 51.202C50.3857 51.202 51.0297 51.3607 51.5897 51.678C52.1497 51.9953 52.5791 52.434 52.8777 52.994C53.1857 53.5447 53.3397 54.17 53.3397 54.87ZM52.0237 54.604C52.0237 54.1187 51.9164 53.7033 51.7017 53.358C51.4871 53.0033 51.1931 52.7373 50.8197 52.56C50.4557 52.3733 50.0497 52.28 49.6017 52.28C48.9577 52.28 48.4071 52.4853 47.9497 52.896C47.5017 53.3067 47.2451 53.876 47.1797 54.604H52.0237ZM56.2954 52.574C56.5194 52.1353 56.8367 51.7947 57.2474 51.552C57.6674 51.3093 58.176 51.188 58.7734 51.188V52.504H58.4374C57.0094 52.504 56.2954 53.2787 56.2954 54.828V59H55.0214V51.328H56.2954V52.574ZM62.96 59.126C62.372 59.126 61.8447 59.028 61.378 58.832C60.9113 58.6267 60.5427 58.3467 60.272 57.992C60.0013 57.628 59.852 57.2127 59.824 56.746H61.14C61.1773 57.1287 61.3547 57.4413 61.672 57.684C61.9987 57.9267 62.4233 58.048 62.946 58.048C63.4313 58.048 63.814 57.9407 64.094 57.726C64.374 57.5113 64.514 57.2407 64.514 56.914C64.514 56.578 64.3647 56.3307 64.066 56.172C63.7673 56.004 63.3053 55.8407 62.68 55.682C62.1107 55.5327 61.644 55.3833 61.28 55.234C60.9253 55.0753 60.6173 54.8467 60.356 54.548C60.104 54.24 59.978 53.8387 59.978 53.344C59.978 52.952 60.0947 52.5927 60.328 52.266C60.5613 51.9393 60.8927 51.6827 61.322 51.496C61.7513 51.3 62.2413 51.202 62.792 51.202C63.6413 51.202 64.3273 51.4167 64.85 51.846C65.3727 52.2753 65.6527 52.8633 65.69 53.61H64.416C64.388 53.2087 64.2247 52.8867 63.926 52.644C63.6367 52.4013 63.2447 52.28 62.75 52.28C62.2927 52.28 61.9287 52.378 61.658 52.574C61.3873 52.77 61.252 53.0267 61.252 53.344C61.252 53.596 61.3313 53.806 61.49 53.974C61.658 54.1327 61.8633 54.2633 62.106 54.366C62.358 54.4593 62.7033 54.5667 63.142 54.688C63.6927 54.8373 64.1407 54.9867 64.486 55.136C64.8313 55.276 65.1253 55.4907 65.368 55.78C65.62 56.0693 65.7507 56.4473 65.76 56.914C65.76 57.334 65.6433 57.712 65.41 58.048C65.1767 58.384 64.8453 58.65 64.416 58.846C63.996 59.0327 63.5107 59.126 62.96 59.126ZM67.0825 55.136C67.0825 54.352 67.2411 53.666 67.5585 53.078C67.8758 52.4807 68.3098 52.0187 68.8605 51.692C69.4205 51.3653 70.0411 51.202 70.7225 51.202C71.3945 51.202 71.9778 51.3467 72.4725 51.636C72.9671 51.9253 73.3358 52.2893 73.5785 52.728V51.328H74.8665V59H73.5785V57.572C73.3265 58.02 72.9485 58.3933 72.4445 58.692C71.9498 58.9813 71.3711 59.126 70.7085 59.126C70.0271 59.126 69.4111 58.958 68.8605 58.622C68.3098 58.286 67.8758 57.8147 67.5585 57.208C67.2411 56.6013 67.0825 55.9107 67.0825 55.136ZM73.5785 55.15C73.5785 54.5713 73.4618 54.0673 73.2285 53.638C72.9951 53.2087 72.6778 52.882 72.2765 52.658C71.8845 52.4247 71.4505 52.308 70.9745 52.308C70.4985 52.308 70.0645 52.42 69.6725 52.644C69.2805 52.868 68.9678 53.1947 68.7345 53.624C68.5011 54.0533 68.3845 54.5573 68.3845 55.136C68.3845 55.724 68.5011 56.2373 68.7345 56.676C68.9678 57.1053 69.2805 57.4367 69.6725 57.67C70.0645 57.894 70.4985 58.006 70.9745 58.006C71.4505 58.006 71.8845 57.894 72.2765 57.67C72.6778 57.4367 72.9951 57.1053 73.2285 56.676C73.4618 56.2373 73.5785 55.7287 73.5785 55.15ZM78.5734 52.378V56.9C78.5734 57.2733 78.6527 57.5393 78.8114 57.698C78.9701 57.8473 79.2454 57.922 79.6374 57.922H80.5754V59H79.4274C78.7181 59 78.1861 58.8367 77.8314 58.51C77.4767 58.1833 77.2994 57.6467 77.2994 56.9V52.378H76.3054V51.328H77.2994V49.396H78.5734V51.328H80.5754V52.378H78.5734ZM82.777 50.082C82.5343 50.082 82.329 49.998 82.161 49.83C81.993 49.662 81.909 49.4567 81.909 49.214C81.909 48.9713 81.993 48.766 82.161 48.598C82.329 48.43 82.5343 48.346 82.777 48.346C83.0103 48.346 83.2063 48.43 83.365 48.598C83.533 48.766 83.617 48.9713 83.617 49.214C83.617 49.4567 83.533 49.662 83.365 49.83C83.2063 49.998 83.0103 50.082 82.777 50.082ZM83.393 51.328V59H82.119V51.328H83.393ZM88.9103 59.126C88.1917 59.126 87.5383 58.9627 86.9503 58.636C86.3717 58.3093 85.9143 57.8473 85.5783 57.25C85.2517 56.6433 85.0883 55.9433 85.0883 55.15C85.0883 54.366 85.2563 53.6753 85.5923 53.078C85.9377 52.4713 86.4043 52.0093 86.9923 51.692C87.5803 51.3653 88.2383 51.202 88.9663 51.202C89.6943 51.202 90.3523 51.3653 90.9403 51.692C91.5283 52.0093 91.9903 52.4667 92.3263 53.064C92.6717 53.6613 92.8443 54.3567 92.8443 55.15C92.8443 55.9433 92.667 56.6433 92.3123 57.25C91.967 57.8473 91.4957 58.3093 90.8983 58.636C90.301 58.9627 89.6383 59.126 88.9103 59.126ZM88.9103 58.006C89.3677 58.006 89.797 57.8987 90.1983 57.684C90.5997 57.4693 90.9217 57.1473 91.1643 56.718C91.4163 56.2887 91.5423 55.766 91.5423 55.15C91.5423 54.534 91.421 54.0113 91.1783 53.582C90.9357 53.1527 90.6183 52.8353 90.2263 52.63C89.8343 52.4153 89.4097 52.308 88.9523 52.308C88.4857 52.308 88.0563 52.4153 87.6643 52.63C87.2817 52.8353 86.9737 53.1527 86.7403 53.582C86.507 54.0113 86.3903 54.534 86.3903 55.15C86.3903 55.7753 86.5023 56.3027 86.7263 56.732C86.9597 57.1613 87.2677 57.4833 87.6503 57.698C88.033 57.9033 88.453 58.006 88.9103 58.006ZM98.2574 51.188C99.1907 51.188 99.9467 51.4727 100.525 52.042C101.104 52.602 101.393 53.414 101.393 54.478V59H100.133V54.66C100.133 53.8947 99.9421 53.3113 99.5594 52.91C99.1767 52.4993 98.6541 52.294 97.9914 52.294C97.3194 52.294 96.7827 52.504 96.3814 52.924C95.9894 53.344 95.7934 53.9553 95.7934 54.758V59H94.5194V51.328H95.7934V52.42C96.0454 52.028 96.3861 51.7247 96.8154 51.51C97.2541 51.2953 97.7347 51.188 98.2574 51.188ZM109.923 59.126C109.335 59.126 108.808 59.028 108.341 58.832C107.874 58.6267 107.506 58.3467 107.235 57.992C106.964 57.628 106.815 57.2127 106.787 56.746H108.103C108.14 57.1287 108.318 57.4413 108.635 57.684C108.962 57.9267 109.386 58.048 109.909 58.048C110.394 58.048 110.777 57.9407 111.057 57.726C111.337 57.5113 111.477 57.2407 111.477 56.914C111.477 56.578 111.328 56.3307 111.029 56.172C110.73 56.004 110.268 55.8407 109.643 55.682C109.074 55.5327 108.607 55.3833 108.243 55.234C107.888 55.0753 107.58 54.8467 107.319 54.548C107.067 54.24 106.941 53.8387 106.941 53.344C106.941 52.952 107.058 52.5927 107.291 52.266C107.524 51.9393 107.856 51.6827 108.285 51.496C108.714 51.3 109.204 51.202 109.755 51.202C110.604 51.202 111.29 51.4167 111.813 51.846C112.336 52.2753 112.616 52.8633 112.653 53.61H111.379C111.351 53.2087 111.188 52.8867 110.889 52.644C110.6 52.4013 110.208 52.28 109.713 52.28C109.256 52.28 108.892 52.378 108.621 52.574C108.35 52.77 108.215 53.0267 108.215 53.344C108.215 53.596 108.294 53.806 108.453 53.974C108.621 54.1327 108.826 54.2633 109.069 54.366C109.321 54.4593 109.666 54.5667 110.105 54.688C110.656 54.8373 111.104 54.9867 111.449 55.136C111.794 55.276 112.088 55.4907 112.331 55.78C112.583 56.0693 112.714 56.4473 112.723 56.914C112.723 57.334 112.606 57.712 112.373 58.048C112.14 58.384 111.808 58.65 111.379 58.846C110.959 59.0327 110.474 59.126 109.923 59.126ZM116.075 52.378V56.9C116.075 57.2733 116.155 57.5393 116.313 57.698C116.472 57.8473 116.747 57.922 117.139 57.922H118.077V59H116.929C116.22 59 115.688 58.8367 115.333 58.51C114.979 58.1833 114.801 57.6467 114.801 56.9V52.378H113.807V51.328H114.801V49.396H116.075V51.328H118.077V52.378H116.075ZM119.145 55.136C119.145 54.352 119.304 53.666 119.621 53.078C119.938 52.4807 120.372 52.0187 120.923 51.692C121.483 51.3653 122.104 51.202 122.785 51.202C123.457 51.202 124.04 51.3467 124.535 51.636C125.03 51.9253 125.398 52.2893 125.641 52.728V51.328H126.929V59H125.641V57.572C125.389 58.02 125.011 58.3933 124.507 58.692C124.012 58.9813 123.434 59.126 122.771 59.126C122.09 59.126 121.474 58.958 120.923 58.622C120.372 58.286 119.938 57.8147 119.621 57.208C119.304 56.6013 119.145 55.9107 119.145 55.136ZM125.641 55.15C125.641 54.5713 125.524 54.0673 125.291 53.638C125.058 53.2087 124.74 52.882 124.339 52.658C123.947 52.4247 123.513 52.308 123.037 52.308C122.561 52.308 122.127 52.42 121.735 52.644C121.343 52.868 121.03 53.1947 120.797 53.624C120.564 54.0533 120.447 54.5573 120.447 55.136C120.447 55.724 120.564 56.2373 120.797 56.676C121.03 57.1053 121.343 57.4367 121.735 57.67C122.127 57.894 122.561 58.006 123.037 58.006C123.513 58.006 123.947 57.894 124.339 57.67C124.74 57.4367 125.058 57.1053 125.291 56.676C125.524 56.2373 125.641 55.7287 125.641 55.15ZM130.356 52.574C130.58 52.1353 130.897 51.7947 131.308 51.552C131.728 51.3093 132.237 51.188 132.834 51.188V52.504H132.498C131.07 52.504 130.356 53.2787 130.356 54.828V59H129.082V51.328H130.356V52.574ZM135.859 52.378V56.9C135.859 57.2733 135.938 57.5393 136.097 57.698C136.255 57.8473 136.531 57.922 136.923 57.922H137.861V59H136.713C136.003 59 135.471 58.8367 135.117 58.51C134.762 58.1833 134.585 57.6467 134.585 56.9V52.378H133.591V51.328H134.585V49.396H135.859V51.328H137.861V52.378H135.859ZM142.12 59.126C141.532 59.126 141.005 59.028 140.538 58.832C140.072 58.6267 139.703 58.3467 139.432 57.992C139.162 57.628 139.012 57.2127 138.984 56.746H140.3C140.338 57.1287 140.515 57.4413 140.832 57.684C141.159 57.9267 141.584 58.048 142.106 58.048C142.592 58.048 142.974 57.9407 143.254 57.726C143.534 57.5113 143.674 57.2407 143.674 56.914C143.674 56.578 143.525 56.3307 143.226 56.172C142.928 56.004 142.466 55.8407 141.84 55.682C141.271 55.5327 140.804 55.3833 140.44 55.234C140.086 55.0753 139.778 54.8467 139.516 54.548C139.264 54.24 139.138 53.8387 139.138 53.344C139.138 52.952 139.255 52.5927 139.488 52.266C139.722 51.9393 140.053 51.6827 140.482 51.496C140.912 51.3 141.402 51.202 141.952 51.202C142.802 51.202 143.488 51.4167 144.01 51.846C144.533 52.2753 144.813 52.8633 144.85 53.61H143.576C143.548 53.2087 143.385 52.8867 143.086 52.644C142.797 52.4013 142.405 52.28 141.91 52.28C141.453 52.28 141.089 52.378 140.818 52.574C140.548 52.77 140.412 53.0267 140.412 53.344C140.412 53.596 140.492 53.806 140.65 53.974C140.818 54.1327 141.024 54.2633 141.266 54.366C141.518 54.4593 141.864 54.5667 142.302 54.688C142.853 54.8373 143.301 54.9867 143.646 55.136C143.992 55.276 144.286 55.4907 144.528 55.78C144.78 56.0693 144.911 56.4473 144.92 56.914C144.92 57.334 144.804 57.712 144.57 58.048C144.337 58.384 144.006 58.65 143.576 58.846C143.156 59.0327 142.671 59.126 142.12 59.126ZM152.005 52.378V56.9C152.005 57.2733 152.084 57.5393 152.243 57.698C152.402 57.8473 152.677 57.922 153.069 57.922H154.007V59H152.859C152.15 59 151.618 58.8367 151.263 58.51C150.908 58.1833 150.731 57.6467 150.731 56.9V52.378H149.737V51.328H150.731V49.396H152.005V51.328H154.007V52.378H152.005ZM158.897 59.126C158.178 59.126 157.525 58.9627 156.937 58.636C156.358 58.3093 155.901 57.8473 155.565 57.25C155.238 56.6433 155.075 55.9433 155.075 55.15C155.075 54.366 155.243 53.6753 155.579 53.078C155.924 52.4713 156.391 52.0093 156.979 51.692C157.567 51.3653 158.225 51.202 158.953 51.202C159.681 51.202 160.339 51.3653 160.927 51.692C161.515 52.0093 161.977 52.4667 162.313 53.064C162.658 53.6613 162.831 54.3567 162.831 55.15C162.831 55.9433 162.653 56.6433 162.299 57.25C161.953 57.8473 161.482 58.3093 160.885 58.636C160.287 58.9627 159.625 59.126 158.897 59.126ZM158.897 58.006C159.354 58.006 159.783 57.8987 160.185 57.684C160.586 57.4693 160.908 57.1473 161.151 56.718C161.403 56.2887 161.529 55.766 161.529 55.15C161.529 54.534 161.407 54.0113 161.165 53.582C160.922 53.1527 160.605 52.8353 160.213 52.63C159.821 52.4153 159.396 52.308 158.939 52.308C158.472 52.308 158.043 52.4153 157.651 52.63C157.268 52.8353 156.96 53.1527 156.727 53.582C156.493 54.0113 156.377 54.534 156.377 55.15C156.377 55.7753 156.489 56.3027 156.713 56.732C156.946 57.1613 157.254 57.4833 157.637 57.698C158.019 57.9033 158.439 58.006 158.897 58.006ZM171.094 57.824L173.474 51.328H174.832L171.822 59H170.338L167.328 51.328H168.7L171.094 57.824ZM183.086 54.87C183.086 55.1127 183.072 55.3693 183.044 55.64H176.912C176.958 56.396 177.215 56.9887 177.682 57.418C178.158 57.838 178.732 58.048 179.404 58.048C179.954 58.048 180.412 57.922 180.776 57.67C181.149 57.4087 181.41 57.0633 181.56 56.634H182.932C182.726 57.3713 182.316 57.9733 181.7 58.44C181.084 58.8973 180.318 59.126 179.404 59.126C178.676 59.126 178.022 58.9627 177.444 58.636C176.874 58.3093 176.426 57.8473 176.1 57.25C175.773 56.6433 175.61 55.9433 175.61 55.15C175.61 54.3567 175.768 53.6613 176.086 53.064C176.403 52.4667 176.846 52.0093 177.416 51.692C177.994 51.3653 178.657 51.202 179.404 51.202C180.132 51.202 180.776 51.3607 181.336 51.678C181.896 51.9953 182.325 52.434 182.624 52.994C182.932 53.5447 183.086 54.17 183.086 54.87ZM181.77 54.604C181.77 54.1187 181.662 53.7033 181.448 53.358C181.233 53.0033 180.939 52.7373 180.566 52.56C180.202 52.3733 179.796 52.28 179.348 52.28C178.704 52.28 178.153 52.4853 177.696 52.896C177.248 53.3067 176.991 53.876 176.926 54.604H181.77ZM191.767 54.87C191.767 55.1127 191.753 55.3693 191.725 55.64H185.593C185.64 56.396 185.897 56.9887 186.363 57.418C186.839 57.838 187.413 58.048 188.085 58.048C188.636 58.048 189.093 57.922 189.457 57.67C189.831 57.4087 190.092 57.0633 190.241 56.634H191.613C191.408 57.3713 190.997 57.9733 190.381 58.44C189.765 58.8973 189 59.126 188.085 59.126C187.357 59.126 186.704 58.9627 186.125 58.636C185.556 58.3093 185.108 57.8473 184.781 57.25C184.455 56.6433 184.291 55.9433 184.291 55.15C184.291 54.3567 184.45 53.6613 184.767 53.064C185.085 52.4667 185.528 52.0093 186.097 51.692C186.676 51.3653 187.339 51.202 188.085 51.202C188.813 51.202 189.457 51.3607 190.017 51.678C190.577 51.9953 191.007 52.434 191.305 52.994C191.613 53.5447 191.767 54.17 191.767 54.87ZM190.451 54.604C190.451 54.1187 190.344 53.7033 190.129 53.358C189.915 53.0033 189.621 52.7373 189.247 52.56C188.883 52.3733 188.477 52.28 188.029 52.28C187.385 52.28 186.835 52.4853 186.377 52.896C185.929 53.3067 185.673 53.876 185.607 54.604H190.451ZM194.723 52.574C194.947 52.1353 195.264 51.7947 195.675 51.552C196.095 51.3093 196.604 51.188 197.201 51.188V52.504H196.865C195.437 52.504 194.723 53.2787 194.723 54.828V59H193.449V51.328H194.723V52.574ZM205.75 59.126C205.032 59.126 204.378 58.9627 203.79 58.636C203.212 58.3093 202.754 57.8473 202.418 57.25C202.092 56.6433 201.928 55.9433 201.928 55.15C201.928 54.366 202.096 53.6753 202.432 53.078C202.778 52.4713 203.244 52.0093 203.832 51.692C204.42 51.3653 205.078 51.202 205.806 51.202C206.534 51.202 207.192 51.3653 207.78 51.692C208.368 52.0093 208.83 52.4667 209.166 53.064C209.512 53.6613 209.684 54.3567 209.684 55.15C209.684 55.9433 209.507 56.6433 209.152 57.25C208.807 57.8473 208.336 58.3093 207.738 58.636C207.141 58.9627 206.478 59.126 205.75 59.126ZM205.75 58.006C206.208 58.006 206.637 57.8987 207.038 57.684C207.44 57.4693 207.762 57.1473 208.004 56.718C208.256 56.2887 208.382 55.766 208.382 55.15C208.382 54.534 208.261 54.0113 208.018 53.582C207.776 53.1527 207.458 52.8353 207.066 52.63C206.674 52.4153 206.25 52.308 205.792 52.308C205.326 52.308 204.896 52.4153 204.504 52.63C204.122 52.8353 203.814 53.1527 203.58 53.582C203.347 54.0113 203.23 54.534 203.23 55.15C203.23 55.7753 203.342 56.3027 203.566 56.732C203.8 57.1613 204.108 57.4833 204.49 57.698C204.873 57.9033 205.293 58.006 205.75 58.006ZM214.481 52.378H212.871V59H211.597V52.378H210.603V51.328H211.597V50.782C211.597 49.9233 211.817 49.298 212.255 48.906C212.703 48.5047 213.417 48.304 214.397 48.304V49.368C213.837 49.368 213.441 49.48 213.207 49.704C212.983 49.9187 212.871 50.278 212.871 50.782V51.328H214.481V52.378ZM219.089 52.378H217.479V59H216.205V52.378H215.211V51.328H216.205V50.782C216.205 49.9233 216.424 49.298 216.863 48.906C217.311 48.5047 218.025 48.304 219.005 48.304V49.368C218.445 49.368 218.048 49.48 217.815 49.704C217.591 49.9187 217.479 50.278 217.479 50.782V51.328H219.089V52.378ZM14.794 80.126C14.206 80.126 13.6787 80.028 13.212 79.832C12.7453 79.6267 12.3767 79.3467 12.106 78.992C11.8353 78.628 11.686 78.2127 11.658 77.746H12.974C13.0113 78.1287 13.1887 78.4413 13.506 78.684C13.8327 78.9267 14.2573 79.048 14.78 79.048C15.2653 79.048 15.648 78.9407 15.928 78.726C16.208 78.5113 16.348 78.2407 16.348 77.914C16.348 77.578 16.1987 77.3307 15.9 77.172C15.6013 77.004 15.1393 76.8407 14.514 76.682C13.9447 76.5327 13.478 76.3833 13.114 76.234C12.7593 76.0753 12.4513 75.8467 12.19 75.548C11.938 75.24 11.812 74.8387 11.812 74.344C11.812 73.952 11.9287 73.5927 12.162 73.266C12.3953 72.9393 12.7267 72.6827 13.156 72.496C13.5853 72.3 14.0753 72.202 14.626 72.202C15.4753 72.202 16.1613 72.4167 16.684 72.846C17.2067 73.2753 17.4867 73.8633 17.524 74.61H16.25C16.222 74.2087 16.0587 73.8867 15.76 73.644C15.4707 73.4013 15.0787 73.28 14.584 73.28C14.1267 73.28 13.7627 73.378 13.492 73.574C13.2213 73.77 13.086 74.0267 13.086 74.344C13.086 74.596 13.1653 74.806 13.324 74.974C13.492 75.1327 13.6973 75.2633 13.94 75.366C14.192 75.4593 14.5373 75.5667 14.976 75.688C15.5267 75.8373 15.9747 75.9867 16.32 76.136C16.6653 76.276 16.9593 76.4907 17.202 76.78C17.454 77.0693 17.5847 77.4473 17.594 77.914C17.594 78.334 17.4773 78.712 17.244 79.048C17.0107 79.384 16.6793 79.65 16.25 79.846C15.83 80.0327 15.3447 80.126 14.794 80.126ZM18.9165 76.15C18.9165 75.3567 19.0751 74.666 19.3925 74.078C19.7098 73.4807 20.1485 73.0187 20.7085 72.692C21.2778 72.3653 21.9265 72.202 22.6545 72.202C23.5971 72.202 24.3718 72.4307 24.9785 72.888C25.5945 73.3453 26.0005 73.98 26.1965 74.792H24.8245C24.6938 74.3253 24.4371 73.9567 24.0545 73.686C23.6811 73.4153 23.2145 73.28 22.6545 73.28C21.9265 73.28 21.3385 73.532 20.8905 74.036C20.4425 74.5307 20.2185 75.2353 20.2185 76.15C20.2185 77.074 20.4425 77.788 20.8905 78.292C21.3385 78.796 21.9265 79.048 22.6545 79.048C23.2145 79.048 23.6811 78.9173 24.0545 78.656C24.4278 78.3947 24.6845 78.0213 24.8245 77.536H26.1965C25.9911 78.32 25.5805 78.95 24.9645 79.426C24.3485 79.8927 23.5785 80.126 22.6545 80.126C21.9265 80.126 21.2778 79.9627 20.7085 79.636C20.1485 79.3093 19.7098 78.8473 19.3925 78.25C19.0751 77.6527 18.9165 76.9527 18.9165 76.15ZM29.1704 73.574C29.3944 73.1353 29.7117 72.7947 30.1224 72.552C30.5424 72.3093 31.051 72.188 31.6484 72.188V73.504H31.3124C29.8844 73.504 29.1704 74.2787 29.1704 75.828V80H27.8964V72.328H29.1704V73.574ZM33.777 71.082C33.5343 71.082 33.329 70.998 33.161 70.83C32.993 70.662 32.909 70.4567 32.909 70.214C32.909 69.9713 32.993 69.766 33.161 69.598C33.329 69.43 33.5343 69.346 33.777 69.346C34.0103 69.346 34.2063 69.43 34.365 69.598C34.533 69.766 34.617 69.9713 34.617 70.214C34.617 70.4567 34.533 70.662 34.365 70.83C34.2063 70.998 34.0103 71.082 33.777 71.082ZM34.393 72.328V80H33.119V72.328H34.393ZM37.8383 73.742C38.0903 73.3033 38.4637 72.9393 38.9583 72.65C39.4623 72.3513 40.0457 72.202 40.7083 72.202C41.3897 72.202 42.0057 72.3653 42.5563 72.692C43.1163 73.0187 43.555 73.4807 43.8723 74.078C44.1897 74.666 44.3483 75.352 44.3483 76.136C44.3483 76.9107 44.1897 77.6013 43.8723 78.208C43.555 78.8147 43.1163 79.286 42.5563 79.622C42.0057 79.958 41.3897 80.126 40.7083 80.126C40.055 80.126 39.4763 79.9813 38.9723 79.692C38.4777 79.3933 38.0997 79.0247 37.8383 78.586V83.64H36.5643V72.328H37.8383V73.742ZM43.0463 76.136C43.0463 75.5573 42.9297 75.0533 42.6963 74.624C42.463 74.1947 42.1457 73.868 41.7443 73.644C41.3523 73.42 40.9183 73.308 40.4423 73.308C39.9757 73.308 39.5417 73.4247 39.1403 73.658C38.7483 73.882 38.431 74.2133 38.1883 74.652C37.955 75.0813 37.8383 75.5807 37.8383 76.15C37.8383 76.7287 37.955 77.2373 38.1883 77.676C38.431 78.1053 38.7483 78.4367 39.1403 78.67C39.5417 78.894 39.9757 79.006 40.4423 79.006C40.9183 79.006 41.3523 78.894 41.7443 78.67C42.1457 78.4367 42.463 78.1053 42.6963 77.676C42.9297 77.2373 43.0463 76.724 43.0463 76.136ZM47.5793 73.378V77.9C47.5793 78.2733 47.6586 78.5393 47.8173 78.698C47.9759 78.8473 48.2513 78.922 48.6433 78.922H49.5813V80H48.4333C47.7239 80 47.1919 79.8367 46.8373 79.51C46.4826 79.1833 46.3053 78.6467 46.3053 77.9V73.378H45.3113V72.328H46.3053V70.396H47.5793V72.328H49.5813V73.378H47.5793ZM51.5309 80.084C51.2882 80.084 51.0829 80 50.9149 79.832C50.7469 79.664 50.6629 79.4587 50.6629 79.216C50.6629 78.9733 50.7469 78.768 50.9149 78.6C51.0829 78.432 51.2882 78.348 51.5309 78.348C51.7642 78.348 51.9602 78.432 52.1189 78.6C52.2869 78.768 52.3709 78.9733 52.3709 79.216C52.3709 79.4587 52.2869 79.664 52.1189 79.832C51.9602 80 51.7642 80.084 51.5309 80.084ZM65.3148 70.242V80H64.0408V75.576H59.0708V80H57.7968V70.242H59.0708V74.526H64.0408V70.242H65.3148ZM70.8361 80.126C70.1174 80.126 69.4641 79.9627 68.8761 79.636C68.2974 79.3093 67.8401 78.8473 67.5041 78.25C67.1774 77.6433 67.0141 76.9433 67.0141 76.15C67.0141 75.366 67.1821 74.6753 67.5181 74.078C67.8634 73.4713 68.3301 73.0093 68.9181 72.692C69.5061 72.3653 70.1641 72.202 70.8921 72.202C71.6201 72.202 72.2781 72.3653 72.8661 72.692C73.4541 73.0093 73.9161 73.4667 74.2521 74.064C74.5974 74.6613 74.7701 75.3567 74.7701 76.15C74.7701 76.9433 74.5928 77.6433 74.2381 78.25C73.8928 78.8473 73.4214 79.3093 72.8241 79.636C72.2268 79.9627 71.5641 80.126 70.8361 80.126ZM70.8361 79.006C71.2934 79.006 71.7228 78.8987 72.1241 78.684C72.5254 78.4693 72.8474 78.1473 73.0901 77.718C73.3421 77.2887 73.4681 76.766 73.4681 76.15C73.4681 75.534 73.3468 75.0113 73.1041 74.582C72.8614 74.1527 72.5441 73.8353 72.1521 73.63C71.7601 73.4153 71.3354 73.308 70.8781 73.308C70.4114 73.308 69.9821 73.4153 69.5901 73.63C69.2074 73.8353 68.8994 74.1527 68.6661 74.582C68.4328 75.0113 68.3161 75.534 68.3161 76.15C68.3161 76.7753 68.4281 77.3027 68.6521 77.732C68.8854 78.1613 69.1934 78.4833 69.5761 78.698C69.9588 78.9033 70.3788 79.006 70.8361 79.006ZM86.6652 72.328L84.2712 80H82.9552L81.1072 73.91L79.2592 80H77.9432L75.5352 72.328H76.8372L78.6012 78.768L80.5052 72.328H81.8072L83.6692 78.782L85.4052 72.328H86.6652ZM91.186 76.136C91.186 75.352 91.3447 74.666 91.662 74.078C91.9793 73.4807 92.4133 73.0187 92.964 72.692C93.524 72.3653 94.1493 72.202 94.84 72.202C95.4373 72.202 95.9927 72.342 96.506 72.622C97.0193 72.8927 97.4113 73.252 97.682 73.7V69.64H98.97V80H97.682V78.558C97.43 79.0153 97.0567 79.3933 96.562 79.692C96.0673 79.9813 95.4887 80.126 94.826 80.126C94.1447 80.126 93.524 79.958 92.964 79.622C92.4133 79.286 91.9793 78.8147 91.662 78.208C91.3447 77.6013 91.186 76.9107 91.186 76.136ZM97.682 76.15C97.682 75.5713 97.5653 75.0673 97.332 74.638C97.0987 74.2087 96.7813 73.882 96.38 73.658C95.988 73.4247 95.554 73.308 95.078 73.308C94.602 73.308 94.168 73.42 93.776 73.644C93.384 73.868 93.0713 74.1947 92.838 74.624C92.6047 75.0533 92.488 75.5573 92.488 76.136C92.488 76.724 92.6047 77.2373 92.838 77.676C93.0713 78.1053 93.384 78.4367 93.776 78.67C94.168 78.894 94.602 79.006 95.078 79.006C95.554 79.006 95.988 78.894 96.38 78.67C96.7813 78.4367 97.0987 78.1053 97.332 77.676C97.5653 77.2373 97.682 76.7287 97.682 76.15ZM104.469 80.126C103.75 80.126 103.097 79.9627 102.509 79.636C101.93 79.3093 101.473 78.8473 101.137 78.25C100.81 77.6433 100.647 76.9433 100.647 76.15C100.647 75.366 100.815 74.6753 101.151 74.078C101.496 73.4713 101.963 73.0093 102.551 72.692C103.139 72.3653 103.797 72.202 104.525 72.202C105.253 72.202 105.911 72.3653 106.499 72.692C107.087 73.0093 107.549 73.4667 107.885 74.064C108.23 74.6613 108.403 75.3567 108.403 76.15C108.403 76.9433 108.226 77.6433 107.871 78.25C107.526 78.8473 107.054 79.3093 106.457 79.636C105.86 79.9627 105.197 80.126 104.469 80.126ZM104.469 79.006C104.926 79.006 105.356 78.8987 105.757 78.684C106.158 78.4693 106.48 78.1473 106.723 77.718C106.975 77.2887 107.101 76.766 107.101 76.15C107.101 75.534 106.98 75.0113 106.737 74.582C106.494 74.1527 106.177 73.8353 105.785 73.63C105.393 73.4153 104.968 73.308 104.511 73.308C104.044 73.308 103.615 73.4153 103.223 73.63C102.84 73.8353 102.532 74.1527 102.299 74.582C102.066 75.0113 101.949 75.534 101.949 76.15C101.949 76.7753 102.061 77.3027 102.285 77.732C102.518 78.1613 102.826 78.4833 103.209 78.698C103.592 78.9033 104.012 79.006 104.469 79.006ZM120.418 72.328L115.798 83.612H114.482L115.994 79.916L112.9 72.328H114.314L116.722 78.544L119.102 72.328H120.418ZM125.045 80.126C124.326 80.126 123.673 79.9627 123.085 79.636C122.506 79.3093 122.049 78.8473 121.713 78.25C121.386 77.6433 121.223 76.9433 121.223 76.15C121.223 75.366 121.391 74.6753 121.727 74.078C122.072 73.4713 122.539 73.0093 123.127 72.692C123.715 72.3653 124.373 72.202 125.101 72.202C125.829 72.202 126.487 72.3653 127.075 72.692C127.663 73.0093 128.125 73.4667 128.461 74.064C128.806 74.6613 128.979 75.3567 128.979 76.15C128.979 76.9433 128.802 77.6433 128.447 78.25C128.102 78.8473 127.63 79.3093 127.033 79.636C126.436 79.9627 125.773 80.126 125.045 80.126ZM125.045 79.006C125.502 79.006 125.932 78.8987 126.333 78.684C126.734 78.4693 127.056 78.1473 127.299 77.718C127.551 77.2887 127.677 76.766 127.677 76.15C127.677 75.534 127.556 75.0113 127.313 74.582C127.07 74.1527 126.753 73.8353 126.361 73.63C125.969 73.4153 125.544 73.308 125.087 73.308C124.62 73.308 124.191 73.4153 123.799 73.63C123.416 73.8353 123.108 74.1527 122.875 74.582C122.642 75.0113 122.525 75.534 122.525 76.15C122.525 76.7753 122.637 77.3027 122.861 77.732C123.094 78.1613 123.402 78.4833 123.785 78.698C124.168 78.9033 124.588 79.006 125.045 79.006ZM137.458 72.328V80H136.184V78.866C135.942 79.258 135.601 79.566 135.162 79.79C134.733 80.0047 134.257 80.112 133.734 80.112C133.137 80.112 132.6 79.9907 132.124 79.748C131.648 79.496 131.27 79.1227 130.99 78.628C130.72 78.1333 130.584 77.5313 130.584 76.822V72.328H131.844V76.654C131.844 77.41 132.036 77.9933 132.418 78.404C132.801 78.8053 133.324 79.006 133.986 79.006C134.668 79.006 135.204 78.796 135.596 78.376C135.988 77.956 136.184 77.3447 136.184 76.542V72.328H137.458ZM144.616 73.574C144.84 73.1353 145.157 72.7947 145.568 72.552C145.988 72.3093 146.496 72.188 147.094 72.188V73.504H146.758C145.33 73.504 144.616 74.2787 144.616 75.828V80H143.342V72.328H144.616V73.574ZM155.564 75.87C155.564 76.1127 155.55 76.3693 155.522 76.64H149.39C149.437 77.396 149.694 77.9887 150.16 78.418C150.636 78.838 151.21 79.048 151.882 79.048C152.433 79.048 152.89 78.922 153.254 78.67C153.628 78.4087 153.889 78.0633 154.038 77.634H155.41C155.205 78.3713 154.794 78.9733 154.178 79.44C153.562 79.8973 152.797 80.126 151.882 80.126C151.154 80.126 150.501 79.9627 149.922 79.636C149.353 79.3093 148.905 78.8473 148.578 78.25C148.252 77.6433 148.088 76.9433 148.088 76.15C148.088 75.3567 148.247 74.6613 148.564 74.064C148.882 73.4667 149.325 73.0093 149.894 72.692C150.473 72.3653 151.136 72.202 151.882 72.202C152.61 72.202 153.254 72.3607 153.814 72.678C154.374 72.9953 154.804 73.434 155.102 73.994C155.41 74.5447 155.564 75.17 155.564 75.87ZM154.248 75.604C154.248 75.1187 154.141 74.7033 153.926 74.358C153.712 74.0033 153.418 73.7373 153.044 73.56C152.68 73.3733 152.274 73.28 151.826 73.28C151.182 73.28 150.632 73.4853 150.174 73.896C149.726 74.3067 149.47 74.876 149.404 75.604H154.248ZM156.77 76.136C156.77 75.352 156.929 74.666 157.246 74.078C157.563 73.4807 157.997 73.0187 158.548 72.692C159.108 72.3653 159.729 72.202 160.41 72.202C161.082 72.202 161.665 72.3467 162.16 72.636C162.655 72.9253 163.023 73.2893 163.266 73.728V72.328H164.554V80H163.266V78.572C163.014 79.02 162.636 79.3933 162.132 79.692C161.637 79.9813 161.059 80.126 160.396 80.126C159.715 80.126 159.099 79.958 158.548 79.622C157.997 79.286 157.563 78.8147 157.246 78.208C156.929 77.6013 156.77 76.9107 156.77 76.136ZM163.266 76.15C163.266 75.5713 163.149 75.0673 162.916 74.638C162.683 74.2087 162.365 73.882 161.964 73.658C161.572 73.4247 161.138 73.308 160.662 73.308C160.186 73.308 159.752 73.42 159.36 73.644C158.968 73.868 158.655 74.1947 158.422 74.624C158.189 75.0533 158.072 75.5573 158.072 76.136C158.072 76.724 158.189 77.2373 158.422 77.676C158.655 78.1053 158.968 78.4367 159.36 78.67C159.752 78.894 160.186 79.006 160.662 79.006C161.138 79.006 161.572 78.894 161.964 78.67C162.365 78.4367 162.683 78.1053 162.916 77.676C163.149 77.2373 163.266 76.7287 163.266 76.15ZM166.231 76.15C166.231 75.3567 166.39 74.666 166.707 74.078C167.024 73.4807 167.463 73.0187 168.023 72.692C168.592 72.3653 169.241 72.202 169.969 72.202C170.912 72.202 171.686 72.4307 172.293 72.888C172.909 73.3453 173.315 73.98 173.511 74.792H172.139C172.008 74.3253 171.752 73.9567 171.369 73.686C170.996 73.4153 170.529 73.28 169.969 73.28C169.241 73.28 168.653 73.532 168.205 74.036C167.757 74.5307 167.533 75.2353 167.533 76.15C167.533 77.074 167.757 77.788 168.205 78.292C168.653 78.796 169.241 79.048 169.969 79.048C170.529 79.048 170.996 78.9173 171.369 78.656C171.742 78.3947 171.999 78.0213 172.139 77.536H173.511C173.306 78.32 172.895 78.95 172.279 79.426C171.663 79.8927 170.893 80.126 169.969 80.126C169.241 80.126 168.592 79.9627 168.023 79.636C167.463 79.3093 167.024 78.8473 166.707 78.25C166.39 77.6527 166.231 76.9527 166.231 76.15ZM176.765 73.378V77.9C176.765 78.2733 176.844 78.5393 177.003 78.698C177.161 78.8473 177.437 78.922 177.829 78.922H178.767V80H177.619C176.909 80 176.377 79.8367 176.023 79.51C175.668 79.1833 175.491 78.6467 175.491 77.9V73.378H174.497V72.328H175.491V70.396H176.765V72.328H178.767V73.378H176.765ZM182.802 70.116C183.726 70.116 184.473 70.3773 185.042 70.9C185.612 71.4227 185.896 72.1227 185.896 73C185.896 73.98 185.593 74.708 184.986 75.184C184.38 75.6507 183.558 75.884 182.522 75.884L182.48 77.214H181.374L181.318 75.002H181.724C182.648 75.002 183.372 74.862 183.894 74.582C184.417 74.302 184.678 73.7747 184.678 73C184.678 72.44 184.51 71.9967 184.174 71.67C183.838 71.3433 183.386 71.18 182.816 71.18C182.238 71.18 181.78 71.3387 181.444 71.656C181.118 71.964 180.954 72.3887 180.954 72.93H179.75C179.75 72.37 179.876 71.88 180.128 71.46C180.38 71.0307 180.735 70.6993 181.192 70.466C181.659 70.2327 182.196 70.116 182.802 70.116ZM181.92 80.084C181.678 80.084 181.472 80 181.304 79.832C181.136 79.664 181.052 79.4587 181.052 79.216C181.052 78.9733 181.136 78.768 181.304 78.6C181.472 78.432 181.678 78.348 181.92 78.348C182.154 78.348 182.35 78.432 182.508 78.6C182.676 78.768 182.76 78.9733 182.76 79.216C182.76 79.4587 182.676 79.664 182.508 79.832C182.35 80 182.154 80.084 181.92 80.084Z" fill="black"/>
</svg>
