<svg width="357" height="60" viewBox="0 0 357 60" fill="none" xmlns="http://www.w3.org/2000/svg">
<rect width="357" height="60" rx="12" fill="#6442EF"/>
<path d="M142.194 30.416C142.194 29.328 142.444 28.352 142.946 27.488C143.458 26.624 144.146 25.952 145.01 25.472C145.884 24.9813 146.839 24.736 147.874 24.736C149.058 24.736 150.108 25.0293 151.026 25.616C151.954 26.192 152.626 27.0133 153.042 28.08H150.85C150.562 27.4933 150.162 27.056 149.65 26.768C149.138 26.48 148.546 26.336 147.874 26.336C147.138 26.336 146.482 26.5013 145.906 26.832C145.33 27.1627 144.876 27.6373 144.546 28.256C144.226 28.8747 144.066 29.5947 144.066 30.416C144.066 31.2373 144.226 31.9573 144.546 32.576C144.876 33.1947 145.33 33.6747 145.906 34.016C146.482 34.3467 147.138 34.512 147.874 34.512C148.546 34.512 149.138 34.368 149.65 34.08C150.162 33.792 150.562 33.3547 150.85 32.768H153.042C152.626 33.8347 151.954 34.656 151.026 35.232C150.108 35.808 149.058 36.096 147.874 36.096C146.828 36.096 145.874 35.856 145.01 35.376C144.146 34.8853 143.458 34.208 142.946 33.344C142.444 32.48 142.194 31.504 142.194 30.416ZM159.001 36.144C158.169 36.144 157.417 35.9573 156.745 35.584C156.073 35.2 155.545 34.6667 155.161 33.984C154.777 33.2907 154.585 32.4907 154.585 31.584C154.585 30.688 154.782 29.8933 155.177 29.2C155.571 28.5067 156.11 27.9733 156.793 27.6C157.475 27.2267 158.238 27.04 159.081 27.04C159.923 27.04 160.686 27.2267 161.369 27.6C162.051 27.9733 162.59 28.5067 162.985 29.2C163.379 29.8933 163.577 30.688 163.577 31.584C163.577 32.48 163.374 33.2747 162.969 33.968C162.563 34.6613 162.009 35.2 161.305 35.584C160.611 35.9573 159.843 36.144 159.001 36.144ZM159.001 34.56C159.47 34.56 159.907 34.448 160.313 34.224C160.729 34 161.065 33.664 161.321 33.216C161.577 32.768 161.705 32.224 161.705 31.584C161.705 30.944 161.582 30.4053 161.337 29.968C161.091 29.52 160.766 29.184 160.361 28.96C159.955 28.736 159.518 28.624 159.049 28.624C158.579 28.624 158.142 28.736 157.737 28.96C157.342 29.184 157.027 29.52 156.793 29.968C156.558 30.4053 156.441 30.944 156.441 31.584C156.441 32.5333 156.681 33.2693 157.161 33.792C157.651 34.304 158.265 34.56 159.001 34.56ZM169.828 27.04C170.521 27.04 171.14 27.184 171.684 27.472C172.238 27.76 172.67 28.1867 172.98 28.752C173.289 29.3173 173.444 30 173.444 30.8V36H171.636V31.072C171.636 30.2827 171.438 29.68 171.044 29.264C170.649 28.8373 170.11 28.624 169.428 28.624C168.745 28.624 168.201 28.8373 167.796 29.264C167.401 29.68 167.204 30.2827 167.204 31.072V36H165.38V27.184H167.204V28.192C167.502 27.8293 167.881 27.5467 168.34 27.344C168.809 27.1413 169.305 27.04 169.828 27.04ZM177.898 28.672V33.552C177.898 33.8827 177.973 34.1227 178.122 34.272C178.282 34.4107 178.549 34.48 178.922 34.48H180.042V36H178.602C177.781 36 177.152 35.808 176.714 35.424C176.277 35.04 176.058 34.416 176.058 33.552V28.672H175.018V27.184H176.058V24.992H177.898V27.184H180.042V28.672H177.898ZM182.651 26.016C182.321 26.016 182.043 25.904 181.819 25.68C181.595 25.456 181.483 25.1787 181.483 24.848C181.483 24.5173 181.595 24.24 181.819 24.016C182.043 23.792 182.321 23.68 182.651 23.68C182.971 23.68 183.243 23.792 183.467 24.016C183.691 24.24 183.803 24.5173 183.803 24.848C183.803 25.1787 183.691 25.456 183.467 25.68C183.243 25.904 182.971 26.016 182.651 26.016ZM183.547 27.184V36H181.723V27.184H183.547ZM190.39 27.04C191.084 27.04 191.702 27.184 192.246 27.472C192.801 27.76 193.233 28.1867 193.542 28.752C193.852 29.3173 194.006 30 194.006 30.8V36H192.198V31.072C192.198 30.2827 192.001 29.68 191.606 29.264C191.212 28.8373 190.673 28.624 189.99 28.624C189.308 28.624 188.764 28.8373 188.358 29.264C187.964 29.68 187.766 30.2827 187.766 31.072V36H185.942V27.184H187.766V28.192C188.065 27.8293 188.444 27.5467 188.902 27.344C189.372 27.1413 189.868 27.04 190.39 27.04ZM204.317 27.184V36H202.493V34.96C202.205 35.3227 201.826 35.6107 201.357 35.824C200.898 36.0267 200.407 36.128 199.885 36.128C199.191 36.128 198.567 35.984 198.013 35.696C197.469 35.408 197.037 34.9813 196.717 34.416C196.407 33.8507 196.253 33.168 196.253 32.368V27.184H198.061V32.096C198.061 32.8853 198.258 33.4933 198.653 33.92C199.047 34.336 199.586 34.544 200.269 34.544C200.951 34.544 201.49 34.336 201.885 33.92C202.29 33.4933 202.493 32.8853 202.493 32.096V27.184H204.317ZM214.803 31.376C214.803 31.7067 214.782 32.0053 214.739 32.272H208.003C208.057 32.976 208.318 33.5413 208.787 33.968C209.257 34.3947 209.833 34.608 210.515 34.608C211.497 34.608 212.19 34.1973 212.595 33.376H214.563C214.297 34.1867 213.811 34.8533 213.107 35.376C212.414 35.888 211.55 36.144 210.515 36.144C209.673 36.144 208.915 35.9573 208.243 35.584C207.582 35.2 207.059 34.6667 206.675 33.984C206.302 33.2907 206.115 32.4907 206.115 31.584C206.115 30.6773 206.297 29.8827 206.659 29.2C207.033 28.5067 207.55 27.9733 208.211 27.6C208.883 27.2267 209.651 27.04 210.515 27.04C211.347 27.04 212.089 27.2213 212.739 27.584C213.39 27.9467 213.897 28.4587 214.259 29.12C214.622 29.7707 214.803 30.5227 214.803 31.376ZM212.899 30.8C212.889 30.128 212.649 29.5893 212.179 29.184C211.71 28.7787 211.129 28.576 210.435 28.576C209.806 28.576 209.267 28.7787 208.819 29.184C208.371 29.5787 208.105 30.1173 208.019 30.8H212.899Z" fill="white"/>
</svg>
