<svg width="173" height="94" viewBox="0 0 173 94" fill="none" xmlns="http://www.w3.org/2000/svg">
<path d="M42.2794 35.224C40.722 35.224 39.314 34.9573 38.0554 34.424C36.818 33.8907 35.8367 33.1227 35.1114 32.12C34.386 31.1173 34.0127 29.9333 33.9914 28.568H38.7914C38.8554 29.4853 39.1754 30.2107 39.7514 30.744C40.3487 31.2773 41.1594 31.544 42.1834 31.544C43.2287 31.544 44.05 31.2987 44.6474 30.808C45.2447 30.296 45.5434 29.6347 45.5434 28.824C45.5434 28.1627 45.3407 27.6187 44.9354 27.192C44.53 26.7653 44.018 26.4347 43.3994 26.2C42.802 25.944 41.97 25.6667 40.9034 25.368C39.4527 24.9413 38.2687 24.5253 37.3514 24.12C36.4554 23.6933 35.6767 23.064 35.0154 22.232C34.3754 21.3787 34.0554 20.248 34.0554 18.84C34.0554 17.5173 34.386 16.3653 35.0474 15.384C35.7087 14.4027 36.6367 13.656 37.8314 13.144C39.026 12.6107 40.3914 12.344 41.9274 12.344C44.2314 12.344 46.098 12.9093 47.5274 14.04C48.978 15.1493 49.778 16.7067 49.9274 18.712H44.9994C44.9567 17.944 44.626 17.3147 44.0074 16.824C43.41 16.312 42.61 16.056 41.6074 16.056C40.7327 16.056 40.0287 16.28 39.4954 16.728C38.9834 17.176 38.7274 17.8267 38.7274 18.68C38.7274 19.2773 38.9194 19.7787 39.3034 20.184C39.7087 20.568 40.1994 20.888 40.7754 21.144C41.3727 21.3787 42.2047 21.656 43.2714 21.976C44.722 22.4027 45.906 22.8293 46.8234 23.256C47.7407 23.6827 48.53 24.3227 49.1914 25.176C49.8527 26.0293 50.1834 27.1493 50.1834 28.536C50.1834 29.7307 49.874 30.84 49.2554 31.864C48.6367 32.888 47.73 33.7093 46.5354 34.328C45.3407 34.9253 43.922 35.224 42.2794 35.224ZM58.5474 19.832C59.1234 19.0213 59.9127 18.3493 60.9154 17.816C61.9394 17.2613 63.102 16.984 64.4034 16.984C65.918 16.984 67.2834 17.3573 68.4994 18.104C69.7367 18.8507 70.7074 19.9173 71.4114 21.304C72.1367 22.6693 72.4994 24.2587 72.4994 26.072C72.4994 27.8853 72.1367 29.496 71.4114 30.904C70.7074 32.2907 69.7367 33.368 68.4994 34.136C67.2834 34.904 65.918 35.288 64.4034 35.288C63.102 35.288 61.95 35.0213 60.9474 34.488C59.966 33.9547 59.166 33.2827 58.5474 32.472V43.448H54.0674V17.272H58.5474V19.832ZM67.9234 26.072C67.9234 25.0053 67.6994 24.088 67.2514 23.32C66.8247 22.5307 66.2487 21.9333 65.5234 21.528C64.8194 21.1227 64.0514 20.92 63.2194 20.92C62.4087 20.92 61.6407 21.1333 60.9154 21.56C60.2114 21.9653 59.6354 22.5627 59.1874 23.352C58.7607 24.1413 58.5474 25.0693 58.5474 26.136C58.5474 27.2027 58.7607 28.1307 59.1874 28.92C59.6354 29.7093 60.2114 30.3173 60.9154 30.744C61.6407 31.1493 62.4087 31.352 63.2194 31.352C64.0514 31.352 64.8194 31.1387 65.5234 30.712C66.2487 30.2853 66.8247 29.6773 67.2514 28.888C67.6994 28.0987 67.9234 27.16 67.9234 26.072ZM92.2349 25.752C92.2349 26.392 92.1922 26.968 92.1069 27.48H79.1469C79.2535 28.76 79.7015 29.7627 80.4909 30.488C81.2802 31.2133 82.2509 31.576 83.4029 31.576C85.0669 31.576 86.2509 30.8613 86.9549 29.432H91.7869C91.2749 31.1387 90.2935 32.5467 88.8429 33.656C87.3922 34.744 85.6109 35.288 83.4989 35.288C81.7922 35.288 80.2562 34.9147 78.8909 34.168C77.5469 33.4 76.4909 32.3227 75.7229 30.936C74.9762 29.5493 74.6029 27.9493 74.6029 26.136C74.6029 24.3013 74.9762 22.6907 75.7229 21.304C76.4695 19.9173 77.5149 18.8507 78.8589 18.104C80.2029 17.3573 81.7495 16.984 83.4989 16.984C85.1842 16.984 86.6882 17.3467 88.0109 18.072C89.3549 18.7973 90.3895 19.832 91.1149 21.176C91.8615 22.4987 92.2349 24.024 92.2349 25.752ZM87.5949 24.472C87.5735 23.32 87.1575 22.4027 86.3469 21.72C85.5362 21.016 84.5442 20.664 83.3709 20.664C82.2615 20.664 81.3229 21.0053 80.5549 21.688C79.8082 22.3493 79.3495 23.2773 79.1789 24.472H87.5949ZM111.985 25.752C111.985 26.392 111.942 26.968 111.857 27.48H98.8969C99.0035 28.76 99.4515 29.7627 100.241 30.488C101.03 31.2133 102.001 31.576 103.153 31.576C104.817 31.576 106.001 30.8613 106.705 29.432H111.537C111.025 31.1387 110.044 32.5467 108.593 33.656C107.142 34.744 105.361 35.288 103.249 35.288C101.542 35.288 100.006 34.9147 98.6409 34.168C97.2969 33.4 96.2409 32.3227 95.4729 30.936C94.7262 29.5493 94.3529 27.9493 94.3529 26.136C94.3529 24.3013 94.7262 22.6907 95.4729 21.304C96.2195 19.9173 97.2649 18.8507 98.6089 18.104C99.9529 17.3573 101.5 16.984 103.249 16.984C104.934 16.984 106.438 17.3467 107.761 18.072C109.105 18.7973 110.14 19.832 110.865 21.176C111.612 22.4987 111.985 24.024 111.985 25.752ZM107.345 24.472C107.324 23.32 106.908 22.4027 106.097 21.72C105.286 21.016 104.294 20.664 103.121 20.664C102.012 20.664 101.073 21.0053 100.305 21.688C99.5582 22.3493 99.0995 23.2773 98.9289 24.472H107.345ZM125.751 35L119.735 27.448V35H115.255V11.32H119.735V24.792L125.687 17.272H131.511L123.703 26.168L131.575 35H125.751ZM136.214 15.16C135.425 15.16 134.764 14.9147 134.23 14.424C133.718 13.912 133.462 13.2827 133.462 12.536C133.462 11.7893 133.718 11.1707 134.23 10.68C134.764 10.168 135.425 9.912 136.214 9.912C137.004 9.912 137.654 10.168 138.166 10.68C138.7 11.1707 138.966 11.7893 138.966 12.536C138.966 13.2827 138.7 13.912 138.166 14.424C137.654 14.9147 137.004 15.16 136.214 15.16ZM138.422 17.272V35H133.942V17.272H138.422Z" fill="#6442EF"/>
<path d="M16.6923 71.1675C15.9905 71.1675 15.3584 71.0279 14.7961 70.7488C14.2338 70.4696 13.7832 70.0868 13.4442 69.6003C13.1053 69.1138 12.9198 68.5594 12.8879 67.9373H14.3236C14.3794 68.4917 14.6306 68.9503 15.0773 69.3131C15.5279 69.6721 16.0662 69.8515 16.6923 69.8515C17.1948 69.8515 17.6414 69.7339 18.0322 69.4986C18.427 69.2633 18.7361 68.9403 18.9594 68.5295C19.1867 68.1148 19.3004 67.6462 19.3004 67.1238C19.3004 66.5895 19.1827 66.1129 18.9474 65.6942C18.7162 65.2715 18.3971 64.9385 17.9904 64.6952C17.5836 64.452 17.119 64.3284 16.5966 64.3244C16.2218 64.3204 15.8369 64.3782 15.4421 64.4978C15.0474 64.6135 14.7223 64.763 14.4671 64.9465L13.0794 64.779L13.8211 58.7494H20.1857V60.0654H15.0653L14.6346 63.6783H14.7064C14.9576 63.479 15.2727 63.3135 15.6515 63.1819C16.0304 63.0503 16.4251 62.9845 16.8359 62.9845C17.5856 62.9845 18.2536 63.1639 18.8398 63.5228C19.43 63.8777 19.8926 64.3643 20.2275 64.9824C20.5665 65.6005 20.736 66.3063 20.736 67.0999C20.736 67.8815 20.5605 68.5794 20.2096 69.1935C19.8627 69.8037 19.3841 70.2862 18.774 70.6411C18.1638 70.992 17.47 71.1675 16.6923 71.1675ZM27.108 71.1675C26.2068 71.1675 25.4391 70.9222 24.8051 70.4317C24.171 69.9372 23.6865 69.2214 23.3515 68.2843C23.0165 67.3432 22.849 66.2066 22.849 64.8747C22.849 63.5507 23.0165 62.4202 23.3515 61.483C23.6905 60.5419 24.177 59.8241 24.8111 59.3296C25.4491 58.8311 26.2148 58.5819 27.108 58.5819C28.0013 58.5819 28.765 58.8311 29.399 59.3296C30.0371 59.8241 30.5236 60.5419 30.8586 61.483C31.1976 62.4202 31.367 63.5507 31.367 64.8747C31.367 66.2066 31.1996 67.3432 30.8646 68.2843C30.5296 69.2214 30.0451 69.9372 29.411 70.4317C28.7769 70.9222 28.0093 71.1675 27.108 71.1675ZM27.108 69.8515C28.0013 69.8515 28.6952 69.4208 29.1897 68.5594C29.6842 67.6981 29.9314 66.4698 29.9314 64.8747C29.9314 63.8139 29.8178 62.9107 29.5905 62.165C29.3671 61.4192 29.0441 60.851 28.6214 60.4602C28.2027 60.0694 27.6982 59.874 27.108 59.874C26.2227 59.874 25.5309 60.3106 25.0324 61.184C24.5339 62.0533 24.2847 63.2836 24.2847 64.8747C24.2847 65.9355 24.3963 66.8367 24.6196 67.5784C24.843 68.3202 25.164 68.8845 25.5827 69.2713C26.0054 69.6581 26.5139 69.8515 27.108 69.8515ZM34.7168 61.812L36.9181 65.5686L39.1194 61.812H40.7464L37.7795 66.406L40.7464 71H39.1194L36.9181 67.4349L34.7168 71H33.0898L36.0089 66.406L33.0898 61.812H34.7168ZM51.2309 71.1914C50.3695 71.1914 49.6278 70.988 49.0057 70.5813C48.3836 70.1745 47.9051 69.6142 47.5701 68.9004C47.2351 68.1866 47.0676 67.3711 47.0676 66.4539C47.0676 65.5207 47.2391 64.6972 47.582 63.9834C47.929 63.2656 48.4115 62.7053 49.0296 62.3025C49.6517 61.8958 50.3775 61.6924 51.207 61.6924C51.853 61.6924 52.4352 61.812 52.9536 62.0513C53.4721 62.2906 53.8968 62.6256 54.2278 63.0562C54.5588 63.4869 54.7641 63.9894 54.8439 64.5636H53.4322C53.3245 64.1449 53.0852 63.7741 52.7144 63.451C52.3475 63.124 51.853 62.9605 51.2309 62.9605C50.6806 62.9605 50.1981 63.1041 49.7833 63.3912C49.3726 63.6744 49.0516 64.0751 48.8203 64.5936C48.593 65.108 48.4793 65.7121 48.4793 66.406C48.4793 67.1159 48.591 67.734 48.8143 68.2604C49.0416 68.7868 49.3606 69.1955 49.7714 69.4866C50.1861 69.7777 50.6726 69.9233 51.2309 69.9233C51.5978 69.9233 51.9308 69.8595 52.2299 69.7319C52.5289 69.6043 52.7822 69.4208 52.9895 69.1816C53.1969 68.9423 53.3445 68.6552 53.4322 68.3202H54.8439C54.7641 68.8625 54.5667 69.351 54.2517 69.7857C53.9406 70.2164 53.5279 70.5593 53.0135 70.8146C52.503 71.0658 51.9088 71.1914 51.2309 71.1914ZM58.3193 65.4729V71H56.9076V58.7494H58.3193V63.2477H58.4389C58.6542 62.7731 58.9773 62.3963 59.4079 62.1171C59.8426 61.834 60.4209 61.6924 61.1427 61.6924C61.7687 61.6924 62.3171 61.818 62.7876 62.0693C63.2582 62.3165 63.6231 62.6973 63.8823 63.2118C64.1455 63.7222 64.2771 64.3722 64.2771 65.1618V71H62.8654V65.2575C62.8654 64.5278 62.676 63.9635 62.2971 63.5647C61.9223 63.1619 61.4019 62.9605 60.7359 62.9605C60.2733 62.9605 59.8586 63.0582 59.4917 63.2536C59.1288 63.449 58.8417 63.7342 58.6303 64.109C58.423 64.4839 58.3193 64.9385 58.3193 65.4729ZM70.7119 71.1914C69.8266 71.1914 69.063 70.996 68.4209 70.6052C67.7829 70.2104 67.2904 69.6601 66.9434 68.9542C66.6005 68.2444 66.429 67.4189 66.429 66.4778C66.429 65.5367 66.6005 64.7072 66.9434 63.9894C67.2904 63.2676 67.7729 62.7053 68.391 62.3025C69.0131 61.8958 69.7389 61.6924 70.5684 61.6924C71.0469 61.6924 71.5195 61.7722 71.9861 61.9317C72.4526 62.0912 72.8773 62.3504 73.2602 62.7093C73.643 63.0642 73.9481 63.5348 74.1754 64.121C74.4027 64.7072 74.5163 65.429 74.5163 66.2864V66.8846H67.4339V65.6643H73.0807C73.0807 65.1459 72.977 64.6833 72.7697 64.2765C72.5663 63.8698 72.2752 63.5487 71.8963 63.3135C71.5215 63.0782 71.0788 62.9605 70.5684 62.9605C70.0061 62.9605 69.5196 63.1001 69.1088 63.3793C68.7021 63.6544 68.389 64.0133 68.1697 64.456C67.9504 64.8986 67.8407 65.3732 67.8407 65.8796V66.6931C67.8407 67.387 67.9603 67.9752 68.1996 68.4578C68.4429 68.9363 68.7798 69.3012 69.2105 69.5524C69.6412 69.7997 70.1417 69.9233 70.7119 69.9233C71.0828 69.9233 71.4178 69.8714 71.7169 69.7678C72.0199 69.6601 72.2812 69.5006 72.5005 69.2892C72.7198 69.0739 72.8893 68.8067 73.0089 68.4877L74.3728 68.8705C74.2292 69.3331 73.9879 69.7398 73.649 70.0908C73.31 70.4377 72.8913 70.7089 72.3928 70.9043C71.8943 71.0957 71.334 71.1914 70.7119 71.1914ZM79.3675 71.2153C78.7853 71.2153 78.2569 71.1057 77.7824 70.8863C77.3078 70.663 76.931 70.342 76.6518 69.9233C76.3727 69.5006 76.2331 68.9901 76.2331 68.392C76.2331 67.8656 76.3368 67.4389 76.5441 67.1119C76.7515 66.7809 77.0287 66.5217 77.3756 66.3342C77.7225 66.1468 78.1054 66.0072 78.5241 65.9155C78.9468 65.8198 79.3715 65.744 79.7982 65.6882C80.3565 65.6164 80.8091 65.5626 81.1561 65.5267C81.507 65.4868 81.7622 65.421 81.9217 65.3293C82.0852 65.2376 82.167 65.0781 82.167 64.8508V64.8029C82.167 64.2127 82.0055 63.7541 81.6825 63.4271C81.3634 63.1001 80.8789 62.9366 80.2289 62.9366C79.555 62.9366 79.0266 63.0842 78.6437 63.3793C78.2609 63.6744 77.9917 63.9894 77.8362 64.3244L76.4963 63.8458C76.7356 63.2875 77.0546 62.8529 77.4534 62.5418C77.8561 62.2268 78.2948 62.0074 78.7693 61.8838C79.2479 61.7562 79.7185 61.6924 80.181 61.6924C80.4761 61.6924 80.8151 61.7283 81.1979 61.8001C81.5848 61.8679 81.9576 62.0094 82.3165 62.2248C82.6794 62.4401 82.9805 62.7651 83.2198 63.1998C83.459 63.6345 83.5787 64.2167 83.5787 64.9465V71H82.167V69.7558H82.0952C81.9995 69.9552 81.84 70.1685 81.6167 70.3958C81.3933 70.6232 81.0962 70.8166 80.7254 70.9761C80.3545 71.1356 79.9019 71.2153 79.3675 71.2153ZM79.5829 69.9472C80.1412 69.9472 80.6117 69.8375 80.9946 69.6182C81.3814 69.3989 81.6725 69.1158 81.8679 68.7688C82.0673 68.4219 82.167 68.057 82.167 67.6742V66.3821C82.1072 66.4539 81.9756 66.5197 81.7722 66.5795C81.5728 66.6353 81.3415 66.6852 81.0783 66.729C80.8191 66.7689 80.5659 66.8048 80.3186 66.8367C80.0754 66.8646 79.878 66.8885 79.7264 66.9085C79.3595 66.9563 79.0166 67.0341 78.6976 67.1418C78.3825 67.2455 78.1273 67.403 77.9319 67.6143C77.7405 67.8217 77.6448 68.1048 77.6448 68.4637C77.6448 68.9542 77.8262 69.3251 78.1891 69.5763C78.556 69.8236 79.0206 69.9472 79.5829 69.9472ZM86.1553 74.4455V61.812H87.5191V63.2716H87.6866C87.7903 63.1121 87.9339 62.9087 88.1173 62.6615C88.3047 62.4102 88.5719 62.1869 88.9189 61.9915C89.2698 61.7921 89.7444 61.6924 90.3425 61.6924C91.1162 61.6924 91.7981 61.8858 92.3883 62.2726C92.9785 62.6595 93.4391 63.2078 93.7701 63.9176C94.1011 64.6275 94.2665 65.4649 94.2665 66.4299C94.2665 67.403 94.1011 68.2464 93.7701 68.9602C93.4391 69.6701 92.9805 70.2204 92.3943 70.6112C91.8081 70.998 91.1321 71.1914 90.3665 71.1914C89.7763 71.1914 89.3037 71.0937 88.9488 70.8983C88.5939 70.6989 88.3207 70.4736 88.1293 70.2224C87.9379 69.9672 87.7903 69.7558 87.6866 69.5883H87.567V74.4455H86.1553ZM87.5431 66.406C87.5431 67.0999 87.6448 67.712 87.8481 68.2424C88.0515 68.7688 88.3486 69.1816 88.7394 69.4806C89.1302 69.7757 89.6088 69.9233 90.175 69.9233C90.7652 69.9233 91.2577 69.7678 91.6525 69.4567C92.0513 69.1417 92.3504 68.719 92.5498 68.1886C92.7532 67.6542 92.8549 67.06 92.8549 66.406C92.8549 65.76 92.7552 65.1778 92.5558 64.6594C92.3604 64.1369 92.0633 63.7242 91.6645 63.4211C91.2697 63.1141 90.7732 62.9605 90.175 62.9605C89.6008 62.9605 89.1183 63.1061 88.7275 63.3972C88.3366 63.6843 88.0415 64.0871 87.8422 64.6055C87.6428 65.1199 87.5431 65.7201 87.5431 66.406ZM100.272 71.1914C99.3869 71.1914 98.6232 70.996 97.9812 70.6052C97.3432 70.2104 96.8507 69.6601 96.5037 68.9542C96.1608 68.2444 95.9893 67.4189 95.9893 66.4778C95.9893 65.5367 96.1608 64.7072 96.5037 63.9894C96.8507 63.2676 97.3332 62.7053 97.9513 62.3025C98.5734 61.8958 99.2992 61.6924 100.129 61.6924C100.607 61.6924 101.08 61.7722 101.546 61.9317C102.013 62.0912 102.438 62.3504 102.82 62.7093C103.203 63.0642 103.508 63.5348 103.736 64.121C103.963 64.7072 104.077 65.429 104.077 66.2864V66.8846H96.9942V65.6643H102.641C102.641 65.1459 102.537 64.6833 102.33 64.2765C102.127 63.8698 101.835 63.5487 101.457 63.3135C101.082 63.0782 100.639 62.9605 100.129 62.9605C99.5664 62.9605 99.0799 63.1001 98.6691 63.3793C98.2623 63.6544 97.9493 64.0133 97.73 64.456C97.5106 64.8986 97.401 65.3732 97.401 65.8796V66.6931C97.401 67.387 97.5206 67.9752 97.7599 68.4578C98.0031 68.9363 98.3401 69.3012 98.7708 69.5524C99.2015 69.7997 99.702 69.9233 100.272 69.9233C100.643 69.9233 100.978 69.8714 101.277 69.7678C101.58 69.6601 101.841 69.5006 102.061 69.2892C102.28 69.0739 102.45 68.8067 102.569 68.4877L103.933 68.8705C103.789 69.3331 103.548 69.7398 103.209 70.0908C102.87 70.4377 102.452 70.7089 101.953 70.9043C101.455 71.0957 100.894 71.1914 100.272 71.1914ZM106.224 71V61.812H107.588V63.1998H107.684C107.851 62.7452 108.154 62.3763 108.593 62.0932C109.031 61.8101 109.526 61.6685 110.076 61.6685C110.18 61.6685 110.31 61.6705 110.465 61.6745C110.621 61.6785 110.738 61.6844 110.818 61.6924V63.128C110.77 63.1161 110.661 63.0981 110.489 63.0742C110.322 63.0463 110.144 63.0323 109.957 63.0323C109.51 63.0323 109.111 63.126 108.76 63.3135C108.413 63.4969 108.138 63.7521 107.935 64.0791C107.735 64.4021 107.636 64.771 107.636 65.1857V71H106.224ZM121.225 61.812V63.0084H116.463V61.812H121.225ZM117.851 59.6108H119.263V68.368C119.263 68.7668 119.321 69.0659 119.436 69.2653C119.556 69.4607 119.707 69.5923 119.891 69.6601C120.078 69.7239 120.276 69.7558 120.483 69.7558C120.639 69.7558 120.766 69.7478 120.866 69.7319C120.966 69.7119 121.045 69.696 121.105 69.684L121.392 70.9521C121.297 70.988 121.163 71.0239 120.991 71.0598C120.82 71.0997 120.603 71.1196 120.339 71.1196C119.941 71.1196 119.55 71.0339 119.167 70.8624C118.788 70.6909 118.473 70.4297 118.222 70.0788C117.975 69.7279 117.851 69.2852 117.851 68.7509V59.6108ZM124.957 65.4729V71H123.546V58.7494H124.957V63.2477H125.077C125.292 62.7731 125.615 62.3963 126.046 62.1171C126.481 61.834 127.059 61.6924 127.781 61.6924C128.407 61.6924 128.955 61.818 129.426 62.0693C129.896 62.3165 130.261 62.6973 130.52 63.2118C130.784 63.7222 130.915 64.3722 130.915 65.1618V71H129.503V65.2575C129.503 64.5278 129.314 63.9635 128.935 63.5647C128.56 63.1619 128.04 62.9605 127.374 62.9605C126.911 62.9605 126.497 63.0582 126.13 63.2536C125.767 63.449 125.48 63.7342 125.268 64.109C125.061 64.4839 124.957 64.9385 124.957 65.4729ZM136.202 71.2153C135.619 71.2153 135.091 71.1057 134.616 70.8863C134.142 70.663 133.765 70.342 133.486 69.9233C133.207 69.5006 133.067 68.9901 133.067 68.392C133.067 67.8656 133.171 67.4389 133.378 67.1119C133.586 66.7809 133.863 66.5217 134.21 66.3342C134.557 66.1468 134.939 66.0072 135.358 65.9155C135.781 65.8198 136.206 65.744 136.632 65.6882C137.191 65.6164 137.643 65.5626 137.99 65.5267C138.341 65.4868 138.596 65.421 138.756 65.3293C138.919 65.2376 139.001 65.0781 139.001 64.8508V64.8029C139.001 64.2127 138.84 63.7541 138.516 63.4271C138.197 63.1001 137.713 62.9366 137.063 62.9366C136.389 62.9366 135.861 63.0842 135.478 63.3793C135.095 63.6744 134.826 63.9894 134.67 64.3244L133.33 63.8458C133.57 63.2875 133.889 62.8529 134.287 62.5418C134.69 62.2268 135.129 62.0074 135.603 61.8838C136.082 61.7562 136.552 61.6924 137.015 61.6924C137.31 61.6924 137.649 61.7283 138.032 61.8001C138.419 61.8679 138.792 62.0094 139.151 62.2248C139.513 62.4401 139.815 62.7651 140.054 63.1998C140.293 63.6345 140.413 64.2167 140.413 64.9465V71H139.001V69.7558H138.929C138.834 69.9552 138.674 70.1685 138.451 70.3958C138.227 70.6232 137.93 70.8166 137.559 70.9761C137.189 71.1356 136.736 71.2153 136.202 71.2153ZM136.417 69.9472C136.975 69.9472 137.446 69.8375 137.829 69.6182C138.215 69.3989 138.507 69.1158 138.702 68.7688C138.901 68.4219 139.001 68.057 139.001 67.6742V66.3821C138.941 66.4539 138.81 66.5197 138.606 66.5795C138.407 66.6353 138.176 66.6852 137.912 66.729C137.653 66.7689 137.4 66.8048 137.153 66.8367C136.909 66.8646 136.712 66.8885 136.56 66.9085C136.194 66.9563 135.851 67.0341 135.532 67.1418C135.217 67.2455 134.961 67.403 134.766 67.6143C134.575 67.8217 134.479 68.1048 134.479 68.4637C134.479 68.9542 134.66 69.3251 135.023 69.5763C135.39 69.8236 135.855 69.9472 136.417 69.9472ZM144.401 65.4729V71H142.989V61.812H144.353V63.2477H144.473C144.688 62.7811 145.015 62.4062 145.454 62.1231C145.892 61.836 146.459 61.6924 147.153 61.6924C147.775 61.6924 148.319 61.82 148.786 62.0752C149.252 62.3265 149.615 62.7093 149.874 63.2237C150.134 63.7342 150.263 64.3802 150.263 65.1618V71H148.851V65.2575C148.851 64.5357 148.664 63.9734 148.289 63.5707C147.914 63.1639 147.4 62.9605 146.746 62.9605C146.295 62.9605 145.892 63.0582 145.538 63.2536C145.187 63.449 144.909 63.7342 144.706 64.109C144.503 64.4839 144.401 64.9385 144.401 65.4729ZM160.284 71.2153C159.702 71.2153 159.173 71.1057 158.699 70.8863C158.224 70.663 157.847 70.342 157.568 69.9233C157.289 69.5006 157.15 68.9901 157.15 68.392C157.15 67.8656 157.253 67.4389 157.461 67.1119C157.668 66.7809 157.945 66.5217 158.292 66.3342C158.639 66.1468 159.022 66.0072 159.441 65.9155C159.863 65.8198 160.288 65.744 160.715 65.6882C161.273 65.6164 161.726 65.5626 162.073 65.5267C162.423 65.4868 162.679 65.421 162.838 65.3293C163.002 65.2376 163.083 65.0781 163.083 64.8508V64.8029C163.083 64.2127 162.922 63.7541 162.599 63.4271C162.28 63.1001 161.795 62.9366 161.145 62.9366C160.471 62.9366 159.943 63.0842 159.56 63.3793C159.177 63.6744 158.908 63.9894 158.753 64.3244L157.413 63.8458C157.652 63.2875 157.971 62.8529 158.37 62.5418C158.773 62.2268 159.211 62.0074 159.686 61.8838C160.164 61.7562 160.635 61.6924 161.098 61.6924C161.393 61.6924 161.732 61.7283 162.114 61.8001C162.501 61.8679 162.874 62.0094 163.233 62.2248C163.596 62.4401 163.897 62.7651 164.136 63.1998C164.376 63.6345 164.495 64.2167 164.495 64.9465V71H163.083V69.7558H163.012C162.916 69.9552 162.756 70.1685 162.533 70.3958C162.31 70.6232 162.013 70.8166 161.642 70.9761C161.271 71.1356 160.818 71.2153 160.284 71.2153ZM160.499 69.9472C161.058 69.9472 161.528 69.8375 161.911 69.6182C162.298 69.3989 162.589 69.1158 162.784 68.7688C162.984 68.4219 163.083 68.057 163.083 67.6742V66.3821C163.024 66.4539 162.892 66.5197 162.689 66.5795C162.489 66.6353 162.258 66.6852 161.995 66.729C161.736 66.7689 161.482 66.8048 161.235 66.8367C160.992 66.8646 160.794 66.8885 160.643 66.9085C160.276 66.9563 159.933 67.0341 159.614 67.1418C159.299 67.2455 159.044 67.403 158.848 67.6143C158.657 67.8217 158.561 68.1048 158.561 68.4637C158.561 68.9542 158.743 69.3251 159.106 69.5763C159.473 69.8236 159.937 69.9472 160.499 69.9472ZM72.665 81.812V83.0084H67.9035V81.812H72.665ZM69.2913 79.6108H70.703V88.368C70.703 88.7668 70.7608 89.0659 70.8764 89.2653C70.9961 89.4607 71.1476 89.5923 71.3311 89.6601C71.5185 89.7239 71.7159 89.7558 71.9232 89.7558C72.0788 89.7558 72.2064 89.7478 72.3061 89.7319C72.4058 89.7119 72.4855 89.696 72.5453 89.684L72.8325 90.9521C72.7368 90.988 72.6032 91.0239 72.4317 91.0598C72.2602 91.0997 72.0429 91.1196 71.7797 91.1196C71.3809 91.1196 70.9901 91.0339 70.6073 90.8624C70.2284 90.6909 69.9134 90.4297 69.6621 90.0788C69.4149 89.7279 69.2913 89.2852 69.2913 88.7509V79.6108ZM80.5788 87.2435V81.812H81.9905V91H80.5788V89.4447H80.4831C80.2678 89.9113 79.9328 90.3081 79.4782 90.6351C79.0236 90.9581 78.4493 91.1196 77.7554 91.1196C77.1812 91.1196 76.6708 90.994 76.2241 90.7428C75.7775 90.4876 75.4266 90.1047 75.1713 89.5943C74.9161 89.0799 74.7885 88.4318 74.7885 87.6502V81.812H76.2002V87.5545C76.2002 88.2245 76.3876 88.7588 76.7625 89.1576C77.1413 89.5564 77.6238 89.7558 78.2101 89.7558C78.561 89.7558 78.9179 89.6661 79.2808 89.4866C79.6477 89.3072 79.9547 89.032 80.202 88.6611C80.4532 88.2903 80.5788 87.8177 80.5788 87.2435ZM88.5719 81.812V83.0084H83.8105V81.812H88.5719ZM85.1982 79.6108H86.6099V88.368C86.6099 88.7668 86.6677 89.0659 86.7834 89.2653C86.903 89.4607 87.0546 89.5923 87.238 89.6601C87.4254 89.7239 87.6228 89.7558 87.8302 89.7558C87.9857 89.7558 88.1133 89.7478 88.213 89.7319C88.3127 89.7119 88.3925 89.696 88.4523 89.684L88.7394 90.9521C88.6437 90.988 88.5101 91.0239 88.3386 91.0598C88.1672 91.0997 87.9498 91.1196 87.6866 91.1196C87.2878 91.1196 86.897 91.0339 86.5142 90.8624C86.1354 90.6909 85.8203 90.4297 85.5691 90.0788C85.3218 89.7279 85.1982 89.2852 85.1982 88.7509V79.6108ZM94.3294 91.1914C93.4999 91.1914 92.7721 90.994 92.146 90.5992C91.5239 90.2044 91.0374 89.6521 90.6865 88.9423C90.3395 88.2324 90.1661 87.403 90.1661 86.4539C90.1661 85.4968 90.3395 84.6613 90.6865 83.9475C91.0374 83.2337 91.5239 82.6794 92.146 82.2846C92.7721 81.8898 93.4999 81.6924 94.3294 81.6924C95.1588 81.6924 95.8846 81.8898 96.5067 82.2846C97.1328 82.6794 97.6193 83.2337 97.9662 83.9475C98.3172 84.6613 98.4926 85.4968 98.4926 86.4539C98.4926 87.403 98.3172 88.2324 97.9662 88.9423C97.6193 89.6521 97.1328 90.2044 96.5067 90.5992C95.8846 90.994 95.1588 91.1914 94.3294 91.1914ZM94.3294 89.9233C94.9594 89.9233 95.4778 89.7618 95.8846 89.4388C96.2914 89.1158 96.5924 88.691 96.7878 88.1647C96.9832 87.6383 97.081 87.068 97.081 86.4539C97.081 85.8398 96.9832 85.2675 96.7878 84.7371C96.5924 84.2067 96.2914 83.778 95.8846 83.451C95.4778 83.124 94.9594 82.9605 94.3294 82.9605C93.6993 82.9605 93.1809 83.124 92.7741 83.451C92.3673 83.778 92.0663 84.2067 91.8709 84.7371C91.6755 85.2675 91.5777 85.8398 91.5777 86.4539C91.5777 87.068 91.6755 87.6383 91.8709 88.1647C92.0663 88.691 92.3673 89.1158 92.7741 89.4388C93.1809 89.7618 93.6993 89.9233 94.3294 89.9233ZM100.648 91V81.812H102.011V83.1998H102.107C102.275 82.7452 102.578 82.3763 103.016 82.0932C103.455 81.8101 103.949 81.6685 104.5 81.6685C104.603 81.6685 104.733 81.6705 104.889 81.6745C105.044 81.6785 105.162 81.6844 105.242 81.6924V83.128C105.194 83.1161 105.084 83.0981 104.913 83.0742C104.745 83.0463 104.568 83.0323 104.38 83.0323C103.934 83.0323 103.535 83.126 103.184 83.3135C102.837 83.4969 102.562 83.7521 102.358 84.0791C102.159 84.4021 102.059 84.771 102.059 85.1857V91H100.648Z" fill="#161515"/>
</svg>
