<svg width="287" height="95" viewBox="0 0 287 95" fill="none" xmlns="http://www.w3.org/2000/svg">
<path d="M99.2794 35.224C97.722 35.224 96.314 34.9573 95.0554 34.424C93.818 33.8907 92.8367 33.1227 92.1114 32.12C91.386 31.1173 91.0127 29.9333 90.9914 28.568H95.7914C95.8554 29.4853 96.1754 30.2107 96.7514 30.744C97.3487 31.2773 98.1594 31.544 99.1834 31.544C100.229 31.544 101.05 31.2987 101.647 30.808C102.245 30.296 102.543 29.6347 102.543 28.824C102.543 28.1627 102.341 27.6187 101.935 27.192C101.53 26.7653 101.018 26.4347 100.399 26.2C99.802 25.944 98.97 25.6667 97.9034 25.368C96.4527 24.9413 95.2687 24.5253 94.3514 24.12C93.4554 23.6933 92.6767 23.064 92.0154 22.232C91.3754 21.3787 91.0554 20.248 91.0554 18.84C91.0554 17.5173 91.386 16.3653 92.0474 15.384C92.7087 14.4027 93.6367 13.656 94.8314 13.144C96.026 12.6107 97.3914 12.344 98.9274 12.344C101.231 12.344 103.098 12.9093 104.527 14.04C105.978 15.1493 106.778 16.7067 106.927 18.712H101.999C101.957 17.944 101.626 17.3147 101.007 16.824C100.41 16.312 99.61 16.056 98.6074 16.056C97.7327 16.056 97.0287 16.28 96.4954 16.728C95.9834 17.176 95.7274 17.8267 95.7274 18.68C95.7274 19.2773 95.9194 19.7787 96.3034 20.184C96.7087 20.568 97.1994 20.888 97.7754 21.144C98.3727 21.3787 99.2047 21.656 100.271 21.976C101.722 22.4027 102.906 22.8293 103.823 23.256C104.741 23.6827 105.53 24.3227 106.191 25.176C106.853 26.0293 107.183 27.1493 107.183 28.536C107.183 29.7307 106.874 30.84 106.255 31.864C105.637 32.888 104.73 33.7093 103.535 34.328C102.341 34.9253 100.922 35.224 99.2794 35.224ZM115.547 19.832C116.123 19.0213 116.913 18.3493 117.915 17.816C118.939 17.2613 120.102 16.984 121.403 16.984C122.918 16.984 124.283 17.3573 125.499 18.104C126.737 18.8507 127.707 19.9173 128.411 21.304C129.137 22.6693 129.499 24.2587 129.499 26.072C129.499 27.8853 129.137 29.496 128.411 30.904C127.707 32.2907 126.737 33.368 125.499 34.136C124.283 34.904 122.918 35.288 121.403 35.288C120.102 35.288 118.95 35.0213 117.947 34.488C116.966 33.9547 116.166 33.2827 115.547 32.472V43.448H111.067V17.272H115.547V19.832ZM124.923 26.072C124.923 25.0053 124.699 24.088 124.251 23.32C123.825 22.5307 123.249 21.9333 122.523 21.528C121.819 21.1227 121.051 20.92 120.219 20.92C119.409 20.92 118.641 21.1333 117.915 21.56C117.211 21.9653 116.635 22.5627 116.187 23.352C115.761 24.1413 115.547 25.0693 115.547 26.136C115.547 27.2027 115.761 28.1307 116.187 28.92C116.635 29.7093 117.211 30.3173 117.915 30.744C118.641 31.1493 119.409 31.352 120.219 31.352C121.051 31.352 121.819 31.1387 122.523 30.712C123.249 30.2853 123.825 29.6773 124.251 28.888C124.699 28.0987 124.923 27.16 124.923 26.072ZM149.235 25.752C149.235 26.392 149.192 26.968 149.107 27.48H136.147C136.254 28.76 136.702 29.7627 137.491 30.488C138.28 31.2133 139.251 31.576 140.403 31.576C142.067 31.576 143.251 30.8613 143.955 29.432H148.787C148.275 31.1387 147.294 32.5467 145.843 33.656C144.392 34.744 142.611 35.288 140.499 35.288C138.792 35.288 137.256 34.9147 135.891 34.168C134.547 33.4 133.491 32.3227 132.723 30.936C131.976 29.5493 131.603 27.9493 131.603 26.136C131.603 24.3013 131.976 22.6907 132.723 21.304C133.47 19.9173 134.515 18.8507 135.859 18.104C137.203 17.3573 138.75 16.984 140.499 16.984C142.184 16.984 143.688 17.3467 145.011 18.072C146.355 18.7973 147.39 19.832 148.115 21.176C148.862 22.4987 149.235 24.024 149.235 25.752ZM144.595 24.472C144.574 23.32 144.158 22.4027 143.347 21.72C142.536 21.016 141.544 20.664 140.371 20.664C139.262 20.664 138.323 21.0053 137.555 21.688C136.808 22.3493 136.35 23.2773 136.179 24.472H144.595ZM168.985 25.752C168.985 26.392 168.942 26.968 168.857 27.48H155.897C156.004 28.76 156.452 29.7627 157.241 30.488C158.03 31.2133 159.001 31.576 160.153 31.576C161.817 31.576 163.001 30.8613 163.705 29.432H168.537C168.025 31.1387 167.044 32.5467 165.593 33.656C164.142 34.744 162.361 35.288 160.249 35.288C158.542 35.288 157.006 34.9147 155.641 34.168C154.297 33.4 153.241 32.3227 152.473 30.936C151.726 29.5493 151.353 27.9493 151.353 26.136C151.353 24.3013 151.726 22.6907 152.473 21.304C153.22 19.9173 154.265 18.8507 155.609 18.104C156.953 17.3573 158.5 16.984 160.249 16.984C161.934 16.984 163.438 17.3467 164.761 18.072C166.105 18.7973 167.14 19.832 167.865 21.176C168.612 22.4987 168.985 24.024 168.985 25.752ZM164.345 24.472C164.324 23.32 163.908 22.4027 163.097 21.72C162.286 21.016 161.294 20.664 160.121 20.664C159.012 20.664 158.073 21.0053 157.305 21.688C156.558 22.3493 156.1 23.2773 155.929 24.472H164.345ZM182.751 35L176.735 27.448V35H172.255V11.32H176.735V24.792L182.687 17.272H188.511L180.703 26.168L188.575 35H182.751ZM193.214 15.16C192.425 15.16 191.764 14.9147 191.23 14.424C190.718 13.912 190.462 13.2827 190.462 12.536C190.462 11.7893 190.718 11.1707 191.23 10.68C191.764 10.168 192.425 9.912 193.214 9.912C194.004 9.912 194.654 10.168 195.166 10.68C195.7 11.1707 195.966 11.7893 195.966 12.536C195.966 13.2827 195.7 13.912 195.166 14.424C194.654 14.9147 194.004 15.16 193.214 15.16ZM195.422 17.272V35H190.942V17.272H195.422Z" fill="#6442EF"/>
<path d="M19.0192 71V58.7494H20.5027V69.684H26.1973V71H19.0192ZM32.1551 71.1914C31.2698 71.1914 30.5062 70.996 29.8641 70.6052C29.2261 70.2104 28.7336 69.6601 28.3866 68.9542C28.0437 68.2444 27.8722 67.4189 27.8722 66.4778C27.8722 65.5367 28.0437 64.7072 28.3866 63.9894C28.7336 63.2676 29.2161 62.7053 29.8342 62.3025C30.4563 61.8958 31.1821 61.6924 32.0116 61.6924C32.4901 61.6924 32.9627 61.7722 33.4292 61.9317C33.8958 62.0912 34.3205 62.3504 34.7033 62.7093C35.0862 63.0642 35.3912 63.5348 35.6185 64.121C35.8459 64.7072 35.9595 65.429 35.9595 66.2864V66.8846H28.8771V65.6643H34.5239C34.5239 65.1459 34.4202 64.6833 34.2128 64.2765C34.0095 63.8698 33.7183 63.5487 33.3395 63.3135C32.9646 63.0782 32.522 62.9605 32.0116 62.9605C31.4493 62.9605 30.9628 63.1001 30.552 63.3793C30.1453 63.6544 29.8322 64.0133 29.6129 64.456C29.3935 64.8986 29.2839 65.3732 29.2839 65.8796V66.6931C29.2839 67.387 29.4035 67.9752 29.6428 68.4578C29.886 68.9363 30.223 69.3012 30.6537 69.5524C31.0844 69.7997 31.5849 69.9233 32.1551 69.9233C32.526 69.9233 32.861 69.8714 33.1601 69.7678C33.4631 69.6601 33.7243 69.5006 33.9437 69.2892C34.163 69.0739 34.3325 68.8067 34.4521 68.4877L35.8159 68.8705C35.6724 69.3331 35.4311 69.7398 35.0922 70.0908C34.7532 70.4377 34.3345 70.7089 33.836 70.9043C33.3375 71.0957 32.7772 71.1914 32.1551 71.1914ZM40.8107 71.2153C40.2285 71.2153 39.7001 71.1057 39.2255 70.8863C38.751 70.663 38.3741 70.342 38.095 69.9233C37.8158 69.5006 37.6763 68.9901 37.6763 68.392C37.6763 67.8656 37.7799 67.4389 37.9873 67.1119C38.1947 66.7809 38.4718 66.5217 38.8188 66.3342C39.1657 66.1468 39.5486 66.0072 39.9673 65.9155C40.39 65.8198 40.8147 65.744 41.2414 65.6882C41.7997 65.6164 42.2523 65.5626 42.5992 65.5267C42.9502 65.4868 43.2054 65.421 43.3649 65.3293C43.5284 65.2376 43.6102 65.0781 43.6102 64.8508V64.8029C43.6102 64.2127 43.4486 63.7541 43.1256 63.4271C42.8066 63.1001 42.3221 62.9366 41.6721 62.9366C40.9981 62.9366 40.4697 63.0842 40.0869 63.3793C39.7041 63.6744 39.4349 63.9894 39.2794 64.3244L37.9395 63.8458C38.1787 63.2875 38.4978 62.8529 38.8965 62.5418C39.2993 62.2268 39.738 62.0074 40.2125 61.8838C40.6911 61.7562 41.1616 61.6924 41.6242 61.6924C41.9193 61.6924 42.2583 61.7283 42.6411 61.8001C43.0279 61.8679 43.4008 62.0094 43.7597 62.2248C44.1226 62.4401 44.4237 62.7651 44.6629 63.1998C44.9022 63.6345 45.0218 64.2167 45.0218 64.9465V71H43.6102V69.7558H43.5384C43.4427 69.9552 43.2832 70.1685 43.0598 70.3958C42.8365 70.6232 42.5394 70.8166 42.1686 70.9761C41.7977 71.1356 41.3451 71.2153 40.8107 71.2153ZM41.026 69.9472C41.5843 69.9472 42.0549 69.8375 42.4377 69.6182C42.8246 69.3989 43.1157 69.1158 43.3111 68.7688C43.5105 68.4219 43.6102 68.057 43.6102 67.6742V66.3821C43.5503 66.4539 43.4187 66.5197 43.2154 66.5795C43.016 66.6353 42.7847 66.6852 42.5215 66.729C42.2623 66.7689 42.009 66.8048 41.7618 66.8367C41.5185 66.8646 41.3211 66.8885 41.1696 66.9085C40.8027 66.9563 40.4598 67.0341 40.1407 67.1418C39.8257 67.2455 39.5705 67.403 39.3751 67.6143C39.1837 67.8217 39.088 68.1048 39.088 68.4637C39.088 68.9542 39.2694 69.3251 39.6323 69.5763C39.9992 69.8236 40.4638 69.9472 41.026 69.9472ZM47.5985 71V61.812H48.9623V63.1998H49.058C49.2255 62.7452 49.5286 62.3763 49.9672 62.0932C50.4059 61.8101 50.9004 61.6685 51.4507 61.6685C51.5544 61.6685 51.684 61.6705 51.8395 61.6745C51.9951 61.6785 52.1127 61.6844 52.1925 61.6924V63.128C52.1446 63.1161 52.0349 63.0981 51.8635 63.0742C51.696 63.0463 51.5185 63.0323 51.3311 63.0323C50.8844 63.0323 50.4857 63.126 50.1347 63.3135C49.7878 63.4969 49.5126 63.7521 49.3093 64.0791C49.1099 64.4021 49.0102 64.771 49.0102 65.1857V71H47.5985ZM55.2775 65.4729V71H53.8658V61.812H55.2297V63.2477H55.3493C55.5647 62.7811 55.8917 62.4062 56.3303 62.1231C56.769 61.836 57.3353 61.6924 58.0291 61.6924C58.6512 61.6924 59.1956 61.82 59.6622 62.0752C60.1287 62.3265 60.4916 62.7093 60.7508 63.2237C61.01 63.7342 61.1396 64.3802 61.1396 65.1618V71H59.728V65.2575C59.728 64.5357 59.5405 63.9734 59.1657 63.5707C58.7908 63.1639 58.2764 62.9605 57.6224 62.9605C57.1718 62.9605 56.769 63.0582 56.4141 63.2536C56.0631 63.449 55.786 63.7342 55.5826 64.109C55.3792 64.4839 55.2775 64.9385 55.2775 65.4729ZM72.4526 61.812V63.0084H67.6912V61.812H72.4526ZM69.0789 59.6108H70.4906V68.368C70.4906 68.7668 70.5484 69.0659 70.6641 69.2653C70.7837 69.4607 70.9352 69.5923 71.1187 69.6601C71.3061 69.7239 71.5035 69.7558 71.7109 69.7558C71.8664 69.7558 71.994 69.7478 72.0937 69.7319C72.1934 69.7119 72.2732 69.696 72.333 69.684L72.6201 70.9521C72.5244 70.988 72.3908 71.0239 72.2193 71.0598C72.0479 71.0997 71.8305 71.1196 71.5673 71.1196C71.1685 71.1196 70.7777 71.0339 70.3949 70.8624C70.0161 70.6909 69.701 70.4297 69.4498 70.0788C69.2025 69.7279 69.0789 69.2852 69.0789 68.7509V59.6108ZM78.21 71.1914C77.3806 71.1914 76.6528 70.994 76.0267 70.5992C75.4046 70.2044 74.9181 69.6521 74.5672 68.9423C74.2202 68.2324 74.0467 67.403 74.0467 66.4539C74.0467 65.4968 74.2202 64.6613 74.5672 63.9475C74.9181 63.2337 75.4046 62.6794 76.0267 62.2846C76.6528 61.8898 77.3806 61.6924 78.21 61.6924C79.0395 61.6924 79.7653 61.8898 80.3874 62.2846C81.0135 62.6794 81.5 63.2337 81.8469 63.9475C82.1979 64.6613 82.3733 65.4968 82.3733 66.4539C82.3733 67.403 82.1979 68.2324 81.8469 68.9423C81.5 69.6521 81.0135 70.2044 80.3874 70.5992C79.7653 70.994 79.0395 71.1914 78.21 71.1914ZM78.21 69.9233C78.8401 69.9233 79.3585 69.7618 79.7653 69.4388C80.1721 69.1158 80.4731 68.691 80.6685 68.1647C80.8639 67.6383 80.9616 67.068 80.9616 66.4539C80.9616 65.8398 80.8639 65.2675 80.6685 64.7371C80.4731 64.2067 80.1721 63.778 79.7653 63.451C79.3585 63.124 78.8401 62.9605 78.21 62.9605C77.58 62.9605 77.0615 63.124 76.6548 63.451C76.248 63.778 75.9469 64.2067 75.7515 64.7371C75.5561 65.2675 75.4584 65.8398 75.4584 66.4539C75.4584 67.068 75.5561 67.6383 75.7515 68.1647C75.9469 68.691 76.248 69.1158 76.6548 69.4388C77.0615 69.7618 77.58 69.9233 78.21 69.9233ZM89.2658 71V61.812H90.6296V63.2477H90.7493C90.9407 62.7572 91.2497 62.3763 91.6764 62.1052C92.1031 61.83 92.6156 61.6924 93.2137 61.6924C93.8199 61.6924 94.3244 61.83 94.7271 62.1052C95.1339 62.3763 95.4509 62.7572 95.6782 63.2477H95.7739C96.0092 62.7731 96.3621 62.3963 96.8327 62.1171C97.3033 61.834 97.8675 61.6924 98.5255 61.6924C99.347 61.6924 100.019 61.9496 100.541 62.4641C101.064 62.9745 101.325 63.7701 101.325 64.8508V71H99.9133V64.8508C99.9133 64.1728 99.7279 63.6883 99.357 63.3972C98.9861 63.1061 98.5495 62.9605 98.047 62.9605C97.401 62.9605 96.9005 63.1559 96.5456 63.5468C96.1907 63.9336 96.0132 64.4241 96.0132 65.0183V71H94.5776V64.7072C94.5776 64.1848 94.4081 63.7641 94.0691 63.4451C93.7302 63.122 93.2935 62.9605 92.7591 62.9605C92.3923 62.9605 92.0493 63.0582 91.7303 63.2536C91.4152 63.449 91.16 63.7202 90.9646 64.0672C90.7732 64.4101 90.6775 64.8069 90.6775 65.2575V71H89.2658ZM106.61 71.2153C106.028 71.2153 105.499 71.1057 105.025 70.8863C104.55 70.663 104.173 70.342 103.894 69.9233C103.615 69.5006 103.475 68.9901 103.475 68.392C103.475 67.8656 103.579 67.4389 103.786 67.1119C103.994 66.7809 104.271 66.5217 104.618 66.3342C104.965 66.1468 105.348 66.0072 105.766 65.9155C106.189 65.8198 106.614 65.744 107.041 65.6882C107.599 65.6164 108.051 65.5626 108.398 65.5267C108.749 65.4868 109.005 65.421 109.164 65.3293C109.328 65.2376 109.409 65.0781 109.409 64.8508V64.8029C109.409 64.2127 109.248 63.7541 108.925 63.4271C108.606 63.1001 108.121 62.9366 107.471 62.9366C106.797 62.9366 106.269 63.0842 105.886 63.3793C105.503 63.6744 105.234 63.9894 105.079 64.3244L103.739 63.8458C103.978 63.2875 104.297 62.8529 104.696 62.5418C105.098 62.2268 105.537 62.0074 106.012 61.8838C106.49 61.7562 106.961 61.6924 107.423 61.6924C107.718 61.6924 108.057 61.7283 108.44 61.8001C108.827 61.8679 109.2 62.0094 109.559 62.2248C109.922 62.4401 110.223 62.7651 110.462 63.1998C110.701 63.6345 110.821 64.2167 110.821 64.9465V71H109.409V69.7558H109.338C109.242 69.9552 109.082 70.1685 108.859 70.3958C108.636 70.6232 108.339 70.8166 107.968 70.9761C107.597 71.1356 107.144 71.2153 106.61 71.2153ZM106.825 69.9472C107.383 69.9472 107.854 69.8375 108.237 69.6182C108.624 69.3989 108.915 69.1158 109.11 68.7688C109.31 68.4219 109.409 68.057 109.409 67.6742V66.3821C109.349 66.4539 109.218 66.5197 109.015 66.5795C108.815 66.6353 108.584 66.6852 108.321 66.729C108.061 66.7689 107.808 66.8048 107.561 66.8367C107.318 66.8646 107.12 66.8885 106.969 66.9085C106.602 66.9563 106.259 67.0341 105.94 67.1418C105.625 67.2455 105.37 67.403 105.174 67.6143C104.983 67.8217 104.887 68.1048 104.887 68.4637C104.887 68.9542 105.069 69.3251 105.431 69.5763C105.798 69.8236 106.263 69.9472 106.825 69.9472ZM114.809 65.4729V71H113.398V61.812H114.761V63.2477H114.881C115.096 62.7811 115.423 62.4062 115.862 62.1231C116.301 61.836 116.867 61.6924 117.561 61.6924C118.183 61.6924 118.727 61.82 119.194 62.0752C119.661 62.3265 120.023 62.7093 120.283 63.2237C120.542 63.7342 120.671 64.3802 120.671 65.1618V71H119.26V65.2575C119.26 64.5357 119.072 63.9734 118.697 63.5707C118.323 63.1639 117.808 62.9605 117.154 62.9605C116.704 62.9605 116.301 63.0582 115.946 63.2536C115.595 63.449 115.318 63.7342 115.114 64.109C114.911 64.4839 114.809 64.9385 114.809 65.4729ZM125.955 71.2153C125.373 71.2153 124.844 71.1057 124.37 70.8863C123.895 70.663 123.518 70.342 123.239 69.9233C122.96 69.5006 122.82 68.9901 122.82 68.392C122.82 67.8656 122.924 67.4389 123.131 67.1119C123.339 66.7809 123.616 66.5217 123.963 66.3342C124.31 66.1468 124.693 66.0072 125.111 65.9155C125.534 65.8198 125.959 65.744 126.385 65.6882C126.944 65.6164 127.396 65.5626 127.743 65.5267C128.094 65.4868 128.349 65.421 128.509 65.3293C128.673 65.2376 128.754 65.0781 128.754 64.8508V64.8029C128.754 64.2127 128.593 63.7541 128.27 63.4271C127.951 63.1001 127.466 62.9366 126.816 62.9366C126.142 62.9366 125.614 63.0842 125.231 63.3793C124.848 63.6744 124.579 63.9894 124.423 64.3244L123.084 63.8458C123.323 63.2875 123.642 62.8529 124.041 62.5418C124.443 62.2268 124.882 62.0074 125.357 61.8838C125.835 61.7562 126.306 61.6924 126.768 61.6924C127.063 61.6924 127.402 61.7283 127.785 61.8001C128.172 61.8679 128.545 62.0094 128.904 62.2248C129.267 62.4401 129.568 62.7651 129.807 63.1998C130.046 63.6345 130.166 64.2167 130.166 64.9465V71H128.754V69.7558H128.682C128.587 69.9552 128.427 70.1685 128.204 70.3958C127.981 70.6232 127.684 70.8166 127.313 70.9761C126.942 71.1356 126.489 71.2153 125.955 71.2153ZM126.17 69.9472C126.728 69.9472 127.199 69.8375 127.582 69.6182C127.969 69.3989 128.26 69.1158 128.455 68.7688C128.655 68.4219 128.754 68.057 128.754 67.6742V66.3821C128.694 66.4539 128.563 66.5197 128.359 66.5795C128.16 66.6353 127.929 66.6852 127.666 66.729C127.406 66.7689 127.153 66.8048 126.906 66.8367C126.663 66.8646 126.465 66.8885 126.314 66.9085C125.947 66.9563 125.604 67.0341 125.285 67.1418C124.97 67.2455 124.715 67.403 124.519 67.6143C124.328 67.8217 124.232 68.1048 124.232 68.4637C124.232 68.9542 124.414 69.3251 124.776 69.5763C125.143 69.8236 125.608 69.9472 126.17 69.9472ZM136.451 74.6369C135.769 74.6369 135.183 74.5492 134.693 74.3737C134.202 74.2022 133.793 73.9749 133.466 73.6918C133.143 73.4126 132.886 73.1135 132.695 72.7945L133.819 72.0049C133.947 72.1724 134.108 72.3638 134.304 72.5792C134.499 72.7985 134.766 72.9879 135.105 73.1474C135.448 73.3109 135.897 73.3927 136.451 73.3927C137.193 73.3927 137.805 73.2132 138.288 72.8543C138.77 72.4954 139.011 71.9332 139.011 71.1675V69.3012H138.892C138.788 69.4687 138.641 69.676 138.449 69.9233C138.262 70.1665 137.991 70.3839 137.636 70.5753C137.285 70.7627 136.81 70.8564 136.212 70.8564C135.47 70.8564 134.804 70.681 134.214 70.33C133.628 69.9791 133.163 69.4687 132.82 68.7987C132.481 68.1288 132.312 67.3152 132.312 66.3582C132.312 65.417 132.477 64.5975 132.808 63.8997C133.139 63.1978 133.6 62.6555 134.19 62.2726C134.78 61.8858 135.462 61.6924 136.236 61.6924C136.834 61.6924 137.309 61.7921 137.66 61.9915C138.014 62.1869 138.286 62.4102 138.473 62.6615C138.665 62.9087 138.812 63.1121 138.916 63.2716H139.059V61.812H140.423V71.2632C140.423 72.0528 140.244 72.6948 139.885 73.1893C139.53 73.6878 139.051 74.0527 138.449 74.284C137.851 74.5193 137.185 74.6369 136.451 74.6369ZM136.403 69.5883C136.97 69.5883 137.448 69.4587 137.839 69.1995C138.23 68.9403 138.527 68.5674 138.73 68.0809C138.934 67.5944 139.035 67.0122 139.035 66.3342C139.035 65.6723 138.936 65.088 138.736 64.5816C138.537 64.0751 138.242 63.6783 137.851 63.3912C137.46 63.1041 136.978 62.9605 136.403 62.9605C135.805 62.9605 135.307 63.1121 134.908 63.4152C134.513 63.7182 134.216 64.125 134.017 64.6354C133.821 65.1459 133.724 65.7121 133.724 66.3342C133.724 66.9723 133.823 67.5366 134.023 68.0271C134.226 68.5136 134.525 68.8964 134.92 69.1756C135.319 69.4507 135.813 69.5883 136.403 69.5883ZM146.859 71.1914C145.974 71.1914 145.211 70.996 144.568 70.6052C143.93 70.2104 143.438 69.6601 143.091 68.9542C142.748 68.2444 142.577 67.4189 142.577 66.4778C142.577 65.5367 142.748 64.7072 143.091 63.9894C143.438 63.2676 143.92 62.7053 144.539 62.3025C145.161 61.8958 145.886 61.6924 146.716 61.6924C147.194 61.6924 147.667 61.7722 148.134 61.9317C148.6 62.0912 149.025 62.3504 149.408 62.7093C149.791 63.0642 150.096 63.5348 150.323 64.121C150.55 64.7072 150.664 65.429 150.664 66.2864V66.8846H143.581V65.6643H149.228C149.228 65.1459 149.125 64.6833 148.917 64.2765C148.714 63.8698 148.423 63.5487 148.044 63.3135C147.669 63.0782 147.226 62.9605 146.716 62.9605C146.154 62.9605 145.667 63.1001 145.256 63.3793C144.85 63.6544 144.537 64.0133 144.317 64.456C144.098 64.8986 143.988 65.3732 143.988 65.8796V66.6931C143.988 67.387 144.108 67.9752 144.347 68.4578C144.59 68.9363 144.927 69.3012 145.358 69.5524C145.789 69.7997 146.289 69.9233 146.859 69.9233C147.23 69.9233 147.565 69.8714 147.864 69.7678C148.167 69.6601 148.429 69.5006 148.648 69.2892C148.867 69.0739 149.037 68.8067 149.156 68.4877L150.52 68.8705C150.377 69.3331 150.135 69.7398 149.797 70.0908C149.458 70.4377 149.039 70.7089 148.54 70.9043C148.042 71.0957 147.482 71.1914 146.859 71.1914ZM158.458 74.4455C158.219 74.4455 158.005 74.4255 157.818 74.3857C157.631 74.3498 157.501 74.3139 157.429 74.278L157.788 73.0338C158.131 73.1215 158.434 73.1534 158.697 73.1295C158.961 73.1056 159.194 72.9879 159.397 72.7766C159.605 72.5692 159.794 72.2322 159.965 71.7657L160.229 71.0479L156.831 61.812H158.362L160.899 69.1337H160.994L163.531 61.812H165.062L161.162 72.3399C160.986 72.8145 160.769 73.2073 160.51 73.5183C160.251 73.8334 159.95 74.0666 159.607 74.2182C159.268 74.3697 158.885 74.4455 158.458 74.4455ZM170.329 71.1914C169.499 71.1914 168.772 70.994 168.146 70.5992C167.523 70.2044 167.037 69.6521 166.686 68.9423C166.339 68.2324 166.166 67.403 166.166 66.4539C166.166 65.4968 166.339 64.6613 166.686 63.9475C167.037 63.2337 167.523 62.6794 168.146 62.2846C168.772 61.8898 169.499 61.6924 170.329 61.6924C171.158 61.6924 171.884 61.8898 172.506 62.2846C173.132 62.6794 173.619 63.2337 173.966 63.9475C174.317 64.6613 174.492 65.4968 174.492 66.4539C174.492 67.403 174.317 68.2324 173.966 68.9423C173.619 69.6521 173.132 70.2044 172.506 70.5992C171.884 70.994 171.158 71.1914 170.329 71.1914ZM170.329 69.9233C170.959 69.9233 171.477 69.7618 171.884 69.4388C172.291 69.1158 172.592 68.691 172.787 68.1647C172.983 67.6383 173.08 67.068 173.08 66.4539C173.08 65.8398 172.983 65.2675 172.787 64.7371C172.592 64.2067 172.291 63.778 171.884 63.451C171.477 63.124 170.959 62.9605 170.329 62.9605C169.699 62.9605 169.18 63.124 168.774 63.451C168.367 63.778 168.066 64.2067 167.87 64.7371C167.675 65.2675 167.577 65.8398 167.577 66.4539C167.577 67.068 167.675 67.6383 167.87 68.1647C168.066 68.691 168.367 69.1158 168.774 69.4388C169.18 69.7618 169.699 69.9233 170.329 69.9233ZM182.437 67.2435V61.812H183.849V71H182.437V69.4447H182.342C182.126 69.9113 181.791 70.3081 181.337 70.6351C180.882 70.9581 180.308 71.1196 179.614 71.1196C179.04 71.1196 178.529 70.994 178.083 70.7428C177.636 70.4876 177.285 70.1047 177.03 69.5943C176.775 69.0799 176.647 68.4318 176.647 67.6502V61.812H178.059V67.5545C178.059 68.2245 178.246 68.7588 178.621 69.1576C179 69.5564 179.482 69.7558 180.069 69.7558C180.42 69.7558 180.776 69.6661 181.139 69.4866C181.506 69.3072 181.813 69.032 182.061 68.6611C182.312 68.2903 182.437 67.8177 182.437 67.2435ZM186.435 71V61.812H187.799V63.1998H187.894C188.062 62.7452 188.365 62.3763 188.803 62.0932C189.242 61.8101 189.737 61.6685 190.287 61.6685C190.391 61.6685 190.52 61.6705 190.676 61.6745C190.831 61.6785 190.949 61.6844 191.029 61.6924V63.128C190.981 63.1161 190.871 63.0981 190.7 63.0742C190.532 63.0463 190.355 63.0323 190.167 63.0323C189.721 63.0323 189.322 63.126 188.971 63.3135C188.624 63.4969 188.349 63.7521 188.145 64.0791C187.946 64.4021 187.846 64.771 187.846 65.1857V71H186.435ZM201.292 71.1914C200.407 71.1914 199.643 70.996 199.001 70.6052C198.363 70.2104 197.87 69.6601 197.523 68.9542C197.18 68.2444 197.009 67.4189 197.009 66.4778C197.009 65.5367 197.18 64.7072 197.523 63.9894C197.87 63.2676 198.353 62.7053 198.971 62.3025C199.593 61.8958 200.319 61.6924 201.148 61.6924C201.627 61.6924 202.099 61.7722 202.566 61.9317C203.033 62.0912 203.457 62.3504 203.84 62.7093C204.223 63.0642 204.528 63.5348 204.755 64.121C204.983 64.7072 205.096 65.429 205.096 66.2864V66.8846H198.014V65.6643H203.661C203.661 65.1459 203.557 64.6833 203.35 64.2765C203.146 63.8698 202.855 63.5487 202.476 63.3135C202.101 63.0782 201.659 62.9605 201.148 62.9605C200.586 62.9605 200.099 63.1001 199.689 63.3793C199.282 63.6544 198.969 64.0133 198.75 64.456C198.53 64.8986 198.421 65.3732 198.421 65.8796V66.6931C198.421 67.387 198.54 67.9752 198.78 68.4578C199.023 68.9363 199.36 69.3012 199.79 69.5524C200.221 69.7997 200.722 69.9233 201.292 69.9233C201.663 69.9233 201.998 69.8714 202.297 69.7678C202.6 69.6601 202.861 69.5006 203.08 69.2892C203.3 69.0739 203.469 68.8067 203.589 68.4877L204.953 68.8705C204.809 69.3331 204.568 69.7398 204.229 70.0908C203.89 70.4377 203.471 70.7089 202.973 70.9043C202.474 71.0957 201.914 71.1914 201.292 71.1914ZM207.244 71V61.812H208.608V63.2477H208.727C208.919 62.7572 209.228 62.3763 209.654 62.1052C210.081 61.83 210.593 61.6924 211.192 61.6924C211.798 61.6924 212.302 61.83 212.705 62.1052C213.112 62.3763 213.429 62.7572 213.656 63.2477H213.752C213.987 62.7731 214.34 62.3963 214.811 62.1171C215.281 61.834 215.845 61.6924 216.503 61.6924C217.325 61.6924 217.997 61.9496 218.519 62.4641C219.042 62.9745 219.303 63.7701 219.303 64.8508V71H217.891V64.8508C217.891 64.1728 217.706 63.6883 217.335 63.3972C216.964 63.1061 216.527 62.9605 216.025 62.9605C215.379 62.9605 214.878 63.1559 214.523 63.5468C214.169 63.9336 213.991 64.4241 213.991 65.0183V71H212.555V64.7072C212.555 64.1848 212.386 63.7641 212.047 63.4451C211.708 63.122 211.271 62.9605 210.737 62.9605C210.37 62.9605 210.027 63.0582 209.708 63.2536C209.393 63.449 209.138 63.7202 208.943 64.0672C208.751 64.4101 208.655 64.8069 208.655 65.2575V71H207.244ZM225.617 71.1914C224.787 71.1914 224.059 70.994 223.433 70.5992C222.811 70.2044 222.325 69.6521 221.974 68.9423C221.627 68.2324 221.453 67.403 221.453 66.4539C221.453 65.4968 221.627 64.6613 221.974 63.9475C222.325 63.2337 222.811 62.6794 223.433 62.2846C224.059 61.8898 224.787 61.6924 225.617 61.6924C226.446 61.6924 227.172 61.8898 227.794 62.2846C228.42 62.6794 228.907 63.2337 229.253 63.9475C229.604 64.6613 229.78 65.4968 229.78 66.4539C229.78 67.403 229.604 68.2324 229.253 68.9423C228.907 69.6521 228.42 70.2044 227.794 70.5992C227.172 70.994 226.446 71.1914 225.617 71.1914ZM225.617 69.9233C226.247 69.9233 226.765 69.7618 227.172 69.4388C227.579 69.1158 227.88 68.691 228.075 68.1647C228.27 67.6383 228.368 67.068 228.368 66.4539C228.368 65.8398 228.27 65.2675 228.075 64.7371C227.88 64.2067 227.579 63.778 227.172 63.451C226.765 63.124 226.247 62.9605 225.617 62.9605C224.987 62.9605 224.468 63.124 224.061 63.451C223.655 63.778 223.353 64.2067 223.158 64.7371C222.963 65.2675 222.865 65.8398 222.865 66.4539C222.865 67.068 222.963 67.6383 223.158 68.1647C223.353 68.691 223.655 69.1158 224.061 69.4388C224.468 69.7618 224.987 69.9233 225.617 69.9233ZM235.931 61.812V63.0084H231.169V61.812H235.931ZM232.557 59.6108H233.969V68.368C233.969 68.7668 234.026 69.0659 234.142 69.2653C234.262 69.4607 234.413 69.5923 234.597 69.6601C234.784 69.7239 234.982 69.7558 235.189 69.7558C235.344 69.7558 235.472 69.7478 235.572 69.7319C235.671 69.7119 235.751 69.696 235.811 69.684L236.098 70.9521C236.002 70.988 235.869 71.0239 235.697 71.0598C235.526 71.0997 235.309 71.1196 235.045 71.1196C234.647 71.1196 234.256 71.0339 233.873 70.8624C233.494 70.6909 233.179 70.4297 232.928 70.0788C232.681 69.7279 232.557 69.2852 232.557 68.7509V59.6108ZM238.054 71V61.812H239.466V71H238.054ZM238.772 60.2807C238.497 60.2807 238.26 60.187 238.06 59.9996C237.865 59.8121 237.767 59.5868 237.767 59.3236C237.767 59.0604 237.865 58.8351 238.06 58.6477C238.26 58.4603 238.497 58.3666 238.772 58.3666C239.047 58.3666 239.282 58.4603 239.478 58.6477C239.677 58.8351 239.777 59.0604 239.777 59.3236C239.777 59.5868 239.677 59.8121 239.478 59.9996C239.282 60.187 239.047 60.2807 238.772 60.2807ZM245.784 71.1914C244.955 71.1914 244.227 70.994 243.601 70.5992C242.979 70.2044 242.492 69.6521 242.141 68.9423C241.794 68.2324 241.621 67.403 241.621 66.4539C241.621 65.4968 241.794 64.6613 242.141 63.9475C242.492 63.2337 242.979 62.6794 243.601 62.2846C244.227 61.8898 244.955 61.6924 245.784 61.6924C246.613 61.6924 247.339 61.8898 247.961 62.2846C248.587 62.6794 249.074 63.2337 249.421 63.9475C249.772 64.6613 249.947 65.4968 249.947 66.4539C249.947 67.403 249.772 68.2324 249.421 68.9423C249.074 69.6521 248.587 70.2044 247.961 70.5992C247.339 70.994 246.613 71.1914 245.784 71.1914ZM245.784 69.9233C246.414 69.9233 246.933 69.7618 247.339 69.4388C247.746 69.1158 248.047 68.691 248.243 68.1647C248.438 67.6383 248.536 67.068 248.536 66.4539C248.536 65.8398 248.438 65.2675 248.243 64.7371C248.047 64.2067 247.746 63.778 247.339 63.451C246.933 63.124 246.414 62.9605 245.784 62.9605C245.154 62.9605 244.636 63.124 244.229 63.451C243.822 63.778 243.521 64.2067 243.326 64.7371C243.13 65.2675 243.032 65.8398 243.032 66.4539C243.032 67.068 243.13 67.6383 243.326 68.1647C243.521 68.691 243.822 69.1158 244.229 69.4388C244.636 69.7618 245.154 69.9233 245.784 69.9233ZM253.514 65.4729V71H252.102V61.812H253.466V63.2477H253.586C253.801 62.7811 254.128 62.4062 254.567 62.1231C255.005 61.836 255.572 61.6924 256.266 61.6924C256.888 61.6924 257.432 61.82 257.899 62.0752C258.365 62.3265 258.728 62.7093 258.987 63.2237C259.246 63.7342 259.376 64.3802 259.376 65.1618V71H257.964V65.2575C257.964 64.5357 257.777 63.9734 257.402 63.5707C257.027 63.1639 256.513 62.9605 255.859 62.9605C255.408 62.9605 255.005 63.0582 254.65 63.2536C254.3 63.449 254.022 63.7342 253.819 64.109C253.616 64.4839 253.514 64.9385 253.514 65.4729ZM268.464 63.8698L267.196 64.2287C267.116 64.0173 266.998 63.8119 266.843 63.6125C266.691 63.4092 266.484 63.2417 266.221 63.1101C265.957 62.9785 265.62 62.9127 265.21 62.9127C264.647 62.9127 264.179 63.0423 263.804 63.3015C263.433 63.5567 263.248 63.8817 263.248 64.2765C263.248 64.6275 263.375 64.9046 263.631 65.108C263.886 65.3114 264.285 65.4808 264.827 65.6164L266.191 65.9514C267.012 66.1508 267.624 66.4559 268.027 66.8666C268.43 67.2734 268.631 67.7978 268.631 68.4398C268.631 68.9662 268.48 69.4368 268.177 69.8515C267.878 70.2662 267.459 70.5932 266.921 70.8325C266.382 71.0718 265.756 71.1914 265.042 71.1914C264.105 71.1914 263.329 70.988 262.715 70.5813C262.101 70.1745 261.712 69.5803 261.549 68.7987L262.889 68.4637C263.016 68.9582 263.258 69.3291 263.613 69.5763C263.972 69.8236 264.44 69.9472 265.018 69.9472C265.676 69.9472 266.199 69.8076 266.586 69.5285C266.976 69.2454 267.172 68.9064 267.172 68.5116C267.172 68.1926 267.06 67.9254 266.837 67.71C266.613 67.4907 266.27 67.3272 265.808 67.2195L264.277 66.8606C263.435 66.6612 262.817 66.3522 262.422 65.9335C262.031 65.5108 261.836 64.9824 261.836 64.3483C261.836 63.8299 261.982 63.3713 262.273 62.9725C262.568 62.5737 262.969 62.2607 263.475 62.0334C263.985 61.8061 264.564 61.6924 265.21 61.6924C266.119 61.6924 266.833 61.8918 267.351 62.2906C267.874 62.6894 268.244 63.2158 268.464 63.8698ZM81.3534 91V81.812H82.7651V91H81.3534ZM82.0713 80.2807C81.7961 80.2807 81.5588 80.187 81.3594 79.9996C81.164 79.8121 81.0663 79.5868 81.0663 79.3236C81.0663 79.0604 81.164 78.8351 81.3594 78.6477C81.5588 78.4603 81.7961 78.3666 82.0713 78.3666C82.3464 78.3666 82.5817 78.4603 82.7771 78.6477C82.9765 78.8351 83.0762 79.0604 83.0762 79.3236C83.0762 79.5868 82.9765 79.8121 82.7771 79.9996C82.5817 80.187 82.3464 80.2807 82.0713 80.2807ZM86.7624 85.4729V91H85.3507V81.812H86.7146V83.2477H86.8342C87.0496 82.7811 87.3766 82.4062 87.8152 82.1231C88.2539 81.836 88.8202 81.6924 89.514 81.6924C90.1361 81.6924 90.6805 81.82 91.147 82.0752C91.6136 82.3265 91.9765 82.7093 92.2357 83.2237C92.4949 83.7342 92.6245 84.3802 92.6245 85.1618V91H91.2128V85.2575C91.2128 84.5357 91.0254 83.9734 90.6506 83.5707C90.2757 83.1639 89.7613 82.9605 89.1073 82.9605C88.6567 82.9605 88.2539 83.0582 87.899 83.2536C87.548 83.449 87.2709 83.7342 87.0675 84.109C86.8641 84.4839 86.7624 84.9385 86.7624 85.4729ZM103.746 91.1675C103.044 91.1675 102.412 91.0279 101.85 90.7488C101.288 90.4696 100.837 90.0868 100.498 89.6003C100.159 89.1138 99.9736 88.5594 99.9417 87.9373H101.377C101.433 88.4917 101.684 88.9503 102.131 89.3131C102.582 89.6721 103.12 89.8515 103.746 89.8515C104.249 89.8515 104.695 89.7339 105.086 89.4986C105.481 89.2633 105.79 88.9403 106.013 88.5295C106.24 88.1148 106.354 87.6462 106.354 87.1238C106.354 86.5895 106.236 86.1129 106.001 85.6942C105.77 85.2715 105.451 84.9385 105.044 84.6952C104.637 84.452 104.173 84.3284 103.65 84.3244C103.276 84.3204 102.891 84.3782 102.496 84.4978C102.101 84.6135 101.776 84.763 101.521 84.9465L100.133 84.779L100.875 78.7494H107.239V80.0654H102.119L101.688 83.6783H101.76C102.011 83.479 102.326 83.3135 102.705 83.1819C103.084 83.0503 103.479 82.9845 103.89 82.9845C104.639 82.9845 105.307 83.1639 105.894 83.5228C106.484 83.8777 106.946 84.3643 107.281 84.9824C107.62 85.6005 107.79 86.3063 107.79 87.0999C107.79 87.8815 107.614 88.5794 107.263 89.1935C106.916 89.8037 106.438 90.2862 105.828 90.6411C105.218 90.992 104.524 91.1675 103.746 91.1675ZM114.927 91V81.812H116.291V83.2477H116.411C116.602 82.7572 116.911 82.3763 117.338 82.1052C117.765 81.83 118.277 81.6924 118.875 81.6924C119.482 81.6924 119.986 81.83 120.389 82.1052C120.796 82.3763 121.113 82.7572 121.34 83.2477H121.436C121.671 82.7731 122.024 82.3963 122.494 82.1171C122.965 81.834 123.529 81.6924 124.187 81.6924C125.009 81.6924 125.681 81.9496 126.203 82.4641C126.725 82.9745 126.987 83.7701 126.987 84.8508V91H125.575V84.8508C125.575 84.1728 125.39 83.6883 125.019 83.3972C124.648 83.1061 124.211 82.9605 123.709 82.9605C123.063 82.9605 122.562 83.1559 122.207 83.5468C121.852 83.9336 121.675 84.4241 121.675 85.0183V91H120.239V84.7072C120.239 84.1848 120.07 83.7641 119.731 83.4451C119.392 83.122 118.955 82.9605 118.421 82.9605C118.054 82.9605 117.711 83.0582 117.392 83.2536C117.077 83.449 116.822 83.7202 116.626 84.0672C116.435 84.4101 116.339 84.8069 116.339 85.2575V91H114.927ZM129.568 91V81.812H130.979V91H129.568ZM130.286 80.2807C130.01 80.2807 129.773 80.187 129.574 79.9996C129.378 79.8121 129.281 79.5868 129.281 79.3236C129.281 79.0604 129.378 78.8351 129.574 78.6477C129.773 78.4603 130.01 78.3666 130.286 78.3666C130.561 78.3666 130.796 78.4603 130.991 78.6477C131.191 78.8351 131.291 79.0604 131.291 79.3236C131.291 79.5868 131.191 79.8121 130.991 79.9996C130.796 80.187 130.561 80.2807 130.286 80.2807ZM134.977 85.4729V91H133.565V81.812H134.929V83.2477H135.049C135.264 82.7811 135.591 82.4062 136.03 82.1231C136.468 81.836 137.034 81.6924 137.728 81.6924C138.35 81.6924 138.895 81.82 139.361 82.0752C139.828 82.3265 140.191 82.7093 140.45 83.2237C140.709 83.7342 140.839 84.3802 140.839 85.1618V91H139.427V85.2575C139.427 84.5357 139.24 83.9734 138.865 83.5707C138.49 83.1639 137.976 82.9605 137.322 82.9605C136.871 82.9605 136.468 83.0582 136.113 83.2536C135.762 83.449 135.485 83.7342 135.282 84.109C135.078 84.4839 134.977 84.9385 134.977 85.4729ZM148.156 94.4455V81.812H149.52V83.2716H149.687C149.791 83.1121 149.935 82.9087 150.118 82.6615C150.305 82.4102 150.573 82.1869 150.92 81.9915C151.271 81.7921 151.745 81.6924 152.343 81.6924C153.117 81.6924 153.799 81.8858 154.389 82.2726C154.979 82.6595 155.44 83.2078 155.771 83.9176C156.102 84.6275 156.267 85.4649 156.267 86.4299C156.267 87.403 156.102 88.2464 155.771 88.9602C155.44 89.6701 154.981 90.2204 154.395 90.6112C153.809 90.998 153.133 91.1914 152.367 91.1914C151.777 91.1914 151.304 91.0937 150.95 90.8983C150.595 90.6989 150.321 90.4736 150.13 90.2224C149.939 89.9672 149.791 89.7558 149.687 89.5883H149.568V94.4455H148.156ZM149.544 86.406C149.544 87.0999 149.645 87.712 149.849 88.2424C150.052 88.7688 150.349 89.1816 150.74 89.4806C151.131 89.7757 151.609 89.9233 152.176 89.9233C152.766 89.9233 153.258 89.7678 153.653 89.4567C154.052 89.1417 154.351 88.719 154.551 88.1886C154.754 87.6542 154.856 87.06 154.856 86.406C154.856 85.76 154.756 85.1778 154.557 84.6594C154.361 84.1369 154.064 83.7242 153.665 83.4211C153.27 83.1141 152.774 82.9605 152.176 82.9605C151.602 82.9605 151.119 83.1061 150.728 83.3972C150.337 83.6843 150.042 84.0871 149.843 84.6055C149.643 85.1199 149.544 85.7201 149.544 86.406ZM162.273 91.1914C161.388 91.1914 160.624 90.996 159.982 90.6052C159.344 90.2104 158.851 89.6601 158.504 88.9542C158.161 88.2444 157.99 87.4189 157.99 86.4778C157.99 85.5367 158.161 84.7072 158.504 83.9894C158.851 83.2676 159.334 82.7053 159.952 82.3025C160.574 81.8958 161.3 81.6924 162.129 81.6924C162.608 81.6924 163.08 81.7722 163.547 81.9317C164.014 82.0912 164.438 82.3504 164.821 82.7093C165.204 83.0642 165.509 83.5348 165.736 84.121C165.964 84.7072 166.077 85.429 166.077 86.2864V86.8846H158.995V85.6643H164.642C164.642 85.1459 164.538 84.6833 164.331 84.2765C164.127 83.8698 163.836 83.5487 163.457 83.3135C163.082 83.0782 162.64 82.9605 162.129 82.9605C161.567 82.9605 161.081 83.1001 160.67 83.3793C160.263 83.6544 159.95 84.0133 159.731 84.456C159.511 84.8986 159.402 85.3732 159.402 85.8796V86.6931C159.402 87.387 159.521 87.9752 159.761 88.4578C160.004 88.9363 160.341 89.3012 160.772 89.5524C161.202 89.7997 161.703 89.9233 162.273 89.9233C162.644 89.9233 162.979 89.8714 163.278 89.7678C163.581 89.6601 163.842 89.5006 164.061 89.2892C164.281 89.0739 164.45 88.8067 164.57 88.4877L165.934 88.8705C165.79 89.3331 165.549 89.7398 165.21 90.0908C164.871 90.4377 164.452 90.7089 163.954 90.9043C163.455 91.0957 162.895 91.1914 162.273 91.1914ZM168.225 91V81.812H169.589V83.1998H169.684C169.852 82.7452 170.155 82.3763 170.594 82.0932C171.032 81.8101 171.527 81.6685 172.077 81.6685C172.181 81.6685 172.31 81.6705 172.466 81.6745C172.621 81.6785 172.739 81.6844 172.819 81.6924V83.128C172.771 83.1161 172.661 83.0981 172.49 83.0742C172.322 83.0463 172.145 83.0323 171.957 83.0323C171.511 83.0323 171.112 83.126 170.761 83.3135C170.414 83.4969 170.139 83.7521 169.936 84.0791C169.736 84.4021 169.636 84.771 169.636 85.1857V91H168.225ZM182.699 91.1914C181.933 91.1914 181.257 90.998 180.671 90.6112C180.085 90.2204 179.626 89.6701 179.295 88.9602C178.964 88.2464 178.799 87.403 178.799 86.4299C178.799 85.4649 178.964 84.6275 179.295 83.9176C179.626 83.2078 180.087 82.6595 180.677 82.2726C181.267 81.8858 181.949 81.6924 182.723 81.6924C183.321 81.6924 183.794 81.7921 184.141 81.9915C184.492 82.1869 184.759 82.4102 184.942 82.6615C185.13 82.9087 185.275 83.1121 185.379 83.2716H185.499V78.7494H186.91V91H185.546V89.5883H185.379C185.275 89.7558 185.128 89.9672 184.936 90.2224C184.745 90.4736 184.472 90.6989 184.117 90.8983C183.762 91.0937 183.289 91.1914 182.699 91.1914ZM182.891 89.9233C183.457 89.9233 183.935 89.7757 184.326 89.4806C184.717 89.1816 185.014 88.7688 185.217 88.2424C185.421 87.712 185.522 87.0999 185.522 86.406C185.522 85.7201 185.423 85.1199 185.223 84.6055C185.024 84.0871 184.729 83.6843 184.338 83.3972C183.947 83.1061 183.465 82.9605 182.891 82.9605C182.292 82.9605 181.794 83.1141 181.395 83.4211C181 83.7242 180.703 84.1369 180.504 84.6594C180.308 85.1778 180.211 85.76 180.211 86.406C180.211 87.06 180.31 87.6542 180.51 88.1886C180.713 88.719 181.012 89.1417 181.407 89.4567C181.806 89.7678 182.3 89.9233 182.891 89.9233ZM192.395 91.2153C191.813 91.2153 191.285 91.1057 190.81 90.8863C190.336 90.663 189.959 90.342 189.68 89.9233C189.401 89.5006 189.261 88.9901 189.261 88.392C189.261 87.8656 189.365 87.4389 189.572 87.1119C189.779 86.7809 190.057 86.5217 190.404 86.3342C190.751 86.1468 191.133 86.0072 191.552 85.9155C191.975 85.8198 192.399 85.744 192.826 85.6882C193.384 85.6164 193.837 85.5626 194.184 85.5267C194.535 85.4868 194.79 85.421 194.95 85.3293C195.113 85.2376 195.195 85.0781 195.195 84.8508V84.8029C195.195 84.2127 195.033 83.7541 194.71 83.4271C194.391 83.1001 193.907 82.9366 193.257 82.9366C192.583 82.9366 192.055 83.0842 191.672 83.3793C191.289 83.6744 191.02 83.9894 190.864 84.3244L189.524 83.8458C189.764 83.2875 190.083 82.8529 190.481 82.5418C190.884 82.2268 191.323 82.0074 191.797 81.8838C192.276 81.7562 192.746 81.6924 193.209 81.6924C193.504 81.6924 193.843 81.7283 194.226 81.8001C194.613 81.8679 194.986 82.0094 195.344 82.2248C195.707 82.4401 196.008 82.7651 196.248 83.1998C196.487 83.6345 196.607 84.2167 196.607 84.9465V91H195.195V89.7558H195.123C195.027 89.9552 194.868 90.1685 194.645 90.3958C194.421 90.6232 194.124 90.8166 193.753 90.9761C193.382 91.1356 192.93 91.2153 192.395 91.2153ZM192.611 89.9472C193.169 89.9472 193.64 89.8375 194.023 89.6182C194.409 89.3989 194.7 89.1158 194.896 88.7688C195.095 88.4219 195.195 88.057 195.195 87.6742V86.3821C195.135 86.4539 195.004 86.5197 194.8 86.5795C194.601 86.6353 194.369 86.6852 194.106 86.729C193.847 86.7689 193.594 86.8048 193.347 86.8367C193.103 86.8646 192.906 86.8885 192.754 86.9085C192.388 86.9563 192.045 87.0341 191.726 87.1418C191.41 87.2455 191.155 87.403 190.96 87.6143C190.768 87.8217 190.673 88.1048 190.673 88.4637C190.673 88.9542 190.854 89.3251 191.217 89.5763C191.584 89.8236 192.049 89.9472 192.611 89.9472ZM199.764 94.4455C199.524 94.4455 199.311 94.4255 199.123 94.3857C198.936 94.3498 198.806 94.3139 198.735 94.278L199.094 93.0338C199.437 93.1215 199.74 93.1534 200.003 93.1295C200.266 93.1056 200.499 92.9879 200.703 92.7766C200.91 92.5692 201.099 92.2322 201.271 91.7657L201.534 91.0479L198.136 81.812H199.668L202.204 89.1337H202.3L204.836 81.812H206.367L202.467 92.3399C202.292 92.8145 202.074 93.2073 201.815 93.5183C201.556 93.8334 201.255 94.0666 200.912 94.2182C200.573 94.3697 200.19 94.4455 199.764 94.4455Z" fill="#161515"/>
</svg>
