<svg width="232" height="110" viewBox="0 0 232 110" fill="none" xmlns="http://www.w3.org/2000/svg">
<path d="M0.5 0.5H220C226.351 0.5 231.5 5.64873 231.5 12V98C231.5 104.351 226.351 109.5 220 109.5H12C5.64873 109.5 0.5 104.351 0.5 98V0.5Z" stroke="#939393"/>
<path d="M19.116 18.242C20.18 18.242 21.0993 18.4427 21.874 18.844C22.658 19.236 23.2553 19.8007 23.666 20.538C24.086 21.2753 24.296 22.1433 24.296 23.142C24.296 24.1407 24.086 25.0087 23.666 25.746C23.2553 26.474 22.658 27.034 21.874 27.426C21.0993 27.8087 20.18 28 19.116 28H16.078V18.242H19.116ZM19.116 26.95C20.376 26.95 21.3373 26.6187 22 25.956C22.6627 25.284 22.994 24.346 22.994 23.142C22.994 21.9287 22.658 20.9813 21.986 20.3C21.3233 19.6187 20.3667 19.278 19.116 19.278H17.352V26.95H19.116ZM32.7804 20.328V28H31.5064V26.866C31.2638 27.258 30.9231 27.566 30.4844 27.79C30.0551 28.0047 29.5791 28.112 29.0564 28.112C28.4591 28.112 27.9224 27.9907 27.4464 27.748C26.9704 27.496 26.5924 27.1227 26.3124 26.628C26.0418 26.1333 25.9064 25.5313 25.9064 24.822V20.328H27.1664V24.654C27.1664 25.41 27.3578 25.9933 27.7404 26.404C28.1231 26.8053 28.6458 27.006 29.3084 27.006C29.9898 27.006 30.5264 26.796 30.9184 26.376C31.3104 25.956 31.5064 25.3447 31.5064 24.542V20.328H32.7804ZM36.2055 21.574C36.4295 21.1353 36.7468 20.7947 37.1575 20.552C37.5775 20.3093 38.0862 20.188 38.6835 20.188V21.504H38.3475C36.9195 21.504 36.2055 22.2787 36.2055 23.828V28H34.9315V20.328H36.2055V21.574ZM40.8122 19.082C40.5695 19.082 40.3642 18.998 40.1962 18.83C40.0282 18.662 39.9442 18.4567 39.9442 18.214C39.9442 17.9713 40.0282 17.766 40.1962 17.598C40.3642 17.43 40.5695 17.346 40.8122 17.346C41.0455 17.346 41.2415 17.43 41.4002 17.598C41.5682 17.766 41.6522 17.9713 41.6522 18.214C41.6522 18.4567 41.5682 18.662 41.4002 18.83C41.2415 18.998 41.0455 19.082 40.8122 19.082ZM41.4282 20.328V28H40.1542V20.328H41.4282ZM47.3375 20.188C48.2708 20.188 49.0268 20.4727 49.6055 21.042C50.1842 21.602 50.4735 22.414 50.4735 23.478V28H49.2135V23.66C49.2135 22.8947 49.0222 22.3113 48.6395 21.91C48.2568 21.4993 47.7342 21.294 47.0715 21.294C46.3995 21.294 45.8628 21.504 45.4615 21.924C45.0695 22.344 44.8735 22.9553 44.8735 23.758V28H43.5995V20.328H44.8735V21.42C45.1255 21.028 45.4662 20.7247 45.8955 20.51C46.3342 20.2953 46.8148 20.188 47.3375 20.188ZM55.7186 20.202C56.3812 20.202 56.9599 20.3467 57.4546 20.636C57.9586 20.9253 58.3319 21.2893 58.5746 21.728V20.328H59.8626V28.168C59.8626 28.868 59.7132 29.4887 59.4146 30.03C59.1159 30.5807 58.6866 31.01 58.1266 31.318C57.5759 31.626 56.9319 31.78 56.1946 31.78C55.1866 31.78 54.3466 31.542 53.6746 31.066C53.0026 30.59 52.6059 29.9413 52.4846 29.12H53.7446C53.8846 29.5867 54.1739 29.96 54.6126 30.24C55.0512 30.5293 55.5786 30.674 56.1946 30.674C56.8946 30.674 57.4639 30.4547 57.9026 30.016C58.3506 29.5773 58.5746 28.9613 58.5746 28.168V26.558C58.3226 27.006 57.9492 27.3793 57.4546 27.678C56.9599 27.9767 56.3812 28.126 55.7186 28.126C55.0372 28.126 54.4166 27.958 53.8566 27.622C53.3059 27.286 52.8719 26.8147 52.5546 26.208C52.2372 25.6013 52.0786 24.9107 52.0786 24.136C52.0786 23.352 52.2372 22.666 52.5546 22.078C52.8719 21.4807 53.3059 21.0187 53.8566 20.692C54.4166 20.3653 55.0372 20.202 55.7186 20.202ZM58.5746 24.15C58.5746 23.5713 58.4579 23.0673 58.2246 22.638C57.9912 22.2087 57.6739 21.882 57.2726 21.658C56.8806 21.4247 56.4466 21.308 55.9706 21.308C55.4946 21.308 55.0606 21.42 54.6686 21.644C54.2766 21.868 53.9639 22.1947 53.7306 22.624C53.4972 23.0533 53.3806 23.5573 53.3806 24.136C53.3806 24.724 53.4972 25.2373 53.7306 25.676C53.9639 26.1053 54.2766 26.4367 54.6686 26.67C55.0606 26.894 55.4946 27.006 55.9706 27.006C56.4466 27.006 56.8806 26.894 57.2726 26.67C57.6739 26.4367 57.9912 26.1053 58.2246 25.676C58.4579 25.2373 58.5746 24.7287 58.5746 24.15ZM65.2719 24.136C65.2719 23.352 65.4306 22.666 65.7479 22.078C66.0653 21.4807 66.4993 21.0187 67.0499 20.692C67.6099 20.3653 68.2306 20.202 68.9119 20.202C69.5839 20.202 70.1673 20.3467 70.6619 20.636C71.1566 20.9253 71.5253 21.2893 71.7679 21.728V20.328H73.0559V28H71.7679V26.572C71.5159 27.02 71.1379 27.3933 70.6339 27.692C70.1393 27.9813 69.5606 28.126 68.8979 28.126C68.2166 28.126 67.6006 27.958 67.0499 27.622C66.4993 27.286 66.0653 26.8147 65.7479 26.208C65.4306 25.6013 65.2719 24.9107 65.2719 24.136ZM71.7679 24.15C71.7679 23.5713 71.6513 23.0673 71.4179 22.638C71.1846 22.2087 70.8673 21.882 70.4659 21.658C70.0739 21.4247 69.6399 21.308 69.1639 21.308C68.6879 21.308 68.2539 21.42 67.8619 21.644C67.4699 21.868 67.1573 22.1947 66.9239 22.624C66.6906 23.0533 66.5739 23.5573 66.5739 24.136C66.5739 24.724 66.6906 25.2373 66.9239 25.676C67.1573 26.1053 67.4699 26.4367 67.8619 26.67C68.2539 26.894 68.6879 27.006 69.1639 27.006C69.6399 27.006 70.0739 26.894 70.4659 26.67C70.8673 26.4367 71.1846 26.1053 71.4179 25.676C71.6513 25.2373 71.7679 24.7287 71.7679 24.15ZM78.4653 24.15C78.4653 23.3567 78.6239 22.666 78.9413 22.078C79.2586 21.4807 79.6973 21.0187 80.2573 20.692C80.8266 20.3653 81.4753 20.202 82.2033 20.202C83.1459 20.202 83.9206 20.4307 84.5273 20.888C85.1433 21.3453 85.5493 21.98 85.7453 22.792H84.3733C84.2426 22.3253 83.9859 21.9567 83.6033 21.686C83.2299 21.4153 82.7633 21.28 82.2033 21.28C81.4753 21.28 80.8873 21.532 80.4393 22.036C79.9913 22.5307 79.7673 23.2353 79.7673 24.15C79.7673 25.074 79.9913 25.788 80.4393 26.292C80.8873 26.796 81.4753 27.048 82.2033 27.048C82.7633 27.048 83.2299 26.9173 83.6033 26.656C83.9766 26.3947 84.2333 26.0213 84.3733 25.536H85.7453C85.5399 26.32 85.1293 26.95 84.5133 27.426C83.8973 27.8927 83.1273 28.126 82.2033 28.126C81.4753 28.126 80.8266 27.9627 80.2573 27.636C79.6973 27.3093 79.2586 26.8473 78.9413 26.25C78.6239 25.6527 78.4653 24.9527 78.4653 24.15ZM90.7912 28.126C90.0725 28.126 89.4192 27.9627 88.8312 27.636C88.2525 27.3093 87.7952 26.8473 87.4592 26.25C87.1325 25.6433 86.9692 24.9433 86.9692 24.15C86.9692 23.366 87.1372 22.6753 87.4732 22.078C87.8185 21.4713 88.2852 21.0093 88.8732 20.692C89.4612 20.3653 90.1192 20.202 90.8472 20.202C91.5752 20.202 92.2332 20.3653 92.8212 20.692C93.4092 21.0093 93.8712 21.4667 94.2072 22.064C94.5525 22.6613 94.7252 23.3567 94.7252 24.15C94.7252 24.9433 94.5479 25.6433 94.1932 26.25C93.8479 26.8473 93.3765 27.3093 92.7792 27.636C92.1819 27.9627 91.5192 28.126 90.7912 28.126ZM90.7912 27.006C91.2485 27.006 91.6779 26.8987 92.0792 26.684C92.4805 26.4693 92.8025 26.1473 93.0452 25.718C93.2972 25.2887 93.4232 24.766 93.4232 24.15C93.4232 23.534 93.3019 23.0113 93.0592 22.582C92.8165 22.1527 92.4992 21.8353 92.1072 21.63C91.7152 21.4153 91.2905 21.308 90.8332 21.308C90.3665 21.308 89.9372 21.4153 89.5452 21.63C89.1625 21.8353 88.8545 22.1527 88.6212 22.582C88.3879 23.0113 88.2712 23.534 88.2712 24.15C88.2712 24.7753 88.3832 25.3027 88.6072 25.732C88.8405 26.1613 89.1485 26.4833 89.5312 26.698C89.9139 26.9033 90.3339 27.006 90.7912 27.006ZM100.138 20.188C101.072 20.188 101.828 20.4727 102.406 21.042C102.985 21.602 103.274 22.414 103.274 23.478V28H102.014V23.66C102.014 22.8947 101.823 22.3113 101.44 21.91C101.058 21.4993 100.535 21.294 99.8723 21.294C99.2003 21.294 98.6636 21.504 98.2623 21.924C97.8703 22.344 97.6743 22.9553 97.6743 23.758V28H96.4003V20.328H97.6743V21.42C97.9263 21.028 98.2669 20.7247 98.6963 20.51C99.1349 20.2953 99.6156 20.188 100.138 20.188ZM108.211 26.824L110.591 20.328H111.949L108.939 28H107.455L104.445 20.328H105.817L108.211 26.824ZM120.203 23.87C120.203 24.1127 120.189 24.3693 120.161 24.64H114.029C114.076 25.396 114.332 25.9887 114.799 26.418C115.275 26.838 115.849 27.048 116.521 27.048C117.072 27.048 117.529 26.922 117.893 26.67C118.266 26.4087 118.528 26.0633 118.677 25.634H120.049C119.844 26.3713 119.433 26.9733 118.817 27.44C118.201 27.8973 117.436 28.126 116.521 28.126C115.793 28.126 115.14 27.9627 114.561 27.636C113.992 27.3093 113.544 26.8473 113.217 26.25C112.89 25.6433 112.727 24.9433 112.727 24.15C112.727 23.3567 112.886 22.6613 113.203 22.064C113.52 21.4667 113.964 21.0093 114.533 20.692C115.112 20.3653 115.774 20.202 116.521 20.202C117.249 20.202 117.893 20.3607 118.453 20.678C119.013 20.9953 119.442 21.434 119.741 21.994C120.049 22.5447 120.203 23.17 120.203 23.87ZM118.887 23.604C118.887 23.1187 118.78 22.7033 118.565 22.358C118.35 22.0033 118.056 21.7373 117.683 21.56C117.319 21.3733 116.913 21.28 116.465 21.28C115.821 21.28 115.27 21.4853 114.813 21.896C114.365 22.3067 114.108 22.876 114.043 23.604H118.887ZM123.159 21.574C123.383 21.1353 123.7 20.7947 124.111 20.552C124.531 20.3093 125.039 20.188 125.637 20.188V21.504H125.301C123.873 21.504 123.159 22.2787 123.159 23.828V28H121.885V20.328H123.159V21.574ZM129.823 28.126C129.235 28.126 128.708 28.028 128.241 27.832C127.775 27.6267 127.406 27.3467 127.135 26.992C126.865 26.628 126.715 26.2127 126.687 25.746H128.003C128.041 26.1287 128.218 26.4413 128.535 26.684C128.862 26.9267 129.287 27.048 129.809 27.048C130.295 27.048 130.677 26.9407 130.957 26.726C131.237 26.5113 131.377 26.2407 131.377 25.914C131.377 25.578 131.228 25.3307 130.929 25.172C130.631 25.004 130.169 24.8407 129.543 24.682C128.974 24.5327 128.507 24.3833 128.143 24.234C127.789 24.0753 127.481 23.8467 127.219 23.548C126.967 23.24 126.841 22.8387 126.841 22.344C126.841 21.952 126.958 21.5927 127.191 21.266C127.425 20.9393 127.756 20.6827 128.185 20.496C128.615 20.3 129.105 20.202 129.655 20.202C130.505 20.202 131.191 20.4167 131.713 20.846C132.236 21.2753 132.516 21.8633 132.553 22.61H131.279C131.251 22.2087 131.088 21.8867 130.789 21.644C130.5 21.4013 130.108 21.28 129.613 21.28C129.156 21.28 128.792 21.378 128.521 21.574C128.251 21.77 128.115 22.0267 128.115 22.344C128.115 22.596 128.195 22.806 128.353 22.974C128.521 23.1327 128.727 23.2633 128.969 23.366C129.221 23.4593 129.567 23.5667 130.005 23.688C130.556 23.8373 131.004 23.9867 131.349 24.136C131.695 24.276 131.989 24.4907 132.231 24.78C132.483 25.0693 132.614 25.4473 132.623 25.914C132.623 26.334 132.507 26.712 132.273 27.048C132.04 27.384 131.709 27.65 131.279 27.846C130.859 28.0327 130.374 28.126 129.823 28.126ZM133.946 24.136C133.946 23.352 134.104 22.666 134.422 22.078C134.739 21.4807 135.173 21.0187 135.724 20.692C136.284 20.3653 136.904 20.202 137.586 20.202C138.258 20.202 138.841 20.3467 139.336 20.636C139.83 20.9253 140.199 21.2893 140.442 21.728V20.328H141.73V28H140.442V26.572C140.19 27.02 139.812 27.3933 139.308 27.692C138.813 27.9813 138.234 28.126 137.572 28.126C136.89 28.126 136.274 27.958 135.724 27.622C135.173 27.286 134.739 26.8147 134.422 26.208C134.104 25.6013 133.946 24.9107 133.946 24.136ZM140.442 24.15C140.442 23.5713 140.325 23.0673 140.092 22.638C139.858 22.2087 139.541 21.882 139.14 21.658C138.748 21.4247 138.314 21.308 137.838 21.308C137.362 21.308 136.928 21.42 136.536 21.644C136.144 21.868 135.831 22.1947 135.598 22.624C135.364 23.0533 135.248 23.5573 135.248 24.136C135.248 24.724 135.364 25.2373 135.598 25.676C135.831 26.1053 136.144 26.4367 136.536 26.67C136.928 26.894 137.362 27.006 137.838 27.006C138.314 27.006 138.748 26.894 139.14 26.67C139.541 26.4367 139.858 26.1053 140.092 25.676C140.325 25.2373 140.442 24.7287 140.442 24.15ZM145.437 21.378V25.9C145.437 26.2733 145.516 26.5393 145.675 26.698C145.833 26.8473 146.109 26.922 146.501 26.922H147.439V28H146.291C145.581 28 145.049 27.8367 144.695 27.51C144.34 27.1833 144.163 26.6467 144.163 25.9V21.378H143.169V20.328H144.163V18.396H145.437V20.328H147.439V21.378H145.437ZM149.64 19.082C149.398 19.082 149.192 18.998 149.024 18.83C148.856 18.662 148.772 18.4567 148.772 18.214C148.772 17.9713 148.856 17.766 149.024 17.598C149.192 17.43 149.398 17.346 149.64 17.346C149.874 17.346 150.07 17.43 150.228 17.598C150.396 17.766 150.48 17.9713 150.48 18.214C150.48 18.4567 150.396 18.662 150.228 18.83C150.07 18.998 149.874 19.082 149.64 19.082ZM150.256 20.328V28H148.982V20.328H150.256ZM155.774 28.126C155.055 28.126 154.402 27.9627 153.814 27.636C153.235 27.3093 152.778 26.8473 152.442 26.25C152.115 25.6433 151.952 24.9433 151.952 24.15C151.952 23.366 152.12 22.6753 152.456 22.078C152.801 21.4713 153.268 21.0093 153.856 20.692C154.444 20.3653 155.102 20.202 155.83 20.202C156.558 20.202 157.216 20.3653 157.804 20.692C158.392 21.0093 158.854 21.4667 159.19 22.064C159.535 22.6613 159.708 23.3567 159.708 24.15C159.708 24.9433 159.53 25.6433 159.176 26.25C158.83 26.8473 158.359 27.3093 157.762 27.636C157.164 27.9627 156.502 28.126 155.774 28.126ZM155.774 27.006C156.231 27.006 156.66 26.8987 157.062 26.684C157.463 26.4693 157.785 26.1473 158.028 25.718C158.28 25.2887 158.406 24.766 158.406 24.15C158.406 23.534 158.284 23.0113 158.042 22.582C157.799 22.1527 157.482 21.8353 157.09 21.63C156.698 21.4153 156.273 21.308 155.816 21.308C155.349 21.308 154.92 21.4153 154.528 21.63C154.145 21.8353 153.837 22.1527 153.604 22.582C153.37 23.0113 153.254 23.534 153.254 24.15C153.254 24.7753 153.366 25.3027 153.59 25.732C153.823 26.1613 154.131 26.4833 154.514 26.698C154.896 26.9033 155.316 27.006 155.774 27.006ZM165.121 20.188C166.054 20.188 166.81 20.4727 167.389 21.042C167.967 21.602 168.257 22.414 168.257 23.478V28H166.997V23.66C166.997 22.8947 166.805 22.3113 166.423 21.91C166.04 21.4993 165.517 21.294 164.855 21.294C164.183 21.294 163.646 21.504 163.245 21.924C162.853 22.344 162.657 22.9553 162.657 23.758V28H161.383V20.328H162.657V21.42C162.909 21.028 163.249 20.7247 163.679 20.51C164.117 20.2953 164.598 20.188 165.121 20.188ZM171.654 26.236L170.086 30.002H169.232L170.254 26.236H171.654ZM183.454 20.328L178.834 31.612H177.518L179.03 27.916L175.936 20.328H177.35L179.758 26.544L182.138 20.328H183.454ZM188.08 28.126C187.362 28.126 186.708 27.9627 186.12 27.636C185.542 27.3093 185.084 26.8473 184.748 26.25C184.422 25.6433 184.258 24.9433 184.258 24.15C184.258 23.366 184.426 22.6753 184.762 22.078C185.108 21.4713 185.574 21.0093 186.162 20.692C186.75 20.3653 187.408 20.202 188.136 20.202C188.864 20.202 189.522 20.3653 190.11 20.692C190.698 21.0093 191.16 21.4667 191.496 22.064C191.842 22.6613 192.014 23.3567 192.014 24.15C192.014 24.9433 191.837 25.6433 191.482 26.25C191.137 26.8473 190.666 27.3093 190.068 27.636C189.471 27.9627 188.808 28.126 188.08 28.126ZM188.08 27.006C188.538 27.006 188.967 26.8987 189.368 26.684C189.77 26.4693 190.092 26.1473 190.334 25.718C190.586 25.2887 190.712 24.766 190.712 24.15C190.712 23.534 190.591 23.0113 190.348 22.582C190.106 22.1527 189.788 21.8353 189.396 21.63C189.004 21.4153 188.58 21.308 188.122 21.308C187.656 21.308 187.226 21.4153 186.834 21.63C186.452 21.8353 186.144 22.1527 185.91 22.582C185.677 23.0113 185.56 23.534 185.56 24.15C185.56 24.7753 185.672 25.3027 185.896 25.732C186.13 26.1613 186.438 26.4833 186.82 26.698C187.203 26.9033 187.623 27.006 188.08 27.006ZM200.493 20.328V28H199.219V26.866C198.977 27.258 198.636 27.566 198.197 27.79C197.768 28.0047 197.292 28.112 196.769 28.112C196.172 28.112 195.635 27.9907 195.159 27.748C194.683 27.496 194.305 27.1227 194.025 26.628C193.755 26.1333 193.619 25.5313 193.619 24.822V20.328H194.879V24.654C194.879 25.41 195.071 25.9933 195.453 26.404C195.836 26.8053 196.359 27.006 197.021 27.006C197.703 27.006 198.239 26.796 198.631 26.376C199.023 25.956 199.219 25.3447 199.219 24.542V20.328H200.493ZM26.298 41.328L23.904 49H22.588L20.74 42.91L18.892 49H17.576L15.168 41.328H16.47L18.234 47.768L20.138 41.328H21.44L23.302 47.782L25.038 41.328H26.298ZM27.0864 45.136C27.0864 44.352 27.245 43.666 27.5624 43.078C27.8797 42.4807 28.3137 42.0187 28.8644 41.692C29.4244 41.3653 30.045 41.202 30.7264 41.202C31.3984 41.202 31.9817 41.3467 32.4764 41.636C32.971 41.9253 33.3397 42.2893 33.5824 42.728V41.328H34.8704V49H33.5824V47.572C33.3304 48.02 32.9524 48.3933 32.4484 48.692C31.9537 48.9813 31.375 49.126 30.7124 49.126C30.031 49.126 29.415 48.958 28.8644 48.622C28.3137 48.286 27.8797 47.8147 27.5624 47.208C27.245 46.6013 27.0864 45.9107 27.0864 45.136ZM33.5824 45.15C33.5824 44.5713 33.4657 44.0673 33.2324 43.638C32.999 43.2087 32.6817 42.882 32.2804 42.658C31.8884 42.4247 31.4544 42.308 30.9784 42.308C30.5024 42.308 30.0684 42.42 29.6764 42.644C29.2844 42.868 28.9717 43.1947 28.7384 43.624C28.505 44.0533 28.3884 44.5573 28.3884 45.136C28.3884 45.724 28.505 46.2373 28.7384 46.676C28.9717 47.1053 29.2844 47.4367 29.6764 47.67C30.0684 47.894 30.5024 48.006 30.9784 48.006C31.4544 48.006 31.8884 47.894 32.2804 47.67C32.6817 47.4367 32.999 47.1053 33.2324 46.676C33.4657 46.2373 33.5824 45.7287 33.5824 45.15ZM40.7613 41.188C41.6946 41.188 42.4506 41.4727 43.0293 42.042C43.608 42.602 43.8973 43.414 43.8973 44.478V49H42.6373V44.66C42.6373 43.8947 42.446 43.3113 42.0633 42.91C41.6806 42.4993 41.158 42.294 40.4953 42.294C39.8233 42.294 39.2866 42.504 38.8853 42.924C38.4933 43.344 38.2973 43.9553 38.2973 44.758V49H37.0233V41.328H38.2973V42.42C38.5493 42.028 38.89 41.7247 39.3193 41.51C39.758 41.2953 40.2386 41.188 40.7613 41.188ZM47.5324 42.378V46.9C47.5324 47.2733 47.6117 47.5393 47.7704 47.698C47.9291 47.8473 48.2044 47.922 48.5964 47.922H49.5344V49H48.3864C47.6771 49 47.1451 48.8367 46.7904 48.51C46.4357 48.1833 46.2584 47.6467 46.2584 46.9V42.378H45.2644V41.328H46.2584V39.396H47.5324V41.328H49.5344V42.378H47.5324ZM56.3644 42.378V46.9C56.3644 47.2733 56.4438 47.5393 56.6024 47.698C56.7611 47.8473 57.0364 47.922 57.4284 47.922H58.3664V49H57.2184C56.5091 49 55.9771 48.8367 55.6224 48.51C55.2678 48.1833 55.0904 47.6467 55.0904 46.9V42.378H54.0964V41.328H55.0904V39.396H56.3644V41.328H58.3664V42.378H56.3644ZM63.256 49.126C62.5374 49.126 61.884 48.9627 61.296 48.636C60.7174 48.3093 60.26 47.8473 59.924 47.25C59.5974 46.6433 59.434 45.9433 59.434 45.15C59.434 44.366 59.602 43.6753 59.938 43.078C60.2834 42.4713 60.75 42.0093 61.338 41.692C61.926 41.3653 62.584 41.202 63.312 41.202C64.04 41.202 64.698 41.3653 65.286 41.692C65.874 42.0093 66.336 42.4667 66.672 43.064C67.0174 43.6613 67.19 44.3567 67.19 45.15C67.19 45.9433 67.0127 46.6433 66.658 47.25C66.3127 47.8473 65.8414 48.3093 65.244 48.636C64.6467 48.9627 63.984 49.126 63.256 49.126ZM63.256 48.006C63.7134 48.006 64.1427 47.8987 64.544 47.684C64.9454 47.4693 65.2674 47.1473 65.51 46.718C65.762 46.2887 65.888 45.766 65.888 45.15C65.888 44.534 65.7667 44.0113 65.524 43.582C65.2814 43.1527 64.964 42.8353 64.572 42.63C64.18 42.4153 63.7554 42.308 63.298 42.308C62.8314 42.308 62.402 42.4153 62.01 42.63C61.6274 42.8353 61.3194 43.1527 61.086 43.582C60.8527 44.0113 60.736 44.534 60.736 45.15C60.736 45.7753 60.848 46.3027 61.072 46.732C61.3054 47.1613 61.6134 47.4833 61.996 47.698C62.3787 47.9033 62.7987 48.006 63.256 48.006ZM75.3135 49.126C74.7255 49.126 74.1982 49.028 73.7315 48.832C73.2649 48.6267 72.8962 48.3467 72.6255 47.992C72.3549 47.628 72.2055 47.2127 72.1775 46.746H73.4935C73.5309 47.1287 73.7082 47.4413 74.0255 47.684C74.3522 47.9267 74.7769 48.048 75.2995 48.048C75.7849 48.048 76.1675 47.9407 76.4475 47.726C76.7275 47.5113 76.8675 47.2407 76.8675 46.914C76.8675 46.578 76.7182 46.3307 76.4195 46.172C76.1209 46.004 75.6589 45.8407 75.0335 45.682C74.4642 45.5327 73.9975 45.3833 73.6335 45.234C73.2789 45.0753 72.9709 44.8467 72.7095 44.548C72.4575 44.24 72.3315 43.8387 72.3315 43.344C72.3315 42.952 72.4482 42.5927 72.6815 42.266C72.9149 41.9393 73.2462 41.6827 73.6755 41.496C74.1049 41.3 74.5949 41.202 75.1455 41.202C75.9949 41.202 76.6809 41.4167 77.2035 41.846C77.7262 42.2753 78.0062 42.8633 78.0435 43.61H76.7695C76.7415 43.2087 76.5782 42.8867 76.2795 42.644C75.9902 42.4013 75.5982 42.28 75.1035 42.28C74.6462 42.28 74.2822 42.378 74.0115 42.574C73.7409 42.77 73.6055 43.0267 73.6055 43.344C73.6055 43.596 73.6849 43.806 73.8435 43.974C74.0115 44.1327 74.2169 44.2633 74.4595 44.366C74.7115 44.4593 75.0569 44.5667 75.4955 44.688C76.0462 44.8373 76.4942 44.9867 76.8395 45.136C77.1849 45.276 77.4789 45.4907 77.7215 45.78C77.9735 46.0693 78.1042 46.4473 78.1135 46.914C78.1135 47.334 77.9969 47.712 77.7635 48.048C77.5302 48.384 77.1989 48.65 76.7695 48.846C76.3495 49.0327 75.8642 49.126 75.3135 49.126ZM83.72 41.188C84.2987 41.188 84.8213 41.314 85.288 41.566C85.7547 41.8087 86.1187 42.1773 86.38 42.672C86.6507 43.1667 86.786 43.7687 86.786 44.478V49H85.526V44.66C85.526 43.8947 85.3347 43.3113 84.952 42.91C84.5693 42.4993 84.0467 42.294 83.384 42.294C82.712 42.294 82.1753 42.504 81.774 42.924C81.382 43.344 81.186 43.9553 81.186 44.758V49H79.912V38.64H81.186V42.42C81.438 42.028 81.7833 41.7247 82.222 41.51C82.67 41.2953 83.1693 41.188 83.72 41.188ZM92.2131 49.126C91.4944 49.126 90.8411 48.9627 90.2531 48.636C89.6744 48.3093 89.2171 47.8473 88.8811 47.25C88.5544 46.6433 88.3911 45.9433 88.3911 45.15C88.3911 44.366 88.5591 43.6753 88.8951 43.078C89.2404 42.4713 89.7071 42.0093 90.2951 41.692C90.8831 41.3653 91.5411 41.202 92.2691 41.202C92.9971 41.202 93.6551 41.3653 94.2431 41.692C94.8311 42.0093 95.2931 42.4667 95.6291 43.064C95.9744 43.6613 96.1471 44.3567 96.1471 45.15C96.1471 45.9433 95.9697 46.6433 95.6151 47.25C95.2697 47.8473 94.7984 48.3093 94.2011 48.636C93.6037 48.9627 92.9411 49.126 92.2131 49.126ZM92.2131 48.006C92.6704 48.006 93.0997 47.8987 93.5011 47.684C93.9024 47.4693 94.2244 47.1473 94.4671 46.718C94.7191 46.2887 94.8451 45.766 94.8451 45.15C94.8451 44.534 94.7237 44.0113 94.4811 43.582C94.2384 43.1527 93.9211 42.8353 93.5291 42.63C93.1371 42.4153 92.7124 42.308 92.2551 42.308C91.7884 42.308 91.3591 42.4153 90.9671 42.63C90.5844 42.8353 90.2764 43.1527 90.0431 43.582C89.8097 44.0113 89.6931 44.534 89.6931 45.15C89.6931 45.7753 89.8051 46.3027 90.0291 46.732C90.2624 47.1613 90.5704 47.4833 90.9531 47.698C91.3357 47.9033 91.7557 48.006 92.2131 48.006ZM108.042 41.328L105.648 49H104.332L102.484 42.91L100.636 49H99.3201L96.9121 41.328H98.2141L99.9781 47.768L101.882 41.328H103.184L105.046 47.782L106.782 41.328H108.042ZM119.647 41.328L115.027 52.612H113.711L115.223 48.916L112.129 41.328H113.543L115.951 47.544L118.331 41.328H119.647ZM124.274 49.126C123.555 49.126 122.902 48.9627 122.314 48.636C121.735 48.3093 121.278 47.8473 120.942 47.25C120.615 46.6433 120.452 45.9433 120.452 45.15C120.452 44.366 120.62 43.6753 120.956 43.078C121.301 42.4713 121.768 42.0093 122.356 41.692C122.944 41.3653 123.602 41.202 124.33 41.202C125.058 41.202 125.716 41.3653 126.304 41.692C126.892 42.0093 127.354 42.4667 127.69 43.064C128.035 43.6613 128.208 44.3567 128.208 45.15C128.208 45.9433 128.03 46.6433 127.676 47.25C127.33 47.8473 126.859 48.3093 126.262 48.636C125.664 48.9627 125.002 49.126 124.274 49.126ZM124.274 48.006C124.731 48.006 125.16 47.8987 125.562 47.684C125.963 47.4693 126.285 47.1473 126.528 46.718C126.78 46.2887 126.906 45.766 126.906 45.15C126.906 44.534 126.784 44.0113 126.542 43.582C126.299 43.1527 125.982 42.8353 125.59 42.63C125.198 42.4153 124.773 42.308 124.316 42.308C123.849 42.308 123.42 42.4153 123.028 42.63C122.645 42.8353 122.337 43.1527 122.104 43.582C121.87 44.0113 121.754 44.534 121.754 45.15C121.754 45.7753 121.866 46.3027 122.09 46.732C122.323 47.1613 122.631 47.4833 123.014 47.698C123.396 47.9033 123.816 48.006 124.274 48.006ZM136.687 41.328V49H135.413V47.866C135.17 48.258 134.829 48.566 134.391 48.79C133.961 49.0047 133.485 49.112 132.963 49.112C132.365 49.112 131.829 48.9907 131.353 48.748C130.877 48.496 130.499 48.1227 130.219 47.628C129.948 47.1333 129.813 46.5313 129.813 45.822V41.328H131.073V45.654C131.073 46.41 131.264 46.9933 131.647 47.404C132.029 47.8053 132.552 48.006 133.215 48.006C133.896 48.006 134.433 47.796 134.825 47.376C135.217 46.956 135.413 46.3447 135.413 45.542V41.328H136.687ZM139.482 37.856L139.314 40.642H138.432L138.25 37.856H139.482ZM142.34 42.574C142.564 42.1353 142.882 41.7947 143.292 41.552C143.712 41.3093 144.221 41.188 144.818 41.188V42.504H144.482C143.054 42.504 142.34 43.2787 142.34 44.828V49H141.066V41.328H142.34V42.574ZM153.289 44.87C153.289 45.1127 153.275 45.3693 153.247 45.64H147.115C147.162 46.396 147.418 46.9887 147.885 47.418C148.361 47.838 148.935 48.048 149.607 48.048C150.158 48.048 150.615 47.922 150.979 47.67C151.352 47.4087 151.614 47.0633 151.763 46.634H153.135C152.93 47.3713 152.519 47.9733 151.903 48.44C151.287 48.8973 150.522 49.126 149.607 49.126C148.879 49.126 148.226 48.9627 147.647 48.636C147.078 48.3093 146.63 47.8473 146.303 47.25C145.976 46.6433 145.813 45.9433 145.813 45.15C145.813 44.3567 145.972 43.6613 146.289 43.064C146.606 42.4667 147.05 42.0093 147.619 41.692C148.198 41.3653 148.86 41.202 149.607 41.202C150.335 41.202 150.979 41.3607 151.539 41.678C152.099 41.9953 152.528 42.434 152.827 42.994C153.135 43.5447 153.289 44.17 153.289 44.87ZM151.973 44.604C151.973 44.1187 151.866 43.7033 151.651 43.358C151.436 43.0033 151.142 42.7373 150.769 42.56C150.405 42.3733 149.999 42.28 149.551 42.28C148.907 42.28 148.356 42.4853 147.899 42.896C147.451 43.3067 147.194 43.876 147.129 44.604H151.973ZM165.703 44.87C165.703 45.1127 165.689 45.3693 165.661 45.64H159.529C159.576 46.396 159.832 46.9887 160.299 47.418C160.775 47.838 161.349 48.048 162.021 48.048C162.572 48.048 163.029 47.922 163.393 47.67C163.766 47.4087 164.028 47.0633 164.177 46.634H165.549C165.344 47.3713 164.933 47.9733 164.317 48.44C163.701 48.8973 162.936 49.126 162.021 49.126C161.293 49.126 160.64 48.9627 160.061 48.636C159.492 48.3093 159.044 47.8473 158.717 47.25C158.39 46.6433 158.227 45.9433 158.227 45.15C158.227 44.3567 158.386 43.6613 158.703 43.064C159.02 42.4667 159.464 42.0093 160.033 41.692C160.612 41.3653 161.274 41.202 162.021 41.202C162.749 41.202 163.393 41.3607 163.953 41.678C164.513 41.9953 164.942 42.434 165.241 42.994C165.549 43.5447 165.703 44.17 165.703 44.87ZM164.387 44.604C164.387 44.1187 164.28 43.7033 164.065 43.358C163.85 43.0033 163.556 42.7373 163.183 42.56C162.819 42.3733 162.413 42.28 161.965 42.28C161.321 42.28 160.77 42.4853 160.313 42.896C159.865 43.3067 159.608 43.876 159.543 44.604H164.387ZM171.123 41.188C172.056 41.188 172.812 41.4727 173.391 42.042C173.969 42.602 174.259 43.414 174.259 44.478V49H172.999V44.66C172.999 43.8947 172.807 43.3113 172.425 42.91C172.042 42.4993 171.519 42.294 170.857 42.294C170.185 42.294 169.648 42.504 169.247 42.924C168.855 43.344 168.659 43.9553 168.659 44.758V49H167.385V41.328H168.659V42.42C168.911 42.028 169.251 41.7247 169.681 41.51C170.119 41.2953 170.6 41.188 171.123 41.188ZM179.504 41.202C180.166 41.202 180.745 41.3467 181.24 41.636C181.744 41.9253 182.117 42.2893 182.36 42.728V41.328H183.648V49.168C183.648 49.868 183.498 50.4887 183.2 51.03C182.901 51.5807 182.472 52.01 181.912 52.318C181.361 52.626 180.717 52.78 179.98 52.78C178.972 52.78 178.132 52.542 177.46 52.066C176.788 51.59 176.391 50.9413 176.27 50.12H177.53C177.67 50.5867 177.959 50.96 178.398 51.24C178.836 51.5293 179.364 51.674 179.98 51.674C180.68 51.674 181.249 51.4547 181.688 51.016C182.136 50.5773 182.36 49.9613 182.36 49.168V47.558C182.108 48.006 181.734 48.3793 181.24 48.678C180.745 48.9767 180.166 49.126 179.504 49.126C178.822 49.126 178.202 48.958 177.642 48.622C177.091 48.286 176.657 47.8147 176.34 47.208C176.022 46.6013 175.864 45.9107 175.864 45.136C175.864 44.352 176.022 43.666 176.34 43.078C176.657 42.4807 177.091 42.0187 177.642 41.692C178.202 41.3653 178.822 41.202 179.504 41.202ZM182.36 45.15C182.36 44.5713 182.243 44.0673 182.01 43.638C181.776 43.2087 181.459 42.882 181.058 42.658C180.666 42.4247 180.232 42.308 179.756 42.308C179.28 42.308 178.846 42.42 178.454 42.644C178.062 42.868 177.749 43.1947 177.516 43.624C177.282 44.0533 177.166 44.5573 177.166 45.136C177.166 45.724 177.282 46.2373 177.516 46.676C177.749 47.1053 178.062 47.4367 178.454 47.67C178.846 47.894 179.28 48.006 179.756 48.006C180.232 48.006 180.666 47.894 181.058 47.67C181.459 47.4367 181.776 47.1053 182.01 46.676C182.243 46.2373 182.36 45.7287 182.36 45.15ZM185.325 45.136C185.325 44.352 185.483 43.666 185.801 43.078C186.118 42.4807 186.552 42.0187 187.103 41.692C187.663 41.3653 188.283 41.202 188.965 41.202C189.637 41.202 190.22 41.3467 190.715 41.636C191.209 41.9253 191.578 42.2893 191.821 42.728V41.328H193.109V49H191.821V47.572C191.569 48.02 191.191 48.3933 190.687 48.692C190.192 48.9813 189.613 49.126 188.951 49.126C188.269 49.126 187.653 48.958 187.103 48.622C186.552 48.286 186.118 47.8147 185.801 47.208C185.483 46.6013 185.325 45.9107 185.325 45.136ZM191.821 45.15C191.821 44.5713 191.704 44.0673 191.471 43.638C191.237 43.2087 190.92 42.882 190.519 42.658C190.127 42.4247 189.693 42.308 189.217 42.308C188.741 42.308 188.307 42.42 187.915 42.644C187.523 42.868 187.21 43.1947 186.977 43.624C186.743 44.0533 186.627 44.5573 186.627 45.136C186.627 45.724 186.743 46.2373 186.977 46.676C187.21 47.1053 187.523 47.4367 187.915 47.67C188.307 47.894 188.741 48.006 189.217 48.006C189.693 48.006 190.127 47.894 190.519 47.67C190.92 47.4367 191.237 47.1053 191.471 46.676C191.704 46.2373 191.821 45.7287 191.821 45.15ZM198.426 41.202C199.088 41.202 199.667 41.3467 200.162 41.636C200.666 41.9253 201.039 42.2893 201.282 42.728V41.328H202.57V49.168C202.57 49.868 202.42 50.4887 202.122 51.03C201.823 51.5807 201.394 52.01 200.834 52.318C200.283 52.626 199.639 52.78 198.902 52.78C197.894 52.78 197.054 52.542 196.382 52.066C195.71 51.59 195.313 50.9413 195.192 50.12H196.452C196.592 50.5867 196.881 50.96 197.32 51.24C197.758 51.5293 198.286 51.674 198.902 51.674C199.602 51.674 200.171 51.4547 200.61 51.016C201.058 50.5773 201.282 49.9613 201.282 49.168V47.558C201.03 48.006 200.656 48.3793 200.162 48.678C199.667 48.9767 199.088 49.126 198.426 49.126C197.744 49.126 197.124 48.958 196.564 48.622C196.013 48.286 195.579 47.8147 195.262 47.208C194.944 46.6013 194.786 45.9107 194.786 45.136C194.786 44.352 194.944 43.666 195.262 43.078C195.579 42.4807 196.013 42.0187 196.564 41.692C197.124 41.3653 197.744 41.202 198.426 41.202ZM201.282 45.15C201.282 44.5713 201.165 44.0673 200.932 43.638C200.698 43.2087 200.381 42.882 199.98 42.658C199.588 42.4247 199.154 42.308 198.678 42.308C198.202 42.308 197.768 42.42 197.376 42.644C196.984 42.868 196.671 43.1947 196.438 43.624C196.204 44.0533 196.088 44.5573 196.088 45.136C196.088 45.724 196.204 46.2373 196.438 46.676C196.671 47.1053 196.984 47.4367 197.376 47.67C197.768 47.894 198.202 48.006 198.678 48.006C199.154 48.006 199.588 47.894 199.98 47.67C200.381 47.4367 200.698 47.1053 200.932 46.676C201.165 46.2373 201.282 45.7287 201.282 45.15ZM211.723 44.87C211.723 45.1127 211.709 45.3693 211.681 45.64H205.549C205.595 46.396 205.852 46.9887 206.319 47.418C206.795 47.838 207.369 48.048 208.041 48.048C208.591 48.048 209.049 47.922 209.413 47.67C209.786 47.4087 210.047 47.0633 210.197 46.634H211.569C211.363 47.3713 210.953 47.9733 210.337 48.44C209.721 48.8973 208.955 49.126 208.041 49.126C207.313 49.126 206.659 48.9627 206.081 48.636C205.511 48.3093 205.063 47.8473 204.737 47.25C204.41 46.6433 204.247 45.9433 204.247 45.15C204.247 44.3567 204.405 43.6613 204.723 43.064C205.04 42.4667 205.483 42.0093 206.053 41.692C206.631 41.3653 207.294 41.202 208.041 41.202C208.769 41.202 209.413 41.3607 209.973 41.678C210.533 41.9953 210.962 42.434 211.261 42.994C211.569 43.5447 211.723 44.17 211.723 44.87ZM210.407 44.604C210.407 44.1187 210.299 43.7033 210.085 43.358C209.87 43.0033 209.576 42.7373 209.203 42.56C208.839 42.3733 208.433 42.28 207.985 42.28C207.341 42.28 206.79 42.4853 206.333 42.896C205.885 43.3067 205.628 43.876 205.563 44.604H210.407ZM212.928 45.136C212.928 44.352 213.087 43.666 213.404 43.078C213.722 42.4807 214.156 42.0187 214.706 41.692C215.266 41.3653 215.892 41.202 216.582 41.202C217.18 41.202 217.735 41.342 218.248 41.622C218.762 41.8927 219.154 42.252 219.424 42.7V38.64H220.712V49H219.424V47.558C219.172 48.0153 218.799 48.3933 218.304 48.692C217.81 48.9813 217.231 49.126 216.568 49.126C215.887 49.126 215.266 48.958 214.706 48.622C214.156 48.286 213.722 47.8147 213.404 47.208C213.087 46.6013 212.928 45.9107 212.928 45.136ZM219.424 45.15C219.424 44.5713 219.308 44.0673 219.074 43.638C218.841 43.2087 218.524 42.882 218.122 42.658C217.73 42.4247 217.296 42.308 216.82 42.308C216.344 42.308 215.91 42.42 215.518 42.644C215.126 42.868 214.814 43.1947 214.58 43.624C214.347 44.0533 214.23 44.5573 214.23 45.136C214.23 45.724 214.347 46.2373 214.58 46.676C214.814 47.1053 215.126 47.4367 215.518 47.67C215.91 47.894 216.344 48.006 216.82 48.006C217.296 48.006 217.73 47.894 218.122 47.67C218.524 47.4367 218.841 47.1053 219.074 46.676C219.308 46.2373 219.424 45.7287 219.424 45.15ZM26.298 62.328L23.904 70H22.588L20.74 63.91L18.892 70H17.576L15.168 62.328H16.47L18.234 68.768L20.138 62.328H21.44L23.302 68.782L25.038 62.328H26.298ZM28.2204 61.082C27.9777 61.082 27.7724 60.998 27.6044 60.83C27.4364 60.662 27.3524 60.4567 27.3524 60.214C27.3524 59.9713 27.4364 59.766 27.6044 59.598C27.7724 59.43 27.9777 59.346 28.2204 59.346C28.4537 59.346 28.6497 59.43 28.8084 59.598C28.9764 59.766 29.0604 59.9713 29.0604 60.214C29.0604 60.4567 28.9764 60.662 28.8084 60.83C28.6497 60.998 28.4537 61.082 28.2204 61.082ZM28.8364 62.328V70H27.5624V62.328H28.8364ZM32.5617 63.378V67.9C32.5617 68.2733 32.641 68.5393 32.7997 68.698C32.9584 68.8473 33.2337 68.922 33.6257 68.922H34.5637V70H33.4157C32.7064 70 32.1744 69.8367 31.8197 69.51C31.465 69.1833 31.2877 68.6467 31.2877 67.9V63.378H30.2937V62.328H31.2877V60.396H32.5617V62.328H34.5637V63.378H32.5617ZM39.9153 62.188C40.494 62.188 41.0166 62.314 41.4833 62.566C41.95 62.8087 42.314 63.1773 42.5753 63.672C42.846 64.1667 42.9813 64.7687 42.9813 65.478V70H41.7213V65.66C41.7213 64.8947 41.53 64.3113 41.1473 63.91C40.7646 63.4993 40.242 63.294 39.5793 63.294C38.9073 63.294 38.3706 63.504 37.9693 63.924C37.5773 64.344 37.3813 64.9553 37.3813 65.758V70H36.1073V59.64H37.3813V63.42C37.6333 63.028 37.9786 62.7247 38.4173 62.51C38.8653 62.2953 39.3646 62.188 39.9153 62.188ZM48.4084 70.126C47.6897 70.126 47.0364 69.9627 46.4484 69.636C45.8697 69.3093 45.4124 68.8473 45.0764 68.25C44.7497 67.6433 44.5864 66.9433 44.5864 66.15C44.5864 65.366 44.7544 64.6753 45.0904 64.078C45.4357 63.4713 45.9024 63.0093 46.4904 62.692C47.0784 62.3653 47.7364 62.202 48.4644 62.202C49.1924 62.202 49.8504 62.3653 50.4384 62.692C51.0264 63.0093 51.4884 63.4667 51.8244 64.064C52.1697 64.6613 52.3424 65.3567 52.3424 66.15C52.3424 66.9433 52.165 67.6433 51.8104 68.25C51.465 68.8473 50.9937 69.3093 50.3964 69.636C49.799 69.9627 49.1364 70.126 48.4084 70.126ZM48.4084 69.006C48.8657 69.006 49.295 68.8987 49.6964 68.684C50.0977 68.4693 50.4197 68.1473 50.6624 67.718C50.9144 67.2887 51.0404 66.766 51.0404 66.15C51.0404 65.534 50.919 65.0113 50.6764 64.582C50.4337 64.1527 50.1164 63.8353 49.7244 63.63C49.3324 63.4153 48.9077 63.308 48.4504 63.308C47.9837 63.308 47.5544 63.4153 47.1624 63.63C46.7797 63.8353 46.4717 64.1527 46.2384 64.582C46.005 65.0113 45.8884 65.534 45.8884 66.15C45.8884 66.7753 46.0004 67.3027 46.2244 67.732C46.4577 68.1613 46.7657 68.4833 47.1484 68.698C47.531 68.9033 47.951 69.006 48.4084 69.006ZM60.8215 62.328V70H59.5475V68.866C59.3048 69.258 58.9641 69.566 58.5255 69.79C58.0961 70.0047 57.6201 70.112 57.0975 70.112C56.5001 70.112 55.9635 69.9907 55.4875 69.748C55.0115 69.496 54.6335 69.1227 54.3535 68.628C54.0828 68.1333 53.9475 67.5313 53.9475 66.822V62.328H55.2075V66.654C55.2075 67.41 55.3988 67.9933 55.7815 68.404C56.1641 68.8053 56.6868 69.006 57.3495 69.006C58.0308 69.006 58.5675 68.796 58.9595 68.376C59.3515 67.956 59.5475 67.3447 59.5475 66.542V62.328H60.8215ZM64.5265 63.378V67.9C64.5265 68.2733 64.6059 68.5393 64.7645 68.698C64.9232 68.8473 65.1985 68.922 65.5905 68.922H66.5285V70H65.3805C64.6712 70 64.1392 69.8367 63.7845 69.51C63.4299 69.1833 63.2525 68.6467 63.2525 67.9V63.378H62.2585V62.328H63.2525V60.396H64.5265V62.328H66.5285V63.378H64.5265ZM74.5206 70.126C73.9326 70.126 73.4052 70.028 72.9386 69.832C72.4719 69.6267 72.1032 69.3467 71.8326 68.992C71.5619 68.628 71.4126 68.2127 71.3846 67.746H72.7006C72.7379 68.1287 72.9152 68.4413 73.2326 68.684C73.5592 68.9267 73.9839 69.048 74.5066 69.048C74.9919 69.048 75.3746 68.9407 75.6546 68.726C75.9346 68.5113 76.0746 68.2407 76.0746 67.914C76.0746 67.578 75.9252 67.3307 75.6266 67.172C75.3279 67.004 74.8659 66.8407 74.2406 66.682C73.6712 66.5327 73.2046 66.3833 72.8406 66.234C72.4859 66.0753 72.1779 65.8467 71.9166 65.548C71.6646 65.24 71.5386 64.8387 71.5386 64.344C71.5386 63.952 71.6552 63.5927 71.8886 63.266C72.1219 62.9393 72.4532 62.6827 72.8826 62.496C73.3119 62.3 73.8019 62.202 74.3526 62.202C75.2019 62.202 75.8879 62.4167 76.4106 62.846C76.9332 63.2753 77.2132 63.8633 77.2506 64.61H75.9766C75.9486 64.2087 75.7852 63.8867 75.4866 63.644C75.1972 63.4013 74.8052 63.28 74.3106 63.28C73.8532 63.28 73.4892 63.378 73.2186 63.574C72.9479 63.77 72.8126 64.0267 72.8126 64.344C72.8126 64.596 72.8919 64.806 73.0506 64.974C73.2186 65.1327 73.4239 65.2633 73.6666 65.366C73.9186 65.4593 74.2639 65.5667 74.7026 65.688C75.2532 65.8373 75.7012 65.9867 76.0466 66.136C76.3919 66.276 76.6859 66.4907 76.9286 66.78C77.1806 67.0693 77.3112 67.4473 77.3206 67.914C77.3206 68.334 77.2039 68.712 76.9706 69.048C76.7372 69.384 76.4059 69.65 75.9766 69.846C75.5566 70.0327 75.0712 70.126 74.5206 70.126ZM78.643 66.136C78.643 65.352 78.8017 64.666 79.119 64.078C79.4363 63.4807 79.8703 63.0187 80.421 62.692C80.981 62.3653 81.6017 62.202 82.283 62.202C82.955 62.202 83.5383 62.3467 84.033 62.636C84.5277 62.9253 84.8963 63.2893 85.139 63.728V62.328H86.427V70H85.139V68.572C84.887 69.02 84.509 69.3933 84.005 69.692C83.5103 69.9813 82.9317 70.126 82.269 70.126C81.5877 70.126 80.9717 69.958 80.421 69.622C79.8703 69.286 79.4363 68.8147 79.119 68.208C78.8017 67.6013 78.643 66.9107 78.643 66.136ZM85.139 66.15C85.139 65.5713 85.0223 65.0673 84.789 64.638C84.5557 64.2087 84.2383 63.882 83.837 63.658C83.445 63.4247 83.011 63.308 82.535 63.308C82.059 63.308 81.625 63.42 81.233 63.644C80.841 63.868 80.5283 64.1947 80.295 64.624C80.0617 65.0533 79.945 65.5573 79.945 66.136C79.945 66.724 80.0617 67.2373 80.295 67.676C80.5283 68.1053 80.841 68.4367 81.233 68.67C81.625 68.894 82.059 69.006 82.535 69.006C83.011 69.006 83.445 68.894 83.837 68.67C84.2383 68.4367 84.5557 68.1053 84.789 67.676C85.0223 67.2373 85.139 66.7287 85.139 66.15ZM95.188 62.328L90.568 73.612H89.252L90.764 69.916L87.67 62.328H89.084L91.492 68.544L93.872 62.328H95.188ZM97.1266 61.082C96.884 61.082 96.6786 60.998 96.5106 60.83C96.3426 60.662 96.2586 60.4567 96.2586 60.214C96.2586 59.9713 96.3426 59.766 96.5106 59.598C96.6786 59.43 96.884 59.346 97.1266 59.346C97.36 59.346 97.556 59.43 97.7146 59.598C97.8826 59.766 97.9666 59.9713 97.9666 60.214C97.9666 60.4567 97.8826 60.662 97.7146 60.83C97.556 60.998 97.36 61.082 97.1266 61.082ZM97.7426 62.328V70H96.4686V62.328H97.7426ZM103.652 62.188C104.585 62.188 105.341 62.4727 105.92 63.042C106.499 63.602 106.788 64.414 106.788 65.478V70H105.528V65.66C105.528 64.8947 105.337 64.3113 104.954 63.91C104.571 63.4993 104.049 63.294 103.386 63.294C102.714 63.294 102.177 63.504 101.776 63.924C101.384 64.344 101.188 64.9553 101.188 65.758V70H99.9139V62.328H101.188V63.42C101.44 63.028 101.781 62.7247 102.21 62.51C102.649 62.2953 103.129 62.188 103.652 62.188ZM112.033 62.202C112.696 62.202 113.274 62.3467 113.769 62.636C114.273 62.9253 114.646 63.2893 114.889 63.728V62.328H116.177V70.168C116.177 70.868 116.028 71.4887 115.729 72.03C115.43 72.5807 115.001 73.01 114.441 73.318C113.89 73.626 113.246 73.78 112.509 73.78C111.501 73.78 110.661 73.542 109.989 73.066C109.317 72.59 108.92 71.9413 108.799 71.12H110.059C110.199 71.5867 110.488 71.96 110.927 72.24C111.366 72.5293 111.893 72.674 112.509 72.674C113.209 72.674 113.778 72.4547 114.217 72.016C114.665 71.5773 114.889 70.9613 114.889 70.168V68.558C114.637 69.006 114.264 69.3793 113.769 69.678C113.274 69.9767 112.696 70.126 112.033 70.126C111.352 70.126 110.731 69.958 110.171 69.622C109.62 69.286 109.186 68.8147 108.869 68.208C108.552 67.6013 108.393 66.9107 108.393 66.136C108.393 65.352 108.552 64.666 108.869 64.078C109.186 63.4807 109.62 63.0187 110.171 62.692C110.731 62.3653 111.352 62.202 112.033 62.202ZM114.889 66.15C114.889 65.5713 114.772 65.0673 114.539 64.638C114.306 64.2087 113.988 63.882 113.587 63.658C113.195 63.4247 112.761 63.308 112.285 63.308C111.809 63.308 111.375 63.42 110.983 63.644C110.591 63.868 110.278 64.1947 110.045 64.624C109.812 65.0533 109.695 65.5573 109.695 66.136C109.695 66.724 109.812 67.2373 110.045 67.676C110.278 68.1053 110.591 68.4367 110.983 68.67C111.375 68.894 111.809 69.006 112.285 69.006C112.761 69.006 113.195 68.894 113.587 68.67C113.988 68.4367 114.306 68.1053 114.539 67.676C114.772 67.2373 114.889 66.7287 114.889 66.15ZM121.586 66.136C121.586 65.352 121.745 64.666 122.062 64.078C122.38 63.4807 122.814 63.0187 123.364 62.692C123.924 62.3653 124.545 62.202 125.226 62.202C125.898 62.202 126.482 62.3467 126.976 62.636C127.471 62.9253 127.84 63.2893 128.082 63.728V62.328H129.37V70H128.082V68.572C127.83 69.02 127.452 69.3933 126.948 69.692C126.454 69.9813 125.875 70.126 125.212 70.126C124.531 70.126 123.915 69.958 123.364 69.622C122.814 69.286 122.38 68.8147 122.062 68.208C121.745 67.6013 121.586 66.9107 121.586 66.136ZM128.082 66.15C128.082 65.5713 127.966 65.0673 127.732 64.638C127.499 64.2087 127.182 63.882 126.78 63.658C126.388 63.4247 125.954 63.308 125.478 63.308C125.002 63.308 124.568 63.42 124.176 63.644C123.784 63.868 123.472 64.1947 123.238 64.624C123.005 65.0533 122.888 65.5573 122.888 66.136C122.888 66.724 123.005 67.2373 123.238 67.676C123.472 68.1053 123.784 68.4367 124.176 68.67C124.568 68.894 125.002 69.006 125.478 69.006C125.954 69.006 126.388 68.894 126.78 68.67C127.182 68.4367 127.499 68.1053 127.732 67.676C127.966 67.2373 128.082 66.7287 128.082 66.15ZM145.476 62.328L143.082 70H141.766L139.918 63.91L138.07 70H136.754L134.346 62.328H135.648L137.412 68.768L139.316 62.328H140.618L142.48 68.782L144.216 62.328H145.476ZM150.086 70.126C149.367 70.126 148.714 69.9627 148.126 69.636C147.547 69.3093 147.09 68.8473 146.754 68.25C146.427 67.6433 146.264 66.9433 146.264 66.15C146.264 65.366 146.432 64.6753 146.768 64.078C147.113 63.4713 147.58 63.0093 148.168 62.692C148.756 62.3653 149.414 62.202 150.142 62.202C150.87 62.202 151.528 62.3653 152.116 62.692C152.704 63.0093 153.166 63.4667 153.502 64.064C153.847 64.6613 154.02 65.3567 154.02 66.15C154.02 66.9433 153.843 67.6433 153.488 68.25C153.143 68.8473 152.671 69.3093 152.074 69.636C151.477 69.9627 150.814 70.126 150.086 70.126ZM150.086 69.006C150.543 69.006 150.973 68.8987 151.374 68.684C151.775 68.4693 152.097 68.1473 152.34 67.718C152.592 67.2887 152.718 66.766 152.718 66.15C152.718 65.534 152.597 65.0113 152.354 64.582C152.111 64.1527 151.794 63.8353 151.402 63.63C151.01 63.4153 150.585 63.308 150.128 63.308C149.661 63.308 149.232 63.4153 148.84 63.63C148.457 63.8353 148.149 64.1527 147.916 64.582C147.683 65.0113 147.566 65.534 147.566 66.15C147.566 66.7753 147.678 67.3027 147.902 67.732C148.135 68.1613 148.443 68.4833 148.826 68.698C149.209 68.9033 149.629 69.006 150.086 69.006ZM156.969 63.574C157.193 63.1353 157.511 62.7947 157.921 62.552C158.341 62.3093 158.85 62.188 159.447 62.188V63.504H159.111C157.683 63.504 156.969 64.2787 156.969 65.828V70H155.695V62.328H156.969V63.574ZM160.442 66.136C160.442 65.352 160.601 64.666 160.918 64.078C161.235 63.4807 161.669 63.0187 162.22 62.692C162.78 62.3653 163.405 62.202 164.096 62.202C164.693 62.202 165.249 62.342 165.762 62.622C166.275 62.8927 166.667 63.252 166.938 63.7V59.64H168.226V70H166.938V68.558C166.686 69.0153 166.313 69.3933 165.818 69.692C165.323 69.9813 164.745 70.126 164.082 70.126C163.401 70.126 162.78 69.958 162.22 69.622C161.669 69.286 161.235 68.8147 160.918 68.208C160.601 67.6013 160.442 66.9107 160.442 66.136ZM166.938 66.15C166.938 65.5713 166.821 65.0673 166.588 64.638C166.355 64.2087 166.037 63.882 165.636 63.658C165.244 63.4247 164.81 63.308 164.334 63.308C163.858 63.308 163.424 63.42 163.032 63.644C162.64 63.868 162.327 64.1947 162.094 64.624C161.861 65.0533 161.744 65.5573 161.744 66.136C161.744 66.724 161.861 67.2373 162.094 67.676C162.327 68.1053 162.64 68.4367 163.032 68.67C163.424 68.894 163.858 69.006 164.334 69.006C164.81 69.006 165.244 68.894 165.636 68.67C166.037 68.4367 166.355 68.1053 166.588 67.676C166.821 67.2373 166.938 66.7287 166.938 66.15ZM170.785 70.084C170.542 70.084 170.337 70 170.169 69.832C170.001 69.664 169.917 69.4587 169.917 69.216C169.917 68.9733 170.001 68.768 170.169 68.6C170.337 68.432 170.542 68.348 170.785 68.348C171.018 68.348 171.214 68.432 171.373 68.6C171.541 68.768 171.625 68.9733 171.625 69.216C171.625 69.4587 171.541 69.664 171.373 69.832C171.214 70 171.018 70.084 170.785 70.084ZM189.315 60.242L186.487 70H185.059L182.791 62.146L180.439 70L179.025 70.014L176.295 60.242H177.653L179.781 68.516L182.133 60.242H183.561L185.801 68.488L187.943 60.242H189.315ZM194.517 62.188C195.096 62.188 195.618 62.314 196.085 62.566C196.552 62.8087 196.916 63.1773 197.177 63.672C197.448 64.1667 197.583 64.7687 197.583 65.478V70H196.323V65.66C196.323 64.8947 196.132 64.3113 195.749 63.91C195.366 63.4993 194.844 63.294 194.181 63.294C193.509 63.294 192.972 63.504 192.571 63.924C192.179 64.344 191.983 64.9553 191.983 65.758V70H190.709V59.64H191.983V63.42C192.235 63.028 192.58 62.7247 193.019 62.51C193.467 62.2953 193.966 62.188 194.517 62.188ZM199.188 66.136C199.188 65.352 199.347 64.666 199.664 64.078C199.981 63.4807 200.415 63.0187 200.966 62.692C201.526 62.3653 202.147 62.202 202.828 62.202C203.5 62.202 204.083 62.3467 204.578 62.636C205.073 62.9253 205.441 63.2893 205.684 63.728V62.328H206.972V70H205.684V68.572C205.432 69.02 205.054 69.3933 204.55 69.692C204.055 69.9813 203.477 70.126 202.814 70.126C202.133 70.126 201.517 69.958 200.966 69.622C200.415 69.286 199.981 68.8147 199.664 68.208C199.347 67.6013 199.188 66.9107 199.188 66.136ZM205.684 66.15C205.684 65.5713 205.567 65.0673 205.334 64.638C205.101 64.2087 204.783 63.882 204.382 63.658C203.99 63.4247 203.556 63.308 203.08 63.308C202.604 63.308 202.17 63.42 201.778 63.644C201.386 63.868 201.073 64.1947 200.84 64.624C200.607 65.0533 200.49 65.5573 200.49 66.136C200.49 66.724 200.607 67.2373 200.84 67.676C201.073 68.1053 201.386 68.4367 201.778 68.67C202.17 68.894 202.604 69.006 203.08 69.006C203.556 69.006 203.99 68.894 204.382 68.67C204.783 68.4367 205.101 68.1053 205.334 67.676C205.567 67.2373 205.684 66.7287 205.684 66.15ZM210.679 63.378V67.9C210.679 68.2733 210.758 68.5393 210.917 68.698C211.076 68.8473 211.351 68.922 211.743 68.922H212.681V70H211.533C210.824 70 210.292 69.8367 209.937 69.51C209.582 69.1833 209.405 68.6467 209.405 67.9V63.378H208.411V62.328H209.405V60.396H210.679V62.328H212.681V63.378H210.679ZM214.868 58.856L214.7 61.642H213.818L213.636 58.856H214.868ZM219.169 70.126C218.581 70.126 218.054 70.028 217.587 69.832C217.12 69.6267 216.752 69.3467 216.481 68.992C216.21 68.628 216.061 68.2127 216.033 67.746H217.349C217.386 68.1287 217.564 68.4413 217.881 68.684C218.208 68.9267 218.632 69.048 219.155 69.048C219.64 69.048 220.023 68.9407 220.303 68.726C220.583 68.5113 220.723 68.2407 220.723 67.914C220.723 67.578 220.574 67.3307 220.275 67.172C219.976 67.004 219.514 66.8407 218.889 66.682C218.32 66.5327 217.853 66.3833 217.489 66.234C217.134 66.0753 216.826 65.8467 216.565 65.548C216.313 65.24 216.187 64.8387 216.187 64.344C216.187 63.952 216.304 63.5927 216.537 63.266C216.77 62.9393 217.102 62.6827 217.531 62.496C217.96 62.3 218.45 62.202 219.001 62.202C219.85 62.202 220.536 62.4167 221.059 62.846C221.582 63.2753 221.862 63.8633 221.899 64.61H220.625C220.597 64.2087 220.434 63.8867 220.135 63.644C219.846 63.4013 219.454 63.28 218.959 63.28C218.502 63.28 218.138 63.378 217.867 63.574C217.596 63.77 217.461 64.0267 217.461 64.344C217.461 64.596 217.54 64.806 217.699 64.974C217.867 65.1327 218.072 65.2633 218.315 65.366C218.567 65.4593 218.912 65.5667 219.351 65.688C219.902 65.8373 220.35 65.9867 220.695 66.136C221.04 66.276 221.334 66.4907 221.577 66.78C221.829 67.0693 221.96 67.4473 221.969 67.914C221.969 68.334 221.852 68.712 221.619 69.048C221.386 69.384 221.054 69.65 220.625 69.846C220.205 70.0327 219.72 70.126 219.169 70.126ZM22.686 83.328L18.066 94.612H16.75L18.262 90.916L15.168 83.328H16.582L18.99 89.544L21.37 83.328H22.686ZM27.3127 91.126C26.594 91.126 25.9407 90.9627 25.3527 90.636C24.774 90.3093 24.3167 89.8473 23.9807 89.25C23.654 88.6433 23.4907 87.9433 23.4907 87.15C23.4907 86.366 23.6587 85.6753 23.9947 85.078C24.34 84.4713 24.8067 84.0093 25.3947 83.692C25.9827 83.3653 26.6407 83.202 27.3687 83.202C28.0967 83.202 28.7547 83.3653 29.3427 83.692C29.9307 84.0093 30.3927 84.4667 30.7287 85.064C31.074 85.6613 31.2467 86.3567 31.2467 87.15C31.2467 87.9433 31.0693 88.6433 30.7147 89.25C30.3693 89.8473 29.898 90.3093 29.3007 90.636C28.7033 90.9627 28.0407 91.126 27.3127 91.126ZM27.3127 90.006C27.77 90.006 28.1993 89.8987 28.6007 89.684C29.002 89.4693 29.324 89.1473 29.5667 88.718C29.8187 88.2887 29.9447 87.766 29.9447 87.15C29.9447 86.534 29.8233 86.0113 29.5807 85.582C29.338 85.1527 29.0207 84.8353 28.6287 84.63C28.2367 84.4153 27.812 84.308 27.3547 84.308C26.888 84.308 26.4587 84.4153 26.0667 84.63C25.684 84.8353 25.376 85.1527 25.1427 85.582C24.9093 86.0113 24.7927 86.534 24.7927 87.15C24.7927 87.7753 24.9047 88.3027 25.1287 88.732C25.362 89.1613 25.67 89.4833 26.0527 89.698C26.4353 89.9033 26.8553 90.006 27.3127 90.006ZM39.7258 83.328V91H38.4518V89.866C38.2091 90.258 37.8684 90.566 37.4298 90.79C37.0004 91.0047 36.5244 91.112 36.0018 91.112C35.4044 91.112 34.8678 90.9907 34.3918 90.748C33.9158 90.496 33.5378 90.1227 33.2578 89.628C32.9871 89.1333 32.8518 88.5313 32.8518 87.822V83.328H34.1118V87.654C34.1118 88.41 34.3031 88.9933 34.6858 89.404C35.0684 89.8053 35.5911 90.006 36.2538 90.006C36.9351 90.006 37.4718 89.796 37.8638 89.376C38.2558 88.956 38.4518 88.3447 38.4518 87.542V83.328H39.7258ZM43.1508 84.574C43.3748 84.1353 43.6922 83.7947 44.1028 83.552C44.5228 83.3093 45.0315 83.188 45.6288 83.188V84.504H45.2928C43.8648 84.504 43.1508 85.2787 43.1508 86.828V91H41.8768V83.328H43.1508V84.574ZM50.3559 87.136C50.3559 86.352 50.5146 85.666 50.8319 85.078C51.1492 84.4807 51.5832 84.0187 52.1339 83.692C52.6939 83.3653 53.3146 83.202 53.9959 83.202C54.6679 83.202 55.2512 83.3467 55.7459 83.636C56.2406 83.9253 56.6092 84.2893 56.8519 84.728V83.328H58.1399V91H56.8519V89.572C56.5999 90.02 56.2219 90.3933 55.7179 90.692C55.2232 90.9813 54.6446 91.126 53.9819 91.126C53.3006 91.126 52.6846 90.958 52.1339 90.622C51.5832 90.286 51.1492 89.8147 50.8319 89.208C50.5146 88.6013 50.3559 87.9107 50.3559 87.136ZM56.8519 87.15C56.8519 86.5713 56.7352 86.0673 56.5019 85.638C56.2686 85.2087 55.9512 84.882 55.5499 84.658C55.1579 84.4247 54.7239 84.308 54.2479 84.308C53.7719 84.308 53.3379 84.42 52.9459 84.644C52.5539 84.868 52.2412 85.1947 52.0079 85.624C51.7746 86.0533 51.6579 86.5573 51.6579 87.136C51.6579 87.724 51.7746 88.2373 52.0079 88.676C52.2412 89.1053 52.5539 89.4367 52.9459 89.67C53.3379 89.894 53.7719 90.006 54.2479 90.006C54.7239 90.006 55.1579 89.894 55.5499 89.67C55.9512 89.4367 56.2686 89.1053 56.5019 88.676C56.7352 88.2373 56.8519 87.7287 56.8519 87.15ZM61.5668 84.742C61.8188 84.3033 62.1922 83.9393 62.6868 83.65C63.1908 83.3513 63.7742 83.202 64.4368 83.202C65.1182 83.202 65.7342 83.3653 66.2848 83.692C66.8448 84.0187 67.2835 84.4807 67.6008 85.078C67.9182 85.666 68.0768 86.352 68.0768 87.136C68.0768 87.9107 67.9182 88.6013 67.6008 89.208C67.2835 89.8147 66.8448 90.286 66.2848 90.622C65.7342 90.958 65.1182 91.126 64.4368 91.126C63.7835 91.126 63.2048 90.9813 62.7008 90.692C62.2062 90.3933 61.8282 90.0247 61.5668 89.586V94.64H60.2928V83.328H61.5668V84.742ZM66.7748 87.136C66.7748 86.5573 66.6582 86.0533 66.4248 85.624C66.1915 85.1947 65.8742 84.868 65.4728 84.644C65.0808 84.42 64.6468 84.308 64.1708 84.308C63.7042 84.308 63.2702 84.4247 62.8688 84.658C62.4768 84.882 62.1595 85.2133 61.9168 85.652C61.6835 86.0813 61.5668 86.5807 61.5668 87.15C61.5668 87.7287 61.6835 88.2373 61.9168 88.676C62.1595 89.1053 62.4768 89.4367 62.8688 89.67C63.2702 89.894 63.7042 90.006 64.1708 90.006C64.6468 90.006 65.0808 89.894 65.4728 89.67C65.8742 89.4367 66.1915 89.1053 66.4248 88.676C66.6582 88.2373 66.7748 87.724 66.7748 87.136ZM71.0278 84.742C71.2798 84.3033 71.6531 83.9393 72.1478 83.65C72.6518 83.3513 73.2351 83.202 73.8978 83.202C74.5791 83.202 75.1951 83.3653 75.7458 83.692C76.3058 84.0187 76.7444 84.4807 77.0618 85.078C77.3791 85.666 77.5378 86.352 77.5378 87.136C77.5378 87.9107 77.3791 88.6013 77.0618 89.208C76.7444 89.8147 76.3058 90.286 75.7458 90.622C75.1951 90.958 74.5791 91.126 73.8978 91.126C73.2444 91.126 72.6658 90.9813 72.1618 90.692C71.6671 90.3933 71.2891 90.0247 71.0278 89.586V94.64H69.7538V83.328H71.0278V84.742ZM76.2358 87.136C76.2358 86.5573 76.1191 86.0533 75.8858 85.624C75.6524 85.1947 75.3351 84.868 74.9338 84.644C74.5418 84.42 74.1078 84.308 73.6318 84.308C73.1651 84.308 72.7311 84.4247 72.3298 84.658C71.9378 84.882 71.6204 85.2133 71.3778 85.652C71.1444 86.0813 71.0278 86.5807 71.0278 87.15C71.0278 87.7287 71.1444 88.2373 71.3778 88.676C71.6204 89.1053 71.9378 89.4367 72.3298 89.67C72.7311 89.894 73.1651 90.006 73.6318 90.006C74.1078 90.006 74.5418 89.894 74.9338 89.67C75.3351 89.4367 75.6524 89.1053 75.8858 88.676C76.1191 88.2373 76.2358 87.724 76.2358 87.136ZM80.4887 84.574C80.7127 84.1353 81.0301 83.7947 81.4407 83.552C81.8607 83.3093 82.3694 83.188 82.9667 83.188V84.504H82.6307C81.2027 84.504 80.4887 85.2787 80.4887 86.828V91H79.2147V83.328H80.4887V84.574ZM87.7834 91.126C87.0647 91.126 86.4114 90.9627 85.8234 90.636C85.2447 90.3093 84.7874 89.8473 84.4514 89.25C84.1247 88.6433 83.9614 87.9433 83.9614 87.15C83.9614 86.366 84.1294 85.6753 84.4654 85.078C84.8107 84.4713 85.2774 84.0093 85.8654 83.692C86.4534 83.3653 87.1114 83.202 87.8394 83.202C88.5674 83.202 89.2254 83.3653 89.8134 83.692C90.4014 84.0093 90.8634 84.4667 91.1994 85.064C91.5447 85.6613 91.7174 86.3567 91.7174 87.15C91.7174 87.9433 91.54 88.6433 91.1854 89.25C90.84 89.8473 90.3687 90.3093 89.7714 90.636C89.174 90.9627 88.5114 91.126 87.7834 91.126ZM87.7834 90.006C88.2407 90.006 88.67 89.8987 89.0714 89.684C89.4727 89.4693 89.7947 89.1473 90.0374 88.718C90.2894 88.2887 90.4154 87.766 90.4154 87.15C90.4154 86.534 90.294 86.0113 90.0514 85.582C89.8087 85.1527 89.4914 84.8353 89.0994 84.63C88.7074 84.4153 88.2827 84.308 87.8254 84.308C87.3587 84.308 86.9294 84.4153 86.5374 84.63C86.1547 84.8353 85.8467 85.1527 85.6134 85.582C85.38 86.0113 85.2634 86.534 85.2634 87.15C85.2634 87.7753 85.3754 88.3027 85.5994 88.732C85.8327 89.1613 86.1407 89.4833 86.5234 89.698C86.906 89.9033 87.326 90.006 87.7834 90.006ZM92.9165 87.136C92.9165 86.352 93.0751 85.666 93.3925 85.078C93.7098 84.4807 94.1438 84.0187 94.6945 83.692C95.2545 83.3653 95.8751 83.202 96.5565 83.202C97.2285 83.202 97.8118 83.3467 98.3065 83.636C98.8011 83.9253 99.1698 84.2893 99.4125 84.728V83.328H100.7V91H99.4125V89.572C99.1605 90.02 98.7825 90.3933 98.2785 90.692C97.7838 90.9813 97.2051 91.126 96.5425 91.126C95.8611 91.126 95.2451 90.958 94.6945 90.622C94.1438 90.286 93.7098 89.8147 93.3925 89.208C93.0751 88.6013 92.9165 87.9107 92.9165 87.136ZM99.4125 87.15C99.4125 86.5713 99.2958 86.0673 99.0625 85.638C98.8291 85.2087 98.5118 84.882 98.1105 84.658C97.7185 84.4247 97.2845 84.308 96.8085 84.308C96.3325 84.308 95.8985 84.42 95.5065 84.644C95.1145 84.868 94.8018 85.1947 94.5685 85.624C94.3351 86.0533 94.2185 86.5573 94.2185 87.136C94.2185 87.724 94.3351 88.2373 94.5685 88.676C94.8018 89.1053 95.1145 89.4367 95.5065 89.67C95.8985 89.894 96.3325 90.006 96.8085 90.006C97.2845 90.006 97.7185 89.894 98.1105 89.67C98.5118 89.4367 98.8291 89.1053 99.0625 88.676C99.2958 88.2373 99.4125 87.7287 99.4125 87.15ZM102.377 87.15C102.377 86.3567 102.536 85.666 102.853 85.078C103.171 84.4807 103.609 84.0187 104.169 83.692C104.739 83.3653 105.387 83.202 106.115 83.202C107.058 83.202 107.833 83.4307 108.439 83.888C109.055 84.3453 109.461 84.98 109.657 85.792H108.285C108.155 85.3253 107.898 84.9567 107.515 84.686C107.142 84.4153 106.675 84.28 106.115 84.28C105.387 84.28 104.799 84.532 104.351 85.036C103.903 85.5307 103.679 86.2353 103.679 87.15C103.679 88.074 103.903 88.788 104.351 89.292C104.799 89.796 105.387 90.048 106.115 90.048C106.675 90.048 107.142 89.9173 107.515 89.656C107.889 89.3947 108.145 89.0213 108.285 88.536H109.657C109.452 89.32 109.041 89.95 108.425 90.426C107.809 90.8927 107.039 91.126 106.115 91.126C105.387 91.126 104.739 90.9627 104.169 90.636C103.609 90.3093 103.171 89.8473 102.853 89.25C102.536 88.6527 102.377 87.9527 102.377 87.15ZM115.165 83.188C115.744 83.188 116.267 83.314 116.733 83.566C117.2 83.8087 117.564 84.1773 117.825 84.672C118.096 85.1667 118.231 85.7687 118.231 86.478V91H116.971V86.66C116.971 85.8947 116.78 85.3113 116.397 84.91C116.015 84.4993 115.492 84.294 114.829 84.294C114.157 84.294 113.621 84.504 113.219 84.924C112.827 85.344 112.631 85.9553 112.631 86.758V91H111.357V80.64H112.631V84.42C112.883 84.028 113.229 83.7247 113.667 83.51C114.115 83.2953 114.615 83.188 115.165 83.188ZM122.804 81.116C123.728 81.116 124.475 81.3773 125.044 81.9C125.614 82.4227 125.898 83.1227 125.898 84C125.898 84.98 125.595 85.708 124.988 86.184C124.382 86.6507 123.56 86.884 122.524 86.884L122.482 88.214H121.376L121.32 86.002H121.726C122.65 86.002 123.374 85.862 123.896 85.582C124.419 85.302 124.68 84.7747 124.68 84C124.68 83.44 124.512 82.9967 124.176 82.67C123.84 82.3433 123.388 82.18 122.818 82.18C122.24 82.18 121.782 82.3387 121.446 82.656C121.12 82.964 120.956 83.3887 120.956 83.93H119.752C119.752 83.37 119.878 82.88 120.13 82.46C120.382 82.0307 120.737 81.6993 121.194 81.466C121.661 81.2327 122.198 81.116 122.804 81.116ZM121.922 91.084C121.68 91.084 121.474 91 121.306 90.832C121.138 90.664 121.054 90.4587 121.054 90.216C121.054 89.9733 121.138 89.768 121.306 89.6C121.474 89.432 121.68 89.348 121.922 89.348C122.156 89.348 122.352 89.432 122.51 89.6C122.678 89.768 122.762 89.9733 122.762 90.216C122.762 90.4587 122.678 90.664 122.51 90.832C122.352 91 122.156 91.084 121.922 91.084Z" fill="black"/>
</svg>
