<svg width="357" height="60" viewBox="0 0 357 60" fill="none" xmlns="http://www.w3.org/2000/svg">
<rect width="357" height="60" rx="12" fill="#6442EF"/>
<path d="M117.008 24.88V36H115.184V24.88H117.008ZM131.335 28.192C131.335 28.7573 131.202 29.2907 130.935 29.792C130.669 30.2933 130.242 30.704 129.655 31.024C129.069 31.3333 128.317 31.488 127.399 31.488H125.383V36H123.559V24.88H127.399C128.253 24.88 128.973 25.0293 129.559 25.328C130.157 25.616 130.599 26.0107 130.887 26.512C131.186 27.0133 131.335 27.5733 131.335 28.192ZM127.399 30C128.093 30 128.61 29.8453 128.951 29.536C129.293 29.216 129.463 28.768 129.463 28.192C129.463 26.976 128.775 26.368 127.399 26.368H125.383V30H127.399ZM134.899 28.464C135.166 28.016 135.518 27.6693 135.955 27.424C136.403 27.168 136.931 27.04 137.539 27.04V28.928H137.075C136.36 28.928 135.816 29.1093 135.443 29.472C135.08 29.8347 134.899 30.464 134.899 31.36V36H133.075V27.184H134.899V28.464ZM143.04 36.144C142.208 36.144 141.456 35.9573 140.784 35.584C140.112 35.2 139.584 34.6667 139.2 33.984C138.816 33.2907 138.624 32.4907 138.624 31.584C138.624 30.688 138.821 29.8933 139.216 29.2C139.61 28.5067 140.149 27.9733 140.832 27.6C141.514 27.2267 142.277 27.04 143.12 27.04C143.962 27.04 144.725 27.2267 145.408 27.6C146.09 27.9733 146.629 28.5067 147.024 29.2C147.418 29.8933 147.616 30.688 147.616 31.584C147.616 32.48 147.413 33.2747 147.008 33.968C146.602 34.6613 146.048 35.2 145.344 35.584C144.65 35.9573 143.882 36.144 143.04 36.144ZM143.04 34.56C143.509 34.56 143.946 34.448 144.352 34.224C144.768 34 145.104 33.664 145.36 33.216C145.616 32.768 145.744 32.224 145.744 31.584C145.744 30.944 145.621 30.4053 145.376 29.968C145.13 29.52 144.805 29.184 144.4 28.96C143.994 28.736 143.557 28.624 143.088 28.624C142.618 28.624 142.181 28.736 141.776 28.96C141.381 29.184 141.066 29.52 140.832 29.968C140.597 30.4053 140.48 30.944 140.48 31.584C140.48 32.5333 140.72 33.2693 141.2 33.792C141.69 34.304 142.304 34.56 143.04 34.56ZM160.091 27.04C160.784 27.04 161.403 27.184 161.947 27.472C162.501 27.76 162.933 28.1867 163.243 28.752C163.563 29.3173 163.723 30 163.723 30.8V36H161.915V31.072C161.915 30.2827 161.717 29.68 161.323 29.264C160.928 28.8373 160.389 28.624 159.707 28.624C159.024 28.624 158.48 28.8373 158.075 29.264C157.68 29.68 157.483 30.2827 157.483 31.072V36H155.675V31.072C155.675 30.2827 155.477 29.68 155.083 29.264C154.688 28.8373 154.149 28.624 153.467 28.624C152.784 28.624 152.24 28.8373 151.835 29.264C151.44 29.68 151.243 30.2827 151.243 31.072V36H149.419V27.184H151.243V28.192C151.541 27.8293 151.92 27.5467 152.379 27.344C152.837 27.1413 153.328 27.04 153.851 27.04C154.555 27.04 155.184 27.1893 155.739 27.488C156.293 27.7867 156.72 28.2187 157.019 28.784C157.285 28.2507 157.701 27.8293 158.267 27.52C158.832 27.2 159.44 27.04 160.091 27.04ZM166.972 26.016C166.641 26.016 166.364 25.904 166.14 25.68C165.916 25.456 165.804 25.1787 165.804 24.848C165.804 24.5173 165.916 24.24 166.14 24.016C166.364 23.792 166.641 23.68 166.972 23.68C167.292 23.68 167.564 23.792 167.788 24.016C168.012 24.24 168.124 24.5173 168.124 24.848C168.124 25.1787 168.012 25.456 167.788 25.68C167.564 25.904 167.292 26.016 166.972 26.016ZM167.868 27.184V36H166.044V27.184H167.868ZM173.463 36.144C172.769 36.144 172.145 36.0213 171.591 35.776C171.047 35.52 170.615 35.1787 170.295 34.752C169.975 34.3147 169.804 33.8293 169.783 33.296H171.671C171.703 33.6693 171.879 33.984 172.199 34.24C172.529 34.4853 172.94 34.608 173.431 34.608C173.943 34.608 174.337 34.512 174.615 34.32C174.903 34.1173 175.047 33.8613 175.047 33.552C175.047 33.2213 174.887 32.976 174.567 32.816C174.257 32.656 173.761 32.48 173.079 32.288C172.417 32.1067 171.879 31.9307 171.463 31.76C171.047 31.5893 170.684 31.328 170.375 30.976C170.076 30.624 169.927 30.16 169.927 29.584C169.927 29.1147 170.065 28.688 170.343 28.304C170.62 27.9093 171.015 27.6 171.527 27.376C172.049 27.152 172.647 27.04 173.319 27.04C174.321 27.04 175.127 27.296 175.735 27.808C176.353 28.3093 176.684 28.9973 176.727 29.872H174.903C174.871 29.4773 174.711 29.1627 174.423 28.928C174.135 28.6933 173.745 28.576 173.255 28.576C172.775 28.576 172.407 28.6667 172.151 28.848C171.895 29.0293 171.767 29.2693 171.767 29.568C171.767 29.8027 171.852 30 172.023 30.16C172.193 30.32 172.401 30.448 172.647 30.544C172.892 30.6293 173.255 30.7413 173.735 30.88C174.375 31.0507 174.897 31.2267 175.303 31.408C175.719 31.5787 176.076 31.8347 176.375 32.176C176.673 32.5173 176.828 32.9707 176.839 33.536C176.839 34.0373 176.7 34.4853 176.423 34.88C176.145 35.2747 175.751 35.584 175.239 35.808C174.737 36.032 174.145 36.144 173.463 36.144ZM186.889 31.376C186.889 31.7067 186.868 32.0053 186.825 32.272H180.089C180.143 32.976 180.404 33.5413 180.873 33.968C181.343 34.3947 181.919 34.608 182.601 34.608C183.583 34.608 184.276 34.1973 184.681 33.376H186.649C186.383 34.1867 185.897 34.8533 185.193 35.376C184.5 35.888 183.636 36.144 182.601 36.144C181.759 36.144 181.001 35.9573 180.329 35.584C179.668 35.2 179.145 34.6667 178.761 33.984C178.388 33.2907 178.201 32.4907 178.201 31.584C178.201 30.6773 178.383 29.8827 178.745 29.2C179.119 28.5067 179.636 27.9733 180.297 27.6C180.969 27.2267 181.737 27.04 182.601 27.04C183.433 27.04 184.175 27.2213 184.825 27.584C185.476 27.9467 185.983 28.4587 186.345 29.12C186.708 29.7707 186.889 30.5227 186.889 31.376ZM184.985 30.8C184.975 30.128 184.735 29.5893 184.265 29.184C183.796 28.7787 183.215 28.576 182.521 28.576C181.892 28.576 181.353 28.7787 180.905 29.184C180.457 29.5787 180.191 30.1173 180.105 30.8H184.985ZM204.553 24.88V36H202.729V28.384L199.337 36H198.073L194.665 28.384V36H192.841V24.88H194.809L198.713 33.6L202.601 24.88H204.553ZM214.886 27.184L209.478 40.144H207.59L209.382 35.856L205.91 27.184H207.942L210.422 33.904L212.998 27.184H214.886ZM219.463 36.144C218.769 36.144 218.145 36.0213 217.591 35.776C217.047 35.52 216.615 35.1787 216.295 34.752C215.975 34.3147 215.804 33.8293 215.783 33.296H217.671C217.703 33.6693 217.879 33.984 218.199 34.24C218.529 34.4853 218.94 34.608 219.431 34.608C219.943 34.608 220.337 34.512 220.615 34.32C220.903 34.1173 221.047 33.8613 221.047 33.552C221.047 33.2213 220.887 32.976 220.567 32.816C220.257 32.656 219.761 32.48 219.079 32.288C218.417 32.1067 217.879 31.9307 217.463 31.76C217.047 31.5893 216.684 31.328 216.375 30.976C216.076 30.624 215.927 30.16 215.927 29.584C215.927 29.1147 216.065 28.688 216.343 28.304C216.62 27.9093 217.015 27.6 217.527 27.376C218.049 27.152 218.647 27.04 219.319 27.04C220.321 27.04 221.127 27.296 221.735 27.808C222.353 28.3093 222.684 28.9973 222.727 29.872H220.903C220.871 29.4773 220.711 29.1627 220.423 28.928C220.135 28.6933 219.745 28.576 219.255 28.576C218.775 28.576 218.407 28.6667 218.151 28.848C217.895 29.0293 217.767 29.2693 217.767 29.568C217.767 29.8027 217.852 30 218.023 30.16C218.193 30.32 218.401 30.448 218.647 30.544C218.892 30.6293 219.255 30.7413 219.735 30.88C220.375 31.0507 220.897 31.2267 221.303 31.408C221.719 31.5787 222.076 31.8347 222.375 32.176C222.673 32.5173 222.828 32.9707 222.839 33.536C222.839 34.0373 222.7 34.4853 222.423 34.88C222.145 35.2747 221.751 35.584 221.239 35.808C220.737 36.032 220.145 36.144 219.463 36.144ZM232.889 31.376C232.889 31.7067 232.868 32.0053 232.825 32.272H226.089C226.143 32.976 226.404 33.5413 226.873 33.968C227.343 34.3947 227.919 34.608 228.601 34.608C229.583 34.608 230.276 34.1973 230.681 33.376H232.649C232.383 34.1867 231.897 34.8533 231.193 35.376C230.5 35.888 229.636 36.144 228.601 36.144C227.759 36.144 227.001 35.9573 226.329 35.584C225.668 35.2 225.145 34.6667 224.761 33.984C224.388 33.2907 224.201 32.4907 224.201 31.584C224.201 30.6773 224.383 29.8827 224.745 29.2C225.119 28.5067 225.636 27.9733 226.297 27.6C226.969 27.2267 227.737 27.04 228.601 27.04C229.433 27.04 230.175 27.2213 230.825 27.584C231.476 27.9467 231.983 28.4587 232.345 29.12C232.708 29.7707 232.889 30.5227 232.889 31.376ZM230.985 30.8C230.975 30.128 230.735 29.5893 230.265 29.184C229.796 28.7787 229.215 28.576 228.521 28.576C227.892 28.576 227.353 28.7787 226.905 29.184C226.457 29.5787 226.191 30.1173 226.105 30.8H230.985ZM236.508 24.16V36H234.684V24.16H236.508ZM242.599 28.672H240.967V36H239.127V28.672H238.087V27.184H239.127V26.56C239.127 25.5467 239.394 24.8107 239.927 24.352C240.471 23.8827 241.319 23.648 242.471 23.648V25.168C241.916 25.168 241.527 25.2747 241.303 25.488C241.079 25.6907 240.967 26.048 240.967 26.56V27.184H242.599V28.672Z" fill="white"/>
</svg>
