<svg width="251" height="126" viewBox="0 0 251 126" fill="none" xmlns="http://www.w3.org/2000/svg">
<path d="M81.2794 35.224C79.722 35.224 78.314 34.9573 77.0554 34.424C75.818 33.8907 74.8367 33.1227 74.1114 32.12C73.386 31.1173 73.0127 29.9333 72.9914 28.568H77.7914C77.8554 29.4853 78.1754 30.2107 78.7514 30.744C79.3487 31.2773 80.1594 31.544 81.1834 31.544C82.2287 31.544 83.05 31.2987 83.6474 30.808C84.2447 30.296 84.5434 29.6347 84.5434 28.824C84.5434 28.1627 84.3407 27.6187 83.9354 27.192C83.53 26.7653 83.018 26.4347 82.3994 26.2C81.802 25.944 80.97 25.6667 79.9034 25.368C78.4527 24.9413 77.2687 24.5253 76.3514 24.12C75.4554 23.6933 74.6767 23.064 74.0154 22.232C73.3754 21.3787 73.0554 20.248 73.0554 18.84C73.0554 17.5173 73.386 16.3653 74.0474 15.384C74.7087 14.4027 75.6367 13.656 76.8314 13.144C78.026 12.6107 79.3914 12.344 80.9274 12.344C83.2314 12.344 85.098 12.9093 86.5274 14.04C87.978 15.1493 88.778 16.7067 88.9274 18.712H83.9994C83.9567 17.944 83.626 17.3147 83.0074 16.824C82.41 16.312 81.61 16.056 80.6074 16.056C79.7327 16.056 79.0287 16.28 78.4954 16.728C77.9834 17.176 77.7274 17.8267 77.7274 18.68C77.7274 19.2773 77.9194 19.7787 78.3034 20.184C78.7087 20.568 79.1994 20.888 79.7754 21.144C80.3727 21.3787 81.2047 21.656 82.2714 21.976C83.722 22.4027 84.906 22.8293 85.8234 23.256C86.7407 23.6827 87.53 24.3227 88.1914 25.176C88.8527 26.0293 89.1834 27.1493 89.1834 28.536C89.1834 29.7307 88.874 30.84 88.2554 31.864C87.6367 32.888 86.73 33.7093 85.5354 34.328C84.3407 34.9253 82.922 35.224 81.2794 35.224ZM97.5474 19.832C98.1234 19.0213 98.9127 18.3493 99.9154 17.816C100.939 17.2613 102.102 16.984 103.403 16.984C104.918 16.984 106.283 17.3573 107.499 18.104C108.737 18.8507 109.707 19.9173 110.411 21.304C111.137 22.6693 111.499 24.2587 111.499 26.072C111.499 27.8853 111.137 29.496 110.411 30.904C109.707 32.2907 108.737 33.368 107.499 34.136C106.283 34.904 104.918 35.288 103.403 35.288C102.102 35.288 100.95 35.0213 99.9474 34.488C98.966 33.9547 98.166 33.2827 97.5474 32.472V43.448H93.0674V17.272H97.5474V19.832ZM106.923 26.072C106.923 25.0053 106.699 24.088 106.251 23.32C105.825 22.5307 105.249 21.9333 104.523 21.528C103.819 21.1227 103.051 20.92 102.219 20.92C101.409 20.92 100.641 21.1333 99.9154 21.56C99.2114 21.9653 98.6354 22.5627 98.1874 23.352C97.7607 24.1413 97.5474 25.0693 97.5474 26.136C97.5474 27.2027 97.7607 28.1307 98.1874 28.92C98.6354 29.7093 99.2114 30.3173 99.9154 30.744C100.641 31.1493 101.409 31.352 102.219 31.352C103.051 31.352 103.819 31.1387 104.523 30.712C105.249 30.2853 105.825 29.6773 106.251 28.888C106.699 28.0987 106.923 27.16 106.923 26.072ZM131.235 25.752C131.235 26.392 131.192 26.968 131.107 27.48H118.147C118.254 28.76 118.702 29.7627 119.491 30.488C120.28 31.2133 121.251 31.576 122.403 31.576C124.067 31.576 125.251 30.8613 125.955 29.432H130.787C130.275 31.1387 129.294 32.5467 127.843 33.656C126.392 34.744 124.611 35.288 122.499 35.288C120.792 35.288 119.256 34.9147 117.891 34.168C116.547 33.4 115.491 32.3227 114.723 30.936C113.976 29.5493 113.603 27.9493 113.603 26.136C113.603 24.3013 113.976 22.6907 114.723 21.304C115.47 19.9173 116.515 18.8507 117.859 18.104C119.203 17.3573 120.75 16.984 122.499 16.984C124.184 16.984 125.688 17.3467 127.011 18.072C128.355 18.7973 129.39 19.832 130.115 21.176C130.862 22.4987 131.235 24.024 131.235 25.752ZM126.595 24.472C126.574 23.32 126.158 22.4027 125.347 21.72C124.536 21.016 123.544 20.664 122.371 20.664C121.262 20.664 120.323 21.0053 119.555 21.688C118.808 22.3493 118.35 23.2773 118.179 24.472H126.595ZM150.985 25.752C150.985 26.392 150.942 26.968 150.857 27.48H137.897C138.004 28.76 138.452 29.7627 139.241 30.488C140.03 31.2133 141.001 31.576 142.153 31.576C143.817 31.576 145.001 30.8613 145.705 29.432H150.537C150.025 31.1387 149.044 32.5467 147.593 33.656C146.142 34.744 144.361 35.288 142.249 35.288C140.542 35.288 139.006 34.9147 137.641 34.168C136.297 33.4 135.241 32.3227 134.473 30.936C133.726 29.5493 133.353 27.9493 133.353 26.136C133.353 24.3013 133.726 22.6907 134.473 21.304C135.22 19.9173 136.265 18.8507 137.609 18.104C138.953 17.3573 140.5 16.984 142.249 16.984C143.934 16.984 145.438 17.3467 146.761 18.072C148.105 18.7973 149.14 19.832 149.865 21.176C150.612 22.4987 150.985 24.024 150.985 25.752ZM146.345 24.472C146.324 23.32 145.908 22.4027 145.097 21.72C144.286 21.016 143.294 20.664 142.121 20.664C141.012 20.664 140.073 21.0053 139.305 21.688C138.558 22.3493 138.1 23.2773 137.929 24.472H146.345ZM164.751 35L158.735 27.448V35H154.255V11.32H158.735V24.792L164.687 17.272H170.511L162.703 26.168L170.575 35H164.751ZM175.214 15.16C174.425 15.16 173.764 14.9147 173.23 14.424C172.718 13.912 172.462 13.2827 172.462 12.536C172.462 11.7893 172.718 11.1707 173.23 10.68C173.764 10.168 174.425 9.912 175.214 9.912C176.004 9.912 176.654 10.168 177.166 10.68C177.7 11.1707 177.966 11.7893 177.966 12.536C177.966 13.2827 177.7 13.912 177.166 14.424C176.654 14.9147 176.004 15.16 175.214 15.16ZM177.422 17.272V35H172.942V17.272H177.422Z" fill="#6442EF"/>
<path d="M50.3941 58.7382H51.8789V66.8568C51.8789 67.6951 51.6814 68.4435 51.2862 69.1021C50.895 69.7567 50.3422 70.2736 49.6277 70.6527C48.9133 71.0279 48.0751 71.2155 47.1131 71.2155C46.1512 71.2155 45.313 71.0279 44.5985 70.6527C43.884 70.2736 43.3292 69.7567 42.934 69.1021C42.5429 68.4435 42.3473 67.6951 42.3473 66.8568V58.7382H43.8321V66.7371C43.8321 67.3358 43.9638 67.8687 44.2273 68.3357C44.4907 68.7987 44.8659 69.1639 45.3529 69.4313C45.8438 69.6948 46.4306 69.8265 47.1131 69.8265C47.7957 69.8265 48.3824 69.6948 48.8734 69.4313C49.3643 69.1639 49.7395 68.7987 49.999 68.3357C50.2624 67.8687 50.3941 67.3358 50.3941 66.7371V58.7382ZM56.0655 65.4678V71H54.6525V61.8036H56.0176V63.2406H56.1374C56.3529 62.7736 56.6802 62.3984 57.1193 62.115C57.5583 61.8276 58.1251 61.6839 58.8196 61.6839C59.4423 61.6839 59.9871 61.8116 60.4541 62.0671C60.9211 62.3185 61.2844 62.7017 61.5438 63.2166C61.8033 63.7275 61.933 64.3741 61.933 65.1565V71H60.52V65.2523C60.52 64.5298 60.3324 63.967 59.9572 63.5639C59.582 63.1567 59.0671 62.9532 58.4125 62.9532C57.9615 62.9532 57.5583 63.051 57.2031 63.2466C56.8518 63.4421 56.5744 63.7275 56.3709 64.1027C56.1673 64.4779 56.0655 64.933 56.0655 65.4678ZM65.9279 58.7382V71H64.515V58.7382H65.9279ZM68.5159 71V61.8036H69.9289V71H68.5159ZM69.2344 60.2709C68.959 60.2709 68.7215 60.1771 68.5219 59.9895C68.3263 59.8019 68.2285 59.5764 68.2285 59.313C68.2285 59.0495 68.3263 58.824 68.5219 58.6364C68.7215 58.4488 68.959 58.355 69.2344 58.355C69.5098 58.355 69.7453 58.4488 69.9409 58.6364C70.1404 58.824 70.2402 59.0495 70.2402 59.313C70.2402 59.5764 70.1404 59.8019 69.9409 59.9895C69.7453 60.1771 69.5098 60.2709 69.2344 60.2709ZM72.5169 71V61.8036H73.882V63.2406H74.0017C74.1933 62.7496 74.5026 62.3684 74.9297 62.097C75.3568 61.8216 75.8697 61.6839 76.4684 61.6839C77.0751 61.6839 77.5801 61.8216 77.9832 62.097C78.3903 62.3684 78.7077 62.7496 78.9352 63.2406H79.031C79.2665 62.7656 79.6197 62.3884 80.0907 62.109C80.5617 61.8256 81.1265 61.6839 81.7851 61.6839C82.6073 61.6839 83.2799 61.9413 83.8028 62.4562C84.3257 62.9672 84.5871 63.7635 84.5871 64.8451V71H83.1741V64.8451C83.1741 64.1666 82.9885 63.6816 82.6173 63.3902C82.2461 63.0989 81.809 62.9532 81.3061 62.9532C80.6595 62.9532 80.1586 63.1488 79.8033 63.5399C79.4481 63.9271 79.2705 64.4181 79.2705 65.0128V71H77.8335V64.7014C77.8335 64.1786 77.6639 63.7575 77.3246 63.4381C76.9853 63.1148 76.5483 62.9532 76.0134 62.9532C75.6462 62.9532 75.3029 63.051 74.9836 63.2466C74.6683 63.4421 74.4128 63.7136 74.2172 64.0608C74.0257 64.4041 73.9299 64.8012 73.9299 65.2523V71H72.5169ZM87.1706 71V61.8036H88.5836V71H87.1706ZM87.8891 60.2709C87.6136 60.2709 87.3761 60.1771 87.1766 59.9895C86.981 59.8019 86.8832 59.5764 86.8832 59.313C86.8832 59.0495 86.981 58.824 87.1766 58.6364C87.3761 58.4488 87.6136 58.355 87.8891 58.355C88.1645 58.355 88.4 58.4488 88.5955 58.6364C88.7951 58.824 88.8949 59.0495 88.8949 59.313C88.8949 59.5764 88.7951 59.8019 88.5955 59.9895C88.4 60.1771 88.1645 60.2709 87.8891 60.2709ZM95.171 61.8036V63.0011H90.4052V61.8036H95.171ZM91.7942 59.6003H93.2072V68.3656C93.2072 68.7648 93.2651 69.0641 93.3808 69.2637C93.5006 69.4593 93.6523 69.591 93.8359 69.6589C94.0235 69.7227 94.221 69.7547 94.4286 69.7547C94.5843 69.7547 94.712 69.7467 94.8118 69.7307C94.9116 69.7108 94.9914 69.6948 95.0513 69.6828L95.3387 70.9521C95.2429 70.988 95.1091 71.0239 94.9375 71.0599C94.7659 71.0998 94.5483 71.1197 94.2849 71.1197C93.8858 71.1197 93.4946 71.0339 93.1114 70.8623C92.7322 70.6907 92.4169 70.4292 92.1654 70.078C91.918 69.7267 91.7942 69.2837 91.7942 68.7488V59.6003ZM101.053 71.1916C100.167 71.1916 99.403 70.996 98.7603 70.6048C98.1217 70.2097 97.6288 69.6589 97.2815 68.9524C96.9382 68.2419 96.7666 67.4157 96.7666 66.4737C96.7666 65.5317 96.9382 64.7014 97.2815 63.983C97.6288 63.2605 98.1117 62.6977 98.7304 62.2946C99.3531 61.8875 100.08 61.6839 100.91 61.6839C101.389 61.6839 101.862 61.7637 102.329 61.9234C102.796 62.083 103.221 62.3425 103.604 62.7017C103.987 63.057 104.293 63.528 104.52 64.1147C104.748 64.7014 104.861 65.4239 104.861 66.2821V66.8808H97.7724V65.6594H103.424C103.424 65.1405 103.321 64.6775 103.113 64.2704C102.909 63.8632 102.618 63.5419 102.239 63.3064C101.864 63.0709 101.421 62.9532 100.91 62.9532C100.347 62.9532 99.86 63.0929 99.4489 63.3723C99.0417 63.6477 98.7284 64.0069 98.5089 64.45C98.2893 64.893 98.1796 65.368 98.1796 65.8749V66.6892C98.1796 67.3837 98.2993 67.9725 98.5388 68.4554C98.7823 68.9344 99.1196 69.2996 99.5506 69.5511C99.9817 69.7986 100.483 69.9223 101.053 69.9223C101.425 69.9223 101.76 69.8704 102.059 69.7666C102.363 69.6589 102.624 69.4992 102.844 69.2877C103.063 69.0721 103.233 68.8047 103.353 68.4854L104.718 68.8686C104.574 69.3316 104.332 69.7387 103.993 70.0899C103.654 70.4372 103.235 70.7086 102.736 70.9042C102.237 71.0958 101.676 71.1916 101.053 71.1916ZM110.483 71.1916C109.717 71.1916 109.04 70.998 108.454 70.6108C107.867 70.2197 107.408 69.6688 107.077 68.9584C106.745 68.2439 106.58 67.3997 106.58 66.4258C106.58 65.4598 106.745 64.6216 107.077 63.9111C107.408 63.2007 107.869 62.6518 108.46 62.2647C109.05 61.8775 109.733 61.6839 110.507 61.6839C111.106 61.6839 111.579 61.7837 111.926 61.9833C112.277 62.1788 112.545 62.4024 112.729 62.6538C112.916 62.9013 113.062 63.1049 113.166 63.2645H113.285V58.7382H114.698V71H113.333V69.587H113.166C113.062 69.7547 112.914 69.9662 112.723 70.2217C112.531 70.4731 112.258 70.6986 111.902 70.8982C111.547 71.0938 111.074 71.1916 110.483 71.1916ZM110.675 69.9223C111.242 69.9223 111.721 69.7746 112.112 69.4792C112.503 69.1799 112.8 68.7668 113.004 68.2399C113.207 67.709 113.309 67.0963 113.309 66.4018C113.309 65.7153 113.209 65.1146 113.01 64.5997C112.81 64.0808 112.515 63.6776 112.124 63.3902C111.733 63.0989 111.25 62.9532 110.675 62.9532C110.076 62.9532 109.577 63.1069 109.178 63.4142C108.783 63.7175 108.486 64.1307 108.286 64.6536C108.09 65.1724 107.993 65.7552 107.993 66.4018C107.993 67.0564 108.092 67.6512 108.292 68.186C108.496 68.7169 108.795 69.14 109.19 69.4553C109.589 69.7666 110.084 69.9223 110.675 69.9223ZM122.919 71H121.362L125.864 58.7382H127.397L131.9 71H130.343L126.679 60.678H126.583L122.919 71ZM123.494 66.2102H129.768V67.5274H123.494V66.2102ZM135.294 58.7382V71H133.81V58.7382H135.294ZM145.528 71.2155C144.945 71.2155 144.416 71.1058 143.941 70.8862C143.466 70.6627 143.089 70.3414 142.81 69.9223C142.53 69.4992 142.391 68.9883 142.391 68.3896C142.391 67.8627 142.494 67.4356 142.702 67.1083C142.91 66.777 143.187 66.5176 143.534 66.33C143.881 66.1424 144.265 66.0027 144.684 65.9109C145.107 65.8151 145.532 65.7392 145.959 65.6834C146.518 65.6115 146.971 65.5576 147.318 65.5217C147.669 65.4818 147.925 65.4159 148.085 65.3241C148.248 65.2323 148.33 65.0727 148.33 64.8451V64.7972C148.33 64.2065 148.168 63.7475 147.845 63.4202C147.526 63.0929 147.041 62.9292 146.39 62.9292C145.716 62.9292 145.187 63.0769 144.804 63.3723C144.42 63.6677 144.151 63.983 143.995 64.3183L142.654 63.8393C142.894 63.2805 143.213 62.8454 143.612 62.5341C144.015 62.2187 144.454 61.9992 144.929 61.8755C145.408 61.7478 145.879 61.6839 146.342 61.6839C146.638 61.6839 146.977 61.7198 147.36 61.7917C147.747 61.8595 148.12 62.0012 148.48 62.2168C148.843 62.4323 149.144 62.7576 149.384 63.1927C149.623 63.6277 149.743 64.2105 149.743 64.9409V71H148.33V69.7547H148.258C148.162 69.9542 148.003 70.1678 147.779 70.3953C147.556 70.6228 147.258 70.8164 146.887 70.9761C146.516 71.1357 146.063 71.2155 145.528 71.2155ZM145.744 69.9462C146.302 69.9462 146.773 69.8365 147.157 69.617C147.544 69.3974 147.835 69.114 148.031 68.7668C148.23 68.4195 148.33 68.0543 148.33 67.6711V66.3779C148.27 66.4497 148.138 66.5156 147.935 66.5754C147.735 66.6313 147.504 66.6812 147.24 66.7251C146.981 66.765 146.727 66.801 146.48 66.8329C146.236 66.8608 146.039 66.8848 145.887 66.9047C145.52 66.9526 145.177 67.0305 144.857 67.1382C144.542 67.242 144.287 67.3997 144.091 67.6112C143.899 67.8188 143.804 68.1022 143.804 68.4614C143.804 68.9524 143.985 69.3236 144.348 69.575C144.716 69.8225 145.181 69.9462 145.744 69.9462ZM153.735 65.4678V71H152.322V61.8036H153.687V63.2406H153.807C154.022 62.7736 154.35 62.3984 154.789 62.115C155.228 61.8276 155.795 61.6839 156.489 61.6839C157.112 61.6839 157.657 61.8116 158.124 62.0671C158.591 62.3185 158.954 62.7017 159.213 63.2166C159.473 63.7275 159.602 64.3741 159.602 65.1565V71H158.189V65.2523C158.189 64.5298 158.002 63.967 157.627 63.5639C157.251 63.1567 156.737 62.9532 156.082 62.9532C155.631 62.9532 155.228 63.051 154.873 63.2466C154.521 63.4421 154.244 63.7275 154.04 64.1027C153.837 64.4779 153.735 64.933 153.735 65.4678ZM164.891 71.2155C164.308 71.2155 163.779 71.1058 163.304 70.8862C162.829 70.6627 162.452 70.3414 162.172 69.9223C161.893 69.4992 161.753 68.9883 161.753 68.3896C161.753 67.8627 161.857 67.4356 162.065 67.1083C162.272 66.777 162.55 66.5176 162.897 66.33C163.244 66.1424 163.627 66.0027 164.046 65.9109C164.47 65.8151 164.895 65.7392 165.322 65.6834C165.881 65.6115 166.334 65.5576 166.681 65.5217C167.032 65.4818 167.288 65.4159 167.447 65.3241C167.611 65.2323 167.693 65.0727 167.693 64.8451V64.7972C167.693 64.2065 167.531 63.7475 167.208 63.4202C166.888 63.0929 166.403 62.9292 165.753 62.9292C165.078 62.9292 164.549 63.0769 164.166 63.3723C163.783 63.6677 163.514 63.983 163.358 64.3183L162.017 63.8393C162.256 63.2805 162.576 62.8454 162.975 62.5341C163.378 62.2187 163.817 61.9992 164.292 61.8755C164.771 61.7478 165.242 61.6839 165.705 61.6839C166 61.6839 166.34 61.7198 166.723 61.7917C167.11 61.8595 167.483 62.0012 167.842 62.2168C168.206 62.4323 168.507 62.7576 168.746 63.1927C168.986 63.6277 169.106 64.2105 169.106 64.9409V71H167.693V69.7547H167.621C167.525 69.9542 167.365 70.1678 167.142 70.3953C166.918 70.6228 166.621 70.8164 166.25 70.9761C165.879 71.1357 165.425 71.2155 164.891 71.2155ZM165.106 69.9462C165.665 69.9462 166.136 69.8365 166.519 69.617C166.906 69.3974 167.198 69.114 167.393 68.7668C167.593 68.4195 167.693 68.0543 167.693 67.6711V66.3779C167.633 66.4497 167.501 66.5156 167.297 66.5754C167.098 66.6313 166.866 66.6812 166.603 66.7251C166.344 66.765 166.09 66.801 165.843 66.8329C165.599 66.8608 165.402 66.8848 165.25 66.9047C164.883 66.9526 164.539 67.0305 164.22 67.1382C163.905 67.242 163.649 67.3997 163.454 67.6112C163.262 67.8188 163.166 68.1022 163.166 68.4614C163.166 68.9524 163.348 69.3236 163.711 69.575C164.078 69.8225 164.543 69.9462 165.106 69.9462ZM173.098 58.7382V71H171.685V58.7382H173.098ZM176.596 74.4486C176.356 74.4486 176.143 74.4287 175.955 74.3888C175.767 74.3528 175.638 74.3169 175.566 74.281L175.925 73.0357C176.268 73.1235 176.572 73.1554 176.835 73.1314C177.099 73.1075 177.332 72.9898 177.536 72.7782C177.743 72.5706 177.933 72.2334 178.104 71.7664L178.368 71.0479L174.967 61.8036H176.5L179.038 69.132H179.134L181.673 61.8036H183.206L179.302 72.3411C179.126 72.8161 178.909 73.2093 178.649 73.5206C178.39 73.8359 178.088 74.0694 177.745 74.2211C177.406 74.3728 177.023 74.4486 176.596 74.4486ZM191.585 63.8632L190.315 64.2225C190.236 64.0109 190.118 63.8054 189.962 63.6058C189.81 63.4022 189.603 63.2346 189.339 63.1029C189.076 62.9711 188.739 62.9053 188.328 62.9053C187.765 62.9053 187.296 63.035 186.921 63.2945C186.549 63.5499 186.364 63.8752 186.364 64.2704C186.364 64.6216 186.492 64.899 186.747 65.1026C187.002 65.3062 187.402 65.4758 187.944 65.6115L189.31 65.9468C190.132 66.1464 190.744 66.4517 191.148 66.8628C191.551 67.27 191.752 67.7948 191.752 68.4375C191.752 68.9643 191.601 69.4353 191.297 69.8505C190.998 70.2656 190.579 70.5929 190.04 70.8324C189.501 71.0718 188.874 71.1916 188.16 71.1916C187.222 71.1916 186.446 70.988 185.831 70.5809C185.216 70.1738 184.827 69.579 184.663 68.7967L186.005 68.4614C186.132 68.9564 186.374 69.3276 186.729 69.575C187.088 69.8225 187.557 69.9462 188.136 69.9462C188.795 69.9462 189.317 69.8065 189.705 69.5271C190.096 69.2437 190.291 68.9045 190.291 68.5093C190.291 68.19 190.18 67.9226 189.956 67.707C189.733 67.4875 189.389 67.3238 188.926 67.2161L187.394 66.8568C186.551 66.6573 185.933 66.3479 185.538 65.9288C185.146 65.5057 184.951 64.9769 184.951 64.3422C184.951 63.8233 185.096 63.3643 185.388 62.9652C185.683 62.566 186.084 62.2527 186.591 62.0252C187.102 61.7976 187.681 61.6839 188.328 61.6839C189.238 61.6839 189.952 61.8835 190.471 62.2826C190.994 62.6818 191.365 63.2086 191.585 63.8632ZM193.879 71V61.8036H195.292V71H193.879ZM194.598 60.2709C194.322 60.2709 194.085 60.1771 193.885 59.9895C193.69 59.8019 193.592 59.5764 193.592 59.313C193.592 59.0495 193.69 58.824 193.885 58.6364C194.085 58.4488 194.322 58.355 194.598 58.355C194.873 58.355 195.109 58.4488 195.304 58.6364C195.504 58.824 195.604 59.0495 195.604 59.313C195.604 59.5764 195.504 59.8019 195.304 59.9895C195.109 60.1771 194.873 60.2709 194.598 60.2709ZM204.394 63.8632L203.125 64.2225C203.045 64.0109 202.927 63.8054 202.772 63.6058C202.62 63.4022 202.413 63.2346 202.149 63.1029C201.886 62.9711 201.548 62.9053 201.137 62.9053C200.574 62.9053 200.105 63.035 199.73 63.2945C199.359 63.5499 199.173 63.8752 199.173 64.2704C199.173 64.6216 199.301 64.899 199.557 65.1026C199.812 65.3062 200.211 65.4758 200.754 65.6115L202.119 65.9468C202.941 66.1464 203.554 66.4517 203.957 66.8628C204.36 67.27 204.562 67.7948 204.562 68.4375C204.562 68.9643 204.41 69.4353 204.107 69.8505C203.808 70.2656 203.388 70.5929 202.85 70.8324C202.311 71.0718 201.684 71.1916 200.97 71.1916C200.032 71.1916 199.255 70.988 198.641 70.5809C198.026 70.1738 197.637 69.579 197.473 68.7967L198.814 68.4614C198.942 68.9564 199.183 69.3276 199.539 69.575C199.898 69.8225 200.367 69.9462 200.946 69.9462C201.604 69.9462 202.127 69.8065 202.514 69.5271C202.905 69.2437 203.101 68.9045 203.101 68.5093C203.101 68.19 202.989 67.9226 202.766 67.707C202.542 67.4875 202.199 67.3238 201.736 67.2161L200.203 66.8568C199.361 66.6573 198.742 66.3479 198.347 65.9288C197.956 65.5057 197.76 64.9769 197.76 64.3422C197.76 63.8233 197.906 63.3643 198.198 62.9652C198.493 62.566 198.894 62.2527 199.401 62.0252C199.912 61.7976 200.491 61.6839 201.137 61.6839C202.047 61.6839 202.762 61.8835 203.281 62.2826C203.804 62.6818 204.175 63.2086 204.394 63.8632ZM20.488 91V81.8036H21.901V91H20.488ZM21.2064 80.2709C20.931 80.2709 20.6935 80.1771 20.494 79.9895C20.2984 79.8019 20.2006 79.5764 20.2006 79.313C20.2006 79.0495 20.2984 78.824 20.494 78.6364C20.6935 78.4488 20.931 78.355 21.2064 78.355C21.4818 78.355 21.7173 78.4488 21.9129 78.6364C22.1125 78.824 22.2123 79.0495 22.2123 79.313C22.2123 79.5764 22.1125 79.8019 21.9129 79.9895C21.7173 80.1771 21.4818 80.2709 21.2064 80.2709ZM25.9019 85.4678V91H24.4889V81.8036H25.854V83.2406H25.9738C26.1893 82.7736 26.5166 82.3984 26.9557 82.115C27.3947 81.8276 27.9615 81.6839 28.656 81.6839C29.2787 81.6839 29.8235 81.8116 30.2905 82.0671C30.7575 82.3185 31.1208 82.7017 31.3802 83.2166C31.6397 83.7275 31.7694 84.3741 31.7694 85.1565V91H30.3564V85.2523C30.3564 84.5298 30.1688 83.967 29.7936 83.5639C29.4184 83.1567 28.9035 82.9532 28.2489 82.9532C27.7979 82.9532 27.3947 83.051 27.0395 83.2466C26.6882 83.4421 26.4108 83.7275 26.2073 84.1027C26.0037 84.4779 25.9019 84.933 25.9019 85.4678ZM38.3508 81.8036V83.0011H33.585V81.8036H38.3508ZM34.974 79.6003H36.387V88.3656C36.387 88.7648 36.4449 89.0641 36.5607 89.2637C36.6804 89.4593 36.8321 89.591 37.0157 89.6589C37.2033 89.7227 37.4009 89.7547 37.6084 89.7547C37.7641 89.7547 37.8918 89.7467 37.9916 89.7307C38.0914 89.7108 38.1712 89.6948 38.2311 89.6828L38.5185 90.9521C38.4227 90.988 38.289 91.0239 38.1173 91.0599C37.9457 91.0998 37.7282 91.1197 37.4647 91.1197C37.0656 91.1197 36.6744 91.0339 36.2912 90.8623C35.912 90.6907 35.5967 90.4292 35.3452 90.078C35.0978 89.7267 34.974 89.2837 34.974 88.7488V79.6003ZM44.1135 91.1916C43.2833 91.1916 42.5549 90.994 41.9282 90.5989C41.3055 90.2037 40.8186 89.6509 40.4673 88.9404C40.1201 88.2299 39.9464 87.3997 39.9464 86.4497C39.9464 85.4918 40.1201 84.6555 40.4673 83.9411C40.8186 83.2266 41.3055 82.6718 41.9282 82.2766C42.5549 81.8815 43.2833 81.6839 44.1135 81.6839C44.9438 81.6839 45.6702 81.8815 46.2929 82.2766C46.9195 82.6718 47.4065 83.2266 47.7538 83.9411C48.105 84.6555 48.2806 85.4918 48.2806 86.4497C48.2806 87.3997 48.105 88.2299 47.7538 88.9404C47.4065 89.6509 46.9195 90.2037 46.2929 90.5989C45.6702 90.994 44.9438 91.1916 44.1135 91.1916ZM44.1135 89.9223C44.7442 89.9223 45.2631 89.7606 45.6702 89.4373C46.0773 89.114 46.3787 88.6889 46.5743 88.1621C46.7699 87.6352 46.8676 87.0644 46.8676 86.4497C46.8676 85.835 46.7699 85.2623 46.5743 84.7314C46.3787 84.2005 46.0773 83.7714 45.6702 83.4441C45.2631 83.1168 44.7442 82.9532 44.1135 82.9532C43.4829 82.9532 42.964 83.1168 42.5569 83.4441C42.1497 83.7714 41.8484 84.2005 41.6528 84.7314C41.4572 85.2623 41.3594 85.835 41.3594 86.4497C41.3594 87.0644 41.4572 87.6352 41.6528 88.1621C41.8484 88.6889 42.1497 89.114 42.5569 89.4373C42.964 89.7606 43.4829 89.9223 44.1135 89.9223ZM56.0895 94.4486C55.85 94.4486 55.6364 94.4287 55.4488 94.3888C55.2612 94.3528 55.1315 94.3169 55.0597 94.281L55.4189 93.0357C55.7622 93.1235 56.0655 93.1554 56.3289 93.1314C56.5924 93.1075 56.8259 92.9898 57.0294 92.7782C57.237 92.5706 57.4266 92.2334 57.5982 91.7664L57.8617 91.0479L54.4609 81.8036H55.9937L58.5322 89.132H58.628L61.1666 81.8036H62.6993L58.7957 92.3411C58.6201 92.8161 58.4025 93.2093 58.1431 93.5206C57.8836 93.8359 57.5823 94.0694 57.239 94.2211C56.8997 94.3728 56.5165 94.4486 56.0895 94.4486ZM67.9711 91.1916C67.1409 91.1916 66.4124 90.994 65.7857 90.5989C65.1631 90.2037 64.6761 89.6509 64.3249 88.9404C63.9776 88.2299 63.804 87.3997 63.804 86.4497C63.804 85.4918 63.9776 84.6555 64.3249 83.9411C64.6761 83.2266 65.1631 82.6718 65.7857 82.2766C66.4124 81.8815 67.1409 81.6839 67.9711 81.6839C68.8013 81.6839 69.5278 81.8815 70.1504 82.2766C70.7771 82.6718 71.2641 83.2266 71.6113 83.9411C71.9626 84.6555 72.1382 85.4918 72.1382 86.4497C72.1382 87.3997 71.9626 88.2299 71.6113 88.9404C71.2641 89.6509 70.7771 90.2037 70.1504 90.5989C69.5278 90.994 68.8013 91.1916 67.9711 91.1916ZM67.9711 89.9223C68.6017 89.9223 69.1206 89.7606 69.5278 89.4373C69.9349 89.114 70.2362 88.6889 70.4318 88.1621C70.6274 87.6352 70.7252 87.0644 70.7252 86.4497C70.7252 85.835 70.6274 85.2623 70.4318 84.7314C70.2362 84.2005 69.9349 83.7714 69.5278 83.4441C69.1206 83.1168 68.6017 82.9532 67.9711 82.9532C67.3404 82.9532 66.8215 83.1168 66.4144 83.4441C66.0073 83.7714 65.7059 84.2005 65.5103 84.7314C65.3148 85.2623 65.217 85.835 65.217 86.4497C65.217 87.0644 65.3148 87.6352 65.5103 88.1621C65.7059 88.6889 66.0073 89.114 66.4144 89.4373C66.8215 89.7606 67.3404 89.9223 67.9711 89.9223ZM80.0907 87.24V81.8036H81.5037V91H80.0907V89.4433H79.9949C79.7794 89.9103 79.4441 90.3075 78.9891 90.6348C78.534 90.9581 77.9593 91.1197 77.2647 91.1197C76.69 91.1197 76.1791 90.994 75.732 90.7425C75.285 90.4871 74.9337 90.1039 74.6783 89.593C74.4228 89.0781 74.2951 88.4295 74.2951 87.6472V81.8036H75.7081V87.5514C75.7081 88.2219 75.8957 88.7568 76.2709 89.1559C76.6501 89.5551 77.133 89.7547 77.7198 89.7547C78.071 89.7547 78.4283 89.6649 78.7915 89.4852C79.1587 89.3056 79.466 89.0302 79.7135 88.659C79.965 88.2878 80.0907 87.8148 80.0907 87.24ZM84.0917 91V81.8036H85.4567V83.1927H85.5525C85.7202 82.7376 86.0235 82.3684 86.4626 82.085C86.9017 81.8016 87.3966 81.6599 87.9474 81.6599C88.0512 81.6599 88.1809 81.6619 88.3366 81.6659C88.4923 81.6699 88.61 81.6759 88.6898 81.6839V83.1208C88.6419 83.1088 88.5322 83.0909 88.3605 83.0669C88.1929 83.039 88.0153 83.025 87.8277 83.025C87.3806 83.025 86.9815 83.1188 86.6302 83.3064C86.283 83.49 86.0076 83.7455 85.804 84.0728C85.6044 84.3961 85.5046 84.7653 85.5046 85.1804V91H84.0917ZM99.2019 81.8036V83.0011H94.2445V81.8036H99.2019ZM95.7293 91V80.5343C95.7293 80.0075 95.8531 79.5684 96.1005 79.2172C96.348 78.8659 96.6693 78.6025 97.0645 78.4268C97.4596 78.2512 97.8767 78.1634 98.3158 78.1634C98.6631 78.1634 98.9464 78.1913 99.166 78.2472C99.3855 78.3031 99.5492 78.355 99.6569 78.4029L99.2498 79.6243C99.178 79.6003 99.0782 79.5704 98.9504 79.5345C98.8267 79.4986 98.6631 79.4806 98.4595 79.4806C97.9925 79.4806 97.6552 79.5983 97.4476 79.8338C97.2441 80.0693 97.1423 80.4146 97.1423 80.8696V91H95.7293ZM103.625 91.2155C103.042 91.2155 102.513 91.1058 102.038 90.8862C101.563 90.6627 101.186 90.3414 100.907 89.9223C100.627 89.4992 100.488 88.9883 100.488 88.3896C100.488 87.8627 100.591 87.4356 100.799 87.1083C101.007 86.777 101.284 86.5176 101.631 86.33C101.978 86.1424 102.362 86.0027 102.781 85.9109C103.204 85.8151 103.629 85.7392 104.056 85.6834C104.615 85.6115 105.068 85.5576 105.415 85.5217C105.766 85.4818 106.022 85.4159 106.181 85.3241C106.345 85.2323 106.427 85.0727 106.427 84.8451V84.7972C106.427 84.2065 106.265 83.7475 105.942 83.4202C105.623 83.0929 105.138 82.9292 104.487 82.9292C103.813 82.9292 103.284 83.0769 102.901 83.3723C102.517 83.6677 102.248 83.983 102.092 84.3183L100.751 83.8393C100.991 83.2805 101.31 82.8454 101.709 82.5341C102.112 82.2187 102.551 81.9992 103.026 81.8755C103.505 81.7478 103.976 81.6839 104.439 81.6839C104.735 81.6839 105.074 81.7198 105.457 81.7917C105.844 81.8595 106.217 82.0012 106.577 82.2168C106.94 82.4323 107.241 82.7576 107.481 83.1927C107.72 83.6277 107.84 84.2105 107.84 84.9409V91H106.427V89.7547H106.355C106.259 89.9542 106.1 90.1678 105.876 90.3953C105.653 90.6228 105.355 90.8164 104.984 90.9761C104.613 91.1357 104.16 91.2155 103.625 91.2155ZM103.84 89.9462C104.399 89.9462 104.87 89.8365 105.253 89.617C105.641 89.3974 105.932 89.114 106.128 88.7668C106.327 88.4195 106.427 88.0543 106.427 87.6711V86.3779C106.367 86.4497 106.235 86.5156 106.032 86.5754C105.832 86.6313 105.601 86.6812 105.337 86.7251C105.078 86.765 104.824 86.801 104.577 86.8329C104.333 86.8608 104.136 86.8848 103.984 86.9047C103.617 86.9526 103.274 87.0305 102.954 87.1382C102.639 87.242 102.384 87.3997 102.188 87.6112C101.996 87.8188 101.901 88.1022 101.901 88.4614C101.901 88.9524 102.082 89.3236 102.445 89.575C102.813 89.8225 103.278 89.9462 103.84 89.9462ZM114.155 91.1916C113.293 91.1916 112.55 90.988 111.928 90.5809C111.305 90.1738 110.826 89.613 110.491 88.8985C110.156 88.184 109.988 87.3678 109.988 86.4497C109.988 85.5157 110.16 84.6915 110.503 83.977C110.85 83.2585 111.333 82.6977 111.952 82.2946C112.574 81.8875 113.301 81.6839 114.131 81.6839C114.778 81.6839 115.36 81.8036 115.879 82.0431C116.398 82.2826 116.823 82.6179 117.155 83.049C117.486 83.4801 117.691 83.983 117.771 84.5578H116.358C116.25 84.1387 116.011 83.7674 115.64 83.4441C115.273 83.1168 114.778 82.9532 114.155 82.9532C113.604 82.9532 113.121 83.0969 112.706 83.3843C112.295 83.6677 111.974 84.0688 111.742 84.5877C111.515 85.1026 111.401 85.7073 111.401 86.4018C111.401 87.1123 111.513 87.731 111.736 88.2579C111.964 88.7847 112.283 89.1939 112.694 89.4852C113.109 89.7766 113.596 89.9223 114.155 89.9223C114.522 89.9223 114.855 89.8584 115.155 89.7307C115.454 89.603 115.708 89.4194 115.915 89.1799C116.123 88.9404 116.27 88.653 116.358 88.3177H117.771C117.691 88.8606 117.494 89.3495 117.179 89.7846C116.867 90.2157 116.454 90.5589 115.939 90.8144C115.428 91.0659 114.834 91.1916 114.155 91.1916ZM119.837 91V81.8036H121.25V91H119.837ZM120.555 80.2709C120.28 80.2709 120.042 80.1771 119.843 79.9895C119.647 79.8019 119.549 79.5764 119.549 79.313C119.549 79.0495 119.647 78.824 119.843 78.6364C120.042 78.4488 120.28 78.355 120.555 78.355C120.831 78.355 121.066 78.4488 121.262 78.6364C121.461 78.824 121.561 79.0495 121.561 79.313C121.561 79.5764 121.461 79.8019 121.262 79.9895C121.066 80.1771 120.831 80.2709 120.555 80.2709ZM126.544 91.2155C125.961 91.2155 125.432 91.1058 124.957 90.8862C124.482 90.6627 124.105 90.3414 123.826 89.9223C123.546 89.4992 123.407 88.9883 123.407 88.3896C123.407 87.8627 123.51 87.4356 123.718 87.1083C123.926 86.777 124.203 86.5176 124.55 86.33C124.898 86.1424 125.281 86.0027 125.7 85.9109C126.123 85.8151 126.548 85.7392 126.975 85.6834C127.534 85.6115 127.987 85.5576 128.334 85.5217C128.685 85.4818 128.941 85.4159 129.101 85.3241C129.264 85.2323 129.346 85.0727 129.346 84.8451V84.7972C129.346 84.2065 129.184 83.7475 128.861 83.4202C128.542 83.0929 128.057 82.9292 127.406 82.9292C126.732 82.9292 126.203 83.0769 125.82 83.3723C125.436 83.6677 125.167 83.983 125.011 84.3183L123.67 83.8393C123.91 83.2805 124.229 82.8454 124.628 82.5341C125.031 82.2187 125.47 81.9992 125.945 81.8755C126.424 81.7478 126.895 81.6839 127.358 81.6839C127.654 81.6839 127.993 81.7198 128.376 81.7917C128.763 81.8595 129.136 82.0012 129.496 82.2168C129.859 82.4323 130.16 82.7576 130.4 83.1927C130.639 83.6277 130.759 84.2105 130.759 84.9409V91H129.346V89.7547H129.274C129.178 89.9542 129.019 90.1678 128.795 90.3953C128.572 90.6228 128.274 90.8164 127.903 90.9761C127.532 91.1357 127.079 91.2155 126.544 91.2155ZM126.76 89.9462C127.318 89.9462 127.789 89.8365 128.173 89.617C128.56 89.3974 128.851 89.114 129.047 88.7668C129.246 88.4195 129.346 88.0543 129.346 87.6711V86.3779C129.286 86.4497 129.154 86.5156 128.951 86.5754C128.751 86.6313 128.52 86.6812 128.256 86.7251C127.997 86.765 127.743 86.801 127.496 86.8329C127.253 86.8608 127.055 86.8848 126.903 86.9047C126.536 86.9526 126.193 87.0305 125.873 87.1382C125.558 87.242 125.303 87.3997 125.107 87.6112C124.915 87.8188 124.82 88.1022 124.82 88.4614C124.82 88.9524 125.001 89.3236 125.365 89.575C125.732 89.8225 126.197 89.9462 126.76 89.9462ZM134.751 78.7382V91H133.338V78.7382H134.751ZM145.937 91.1916C145.05 91.1916 144.286 90.996 143.643 90.6048C143.005 90.2097 142.512 89.6589 142.165 88.9524C141.821 88.2419 141.65 87.4157 141.65 86.4737C141.65 85.5317 141.821 84.7014 142.165 83.983C142.512 83.2605 142.995 82.6977 143.614 82.2946C144.236 81.8875 144.963 81.6839 145.793 81.6839C146.272 81.6839 146.745 81.7637 147.212 81.9234C147.679 82.083 148.104 82.3425 148.487 82.7017C148.87 83.057 149.176 83.528 149.403 84.1147C149.631 84.7014 149.744 85.4239 149.744 86.2821V86.8808H142.656V85.6594H148.308C148.308 85.1405 148.204 84.6775 147.996 84.2704C147.793 83.8632 147.501 83.5419 147.122 83.3064C146.747 83.0709 146.304 82.9532 145.793 82.9532C145.23 82.9532 144.743 83.0929 144.332 83.3723C143.925 83.6477 143.612 84.0069 143.392 84.45C143.173 84.893 143.063 85.368 143.063 85.8749V86.6892C143.063 87.3837 143.182 87.9725 143.422 88.4554C143.665 88.9344 144.003 89.2996 144.434 89.5511C144.865 89.7986 145.366 89.9223 145.937 89.9223C146.308 89.9223 146.643 89.8704 146.942 89.7666C147.246 89.6589 147.507 89.4992 147.727 89.2877C147.946 89.0721 148.116 88.8047 148.236 88.4854L149.601 88.8686C149.457 89.3316 149.216 89.7387 148.876 90.0899C148.537 90.4372 148.118 90.7086 147.619 90.9042C147.12 91.0958 146.559 91.1916 145.937 91.1916ZM152.701 81.8036L154.904 85.5636L157.107 81.8036H158.736L155.766 86.4018L158.736 91H157.107L154.904 87.4316L152.701 91H151.072L153.994 86.4018L151.072 81.8036H152.701ZM160.752 94.4486V81.8036H162.117V83.2645H162.285C162.388 83.1049 162.532 82.9013 162.716 82.6538C162.903 82.4024 163.171 82.1788 163.518 81.9833C163.869 81.7837 164.344 81.6839 164.943 81.6839C165.717 81.6839 166.4 81.8775 166.991 82.2647C167.581 82.6518 168.042 83.2007 168.374 83.9111C168.705 84.6216 168.871 85.4598 168.871 86.4258C168.871 87.3997 168.705 88.2439 168.374 88.9584C168.042 89.6688 167.583 90.2197 166.997 90.6108C166.41 90.998 165.733 91.1916 164.967 91.1916C164.376 91.1916 163.903 91.0938 163.548 90.8982C163.193 90.6986 162.919 90.4731 162.728 90.2217C162.536 89.9662 162.388 89.7547 162.285 89.587H162.165V94.4486H160.752ZM162.141 86.4018C162.141 87.0963 162.243 87.709 162.446 88.2399C162.65 88.7668 162.947 89.1799 163.338 89.4792C163.73 89.7746 164.209 89.9223 164.775 89.9223C165.366 89.9223 165.859 89.7666 166.254 89.4553C166.653 89.14 166.953 88.7169 167.152 88.186C167.356 87.6512 167.458 87.0564 167.458 86.4018C167.458 85.7552 167.358 85.1724 167.158 84.6536C166.963 84.1307 166.665 83.7175 166.266 83.4142C165.871 83.1069 165.374 82.9532 164.775 82.9532C164.201 82.9532 163.718 83.0989 163.326 83.3902C162.935 83.6776 162.64 84.0808 162.44 84.5997C162.241 85.1146 162.141 85.7153 162.141 86.4018ZM171.026 91V81.8036H172.391V83.1927H172.487C172.655 82.7376 172.958 82.3684 173.397 82.085C173.836 81.8016 174.331 81.6599 174.882 81.6599C174.986 81.6599 175.115 81.6619 175.271 81.6659C175.427 81.6699 175.544 81.6759 175.624 81.6839V83.1208C175.576 83.1088 175.467 83.0909 175.295 83.0669C175.127 83.039 174.95 83.025 174.762 83.025C174.315 83.025 173.916 83.1188 173.565 83.3064C173.217 83.49 172.942 83.7455 172.738 84.0728C172.539 84.3961 172.439 84.7653 172.439 85.1804V91H171.026ZM180.875 91.1916C179.989 91.1916 179.225 90.996 178.582 90.6048C177.943 90.2097 177.45 89.6589 177.103 88.9524C176.76 88.2419 176.588 87.4157 176.588 86.4737C176.588 85.5317 176.76 84.7014 177.103 83.983C177.45 83.2605 177.933 82.6977 178.552 82.2946C179.175 81.8875 179.901 81.6839 180.731 81.6839C181.21 81.6839 181.683 81.7637 182.15 81.9234C182.617 82.083 183.042 82.3425 183.426 82.7017C183.809 83.057 184.114 83.528 184.342 84.1147C184.569 84.7014 184.683 85.4239 184.683 86.2821V86.8808H177.594V85.6594H183.246C183.246 85.1405 183.142 84.6775 182.935 84.2704C182.731 83.8632 182.44 83.5419 182.06 83.3064C181.685 83.0709 181.242 82.9532 180.731 82.9532C180.169 82.9532 179.682 83.0929 179.27 83.3723C178.863 83.6477 178.55 84.0069 178.33 84.45C178.111 84.893 178.001 85.368 178.001 85.8749V86.6892C178.001 87.3837 178.121 87.9725 178.36 88.4554C178.604 88.9344 178.941 89.2996 179.372 89.5511C179.803 89.7986 180.304 89.9223 180.875 89.9223C181.246 89.9223 181.582 89.8704 181.881 89.7666C182.184 89.6589 182.446 89.4992 182.665 89.2877C182.885 89.0721 183.054 88.8047 183.174 88.4854L184.539 88.8686C184.396 89.3316 184.154 89.7387 183.815 90.0899C183.475 90.4372 183.056 90.7086 182.557 90.9042C182.058 91.0958 181.498 91.1916 180.875 91.1916ZM193.346 83.8632L192.077 84.2225C191.997 84.0109 191.88 83.8054 191.724 83.6058C191.572 83.4022 191.365 83.2346 191.101 83.1029C190.838 82.9711 190.5 82.9053 190.089 82.9053C189.527 82.9053 189.058 83.035 188.682 83.2945C188.311 83.5499 188.126 83.8752 188.126 84.2704C188.126 84.6216 188.253 84.899 188.509 85.1026C188.764 85.3062 189.163 85.4758 189.706 85.6115L191.071 85.9468C191.893 86.1464 192.506 86.4517 192.909 86.8628C193.312 87.27 193.514 87.7948 193.514 88.4375C193.514 88.9643 193.362 89.4353 193.059 89.8505C192.76 90.2656 192.341 90.5929 191.802 90.8324C191.263 91.0718 190.636 91.1916 189.922 91.1916C188.984 91.1916 188.207 90.988 187.593 90.5809C186.978 90.1738 186.589 89.579 186.425 88.7967L187.766 88.4614C187.894 88.9564 188.136 89.3276 188.491 89.575C188.85 89.8225 189.319 89.9462 189.898 89.9462C190.556 89.9462 191.079 89.8065 191.466 89.5271C191.858 89.2437 192.053 88.9045 192.053 88.5093C192.053 88.19 191.941 87.9226 191.718 87.707C191.494 87.4875 191.151 87.3238 190.688 87.2161L189.155 86.8568C188.313 86.6573 187.694 86.3479 187.299 85.9288C186.908 85.5057 186.713 84.9769 186.713 84.3422C186.713 83.8233 186.858 83.3643 187.15 82.9652C187.445 82.566 187.846 82.2527 188.353 82.0252C188.864 81.7976 189.443 81.6839 190.089 81.6839C190.999 81.6839 191.714 81.8835 192.233 82.2826C192.756 82.6818 193.127 83.2086 193.346 83.8632ZM202.155 83.8632L200.886 84.2225C200.806 84.0109 200.688 83.8054 200.533 83.6058C200.381 83.4022 200.173 83.2346 199.91 83.1029C199.646 82.9711 199.309 82.9053 198.898 82.9053C198.335 82.9053 197.866 83.035 197.491 83.2945C197.12 83.5499 196.934 83.8752 196.934 84.2704C196.934 84.6216 197.062 84.899 197.317 85.1026C197.573 85.3062 197.972 85.4758 198.515 85.6115L199.88 85.9468C200.702 86.1464 201.315 86.4517 201.718 86.8628C202.121 87.27 202.323 87.7948 202.323 88.4375C202.323 88.9643 202.171 89.4353 201.868 89.8505C201.568 90.2656 201.149 90.5929 200.61 90.8324C200.072 91.0718 199.445 91.1916 198.73 91.1916C197.792 91.1916 197.016 90.988 196.401 90.5809C195.787 90.1738 195.398 89.579 195.234 88.7967L196.575 88.4614C196.703 88.9564 196.944 89.3276 197.299 89.575C197.659 89.8225 198.128 89.9462 198.706 89.9462C199.365 89.9462 199.888 89.8065 200.275 89.5271C200.666 89.2437 200.862 88.9045 200.862 88.5093C200.862 88.19 200.75 87.9226 200.527 87.707C200.303 87.4875 199.96 87.3238 199.497 87.2161L197.964 86.8568C197.122 86.6573 196.503 86.3479 196.108 85.9288C195.717 85.5057 195.521 84.9769 195.521 84.3422C195.521 83.8233 195.667 83.3643 195.958 82.9652C196.254 82.566 196.655 82.2527 197.162 82.0252C197.673 81.7976 198.251 81.6839 198.898 81.6839C199.808 81.6839 200.523 81.8835 201.041 82.2826C201.564 82.6818 201.936 83.2086 202.155 83.8632ZM204.45 91V81.8036H205.863V91H204.45ZM205.168 80.2709C204.893 80.2709 204.655 80.1771 204.456 79.9895C204.26 79.8019 204.162 79.5764 204.162 79.313C204.162 79.0495 204.26 78.824 204.456 78.6364C204.655 78.4488 204.893 78.355 205.168 78.355C205.444 78.355 205.679 78.4488 205.875 78.6364C206.074 78.824 206.174 79.0495 206.174 79.313C206.174 79.5764 206.074 79.8019 205.875 79.9895C205.679 80.1771 205.444 80.2709 205.168 80.2709ZM212.187 91.1916C211.356 91.1916 210.628 90.994 210.001 90.5989C209.379 90.2037 208.892 89.6509 208.54 88.9404C208.193 88.2299 208.02 87.3997 208.02 86.4497C208.02 85.4918 208.193 84.6555 208.54 83.9411C208.892 83.2266 209.379 82.6718 210.001 82.2766C210.628 81.8815 211.356 81.6839 212.187 81.6839C213.017 81.6839 213.743 81.8815 214.366 82.2766C214.993 82.6718 215.48 83.2266 215.827 83.9411C216.178 84.6555 216.354 85.4918 216.354 86.4497C216.354 87.3997 216.178 88.2299 215.827 88.9404C215.48 89.6509 214.993 90.2037 214.366 90.5989C213.743 90.994 213.017 91.1916 212.187 91.1916ZM212.187 89.9223C212.817 89.9223 213.336 89.7606 213.743 89.4373C214.15 89.114 214.452 88.6889 214.647 88.1621C214.843 87.6352 214.941 87.0644 214.941 86.4497C214.941 85.835 214.843 85.2623 214.647 84.7314C214.452 84.2005 214.15 83.7714 213.743 83.4441C213.336 83.1168 212.817 82.9532 212.187 82.9532C211.556 82.9532 211.037 83.1168 210.63 83.4441C210.223 83.7714 209.921 84.2005 209.726 84.7314C209.53 85.2623 209.433 85.835 209.433 86.4497C209.433 87.0644 209.53 87.6352 209.726 88.1621C209.921 88.6889 210.223 89.114 210.63 89.4373C211.037 89.7606 211.556 89.9223 212.187 89.9223ZM219.924 85.4678V91H218.511V81.8036H219.876V83.2406H219.995C220.211 82.7736 220.538 82.3984 220.977 82.115C221.416 81.8276 221.983 81.6839 222.678 81.6839C223.3 81.6839 223.845 81.8116 224.312 82.0671C224.779 82.3185 225.142 82.7017 225.402 83.2166C225.661 83.7275 225.791 84.3741 225.791 85.1565V91H224.378V85.2523C224.378 84.5298 224.191 83.967 223.815 83.5639C223.44 83.1567 222.925 82.9532 222.271 82.9532C221.82 82.9532 221.416 83.051 221.061 83.2466C220.71 83.4421 220.433 83.7275 220.229 84.1027C220.025 84.4779 219.924 84.933 219.924 85.4678ZM230.481 89.3236L230.385 89.9702C230.317 90.4252 230.213 90.9122 230.073 91.4311C229.938 91.95 229.796 92.4389 229.648 92.8979C229.501 93.357 229.379 93.7222 229.283 93.9936H228.205C228.257 93.7382 228.325 93.4009 228.409 92.9818C228.493 92.5627 228.577 92.0937 228.66 91.5748C228.748 91.0599 228.82 90.533 228.876 89.9941L228.948 89.3236H230.481ZM60.3471 111.216C59.7644 111.216 59.2355 111.106 58.7605 110.886C58.2855 110.663 57.9083 110.341 57.6289 109.922C57.3495 109.499 57.2098 108.988 57.2098 108.39C57.2098 107.863 57.3136 107.436 57.5212 107.108C57.7287 106.777 58.0061 106.518 58.3534 106.33C58.7006 106.142 59.0838 106.003 59.5029 105.911C59.926 105.815 60.3511 105.739 60.7782 105.683C61.337 105.612 61.79 105.558 62.1373 105.522C62.4885 105.482 62.744 105.416 62.9037 105.324C63.0673 105.232 63.1491 105.073 63.1491 104.845V104.797C63.1491 104.207 62.9875 103.747 62.6642 103.42C62.3449 103.093 61.8599 102.929 61.2093 102.929C60.5347 102.929 60.0058 103.077 59.6227 103.372C59.2395 103.668 58.9701 103.983 58.8144 104.318L57.4733 103.839C57.7127 103.28 58.0321 102.845 58.4312 102.534C58.8343 102.219 59.2734 101.999 59.7484 101.875C60.2274 101.748 60.6984 101.684 61.1614 101.684C61.4567 101.684 61.796 101.72 62.1792 101.792C62.5664 101.86 62.9396 102.001 63.2988 102.217C63.662 102.432 63.9634 102.758 64.2029 103.193C64.4424 103.628 64.5621 104.21 64.5621 104.941V111H63.1491V109.755H63.0773C62.9815 109.954 62.8218 110.168 62.5983 110.395C62.3748 110.623 62.0774 110.816 61.7062 110.976C61.335 111.136 60.882 111.216 60.3471 111.216ZM60.5627 109.946C61.1215 109.946 61.5925 109.836 61.9756 109.617C62.3628 109.397 62.6542 109.114 62.8498 108.767C63.0493 108.42 63.1491 108.054 63.1491 107.671V106.378C63.0893 106.45 62.9575 106.516 62.754 106.575C62.5544 106.631 62.3229 106.681 62.0595 106.725C61.8 106.765 61.5466 106.801 61.2991 106.833C61.0556 106.861 60.858 106.885 60.7063 106.905C60.3391 106.953 59.9959 107.03 59.6765 107.138C59.3612 107.242 59.1058 107.4 58.9102 107.611C58.7186 107.819 58.6228 108.102 58.6228 108.461C58.6228 108.952 58.8044 109.324 59.1676 109.575C59.5349 109.823 59.9999 109.946 60.5627 109.946ZM68.5541 105.468V111H67.1411V101.804H68.5062V103.241H68.6259C68.8415 102.774 69.1688 102.398 69.6078 102.115C70.0469 101.828 70.6137 101.684 71.3082 101.684C71.9309 101.684 72.4757 101.812 72.9427 102.067C73.4097 102.319 73.7729 102.702 74.0324 103.217C74.2918 103.728 74.4216 104.374 74.4216 105.156V111H73.0086V105.252C73.0086 104.53 72.821 103.967 72.4458 103.564C72.0706 103.157 71.5557 102.953 70.9011 102.953C70.45 102.953 70.0469 103.051 69.6917 103.247C69.3404 103.442 69.063 103.728 68.8594 104.103C68.6559 104.478 68.5541 104.933 68.5541 105.468ZM80.4761 111.192C79.7098 111.192 79.0332 110.998 78.4465 110.611C77.8597 110.22 77.4007 109.669 77.0694 108.958C76.7381 108.244 76.5725 107.4 76.5725 106.426C76.5725 105.46 76.7381 104.622 77.0694 103.911C77.4007 103.201 77.8617 102.652 78.4525 102.265C79.0432 101.877 79.7257 101.684 80.5001 101.684C81.0988 101.684 81.5718 101.784 81.9191 101.983C82.2703 102.179 82.5377 102.402 82.7213 102.654C82.9089 102.901 83.0546 103.105 83.1584 103.265H83.2782V98.7382H84.6911V111H83.3261V109.587H83.1584C83.0546 109.755 82.9069 109.966 82.7154 110.222C82.5238 110.473 82.2503 110.699 81.8951 110.898C81.5399 111.094 81.0669 111.192 80.4761 111.192ZM80.6677 109.922C81.2345 109.922 81.7135 109.775 82.1047 109.479C82.4958 109.18 82.7932 108.767 82.9968 108.24C83.2003 107.709 83.3021 107.096 83.3021 106.402C83.3021 105.715 83.2023 105.115 83.0027 104.6C82.8032 104.081 82.5078 103.678 82.1166 103.39C81.7255 103.099 81.2425 102.953 80.6677 102.953C80.069 102.953 79.5701 103.107 79.1709 103.414C78.7758 103.718 78.4784 104.131 78.2788 104.654C78.0832 105.172 77.9855 105.755 77.9855 106.402C77.9855 107.056 78.0852 107.651 78.2848 108.186C78.4884 108.717 78.7877 109.14 79.1829 109.455C79.582 109.767 80.077 109.922 80.6677 109.922ZM96.2165 101.804V103.001H91.4507V101.804H96.2165ZM92.8397 99.6003H94.2527V108.366C94.2527 108.765 94.3106 109.064 94.4263 109.264C94.5461 109.459 94.6978 109.591 94.8814 109.659C95.069 109.723 95.2666 109.755 95.4741 109.755C95.6298 109.755 95.7575 109.747 95.8573 109.731C95.9571 109.711 96.0369 109.695 96.0968 109.683L96.3842 110.952C96.2884 110.988 96.1547 111.024 95.983 111.06C95.8114 111.1 95.5939 111.12 95.3304 111.12C94.9313 111.12 94.5401 111.034 94.1569 110.862C93.7777 110.691 93.4624 110.429 93.2109 110.078C92.9635 109.727 92.8397 109.284 92.8397 108.749V99.6003ZM101.979 111.192C101.149 111.192 100.421 110.994 99.7939 110.599C99.1712 110.204 98.6843 109.651 98.333 108.94C97.9858 108.23 97.8121 107.4 97.8121 106.45C97.8121 105.492 97.9858 104.656 98.333 103.941C98.6843 103.227 99.1712 102.672 99.7939 102.277C100.421 101.881 101.149 101.684 101.979 101.684C102.809 101.684 103.536 101.881 104.159 102.277C104.785 102.672 105.272 103.227 105.619 103.941C105.971 104.656 106.146 105.492 106.146 106.45C106.146 107.4 105.971 108.23 105.619 108.94C105.272 109.651 104.785 110.204 104.159 110.599C103.536 110.994 102.809 111.192 101.979 111.192ZM101.979 109.922C102.61 109.922 103.129 109.761 103.536 109.437C103.943 109.114 104.244 108.689 104.44 108.162C104.636 107.635 104.733 107.064 104.733 106.45C104.733 105.835 104.636 105.262 104.44 104.731C104.244 104.201 103.943 103.771 103.536 103.444C103.129 103.117 102.61 102.953 101.979 102.953C101.349 102.953 100.83 103.117 100.423 103.444C100.015 103.771 99.7141 104.201 99.5185 104.731C99.3229 105.262 99.2251 105.835 99.2251 106.45C99.2251 107.064 99.3229 107.635 99.5185 108.162C99.7141 108.689 100.015 109.114 100.423 109.437C100.83 109.761 101.349 109.922 101.979 109.922ZM109.716 105.468V111H108.303V101.804H109.668V103.241H109.788C110.004 102.774 110.331 102.398 110.77 102.115C111.209 101.828 111.776 101.684 112.47 101.684C113.093 101.684 113.638 101.812 114.105 102.067C114.572 102.319 114.935 102.702 115.195 103.217C115.454 103.728 115.584 104.374 115.584 105.156V111H114.171V105.252C114.171 104.53 113.983 103.967 113.608 103.564C113.233 103.157 112.718 102.953 112.063 102.953C111.612 102.953 111.209 103.051 110.854 103.247C110.503 103.442 110.225 103.728 110.022 104.103C109.818 104.478 109.716 104.933 109.716 105.468ZM122.021 111.192C121.135 111.192 120.371 110.996 119.728 110.605C119.09 110.21 118.597 109.659 118.249 108.952C117.906 108.242 117.735 107.416 117.735 106.474C117.735 105.532 117.906 104.701 118.249 103.983C118.597 103.261 119.08 102.698 119.698 102.295C120.321 101.887 121.048 101.684 121.878 101.684C122.357 101.684 122.83 101.764 123.297 101.923C123.764 102.083 124.189 102.342 124.572 102.702C124.955 103.057 125.261 103.528 125.488 104.115C125.716 104.701 125.829 105.424 125.829 106.282V106.881H118.74V105.659H124.392C124.392 105.141 124.289 104.677 124.081 104.27C123.877 103.863 123.586 103.542 123.207 103.306C122.832 103.071 122.389 102.953 121.878 102.953C121.315 102.953 120.828 103.093 120.417 103.372C120.01 103.648 119.696 104.007 119.477 104.45C119.257 104.893 119.148 105.368 119.148 105.875V106.689C119.148 107.384 119.267 107.972 119.507 108.455C119.75 108.934 120.088 109.3 120.519 109.551C120.95 109.799 121.451 109.922 122.021 109.922C122.393 109.922 122.728 109.87 123.027 109.767C123.331 109.659 123.592 109.499 123.812 109.288C124.031 109.072 124.201 108.805 124.321 108.485L125.686 108.869C125.542 109.332 125.3 109.739 124.961 110.09C124.622 110.437 124.203 110.709 123.704 110.904C123.205 111.096 122.644 111.192 122.021 111.192ZM136.457 111.192C135.626 111.192 134.898 110.994 134.271 110.599C133.649 110.204 133.162 109.651 132.81 108.94C132.463 108.23 132.289 107.4 132.289 106.45C132.289 105.492 132.463 104.656 132.81 103.941C133.162 103.227 133.649 102.672 134.271 102.277C134.898 101.881 135.626 101.684 136.457 101.684C137.287 101.684 138.013 101.881 138.636 102.277C139.263 102.672 139.75 103.227 140.097 103.941C140.448 104.656 140.624 105.492 140.624 106.45C140.624 107.4 140.448 108.23 140.097 108.94C139.75 109.651 139.263 110.204 138.636 110.599C138.013 110.994 137.287 111.192 136.457 111.192ZM136.457 109.922C137.087 109.922 137.606 109.761 138.013 109.437C138.42 109.114 138.722 108.689 138.917 108.162C139.113 107.635 139.211 107.064 139.211 106.45C139.211 105.835 139.113 105.262 138.917 104.731C138.722 104.201 138.42 103.771 138.013 103.444C137.606 103.117 137.087 102.953 136.457 102.953C135.826 102.953 135.307 103.117 134.9 103.444C134.493 103.771 134.191 104.201 133.996 104.731C133.8 105.262 133.702 105.835 133.702 106.45C133.702 107.064 133.8 107.635 133.996 108.162C134.191 108.689 134.493 109.114 134.9 109.437C135.307 109.761 135.826 109.922 136.457 109.922ZM146.876 101.804V103.001H141.918V101.804H146.876ZM143.403 111V100.534C143.403 100.007 143.527 99.5684 143.774 99.2172C144.022 98.8659 144.343 98.6025 144.738 98.4268C145.134 98.2512 145.551 98.1634 145.99 98.1634C146.337 98.1634 146.62 98.1913 146.84 98.2472C147.059 98.3031 147.223 98.355 147.331 98.4029L146.924 99.6243C146.852 99.6003 146.752 99.5704 146.624 99.5345C146.501 99.4986 146.337 99.4806 146.133 99.4806C145.666 99.4806 145.329 99.5983 145.122 99.8338C144.918 100.069 144.816 100.415 144.816 100.87V111H143.403ZM161.118 101.804L157.717 111H156.28L152.88 101.804H154.412L156.951 109.132H157.047L159.585 101.804H161.118ZM166.39 111.192C165.559 111.192 164.831 110.994 164.204 110.599C163.582 110.204 163.095 109.651 162.743 108.94C162.396 108.23 162.223 107.4 162.223 106.45C162.223 105.492 162.396 104.656 162.743 103.941C163.095 103.227 163.582 102.672 164.204 102.277C164.831 101.881 165.559 101.684 166.39 101.684C167.22 101.684 167.946 101.881 168.569 102.277C169.196 102.672 169.683 103.227 170.03 103.941C170.381 104.656 170.557 105.492 170.557 106.45C170.557 107.4 170.381 108.23 170.03 108.94C169.683 109.651 169.196 110.204 168.569 110.599C167.946 110.994 167.22 111.192 166.39 111.192ZM166.39 109.922C167.02 109.922 167.539 109.761 167.946 109.437C168.354 109.114 168.655 108.689 168.85 108.162C169.046 107.635 169.144 107.064 169.144 106.45C169.144 105.835 169.046 105.262 168.85 104.731C168.655 104.201 168.354 103.771 167.946 103.444C167.539 103.117 167.02 102.953 166.39 102.953C165.759 102.953 165.24 103.117 164.833 103.444C164.426 103.771 164.125 104.201 163.929 104.731C163.733 105.262 163.636 105.835 163.636 106.45C163.636 107.064 163.733 107.635 163.929 108.162C164.125 108.689 164.426 109.114 164.833 109.437C165.24 109.761 165.759 109.922 166.39 109.922ZM172.714 111V101.804H174.127V111H172.714ZM173.432 100.271C173.157 100.271 172.919 100.177 172.72 99.9895C172.524 99.8019 172.426 99.5764 172.426 99.313C172.426 99.0495 172.524 98.824 172.72 98.6364C172.919 98.4488 173.157 98.355 173.432 98.355C173.708 98.355 173.943 98.4488 174.139 98.6364C174.338 98.824 174.438 99.0495 174.438 99.313C174.438 99.5764 174.338 99.8019 174.139 99.9895C173.943 100.177 173.708 100.271 173.432 100.271ZM180.451 111.192C179.589 111.192 178.846 110.988 178.223 110.581C177.601 110.174 177.122 109.613 176.787 108.898C176.451 108.184 176.284 107.368 176.284 106.45C176.284 105.516 176.455 104.691 176.798 103.977C177.146 103.259 177.629 102.698 178.247 102.295C178.87 101.887 179.597 101.684 180.427 101.684C181.073 101.684 181.656 101.804 182.175 102.043C182.694 102.283 183.119 102.618 183.45 103.049C183.782 103.48 183.987 103.983 184.067 104.558H182.654C182.546 104.139 182.307 103.767 181.936 103.444C181.568 103.117 181.073 102.953 180.451 102.953C179.9 102.953 179.417 103.097 179.002 103.384C178.591 103.668 178.269 104.069 178.038 104.588C177.81 105.103 177.697 105.707 177.697 106.402C177.697 107.112 177.808 107.731 178.032 108.258C178.259 108.785 178.579 109.194 178.99 109.485C179.405 109.777 179.892 109.922 180.451 109.922C180.818 109.922 181.151 109.858 181.451 109.731C181.75 109.603 182.003 109.419 182.211 109.18C182.418 108.94 182.566 108.653 182.654 108.318H184.067C183.987 108.861 183.79 109.35 183.474 109.785C183.163 110.216 182.75 110.559 182.235 110.814C181.724 111.066 181.129 111.192 180.451 111.192ZM189.988 111.192C189.102 111.192 188.338 110.996 187.695 110.605C187.057 110.21 186.564 109.659 186.216 108.952C185.873 108.242 185.701 107.416 185.701 106.474C185.701 105.532 185.873 104.701 186.216 103.983C186.564 103.261 187.047 102.698 187.665 102.295C188.288 101.887 189.014 101.684 189.845 101.684C190.324 101.684 190.797 101.764 191.264 101.923C191.731 102.083 192.156 102.342 192.539 102.702C192.922 103.057 193.227 103.528 193.455 104.115C193.682 104.701 193.796 105.424 193.796 106.282V106.881H186.707V105.659H192.359C192.359 105.141 192.255 104.677 192.048 104.27C191.844 103.863 191.553 103.542 191.174 103.306C190.799 103.071 190.356 102.953 189.845 102.953C189.282 102.953 188.795 103.093 188.384 103.372C187.977 103.648 187.663 104.007 187.444 104.45C187.224 104.893 187.114 105.368 187.114 105.875V106.689C187.114 107.384 187.234 107.972 187.474 108.455C187.717 108.934 188.054 109.3 188.486 109.551C188.917 109.799 189.418 109.922 189.988 109.922C190.36 109.922 190.695 109.87 190.994 109.767C191.298 109.659 191.559 109.499 191.778 109.288C191.998 109.072 192.168 108.805 192.287 108.485L193.652 108.869C193.509 109.332 193.267 109.739 192.928 110.09C192.589 110.437 192.17 110.709 191.671 110.904C191.172 111.096 190.611 111.192 189.988 111.192Z" fill="#161515"/>
</svg>
