<svg width="232" height="110" viewBox="0 0 232 110" fill="none" xmlns="http://www.w3.org/2000/svg">
<path d="M0.5 0.5H220C226.351 0.5 231.5 5.64873 231.5 12V98C231.5 104.351 226.351 109.5 220 109.5H12C5.64873 109.5 0.5 104.351 0.5 98V0.5Z" stroke="#939393"/>
<path d="M28.342 18.242L25.514 28H24.086L21.818 20.146L19.466 28L18.052 28.014L15.322 18.242H16.68L18.808 26.516L21.16 18.242H22.588L24.828 26.488L26.97 18.242H28.342ZM33.5442 20.188C34.1229 20.188 34.6455 20.314 35.1122 20.566C35.5789 20.8087 35.9429 21.1773 36.2042 21.672C36.4749 22.1667 36.6102 22.7687 36.6102 23.478V28H35.3502V23.66C35.3502 22.8947 35.1589 22.3113 34.7762 21.91C34.3935 21.4993 33.8709 21.294 33.2082 21.294C32.5362 21.294 31.9995 21.504 31.5982 21.924C31.2062 22.344 31.0102 22.9553 31.0102 23.758V28H29.7362V17.64H31.0102V21.42C31.2622 21.028 31.6075 20.7247 32.0462 20.51C32.4942 20.2953 32.9935 20.188 33.5442 20.188ZM45.6913 23.87C45.6913 24.1127 45.6773 24.3693 45.6493 24.64H39.5173C39.5639 25.396 39.8206 25.9887 40.2873 26.418C40.7633 26.838 41.3373 27.048 42.0093 27.048C42.5599 27.048 43.0173 26.922 43.3813 26.67C43.7546 26.4087 44.0159 26.0633 44.1653 25.634H45.5373C45.3319 26.3713 44.9213 26.9733 44.3053 27.44C43.6893 27.8973 42.9239 28.126 42.0093 28.126C41.2813 28.126 40.6279 27.9627 40.0493 27.636C39.4799 27.3093 39.0319 26.8473 38.7053 26.25C38.3786 25.6433 38.2153 24.9433 38.2153 24.15C38.2153 23.3567 38.3739 22.6613 38.6913 22.064C39.0086 21.4667 39.4519 21.0093 40.0213 20.692C40.5999 20.3653 41.2626 20.202 42.0093 20.202C42.7373 20.202 43.3813 20.3607 43.9413 20.678C44.5013 20.9953 44.9306 21.434 45.2293 21.994C45.5373 22.5447 45.6913 23.17 45.6913 23.87ZM44.3753 23.604C44.3753 23.1187 44.2679 22.7033 44.0533 22.358C43.8386 22.0033 43.5446 21.7373 43.1713 21.56C42.8073 21.3733 42.4013 21.28 41.9533 21.28C41.3093 21.28 40.7586 21.4853 40.3013 21.896C39.8533 22.3067 39.5966 22.876 39.5313 23.604H44.3753ZM51.1109 20.188C52.0443 20.188 52.8003 20.4727 53.3789 21.042C53.9576 21.602 54.2469 22.414 54.2469 23.478V28H52.9869V23.66C52.9869 22.8947 52.7956 22.3113 52.4129 21.91C52.0303 21.4993 51.5076 21.294 50.8449 21.294C50.1729 21.294 49.6363 21.504 49.2349 21.924C48.8429 22.344 48.6469 22.9553 48.6469 23.758V28H47.3729V20.328H48.6469V21.42C48.8989 21.028 49.2396 20.7247 49.6689 20.51C50.1076 20.2953 50.5883 20.188 51.1109 20.188ZM59.5844 24.136C59.5844 23.352 59.7431 22.666 60.0604 22.078C60.3778 21.4807 60.8118 21.0187 61.3624 20.692C61.9224 20.3653 62.5431 20.202 63.2244 20.202C63.8964 20.202 64.4798 20.3467 64.9744 20.636C65.4691 20.9253 65.8378 21.2893 66.0804 21.728V20.328H67.3684V28H66.0804V26.572C65.8284 27.02 65.4504 27.3933 64.9464 27.692C64.4518 27.9813 63.8731 28.126 63.2104 28.126C62.5291 28.126 61.9131 27.958 61.3624 27.622C60.8118 27.286 60.3778 26.8147 60.0604 26.208C59.7431 25.6013 59.5844 24.9107 59.5844 24.136ZM66.0804 24.15C66.0804 23.5713 65.9638 23.0673 65.7304 22.638C65.4971 22.2087 65.1798 21.882 64.7784 21.658C64.3864 21.4247 63.9524 21.308 63.4764 21.308C63.0004 21.308 62.5664 21.42 62.1744 21.644C61.7824 21.868 61.4698 22.1947 61.2364 22.624C61.0031 23.0533 60.8864 23.5573 60.8864 24.136C60.8864 24.724 61.0031 25.2373 61.2364 25.676C61.4698 26.1053 61.7824 26.4367 62.1744 26.67C62.5664 26.894 63.0004 27.006 63.4764 27.006C63.9524 27.006 64.3864 26.894 64.7784 26.67C65.1798 26.4367 65.4971 26.1053 65.7304 25.676C65.9638 25.2373 66.0804 24.7287 66.0804 24.15ZM76.3758 21.378H74.7658V28H73.4918V21.378H72.4978V20.328H73.4918V19.782C73.4918 18.9233 73.7111 18.298 74.1498 17.906C74.5978 17.5047 75.3118 17.304 76.2918 17.304V18.368C75.7318 18.368 75.3351 18.48 75.1018 18.704C74.8778 18.9187 74.7658 19.278 74.7658 19.782V20.328H76.3758V21.378ZM79.1352 21.574C79.3592 21.1353 79.6765 20.7947 80.0872 20.552C80.5072 20.3093 81.0159 20.188 81.6132 20.188V21.504H81.2772C79.8492 21.504 79.1352 22.2787 79.1352 23.828V28H77.8612V20.328H79.1352V21.574ZM83.7419 19.082C83.4992 19.082 83.2939 18.998 83.1259 18.83C82.9579 18.662 82.8739 18.4567 82.8739 18.214C82.8739 17.9713 82.9579 17.766 83.1259 17.598C83.2939 17.43 83.4992 17.346 83.7419 17.346C83.9752 17.346 84.1712 17.43 84.3299 17.598C84.4979 17.766 84.5819 17.9713 84.5819 18.214C84.5819 18.4567 84.4979 18.662 84.3299 18.83C84.1712 18.998 83.9752 19.082 83.7419 19.082ZM84.3579 20.328V28H83.0839V20.328H84.3579ZM93.5292 23.87C93.5292 24.1127 93.5152 24.3693 93.4872 24.64H87.3552C87.4018 25.396 87.6585 25.9887 88.1252 26.418C88.6012 26.838 89.1752 27.048 89.8472 27.048C90.3978 27.048 90.8552 26.922 91.2192 26.67C91.5925 26.4087 91.8538 26.0633 92.0032 25.634H93.3752C93.1698 26.3713 92.7592 26.9733 92.1432 27.44C91.5272 27.8973 90.7618 28.126 89.8472 28.126C89.1192 28.126 88.4658 27.9627 87.8872 27.636C87.3178 27.3093 86.8698 26.8473 86.5432 26.25C86.2165 25.6433 86.0532 24.9433 86.0532 24.15C86.0532 23.3567 86.2118 22.6613 86.5292 22.064C86.8465 21.4667 87.2898 21.0093 87.8592 20.692C88.4378 20.3653 89.1005 20.202 89.8472 20.202C90.5752 20.202 91.2192 20.3607 91.7792 20.678C92.3392 20.9953 92.7685 21.434 93.0672 21.994C93.3752 22.5447 93.5292 23.17 93.5292 23.87ZM92.2132 23.604C92.2132 23.1187 92.1058 22.7033 91.8912 22.358C91.6765 22.0033 91.3825 21.7373 91.0092 21.56C90.6452 21.3733 90.2392 21.28 89.7912 21.28C89.1472 21.28 88.5965 21.4853 88.1392 21.896C87.6912 22.3067 87.4345 22.876 87.3692 23.604H92.2132ZM98.9488 20.188C99.8821 20.188 100.638 20.4727 101.217 21.042C101.795 21.602 102.085 22.414 102.085 23.478V28H100.825V23.66C100.825 22.8947 100.633 22.3113 100.251 21.91C99.8681 21.4993 99.3455 21.294 98.6828 21.294C98.0108 21.294 97.4741 21.504 97.0728 21.924C96.6808 22.344 96.4848 22.9553 96.4848 23.758V28H95.2108V20.328H96.4848V21.42C96.7368 21.028 97.0775 20.7247 97.5068 20.51C97.9455 20.2953 98.4261 20.188 98.9488 20.188ZM103.69 24.136C103.69 23.352 103.849 22.666 104.166 22.078C104.483 21.4807 104.917 21.0187 105.468 20.692C106.028 20.3653 106.653 20.202 107.344 20.202C107.941 20.202 108.497 20.342 109.01 20.622C109.523 20.8927 109.915 21.252 110.186 21.7V17.64H111.474V28H110.186V26.558C109.934 27.0153 109.561 27.3933 109.066 27.692C108.571 27.9813 107.993 28.126 107.33 28.126C106.649 28.126 106.028 27.958 105.468 27.622C104.917 27.286 104.483 26.8147 104.166 26.208C103.849 25.6013 103.69 24.9107 103.69 24.136ZM110.186 24.15C110.186 23.5713 110.069 23.0673 109.836 22.638C109.603 22.2087 109.285 21.882 108.884 21.658C108.492 21.4247 108.058 21.308 107.582 21.308C107.106 21.308 106.672 21.42 106.28 21.644C105.888 21.868 105.575 22.1947 105.342 22.624C105.109 23.0533 104.992 23.5573 104.992 24.136C104.992 24.724 105.109 25.2373 105.342 25.676C105.575 26.1053 105.888 26.4367 106.28 26.67C106.672 26.894 107.106 27.006 107.582 27.006C108.058 27.006 108.492 26.894 108.884 26.67C109.285 26.4367 109.603 26.1053 109.836 25.676C110.069 25.2373 110.186 24.7287 110.186 24.15ZM116.883 24.136C116.883 23.352 117.042 22.666 117.359 22.078C117.677 21.4807 118.111 21.0187 118.661 20.692C119.221 20.3653 119.842 20.202 120.523 20.202C121.195 20.202 121.779 20.3467 122.273 20.636C122.768 20.9253 123.137 21.2893 123.379 21.728V20.328H124.667V28H123.379V26.572C123.127 27.02 122.749 27.3933 122.245 27.692C121.751 27.9813 121.172 28.126 120.509 28.126C119.828 28.126 119.212 27.958 118.661 27.622C118.111 27.286 117.677 26.8147 117.359 26.208C117.042 25.6013 116.883 24.9107 116.883 24.136ZM123.379 24.15C123.379 23.5713 123.263 23.0673 123.029 22.638C122.796 22.2087 122.479 21.882 122.077 21.658C121.685 21.4247 121.251 21.308 120.775 21.308C120.299 21.308 119.865 21.42 119.473 21.644C119.081 21.868 118.769 22.1947 118.535 22.624C118.302 23.0533 118.185 23.5573 118.185 24.136C118.185 24.724 118.302 25.2373 118.535 25.676C118.769 26.1053 119.081 26.4367 119.473 26.67C119.865 26.894 120.299 27.006 120.775 27.006C121.251 27.006 121.685 26.894 122.077 26.67C122.479 26.4367 122.796 26.1053 123.029 25.676C123.263 25.2373 123.379 24.7287 123.379 24.15ZM129.536 28.126C128.948 28.126 128.421 28.028 127.954 27.832C127.488 27.6267 127.119 27.3467 126.848 26.992C126.578 26.628 126.428 26.2127 126.4 25.746H127.716C127.754 26.1287 127.931 26.4413 128.248 26.684C128.575 26.9267 129 27.048 129.522 27.048C130.008 27.048 130.39 26.9407 130.67 26.726C130.95 26.5113 131.09 26.2407 131.09 25.914C131.09 25.578 130.941 25.3307 130.642 25.172C130.344 25.004 129.882 24.8407 129.256 24.682C128.687 24.5327 128.22 24.3833 127.856 24.234C127.502 24.0753 127.194 23.8467 126.932 23.548C126.68 23.24 126.554 22.8387 126.554 22.344C126.554 21.952 126.671 21.5927 126.904 21.266C127.138 20.9393 127.469 20.6827 127.898 20.496C128.328 20.3 128.818 20.202 129.368 20.202C130.218 20.202 130.904 20.4167 131.426 20.846C131.949 21.2753 132.229 21.8633 132.266 22.61H130.992C130.964 22.2087 130.801 21.8867 130.502 21.644C130.213 21.4013 129.821 21.28 129.326 21.28C128.869 21.28 128.505 21.378 128.234 21.574C127.964 21.77 127.828 22.0267 127.828 22.344C127.828 22.596 127.908 22.806 128.066 22.974C128.234 23.1327 128.44 23.2633 128.682 23.366C128.934 23.4593 129.28 23.5667 129.718 23.688C130.269 23.8373 130.717 23.9867 131.062 24.136C131.408 24.276 131.702 24.4907 131.944 24.78C132.196 25.0693 132.327 25.4473 132.336 25.914C132.336 26.334 132.22 26.712 131.986 27.048C131.753 27.384 131.422 27.65 130.992 27.846C130.572 28.0327 130.087 28.126 129.536 28.126ZM138.419 28L135.409 24.612V28H134.135V17.64H135.409V23.73L138.363 20.328H140.141L136.529 24.15L140.155 28H138.419ZM144.056 28.126C143.468 28.126 142.94 28.028 142.474 27.832C142.007 27.6267 141.638 27.3467 141.368 26.992C141.097 26.628 140.948 26.2127 140.92 25.746H142.236C142.273 26.1287 142.45 26.4413 142.768 26.684C143.094 26.9267 143.519 27.048 144.042 27.048C144.527 27.048 144.91 26.9407 145.19 26.726C145.47 26.5113 145.61 26.2407 145.61 25.914C145.61 25.578 145.46 25.3307 145.162 25.172C144.863 25.004 144.401 24.8407 143.776 24.682C143.206 24.5327 142.74 24.3833 142.376 24.234C142.021 24.0753 141.713 23.8467 141.452 23.548C141.2 23.24 141.074 22.8387 141.074 22.344C141.074 21.952 141.19 21.5927 141.424 21.266C141.657 20.9393 141.988 20.6827 142.418 20.496C142.847 20.3 143.337 20.202 143.888 20.202C144.737 20.202 145.423 20.4167 145.946 20.846C146.468 21.2753 146.748 21.8633 146.786 22.61H145.512C145.484 22.2087 145.32 21.8867 145.022 21.644C144.732 21.4013 144.34 21.28 143.846 21.28C143.388 21.28 143.024 21.378 142.754 21.574C142.483 21.77 142.348 22.0267 142.348 22.344C142.348 22.596 142.427 22.806 142.586 22.974C142.754 23.1327 142.959 23.2633 143.202 23.366C143.454 23.4593 143.799 23.5667 144.238 23.688C144.788 23.8373 145.236 23.9867 145.582 24.136C145.927 24.276 146.221 24.4907 146.464 24.78C146.716 25.0693 146.846 25.4473 146.856 25.914C146.856 26.334 146.739 26.712 146.506 27.048C146.272 27.384 145.941 27.65 145.512 27.846C145.092 28.0327 144.606 28.126 144.056 28.126ZM155.509 21.378H153.899V28H152.625V21.378H151.631V20.328H152.625V19.782C152.625 18.9233 152.844 18.298 153.283 17.906C153.731 17.5047 154.445 17.304 155.425 17.304V18.368C154.865 18.368 154.468 18.48 154.235 18.704C154.011 18.9187 153.899 19.278 153.899 19.782V20.328H155.509V21.378ZM160.34 28.126C159.621 28.126 158.968 27.9627 158.38 27.636C157.801 27.3093 157.344 26.8473 157.008 26.25C156.681 25.6433 156.518 24.9433 156.518 24.15C156.518 23.366 156.686 22.6753 157.022 22.078C157.367 21.4713 157.834 21.0093 158.422 20.692C159.01 20.3653 159.668 20.202 160.396 20.202C161.124 20.202 161.782 20.3653 162.37 20.692C162.958 21.0093 163.42 21.4667 163.756 22.064C164.101 22.6613 164.274 23.3567 164.274 24.15C164.274 24.9433 164.097 25.6433 163.742 26.25C163.397 26.8473 162.925 27.3093 162.328 27.636C161.731 27.9627 161.068 28.126 160.34 28.126ZM160.34 27.006C160.797 27.006 161.227 26.8987 161.628 26.684C162.029 26.4693 162.351 26.1473 162.594 25.718C162.846 25.2887 162.972 24.766 162.972 24.15C162.972 23.534 162.851 23.0113 162.608 22.582C162.365 22.1527 162.048 21.8353 161.656 21.63C161.264 21.4153 160.839 21.308 160.382 21.308C159.915 21.308 159.486 21.4153 159.094 21.63C158.711 21.8353 158.403 22.1527 158.17 22.582C157.937 23.0113 157.82 23.534 157.82 24.15C157.82 24.7753 157.932 25.3027 158.156 25.732C158.389 26.1613 158.697 26.4833 159.08 26.698C159.463 26.9033 159.883 27.006 160.34 27.006ZM167.223 21.574C167.447 21.1353 167.764 20.7947 168.175 20.552C168.595 20.3093 169.104 20.188 169.701 20.188V21.504H169.365C167.937 21.504 167.223 22.2787 167.223 23.828V28H165.949V20.328H167.223V21.574ZM174.428 24.136C174.428 23.352 174.587 22.666 174.904 22.078C175.222 21.4807 175.656 21.0187 176.206 20.692C176.766 20.3653 177.387 20.202 178.068 20.202C178.74 20.202 179.324 20.3467 179.818 20.636C180.313 20.9253 180.682 21.2893 180.924 21.728V20.328H182.212V28H180.924V26.572C180.672 27.02 180.294 27.3933 179.79 27.692C179.296 27.9813 178.717 28.126 178.054 28.126C177.373 28.126 176.757 27.958 176.206 27.622C175.656 27.286 175.222 26.8147 174.904 26.208C174.587 25.6013 174.428 24.9107 174.428 24.136ZM180.924 24.15C180.924 23.5713 180.808 23.0673 180.574 22.638C180.341 22.2087 180.024 21.882 179.622 21.658C179.23 21.4247 178.796 21.308 178.32 21.308C177.844 21.308 177.41 21.42 177.018 21.644C176.626 21.868 176.314 22.1947 176.08 22.624C175.847 23.0533 175.73 23.5573 175.73 24.136C175.73 24.724 175.847 25.2373 176.08 25.676C176.314 26.1053 176.626 26.4367 177.018 26.67C177.41 26.894 177.844 27.006 178.32 27.006C178.796 27.006 179.23 26.894 179.622 26.67C180.024 26.4367 180.341 26.1053 180.574 25.676C180.808 25.2373 180.924 24.7287 180.924 24.15ZM19.2 42.378H17.59V49H16.316V42.378H15.322V41.328H16.316V40.782C16.316 39.9233 16.5353 39.298 16.974 38.906C17.422 38.5047 18.136 38.304 19.116 38.304V39.368C18.556 39.368 18.1593 39.48 17.926 39.704C17.702 39.9187 17.59 40.278 17.59 40.782V41.328H19.2V42.378ZM20.2094 45.136C20.2094 44.352 20.3681 43.666 20.6854 43.078C21.0028 42.4807 21.4368 42.0187 21.9874 41.692C22.5474 41.3653 23.1681 41.202 23.8494 41.202C24.5214 41.202 25.1048 41.3467 25.5994 41.636C26.0941 41.9253 26.4628 42.2893 26.7054 42.728V41.328H27.9934V49H26.7054V47.572C26.4534 48.02 26.0754 48.3933 25.5714 48.692C25.0768 48.9813 24.4981 49.126 23.8354 49.126C23.1541 49.126 22.5381 48.958 21.9874 48.622C21.4368 48.286 21.0028 47.8147 20.6854 47.208C20.3681 46.6013 20.2094 45.9107 20.2094 45.136ZM26.7054 45.15C26.7054 44.5713 26.5888 44.0673 26.3554 43.638C26.1221 43.2087 25.8048 42.882 25.4034 42.658C25.0114 42.4247 24.5774 42.308 24.1014 42.308C23.6254 42.308 23.1914 42.42 22.7994 42.644C22.4074 42.868 22.0948 43.1947 21.8614 43.624C21.6281 44.0533 21.5114 44.5573 21.5114 45.136C21.5114 45.724 21.6281 46.2373 21.8614 46.676C22.0948 47.1053 22.4074 47.4367 22.7994 47.67C23.1914 47.894 23.6254 48.006 24.1014 48.006C24.5774 48.006 25.0114 47.894 25.4034 47.67C25.8048 47.4367 26.1221 47.1053 26.3554 46.676C26.5888 46.2373 26.7054 45.7287 26.7054 45.15ZM33.0024 47.824L35.3824 41.328H36.7404L33.7304 49H32.2464L29.2364 41.328H30.6084L33.0024 47.824ZM41.34 49.126C40.6213 49.126 39.968 48.9627 39.38 48.636C38.8013 48.3093 38.344 47.8473 38.008 47.25C37.6813 46.6433 37.518 45.9433 37.518 45.15C37.518 44.366 37.686 43.6753 38.022 43.078C38.3673 42.4713 38.834 42.0093 39.422 41.692C40.01 41.3653 40.668 41.202 41.396 41.202C42.124 41.202 42.782 41.3653 43.37 41.692C43.958 42.0093 44.42 42.4667 44.756 43.064C45.1013 43.6613 45.274 44.3567 45.274 45.15C45.274 45.9433 45.0967 46.6433 44.742 47.25C44.3967 47.8473 43.9253 48.3093 43.328 48.636C42.7307 48.9627 42.068 49.126 41.34 49.126ZM41.34 48.006C41.7973 48.006 42.2267 47.8987 42.628 47.684C43.0293 47.4693 43.3513 47.1473 43.594 46.718C43.846 46.2887 43.972 45.766 43.972 45.15C43.972 44.534 43.8507 44.0113 43.608 43.582C43.3653 43.1527 43.048 42.8353 42.656 42.63C42.264 42.4153 41.8393 42.308 41.382 42.308C40.9153 42.308 40.486 42.4153 40.094 42.63C39.7113 42.8353 39.4033 43.1527 39.17 43.582C38.9367 44.0113 38.82 44.534 38.82 45.15C38.82 45.7753 38.932 46.3027 39.156 46.732C39.3893 47.1613 39.6973 47.4833 40.08 47.698C40.4627 47.9033 40.8827 48.006 41.34 48.006ZM48.2231 42.574C48.4471 42.1353 48.7644 41.7947 49.1751 41.552C49.5951 41.3093 50.1038 41.188 50.7011 41.188V42.504H50.3651C48.9371 42.504 48.2231 43.2787 48.2231 44.828V49H46.9491V41.328H48.2231V42.574ZM62.5122 41.328L57.8922 52.612H56.5762L58.0882 48.916L54.9942 41.328H56.4082L58.8162 47.544L61.1962 41.328H62.5122ZM67.1388 49.126C66.4202 49.126 65.7668 48.9627 65.1788 48.636C64.6002 48.3093 64.1428 47.8473 63.8068 47.25C63.4802 46.6433 63.3168 45.9433 63.3168 45.15C63.3168 44.366 63.4848 43.6753 63.8208 43.078C64.1662 42.4713 64.6328 42.0093 65.2208 41.692C65.8088 41.3653 66.4668 41.202 67.1948 41.202C67.9228 41.202 68.5808 41.3653 69.1688 41.692C69.7568 42.0093 70.2188 42.4667 70.5548 43.064C70.9002 43.6613 71.0728 44.3567 71.0728 45.15C71.0728 45.9433 70.8955 46.6433 70.5408 47.25C70.1955 47.8473 69.7242 48.3093 69.1268 48.636C68.5295 48.9627 67.8668 49.126 67.1388 49.126ZM67.1388 48.006C67.5962 48.006 68.0255 47.8987 68.4268 47.684C68.8282 47.4693 69.1502 47.1473 69.3928 46.718C69.6448 46.2887 69.7708 45.766 69.7708 45.15C69.7708 44.534 69.6495 44.0113 69.4068 43.582C69.1642 43.1527 68.8468 42.8353 68.4548 42.63C68.0628 42.4153 67.6382 42.308 67.1808 42.308C66.7142 42.308 66.2848 42.4153 65.8928 42.63C65.5102 42.8353 65.2022 43.1527 64.9688 43.582C64.7355 44.0113 64.6188 44.534 64.6188 45.15C64.6188 45.7753 64.7308 46.3027 64.9548 46.732C65.1882 47.1613 65.4962 47.4833 65.8788 47.698C66.2615 47.9033 66.6815 48.006 67.1388 48.006ZM79.5519 41.328V49H78.2779V47.866C78.0353 48.258 77.6946 48.566 77.2559 48.79C76.8266 49.0047 76.3506 49.112 75.8279 49.112C75.2306 49.112 74.6939 48.9907 74.2179 48.748C73.7419 48.496 73.3639 48.1227 73.0839 47.628C72.8133 47.1333 72.6779 46.5313 72.6779 45.822V41.328H73.9379V45.654C73.9379 46.41 74.1293 46.9933 74.5119 47.404C74.8946 47.8053 75.4173 48.006 76.0799 48.006C76.7613 48.006 77.2979 47.796 77.6899 47.376C78.0819 46.956 78.2779 46.3447 78.2779 45.542V41.328H79.5519ZM82.347 37.856L82.179 40.642H81.297L81.115 37.856H82.347ZM85.2055 42.574C85.4295 42.1353 85.7468 41.7947 86.1575 41.552C86.5775 41.3093 87.0862 41.188 87.6835 41.188V42.504H87.3475C85.9195 42.504 85.2055 43.2787 85.2055 44.828V49H83.9315V41.328H85.2055V42.574ZM96.1542 44.87C96.1542 45.1127 96.1402 45.3693 96.1122 45.64H89.9802C90.0268 46.396 90.2835 46.9887 90.7502 47.418C91.2262 47.838 91.8002 48.048 92.4722 48.048C93.0228 48.048 93.4802 47.922 93.8442 47.67C94.2175 47.4087 94.4788 47.0633 94.6282 46.634H96.0002C95.7948 47.3713 95.3842 47.9733 94.7682 48.44C94.1522 48.8973 93.3868 49.126 92.4722 49.126C91.7442 49.126 91.0908 48.9627 90.5122 48.636C89.9428 48.3093 89.4948 47.8473 89.1682 47.25C88.8415 46.6433 88.6782 45.9433 88.6782 45.15C88.6782 44.3567 88.8368 43.6613 89.1542 43.064C89.4715 42.4667 89.9148 42.0093 90.4842 41.692C91.0628 41.3653 91.7255 41.202 92.4722 41.202C93.2002 41.202 93.8442 41.3607 94.4042 41.678C94.9642 41.9953 95.3935 42.434 95.6922 42.994C96.0002 43.5447 96.1542 44.17 96.1542 44.87ZM94.8382 44.604C94.8382 44.1187 94.7308 43.7033 94.5162 43.358C94.3015 43.0033 94.0075 42.7373 93.6342 42.56C93.2702 42.3733 92.8642 42.28 92.4162 42.28C91.7722 42.28 91.2215 42.4853 90.7642 42.896C90.3162 43.3067 90.0595 43.876 89.9942 44.604H94.8382ZM102.842 42.574C103.066 42.1353 103.384 41.7947 103.794 41.552C104.214 41.3093 104.723 41.188 105.32 41.188V42.504H104.984C103.556 42.504 102.842 43.2787 102.842 44.828V49H101.568V41.328H102.842V42.574ZM113.791 44.87C113.791 45.1127 113.777 45.3693 113.749 45.64H107.617C107.664 46.396 107.92 46.9887 108.387 47.418C108.863 47.838 109.437 48.048 110.109 48.048C110.66 48.048 111.117 47.922 111.481 47.67C111.854 47.4087 112.116 47.0633 112.265 46.634H113.637C113.432 47.3713 113.021 47.9733 112.405 48.44C111.789 48.8973 111.024 49.126 110.109 49.126C109.381 49.126 108.728 48.9627 108.149 48.636C107.58 48.3093 107.132 47.8473 106.805 47.25C106.478 46.6433 106.315 45.9433 106.315 45.15C106.315 44.3567 106.474 43.6613 106.791 43.064C107.108 42.4667 107.552 42.0093 108.121 41.692C108.7 41.3653 109.362 41.202 110.109 41.202C110.837 41.202 111.481 41.3607 112.041 41.678C112.601 41.9953 113.03 42.434 113.329 42.994C113.637 43.5447 113.791 44.17 113.791 44.87ZM112.475 44.604C112.475 44.1187 112.368 43.7033 112.153 43.358C111.938 43.0033 111.644 42.7373 111.271 42.56C110.907 42.3733 110.501 42.28 110.053 42.28C109.409 42.28 108.858 42.4853 108.401 42.896C107.953 43.3067 107.696 43.876 107.631 44.604H112.475ZM116.747 38.64V49H115.473V38.64H116.747ZM125.722 41.328V49H124.448V47.866C124.205 48.258 123.865 48.566 123.426 48.79C122.997 49.0047 122.521 49.112 121.998 49.112C121.401 49.112 120.864 48.9907 120.388 48.748C119.912 48.496 119.534 48.1227 119.254 47.628C118.983 47.1333 118.848 46.5313 118.848 45.822V41.328H120.108V45.654C120.108 46.41 120.299 46.9933 120.682 47.404C121.065 47.8053 121.587 48.006 122.25 48.006C122.931 48.006 123.468 47.796 123.86 47.376C124.252 46.956 124.448 46.3447 124.448 45.542V41.328H125.722ZM127.397 45.15C127.397 44.3567 127.556 43.666 127.873 43.078C128.19 42.4807 128.629 42.0187 129.189 41.692C129.758 41.3653 130.407 41.202 131.135 41.202C132.078 41.202 132.852 41.4307 133.459 41.888C134.075 42.3453 134.481 42.98 134.677 43.792H133.305C133.174 43.3253 132.918 42.9567 132.535 42.686C132.162 42.4153 131.695 42.28 131.135 42.28C130.407 42.28 129.819 42.532 129.371 43.036C128.923 43.5307 128.699 44.2353 128.699 45.15C128.699 46.074 128.923 46.788 129.371 47.292C129.819 47.796 130.407 48.048 131.135 48.048C131.695 48.048 132.162 47.9173 132.535 47.656C132.908 47.3947 133.165 47.0213 133.305 46.536H134.677C134.472 47.32 134.061 47.95 133.445 48.426C132.829 48.8927 132.059 49.126 131.135 49.126C130.407 49.126 129.758 48.9627 129.189 48.636C128.629 48.3093 128.19 47.8473 127.873 47.25C127.556 46.6527 127.397 45.9527 127.397 45.15ZM137.931 42.378V46.9C137.931 47.2733 138.01 47.5393 138.169 47.698C138.327 47.8473 138.603 47.922 138.995 47.922H139.933V49H138.785C138.075 49 137.543 48.8367 137.189 48.51C136.834 48.1833 136.657 47.6467 136.657 46.9V42.378H135.663V41.328H136.657V39.396H137.931V41.328H139.933V42.378H137.931ZM141 45.136C141 44.352 141.159 43.666 141.476 43.078C141.794 42.4807 142.228 42.0187 142.778 41.692C143.338 41.3653 143.959 41.202 144.64 41.202C145.312 41.202 145.896 41.3467 146.39 41.636C146.885 41.9253 147.254 42.2893 147.496 42.728V41.328H148.784V49H147.496V47.572C147.244 48.02 146.866 48.3933 146.362 48.692C145.868 48.9813 145.289 49.126 144.626 49.126C143.945 49.126 143.329 48.958 142.778 48.622C142.228 48.286 141.794 47.8147 141.476 47.208C141.159 46.6013 141 45.9107 141 45.136ZM147.496 45.15C147.496 44.5713 147.38 44.0673 147.146 43.638C146.913 43.2087 146.596 42.882 146.194 42.658C145.802 42.4247 145.368 42.308 144.892 42.308C144.416 42.308 143.982 42.42 143.59 42.644C143.198 42.868 142.886 43.1947 142.652 43.624C142.419 44.0533 142.302 44.5573 142.302 45.136C142.302 45.724 142.419 46.2373 142.652 46.676C142.886 47.1053 143.198 47.4367 143.59 47.67C143.982 47.894 144.416 48.006 144.892 48.006C145.368 48.006 145.802 47.894 146.194 47.67C146.596 47.4367 146.913 47.1053 147.146 46.676C147.38 46.2373 147.496 45.7287 147.496 45.15ZM154.675 41.188C155.609 41.188 156.365 41.4727 156.943 42.042C157.522 42.602 157.811 43.414 157.811 44.478V49H156.551V44.66C156.551 43.8947 156.36 43.3113 155.977 42.91C155.595 42.4993 155.072 42.294 154.409 42.294C153.737 42.294 153.201 42.504 152.799 42.924C152.407 43.344 152.211 43.9553 152.211 44.758V49H150.937V41.328H152.211V42.42C152.463 42.028 152.804 41.7247 153.233 41.51C153.672 41.2953 154.153 41.188 154.675 41.188ZM161.446 42.378V46.9C161.446 47.2733 161.526 47.5393 161.684 47.698C161.843 47.8473 162.118 47.922 162.51 47.922H163.448V49H162.3C161.591 49 161.059 48.8367 160.704 48.51C160.35 48.1833 160.172 47.6467 160.172 46.9V42.378H159.178V41.328H160.172V39.396H161.446V41.328H163.448V42.378H161.446ZM170.278 42.378V46.9C170.278 47.2733 170.358 47.5393 170.516 47.698C170.675 47.8473 170.95 47.922 171.342 47.922H172.28V49H171.132C170.423 49 169.891 48.8367 169.536 48.51C169.182 48.1833 169.004 47.6467 169.004 46.9V42.378H168.01V41.328H169.004V39.396H170.278V41.328H172.28V42.378H170.278ZM177.17 49.126C176.451 49.126 175.798 48.9627 175.21 48.636C174.631 48.3093 174.174 47.8473 173.838 47.25C173.511 46.6433 173.348 45.9433 173.348 45.15C173.348 44.366 173.516 43.6753 173.852 43.078C174.197 42.4713 174.664 42.0093 175.252 41.692C175.84 41.3653 176.498 41.202 177.226 41.202C177.954 41.202 178.612 41.3653 179.2 41.692C179.788 42.0093 180.25 42.4667 180.586 43.064C180.931 43.6613 181.104 44.3567 181.104 45.15C181.104 45.9433 180.927 46.6433 180.572 47.25C180.227 47.8473 179.755 48.3093 179.158 48.636C178.561 48.9627 177.898 49.126 177.17 49.126ZM177.17 48.006C177.627 48.006 178.057 47.8987 178.458 47.684C178.859 47.4693 179.181 47.1473 179.424 46.718C179.676 46.2887 179.802 45.766 179.802 45.15C179.802 44.534 179.681 44.0113 179.438 43.582C179.195 43.1527 178.878 42.8353 178.486 42.63C178.094 42.4153 177.669 42.308 177.212 42.308C176.745 42.308 176.316 42.4153 175.924 42.63C175.541 42.8353 175.233 43.1527 175 43.582C174.767 44.0113 174.65 44.534 174.65 45.15C174.65 45.7753 174.762 46.3027 174.986 46.732C175.219 47.1613 175.527 47.4833 175.91 47.698C176.293 47.9033 176.713 48.006 177.17 48.006ZM186.036 45.136C186.036 44.352 186.194 43.666 186.512 43.078C186.829 42.4807 187.263 42.0187 187.814 41.692C188.374 41.3653 188.999 41.202 189.69 41.202C190.287 41.202 190.842 41.342 191.356 41.622C191.869 41.8927 192.261 42.252 192.532 42.7V38.64H193.82V49H192.532V47.558C192.28 48.0153 191.906 48.3933 191.412 48.692C190.917 48.9813 190.338 49.126 189.676 49.126C188.994 49.126 188.374 48.958 187.814 48.622C187.263 48.286 186.829 47.8147 186.512 47.208C186.194 46.6013 186.036 45.9107 186.036 45.136ZM192.532 45.15C192.532 44.5713 192.415 44.0673 192.182 43.638C191.948 43.2087 191.631 42.882 191.23 42.658C190.838 42.4247 190.404 42.308 189.928 42.308C189.452 42.308 189.018 42.42 188.626 42.644C188.234 42.868 187.921 43.1947 187.688 43.624C187.454 44.0533 187.338 44.5573 187.338 45.136C187.338 45.724 187.454 46.2373 187.688 46.676C187.921 47.1053 188.234 47.4367 188.626 47.67C189.018 47.894 189.452 48.006 189.928 48.006C190.404 48.006 190.838 47.894 191.23 47.67C191.631 47.4367 191.948 47.1053 192.182 46.676C192.415 46.2373 192.532 45.7287 192.532 45.15ZM199.319 49.126C198.6 49.126 197.947 48.9627 197.359 48.636C196.78 48.3093 196.323 47.8473 195.987 47.25C195.66 46.6433 195.497 45.9433 195.497 45.15C195.497 44.366 195.665 43.6753 196.001 43.078C196.346 42.4713 196.813 42.0093 197.401 41.692C197.989 41.3653 198.647 41.202 199.375 41.202C200.103 41.202 200.761 41.3653 201.349 41.692C201.937 42.0093 202.399 42.4667 202.735 43.064C203.08 43.6613 203.253 44.3567 203.253 45.15C203.253 45.9433 203.075 46.6433 202.721 47.25C202.375 47.8473 201.904 48.3093 201.307 48.636C200.709 48.9627 200.047 49.126 199.319 49.126ZM199.319 48.006C199.776 48.006 200.205 47.8987 200.607 47.684C201.008 47.4693 201.33 47.1473 201.573 46.718C201.825 46.2887 201.951 45.766 201.951 45.15C201.951 44.534 201.829 44.0113 201.587 43.582C201.344 43.1527 201.027 42.8353 200.635 42.63C200.243 42.4153 199.818 42.308 199.361 42.308C198.894 42.308 198.465 42.4153 198.073 42.63C197.69 42.8353 197.382 43.1527 197.149 43.582C196.915 44.0113 196.799 44.534 196.799 45.15C196.799 45.7753 196.911 46.3027 197.135 46.732C197.368 47.1613 197.676 47.4833 198.059 47.698C198.441 47.9033 198.861 48.006 199.319 48.006ZM206.244 47.236L204.676 51.002H203.822L204.844 47.236H206.244ZM19.886 62.188C20.4647 62.188 20.9873 62.314 21.454 62.566C21.9207 62.8087 22.2847 63.1773 22.546 63.672C22.8167 64.1667 22.952 64.7687 22.952 65.478V70H21.692V65.66C21.692 64.8947 21.5007 64.3113 21.118 63.91C20.7353 63.4993 20.2127 63.294 19.55 63.294C18.878 63.294 18.3413 63.504 17.94 63.924C17.548 64.344 17.352 64.9553 17.352 65.758V70H16.078V59.64H17.352V63.42C17.604 63.028 17.9493 62.7247 18.388 62.51C18.836 62.2953 19.3353 62.188 19.886 62.188ZM28.3791 70.126C27.6604 70.126 27.0071 69.9627 26.4191 69.636C25.8404 69.3093 25.3831 68.8473 25.0471 68.25C24.7204 67.6433 24.5571 66.9433 24.5571 66.15C24.5571 65.366 24.7251 64.6753 25.0611 64.078C25.4064 63.4713 25.8731 63.0093 26.4611 62.692C27.0491 62.3653 27.7071 62.202 28.4351 62.202C29.1631 62.202 29.8211 62.3653 30.4091 62.692C30.9971 63.0093 31.4591 63.4667 31.7951 64.064C32.1404 64.6613 32.3131 65.3567 32.3131 66.15C32.3131 66.9433 32.1357 67.6433 31.7811 68.25C31.4357 68.8473 30.9644 69.3093 30.3671 69.636C29.7697 69.9627 29.1071 70.126 28.3791 70.126ZM28.3791 69.006C28.8364 69.006 29.2657 68.8987 29.6671 68.684C30.0684 68.4693 30.3904 68.1473 30.6331 67.718C30.8851 67.2887 31.0111 66.766 31.0111 66.15C31.0111 65.534 30.8897 65.0113 30.6471 64.582C30.4044 64.1527 30.0871 63.8353 29.6951 63.63C29.3031 63.4153 28.8784 63.308 28.4211 63.308C27.9544 63.308 27.5251 63.4153 27.1331 63.63C26.7504 63.8353 26.4424 64.1527 26.2091 64.582C25.9757 65.0113 25.8591 65.534 25.8591 66.15C25.8591 66.7753 25.9711 67.3027 26.1951 67.732C26.4284 68.1613 26.7364 68.4833 27.1191 68.698C27.5017 68.9033 27.9217 69.006 28.3791 69.006ZM44.2082 62.328L41.8142 70H40.4982L38.6502 63.91L36.8022 70H35.4862L33.0782 62.328H34.3802L36.1442 68.768L38.0482 62.328H39.3502L41.2122 68.782L42.9482 62.328H44.2082ZM48.729 66.136C48.729 65.352 48.8876 64.666 49.205 64.078C49.5223 63.4807 49.9563 63.0187 50.507 62.692C51.067 62.3653 51.6923 62.202 52.383 62.202C52.9803 62.202 53.5356 62.342 54.049 62.622C54.5623 62.8927 54.9543 63.252 55.225 63.7V59.64H56.513V70H55.225V68.558C54.973 69.0153 54.5996 69.3933 54.105 69.692C53.6103 69.9813 53.0316 70.126 52.369 70.126C51.6876 70.126 51.067 69.958 50.507 69.622C49.9563 69.286 49.5223 68.8147 49.205 68.208C48.8876 67.6013 48.729 66.9107 48.729 66.136ZM55.225 66.15C55.225 65.5713 55.1083 65.0673 54.875 64.638C54.6416 64.2087 54.3243 63.882 53.923 63.658C53.531 63.4247 53.097 63.308 52.621 63.308C52.145 63.308 51.711 63.42 51.319 63.644C50.927 63.868 50.6143 64.1947 50.381 64.624C50.1476 65.0533 50.031 65.5573 50.031 66.136C50.031 66.724 50.1476 67.2373 50.381 67.676C50.6143 68.1053 50.927 68.4367 51.319 68.67C51.711 68.894 52.145 69.006 52.621 69.006C53.097 69.006 53.531 68.894 53.923 68.67C54.3243 68.4367 54.6416 68.1053 54.875 67.676C55.1083 67.2373 55.225 66.7287 55.225 66.15ZM62.0119 70.126C61.2932 70.126 60.6399 69.9627 60.0519 69.636C59.4732 69.3093 59.0159 68.8473 58.6799 68.25C58.3532 67.6433 58.1899 66.9433 58.1899 66.15C58.1899 65.366 58.3579 64.6753 58.6939 64.078C59.0392 63.4713 59.5059 63.0093 60.0939 62.692C60.6819 62.3653 61.3399 62.202 62.0679 62.202C62.7959 62.202 63.4539 62.3653 64.0419 62.692C64.6299 63.0093 65.0919 63.4667 65.4279 64.064C65.7732 64.6613 65.9459 65.3567 65.9459 66.15C65.9459 66.9433 65.7686 67.6433 65.4139 68.25C65.0686 68.8473 64.5972 69.3093 63.9999 69.636C63.4026 69.9627 62.7399 70.126 62.0119 70.126ZM62.0119 69.006C62.4692 69.006 62.8986 68.8987 63.2999 68.684C63.7012 68.4693 64.0232 68.1473 64.2659 67.718C64.5179 67.2887 64.6439 66.766 64.6439 66.15C64.6439 65.534 64.5226 65.0113 64.2799 64.582C64.0372 64.1527 63.7199 63.8353 63.3279 63.63C62.9359 63.4153 62.5112 63.308 62.0539 63.308C61.5872 63.308 61.1579 63.4153 60.7659 63.63C60.3832 63.8353 60.0752 64.1527 59.8419 64.582C59.6086 65.0113 59.4919 65.534 59.4919 66.15C59.4919 66.7753 59.6039 67.3027 59.8279 67.732C60.0612 68.1613 60.3692 68.4833 60.7519 68.698C61.1346 68.9033 61.5546 69.006 62.0119 69.006ZM77.9614 62.328L73.3414 73.612H72.0254L73.5374 69.916L70.4434 62.328H71.8574L74.2654 68.544L76.6454 62.328H77.9614ZM82.5881 70.126C81.8694 70.126 81.2161 69.9627 80.6281 69.636C80.0494 69.3093 79.5921 68.8473 79.2561 68.25C78.9294 67.6433 78.7661 66.9433 78.7661 66.15C78.7661 65.366 78.9341 64.6753 79.2701 64.078C79.6154 63.4713 80.0821 63.0093 80.6701 62.692C81.2581 62.3653 81.9161 62.202 82.6441 62.202C83.3721 62.202 84.0301 62.3653 84.6181 62.692C85.2061 63.0093 85.6681 63.4667 86.0041 64.064C86.3494 64.6613 86.5221 65.3567 86.5221 66.15C86.5221 66.9433 86.3447 67.6433 85.9901 68.25C85.6447 68.8473 85.1734 69.3093 84.5761 69.636C83.9787 69.9627 83.3161 70.126 82.5881 70.126ZM82.5881 69.006C83.0454 69.006 83.4747 68.8987 83.8761 68.684C84.2774 68.4693 84.5994 68.1473 84.8421 67.718C85.0941 67.2887 85.2201 66.766 85.2201 66.15C85.2201 65.534 85.0987 65.0113 84.8561 64.582C84.6134 64.1527 84.2961 63.8353 83.9041 63.63C83.5121 63.4153 83.0874 63.308 82.6301 63.308C82.1634 63.308 81.7341 63.4153 81.3421 63.63C80.9594 63.8353 80.6514 64.1527 80.4181 64.582C80.1847 65.0113 80.0681 65.534 80.0681 66.15C80.0681 66.7753 80.1801 67.3027 80.4041 67.732C80.6374 68.1613 80.9454 68.4833 81.3281 68.698C81.7107 68.9033 82.1307 69.006 82.5881 69.006ZM95.0011 62.328V70H93.7271V68.866C93.4845 69.258 93.1438 69.566 92.7051 69.79C92.2758 70.0047 91.7998 70.112 91.2771 70.112C90.6798 70.112 90.1431 69.9907 89.6671 69.748C89.1911 69.496 88.8131 69.1227 88.5331 68.628C88.2625 68.1333 88.1271 67.5313 88.1271 66.822V62.328H89.3871V66.654C89.3871 67.41 89.5785 67.9933 89.9611 68.404C90.3438 68.8053 90.8665 69.006 91.5291 69.006C92.2105 69.006 92.7471 68.796 93.1391 68.376C93.5311 67.956 93.7271 67.3447 93.7271 66.542V62.328H95.0011ZM104.693 62.188C105.271 62.188 105.794 62.314 106.261 62.566C106.727 62.8087 107.091 63.1773 107.353 63.672C107.623 64.1667 107.759 64.7687 107.759 65.478V70H106.499V65.66C106.499 64.8947 106.307 64.3113 105.925 63.91C105.542 63.4993 105.019 63.294 104.357 63.294C103.685 63.294 103.148 63.504 102.747 63.924C102.355 64.344 102.159 64.9553 102.159 65.758V70H100.885V59.64H102.159V63.42C102.411 63.028 102.756 62.7247 103.195 62.51C103.643 62.2953 104.142 62.188 104.693 62.188ZM109.364 66.136C109.364 65.352 109.522 64.666 109.84 64.078C110.157 63.4807 110.591 63.0187 111.142 62.692C111.702 62.3653 112.322 62.202 113.004 62.202C113.676 62.202 114.259 62.3467 114.754 62.636C115.248 62.9253 115.617 63.2893 115.86 63.728V62.328H117.148V70H115.86V68.572C115.608 69.02 115.23 69.3933 114.726 69.692C114.231 69.9813 113.652 70.126 112.99 70.126C112.308 70.126 111.692 69.958 111.142 69.622C110.591 69.286 110.157 68.8147 109.84 68.208C109.522 67.6013 109.364 66.9107 109.364 66.136ZM115.86 66.15C115.86 65.5713 115.743 65.0673 115.51 64.638C115.276 64.2087 114.959 63.882 114.558 63.658C114.166 63.4247 113.732 63.308 113.256 63.308C112.78 63.308 112.346 63.42 111.954 63.644C111.562 63.868 111.249 64.1947 111.016 64.624C110.782 65.0533 110.666 65.5573 110.666 66.136C110.666 66.724 110.782 67.2373 111.016 67.676C111.249 68.1053 111.562 68.4367 111.954 68.67C112.346 68.894 112.78 69.006 113.256 69.006C113.732 69.006 114.166 68.894 114.558 68.67C114.959 68.4367 115.276 68.1053 115.51 67.676C115.743 67.2373 115.86 66.7287 115.86 66.15ZM123.039 62.188C123.972 62.188 124.728 62.4727 125.307 63.042C125.885 63.602 126.175 64.414 126.175 65.478V70H124.915V65.66C124.915 64.8947 124.723 64.3113 124.341 63.91C123.958 63.4993 123.435 63.294 122.773 63.294C122.101 63.294 121.564 63.504 121.163 63.924C120.771 64.344 120.575 64.9553 120.575 65.758V70H119.301V62.328H120.575V63.42C120.827 63.028 121.167 62.7247 121.597 62.51C122.035 62.2953 122.516 62.188 123.039 62.188ZM127.78 66.136C127.78 65.352 127.938 64.666 128.256 64.078C128.573 63.4807 129.007 63.0187 129.558 62.692C130.118 62.3653 130.743 62.202 131.434 62.202C132.031 62.202 132.586 62.342 133.1 62.622C133.613 62.8927 134.005 63.252 134.276 63.7V59.64H135.564V70H134.276V68.558C134.024 69.0153 133.65 69.3933 133.156 69.692C132.661 69.9813 132.082 70.126 131.42 70.126C130.738 70.126 130.118 69.958 129.558 69.622C129.007 69.286 128.573 68.8147 128.256 68.208C127.938 67.6013 127.78 66.9107 127.78 66.136ZM134.276 66.15C134.276 65.5713 134.159 65.0673 133.926 64.638C133.692 64.2087 133.375 63.882 132.974 63.658C132.582 63.4247 132.148 63.308 131.672 63.308C131.196 63.308 130.762 63.42 130.37 63.644C129.978 63.868 129.665 64.1947 129.432 64.624C129.198 65.0533 129.082 65.5573 129.082 66.136C129.082 66.724 129.198 67.2373 129.432 67.676C129.665 68.1053 129.978 68.4367 130.37 68.67C130.762 68.894 131.196 69.006 131.672 69.006C132.148 69.006 132.582 68.894 132.974 68.67C133.375 68.4367 133.692 68.1053 133.926 67.676C134.159 67.2373 134.276 66.7287 134.276 66.15ZM138.991 59.64V70H137.717V59.64H138.991ZM148.162 65.87C148.162 66.1127 148.148 66.3693 148.12 66.64H141.988C142.035 67.396 142.291 67.9887 142.758 68.418C143.234 68.838 143.808 69.048 144.48 69.048C145.031 69.048 145.488 68.922 145.852 68.67C146.225 68.4087 146.487 68.0633 146.636 67.634H148.008C147.803 68.3713 147.392 68.9733 146.776 69.44C146.16 69.8973 145.395 70.126 144.48 70.126C143.752 70.126 143.099 69.9627 142.52 69.636C141.951 69.3093 141.503 68.8473 141.176 68.25C140.849 67.6433 140.686 66.9433 140.686 66.15C140.686 65.3567 140.845 64.6613 141.162 64.064C141.479 63.4667 141.923 63.0093 142.492 62.692C143.071 62.3653 143.733 62.202 144.48 62.202C145.208 62.202 145.852 62.3607 146.412 62.678C146.972 62.9953 147.401 63.434 147.7 63.994C148.008 64.5447 148.162 65.17 148.162 65.87ZM146.846 65.604C146.846 65.1187 146.739 64.7033 146.524 64.358C146.309 64.0033 146.015 63.7373 145.642 63.56C145.278 63.3733 144.872 63.28 144.424 63.28C143.78 63.28 143.229 63.4853 142.772 63.896C142.324 64.3067 142.067 64.876 142.002 65.604H146.846ZM156.292 70.126C155.704 70.126 155.177 70.028 154.71 69.832C154.243 69.6267 153.875 69.3467 153.604 68.992C153.333 68.628 153.184 68.2127 153.156 67.746H154.472C154.509 68.1287 154.687 68.4413 155.004 68.684C155.331 68.9267 155.755 69.048 156.278 69.048C156.763 69.048 157.146 68.9407 157.426 68.726C157.706 68.5113 157.846 68.2407 157.846 67.914C157.846 67.578 157.697 67.3307 157.398 67.172C157.099 67.004 156.637 66.8407 156.012 66.682C155.443 66.5327 154.976 66.3833 154.612 66.234C154.257 66.0753 153.949 65.8467 153.688 65.548C153.436 65.24 153.31 64.8387 153.31 64.344C153.31 63.952 153.427 63.5927 153.66 63.266C153.893 62.9393 154.225 62.6827 154.654 62.496C155.083 62.3 155.573 62.202 156.124 62.202C156.973 62.202 157.659 62.4167 158.182 62.846C158.705 63.2753 158.985 63.8633 159.022 64.61H157.748C157.72 64.2087 157.557 63.8867 157.258 63.644C156.969 63.4013 156.577 63.28 156.082 63.28C155.625 63.28 155.261 63.378 154.99 63.574C154.719 63.77 154.584 64.0267 154.584 64.344C154.584 64.596 154.663 64.806 154.822 64.974C154.99 65.1327 155.195 65.2633 155.438 65.366C155.69 65.4593 156.035 65.5667 156.474 65.688C157.025 65.8373 157.473 65.9867 157.818 66.136C158.163 66.276 158.457 66.4907 158.7 66.78C158.952 67.0693 159.083 67.4473 159.092 67.914C159.092 68.334 158.975 68.712 158.742 69.048C158.509 69.384 158.177 69.65 157.748 69.846C157.328 70.0327 156.843 70.126 156.292 70.126ZM160.415 66.136C160.415 65.352 160.573 64.666 160.891 64.078C161.208 63.4807 161.642 63.0187 162.193 62.692C162.753 62.3653 163.373 62.202 164.055 62.202C164.727 62.202 165.31 62.3467 165.805 62.636C166.299 62.9253 166.668 63.2893 166.911 63.728V62.328H168.199V70H166.911V68.572C166.659 69.02 166.281 69.3933 165.777 69.692C165.282 69.9813 164.703 70.126 164.041 70.126C163.359 70.126 162.743 69.958 162.193 69.622C161.642 69.286 161.208 68.8147 160.891 68.208C160.573 67.6013 160.415 66.9107 160.415 66.136ZM166.911 66.15C166.911 65.5713 166.794 65.0673 166.561 64.638C166.327 64.2087 166.01 63.882 165.609 63.658C165.217 63.4247 164.783 63.308 164.307 63.308C163.831 63.308 163.397 63.42 163.005 63.644C162.613 63.868 162.3 64.1947 162.067 64.624C161.833 65.0533 161.717 65.5573 161.717 66.136C161.717 66.724 161.833 67.2373 162.067 67.676C162.3 68.1053 162.613 68.4367 163.005 68.67C163.397 68.894 163.831 69.006 164.307 69.006C164.783 69.006 165.217 68.894 165.609 68.67C166.01 68.4367 166.327 68.1053 166.561 67.676C166.794 67.2373 166.911 66.7287 166.911 66.15ZM176.959 62.328L172.339 73.612H171.023L172.535 69.916L169.441 62.328H170.855L173.263 68.544L175.643 62.328H176.959ZM178.898 61.082C178.655 61.082 178.45 60.998 178.282 60.83C178.114 60.662 178.03 60.4567 178.03 60.214C178.03 59.9713 178.114 59.766 178.282 59.598C178.45 59.43 178.655 59.346 178.898 59.346C179.131 59.346 179.327 59.43 179.486 59.598C179.654 59.766 179.738 59.9713 179.738 60.214C179.738 60.4567 179.654 60.662 179.486 60.83C179.327 60.998 179.131 61.082 178.898 61.082ZM179.514 62.328V70H178.24V62.328H179.514ZM185.423 62.188C186.357 62.188 187.113 62.4727 187.691 63.042C188.27 63.602 188.559 64.414 188.559 65.478V70H187.299V65.66C187.299 64.8947 187.108 64.3113 186.725 63.91C186.343 63.4993 185.82 63.294 185.157 63.294C184.485 63.294 183.949 63.504 183.547 63.924C183.155 64.344 182.959 64.9553 182.959 65.758V70H181.685V62.328H182.959V63.42C183.211 63.028 183.552 62.7247 183.981 62.51C184.42 62.2953 184.901 62.188 185.423 62.188ZM193.805 62.202C194.467 62.202 195.046 62.3467 195.541 62.636C196.045 62.9253 196.418 63.2893 196.661 63.728V62.328H197.949V70.168C197.949 70.868 197.799 71.4887 197.501 72.03C197.202 72.5807 196.773 73.01 196.213 73.318C195.662 73.626 195.018 73.78 194.281 73.78C193.273 73.78 192.433 73.542 191.761 73.066C191.089 72.59 190.692 71.9413 190.571 71.12H191.831C191.971 71.5867 192.26 71.96 192.699 72.24C193.137 72.5293 193.665 72.674 194.281 72.674C194.981 72.674 195.55 72.4547 195.989 72.016C196.437 71.5773 196.661 70.9613 196.661 70.168V68.558C196.409 69.006 196.035 69.3793 195.541 69.678C195.046 69.9767 194.467 70.126 193.805 70.126C193.123 70.126 192.503 69.958 191.943 69.622C191.392 69.286 190.958 68.8147 190.641 68.208C190.323 67.6013 190.165 66.9107 190.165 66.136C190.165 65.352 190.323 64.666 190.641 64.078C190.958 63.4807 191.392 63.0187 191.943 62.692C192.503 62.3653 193.123 62.202 193.805 62.202ZM196.661 66.15C196.661 65.5713 196.544 65.0673 196.311 64.638C196.077 64.2087 195.76 63.882 195.359 63.658C194.967 63.4247 194.533 63.308 194.057 63.308C193.581 63.308 193.147 63.42 192.755 63.644C192.363 63.868 192.05 64.1947 191.817 64.624C191.583 65.0533 191.467 65.5573 191.467 66.136C191.467 66.724 191.583 67.2373 191.817 67.676C192.05 68.1053 192.363 68.4367 192.755 68.67C193.147 68.894 193.581 69.006 194.057 69.006C194.533 69.006 194.967 68.894 195.359 68.67C195.76 68.4367 196.077 68.1053 196.311 67.676C196.544 67.2373 196.661 66.7287 196.661 66.15ZM19.816 83.188C20.7493 83.188 21.5053 83.4727 22.084 84.042C22.6627 84.602 22.952 85.414 22.952 86.478V91H21.692V86.66C21.692 85.8947 21.5007 85.3113 21.118 84.91C20.7353 84.4993 20.2127 84.294 19.55 84.294C18.878 84.294 18.3413 84.504 17.94 84.924C17.548 85.344 17.352 85.9553 17.352 86.758V91H16.078V83.328H17.352V84.42C17.604 84.028 17.9447 83.7247 18.374 83.51C18.8127 83.2953 19.2933 83.188 19.816 83.188ZM28.3791 91.126C27.6604 91.126 27.0071 90.9627 26.4191 90.636C25.8404 90.3093 25.3831 89.8473 25.0471 89.25C24.7204 88.6433 24.5571 87.9433 24.5571 87.15C24.5571 86.366 24.7251 85.6753 25.0611 85.078C25.4064 84.4713 25.8731 84.0093 26.4611 83.692C27.0491 83.3653 27.7071 83.202 28.4351 83.202C29.1631 83.202 29.8211 83.3653 30.4091 83.692C30.9971 84.0093 31.4591 84.4667 31.7951 85.064C32.1404 85.6613 32.3131 86.3567 32.3131 87.15C32.3131 87.9433 32.1357 88.6433 31.7811 89.25C31.4357 89.8473 30.9644 90.3093 30.3671 90.636C29.7697 90.9627 29.1071 91.126 28.3791 91.126ZM28.3791 90.006C28.8364 90.006 29.2657 89.8987 29.6671 89.684C30.0684 89.4693 30.3904 89.1473 30.6331 88.718C30.8851 88.2887 31.0111 87.766 31.0111 87.15C31.0111 86.534 30.8897 86.0113 30.6471 85.582C30.4044 85.1527 30.0871 84.8353 29.6951 84.63C29.3031 84.4153 28.8784 84.308 28.4211 84.308C27.9544 84.308 27.5251 84.4153 27.1331 84.63C26.7504 84.8353 26.4424 85.1527 26.2091 85.582C25.9757 86.0113 25.8591 86.534 25.8591 87.15C25.8591 87.7753 25.9711 88.3027 26.1951 88.732C26.4284 89.1613 26.7364 89.4833 27.1191 89.698C27.5017 89.9033 27.9217 90.006 28.3791 90.006ZM36.4802 81.116C37.4042 81.116 38.1508 81.3773 38.7202 81.9C39.2895 82.4227 39.5742 83.1227 39.5742 84C39.5742 84.98 39.2708 85.708 38.6642 86.184C38.0575 86.6507 37.2362 86.884 36.2002 86.884L36.1582 88.214H35.0522L34.9962 86.002H35.4022C36.3262 86.002 37.0495 85.862 37.5722 85.582C38.0948 85.302 38.3562 84.7747 38.3562 84C38.3562 83.44 38.1882 82.9967 37.8522 82.67C37.5162 82.3433 37.0635 82.18 36.4942 82.18C35.9155 82.18 35.4582 82.3387 35.1222 82.656C34.7955 82.964 34.6322 83.3887 34.6322 83.93H33.4282C33.4282 83.37 33.5542 82.88 33.8062 82.46C34.0582 82.0307 34.4128 81.6993 34.8702 81.466C35.3368 81.2327 35.8735 81.116 36.4802 81.116ZM35.5982 91.084C35.3555 91.084 35.1502 91 34.9822 90.832C34.8142 90.664 34.7302 90.4587 34.7302 90.216C34.7302 89.9733 34.8142 89.768 34.9822 89.6C35.1502 89.432 35.3555 89.348 35.5982 89.348C35.8315 89.348 36.0275 89.432 36.1862 89.6C36.3542 89.768 36.4382 89.9733 36.4382 90.216C36.4382 90.4587 36.3542 90.664 36.1862 90.832C36.0275 91 35.8315 91.084 35.5982 91.084Z" fill="black"/>
</svg>
