<svg width="232" height="110" viewBox="0 0 232 110" fill="none" xmlns="http://www.w3.org/2000/svg">
<path d="M0.5 0.5H220C226.351 0.5 231.5 5.64873 231.5 12V98C231.5 104.351 226.351 109.5 220 109.5H12C5.64873 109.5 0.5 104.351 0.5 98V0.5Z" stroke="#939393"/>
<path d="M25.976 28.312V38H24.702V30.776L21.482 38H20.586L17.352 30.762V38H16.078V28.312H17.45L21.034 36.32L24.618 28.312H25.976ZM28.7946 29.082C28.5519 29.082 28.3466 28.998 28.1786 28.83C28.0106 28.662 27.9266 28.4567 27.9266 28.214C27.9266 27.9713 28.0106 27.766 28.1786 27.598C28.3466 27.43 28.5519 27.346 28.7946 27.346C29.0279 27.346 29.2239 27.43 29.3826 27.598C29.5506 27.766 29.6346 27.9713 29.6346 28.214C29.6346 28.4567 29.5506 28.662 29.3826 28.83C29.2239 28.998 29.0279 29.082 28.7946 29.082ZM29.4106 30.328V38H28.1366V30.328H29.4106ZM35.3199 30.188C36.2532 30.188 37.0092 30.4727 37.5879 31.042C38.1666 31.602 38.4559 32.414 38.4559 33.478V38H37.1959V33.66C37.1959 32.8947 37.0046 32.3113 36.6219 31.91C36.2392 31.4993 35.7166 31.294 35.0539 31.294C34.3819 31.294 33.8452 31.504 33.4439 31.924C33.0519 32.344 32.8559 32.9553 32.8559 33.758V38H31.5819V30.328H32.8559V31.42C33.1079 31.028 33.4486 30.7247 33.8779 30.51C34.3166 30.2953 34.7972 30.188 35.3199 30.188ZM47.341 30.328V38H46.067V36.866C45.8243 37.258 45.4837 37.566 45.045 37.79C44.6157 38.0047 44.1397 38.112 43.617 38.112C43.0197 38.112 42.483 37.9907 42.007 37.748C41.531 37.496 41.153 37.1227 40.873 36.628C40.6023 36.1333 40.467 35.5313 40.467 34.822V30.328H41.727V34.654C41.727 35.41 41.9183 35.9933 42.301 36.404C42.6837 36.8053 43.2063 37.006 43.869 37.006C44.5503 37.006 45.087 36.796 45.479 36.376C45.871 35.956 46.067 35.3447 46.067 34.542V30.328H47.341ZM51.0461 31.378V35.9C51.0461 36.2733 51.1254 36.5393 51.2841 36.698C51.4427 36.8473 51.7181 36.922 52.1101 36.922H53.0481V38H51.9001C51.1907 38 50.6587 37.8367 50.3041 37.51C49.9494 37.1833 49.7721 36.6467 49.7721 35.9V31.378H48.7781V30.328H49.7721V28.396H51.0461V30.328H53.0481V31.378H51.0461ZM61.5917 33.87C61.5917 34.1127 61.5777 34.3693 61.5497 34.64H55.4177C55.4643 35.396 55.721 35.9887 56.1877 36.418C56.6637 36.838 57.2377 37.048 57.9097 37.048C58.4603 37.048 58.9177 36.922 59.2817 36.67C59.655 36.4087 59.9163 36.0633 60.0657 35.634H61.4377C61.2323 36.3713 60.8217 36.9733 60.2057 37.44C59.5897 37.8973 58.8243 38.126 57.9097 38.126C57.1817 38.126 56.5283 37.9627 55.9497 37.636C55.3803 37.3093 54.9323 36.8473 54.6057 36.25C54.279 35.6433 54.1157 34.9433 54.1157 34.15C54.1157 33.3567 54.2743 32.6613 54.5917 32.064C54.909 31.4667 55.3523 31.0093 55.9217 30.692C56.5003 30.3653 57.163 30.202 57.9097 30.202C58.6377 30.202 59.2817 30.3607 59.8417 30.678C60.4017 30.9953 60.831 31.434 61.1297 31.994C61.4377 32.5447 61.5917 33.17 61.5917 33.87ZM60.2757 33.604C60.2757 33.1187 60.1683 32.7033 59.9537 32.358C59.739 32.0033 59.445 31.7373 59.0717 31.56C58.7077 31.3733 58.3017 31.28 57.8537 31.28C57.2097 31.28 56.659 31.4853 56.2017 31.896C55.7537 32.3067 55.497 32.876 55.4317 33.604H60.2757ZM65.9893 38.126C65.4013 38.126 64.874 38.028 64.4073 37.832C63.9406 37.6267 63.572 37.3467 63.3013 36.992C63.0306 36.628 62.8813 36.2127 62.8533 35.746H64.1693C64.2066 36.1287 64.384 36.4413 64.7013 36.684C65.028 36.9267 65.4526 37.048 65.9753 37.048C66.4606 37.048 66.8433 36.9407 67.1233 36.726C67.4033 36.5113 67.5433 36.2407 67.5433 35.914C67.5433 35.578 67.394 35.3307 67.0953 35.172C66.7966 35.004 66.3346 34.8407 65.7093 34.682C65.14 34.5327 64.6733 34.3833 64.3093 34.234C63.9546 34.0753 63.6466 33.8467 63.3853 33.548C63.1333 33.24 63.0073 32.8387 63.0073 32.344C63.0073 31.952 63.124 31.5927 63.3573 31.266C63.5906 30.9393 63.922 30.6827 64.3513 30.496C64.7806 30.3 65.2706 30.202 65.8213 30.202C66.6706 30.202 67.3566 30.4167 67.8793 30.846C68.402 31.2753 68.682 31.8633 68.7193 32.61H67.4453C67.4173 32.2087 67.254 31.8867 66.9553 31.644C66.666 31.4013 66.274 31.28 65.7793 31.28C65.322 31.28 64.958 31.378 64.6873 31.574C64.4166 31.77 64.2813 32.0267 64.2813 32.344C64.2813 32.596 64.3606 32.806 64.5193 32.974C64.6873 33.1327 64.8926 33.2633 65.1353 33.366C65.3873 33.4593 65.7326 33.5667 66.1713 33.688C66.722 33.8373 67.17 33.9867 67.5153 34.136C67.8606 34.276 68.1546 34.4907 68.3973 34.78C68.6493 35.0693 68.78 35.4473 68.7893 35.914C68.7893 36.334 68.6726 36.712 68.4393 37.048C68.206 37.384 67.8746 37.65 67.4453 37.846C67.0253 38.0327 66.54 38.126 65.9893 38.126ZM75.5942 31.756C75.8555 31.2987 76.2382 30.9253 76.7422 30.636C77.2462 30.3467 77.8202 30.202 78.4642 30.202C79.1549 30.202 79.7755 30.3653 80.3262 30.692C80.8769 31.0187 81.3109 31.4807 81.6282 32.078C81.9455 32.666 82.1042 33.352 82.1042 34.136C82.1042 34.9107 81.9455 35.6013 81.6282 36.208C81.3109 36.8147 80.8722 37.286 80.3122 37.622C79.7615 37.958 79.1455 38.126 78.4642 38.126C77.8015 38.126 77.2182 37.9813 76.7142 37.692C76.2195 37.4027 75.8462 37.034 75.5942 36.586V38H74.3202V27.64H75.5942V31.756ZM80.8022 34.136C80.8022 33.5573 80.6855 33.0533 80.4522 32.624C80.2189 32.1947 79.9015 31.868 79.5002 31.644C79.1082 31.42 78.6742 31.308 78.1982 31.308C77.7315 31.308 77.2975 31.4247 76.8962 31.658C76.5042 31.882 76.1869 32.2133 75.9442 32.652C75.7109 33.0813 75.5942 33.5807 75.5942 34.15C75.5942 34.7287 75.7109 35.2373 75.9442 35.676C76.1869 36.1053 76.5042 36.4367 76.8962 36.67C77.2975 36.894 77.7315 37.006 78.1982 37.006C78.6742 37.006 79.1082 36.894 79.5002 36.67C79.9015 36.4367 80.2189 36.1053 80.4522 35.676C80.6855 35.2373 80.8022 34.724 80.8022 34.136ZM90.7811 33.87C90.7811 34.1127 90.7671 34.3693 90.7391 34.64H84.6071C84.6538 35.396 84.9105 35.9887 85.3771 36.418C85.8531 36.838 86.4271 37.048 87.0991 37.048C87.6498 37.048 88.1071 36.922 88.4711 36.67C88.8445 36.4087 89.1058 36.0633 89.2551 35.634H90.6271C90.4218 36.3713 90.0111 36.9733 89.3951 37.44C88.7791 37.8973 88.0138 38.126 87.0991 38.126C86.3711 38.126 85.7178 37.9627 85.1391 37.636C84.5698 37.3093 84.1218 36.8473 83.7951 36.25C83.4685 35.6433 83.3051 34.9433 83.3051 34.15C83.3051 33.3567 83.4638 32.6613 83.7811 32.064C84.0985 31.4667 84.5418 31.0093 85.1111 30.692C85.6898 30.3653 86.3525 30.202 87.0991 30.202C87.8271 30.202 88.4711 30.3607 89.0311 30.678C89.5911 30.9953 90.0205 31.434 90.3191 31.994C90.6271 32.5447 90.7811 33.17 90.7811 33.87ZM89.4651 33.604C89.4651 33.1187 89.3578 32.7033 89.1431 32.358C88.9285 32.0033 88.6345 31.7373 88.2611 31.56C87.8971 31.3733 87.4911 31.28 87.0431 31.28C86.3991 31.28 85.8485 31.4853 85.3911 31.896C84.9431 32.3067 84.6865 32.876 84.6211 33.604H89.4651ZM95.5848 31.378H93.9748V38H92.7008V31.378H91.7068V30.328H92.7008V29.782C92.7008 28.9233 92.9201 28.298 93.3588 27.906C93.8068 27.5047 94.5208 27.304 95.5008 27.304V28.368C94.9408 28.368 94.5441 28.48 94.3108 28.704C94.0868 28.9187 93.9748 29.278 93.9748 29.782V30.328H95.5848V31.378ZM100.416 38.126C99.6975 38.126 99.0442 37.9627 98.4562 37.636C97.8775 37.3093 97.4202 36.8473 97.0842 36.25C96.7575 35.6433 96.5942 34.9433 96.5942 34.15C96.5942 33.366 96.7622 32.6753 97.0982 32.078C97.4435 31.4713 97.9102 31.0093 98.4982 30.692C99.0862 30.3653 99.7442 30.202 100.472 30.202C101.2 30.202 101.858 30.3653 102.446 30.692C103.034 31.0093 103.496 31.4667 103.832 32.064C104.178 32.6613 104.35 33.3567 104.35 34.15C104.35 34.9433 104.173 35.6433 103.818 36.25C103.473 36.8473 103.002 37.3093 102.404 37.636C101.807 37.9627 101.144 38.126 100.416 38.126ZM100.416 37.006C100.874 37.006 101.303 36.8987 101.704 36.684C102.106 36.4693 102.428 36.1473 102.67 35.718C102.922 35.2887 103.048 34.766 103.048 34.15C103.048 33.534 102.927 33.0113 102.684 32.582C102.442 32.1527 102.124 31.8353 101.732 31.63C101.34 31.4153 100.916 31.308 100.458 31.308C99.9915 31.308 99.5622 31.4153 99.1702 31.63C98.7875 31.8353 98.4795 32.1527 98.2462 32.582C98.0129 33.0113 97.8962 33.534 97.8962 34.15C97.8962 34.7753 98.0082 35.3027 98.2322 35.732C98.4655 36.1613 98.7735 36.4833 99.1562 36.698C99.5389 36.9033 99.9589 37.006 100.416 37.006ZM107.299 31.574C107.523 31.1353 107.841 30.7947 108.251 30.552C108.671 30.3093 109.18 30.188 109.777 30.188V31.504H109.441C108.013 31.504 107.299 32.2787 107.299 33.828V38H106.025V30.328H107.299V31.574ZM118.248 33.87C118.248 34.1127 118.234 34.3693 118.206 34.64H112.074C112.121 35.396 112.377 35.9887 112.844 36.418C113.32 36.838 113.894 37.048 114.566 37.048C115.117 37.048 115.574 36.922 115.938 36.67C116.311 36.4087 116.573 36.0633 116.722 35.634H118.094C117.889 36.3713 117.478 36.9733 116.862 37.44C116.246 37.8973 115.481 38.126 114.566 38.126C113.838 38.126 113.185 37.9627 112.606 37.636C112.037 37.3093 111.589 36.8473 111.262 36.25C110.935 35.6433 110.772 34.9433 110.772 34.15C110.772 33.3567 110.931 32.6613 111.248 32.064C111.565 31.4667 112.009 31.0093 112.578 30.692C113.157 30.3653 113.819 30.202 114.566 30.202C115.294 30.202 115.938 30.3607 116.498 30.678C117.058 30.9953 117.487 31.434 117.786 31.994C118.094 32.5447 118.248 33.17 118.248 33.87ZM116.932 33.604C116.932 33.1187 116.825 32.7033 116.61 32.358C116.395 32.0033 116.101 31.7373 115.728 31.56C115.364 31.3733 114.958 31.28 114.51 31.28C113.866 31.28 113.315 31.4853 112.858 31.896C112.41 32.3067 112.153 32.876 112.088 33.604H116.932ZM130.27 30.328L125.65 41.612H124.334L125.846 37.916L122.752 30.328H124.166L126.574 36.544L128.954 30.328H130.27ZM134.897 38.126C134.178 38.126 133.525 37.9627 132.937 37.636C132.358 37.3093 131.901 36.8473 131.565 36.25C131.238 35.6433 131.075 34.9433 131.075 34.15C131.075 33.366 131.243 32.6753 131.579 32.078C131.924 31.4713 132.391 31.0093 132.979 30.692C133.567 30.3653 134.225 30.202 134.953 30.202C135.681 30.202 136.339 30.3653 136.927 30.692C137.515 31.0093 137.977 31.4667 138.313 32.064C138.658 32.6613 138.831 33.3567 138.831 34.15C138.831 34.9433 138.653 35.6433 138.299 36.25C137.953 36.8473 137.482 37.3093 136.885 37.636C136.287 37.9627 135.625 38.126 134.897 38.126ZM134.897 37.006C135.354 37.006 135.783 36.8987 136.185 36.684C136.586 36.4693 136.908 36.1473 137.151 35.718C137.403 35.2887 137.529 34.766 137.529 34.15C137.529 33.534 137.407 33.0113 137.165 32.582C136.922 32.1527 136.605 31.8353 136.213 31.63C135.821 31.4153 135.396 31.308 134.939 31.308C134.472 31.308 134.043 31.4153 133.651 31.63C133.268 31.8353 132.96 32.1527 132.727 32.582C132.493 33.0113 132.377 33.534 132.377 34.15C132.377 34.7753 132.489 35.3027 132.713 35.732C132.946 36.1613 133.254 36.4833 133.637 36.698C134.019 36.9033 134.439 37.006 134.897 37.006ZM147.31 30.328V38H146.036V36.866C145.793 37.258 145.452 37.566 145.014 37.79C144.584 38.0047 144.108 38.112 143.586 38.112C142.988 38.112 142.452 37.9907 141.976 37.748C141.5 37.496 141.122 37.1227 140.842 36.628C140.571 36.1333 140.436 35.5313 140.436 34.822V30.328H141.696V34.654C141.696 35.41 141.887 35.9933 142.27 36.404C142.652 36.8053 143.175 37.006 143.838 37.006C144.519 37.006 145.056 36.796 145.448 36.376C145.84 35.956 146.036 35.3447 146.036 34.542V30.328H147.31ZM162.419 30.188C163.017 30.188 163.549 30.314 164.015 30.566C164.482 30.8087 164.851 31.1773 165.121 31.672C165.392 32.1667 165.527 32.7687 165.527 33.478V38H164.267V33.66C164.267 32.8947 164.076 32.3113 163.693 31.91C163.32 31.4993 162.811 31.294 162.167 31.294C161.505 31.294 160.977 31.5087 160.585 31.938C160.193 32.358 159.997 32.9693 159.997 33.772V38H158.737V33.66C158.737 32.8947 158.546 32.3113 158.163 31.91C157.79 31.4993 157.281 31.294 156.637 31.294C155.975 31.294 155.447 31.5087 155.055 31.938C154.663 32.358 154.467 32.9693 154.467 33.772V38H153.193V30.328H154.467V31.434C154.719 31.0327 155.055 30.7247 155.475 30.51C155.905 30.2953 156.376 30.188 156.889 30.188C157.533 30.188 158.103 30.3327 158.597 30.622C159.092 30.9113 159.461 31.336 159.703 31.896C159.918 31.3547 160.273 30.9347 160.767 30.636C161.262 30.3373 161.813 30.188 162.419 30.188ZM174.617 33.87C174.617 34.1127 174.603 34.3693 174.575 34.64H168.443C168.49 35.396 168.746 35.9887 169.213 36.418C169.689 36.838 170.263 37.048 170.935 37.048C171.486 37.048 171.943 36.922 172.307 36.67C172.68 36.4087 172.942 36.0633 173.091 35.634H174.463C174.258 36.3713 173.847 36.9733 173.231 37.44C172.615 37.8973 171.85 38.126 170.935 38.126C170.207 38.126 169.554 37.9627 168.975 37.636C168.406 37.3093 167.958 36.8473 167.631 36.25C167.304 35.6433 167.141 34.9433 167.141 34.15C167.141 33.3567 167.3 32.6613 167.617 32.064C167.934 31.4667 168.378 31.0093 168.947 30.692C169.526 30.3653 170.188 30.202 170.935 30.202C171.663 30.202 172.307 30.3607 172.867 30.678C173.427 30.9953 173.856 31.434 174.155 31.994C174.463 32.5447 174.617 33.17 174.617 33.87ZM173.301 33.604C173.301 33.1187 173.194 32.7033 172.979 32.358C172.764 32.0033 172.47 31.7373 172.097 31.56C171.733 31.3733 171.327 31.28 170.879 31.28C170.235 31.28 169.684 31.4853 169.227 31.896C168.779 32.3067 168.522 32.876 168.457 33.604H173.301ZM183.299 33.87C183.299 34.1127 183.285 34.3693 183.257 34.64H177.125C177.171 35.396 177.428 35.9887 177.895 36.418C178.371 36.838 178.945 37.048 179.617 37.048C180.167 37.048 180.625 36.922 180.989 36.67C181.362 36.4087 181.623 36.0633 181.773 35.634H183.145C182.939 36.3713 182.529 36.9733 181.913 37.44C181.297 37.8973 180.531 38.126 179.617 38.126C178.889 38.126 178.235 37.9627 177.657 37.636C177.087 37.3093 176.639 36.8473 176.313 36.25C175.986 35.6433 175.823 34.9433 175.823 34.15C175.823 33.3567 175.981 32.6613 176.299 32.064C176.616 31.4667 177.059 31.0093 177.629 30.692C178.207 30.3653 178.87 30.202 179.617 30.202C180.345 30.202 180.989 30.3607 181.549 30.678C182.109 30.9953 182.538 31.434 182.837 31.994C183.145 32.5447 183.299 33.17 183.299 33.87ZM181.983 33.604C181.983 33.1187 181.875 32.7033 181.661 32.358C181.446 32.0033 181.152 31.7373 180.779 31.56C180.415 31.3733 180.009 31.28 179.561 31.28C178.917 31.28 178.366 31.4853 177.909 31.896C177.461 32.3067 177.204 32.876 177.139 33.604H181.983ZM186.534 31.378V35.9C186.534 36.2733 186.614 36.5393 186.772 36.698C186.931 36.8473 187.206 36.922 187.598 36.922H188.536V38H187.388C186.679 38 186.147 37.8367 185.792 37.51C185.438 37.1833 185.26 36.6467 185.26 35.9V31.378H184.266V30.328H185.26V28.396H186.534V30.328H188.536V31.378H186.534ZM18.794 59.126C18.206 59.126 17.6787 59.028 17.212 58.832C16.7453 58.6267 16.3767 58.3467 16.106 57.992C15.8353 57.628 15.686 57.2127 15.658 56.746H16.974C17.0113 57.1287 17.1887 57.4413 17.506 57.684C17.8327 57.9267 18.2573 58.048 18.78 58.048C19.2653 58.048 19.648 57.9407 19.928 57.726C20.208 57.5113 20.348 57.2407 20.348 56.914C20.348 56.578 20.1987 56.3307 19.9 56.172C19.6013 56.004 19.1393 55.8407 18.514 55.682C17.9447 55.5327 17.478 55.3833 17.114 55.234C16.7593 55.0753 16.4513 54.8467 16.19 54.548C15.938 54.24 15.812 53.8387 15.812 53.344C15.812 52.952 15.9287 52.5927 16.162 52.266C16.3953 51.9393 16.7267 51.6827 17.156 51.496C17.5853 51.3 18.0753 51.202 18.626 51.202C19.4753 51.202 20.1613 51.4167 20.684 51.846C21.2067 52.2753 21.4867 52.8633 21.524 53.61H20.25C20.222 53.2087 20.0587 52.8867 19.76 52.644C19.4707 52.4013 19.0787 52.28 18.584 52.28C18.1267 52.28 17.7627 52.378 17.492 52.574C17.2213 52.77 17.086 53.0267 17.086 53.344C17.086 53.596 17.1653 53.806 17.324 53.974C17.492 54.1327 17.6973 54.2633 17.94 54.366C18.192 54.4593 18.5373 54.5667 18.976 54.688C19.5267 54.8373 19.9747 54.9867 20.32 55.136C20.6653 55.276 20.9593 55.4907 21.202 55.78C21.454 56.0693 21.5847 56.4473 21.594 56.914C21.594 57.334 21.4773 57.712 21.244 58.048C21.0107 58.384 20.6793 58.65 20.25 58.846C19.83 59.0327 19.3447 59.126 18.794 59.126ZM26.7385 59.126C26.0198 59.126 25.3665 58.9627 24.7785 58.636C24.1998 58.3093 23.7425 57.8473 23.4065 57.25C23.0798 56.6433 22.9165 55.9433 22.9165 55.15C22.9165 54.366 23.0845 53.6753 23.4205 53.078C23.7658 52.4713 24.2325 52.0093 24.8205 51.692C25.4085 51.3653 26.0665 51.202 26.7945 51.202C27.5225 51.202 28.1805 51.3653 28.7685 51.692C29.3565 52.0093 29.8185 52.4667 30.1545 53.064C30.4998 53.6613 30.6725 54.3567 30.6725 55.15C30.6725 55.9433 30.4951 56.6433 30.1405 57.25C29.7951 57.8473 29.3238 58.3093 28.7265 58.636C28.1291 58.9627 27.4665 59.126 26.7385 59.126ZM26.7385 58.006C27.1958 58.006 27.6251 57.8987 28.0265 57.684C28.4278 57.4693 28.7498 57.1473 28.9925 56.718C29.2445 56.2887 29.3705 55.766 29.3705 55.15C29.3705 54.534 29.2491 54.0113 29.0065 53.582C28.7638 53.1527 28.4465 52.8353 28.0545 52.63C27.6625 52.4153 27.2378 52.308 26.7805 52.308C26.3138 52.308 25.8845 52.4153 25.4925 52.63C25.1098 52.8353 24.8018 53.1527 24.5685 53.582C24.3351 54.0113 24.2185 54.534 24.2185 55.15C24.2185 55.7753 24.3305 56.3027 24.5545 56.732C24.7878 57.1613 25.0958 57.4833 25.4785 57.698C25.8611 57.9033 26.2811 58.006 26.7385 58.006ZM41.5735 51.188C42.1709 51.188 42.7029 51.314 43.1695 51.566C43.6362 51.8087 44.0049 52.1773 44.2755 52.672C44.5462 53.1667 44.6815 53.7687 44.6815 54.478V59H43.4215V54.66C43.4215 53.8947 43.2302 53.3113 42.8475 52.91C42.4742 52.4993 41.9655 52.294 41.3215 52.294C40.6589 52.294 40.1315 52.5087 39.7395 52.938C39.3475 53.358 39.1515 53.9693 39.1515 54.772V59H37.8915V54.66C37.8915 53.8947 37.7002 53.3113 37.3175 52.91C36.9442 52.4993 36.4355 52.294 35.7915 52.294C35.1289 52.294 34.6015 52.5087 34.2095 52.938C33.8175 53.358 33.6215 53.9693 33.6215 54.772V59H32.3475V51.328H33.6215V52.434C33.8735 52.0327 34.2095 51.7247 34.6295 51.51C35.0589 51.2953 35.5302 51.188 36.0435 51.188C36.6875 51.188 37.2569 51.3327 37.7515 51.622C38.2462 51.9113 38.6149 52.336 38.8575 52.896C39.0722 52.3547 39.4269 51.9347 39.9215 51.636C40.4162 51.3373 40.9669 51.188 41.5735 51.188ZM53.7714 54.87C53.7714 55.1127 53.7574 55.3693 53.7294 55.64H47.5974C47.644 56.396 47.9007 56.9887 48.3674 57.418C48.8434 57.838 49.4174 58.048 50.0894 58.048C50.64 58.048 51.0974 57.922 51.4614 57.67C51.8347 57.4087 52.096 57.0633 52.2454 56.634H53.6174C53.412 57.3713 53.0014 57.9733 52.3854 58.44C51.7694 58.8973 51.004 59.126 50.0894 59.126C49.3614 59.126 48.708 58.9627 48.1294 58.636C47.56 58.3093 47.112 57.8473 46.7854 57.25C46.4587 56.6433 46.2954 55.9433 46.2954 55.15C46.2954 54.3567 46.454 53.6613 46.7714 53.064C47.0887 52.4667 47.532 52.0093 48.1014 51.692C48.68 51.3653 49.3427 51.202 50.0894 51.202C50.8174 51.202 51.4614 51.3607 52.0214 51.678C52.5814 51.9953 53.0107 52.434 53.3094 52.994C53.6174 53.5447 53.7714 54.17 53.7714 54.87ZM52.4554 54.604C52.4554 54.1187 52.348 53.7033 52.1334 53.358C51.9187 53.0033 51.6247 52.7373 51.2514 52.56C50.8874 52.3733 50.4814 52.28 50.0334 52.28C49.3894 52.28 48.8387 52.4853 48.3814 52.896C47.9334 53.3067 47.6767 53.876 47.6114 54.604H52.4554ZM58.799 59.126C58.0803 59.126 57.427 58.9627 56.839 58.636C56.2603 58.3093 55.803 57.8473 55.467 57.25C55.1403 56.6433 54.977 55.9433 54.977 55.15C54.977 54.366 55.145 53.6753 55.481 53.078C55.8263 52.4713 56.293 52.0093 56.881 51.692C57.469 51.3653 58.127 51.202 58.855 51.202C59.583 51.202 60.241 51.3653 60.829 51.692C61.417 52.0093 61.879 52.4667 62.215 53.064C62.5603 53.6613 62.733 54.3567 62.733 55.15C62.733 55.9433 62.5557 56.6433 62.201 57.25C61.8557 57.8473 61.3843 58.3093 60.787 58.636C60.1897 58.9627 59.527 59.126 58.799 59.126ZM58.799 58.006C59.2563 58.006 59.6857 57.8987 60.087 57.684C60.4883 57.4693 60.8103 57.1473 61.053 56.718C61.305 56.2887 61.431 55.766 61.431 55.15C61.431 54.534 61.3097 54.0113 61.067 53.582C60.8243 53.1527 60.507 52.8353 60.115 52.63C59.723 52.4153 59.2983 52.308 58.841 52.308C58.3743 52.308 57.945 52.4153 57.553 52.63C57.1703 52.8353 56.8623 53.1527 56.629 53.582C56.3957 54.0113 56.279 54.534 56.279 55.15C56.279 55.7753 56.391 56.3027 56.615 56.732C56.8483 57.1613 57.1563 57.4833 57.539 57.698C57.9217 57.9033 58.3417 58.006 58.799 58.006ZM68.1461 51.188C69.0794 51.188 69.8354 51.4727 70.4141 52.042C70.9927 52.602 71.2821 53.414 71.2821 54.478V59H70.0221V54.66C70.0221 53.8947 69.8307 53.3113 69.4481 52.91C69.0654 52.4993 68.5427 52.294 67.8801 52.294C67.2081 52.294 66.6714 52.504 66.2701 52.924C65.8781 53.344 65.6821 53.9553 65.6821 54.758V59H64.4081V51.328H65.6821V52.42C65.9341 52.028 66.2747 51.7247 66.7041 51.51C67.1427 51.2953 67.6234 51.188 68.1461 51.188ZM80.3632 54.87C80.3632 55.1127 80.3492 55.3693 80.3212 55.64H74.1892C74.2358 56.396 74.4925 56.9887 74.9592 57.418C75.4352 57.838 76.0092 58.048 76.6812 58.048C77.2318 58.048 77.6892 57.922 78.0532 57.67C78.4265 57.4087 78.6878 57.0633 78.8372 56.634H80.2092C80.0038 57.3713 79.5932 57.9733 78.9772 58.44C78.3612 58.8973 77.5958 59.126 76.6812 59.126C75.9532 59.126 75.2998 58.9627 74.7212 58.636C74.1518 58.3093 73.7038 57.8473 73.3772 57.25C73.0505 56.6433 72.8872 55.9433 72.8872 55.15C72.8872 54.3567 73.0458 53.6613 73.3632 53.064C73.6805 52.4667 74.1238 52.0093 74.6932 51.692C75.2718 51.3653 75.9345 51.202 76.6812 51.202C77.4092 51.202 78.0532 51.3607 78.6132 51.678C79.1732 51.9953 79.6025 52.434 79.9012 52.994C80.2092 53.5447 80.3632 54.17 80.3632 54.87ZM79.0472 54.604C79.0472 54.1187 78.9398 53.7033 78.7252 53.358C78.5105 53.0033 78.2165 52.7373 77.8432 52.56C77.4792 52.3733 77.0732 52.28 76.6252 52.28C75.9812 52.28 75.4305 52.4853 74.9732 52.896C74.5252 53.3067 74.2685 53.876 74.2032 54.604H79.0472ZM89.5152 51.188C90.4486 51.188 91.2046 51.4727 91.7832 52.042C92.3619 52.602 92.6512 53.414 92.6512 54.478V59H91.3912V54.66C91.3912 53.8947 91.1999 53.3113 90.8172 52.91C90.4346 52.4993 89.9119 52.294 89.2492 52.294C88.5772 52.294 88.0406 52.504 87.6392 52.924C87.2472 53.344 87.0512 53.9553 87.0512 54.758V59H85.7772V51.328H87.0512V52.42C87.3032 52.028 87.6439 51.7247 88.0732 51.51C88.5119 51.2953 88.9926 51.188 89.5152 51.188ZM101.732 54.87C101.732 55.1127 101.718 55.3693 101.69 55.64H95.5583C95.605 56.396 95.8616 56.9887 96.3283 57.418C96.8043 57.838 97.3783 58.048 98.0503 58.048C98.601 58.048 99.0583 57.922 99.4223 57.67C99.7956 57.4087 100.057 57.0633 100.206 56.634H101.578C101.373 57.3713 100.962 57.9733 100.346 58.44C99.7303 58.8973 98.965 59.126 98.0503 59.126C97.3223 59.126 96.669 58.9627 96.0903 58.636C95.521 58.3093 95.073 57.8473 94.7463 57.25C94.4196 56.6433 94.2563 55.9433 94.2563 55.15C94.2563 54.3567 94.415 53.6613 94.7323 53.064C95.0496 52.4667 95.493 52.0093 96.0623 51.692C96.641 51.3653 97.3036 51.202 98.0503 51.202C98.7783 51.202 99.4223 51.3607 99.9823 51.678C100.542 51.9953 100.972 52.434 101.27 52.994C101.578 53.5447 101.732 54.17 101.732 54.87ZM100.416 54.604C100.416 54.1187 100.309 53.7033 100.094 53.358C99.8796 53.0033 99.5856 52.7373 99.2123 52.56C98.8483 52.3733 98.4423 52.28 97.9943 52.28C97.3503 52.28 96.7996 52.4853 96.3423 52.896C95.8943 53.3067 95.6376 53.876 95.5723 54.604H100.416ZM113.634 51.328L111.24 59H109.924L108.076 52.91L106.228 59H104.912L102.504 51.328H103.806L105.57 57.768L107.474 51.328H108.776L110.638 57.782L112.374 51.328H113.634ZM116.214 57.236L114.646 61.002H113.792L114.814 57.236H116.214ZM131.626 51.328L129.232 59H127.916L126.068 52.91L124.22 59H122.904L120.496 51.328H121.798L123.562 57.768L125.466 51.328H126.768L128.63 57.782L130.366 51.328H131.626ZM136.699 51.188C137.277 51.188 137.8 51.314 138.267 51.566C138.733 51.8087 139.097 52.1773 139.359 52.672C139.629 53.1667 139.765 53.7687 139.765 54.478V59H138.505V54.66C138.505 53.8947 138.313 53.3113 137.931 52.91C137.548 52.4993 137.025 52.294 136.363 52.294C135.691 52.294 135.154 52.504 134.753 52.924C134.361 53.344 134.165 53.9553 134.165 54.758V59H132.891V48.64H134.165V52.42C134.417 52.028 134.762 51.7247 135.201 51.51C135.649 51.2953 136.148 51.188 136.699 51.188ZM141.37 55.136C141.37 54.352 141.528 53.666 141.846 53.078C142.163 52.4807 142.597 52.0187 143.148 51.692C143.708 51.3653 144.328 51.202 145.01 51.202C145.682 51.202 146.265 51.3467 146.76 51.636C147.254 51.9253 147.623 52.2893 147.866 52.728V51.328H149.154V59H147.866V57.572C147.614 58.02 147.236 58.3933 146.732 58.692C146.237 58.9813 145.658 59.126 144.996 59.126C144.314 59.126 143.698 58.958 143.148 58.622C142.597 58.286 142.163 57.8147 141.846 57.208C141.528 56.6013 141.37 55.9107 141.37 55.136ZM147.866 55.15C147.866 54.5713 147.749 54.0673 147.516 53.638C147.282 53.2087 146.965 52.882 146.564 52.658C146.172 52.4247 145.738 52.308 145.262 52.308C144.786 52.308 144.352 52.42 143.96 52.644C143.568 52.868 143.255 53.1947 143.022 53.624C142.788 54.0533 142.672 54.5573 142.672 55.136C142.672 55.724 142.788 56.2373 143.022 56.676C143.255 57.1053 143.568 57.4367 143.96 57.67C144.352 57.894 144.786 58.006 145.262 58.006C145.738 58.006 146.172 57.894 146.564 57.67C146.965 57.4367 147.282 57.1053 147.516 56.676C147.749 56.2373 147.866 55.7287 147.866 55.15ZM152.861 52.378V56.9C152.861 57.2733 152.94 57.5393 153.099 57.698C153.257 57.8473 153.533 57.922 153.925 57.922H154.863V59H153.715C153.005 59 152.473 58.8367 152.119 58.51C151.764 58.1833 151.587 57.6467 151.587 56.9V52.378H150.593V51.328H151.587V49.396H152.861V51.328H154.863V52.378H152.861ZM161.413 52.574C161.637 52.1353 161.954 51.7947 162.365 51.552C162.785 51.3093 163.293 51.188 163.891 51.188V52.504H163.555C162.127 52.504 161.413 53.2787 161.413 54.828V59H160.139V51.328H161.413V52.574ZM172.165 51.328V59H170.891V57.866C170.649 58.258 170.308 58.566 169.869 58.79C169.44 59.0047 168.964 59.112 168.441 59.112C167.844 59.112 167.307 58.9907 166.831 58.748C166.355 58.496 165.977 58.1227 165.697 57.628C165.427 57.1333 165.291 56.5313 165.291 55.822V51.328H166.551V55.654C166.551 56.41 166.743 56.9933 167.125 57.404C167.508 57.8053 168.031 58.006 168.693 58.006C169.375 58.006 169.911 57.796 170.303 57.376C170.695 56.956 170.891 56.3447 170.891 55.542V51.328H172.165ZM178.054 51.188C178.988 51.188 179.744 51.4727 180.322 52.042C180.901 52.602 181.19 53.414 181.19 54.478V59H179.93V54.66C179.93 53.8947 179.739 53.3113 179.356 52.91C178.974 52.4993 178.451 52.294 177.788 52.294C177.116 52.294 176.58 52.504 176.178 52.924C175.786 53.344 175.59 53.9553 175.59 54.758V59H174.316V51.328H175.59V52.42C175.842 52.028 176.183 51.7247 176.612 51.51C177.051 51.2953 177.532 51.188 178.054 51.188ZM185.987 59.126C185.399 59.126 184.872 59.028 184.405 58.832C183.939 58.6267 183.57 58.3467 183.299 57.992C183.029 57.628 182.879 57.2127 182.851 56.746H184.167C184.205 57.1287 184.382 57.4413 184.699 57.684C185.026 57.9267 185.451 58.048 185.973 58.048C186.459 58.048 186.841 57.9407 187.121 57.726C187.401 57.5113 187.541 57.2407 187.541 56.914C187.541 56.578 187.392 56.3307 187.093 56.172C186.795 56.004 186.333 55.8407 185.707 55.682C185.138 55.5327 184.671 55.3833 184.307 55.234C183.953 55.0753 183.645 54.8467 183.383 54.548C183.131 54.24 183.005 53.8387 183.005 53.344C183.005 52.952 183.122 52.5927 183.355 52.266C183.589 51.9393 183.92 51.6827 184.349 51.496C184.779 51.3 185.269 51.202 185.819 51.202C186.669 51.202 187.355 51.4167 187.877 51.846C188.4 52.2753 188.68 52.8633 188.717 53.61H187.443C187.415 53.2087 187.252 52.8867 186.953 52.644C186.664 52.4013 186.272 52.28 185.777 52.28C185.32 52.28 184.956 52.378 184.685 52.574C184.415 52.77 184.279 53.0267 184.279 53.344C184.279 53.596 184.359 53.806 184.517 53.974C184.685 54.1327 184.891 54.2633 185.133 54.366C185.385 54.4593 185.731 54.5667 186.169 54.688C186.72 54.8373 187.168 54.9867 187.513 55.136C187.859 55.276 188.153 55.4907 188.395 55.78C188.647 56.0693 188.778 56.4473 188.787 56.914C188.787 57.334 188.671 57.712 188.437 58.048C188.204 58.384 187.873 58.65 187.443 58.846C187.023 59.0327 186.538 59.126 185.987 59.126ZM17.632 73.378V77.9C17.632 78.2733 17.7113 78.5393 17.87 78.698C18.0287 78.8473 18.304 78.922 18.696 78.922H19.634V80H18.486C17.7767 80 17.2447 79.8367 16.89 79.51C16.5353 79.1833 16.358 78.6467 16.358 77.9V73.378H15.364V72.328H16.358V70.396H17.632V72.328H19.634V73.378H17.632ZM24.9856 72.188C25.5643 72.188 26.0869 72.314 26.5536 72.566C27.0203 72.8087 27.3843 73.1773 27.6456 73.672C27.9163 74.1667 28.0516 74.7687 28.0516 75.478V80H26.7916V75.66C26.7916 74.8947 26.6003 74.3113 26.2176 73.91C25.8349 73.4993 25.3123 73.294 24.6496 73.294C23.9776 73.294 23.4409 73.504 23.0396 73.924C22.6476 74.344 22.4516 74.9553 22.4516 75.758V80H21.1776V69.64H22.4516V73.42C22.7036 73.028 23.0489 72.7247 23.4876 72.51C23.9356 72.2953 24.4349 72.188 24.9856 72.188ZM31.4067 73.574C31.6307 73.1353 31.948 72.7947 32.3587 72.552C32.7787 72.3093 33.2874 72.188 33.8847 72.188V73.504H33.5487C32.1207 73.504 31.4067 74.2787 31.4067 75.828V80H30.1327V72.328H31.4067V73.574ZM38.7013 80.126C37.9827 80.126 37.3293 79.9627 36.7413 79.636C36.1627 79.3093 35.7053 78.8473 35.3693 78.25C35.0427 77.6433 34.8793 76.9433 34.8793 76.15C34.8793 75.366 35.0473 74.6753 35.3833 74.078C35.7287 73.4713 36.1953 73.0093 36.7833 72.692C37.3713 72.3653 38.0293 72.202 38.7573 72.202C39.4853 72.202 40.1433 72.3653 40.7313 72.692C41.3193 73.0093 41.7813 73.4667 42.1173 74.064C42.4627 74.6613 42.6353 75.3567 42.6353 76.15C42.6353 76.9433 42.458 77.6433 42.1033 78.25C41.758 78.8473 41.2867 79.3093 40.6893 79.636C40.092 79.9627 39.4293 80.126 38.7013 80.126ZM38.7013 79.006C39.1587 79.006 39.588 78.8987 39.9893 78.684C40.3907 78.4693 40.7127 78.1473 40.9553 77.718C41.2073 77.2887 41.3333 76.766 41.3333 76.15C41.3333 75.534 41.212 75.0113 40.9693 74.582C40.7267 74.1527 40.4093 73.8353 40.0173 73.63C39.6253 73.4153 39.2007 73.308 38.7433 73.308C38.2767 73.308 37.8473 73.4153 37.4553 73.63C37.0727 73.8353 36.7647 74.1527 36.5313 74.582C36.298 75.0113 36.1813 75.534 36.1813 76.15C36.1813 76.7753 36.2933 77.3027 36.5173 77.732C36.7507 78.1613 37.0587 78.4833 37.4413 78.698C37.824 78.9033 38.244 79.006 38.7013 79.006ZM51.1144 72.328V80H49.8404V78.866C49.5978 79.258 49.2571 79.566 48.8184 79.79C48.3891 80.0047 47.9131 80.112 47.3904 80.112C46.7931 80.112 46.2564 79.9907 45.7804 79.748C45.3044 79.496 44.9264 79.1227 44.6464 78.628C44.3758 78.1333 44.2404 77.5313 44.2404 76.822V72.328H45.5004V76.654C45.5004 77.41 45.6918 77.9933 46.0744 78.404C46.4571 78.8053 46.9798 79.006 47.6424 79.006C48.3238 79.006 48.8604 78.796 49.2524 78.376C49.6444 77.956 49.8404 77.3447 49.8404 76.542V72.328H51.1144ZM56.4295 72.202C57.0922 72.202 57.6708 72.3467 58.1655 72.636C58.6695 72.9253 59.0428 73.2893 59.2855 73.728V72.328H60.5735V80.168C60.5735 80.868 60.4242 81.4887 60.1255 82.03C59.8268 82.5807 59.3975 83.01 58.8375 83.318C58.2868 83.626 57.6428 83.78 56.9055 83.78C55.8975 83.78 55.0575 83.542 54.3855 83.066C53.7135 82.59 53.3168 81.9413 53.1955 81.12H54.4555C54.5955 81.5867 54.8848 81.96 55.3235 82.24C55.7622 82.5293 56.2895 82.674 56.9055 82.674C57.6055 82.674 58.1748 82.4547 58.6135 82.016C59.0615 81.5773 59.2855 80.9613 59.2855 80.168V78.558C59.0335 79.006 58.6602 79.3793 58.1655 79.678C57.6708 79.9767 57.0922 80.126 56.4295 80.126C55.7482 80.126 55.1275 79.958 54.5675 79.622C54.0168 79.286 53.5828 78.8147 53.2655 78.208C52.9482 77.6013 52.7895 76.9107 52.7895 76.136C52.7895 75.352 52.9482 74.666 53.2655 74.078C53.5828 73.4807 54.0168 73.0187 54.5675 72.692C55.1275 72.3653 55.7482 72.202 56.4295 72.202ZM59.2855 76.15C59.2855 75.5713 59.1688 75.0673 58.9355 74.638C58.7022 74.2087 58.3848 73.882 57.9835 73.658C57.5915 73.4247 57.1575 73.308 56.6815 73.308C56.2055 73.308 55.7715 73.42 55.3795 73.644C54.9875 73.868 54.6748 74.1947 54.4415 74.624C54.2082 75.0533 54.0915 75.5573 54.0915 76.136C54.0915 76.724 54.2082 77.2373 54.4415 77.676C54.6748 78.1053 54.9875 78.4367 55.3795 78.67C55.7715 78.894 56.2055 79.006 56.6815 79.006C57.1575 79.006 57.5915 78.894 57.9835 78.67C58.3848 78.4367 58.7022 78.1053 58.9355 77.676C59.1688 77.2373 59.2855 76.7287 59.2855 76.15ZM66.5344 72.188C67.1131 72.188 67.6358 72.314 68.1024 72.566C68.5691 72.8087 68.9331 73.1773 69.1944 73.672C69.4651 74.1667 69.6004 74.7687 69.6004 75.478V80H68.3404V75.66C68.3404 74.8947 68.1491 74.3113 67.7664 73.91C67.3838 73.4993 66.8611 73.294 66.1984 73.294C65.5264 73.294 64.9898 73.504 64.5884 73.924C64.1964 74.344 64.0004 74.9553 64.0004 75.758V80H62.7264V69.64H64.0004V73.42C64.2524 73.028 64.5978 72.7247 65.0364 72.51C65.4844 72.2953 65.9838 72.188 66.5344 72.188ZM82.0219 72.328L77.4019 83.612H76.0859L77.5979 79.916L74.5039 72.328H75.9179L78.3259 78.544L80.7059 72.328H82.0219ZM86.6486 80.126C85.9299 80.126 85.2766 79.9627 84.6886 79.636C84.1099 79.3093 83.6526 78.8473 83.3166 78.25C82.9899 77.6433 82.8266 76.9433 82.8266 76.15C82.8266 75.366 82.9946 74.6753 83.3306 74.078C83.6759 73.4713 84.1426 73.0093 84.7306 72.692C85.3186 72.3653 85.9766 72.202 86.7046 72.202C87.4326 72.202 88.0906 72.3653 88.6786 72.692C89.2666 73.0093 89.7286 73.4667 90.0646 74.064C90.4099 74.6613 90.5826 75.3567 90.5826 76.15C90.5826 76.9433 90.4053 77.6433 90.0506 78.25C89.7053 78.8473 89.2339 79.3093 88.6366 79.636C88.0393 79.9627 87.3766 80.126 86.6486 80.126ZM86.6486 79.006C87.1059 79.006 87.5353 78.8987 87.9366 78.684C88.3379 78.4693 88.6599 78.1473 88.9026 77.718C89.1546 77.2887 89.2806 76.766 89.2806 76.15C89.2806 75.534 89.1593 75.0113 88.9166 74.582C88.6739 74.1527 88.3566 73.8353 87.9646 73.63C87.5726 73.4153 87.1479 73.308 86.6906 73.308C86.2239 73.308 85.7946 73.4153 85.4026 73.63C85.0199 73.8353 84.7119 74.1527 84.4786 74.582C84.2453 75.0113 84.1286 75.534 84.1286 76.15C84.1286 76.7753 84.2406 77.3027 84.4646 77.732C84.6979 78.1613 85.0059 78.4833 85.3886 78.698C85.7713 78.9033 86.1913 79.006 86.6486 79.006ZM99.0617 72.328V80H97.7877V78.866C97.545 79.258 97.2044 79.566 96.7657 79.79C96.3364 80.0047 95.8604 80.112 95.3377 80.112C94.7404 80.112 94.2037 79.9907 93.7277 79.748C93.2517 79.496 92.8737 79.1227 92.5937 78.628C92.323 78.1333 92.1877 77.5313 92.1877 76.822V72.328H93.4477V76.654C93.4477 77.41 93.639 77.9933 94.0217 78.404C94.4044 78.8053 94.927 79.006 95.5897 79.006C96.271 79.006 96.8077 78.796 97.1997 78.376C97.5917 77.956 97.7877 77.3447 97.7877 76.542V72.328H99.0617ZM102.487 73.574C102.711 73.1353 103.028 72.7947 103.439 72.552C103.859 72.3093 104.367 72.188 104.965 72.188V73.504H104.629C103.201 73.504 102.487 74.2787 102.487 75.828V80H101.213V72.328H102.487V73.574ZM119.394 72.188C119.991 72.188 120.523 72.314 120.99 72.566C121.457 72.8087 121.825 73.1773 122.096 73.672C122.367 74.1667 122.502 74.7687 122.502 75.478V80H121.242V75.66C121.242 74.8947 121.051 74.3113 120.668 73.91C120.295 73.4993 119.786 73.294 119.142 73.294C118.479 73.294 117.952 73.5087 117.56 73.938C117.168 74.358 116.972 74.9693 116.972 75.772V80H115.712V75.66C115.712 74.8947 115.521 74.3113 115.138 73.91C114.765 73.4993 114.256 73.294 113.612 73.294C112.949 73.294 112.422 73.5087 112.03 73.938C111.638 74.358 111.442 74.9693 111.442 75.772V80H110.168V72.328H111.442V73.434C111.694 73.0327 112.03 72.7247 112.45 72.51C112.879 72.2953 113.351 72.188 113.864 72.188C114.508 72.188 115.077 72.3327 115.572 72.622C116.067 72.9113 116.435 73.336 116.678 73.896C116.893 73.3547 117.247 72.9347 117.742 72.636C118.237 72.3373 118.787 72.188 119.394 72.188ZM125.25 71.082C125.007 71.082 124.802 70.998 124.634 70.83C124.466 70.662 124.382 70.4567 124.382 70.214C124.382 69.9713 124.466 69.766 124.634 69.598C124.802 69.43 125.007 69.346 125.25 69.346C125.483 69.346 125.679 69.43 125.838 69.598C126.006 69.766 126.09 69.9713 126.09 70.214C126.09 70.4567 126.006 70.662 125.838 70.83C125.679 70.998 125.483 71.082 125.25 71.082ZM125.866 72.328V80H124.592V72.328H125.866ZM131.775 72.188C132.708 72.188 133.464 72.4727 134.043 73.042C134.622 73.602 134.911 74.414 134.911 75.478V80H133.651V75.66C133.651 74.8947 133.46 74.3113 133.077 73.91C132.694 73.4993 132.172 73.294 131.509 73.294C130.837 73.294 130.3 73.504 129.899 73.924C129.507 74.344 129.311 74.9553 129.311 75.758V80H128.037V72.328H129.311V73.42C129.563 73.028 129.904 72.7247 130.333 72.51C130.772 72.2953 131.252 72.188 131.775 72.188ZM136.516 76.136C136.516 75.352 136.675 74.666 136.992 74.078C137.309 73.4807 137.743 73.0187 138.294 72.692C138.854 72.3653 139.479 72.202 140.17 72.202C140.767 72.202 141.323 72.342 141.836 72.622C142.349 72.8927 142.741 73.252 143.012 73.7V69.64H144.3V80H143.012V78.558C142.76 79.0153 142.387 79.3933 141.892 79.692C141.397 79.9813 140.819 80.126 140.156 80.126C139.475 80.126 138.854 79.958 138.294 79.622C137.743 79.286 137.309 78.8147 136.992 78.208C136.675 77.6013 136.516 76.9107 136.516 76.136ZM143.012 76.15C143.012 75.5713 142.895 75.0673 142.662 74.638C142.429 74.2087 142.111 73.882 141.71 73.658C141.318 73.4247 140.884 73.308 140.408 73.308C139.932 73.308 139.498 73.42 139.106 73.644C138.714 73.868 138.401 74.1947 138.168 74.624C137.935 75.0533 137.818 75.5573 137.818 76.136C137.818 76.724 137.935 77.2373 138.168 77.676C138.401 78.1053 138.714 78.4367 139.106 78.67C139.498 78.894 139.932 79.006 140.408 79.006C140.884 79.006 141.318 78.894 141.71 78.67C142.111 78.4367 142.429 78.1053 142.662 77.676C142.895 77.2373 143.012 76.7287 143.012 76.15ZM148.945 70.116C149.869 70.116 150.616 70.3773 151.185 70.9C151.754 71.4227 152.039 72.1227 152.039 73C152.039 73.98 151.736 74.708 151.129 75.184C150.522 75.6507 149.701 75.884 148.665 75.884L148.623 77.214H147.517L147.461 75.002H147.867C148.791 75.002 149.514 74.862 150.037 74.582C150.56 74.302 150.821 73.7747 150.821 73C150.821 72.44 150.653 71.9967 150.317 71.67C149.981 71.3433 149.528 71.18 148.959 71.18C148.38 71.18 147.923 71.3387 147.587 71.656C147.26 71.964 147.097 72.3887 147.097 72.93H145.893C145.893 72.37 146.019 71.88 146.271 71.46C146.523 71.0307 146.878 70.6993 147.335 70.466C147.802 70.2327 148.338 70.116 148.945 70.116ZM148.063 80.084C147.82 80.084 147.615 80 147.447 79.832C147.279 79.664 147.195 79.4587 147.195 79.216C147.195 78.9733 147.279 78.768 147.447 78.6C147.615 78.432 147.82 78.348 148.063 78.348C148.296 78.348 148.492 78.432 148.651 78.6C148.819 78.768 148.903 78.9733 148.903 79.216C148.903 79.4587 148.819 79.664 148.651 79.832C148.492 80 148.296 80.084 148.063 80.084Z" fill="black"/>
</svg>
