<svg width="232" height="110" viewBox="0 0 232 110" fill="none" xmlns="http://www.w3.org/2000/svg">
<path d="M0.5 0.5H220C226.351 0.5 231.5 5.64873 231.5 12V98C231.5 104.351 226.351 109.5 220 109.5H12C5.64873 109.5 0.5 104.351 0.5 98V0.5Z" stroke="#939393"/>
<path d="M18.91 28.242L15.732 34.318V38H14.458V34.318L11.266 28.242H12.68L15.088 33.184L17.496 28.242H18.91ZM23.5998 38.126C22.8811 38.126 22.2278 37.9627 21.6398 37.636C21.0611 37.3093 20.6038 36.8473 20.2678 36.25C19.9411 35.6433 19.7778 34.9433 19.7778 34.15C19.7778 33.366 19.9458 32.6753 20.2818 32.078C20.6271 31.4713 21.0938 31.0093 21.6818 30.692C22.2698 30.3653 22.9278 30.202 23.6558 30.202C24.3838 30.202 25.0418 30.3653 25.6298 30.692C26.2178 31.0093 26.6798 31.4667 27.0158 32.064C27.3611 32.6613 27.5338 33.3567 27.5338 34.15C27.5338 34.9433 27.3564 35.6433 27.0018 36.25C26.6564 36.8473 26.1851 37.3093 25.5878 37.636C24.9904 37.9627 24.3278 38.126 23.5998 38.126ZM23.5998 37.006C24.0571 37.006 24.4864 36.8987 24.8878 36.684C25.2891 36.4693 25.6111 36.1473 25.8538 35.718C26.1058 35.2887 26.2318 34.766 26.2318 34.15C26.2318 33.534 26.1104 33.0113 25.8678 32.582C25.6251 32.1527 25.3078 31.8353 24.9158 31.63C24.5238 31.4153 24.0991 31.308 23.6418 31.308C23.1751 31.308 22.7458 31.4153 22.3538 31.63C21.9711 31.8353 21.6631 32.1527 21.4298 32.582C21.1964 33.0113 21.0798 33.534 21.0798 34.15C21.0798 34.7753 21.1918 35.3027 21.4158 35.732C21.6491 36.1613 21.9571 36.4833 22.3398 36.698C22.7224 36.9033 23.1424 37.006 23.5998 37.006ZM36.0129 30.328V38H34.7389V36.866C34.4962 37.258 34.1555 37.566 33.7169 37.79C33.2875 38.0047 32.8115 38.112 32.2889 38.112C31.6915 38.112 31.1549 37.9907 30.6789 37.748C30.2029 37.496 29.8249 37.1227 29.5449 36.628C29.2742 36.1333 29.1389 35.5313 29.1389 34.822V30.328H30.3989V34.654C30.3989 35.41 30.5902 35.9933 30.9729 36.404C31.3555 36.8053 31.8782 37.006 32.5409 37.006C33.2222 37.006 33.7589 36.796 34.1509 36.376C34.5429 35.956 34.7389 35.3447 34.7389 34.542V30.328H36.0129ZM38.8079 26.856L38.6399 29.642H37.7579L37.5759 26.856H38.8079ZM41.6665 31.574C41.8905 31.1353 42.2078 30.7947 42.6185 30.552C43.0385 30.3093 43.5471 30.188 44.1445 30.188V31.504H43.8085C42.3805 31.504 41.6665 32.2787 41.6665 33.828V38H40.3925V30.328H41.6665V31.574ZM52.6151 33.87C52.6151 34.1127 52.6011 34.3693 52.5731 34.64H46.4411C46.4878 35.396 46.7444 35.9887 47.2111 36.418C47.6871 36.838 48.2611 37.048 48.9331 37.048C49.4838 37.048 49.9411 36.922 50.3051 36.67C50.6784 36.4087 50.9398 36.0633 51.0891 35.634H52.4611C52.2558 36.3713 51.8451 36.9733 51.2291 37.44C50.6131 37.8973 49.8478 38.126 48.9331 38.126C48.2051 38.126 47.5518 37.9627 46.9731 37.636C46.4038 37.3093 45.9558 36.8473 45.6291 36.25C45.3024 35.6433 45.1391 34.9433 45.1391 34.15C45.1391 33.3567 45.2978 32.6613 45.6151 32.064C45.9324 31.4667 46.3758 31.0093 46.9451 30.692C47.5238 30.3653 48.1864 30.202 48.9331 30.202C49.6611 30.202 50.3051 30.3607 50.8651 30.678C51.4251 30.9953 51.8544 31.434 52.1531 31.994C52.4611 32.5447 52.6151 33.17 52.6151 33.87ZM51.2991 33.604C51.2991 33.1187 51.1918 32.7033 50.9771 32.358C50.7624 32.0033 50.4684 31.7373 50.0951 31.56C49.7311 31.3733 49.3251 31.28 48.8771 31.28C48.2331 31.28 47.6824 31.4853 47.2251 31.896C46.7771 32.3067 46.5204 32.876 46.4551 33.604H51.2991ZM59.5832 31.378V35.9C59.5832 36.2733 59.6625 36.5393 59.8212 36.698C59.9798 36.8473 60.2552 36.922 60.6472 36.922H61.5852V38H60.4372C59.7278 38 59.1958 37.8367 58.8412 37.51C58.4865 37.1833 58.3092 36.6467 58.3092 35.9V31.378H57.3152V30.328H58.3092V28.396H59.5832V30.328H61.5852V31.378H59.5832ZM64.4028 31.574C64.6268 31.1353 64.9441 30.7947 65.3548 30.552C65.7748 30.3093 66.2834 30.188 66.8808 30.188V31.504H66.5448C65.1168 31.504 64.4028 32.2787 64.4028 33.828V38H63.1288V30.328H64.4028V31.574ZM74.9594 30.328L70.3394 41.612H69.0234L70.5354 37.916L67.4414 30.328H68.8554L71.2634 36.544L73.6434 30.328H74.9594ZM76.8981 29.082C76.6554 29.082 76.4501 28.998 76.2821 28.83C76.1141 28.662 76.0301 28.4567 76.0301 28.214C76.0301 27.9713 76.1141 27.766 76.2821 27.598C76.4501 27.43 76.6554 27.346 76.8981 27.346C77.1314 27.346 77.3274 27.43 77.4861 27.598C77.6541 27.766 77.7381 27.9713 77.7381 28.214C77.7381 28.4567 77.6541 28.662 77.4861 28.83C77.3274 28.998 77.1314 29.082 76.8981 29.082ZM77.5141 30.328V38H76.2401V30.328H77.5141ZM83.4234 30.188C84.3568 30.188 85.1128 30.4727 85.6914 31.042C86.2701 31.602 86.5594 32.414 86.5594 33.478V38H85.2994V33.66C85.2994 32.8947 85.1081 32.3113 84.7254 31.91C84.3428 31.4993 83.8201 31.294 83.1574 31.294C82.4854 31.294 81.9488 31.504 81.5474 31.924C81.1554 32.344 80.9594 32.9553 80.9594 33.758V38H79.6854V30.328H80.9594V31.42C81.2114 31.028 81.5521 30.7247 81.9814 30.51C82.4201 30.2953 82.9008 30.188 83.4234 30.188ZM91.8045 30.202C92.4672 30.202 93.0458 30.3467 93.5405 30.636C94.0445 30.9253 94.4178 31.2893 94.6605 31.728V30.328H95.9485V38.168C95.9485 38.868 95.7992 39.4887 95.5005 40.03C95.2018 40.5807 94.7725 41.01 94.2125 41.318C93.6618 41.626 93.0178 41.78 92.2805 41.78C91.2725 41.78 90.4325 41.542 89.7605 41.066C89.0885 40.59 88.6918 39.9413 88.5705 39.12H89.8305C89.9705 39.5867 90.2598 39.96 90.6985 40.24C91.1372 40.5293 91.6645 40.674 92.2805 40.674C92.9805 40.674 93.5498 40.4547 93.9885 40.016C94.4365 39.5773 94.6605 38.9613 94.6605 38.168V36.558C94.4085 37.006 94.0352 37.3793 93.5405 37.678C93.0458 37.9767 92.4672 38.126 91.8045 38.126C91.1232 38.126 90.5025 37.958 89.9425 37.622C89.3918 37.286 88.9578 36.8147 88.6405 36.208C88.3232 35.6013 88.1645 34.9107 88.1645 34.136C88.1645 33.352 88.3232 32.666 88.6405 32.078C88.9578 31.4807 89.3918 31.0187 89.9425 30.692C90.5025 30.3653 91.1232 30.202 91.8045 30.202ZM94.6605 34.15C94.6605 33.5713 94.5438 33.0673 94.3105 32.638C94.0772 32.2087 93.7598 31.882 93.3585 31.658C92.9665 31.4247 92.5325 31.308 92.0565 31.308C91.5805 31.308 91.1465 31.42 90.7545 31.644C90.3625 31.868 90.0498 32.1947 89.8165 32.624C89.5832 33.0533 89.4665 33.5573 89.4665 34.136C89.4665 34.724 89.5832 35.2373 89.8165 35.676C90.0498 36.1053 90.3625 36.4367 90.7545 36.67C91.1465 36.894 91.5805 37.006 92.0565 37.006C92.5325 37.006 92.9665 36.894 93.3585 36.67C93.7598 36.4367 94.0772 36.1053 94.3105 35.676C94.5438 35.2373 94.6605 34.7287 94.6605 34.15ZM103.388 31.378V35.9C103.388 36.2733 103.467 36.5393 103.626 36.698C103.785 36.8473 104.06 36.922 104.452 36.922H105.39V38H104.242C103.533 38 103.001 37.8367 102.646 37.51C102.291 37.1833 102.114 36.6467 102.114 35.9V31.378H101.12V30.328H102.114V28.396H103.388V30.328H105.39V31.378H103.388ZM110.279 38.126C109.561 38.126 108.907 37.9627 108.319 37.636C107.741 37.3093 107.283 36.8473 106.947 36.25C106.621 35.6433 106.457 34.9433 106.457 34.15C106.457 33.366 106.625 32.6753 106.961 32.078C107.307 31.4713 107.773 31.0093 108.361 30.692C108.949 30.3653 109.607 30.202 110.335 30.202C111.063 30.202 111.721 30.3653 112.309 30.692C112.897 31.0093 113.359 31.4667 113.695 32.064C114.041 32.6613 114.213 33.3567 114.213 34.15C114.213 34.9433 114.036 35.6433 113.681 36.25C113.336 36.8473 112.865 37.3093 112.267 37.636C111.67 37.9627 111.007 38.126 110.279 38.126ZM110.279 37.006C110.737 37.006 111.166 36.8987 111.567 36.684C111.969 36.4693 112.291 36.1473 112.533 35.718C112.785 35.2887 112.911 34.766 112.911 34.15C112.911 33.534 112.79 33.0113 112.547 32.582C112.305 32.1527 111.987 31.8353 111.595 31.63C111.203 31.4153 110.779 31.308 110.321 31.308C109.855 31.308 109.425 31.4153 109.033 31.63C108.651 31.8353 108.343 32.1527 108.109 32.582C107.876 33.0113 107.759 33.534 107.759 34.15C107.759 34.7753 107.871 35.3027 108.095 35.732C108.329 36.1613 108.637 36.4833 109.019 36.698C109.402 36.9033 109.822 37.006 110.279 37.006ZM120.895 31.756C121.156 31.2987 121.539 30.9253 122.043 30.636C122.547 30.3467 123.121 30.202 123.765 30.202C124.456 30.202 125.076 30.3653 125.627 30.692C126.178 31.0187 126.612 31.4807 126.929 32.078C127.246 32.666 127.405 33.352 127.405 34.136C127.405 34.9107 127.246 35.6013 126.929 36.208C126.612 36.8147 126.173 37.286 125.613 37.622C125.062 37.958 124.446 38.126 123.765 38.126C123.102 38.126 122.519 37.9813 122.015 37.692C121.52 37.4027 121.147 37.034 120.895 36.586V38H119.621V27.64H120.895V31.756ZM126.103 34.136C126.103 33.5573 125.986 33.0533 125.753 32.624C125.52 32.1947 125.202 31.868 124.801 31.644C124.409 31.42 123.975 31.308 123.499 31.308C123.032 31.308 122.598 31.4247 122.197 31.658C121.805 31.882 121.488 32.2133 121.245 32.652C121.012 33.0813 120.895 33.5807 120.895 34.15C120.895 34.7287 121.012 35.2373 121.245 35.676C121.488 36.1053 121.805 36.4367 122.197 36.67C122.598 36.894 123.032 37.006 123.499 37.006C123.975 37.006 124.409 36.894 124.801 36.67C125.202 36.4367 125.52 36.1053 125.753 35.676C125.986 35.2373 126.103 34.724 126.103 34.136ZM135.886 30.328V38H134.612V36.866C134.369 37.258 134.029 37.566 133.59 37.79C133.161 38.0047 132.685 38.112 132.162 38.112C131.565 38.112 131.028 37.9907 130.552 37.748C130.076 37.496 129.698 37.1227 129.418 36.628C129.147 36.1333 129.012 35.5313 129.012 34.822V30.328H130.272V34.654C130.272 35.41 130.463 35.9933 130.846 36.404C131.229 36.8053 131.751 37.006 132.414 37.006C133.095 37.006 133.632 36.796 134.024 36.376C134.416 35.956 134.612 35.3447 134.612 34.542V30.328H135.886ZM138.695 29.082C138.452 29.082 138.247 28.998 138.079 28.83C137.911 28.662 137.827 28.4567 137.827 28.214C137.827 27.9713 137.911 27.766 138.079 27.598C138.247 27.43 138.452 27.346 138.695 27.346C138.928 27.346 139.124 27.43 139.283 27.598C139.451 27.766 139.535 27.9713 139.535 28.214C139.535 28.4567 139.451 28.662 139.283 28.83C139.124 28.998 138.928 29.082 138.695 29.082ZM139.311 30.328V38H138.037V30.328H139.311ZM142.756 27.64V38H141.482V27.64H142.756ZM144.452 34.136C144.452 33.352 144.61 32.666 144.928 32.078C145.245 31.4807 145.679 31.0187 146.23 30.692C146.79 30.3653 147.415 30.202 148.106 30.202C148.703 30.202 149.258 30.342 149.772 30.622C150.285 30.8927 150.677 31.252 150.948 31.7V27.64H152.236V38H150.948V36.558C150.696 37.0153 150.322 37.3933 149.828 37.692C149.333 37.9813 148.754 38.126 148.092 38.126C147.41 38.126 146.79 37.958 146.23 37.622C145.679 37.286 145.245 36.8147 144.928 36.208C144.61 35.6013 144.452 34.9107 144.452 34.136ZM150.948 34.15C150.948 33.5713 150.831 33.0673 150.598 32.638C150.364 32.2087 150.047 31.882 149.646 31.658C149.254 31.4247 148.82 31.308 148.344 31.308C147.868 31.308 147.434 31.42 147.042 31.644C146.65 31.868 146.337 32.1947 146.104 32.624C145.87 33.0533 145.754 33.5573 145.754 34.136C145.754 34.724 145.87 35.2373 146.104 35.676C146.337 36.1053 146.65 36.4367 147.042 36.67C147.434 36.894 147.868 37.006 148.344 37.006C148.82 37.006 149.254 36.894 149.646 36.67C150.047 36.4367 150.364 36.1053 150.598 35.676C150.831 35.2373 150.948 34.7287 150.948 34.15ZM159.395 31.574C159.619 31.1353 159.936 30.7947 160.347 30.552C160.767 30.3093 161.276 30.188 161.873 30.188V31.504H161.537C160.109 31.504 159.395 32.2787 159.395 33.828V38H158.121V30.328H159.395V31.574ZM162.868 34.136C162.868 33.352 163.026 32.666 163.344 32.078C163.661 31.4807 164.095 31.0187 164.646 30.692C165.206 30.3653 165.826 30.202 166.508 30.202C167.18 30.202 167.763 30.3467 168.258 30.636C168.752 30.9253 169.121 31.2893 169.364 31.728V30.328H170.652V38H169.364V36.572C169.112 37.02 168.734 37.3933 168.23 37.692C167.735 37.9813 167.156 38.126 166.494 38.126C165.812 38.126 165.196 37.958 164.646 37.622C164.095 37.286 163.661 36.8147 163.344 36.208C163.026 35.6013 162.868 34.9107 162.868 34.136ZM169.364 34.15C169.364 33.5713 169.247 33.0673 169.014 32.638C168.78 32.2087 168.463 31.882 168.062 31.658C167.67 31.4247 167.236 31.308 166.76 31.308C166.284 31.308 165.85 31.42 165.458 31.644C165.066 31.868 164.753 32.1947 164.52 32.624C164.286 33.0533 164.17 33.5573 164.17 34.136C164.17 34.724 164.286 35.2373 164.52 35.676C164.753 36.1053 165.066 36.4367 165.458 36.67C165.85 36.894 166.284 37.006 166.76 37.006C167.236 37.006 167.67 36.894 168.062 36.67C168.463 36.4367 168.78 36.1053 169.014 35.676C169.247 35.2373 169.364 34.7287 169.364 34.15ZM174.079 31.742C174.331 31.3033 174.704 30.9393 175.199 30.65C175.703 30.3513 176.286 30.202 176.949 30.202C177.63 30.202 178.246 30.3653 178.797 30.692C179.357 31.0187 179.795 31.4807 180.113 32.078C180.43 32.666 180.589 33.352 180.589 34.136C180.589 34.9107 180.43 35.6013 180.113 36.208C179.795 36.8147 179.357 37.286 178.797 37.622C178.246 37.958 177.63 38.126 176.949 38.126C176.295 38.126 175.717 37.9813 175.213 37.692C174.718 37.3933 174.34 37.0247 174.079 36.586V41.64H172.805V30.328H174.079V31.742ZM179.287 34.136C179.287 33.5573 179.17 33.0533 178.937 32.624C178.703 32.1947 178.386 31.868 177.985 31.644C177.593 31.42 177.159 31.308 176.683 31.308C176.216 31.308 175.782 31.4247 175.381 31.658C174.989 31.882 174.671 32.2133 174.429 32.652C174.195 33.0813 174.079 33.5807 174.079 34.15C174.079 34.7287 174.195 35.2373 174.429 35.676C174.671 36.1053 174.989 36.4367 175.381 36.67C175.782 36.894 176.216 37.006 176.683 37.006C177.159 37.006 177.593 36.894 177.985 36.67C178.386 36.4367 178.703 36.1053 178.937 35.676C179.17 35.2373 179.287 34.724 179.287 34.136ZM183.54 31.742C183.792 31.3033 184.165 30.9393 184.66 30.65C185.164 30.3513 185.747 30.202 186.41 30.202C187.091 30.202 187.707 30.3653 188.257 30.692C188.817 31.0187 189.256 31.4807 189.574 32.078C189.891 32.666 190.05 33.352 190.05 34.136C190.05 34.9107 189.891 35.6013 189.574 36.208C189.256 36.8147 188.817 37.286 188.257 37.622C187.707 37.958 187.091 38.126 186.41 38.126C185.756 38.126 185.178 37.9813 184.674 37.692C184.179 37.3933 183.801 37.0247 183.54 36.586V41.64H182.266V30.328H183.54V31.742ZM188.748 34.136C188.748 33.5573 188.631 33.0533 188.398 32.624C188.164 32.1947 187.847 31.868 187.446 31.644C187.054 31.42 186.62 31.308 186.144 31.308C185.677 31.308 185.243 31.4247 184.842 31.658C184.45 31.882 184.132 32.2133 183.89 32.652C183.656 33.0813 183.54 33.5807 183.54 34.15C183.54 34.7287 183.656 35.2373 183.89 35.676C184.132 36.1053 184.45 36.4367 184.842 36.67C185.243 36.894 185.677 37.006 186.144 37.006C186.62 37.006 187.054 36.894 187.446 36.67C187.847 36.4367 188.164 36.1053 188.398 35.676C188.631 35.2373 188.748 34.724 188.748 34.136ZM195.072 38.126C194.354 38.126 193.7 37.9627 193.112 37.636C192.534 37.3093 192.076 36.8473 191.74 36.25C191.414 35.6433 191.25 34.9433 191.25 34.15C191.25 33.366 191.418 32.6753 191.754 32.078C192.1 31.4713 192.566 31.0093 193.154 30.692C193.742 30.3653 194.4 30.202 195.128 30.202C195.856 30.202 196.514 30.3653 197.102 30.692C197.69 31.0093 198.152 31.4667 198.488 32.064C198.834 32.6613 199.006 33.3567 199.006 34.15C199.006 34.9433 198.829 35.6433 198.474 36.25C198.129 36.8473 197.658 37.3093 197.06 37.636C196.463 37.9627 195.8 38.126 195.072 38.126ZM195.072 37.006C195.53 37.006 195.959 36.8987 196.36 36.684C196.762 36.4693 197.084 36.1473 197.326 35.718C197.578 35.2887 197.704 34.766 197.704 34.15C197.704 33.534 197.583 33.0113 197.34 32.582C197.098 32.1527 196.78 31.8353 196.388 31.63C195.996 31.4153 195.572 31.308 195.114 31.308C194.648 31.308 194.218 31.4153 193.826 31.63C193.444 31.8353 193.136 32.1527 192.902 32.582C192.669 33.0113 192.552 33.534 192.552 34.15C192.552 34.7753 192.664 35.3027 192.888 35.732C193.122 36.1613 193.43 36.4833 193.812 36.698C194.195 36.9033 194.615 37.006 195.072 37.006ZM201.956 31.574C202.18 31.1353 202.497 30.7947 202.908 30.552C203.328 30.3093 203.836 30.188 204.434 30.188V31.504H204.098C202.67 31.504 201.956 32.2787 201.956 33.828V38H200.682V30.328H201.956V31.574ZM207.458 31.378V35.9C207.458 36.2733 207.538 36.5393 207.696 36.698C207.855 36.8473 208.13 36.922 208.522 36.922H209.46V38H208.312C207.603 38 207.071 37.8367 206.716 37.51C206.362 37.1833 206.184 36.6467 206.184 35.9V31.378H205.19V30.328H206.184V28.396H207.458V30.328H209.46V31.378H207.458ZM22.298 51.328L19.904 59H18.588L16.74 52.91L14.892 59H13.576L11.168 51.328H12.47L14.234 57.768L16.138 51.328H17.44L19.302 57.782L21.038 51.328H22.298ZM24.2204 50.082C23.9777 50.082 23.7724 49.998 23.6044 49.83C23.4364 49.662 23.3524 49.4567 23.3524 49.214C23.3524 48.9713 23.4364 48.766 23.6044 48.598C23.7724 48.43 23.9777 48.346 24.2204 48.346C24.4537 48.346 24.6497 48.43 24.8084 48.598C24.9764 48.766 25.0604 48.9713 25.0604 49.214C25.0604 49.4567 24.9764 49.662 24.8084 49.83C24.6497 49.998 24.4537 50.082 24.2204 50.082ZM24.8364 51.328V59H23.5624V51.328H24.8364ZM28.5617 52.378V56.9C28.5617 57.2733 28.641 57.5393 28.7997 57.698C28.9584 57.8473 29.2337 57.922 29.6257 57.922H30.5637V59H29.4157C28.7064 59 28.1744 58.8367 27.8197 58.51C27.465 58.1833 27.2877 57.6467 27.2877 56.9V52.378H26.2937V51.328H27.2877V49.396H28.5617V51.328H30.5637V52.378H28.5617ZM35.9153 51.188C36.494 51.188 37.0166 51.314 37.4833 51.566C37.95 51.8087 38.314 52.1773 38.5753 52.672C38.846 53.1667 38.9813 53.7687 38.9813 54.478V59H37.7213V54.66C37.7213 53.8947 37.53 53.3113 37.1473 52.91C36.7646 52.4993 36.242 52.294 35.5793 52.294C34.9073 52.294 34.3706 52.504 33.9693 52.924C33.5773 53.344 33.3813 53.9553 33.3813 54.758V59H32.1073V48.64H33.3813V52.42C33.6333 52.028 33.9786 51.7247 34.4173 51.51C34.8653 51.2953 35.3646 51.188 35.9153 51.188ZM44.3188 55.136C44.3188 54.352 44.4775 53.666 44.7948 53.078C45.1121 52.4807 45.5461 52.0187 46.0968 51.692C46.6568 51.3653 47.2775 51.202 47.9588 51.202C48.6308 51.202 49.2141 51.3467 49.7088 51.636C50.2035 51.9253 50.5721 52.2893 50.8148 52.728V51.328H52.1028V59H50.8148V57.572C50.5628 58.02 50.1848 58.3933 49.6808 58.692C49.1861 58.9813 48.6075 59.126 47.9448 59.126C47.2635 59.126 46.6475 58.958 46.0968 58.622C45.5461 58.286 45.1121 57.8147 44.7948 57.208C44.4775 56.6013 44.3188 55.9107 44.3188 55.136ZM50.8148 55.15C50.8148 54.5713 50.6981 54.0673 50.4648 53.638C50.2315 53.2087 49.9141 52.882 49.5128 52.658C49.1208 52.4247 48.6868 52.308 48.2108 52.308C47.7348 52.308 47.3008 52.42 46.9088 52.644C46.5168 52.868 46.2041 53.1947 45.9708 53.624C45.7375 54.0533 45.6208 54.5573 45.6208 55.136C45.6208 55.724 45.7375 56.2373 45.9708 56.676C46.2041 57.1053 46.5168 57.4367 46.9088 57.67C47.3008 57.894 47.7348 58.006 48.2108 58.006C48.6868 58.006 49.1208 57.894 49.5128 57.67C49.9141 57.4367 50.2315 57.1053 50.4648 56.676C50.6981 56.2373 50.8148 55.7287 50.8148 55.15ZM57.5122 55.15C57.5122 54.3567 57.6708 53.666 57.9882 53.078C58.3055 52.4807 58.7442 52.0187 59.3042 51.692C59.8735 51.3653 60.5222 51.202 61.2502 51.202C62.1928 51.202 62.9675 51.4307 63.5742 51.888C64.1902 52.3453 64.5962 52.98 64.7922 53.792H63.4202C63.2895 53.3253 63.0328 52.9567 62.6502 52.686C62.2768 52.4153 61.8102 52.28 61.2502 52.28C60.5222 52.28 59.9342 52.532 59.4862 53.036C59.0382 53.5307 58.8142 54.2353 58.8142 55.15C58.8142 56.074 59.0382 56.788 59.4862 57.292C59.9342 57.796 60.5222 58.048 61.2502 58.048C61.8102 58.048 62.2768 57.9173 62.6502 57.656C63.0235 57.3947 63.2802 57.0213 63.4202 56.536H64.7922C64.5868 57.32 64.1762 57.95 63.5602 58.426C62.9442 58.8927 62.1742 59.126 61.2502 59.126C60.5222 59.126 59.8735 58.9627 59.3042 58.636C58.7442 58.3093 58.3055 57.8473 57.9882 57.25C57.6708 56.6527 57.5122 55.9527 57.5122 55.15ZM69.8381 59.126C69.1194 59.126 68.4661 58.9627 67.8781 58.636C67.2994 58.3093 66.8421 57.8473 66.5061 57.25C66.1794 56.6433 66.0161 55.9433 66.0161 55.15C66.0161 54.366 66.1841 53.6753 66.5201 53.078C66.8654 52.4713 67.3321 52.0093 67.9201 51.692C68.5081 51.3653 69.1661 51.202 69.8941 51.202C70.6221 51.202 71.2801 51.3653 71.8681 51.692C72.4561 52.0093 72.9181 52.4667 73.2541 53.064C73.5994 53.6613 73.7721 54.3567 73.7721 55.15C73.7721 55.9433 73.5947 56.6433 73.2401 57.25C72.8947 57.8473 72.4234 58.3093 71.8261 58.636C71.2287 58.9627 70.5661 59.126 69.8381 59.126ZM69.8381 58.006C70.2954 58.006 70.7247 57.8987 71.1261 57.684C71.5274 57.4693 71.8494 57.1473 72.0921 56.718C72.3441 56.2887 72.4701 55.766 72.4701 55.15C72.4701 54.534 72.3487 54.0113 72.1061 53.582C71.8634 53.1527 71.5461 52.8353 71.1541 52.63C70.7621 52.4153 70.3374 52.308 69.8801 52.308C69.4134 52.308 68.9841 52.4153 68.5921 52.63C68.2094 52.8353 67.9014 53.1527 67.6681 53.582C67.4347 54.0113 67.3181 54.534 67.3181 55.15C67.3181 55.7753 67.4301 56.3027 67.6541 56.732C67.8874 57.1613 68.1954 57.4833 68.5781 57.698C68.9607 57.9033 69.3807 58.006 69.8381 58.006ZM76.7211 48.64V59H75.4471V48.64H76.7211ZM80.1665 48.64V59H78.8925V48.64H80.1665ZM89.3378 54.87C89.3378 55.1127 89.3238 55.3693 89.2958 55.64H83.1638C83.2104 56.396 83.4671 56.9887 83.9338 57.418C84.4098 57.838 84.9838 58.048 85.6558 58.048C86.2064 58.048 86.6638 57.922 87.0278 57.67C87.4011 57.4087 87.6624 57.0633 87.8118 56.634H89.1838C88.9784 57.3713 88.5678 57.9733 87.9518 58.44C87.3358 58.8973 86.5704 59.126 85.6558 59.126C84.9278 59.126 84.2744 58.9627 83.6958 58.636C83.1264 58.3093 82.6784 57.8473 82.3518 57.25C82.0251 56.6433 81.8618 55.9433 81.8618 55.15C81.8618 54.3567 82.0204 53.6613 82.3378 53.064C82.6551 52.4667 83.0984 52.0093 83.6678 51.692C84.2464 51.3653 84.9091 51.202 85.6558 51.202C86.3838 51.202 87.0278 51.3607 87.5878 51.678C88.1478 51.9953 88.5771 52.434 88.8758 52.994C89.1838 53.5447 89.3378 54.17 89.3378 54.87ZM88.0218 54.604C88.0218 54.1187 87.9144 53.7033 87.6998 53.358C87.4851 53.0033 87.1911 52.7373 86.8178 52.56C86.4538 52.3733 86.0478 52.28 85.5998 52.28C84.9558 52.28 84.4051 52.4853 83.9478 52.896C83.4998 53.3067 83.2431 53.876 83.1778 54.604H88.0218ZM90.5434 55.136C90.5434 54.352 90.7021 53.666 91.0194 53.078C91.3367 52.4807 91.7707 52.0187 92.3214 51.692C92.8814 51.3653 93.5021 51.202 94.1834 51.202C94.8554 51.202 95.4387 51.3467 95.9334 51.636C96.4281 51.9253 96.7967 52.2893 97.0394 52.728V51.328H98.3274V59H97.0394V57.572C96.7874 58.02 96.4094 58.3933 95.9054 58.692C95.4107 58.9813 94.8321 59.126 94.1694 59.126C93.4881 59.126 92.8721 58.958 92.3214 58.622C91.7707 58.286 91.3367 57.8147 91.0194 57.208C90.7021 56.6013 90.5434 55.9107 90.5434 55.136ZM97.0394 55.15C97.0394 54.5713 96.9227 54.0673 96.6894 53.638C96.4561 53.2087 96.1387 52.882 95.7374 52.658C95.3454 52.4247 94.9114 52.308 94.4354 52.308C93.9594 52.308 93.5254 52.42 93.1334 52.644C92.7414 52.868 92.4287 53.1947 92.1954 53.624C91.9621 54.0533 91.8454 54.5573 91.8454 55.136C91.8454 55.724 91.9621 56.2373 92.1954 56.676C92.4287 57.1053 92.7414 57.4367 93.1334 57.67C93.5254 57.894 93.9594 58.006 94.4354 58.006C94.9114 58.006 95.3454 57.894 95.7374 57.67C96.1387 57.4367 96.4561 57.1053 96.6894 56.676C96.9227 56.2373 97.0394 55.7287 97.0394 55.15ZM103.644 51.202C104.307 51.202 104.886 51.3467 105.38 51.636C105.884 51.9253 106.258 52.2893 106.5 52.728V51.328H107.788V59.168C107.788 59.868 107.639 60.4887 107.34 61.03C107.042 61.5807 106.612 62.01 106.052 62.318C105.502 62.626 104.858 62.78 104.12 62.78C103.112 62.78 102.272 62.542 101.6 62.066C100.928 61.59 100.532 60.9413 100.41 60.12H101.67C101.81 60.5867 102.1 60.96 102.538 61.24C102.977 61.5293 103.504 61.674 104.12 61.674C104.82 61.674 105.39 61.4547 105.828 61.016C106.276 60.5773 106.5 59.9613 106.5 59.168V57.558C106.248 58.006 105.875 58.3793 105.38 58.678C104.886 58.9767 104.307 59.126 103.644 59.126C102.963 59.126 102.342 58.958 101.782 58.622C101.232 58.286 100.798 57.8147 100.48 57.208C100.163 56.6013 100.004 55.9107 100.004 55.136C100.004 54.352 100.163 53.666 100.48 53.078C100.798 52.4807 101.232 52.0187 101.782 51.692C102.342 51.3653 102.963 51.202 103.644 51.202ZM106.5 55.15C106.5 54.5713 106.384 54.0673 106.15 53.638C105.917 53.2087 105.6 52.882 105.198 52.658C104.806 52.4247 104.372 52.308 103.896 52.308C103.42 52.308 102.986 52.42 102.594 52.644C102.202 52.868 101.89 53.1947 101.656 53.624C101.423 54.0533 101.306 54.5573 101.306 55.136C101.306 55.724 101.423 56.2373 101.656 56.676C101.89 57.1053 102.202 57.4367 102.594 57.67C102.986 57.894 103.42 58.006 103.896 58.006C104.372 58.006 104.806 57.894 105.198 57.67C105.6 57.4367 105.917 57.1053 106.15 56.676C106.384 56.2373 106.5 55.7287 106.5 55.15ZM116.745 51.328V59H115.471V57.866C115.229 58.258 114.888 58.566 114.449 58.79C114.02 59.0047 113.544 59.112 113.021 59.112C112.424 59.112 111.887 58.9907 111.411 58.748C110.935 58.496 110.557 58.1227 110.277 57.628C110.007 57.1333 109.871 56.5313 109.871 55.822V51.328H111.131V55.654C111.131 56.41 111.323 56.9933 111.705 57.404C112.088 57.8053 112.611 58.006 113.273 58.006C113.955 58.006 114.491 57.796 114.883 57.376C115.275 56.956 115.471 56.3447 115.471 55.542V51.328H116.745ZM125.896 54.87C125.896 55.1127 125.882 55.3693 125.854 55.64H119.722C119.769 56.396 120.026 56.9887 120.492 57.418C120.968 57.838 121.542 58.048 122.214 58.048C122.765 58.048 123.222 57.922 123.586 57.67C123.96 57.4087 124.221 57.0633 124.37 56.634H125.742C125.537 57.3713 125.126 57.9733 124.51 58.44C123.894 58.8973 123.129 59.126 122.214 59.126C121.486 59.126 120.833 58.9627 120.254 58.636C119.685 58.3093 119.237 57.8473 118.91 57.25C118.584 56.6433 118.42 55.9433 118.42 55.15C118.42 54.3567 118.579 53.6613 118.896 53.064C119.214 52.4667 119.657 52.0093 120.226 51.692C120.805 51.3653 121.468 51.202 122.214 51.202C122.942 51.202 123.586 51.3607 124.146 51.678C124.706 51.9953 125.136 52.434 125.434 52.994C125.742 53.5447 125.896 54.17 125.896 54.87ZM124.58 54.604C124.58 54.1187 124.473 53.7033 124.258 53.358C124.044 53.0033 123.75 52.7373 123.376 52.56C123.012 52.3733 122.606 52.28 122.158 52.28C121.514 52.28 120.964 52.4853 120.506 52.896C120.058 53.3067 119.802 53.876 119.736 54.604H124.58ZM127.984 59.084C127.741 59.084 127.536 59 127.368 58.832C127.2 58.664 127.116 58.4587 127.116 58.216C127.116 57.9733 127.2 57.768 127.368 57.6C127.536 57.432 127.741 57.348 127.984 57.348C128.217 57.348 128.413 57.432 128.572 57.6C128.74 57.768 128.824 57.9733 128.824 58.216C128.824 58.4587 128.74 58.664 128.572 58.832C128.413 59 128.217 59.084 127.984 59.084ZM141.768 49.242V59H140.494V54.576H135.524V59H134.25V49.242H135.524V53.526H140.494V49.242H141.768ZM147.289 59.126C146.571 59.126 145.917 58.9627 145.329 58.636C144.751 58.3093 144.293 57.8473 143.957 57.25C143.631 56.6433 143.467 55.9433 143.467 55.15C143.467 54.366 143.635 53.6753 143.971 53.078C144.317 52.4713 144.783 52.0093 145.371 51.692C145.959 51.3653 146.617 51.202 147.345 51.202C148.073 51.202 148.731 51.3653 149.319 51.692C149.907 52.0093 150.369 52.4667 150.705 53.064C151.051 53.6613 151.223 54.3567 151.223 55.15C151.223 55.9433 151.046 56.6433 150.691 57.25C150.346 57.8473 149.875 58.3093 149.277 58.636C148.68 58.9627 148.017 59.126 147.289 59.126ZM147.289 58.006C147.747 58.006 148.176 57.8987 148.577 57.684C148.979 57.4693 149.301 57.1473 149.543 56.718C149.795 56.2887 149.921 55.766 149.921 55.15C149.921 54.534 149.8 54.0113 149.557 53.582C149.315 53.1527 148.997 52.8353 148.605 52.63C148.213 52.4153 147.789 52.308 147.331 52.308C146.865 52.308 146.435 52.4153 146.043 52.63C145.661 52.8353 145.353 53.1527 145.119 53.582C144.886 54.0113 144.769 54.534 144.769 55.15C144.769 55.7753 144.881 56.3027 145.105 56.732C145.339 57.1613 145.647 57.4833 146.029 57.698C146.412 57.9033 146.832 58.006 147.289 58.006ZM163.118 51.328L160.724 59H159.408L157.56 52.91L155.712 59H154.396L151.988 51.328H153.29L155.054 57.768L156.958 51.328H158.26L160.122 57.782L161.858 51.328H163.118ZM167.639 55.136C167.639 54.352 167.798 53.666 168.115 53.078C168.432 52.4807 168.866 52.0187 169.417 51.692C169.977 51.3653 170.602 51.202 171.293 51.202C171.89 51.202 172.446 51.342 172.959 51.622C173.472 51.8927 173.864 52.252 174.135 52.7V48.64H175.423V59H174.135V57.558C173.883 58.0153 173.51 58.3933 173.015 58.692C172.52 58.9813 171.942 59.126 171.279 59.126C170.598 59.126 169.977 58.958 169.417 58.622C168.866 58.286 168.432 57.8147 168.115 57.208C167.798 56.6013 167.639 55.9107 167.639 55.136ZM174.135 55.15C174.135 54.5713 174.018 54.0673 173.785 53.638C173.552 53.2087 173.234 52.882 172.833 52.658C172.441 52.4247 172.007 52.308 171.531 52.308C171.055 52.308 170.621 52.42 170.229 52.644C169.837 52.868 169.524 53.1947 169.291 53.624C169.058 54.0533 168.941 54.5573 168.941 55.136C168.941 55.724 169.058 56.2373 169.291 56.676C169.524 57.1053 169.837 57.4367 170.229 57.67C170.621 57.894 171.055 58.006 171.531 58.006C172.007 58.006 172.441 57.894 172.833 57.67C173.234 57.4367 173.552 57.1053 173.785 56.676C174.018 56.2373 174.135 55.7287 174.135 55.15ZM180.922 59.126C180.203 59.126 179.55 58.9627 178.962 58.636C178.383 58.3093 177.926 57.8473 177.59 57.25C177.263 56.6433 177.1 55.9433 177.1 55.15C177.1 54.366 177.268 53.6753 177.604 53.078C177.949 52.4713 178.416 52.0093 179.004 51.692C179.592 51.3653 180.25 51.202 180.978 51.202C181.706 51.202 182.364 51.3653 182.952 51.692C183.54 52.0093 184.002 52.4667 184.338 53.064C184.683 53.6613 184.856 54.3567 184.856 55.15C184.856 55.9433 184.679 56.6433 184.324 57.25C183.979 57.8473 183.507 58.3093 182.91 58.636C182.313 58.9627 181.65 59.126 180.922 59.126ZM180.922 58.006C181.379 58.006 181.809 57.8987 182.21 57.684C182.611 57.4693 182.933 57.1473 183.176 56.718C183.428 56.2887 183.554 55.766 183.554 55.15C183.554 54.534 183.433 54.0113 183.19 53.582C182.947 53.1527 182.63 52.8353 182.238 52.63C181.846 52.4153 181.421 52.308 180.964 52.308C180.497 52.308 180.068 52.4153 179.676 52.63C179.293 52.8353 178.985 53.1527 178.752 53.582C178.519 54.0113 178.402 54.534 178.402 55.15C178.402 55.7753 178.514 56.3027 178.738 56.732C178.971 57.1613 179.279 57.4833 179.662 57.698C180.045 57.9033 180.465 58.006 180.922 58.006ZM196.872 51.328L192.252 62.612H190.936L192.448 58.916L189.354 51.328H190.768L193.176 57.544L195.556 51.328H196.872ZM201.498 59.126C200.78 59.126 200.126 58.9627 199.538 58.636C198.96 58.3093 198.502 57.8473 198.166 57.25C197.84 56.6433 197.676 55.9433 197.676 55.15C197.676 54.366 197.844 53.6753 198.18 53.078C198.526 52.4713 198.992 52.0093 199.58 51.692C200.168 51.3653 200.826 51.202 201.554 51.202C202.282 51.202 202.94 51.3653 203.528 51.692C204.116 52.0093 204.578 52.4667 204.914 53.064C205.26 53.6613 205.432 54.3567 205.432 55.15C205.432 55.9433 205.255 56.6433 204.9 57.25C204.555 57.8473 204.084 58.3093 203.486 58.636C202.889 58.9627 202.226 59.126 201.498 59.126ZM201.498 58.006C201.956 58.006 202.385 57.8987 202.786 57.684C203.188 57.4693 203.51 57.1473 203.752 56.718C204.004 56.2887 204.13 55.766 204.13 55.15C204.13 54.534 204.009 54.0113 203.766 53.582C203.524 53.1527 203.206 52.8353 202.814 52.63C202.422 52.4153 201.998 52.308 201.54 52.308C201.074 52.308 200.644 52.4153 200.252 52.63C199.87 52.8353 199.562 53.1527 199.328 53.582C199.095 54.0113 198.978 54.534 198.978 55.15C198.978 55.7753 199.09 56.3027 199.314 56.732C199.548 57.1613 199.856 57.4833 200.238 57.698C200.621 57.9033 201.041 58.006 201.498 58.006ZM213.911 51.328V59H212.637V57.866C212.395 58.258 212.054 58.566 211.615 58.79C211.186 59.0047 210.71 59.112 210.187 59.112C209.59 59.112 209.053 58.9907 208.577 58.748C208.101 58.496 207.723 58.1227 207.443 57.628C207.173 57.1333 207.037 56.5313 207.037 55.822V51.328H208.297V55.654C208.297 56.41 208.489 56.9933 208.871 57.404C209.254 57.8053 209.777 58.006 210.439 58.006C211.121 58.006 211.657 57.796 212.049 57.376C212.441 56.956 212.637 56.3447 212.637 55.542V51.328H213.911ZM21.304 72.188C21.9013 72.188 22.4333 72.314 22.9 72.566C23.3667 72.8087 23.7353 73.1773 24.006 73.672C24.2767 74.1667 24.412 74.7687 24.412 75.478V80H23.152V75.66C23.152 74.8947 22.9607 74.3113 22.578 73.91C22.2047 73.4993 21.696 73.294 21.052 73.294C20.3893 73.294 19.862 73.5087 19.47 73.938C19.078 74.358 18.882 74.9693 18.882 75.772V80H17.622V75.66C17.622 74.8947 17.4307 74.3113 17.048 73.91C16.6747 73.4993 16.166 73.294 15.522 73.294C14.8593 73.294 14.332 73.5087 13.94 73.938C13.548 74.358 13.352 74.9693 13.352 75.772V80H12.078V72.328H13.352V73.434C13.604 73.0327 13.94 72.7247 14.36 72.51C14.7893 72.2953 15.2607 72.188 15.774 72.188C16.418 72.188 16.9873 72.3327 17.482 72.622C17.9767 72.9113 18.3453 73.336 18.588 73.896C18.8027 73.3547 19.1573 72.9347 19.652 72.636C20.1467 72.3373 20.6973 72.188 21.304 72.188ZM26.0258 76.136C26.0258 75.352 26.1845 74.666 26.5018 74.078C26.8192 73.4807 27.2532 73.0187 27.8038 72.692C28.3638 72.3653 28.9845 72.202 29.6658 72.202C30.3378 72.202 30.9212 72.3467 31.4158 72.636C31.9105 72.9253 32.2792 73.2893 32.5218 73.728V72.328H33.8098V80H32.5218V78.572C32.2698 79.02 31.8918 79.3933 31.3878 79.692C30.8932 79.9813 30.3145 80.126 29.6518 80.126C28.9705 80.126 28.3545 79.958 27.8038 79.622C27.2532 79.286 26.8192 78.8147 26.5018 78.208C26.1845 77.6013 26.0258 76.9107 26.0258 76.136ZM32.5218 76.15C32.5218 75.5713 32.4052 75.0673 32.1718 74.638C31.9385 74.2087 31.6212 73.882 31.2198 73.658C30.8278 73.4247 30.3938 73.308 29.9178 73.308C29.4418 73.308 29.0078 73.42 28.6158 73.644C28.2238 73.868 27.9112 74.1947 27.6778 74.624C27.4445 75.0533 27.3278 75.5573 27.3278 76.136C27.3278 76.724 27.4445 77.2373 27.6778 77.676C27.9112 78.1053 28.2238 78.4367 28.6158 78.67C29.0078 78.894 29.4418 79.006 29.9178 79.006C30.3938 79.006 30.8278 78.894 31.2198 78.67C31.6212 78.4367 31.9385 78.1053 32.1718 77.676C32.4052 77.2373 32.5218 76.7287 32.5218 76.15ZM37.5168 73.378V77.9C37.5168 78.2733 37.5961 78.5393 37.7548 78.698C37.9134 78.8473 38.1888 78.922 38.5808 78.922H39.5188V80H38.3708C37.6614 80 37.1294 79.8367 36.7748 79.51C36.4201 79.1833 36.2428 78.6467 36.2428 77.9V73.378H35.2488V72.328H36.2428V70.396H37.5168V72.328H39.5188V73.378H37.5168ZM40.5864 76.15C40.5864 75.3567 40.745 74.666 41.0624 74.078C41.3797 73.4807 41.8184 73.0187 42.3784 72.692C42.9477 72.3653 43.5964 72.202 44.3244 72.202C45.267 72.202 46.0417 72.4307 46.6484 72.888C47.2644 73.3453 47.6704 73.98 47.8664 74.792H46.4944C46.3637 74.3253 46.107 73.9567 45.7244 73.686C45.351 73.4153 44.8844 73.28 44.3244 73.28C43.5964 73.28 43.0084 73.532 42.5604 74.036C42.1124 74.5307 41.8884 75.2353 41.8884 76.15C41.8884 77.074 42.1124 77.788 42.5604 78.292C43.0084 78.796 43.5964 79.048 44.3244 79.048C44.8844 79.048 45.351 78.9173 45.7244 78.656C46.0977 78.3947 46.3544 78.0213 46.4944 77.536H47.8664C47.661 78.32 47.2504 78.95 46.6344 79.426C46.0184 79.8927 45.2484 80.126 44.3244 80.126C43.5964 80.126 42.9477 79.9627 42.3784 79.636C41.8184 79.3093 41.3797 78.8473 41.0624 78.25C40.745 77.6527 40.5864 76.9527 40.5864 76.15ZM53.3743 72.188C53.9529 72.188 54.4756 72.314 54.9423 72.566C55.4089 72.8087 55.7729 73.1773 56.0343 73.672C56.3049 74.1667 56.4403 74.7687 56.4403 75.478V80H55.1803V75.66C55.1803 74.8947 54.9889 74.3113 54.6063 73.91C54.2236 73.4993 53.7009 73.294 53.0383 73.294C52.3663 73.294 51.8296 73.504 51.4283 73.924C51.0363 74.344 50.8403 74.9553 50.8403 75.758V80H49.5663V69.64H50.8403V73.42C51.0923 73.028 51.4376 72.7247 51.8763 72.51C52.3243 72.2953 52.8236 72.188 53.3743 72.188ZM63.8078 73.378V77.9C63.8078 78.2733 63.8871 78.5393 64.0458 78.698C64.2044 78.8473 64.4798 78.922 64.8718 78.922H65.8098V80H64.6618C63.9524 80 63.4204 79.8367 63.0658 79.51C62.7111 79.1833 62.5338 78.6467 62.5338 77.9V73.378H61.5398V72.328H62.5338V70.396H63.8078V72.328H65.8098V73.378H63.8078ZM71.1614 72.188C71.7401 72.188 72.2627 72.314 72.7294 72.566C73.1961 72.8087 73.5601 73.1773 73.8214 73.672C74.0921 74.1667 74.2274 74.7687 74.2274 75.478V80H72.9674V75.66C72.9674 74.8947 72.7761 74.3113 72.3934 73.91C72.0107 73.4993 71.4881 73.294 70.8254 73.294C70.1534 73.294 69.6167 73.504 69.2154 73.924C68.8234 74.344 68.6274 74.9553 68.6274 75.758V80H67.3534V69.64H68.6274V73.42C68.8794 73.028 69.2247 72.7247 69.6634 72.51C70.1114 72.2953 70.6107 72.188 71.1614 72.188ZM83.3085 75.87C83.3085 76.1127 83.2945 76.3693 83.2665 76.64H77.1345C77.1811 77.396 77.4378 77.9887 77.9045 78.418C78.3805 78.838 78.9545 79.048 79.6265 79.048C80.1771 79.048 80.6345 78.922 80.9985 78.67C81.3718 78.4087 81.6331 78.0633 81.7825 77.634H83.1545C82.9491 78.3713 82.5385 78.9733 81.9225 79.44C81.3065 79.8973 80.5411 80.126 79.6265 80.126C78.8985 80.126 78.2451 79.9627 77.6665 79.636C77.0971 79.3093 76.6491 78.8473 76.3225 78.25C75.9958 77.6433 75.8325 76.9433 75.8325 76.15C75.8325 75.3567 75.9911 74.6613 76.3085 74.064C76.6258 73.4667 77.0691 73.0093 77.6385 72.692C78.2171 72.3653 78.8798 72.202 79.6265 72.202C80.3545 72.202 80.9985 72.3607 81.5585 72.678C82.1185 72.9953 82.5478 73.434 82.8465 73.994C83.1545 74.5447 83.3085 75.17 83.3085 75.87ZM81.9925 75.604C81.9925 75.1187 81.8851 74.7033 81.6705 74.358C81.4558 74.0033 81.1618 73.7373 80.7885 73.56C80.4245 73.3733 80.0185 73.28 79.5705 73.28C78.9265 73.28 78.3758 73.4853 77.9185 73.896C77.4705 74.3067 77.2138 74.876 77.1485 75.604H81.9925ZM85.6481 71.082C85.4054 71.082 85.2001 70.998 85.0321 70.83C84.8641 70.662 84.7801 70.4567 84.7801 70.214C84.7801 69.9713 84.8641 69.766 85.0321 69.598C85.2001 69.43 85.4054 69.346 85.6481 69.346C85.8814 69.346 86.0774 69.43 86.2361 69.598C86.4041 69.766 86.4881 69.9713 86.4881 70.214C86.4881 70.4567 86.4041 70.662 86.2361 70.83C86.0774 70.998 85.8814 71.082 85.6481 71.082ZM86.2641 72.328V80H84.9901V72.328H86.2641ZM89.7094 73.574C89.9334 73.1353 90.2508 72.7947 90.6614 72.552C91.0814 72.3093 91.5901 72.188 92.1874 72.188V73.504H91.8514C90.4234 73.504 89.7094 74.2787 89.7094 75.828V80H88.4354V72.328H89.7094V73.574ZM98.9445 73.378V77.9C98.9445 78.2733 99.0238 78.5393 99.1825 78.698C99.3412 78.8473 99.6165 78.922 100.008 78.922H100.947V80H99.7985C99.0892 80 98.5572 79.8367 98.2025 79.51C97.8478 79.1833 97.6705 78.6467 97.6705 77.9V73.378H96.6765V72.328H97.6705V70.396H98.9445V72.328H100.947V73.378H98.9445ZM105.836 80.126C105.117 80.126 104.464 79.9627 103.876 79.636C103.297 79.3093 102.84 78.8473 102.504 78.25C102.177 77.6433 102.014 76.9433 102.014 76.15C102.014 75.366 102.182 74.6753 102.518 74.078C102.863 73.4713 103.33 73.0093 103.918 72.692C104.506 72.3653 105.164 72.202 105.892 72.202C106.62 72.202 107.278 72.3653 107.866 72.692C108.454 73.0093 108.916 73.4667 109.252 74.064C109.597 74.6613 109.77 75.3567 109.77 76.15C109.77 76.9433 109.593 77.6433 109.238 78.25C108.893 78.8473 108.421 79.3093 107.824 79.636C107.227 79.9627 106.564 80.126 105.836 80.126ZM105.836 79.006C106.293 79.006 106.723 78.8987 107.124 78.684C107.525 78.4693 107.847 78.1473 108.09 77.718C108.342 77.2887 108.468 76.766 108.468 76.15C108.468 75.534 108.347 75.0113 108.104 74.582C107.861 74.1527 107.544 73.8353 107.152 73.63C106.76 73.4153 106.335 73.308 105.878 73.308C105.411 73.308 104.982 73.4153 104.59 73.63C104.207 73.8353 103.899 74.1527 103.666 74.582C103.433 75.0113 103.316 75.534 103.316 76.15C103.316 76.7753 103.428 77.3027 103.652 77.732C103.885 78.1613 104.193 78.4833 104.576 78.698C104.959 78.9033 105.379 79.006 105.836 79.006ZM115.183 72.188C116.117 72.188 116.873 72.4727 117.451 73.042C118.03 73.602 118.319 74.414 118.319 75.478V80H117.059V75.66C117.059 74.8947 116.868 74.3113 116.485 73.91C116.103 73.4993 115.58 73.294 114.917 73.294C114.245 73.294 113.709 73.504 113.307 73.924C112.915 74.344 112.719 74.9553 112.719 75.758V80H111.445V72.328H112.719V73.42C112.971 73.028 113.312 72.7247 113.741 72.51C114.18 72.2953 114.661 72.188 115.183 72.188ZM127.4 75.87C127.4 76.1127 127.386 76.3693 127.358 76.64H121.226C121.273 77.396 121.53 77.9887 121.996 78.418C122.472 78.838 123.046 79.048 123.718 79.048C124.269 79.048 124.726 78.922 125.09 78.67C125.464 78.4087 125.725 78.0633 125.874 77.634H127.246C127.041 78.3713 126.63 78.9733 126.014 79.44C125.398 79.8973 124.633 80.126 123.718 80.126C122.99 80.126 122.337 79.9627 121.758 79.636C121.189 79.3093 120.741 78.8473 120.414 78.25C120.088 77.6433 119.924 76.9433 119.924 76.15C119.924 75.3567 120.083 74.6613 120.4 74.064C120.718 73.4667 121.161 73.0093 121.73 72.692C122.309 72.3653 122.972 72.202 123.718 72.202C124.446 72.202 125.09 72.3607 125.65 72.678C126.21 72.9953 126.64 73.434 126.938 73.994C127.246 74.5447 127.4 75.17 127.4 75.87ZM126.084 75.604C126.084 75.1187 125.977 74.7033 125.762 74.358C125.548 74.0033 125.254 73.7373 124.88 73.56C124.516 73.3733 124.11 73.28 123.662 73.28C123.018 73.28 122.468 73.4853 122.01 73.896C121.562 74.3067 121.306 74.876 121.24 75.604H126.084ZM132.338 76.136C132.338 75.352 132.497 74.666 132.814 74.078C133.132 73.4807 133.566 73.0187 134.116 72.692C134.676 72.3653 135.297 72.202 135.978 72.202C136.65 72.202 137.234 72.3467 137.728 72.636C138.223 72.9253 138.592 73.2893 138.834 73.728V72.328H140.122V80H138.834V78.572C138.582 79.02 138.204 79.3933 137.7 79.692C137.206 79.9813 136.627 80.126 135.964 80.126C135.283 80.126 134.667 79.958 134.116 79.622C133.566 79.286 133.132 78.8147 132.814 78.208C132.497 77.6013 132.338 76.9107 132.338 76.136ZM138.834 76.15C138.834 75.5713 138.718 75.0673 138.484 74.638C138.251 74.2087 137.934 73.882 137.532 73.658C137.14 73.4247 136.706 73.308 136.23 73.308C135.754 73.308 135.32 73.42 134.928 73.644C134.536 73.868 134.224 74.1947 133.99 74.624C133.757 75.0533 133.64 75.5573 133.64 76.136C133.64 76.724 133.757 77.2373 133.99 77.676C134.224 78.1053 134.536 78.4367 134.928 78.67C135.32 78.894 135.754 79.006 136.23 79.006C136.706 79.006 137.14 78.894 137.532 78.67C137.934 78.4367 138.251 78.1053 138.484 77.676C138.718 77.2373 138.834 76.7287 138.834 76.15ZM146.013 72.188C146.947 72.188 147.703 72.4727 148.281 73.042C148.86 73.602 149.149 74.414 149.149 75.478V80H147.889V75.66C147.889 74.8947 147.698 74.3113 147.315 73.91C146.933 73.4993 146.41 73.294 145.747 73.294C145.075 73.294 144.539 73.504 144.137 73.924C143.745 74.344 143.549 74.9553 143.549 75.758V80H142.275V72.328H143.549V73.42C143.801 73.028 144.142 72.7247 144.571 72.51C145.01 72.2953 145.491 72.188 146.013 72.188ZM150.754 76.136C150.754 75.352 150.913 74.666 151.23 74.078C151.548 73.4807 151.982 73.0187 152.532 72.692C153.092 72.3653 153.718 72.202 154.408 72.202C155.006 72.202 155.561 72.342 156.074 72.622C156.588 72.8927 156.98 73.252 157.25 73.7V69.64H158.538V80H157.25V78.558C156.998 79.0153 156.625 79.3933 156.13 79.692C155.636 79.9813 155.057 80.126 154.394 80.126C153.713 80.126 153.092 79.958 152.532 79.622C151.982 79.286 151.548 78.8147 151.23 78.208C150.913 77.6013 150.754 76.9107 150.754 76.136ZM157.25 76.15C157.25 75.5713 157.134 75.0673 156.9 74.638C156.667 74.2087 156.35 73.882 155.948 73.658C155.556 73.4247 155.122 73.308 154.646 73.308C154.17 73.308 153.736 73.42 153.344 73.644C152.952 73.868 152.64 74.1947 152.406 74.624C152.173 75.0533 152.056 75.5573 152.056 76.136C152.056 76.724 152.173 77.2373 152.406 77.676C152.64 78.1053 152.952 78.4367 153.344 78.67C153.736 78.894 154.17 79.006 154.646 79.006C155.122 79.006 155.556 78.894 155.948 78.67C156.35 78.4367 156.667 78.1053 156.9 77.676C157.134 77.2373 157.25 76.7287 157.25 76.15ZM165.698 73.742C165.95 73.3033 166.323 72.9393 166.818 72.65C167.322 72.3513 167.905 72.202 168.568 72.202C169.249 72.202 169.865 72.3653 170.416 72.692C170.976 73.0187 171.414 73.4807 171.732 74.078C172.049 74.666 172.208 75.352 172.208 76.136C172.208 76.9107 172.049 77.6013 171.732 78.208C171.414 78.8147 170.976 79.286 170.416 79.622C169.865 79.958 169.249 80.126 168.568 80.126C167.914 80.126 167.336 79.9813 166.832 79.692C166.337 79.3933 165.959 79.0247 165.698 78.586V83.64H164.424V72.328H165.698V73.742ZM170.906 76.136C170.906 75.5573 170.789 75.0533 170.556 74.624C170.322 74.1947 170.005 73.868 169.604 73.644C169.212 73.42 168.778 73.308 168.302 73.308C167.835 73.308 167.401 73.4247 167 73.658C166.608 73.882 166.29 74.2133 166.048 74.652C165.814 75.0813 165.698 75.5807 165.698 76.15C165.698 76.7287 165.814 77.2373 166.048 77.676C166.29 78.1053 166.608 78.4367 167 78.67C167.401 78.894 167.835 79.006 168.302 79.006C168.778 79.006 169.212 78.894 169.604 78.67C170.005 78.4367 170.322 78.1053 170.556 77.676C170.789 77.2373 170.906 76.724 170.906 76.136ZM173.409 76.136C173.409 75.352 173.567 74.666 173.885 74.078C174.202 73.4807 174.636 73.0187 175.187 72.692C175.747 72.3653 176.367 72.202 177.049 72.202C177.721 72.202 178.304 72.3467 178.799 72.636C179.293 72.9253 179.662 73.2893 179.905 73.728V72.328H181.193V80H179.905V78.572C179.653 79.02 179.275 79.3933 178.771 79.692C178.276 79.9813 177.697 80.126 177.035 80.126C176.353 80.126 175.737 79.958 175.187 79.622C174.636 79.286 174.202 78.8147 173.885 78.208C173.567 77.6013 173.409 76.9107 173.409 76.136ZM179.905 76.15C179.905 75.5713 179.788 75.0673 179.555 74.638C179.321 74.2087 179.004 73.882 178.603 73.658C178.211 73.4247 177.777 73.308 177.301 73.308C176.825 73.308 176.391 73.42 175.999 73.644C175.607 73.868 175.294 74.1947 175.061 74.624C174.827 75.0533 174.711 75.5573 174.711 76.136C174.711 76.724 174.827 77.2373 175.061 77.676C175.294 78.1053 175.607 78.4367 175.999 78.67C176.391 78.894 176.825 79.006 177.301 79.006C177.777 79.006 178.211 78.894 178.603 78.67C179.004 78.4367 179.321 78.1053 179.555 77.676C179.788 77.2373 179.905 76.7287 179.905 76.15ZM182.87 76.15C182.87 75.3567 183.028 74.666 183.346 74.078C183.663 73.4807 184.102 73.0187 184.662 72.692C185.231 72.3653 185.88 72.202 186.608 72.202C187.55 72.202 188.325 72.4307 188.932 72.888C189.548 73.3453 189.954 73.98 190.15 74.792H188.778C188.647 74.3253 188.39 73.9567 188.008 73.686C187.634 73.4153 187.168 73.28 186.608 73.28C185.88 73.28 185.292 73.532 184.844 74.036C184.396 74.5307 184.172 75.2353 184.172 76.15C184.172 77.074 184.396 77.788 184.844 78.292C185.292 78.796 185.88 79.048 186.608 79.048C187.168 79.048 187.634 78.9173 188.008 78.656C188.381 78.3947 188.638 78.0213 188.778 77.536H190.15C189.944 78.32 189.534 78.95 188.918 79.426C188.302 79.8927 187.532 80.126 186.608 80.126C185.88 80.126 185.231 79.9627 184.662 79.636C184.102 79.3093 183.663 78.8473 183.346 78.25C183.028 77.6527 182.87 76.9527 182.87 76.15ZM198.849 75.87C198.849 76.1127 198.835 76.3693 198.807 76.64H192.675C192.722 77.396 192.979 77.9887 193.445 78.418C193.921 78.838 194.495 79.048 195.167 79.048C195.718 79.048 196.175 78.922 196.539 78.67C196.913 78.4087 197.174 78.0633 197.323 77.634H198.695C198.49 78.3713 198.079 78.9733 197.463 79.44C196.847 79.8973 196.082 80.126 195.167 80.126C194.439 80.126 193.786 79.9627 193.207 79.636C192.638 79.3093 192.19 78.8473 191.863 78.25C191.537 77.6433 191.373 76.9433 191.373 76.15C191.373 75.3567 191.532 74.6613 191.849 74.064C192.167 73.4667 192.61 73.0093 193.179 72.692C193.758 72.3653 194.421 72.202 195.167 72.202C195.895 72.202 196.539 72.3607 197.099 72.678C197.659 72.9953 198.089 73.434 198.387 73.994C198.695 74.5447 198.849 75.17 198.849 75.87ZM197.533 75.604C197.533 75.1187 197.426 74.7033 197.211 74.358C196.997 74.0033 196.703 73.7373 196.329 73.56C195.965 73.3733 195.559 73.28 195.111 73.28C194.467 73.28 193.917 73.4853 193.459 73.896C193.011 74.3067 192.755 74.876 192.689 75.604H197.533ZM203.023 70.116C203.947 70.116 204.694 70.3773 205.263 70.9C205.832 71.4227 206.117 72.1227 206.117 73C206.117 73.98 205.814 74.708 205.207 75.184C204.6 75.6507 203.779 75.884 202.743 75.884L202.701 77.214H201.595L201.539 75.002H201.945C202.869 75.002 203.592 74.862 204.115 74.582C204.638 74.302 204.899 73.7747 204.899 73C204.899 72.44 204.731 71.9967 204.395 71.67C204.059 71.3433 203.606 71.18 203.037 71.18C202.458 71.18 202.001 71.3387 201.665 71.656C201.338 71.964 201.175 72.3887 201.175 72.93H199.971C199.971 72.37 200.097 71.88 200.349 71.46C200.601 71.0307 200.956 70.6993 201.413 70.466C201.88 70.2327 202.416 70.116 203.023 70.116ZM202.141 80.084C201.898 80.084 201.693 80 201.525 79.832C201.357 79.664 201.273 79.4587 201.273 79.216C201.273 78.9733 201.357 78.768 201.525 78.6C201.693 78.432 201.898 78.348 202.141 78.348C202.374 78.348 202.57 78.432 202.729 78.6C202.897 78.768 202.981 78.9733 202.981 79.216C202.981 79.4587 202.897 79.664 202.729 79.832C202.57 80 202.374 80.084 202.141 80.084Z" fill="black"/>
</svg>
