<svg width="232" height="54" viewBox="0 0 232 54" fill="none" xmlns="http://www.w3.org/2000/svg">
<path d="M0.5 0.5H220C226.351 0.5 231.5 5.64873 231.5 12V42C231.5 48.3513 226.351 53.5 220 53.5H12C5.64873 53.5 0.5 48.3513 0.5 42V0.5Z" stroke="#939393"/>
<path d="M23.596 18.242V28H22.322V23.576H17.352V28H16.078V18.242H17.352V22.526H22.322V18.242H23.596ZM25.2954 24.136C25.2954 23.352 25.454 22.666 25.7714 22.078C26.0887 21.4807 26.5227 21.0187 27.0734 20.692C27.6334 20.3653 28.254 20.202 28.9354 20.202C29.6074 20.202 30.1907 20.3467 30.6854 20.636C31.18 20.9253 31.5487 21.2893 31.7914 21.728V20.328H33.0794V28H31.7914V26.572C31.5394 27.02 31.1614 27.3933 30.6574 27.692C30.1627 27.9813 29.584 28.126 28.9214 28.126C28.24 28.126 27.624 27.958 27.0734 27.622C26.5227 27.286 26.0887 26.8147 25.7714 26.208C25.454 25.6013 25.2954 24.9107 25.2954 24.136ZM31.7914 24.15C31.7914 23.5713 31.6747 23.0673 31.4414 22.638C31.208 22.2087 30.8907 21.882 30.4894 21.658C30.0974 21.4247 29.6634 21.308 29.1874 21.308C28.7114 21.308 28.2774 21.42 27.8854 21.644C27.4934 21.868 27.1807 22.1947 26.9474 22.624C26.714 23.0533 26.5974 23.5573 26.5974 24.136C26.5974 24.724 26.714 25.2373 26.9474 25.676C27.1807 26.1053 27.4934 26.4367 27.8854 26.67C28.2774 26.894 28.7114 27.006 29.1874 27.006C29.6634 27.006 30.0974 26.894 30.4894 26.67C30.8907 26.4367 31.208 26.1053 31.4414 25.676C31.6747 25.2373 31.7914 24.7287 31.7914 24.15ZM36.5063 17.64V28H35.2323V17.64H36.5063ZM41.7996 21.378H40.1896V28H38.9156V21.378H37.9216V20.328H38.9156V19.782C38.9156 18.9233 39.1349 18.298 39.5736 17.906C40.0216 17.5047 40.7356 17.304 41.7156 17.304V18.368C41.1556 18.368 40.7589 18.48 40.5256 18.704C40.3016 18.9187 40.1896 19.278 40.1896 19.782V20.328H41.7996V21.378ZM53.505 20.328L51.111 28H49.795L47.947 21.91L46.099 28H44.783L42.375 20.328H43.677L45.441 26.768L47.345 20.328H48.647L50.509 26.782L52.245 20.328H53.505ZM54.2934 24.136C54.2934 23.352 54.4521 22.666 54.7694 22.078C55.0867 21.4807 55.5207 21.0187 56.0714 20.692C56.6314 20.3653 57.2521 20.202 57.9334 20.202C58.6054 20.202 59.1887 20.3467 59.6834 20.636C60.1781 20.9253 60.5467 21.2893 60.7894 21.728V20.328H62.0774V28H60.7894V26.572C60.5374 27.02 60.1594 27.3933 59.6554 27.692C59.1607 27.9813 58.5821 28.126 57.9194 28.126C57.2381 28.126 56.6221 27.958 56.0714 27.622C55.5207 27.286 55.0867 26.8147 54.7694 26.208C54.4521 25.6013 54.2934 24.9107 54.2934 24.136ZM60.7894 24.15C60.7894 23.5713 60.6727 23.0673 60.4394 22.638C60.2061 22.2087 59.8887 21.882 59.4874 21.658C59.0954 21.4247 58.6614 21.308 58.1854 21.308C57.7094 21.308 57.2754 21.42 56.8834 21.644C56.4914 21.868 56.1787 22.1947 55.9454 22.624C55.7121 23.0533 55.5954 23.5573 55.5954 24.136C55.5954 24.724 55.7121 25.2373 55.9454 25.676C56.1787 26.1053 56.4914 26.4367 56.8834 26.67C57.2754 26.894 57.7094 27.006 58.1854 27.006C58.6614 27.006 59.0954 26.894 59.4874 26.67C59.8887 26.4367 60.2061 26.1053 60.4394 25.676C60.6727 25.2373 60.7894 24.7287 60.7894 24.15ZM70.8383 20.328L66.2183 31.612H64.9023L66.4143 27.916L63.3203 20.328H64.7343L67.1423 26.544L69.5223 20.328H70.8383ZM77.4054 21.378V25.9C77.4054 26.2733 77.4848 26.5393 77.6434 26.698C77.8021 26.8473 78.0774 26.922 78.4694 26.922H79.4074V28H78.2594C77.5501 28 77.0181 27.8367 76.6634 27.51C76.3088 27.1833 76.1314 26.6467 76.1314 25.9V21.378H75.1374V20.328H76.1314V18.396H77.4054V20.328H79.4074V21.378H77.4054ZM84.297 28.126C83.5784 28.126 82.925 27.9627 82.337 27.636C81.7584 27.3093 81.301 26.8473 80.965 26.25C80.6384 25.6433 80.475 24.9433 80.475 24.15C80.475 23.366 80.643 22.6753 80.979 22.078C81.3244 21.4713 81.791 21.0093 82.379 20.692C82.967 20.3653 83.625 20.202 84.353 20.202C85.081 20.202 85.739 20.3653 86.327 20.692C86.915 21.0093 87.377 21.4667 87.713 22.064C88.0584 22.6613 88.231 23.3567 88.231 24.15C88.231 24.9433 88.0537 25.6433 87.699 26.25C87.3537 26.8473 86.8824 27.3093 86.285 27.636C85.6877 27.9627 85.025 28.126 84.297 28.126ZM84.297 27.006C84.7544 27.006 85.1837 26.8987 85.585 26.684C85.9864 26.4693 86.3084 26.1473 86.551 25.718C86.803 25.2887 86.929 24.766 86.929 24.15C86.929 23.534 86.8077 23.0113 86.565 22.582C86.3224 22.1527 86.005 21.8353 85.613 21.63C85.221 21.4153 84.7964 21.308 84.339 21.308C83.8724 21.308 83.443 21.4153 83.051 21.63C82.6684 21.8353 82.3604 22.1527 82.127 22.582C81.8937 23.0113 81.777 23.534 81.777 24.15C81.777 24.7753 81.889 25.3027 82.113 25.732C82.3464 26.1613 82.6544 26.4833 83.037 26.698C83.4197 26.9033 83.8397 27.006 84.297 27.006ZM100.247 20.328L95.6265 31.612H94.3105L95.8225 27.916L92.7285 20.328H94.1425L96.5505 26.544L98.9305 20.328H100.247ZM104.873 28.126C104.155 28.126 103.501 27.9627 102.913 27.636C102.335 27.3093 101.877 26.8473 101.541 26.25C101.215 25.6433 101.051 24.9433 101.051 24.15C101.051 23.366 101.219 22.6753 101.555 22.078C101.901 21.4713 102.367 21.0093 102.955 20.692C103.543 20.3653 104.201 20.202 104.929 20.202C105.657 20.202 106.315 20.3653 106.903 20.692C107.491 21.0093 107.953 21.4667 108.289 22.064C108.635 22.6613 108.807 23.3567 108.807 24.15C108.807 24.9433 108.63 25.6433 108.275 26.25C107.93 26.8473 107.459 27.3093 106.861 27.636C106.264 27.9627 105.601 28.126 104.873 28.126ZM104.873 27.006C105.331 27.006 105.76 26.8987 106.161 26.684C106.563 26.4693 106.885 26.1473 107.127 25.718C107.379 25.2887 107.505 24.766 107.505 24.15C107.505 23.534 107.384 23.0113 107.141 22.582C106.899 22.1527 106.581 21.8353 106.189 21.63C105.797 21.4153 105.373 21.308 104.915 21.308C104.449 21.308 104.019 21.4153 103.627 21.63C103.245 21.8353 102.937 22.1527 102.703 22.582C102.47 23.0113 102.353 23.534 102.353 24.15C102.353 24.7753 102.465 25.3027 102.689 25.732C102.923 26.1613 103.231 26.4833 103.613 26.698C103.996 26.9033 104.416 27.006 104.873 27.006ZM117.286 20.328V28H116.012V26.866C115.77 27.258 115.429 27.566 114.99 27.79C114.561 28.0047 114.085 28.112 113.562 28.112C112.965 28.112 112.428 27.9907 111.952 27.748C111.476 27.496 111.098 27.1227 110.818 26.628C110.548 26.1333 110.412 25.5313 110.412 24.822V20.328H111.672V24.654C111.672 25.41 111.864 25.9933 112.246 26.404C112.629 26.8053 113.152 27.006 113.814 27.006C114.496 27.006 115.032 26.796 115.424 26.376C115.816 25.956 116.012 25.3447 116.012 24.542V20.328H117.286ZM120.711 21.574C120.935 21.1353 121.253 20.7947 121.663 20.552C122.083 20.3093 122.592 20.188 123.189 20.188V21.504H122.853C121.425 21.504 120.711 22.2787 120.711 23.828V28H119.437V20.328H120.711V21.574ZM129.666 21.574C129.89 21.1353 130.208 20.7947 130.618 20.552C131.038 20.3093 131.547 20.188 132.144 20.188V21.504H131.808C130.38 21.504 129.666 22.2787 129.666 23.828V28H128.392V20.328H129.666V21.574ZM140.615 23.87C140.615 24.1127 140.601 24.3693 140.573 24.64H134.441C134.488 25.396 134.744 25.9887 135.211 26.418C135.687 26.838 136.261 27.048 136.933 27.048C137.484 27.048 137.941 26.922 138.305 26.67C138.678 26.4087 138.94 26.0633 139.089 25.634H140.461C140.256 26.3713 139.845 26.9733 139.229 27.44C138.613 27.8973 137.848 28.126 136.933 28.126C136.205 28.126 135.552 27.9627 134.973 27.636C134.404 27.3093 133.956 26.8473 133.629 26.25C133.302 25.6433 133.139 24.9433 133.139 24.15C133.139 23.3567 133.298 22.6613 133.615 22.064C133.932 21.4667 134.376 21.0093 134.945 20.692C135.524 20.3653 136.186 20.202 136.933 20.202C137.661 20.202 138.305 20.3607 138.865 20.678C139.425 20.9953 139.854 21.434 140.153 21.994C140.461 22.5447 140.615 23.17 140.615 23.87ZM139.299 23.604C139.299 23.1187 139.192 22.7033 138.977 22.358C138.762 22.0033 138.468 21.7373 138.095 21.56C137.731 21.3733 137.325 21.28 136.877 21.28C136.233 21.28 135.682 21.4853 135.225 21.896C134.777 22.3067 134.52 22.876 134.455 23.604H139.299ZM145.013 28.126C144.425 28.126 143.897 28.028 143.431 27.832C142.964 27.6267 142.595 27.3467 142.325 26.992C142.054 26.628 141.905 26.2127 141.877 25.746H143.193C143.23 26.1287 143.407 26.4413 143.725 26.684C144.051 26.9267 144.476 27.048 144.999 27.048C145.484 27.048 145.867 26.9407 146.147 26.726C146.427 26.5113 146.567 26.2407 146.567 25.914C146.567 25.578 146.417 25.3307 146.119 25.172C145.82 25.004 145.358 24.8407 144.733 24.682C144.163 24.5327 143.697 24.3833 143.333 24.234C142.978 24.0753 142.67 23.8467 142.409 23.548C142.157 23.24 142.031 22.8387 142.031 22.344C142.031 21.952 142.147 21.5927 142.381 21.266C142.614 20.9393 142.945 20.6827 143.375 20.496C143.804 20.3 144.294 20.202 144.845 20.202C145.694 20.202 146.38 20.4167 146.903 20.846C147.425 21.2753 147.705 21.8633 147.743 22.61H146.469C146.441 22.2087 146.277 21.8867 145.979 21.644C145.689 21.4013 145.297 21.28 144.803 21.28C144.345 21.28 143.981 21.378 143.711 21.574C143.44 21.77 143.305 22.0267 143.305 22.344C143.305 22.596 143.384 22.806 143.543 22.974C143.711 23.1327 143.916 23.2633 144.159 23.366C144.411 23.4593 144.756 23.5667 145.195 23.688C145.745 23.8373 146.193 23.9867 146.539 24.136C146.884 24.276 147.178 24.4907 147.421 24.78C147.673 25.0693 147.803 25.4473 147.813 25.914C147.813 26.334 147.696 26.712 147.463 27.048C147.229 27.384 146.898 27.65 146.469 27.846C146.049 28.0327 145.563 28.126 145.013 28.126ZM156.415 20.328V28H155.141V26.866C154.899 27.258 154.558 27.566 154.119 27.79C153.69 28.0047 153.214 28.112 152.691 28.112C152.094 28.112 151.557 27.9907 151.081 27.748C150.605 27.496 150.227 27.1227 149.947 26.628C149.677 26.1333 149.541 25.5313 149.541 24.822V20.328H150.801V24.654C150.801 25.41 150.993 25.9933 151.375 26.404C151.758 26.8053 152.281 27.006 152.943 27.006C153.625 27.006 154.161 26.796 154.553 26.376C154.945 25.956 155.141 25.3447 155.141 24.542V20.328H156.415ZM159.84 17.64V28H158.566V17.64H159.84ZM163.566 21.378V25.9C163.566 26.2733 163.645 26.5393 163.804 26.698C163.962 26.8473 164.238 26.922 164.63 26.922H165.568V28H164.42C163.71 28 163.178 27.8367 162.824 27.51C162.469 27.1833 162.292 26.6467 162.292 25.9V21.378H161.298V20.328H162.292V18.396H163.566V20.328H165.568V21.378H163.566ZM169.827 28.126C169.239 28.126 168.712 28.028 168.245 27.832C167.779 27.6267 167.41 27.3467 167.139 26.992C166.869 26.628 166.719 26.2127 166.691 25.746H168.007C168.045 26.1287 168.222 26.4413 168.539 26.684C168.866 26.9267 169.291 27.048 169.813 27.048C170.299 27.048 170.681 26.9407 170.961 26.726C171.241 26.5113 171.381 26.2407 171.381 25.914C171.381 25.578 171.232 25.3307 170.933 25.172C170.635 25.004 170.173 24.8407 169.547 24.682C168.978 24.5327 168.511 24.3833 168.147 24.234C167.793 24.0753 167.485 23.8467 167.223 23.548C166.971 23.24 166.845 22.8387 166.845 22.344C166.845 21.952 166.962 21.5927 167.195 21.266C167.429 20.9393 167.76 20.6827 168.189 20.496C168.619 20.3 169.109 20.202 169.659 20.202C170.509 20.202 171.195 20.4167 171.717 20.846C172.24 21.2753 172.52 21.8633 172.557 22.61H171.283C171.255 22.2087 171.092 21.8867 170.793 21.644C170.504 21.4013 170.112 21.28 169.617 21.28C169.16 21.28 168.796 21.378 168.525 21.574C168.255 21.77 168.119 22.0267 168.119 22.344C168.119 22.596 168.199 22.806 168.357 22.974C168.525 23.1327 168.731 23.2633 168.973 23.366C169.225 23.4593 169.571 23.5667 170.009 23.688C170.56 23.8373 171.008 23.9867 171.353 24.136C171.699 24.276 171.993 24.4907 172.235 24.78C172.487 25.0693 172.618 25.4473 172.627 25.914C172.627 26.334 172.511 26.712 172.277 27.048C172.044 27.384 171.713 27.65 171.283 27.846C170.863 28.0327 170.378 28.126 169.827 28.126ZM176.078 18.242L175.924 25.242H174.86L174.706 18.242H176.078ZM175.448 28.084C175.205 28.084 175 28 174.832 27.832C174.664 27.664 174.58 27.4587 174.58 27.216C174.58 26.9733 174.664 26.768 174.832 26.6C175 26.432 175.205 26.348 175.448 26.348C175.681 26.348 175.877 26.432 176.036 26.6C176.204 26.768 176.288 26.9733 176.288 27.216C176.288 27.4587 176.204 27.664 176.036 27.832C175.877 28 175.681 28.084 175.448 28.084Z" fill="black"/>
</svg>
