<svg width="345" height="60" viewBox="0 0 345 60" fill="none" xmlns="http://www.w3.org/2000/svg">
<rect width="345" height="60" rx="12" fill="#EBE7FC"/>
<path d="M152.063 34.528H155.823V36H150.239V24.88H152.063V34.528ZM161.172 36.144C160.34 36.144 159.588 35.9573 158.916 35.584C158.244 35.2 157.716 34.6667 157.332 33.984C156.948 33.2907 156.756 32.4907 156.756 31.584C156.756 30.688 156.954 29.8933 157.348 29.2C157.743 28.5067 158.282 27.9733 158.964 27.6C159.647 27.2267 160.41 27.04 161.252 27.04C162.095 27.04 162.858 27.2267 163.54 27.6C164.223 27.9733 164.762 28.5067 165.156 29.2C165.551 29.8933 165.748 30.688 165.748 31.584C165.748 32.48 165.546 33.2747 165.14 33.968C164.735 34.6613 164.18 35.2 163.476 35.584C162.783 35.9573 162.015 36.144 161.172 36.144ZM161.172 34.56C161.642 34.56 162.079 34.448 162.484 34.224C162.9 34 163.236 33.664 163.492 33.216C163.748 32.768 163.876 32.224 163.876 31.584C163.876 30.944 163.754 30.4053 163.508 29.968C163.263 29.52 162.938 29.184 162.532 28.96C162.127 28.736 161.69 28.624 161.22 28.624C160.751 28.624 160.314 28.736 159.908 28.96C159.514 29.184 159.199 29.52 158.964 29.968C158.73 30.4053 158.612 30.944 158.612 31.584C158.612 32.5333 158.852 33.2693 159.332 33.792C159.823 34.304 160.436 34.56 161.172 34.56ZM171.104 27.04C171.786 27.04 172.389 27.1787 172.912 27.456C173.445 27.7227 173.861 28.0587 174.16 28.464V27.184H176V36.144C176 36.9547 175.829 37.6747 175.488 38.304C175.146 38.944 174.65 39.4453 174 39.808C173.36 40.1707 172.592 40.352 171.696 40.352C170.501 40.352 169.509 40.0693 168.72 39.504C167.93 38.9493 167.482 38.192 167.376 37.232H169.184C169.322 37.6907 169.616 38.0587 170.064 38.336C170.522 38.624 171.066 38.768 171.696 38.768C172.432 38.768 173.024 38.544 173.472 38.096C173.93 37.648 174.16 36.9973 174.16 36.144V34.672C173.85 35.088 173.429 35.44 172.896 35.728C172.373 36.0053 171.776 36.144 171.104 36.144C170.336 36.144 169.632 35.952 168.992 35.568C168.362 35.1733 167.861 34.6293 167.488 33.936C167.125 33.232 166.944 32.4373 166.944 31.552C166.944 30.6667 167.125 29.8827 167.488 29.2C167.861 28.5173 168.362 27.9893 168.992 27.616C169.632 27.232 170.336 27.04 171.104 27.04ZM174.16 31.584C174.16 30.976 174.032 30.448 173.776 30C173.53 29.552 173.205 29.2107 172.8 28.976C172.394 28.7413 171.957 28.624 171.488 28.624C171.018 28.624 170.581 28.7413 170.176 28.976C169.77 29.2 169.44 29.536 169.184 29.984C168.938 30.4213 168.816 30.944 168.816 31.552C168.816 32.16 168.938 32.6933 169.184 33.152C169.44 33.6107 169.77 33.9627 170.176 34.208C170.592 34.4427 171.029 34.56 171.488 34.56C171.957 34.56 172.394 34.4427 172.8 34.208C173.205 33.9733 173.53 33.632 173.776 33.184C174.032 32.7253 174.16 32.192 174.16 31.584ZM184.376 24.88V36H182.552V24.88H184.376ZM191.218 27.04C191.912 27.04 192.53 27.184 193.074 27.472C193.629 27.76 194.061 28.1867 194.37 28.752C194.68 29.3173 194.834 30 194.834 30.8V36H193.026V31.072C193.026 30.2827 192.829 29.68 192.434 29.264C192.04 28.8373 191.501 28.624 190.818 28.624C190.136 28.624 189.592 28.8373 189.186 29.264C188.792 29.68 188.594 30.2827 188.594 31.072V36H186.77V27.184H188.594V28.192C188.893 27.8293 189.272 27.5467 189.73 27.344C190.2 27.1413 190.696 27.04 191.218 27.04Z" fill="black"/>
</svg>
