<svg width="232" height="110" viewBox="0 0 232 110" fill="none" xmlns="http://www.w3.org/2000/svg">
<path d="M0.5 0.5H220C226.351 0.5 231.5 5.64873 231.5 12V98C231.5 104.351 226.351 109.5 220 109.5H12C5.64873 109.5 0.5 104.351 0.5 98V0.5Z" stroke="#939393"/>
<path d="M16.694 16.856L16.54 19.642H15.658L15.49 16.856H16.694ZM18.584 16.856L18.43 19.642H17.548L17.38 16.856H18.584ZM21.4399 18.242V28H20.1659V18.242H21.4399ZM27.3492 20.188C28.2825 20.188 29.0385 20.4727 29.6172 21.042C30.1959 21.602 30.4852 22.414 30.4852 23.478V28H29.2252V23.66C29.2252 22.8947 29.0339 22.3113 28.6512 21.91C28.2685 21.4993 27.7459 21.294 27.0832 21.294C26.4112 21.294 25.8745 21.504 25.4732 21.924C25.0812 22.344 24.8852 22.9553 24.8852 23.758V28H23.6112V20.328H24.8852V21.42C25.1372 21.028 25.4779 20.7247 25.9072 20.51C26.3459 20.2953 26.8265 20.188 27.3492 20.188ZM35.8227 24.136C35.8227 23.352 35.9814 22.666 36.2987 22.078C36.616 21.4807 37.05 21.0187 37.6007 20.692C38.1607 20.3653 38.7814 20.202 39.4627 20.202C40.1347 20.202 40.718 20.3467 41.2127 20.636C41.7074 20.9253 42.076 21.2893 42.3187 21.728V20.328H43.6067V28H42.3187V26.572C42.0667 27.02 41.6887 27.3933 41.1847 27.692C40.69 27.9813 40.1114 28.126 39.4487 28.126C38.7674 28.126 38.1514 27.958 37.6007 27.622C37.05 27.286 36.616 26.8147 36.2987 26.208C35.9814 25.6013 35.8227 24.9107 35.8227 24.136ZM42.3187 24.15C42.3187 23.5713 42.202 23.0673 41.9687 22.638C41.7354 22.2087 41.418 21.882 41.0167 21.658C40.6247 21.4247 40.1907 21.308 39.7147 21.308C39.2387 21.308 38.8047 21.42 38.4127 21.644C38.0207 21.868 37.708 22.1947 37.4747 22.624C37.2414 23.0533 37.1247 23.5573 37.1247 24.136C37.1247 24.724 37.2414 25.2373 37.4747 25.676C37.708 26.1053 38.0207 26.4367 38.4127 26.67C38.8047 26.894 39.2387 27.006 39.7147 27.006C40.1907 27.006 40.6247 26.894 41.0167 26.67C41.418 26.4367 41.7354 26.1053 41.9687 25.676C42.202 25.2373 42.3187 24.7287 42.3187 24.15ZM51.0461 21.378V25.9C51.0461 26.2733 51.1254 26.5393 51.2841 26.698C51.4427 26.8473 51.7181 26.922 52.1101 26.922H53.0481V28H51.9001C51.1907 28 50.6587 27.8367 50.3041 27.51C49.9494 27.1833 49.7721 26.6467 49.7721 25.9V21.378H48.7781V20.328H49.7721V18.396H51.0461V20.328H53.0481V21.378H51.0461ZM61.5917 23.87C61.5917 24.1127 61.5777 24.3693 61.5497 24.64H55.4177C55.4643 25.396 55.721 25.9887 56.1877 26.418C56.6637 26.838 57.2377 27.048 57.9097 27.048C58.4603 27.048 58.9177 26.922 59.2817 26.67C59.655 26.4087 59.9163 26.0633 60.0657 25.634H61.4377C61.2323 26.3713 60.8217 26.9733 60.2057 27.44C59.5897 27.8973 58.8243 28.126 57.9097 28.126C57.1817 28.126 56.5283 27.9627 55.9497 27.636C55.3803 27.3093 54.9323 26.8473 54.6057 26.25C54.279 25.6433 54.1157 24.9433 54.1157 24.15C54.1157 23.3567 54.2743 22.6613 54.5917 22.064C54.909 21.4667 55.3523 21.0093 55.9217 20.692C56.5003 20.3653 57.163 20.202 57.9097 20.202C58.6377 20.202 59.2817 20.3607 59.8417 20.678C60.4017 20.9953 60.831 21.434 61.1297 21.994C61.4377 22.5447 61.5917 23.17 61.5917 23.87ZM60.2757 23.604C60.2757 23.1187 60.1683 22.7033 59.9537 22.358C59.739 22.0033 59.445 21.7373 59.0717 21.56C58.7077 21.3733 58.3017 21.28 57.8537 21.28C57.2097 21.28 56.659 21.4853 56.2017 21.896C55.7537 22.3067 55.497 22.876 55.4317 23.604H60.2757ZM62.7973 24.136C62.7973 23.352 62.956 22.666 63.2733 22.078C63.5906 21.4807 64.0246 21.0187 64.5753 20.692C65.1353 20.3653 65.756 20.202 66.4373 20.202C67.1093 20.202 67.6926 20.3467 68.1873 20.636C68.682 20.9253 69.0506 21.2893 69.2933 21.728V20.328H70.5813V28H69.2933V26.572C69.0413 27.02 68.6633 27.3933 68.1593 27.692C67.6646 27.9813 67.086 28.126 66.4233 28.126C65.742 28.126 65.126 27.958 64.5753 27.622C64.0246 27.286 63.5906 26.8147 63.2733 26.208C62.956 25.6013 62.7973 24.9107 62.7973 24.136ZM69.2933 24.15C69.2933 23.5713 69.1766 23.0673 68.9433 22.638C68.71 22.2087 68.3926 21.882 67.9913 21.658C67.5993 21.4247 67.1653 21.308 66.6893 21.308C66.2133 21.308 65.7793 21.42 65.3873 21.644C64.9953 21.868 64.6826 22.1947 64.4493 22.624C64.216 23.0533 64.0993 23.5573 64.0993 24.136C64.0993 24.724 64.216 25.2373 64.4493 25.676C64.6826 26.1053 64.9953 26.4367 65.3873 26.67C65.7793 26.894 66.2133 27.006 66.6893 27.006C67.1653 27.006 67.5993 26.894 67.9913 26.67C68.3926 26.4367 68.71 26.1053 68.9433 25.676C69.1766 25.2373 69.2933 24.7287 69.2933 24.15ZM81.9603 20.188C82.5576 20.188 83.0896 20.314 83.5563 20.566C84.0229 20.8087 84.3916 21.1773 84.6623 21.672C84.9329 22.1667 85.0683 22.7687 85.0683 23.478V28H83.8083V23.66C83.8083 22.8947 83.6169 22.3113 83.2343 21.91C82.8609 21.4993 82.3523 21.294 81.7083 21.294C81.0456 21.294 80.5183 21.5087 80.1263 21.938C79.7343 22.358 79.5383 22.9693 79.5383 23.772V28H78.2783V23.66C78.2783 22.8947 78.0869 22.3113 77.7043 21.91C77.3309 21.4993 76.8223 21.294 76.1783 21.294C75.5156 21.294 74.9883 21.5087 74.5963 21.938C74.2043 22.358 74.0083 22.9693 74.0083 23.772V28H72.7343V20.328H74.0083V21.434C74.2603 21.0327 74.5963 20.7247 75.0163 20.51C75.4456 20.2953 75.9169 20.188 76.4303 20.188C77.0743 20.188 77.6436 20.3327 78.1383 20.622C78.6329 20.9113 79.0016 21.336 79.2443 21.896C79.4589 21.3547 79.8136 20.9347 80.3083 20.636C80.8029 20.3373 81.3536 20.188 81.9603 20.188ZM100.117 20.188C100.714 20.188 101.246 20.314 101.713 20.566C102.179 20.8087 102.548 21.1773 102.819 21.672C103.089 22.1667 103.225 22.7687 103.225 23.478V28H101.965V23.66C101.965 22.8947 101.773 22.3113 101.391 21.91C101.017 21.4993 100.509 21.294 99.8645 21.294C99.2018 21.294 98.6745 21.5087 98.2825 21.938C97.8905 22.358 97.6945 22.9693 97.6945 23.772V28H96.4345V23.66C96.4345 22.8947 96.2432 22.3113 95.8605 21.91C95.4872 21.4993 94.9785 21.294 94.3345 21.294C93.6718 21.294 93.1445 21.5087 92.7525 21.938C92.3605 22.358 92.1645 22.9693 92.1645 23.772V28H90.8905V20.328H92.1645V21.434C92.4165 21.0327 92.7525 20.7247 93.1725 20.51C93.6018 20.2953 94.0732 20.188 94.5865 20.188C95.2305 20.188 95.7998 20.3327 96.2945 20.622C96.7892 20.9113 97.1578 21.336 97.4005 21.896C97.6152 21.3547 97.9698 20.9347 98.4645 20.636C98.9592 20.3373 99.5098 20.188 100.117 20.188ZM112.314 23.87C112.314 24.1127 112.3 24.3693 112.272 24.64H106.14C106.187 25.396 106.444 25.9887 106.91 26.418C107.386 26.838 107.96 27.048 108.632 27.048C109.183 27.048 109.64 26.922 110.004 26.67C110.378 26.4087 110.639 26.0633 110.788 25.634H112.16C111.955 26.3713 111.544 26.9733 110.928 27.44C110.312 27.8973 109.547 28.126 108.632 28.126C107.904 28.126 107.251 27.9627 106.672 27.636C106.103 27.3093 105.655 26.8473 105.328 26.25C105.002 25.6433 104.838 24.9433 104.838 24.15C104.838 23.3567 104.997 22.6613 105.314 22.064C105.632 21.4667 106.075 21.0093 106.644 20.692C107.223 20.3653 107.886 20.202 108.632 20.202C109.36 20.202 110.004 20.3607 110.564 20.678C111.124 20.9953 111.554 21.434 111.852 21.994C112.16 22.5447 112.314 23.17 112.314 23.87ZM110.998 23.604C110.998 23.1187 110.891 22.7033 110.676 22.358C110.462 22.0033 110.168 21.7373 109.794 21.56C109.43 21.3733 109.024 21.28 108.576 21.28C107.932 21.28 107.382 21.4853 106.924 21.896C106.476 22.3067 106.22 22.876 106.154 23.604H110.998ZM120.996 23.87C120.996 24.1127 120.982 24.3693 120.954 24.64H114.822C114.869 25.396 115.125 25.9887 115.592 26.418C116.068 26.838 116.642 27.048 117.314 27.048C117.865 27.048 118.322 26.922 118.686 26.67C119.059 26.4087 119.321 26.0633 119.47 25.634H120.842C120.637 26.3713 120.226 26.9733 119.61 27.44C118.994 27.8973 118.229 28.126 117.314 28.126C116.586 28.126 115.933 27.9627 115.354 27.636C114.785 27.3093 114.337 26.8473 114.01 26.25C113.683 25.6433 113.52 24.9433 113.52 24.15C113.52 23.3567 113.679 22.6613 113.996 22.064C114.313 21.4667 114.757 21.0093 115.326 20.692C115.905 20.3653 116.567 20.202 117.314 20.202C118.042 20.202 118.686 20.3607 119.246 20.678C119.806 20.9953 120.235 21.434 120.534 21.994C120.842 22.5447 120.996 23.17 120.996 23.87ZM119.68 23.604C119.68 23.1187 119.573 22.7033 119.358 22.358C119.143 22.0033 118.849 21.7373 118.476 21.56C118.112 21.3733 117.706 21.28 117.258 21.28C116.614 21.28 116.063 21.4853 115.606 21.896C115.158 22.3067 114.901 22.876 114.836 23.604H119.68ZM124.232 21.378V25.9C124.232 26.2733 124.311 26.5393 124.47 26.698C124.628 26.8473 124.904 26.922 125.296 26.922H126.234V28H125.086C124.376 28 123.844 27.8367 123.49 27.51C123.135 27.1833 122.958 26.6467 122.958 25.9V21.378H121.964V20.328H122.958V18.396H124.232V20.328H126.234V21.378H124.232ZM128.435 19.082C128.193 19.082 127.987 18.998 127.819 18.83C127.651 18.662 127.567 18.4567 127.567 18.214C127.567 17.9713 127.651 17.766 127.819 17.598C127.987 17.43 128.193 17.346 128.435 17.346C128.669 17.346 128.865 17.43 129.023 17.598C129.191 17.766 129.275 17.9713 129.275 18.214C129.275 18.4567 129.191 18.662 129.023 18.83C128.865 18.998 128.669 19.082 128.435 19.082ZM129.051 20.328V28H127.777V20.328H129.051ZM134.961 20.188C135.894 20.188 136.65 20.4727 137.229 21.042C137.807 21.602 138.097 22.414 138.097 23.478V28H136.837V23.66C136.837 22.8947 136.645 22.3113 136.263 21.91C135.88 21.4993 135.357 21.294 134.695 21.294C134.023 21.294 133.486 21.504 133.085 21.924C132.693 22.344 132.497 22.9553 132.497 23.758V28H131.223V20.328H132.497V21.42C132.749 21.028 133.089 20.7247 133.519 20.51C133.957 20.2953 134.438 20.188 134.961 20.188ZM143.342 20.202C144.004 20.202 144.583 20.3467 145.078 20.636C145.582 20.9253 145.955 21.2893 146.198 21.728V20.328H147.486V28.168C147.486 28.868 147.336 29.4887 147.038 30.03C146.739 30.5807 146.31 31.01 145.75 31.318C145.199 31.626 144.555 31.78 143.818 31.78C142.81 31.78 141.97 31.542 141.298 31.066C140.626 30.59 140.229 29.9413 140.108 29.12H141.368C141.508 29.5867 141.797 29.96 142.236 30.24C142.674 30.5293 143.202 30.674 143.818 30.674C144.518 30.674 145.087 30.4547 145.526 30.016C145.974 29.5773 146.198 28.9613 146.198 28.168V26.558C145.946 27.006 145.572 27.3793 145.078 27.678C144.583 27.9767 144.004 28.126 143.342 28.126C142.66 28.126 142.04 27.958 141.48 27.622C140.929 27.286 140.495 26.8147 140.178 26.208C139.86 25.6013 139.702 24.9107 139.702 24.136C139.702 23.352 139.86 22.666 140.178 22.078C140.495 21.4807 140.929 21.0187 141.48 20.692C142.04 20.3653 142.66 20.202 143.342 20.202ZM146.198 24.15C146.198 23.5713 146.081 23.0673 145.848 22.638C145.614 22.2087 145.297 21.882 144.896 21.658C144.504 21.4247 144.07 21.308 143.594 21.308C143.118 21.308 142.684 21.42 142.292 21.644C141.9 21.868 141.587 22.1947 141.354 22.624C141.12 23.0533 141.004 23.5573 141.004 24.136C141.004 24.724 141.12 25.2373 141.354 25.676C141.587 26.1053 141.9 26.4367 142.292 26.67C142.684 26.894 143.118 27.006 143.594 27.006C144.07 27.006 144.504 26.894 144.896 26.67C145.297 26.4367 145.614 26.1053 145.848 25.676C146.081 25.2373 146.198 24.7287 146.198 24.15ZM150.955 26.236L149.387 30.002H148.533L149.555 26.236H150.955ZM157.7 21.378V25.9C157.7 26.2733 157.78 26.5393 157.938 26.698C158.097 26.8473 158.372 26.922 158.764 26.922H159.702V28H158.554C157.845 28 157.313 27.8367 156.958 27.51C156.604 27.1833 156.426 26.6467 156.426 25.9V21.378H155.432V20.328H156.426V18.396H157.7V20.328H159.702V21.378H157.7ZM165.054 20.188C165.633 20.188 166.155 20.314 166.622 20.566C167.089 20.8087 167.453 21.1773 167.714 21.672C167.985 22.1667 168.12 22.7687 168.12 23.478V28H166.86V23.66C166.86 22.8947 166.669 22.3113 166.286 21.91C165.903 21.4993 165.381 21.294 164.718 21.294C164.046 21.294 163.509 21.504 163.108 21.924C162.716 22.344 162.52 22.9553 162.52 23.758V28H161.246V17.64H162.52V21.42C162.772 21.028 163.117 20.7247 163.556 20.51C164.004 20.2953 164.503 20.188 165.054 20.188ZM177.201 23.87C177.201 24.1127 177.187 24.3693 177.159 24.64H171.027C171.074 25.396 171.33 25.9887 171.797 26.418C172.273 26.838 172.847 27.048 173.519 27.048C174.07 27.048 174.527 26.922 174.891 26.67C175.264 26.4087 175.526 26.0633 175.675 25.634H177.047C176.842 26.3713 176.431 26.9733 175.815 27.44C175.199 27.8973 174.434 28.126 173.519 28.126C172.791 28.126 172.138 27.9627 171.559 27.636C170.99 27.3093 170.542 26.8473 170.215 26.25C169.888 25.6433 169.725 24.9433 169.725 24.15C169.725 23.3567 169.884 22.6613 170.201 22.064C170.518 21.4667 170.962 21.0093 171.531 20.692C172.11 20.3653 172.772 20.202 173.519 20.202C174.247 20.202 174.891 20.3607 175.451 20.678C176.011 20.9953 176.44 21.434 176.739 21.994C177.047 22.5447 177.201 23.17 177.201 23.87ZM175.885 23.604C175.885 23.1187 175.778 22.7033 175.563 22.358C175.348 22.0033 175.054 21.7373 174.681 21.56C174.317 21.3733 173.911 21.28 173.463 21.28C172.819 21.28 172.268 21.4853 171.811 21.896C171.363 22.3067 171.106 22.876 171.041 23.604H175.885ZM184.169 21.378V25.9C184.169 26.2733 184.248 26.5393 184.407 26.698C184.566 26.8473 184.841 26.922 185.233 26.922H186.171V28H185.023C184.314 28 183.782 27.8367 183.427 27.51C183.072 27.1833 182.895 26.6467 182.895 25.9V21.378H181.901V20.328H182.895V18.396H184.169V20.328H186.171V21.378H184.169ZM191.061 28.126C190.342 28.126 189.689 27.9627 189.101 27.636C188.522 27.3093 188.065 26.8473 187.729 26.25C187.402 25.6433 187.239 24.9433 187.239 24.15C187.239 23.366 187.407 22.6753 187.743 22.078C188.088 21.4713 188.555 21.0093 189.143 20.692C189.731 20.3653 190.389 20.202 191.117 20.202C191.845 20.202 192.503 20.3653 193.091 20.692C193.679 21.0093 194.141 21.4667 194.477 22.064C194.822 22.6613 194.995 23.3567 194.995 24.15C194.995 24.9433 194.817 25.6433 194.463 26.25C194.117 26.8473 193.646 27.3093 193.049 27.636C192.451 27.9627 191.789 28.126 191.061 28.126ZM191.061 27.006C191.518 27.006 191.947 26.8987 192.349 26.684C192.75 26.4693 193.072 26.1473 193.315 25.718C193.567 25.2887 193.693 24.766 193.693 24.15C193.693 23.534 193.571 23.0113 193.329 22.582C193.086 22.1527 192.769 21.8353 192.377 21.63C191.985 21.4153 191.56 21.308 191.103 21.308C190.636 21.308 190.207 21.4153 189.815 21.63C189.432 21.8353 189.124 22.1527 188.891 22.582C188.657 23.0113 188.541 23.534 188.541 24.15C188.541 24.7753 188.653 25.3027 188.877 25.732C189.11 26.1613 189.418 26.4833 189.801 26.698C190.183 26.9033 190.603 27.006 191.061 27.006ZM200.408 20.188C201.341 20.188 202.097 20.4727 202.676 21.042C203.254 21.602 203.544 22.414 203.544 23.478V28H202.284V23.66C202.284 22.8947 202.092 22.3113 201.71 21.91C201.327 21.4993 200.804 21.294 200.142 21.294C199.47 21.294 198.933 21.504 198.532 21.924C198.14 22.344 197.944 22.9553 197.944 23.758V28H196.67V20.328H197.944V21.42C198.196 21.028 198.536 20.7247 198.966 20.51C199.404 20.2953 199.885 20.188 200.408 20.188ZM212.625 23.87C212.625 24.1127 212.611 24.3693 212.583 24.64H206.451C206.498 25.396 206.754 25.9887 207.221 26.418C207.697 26.838 208.271 27.048 208.943 27.048C209.494 27.048 209.951 26.922 210.315 26.67C210.688 26.4087 210.95 26.0633 211.099 25.634H212.471C212.266 26.3713 211.855 26.9733 211.239 27.44C210.623 27.8973 209.858 28.126 208.943 28.126C208.215 28.126 207.562 27.9627 206.983 27.636C206.414 27.3093 205.966 26.8473 205.639 26.25C205.312 25.6433 205.149 24.9433 205.149 24.15C205.149 23.3567 205.308 22.6613 205.625 22.064C205.942 21.4667 206.386 21.0093 206.955 20.692C207.534 20.3653 208.196 20.202 208.943 20.202C209.671 20.202 210.315 20.3607 210.875 20.678C211.435 20.9953 211.864 21.434 212.163 21.994C212.471 22.5447 212.625 23.17 212.625 23.87ZM211.309 23.604C211.309 23.1187 211.202 22.7033 210.987 22.358C210.772 22.0033 210.478 21.7373 210.105 21.56C209.741 21.3733 209.335 21.28 208.887 21.28C208.243 21.28 207.692 21.4853 207.235 21.896C206.787 22.3067 206.53 22.876 206.465 23.604H211.309ZM18.794 49.126C18.206 49.126 17.6787 49.028 17.212 48.832C16.7453 48.6267 16.3767 48.3467 16.106 47.992C15.8353 47.628 15.686 47.2127 15.658 46.746H16.974C17.0113 47.1287 17.1887 47.4413 17.506 47.684C17.8327 47.9267 18.2573 48.048 18.78 48.048C19.2653 48.048 19.648 47.9407 19.928 47.726C20.208 47.5113 20.348 47.2407 20.348 46.914C20.348 46.578 20.1987 46.3307 19.9 46.172C19.6013 46.004 19.1393 45.8407 18.514 45.682C17.9447 45.5327 17.478 45.3833 17.114 45.234C16.7593 45.0753 16.4513 44.8467 16.19 44.548C15.938 44.24 15.812 43.8387 15.812 43.344C15.812 42.952 15.9287 42.5927 16.162 42.266C16.3953 41.9393 16.7267 41.6827 17.156 41.496C17.5853 41.3 18.0753 41.202 18.626 41.202C19.4753 41.202 20.1613 41.4167 20.684 41.846C21.2067 42.2753 21.4867 42.8633 21.524 43.61H20.25C20.222 43.2087 20.0587 42.8867 19.76 42.644C19.4707 42.4013 19.0787 42.28 18.584 42.28C18.1267 42.28 17.7627 42.378 17.492 42.574C17.2213 42.77 17.086 43.0267 17.086 43.344C17.086 43.596 17.1653 43.806 17.324 43.974C17.492 44.1327 17.6973 44.2633 17.94 44.366C18.192 44.4593 18.5373 44.5667 18.976 44.688C19.5267 44.8373 19.9747 44.9867 20.32 45.136C20.6653 45.276 20.9593 45.4907 21.202 45.78C21.454 46.0693 21.5847 46.4473 21.594 46.914C21.594 47.334 21.4773 47.712 21.244 48.048C21.0107 48.384 20.6793 48.65 20.25 48.846C19.83 49.0327 19.3447 49.126 18.794 49.126ZM27.2005 41.188C27.7791 41.188 28.3018 41.314 28.7685 41.566C29.2351 41.8087 29.5991 42.1773 29.8605 42.672C30.1311 43.1667 30.2665 43.7687 30.2665 44.478V49H29.0065V44.66C29.0065 43.8947 28.8151 43.3113 28.4325 42.91C28.0498 42.4993 27.5271 42.294 26.8645 42.294C26.1925 42.294 25.6558 42.504 25.2545 42.924C24.8625 43.344 24.6665 43.9553 24.6665 44.758V49H23.3925V38.64H24.6665V42.42C24.9185 42.028 25.2638 41.7247 25.7025 41.51C26.1505 41.2953 26.6498 41.188 27.2005 41.188ZM33.0055 40.082C32.7629 40.082 32.5575 39.998 32.3895 39.83C32.2215 39.662 32.1375 39.4567 32.1375 39.214C32.1375 38.9713 32.2215 38.766 32.3895 38.598C32.5575 38.43 32.7629 38.346 33.0055 38.346C33.2389 38.346 33.4349 38.43 33.5935 38.598C33.7615 38.766 33.8455 38.9713 33.8455 39.214C33.8455 39.4567 33.7615 39.662 33.5935 39.83C33.4349 39.998 33.2389 40.082 33.0055 40.082ZM33.6215 41.328V49H32.3475V41.328H33.6215ZM38.9148 42.378H37.3048V49H36.0308V42.378H35.0368V41.328H36.0308V40.782C36.0308 39.9233 36.2502 39.298 36.6888 38.906C37.1368 38.5047 37.8508 38.304 38.8308 38.304V39.368C38.2708 39.368 37.8742 39.48 37.6408 39.704C37.4168 39.9187 37.3048 40.278 37.3048 40.782V41.328H38.9148V42.378ZM41.9543 42.378V46.9C41.9543 47.2733 42.0336 47.5393 42.1923 47.698C42.3509 47.8473 42.6263 47.922 43.0183 47.922H43.9563V49H42.8083C42.0989 49 41.5669 48.8367 41.2123 48.51C40.8576 48.1833 40.6803 47.6467 40.6803 46.9V42.378H39.6863V41.328H40.6803V39.396H41.9543V41.328H43.9563V42.378H41.9543ZM48.2159 49.126C47.6279 49.126 47.1005 49.028 46.6339 48.832C46.1672 48.6267 45.7985 48.3467 45.5279 47.992C45.2572 47.628 45.1079 47.2127 45.0799 46.746H46.3959C46.4332 47.1287 46.6105 47.4413 46.9279 47.684C47.2545 47.9267 47.6792 48.048 48.2019 48.048C48.6872 48.048 49.0699 47.9407 49.3499 47.726C49.6299 47.5113 49.7699 47.2407 49.7699 46.914C49.7699 46.578 49.6205 46.3307 49.3219 46.172C49.0232 46.004 48.5612 45.8407 47.9359 45.682C47.3665 45.5327 46.8999 45.3833 46.5359 45.234C46.1812 45.0753 45.8732 44.8467 45.6119 44.548C45.3599 44.24 45.2339 43.8387 45.2339 43.344C45.2339 42.952 45.3505 42.5927 45.5839 42.266C45.8172 41.9393 46.1485 41.6827 46.5779 41.496C47.0072 41.3 47.4972 41.202 48.0479 41.202C48.8972 41.202 49.5832 41.4167 50.1059 41.846C50.6285 42.2753 50.9085 42.8633 50.9459 43.61H49.6719C49.6439 43.2087 49.4805 42.8867 49.1819 42.644C48.8925 42.4013 48.5005 42.28 48.0059 42.28C47.5485 42.28 47.1845 42.378 46.9139 42.574C46.6432 42.77 46.5079 43.0267 46.5079 43.344C46.5079 43.596 46.5872 43.806 46.7459 43.974C46.9139 44.1327 47.1192 44.2633 47.3619 44.366C47.6139 44.4593 47.9592 44.5667 48.3979 44.688C48.9485 44.8373 49.3965 44.9867 49.7419 45.136C50.0872 45.276 50.3812 45.4907 50.6239 45.78C50.8759 46.0693 51.0065 46.4473 51.0159 46.914C51.0159 47.334 50.8992 47.712 50.6659 48.048C50.4325 48.384 50.1012 48.65 49.6719 48.846C49.2519 49.0327 48.7665 49.126 48.2159 49.126ZM59.6688 42.378H58.0588V49H56.7848V42.378H55.7908V41.328H56.7848V40.782C56.7848 39.9233 57.0041 39.298 57.4428 38.906C57.8908 38.5047 58.6048 38.304 59.5847 38.304V39.368C59.0248 39.368 58.6281 39.48 58.3948 39.704C58.1708 39.9187 58.0588 40.278 58.0588 40.782V41.328H59.6688V42.378ZM62.4282 42.574C62.6522 42.1353 62.9695 41.7947 63.3802 41.552C63.8002 41.3093 64.3088 41.188 64.9062 41.188V42.504H64.5702C63.1422 42.504 62.4282 43.2787 62.4282 44.828V49H61.1542V41.328H62.4282V42.574ZM73.3768 44.87C73.3768 45.1127 73.3628 45.3693 73.3348 45.64H67.2028C67.2495 46.396 67.5062 46.9887 67.9728 47.418C68.4488 47.838 69.0228 48.048 69.6948 48.048C70.2455 48.048 70.7028 47.922 71.0668 47.67C71.4402 47.4087 71.7015 47.0633 71.8508 46.634H73.2228C73.0175 47.3713 72.6068 47.9733 71.9908 48.44C71.3748 48.8973 70.6095 49.126 69.6948 49.126C68.9668 49.126 68.3135 48.9627 67.7348 48.636C67.1655 48.3093 66.7175 47.8473 66.3908 47.25C66.0642 46.6433 65.9008 45.9433 65.9008 45.15C65.9008 44.3567 66.0595 43.6613 66.3768 43.064C66.6942 42.4667 67.1375 42.0093 67.7068 41.692C68.2855 41.3653 68.9482 41.202 69.6948 41.202C70.4228 41.202 71.0668 41.3607 71.6268 41.678C72.1868 41.9953 72.6162 42.434 72.9148 42.994C73.2228 43.5447 73.3768 44.17 73.3768 44.87ZM72.0608 44.604C72.0608 44.1187 71.9535 43.7033 71.7388 43.358C71.5242 43.0033 71.2302 42.7373 70.8568 42.56C70.4928 42.3733 70.0868 42.28 69.6388 42.28C68.9948 42.28 68.4442 42.4853 67.9868 42.896C67.5388 43.3067 67.2822 43.876 67.2168 44.604H72.0608ZM74.5825 45.136C74.5825 44.352 74.7411 43.666 75.0585 43.078C75.3758 42.4807 75.8098 42.0187 76.3605 41.692C76.9205 41.3653 77.5458 41.202 78.2365 41.202C78.8991 41.202 79.4778 41.3513 79.9725 41.65C80.4765 41.9393 80.8451 42.2987 81.0785 42.728V41.328H82.3665V52.64H81.0785V47.586C80.8358 48.0153 80.4625 48.3793 79.9585 48.678C79.4545 48.9767 78.8665 49.126 78.1945 49.126C77.5225 49.126 76.9111 48.958 76.3605 48.622C75.8098 48.286 75.3758 47.8147 75.0585 47.208C74.7411 46.6013 74.5825 45.9107 74.5825 45.136ZM81.0785 45.15C81.0785 44.5713 80.9618 44.0673 80.7285 43.638C80.4951 43.2087 80.1778 42.882 79.7765 42.658C79.3845 42.4247 78.9505 42.308 78.4745 42.308C77.9985 42.308 77.5645 42.42 77.1725 42.644C76.7805 42.868 76.4678 43.1947 76.2345 43.624C76.0011 44.0533 75.8845 44.5573 75.8845 45.136C75.8845 45.724 76.0011 46.2373 76.2345 46.676C76.4678 47.1053 76.7805 47.4367 77.1725 47.67C77.5645 47.894 77.9985 48.006 78.4745 48.006C78.9505 48.006 79.3845 47.894 79.7765 47.67C80.1778 47.4367 80.4951 47.1053 80.7285 46.676C80.9618 46.2373 81.0785 45.7287 81.0785 45.15ZM91.3234 41.328V49H90.0494V47.866C89.8067 48.258 89.4661 48.566 89.0274 48.79C88.5981 49.0047 88.1221 49.112 87.5994 49.112C87.0021 49.112 86.4654 48.9907 85.9894 48.748C85.5134 48.496 85.1354 48.1227 84.8554 47.628C84.5847 47.1333 84.4494 46.5313 84.4494 45.822V41.328H85.7094V45.654C85.7094 46.41 85.9007 46.9933 86.2834 47.404C86.6661 47.8053 87.1887 48.006 87.8514 48.006C88.5327 48.006 89.0694 47.796 89.4614 47.376C89.8534 46.956 90.0494 46.3447 90.0494 45.542V41.328H91.3234ZM100.474 44.87C100.474 45.1127 100.46 45.3693 100.432 45.64H94.3005C94.3472 46.396 94.6038 46.9887 95.0705 47.418C95.5465 47.838 96.1205 48.048 96.7925 48.048C97.3432 48.048 97.8005 47.922 98.1645 47.67C98.5378 47.4087 98.7992 47.0633 98.9485 46.634H100.32C100.115 47.3713 99.7045 47.9733 99.0885 48.44C98.4725 48.8973 97.7072 49.126 96.7925 49.126C96.0645 49.126 95.4112 48.9627 94.8325 48.636C94.2632 48.3093 93.8152 47.8473 93.4885 47.25C93.1618 46.6433 92.9985 45.9433 92.9985 45.15C92.9985 44.3567 93.1572 43.6613 93.4745 43.064C93.7918 42.4667 94.2352 42.0093 94.8045 41.692C95.3832 41.3653 96.0458 41.202 96.7925 41.202C97.5205 41.202 98.1645 41.3607 98.7245 41.678C99.2845 41.9953 99.7138 42.434 100.012 42.994C100.32 43.5447 100.474 44.17 100.474 44.87ZM99.1585 44.604C99.1585 44.1187 99.0512 43.7033 98.8365 43.358C98.6218 43.0033 98.3278 42.7373 97.9545 42.56C97.5905 42.3733 97.1845 42.28 96.7365 42.28C96.0925 42.28 95.5418 42.4853 95.0845 42.896C94.6365 43.3067 94.3798 43.876 94.3145 44.604H99.1585ZM105.894 41.188C106.827 41.188 107.583 41.4727 108.162 42.042C108.741 42.602 109.03 43.414 109.03 44.478V49H107.77V44.66C107.77 43.8947 107.579 43.3113 107.196 42.91C106.813 42.4993 106.291 42.294 105.628 42.294C104.956 42.294 104.419 42.504 104.018 42.924C103.626 43.344 103.43 43.9553 103.43 44.758V49H102.156V41.328H103.43V42.42C103.682 42.028 104.023 41.7247 104.452 41.51C104.891 41.2953 105.371 41.188 105.894 41.188ZM112.665 42.378V46.9C112.665 47.2733 112.745 47.5393 112.903 47.698C113.062 47.8473 113.337 47.922 113.729 47.922H114.667V49H113.519C112.81 49 112.278 48.8367 111.923 48.51C111.569 48.1833 111.391 47.6467 111.391 46.9V42.378H110.397V41.328H111.391V39.396H112.665V41.328H114.667V42.378H112.665ZM117.485 38.64V49H116.211V38.64H117.485ZM126.264 41.328L121.644 52.612H120.328L121.84 48.916L118.746 41.328H120.16L122.568 47.544L124.948 41.328H126.264ZM127.951 49.084C127.708 49.084 127.503 49 127.335 48.832C127.167 48.664 127.083 48.4587 127.083 48.216C127.083 47.9733 127.167 47.768 127.335 47.6C127.503 47.432 127.708 47.348 127.951 47.348C128.184 47.348 128.38 47.432 128.539 47.6C128.707 47.768 128.791 47.9733 128.791 48.216C128.791 48.4587 128.707 48.664 128.539 48.832C128.38 49 128.184 49.084 127.951 49.084ZM133.741 44.114C133.741 43.162 133.955 42.308 134.385 41.552C134.814 40.7867 135.397 40.1893 136.135 39.76C136.881 39.3307 137.707 39.116 138.613 39.116C139.677 39.116 140.605 39.3727 141.399 39.886C142.192 40.3993 142.771 41.1273 143.135 42.07H141.609C141.338 41.482 140.946 41.0293 140.433 40.712C139.929 40.3947 139.322 40.236 138.613 40.236C137.931 40.236 137.32 40.3947 136.779 40.712C136.237 41.0293 135.813 41.482 135.505 42.07C135.197 42.6487 135.043 43.33 135.043 44.114C135.043 44.8887 135.197 45.57 135.505 46.158C135.813 46.7367 136.237 47.1847 136.779 47.502C137.32 47.8193 137.931 47.978 138.613 47.978C139.322 47.978 139.929 47.824 140.433 47.516C140.946 47.1987 141.338 46.746 141.609 46.158H143.135C142.771 47.0913 142.192 47.8147 141.399 48.328C140.605 48.832 139.677 49.084 138.613 49.084C137.707 49.084 136.881 48.874 136.135 48.454C135.397 48.0247 134.814 47.432 134.385 46.676C133.955 45.92 133.741 45.066 133.741 44.114ZM144.555 45.136C144.555 44.352 144.714 43.666 145.031 43.078C145.348 42.4807 145.782 42.0187 146.333 41.692C146.893 41.3653 147.514 41.202 148.195 41.202C148.867 41.202 149.45 41.3467 149.945 41.636C150.44 41.9253 150.808 42.2893 151.051 42.728V41.328H152.339V49H151.051V47.572C150.799 48.02 150.421 48.3933 149.917 48.692C149.422 48.9813 148.844 49.126 148.181 49.126C147.5 49.126 146.884 48.958 146.333 48.622C145.782 48.286 145.348 47.8147 145.031 47.208C144.714 46.6013 144.555 45.9107 144.555 45.136ZM151.051 45.15C151.051 44.5713 150.934 44.0673 150.701 43.638C150.468 43.2087 150.15 42.882 149.749 42.658C149.357 42.4247 148.923 42.308 148.447 42.308C147.971 42.308 147.537 42.42 147.145 42.644C146.753 42.868 146.44 43.1947 146.207 43.624C145.974 44.0533 145.857 44.5573 145.857 45.136C145.857 45.724 145.974 46.2373 146.207 46.676C146.44 47.1053 146.753 47.4367 147.145 47.67C147.537 47.894 147.971 48.006 148.447 48.006C148.923 48.006 149.357 47.894 149.749 47.67C150.15 47.4367 150.468 47.1053 150.701 46.676C150.934 46.2373 151.051 45.7287 151.051 45.15ZM158.23 41.188C159.163 41.188 159.919 41.4727 160.498 42.042C161.077 42.602 161.366 43.414 161.366 44.478V49H160.106V44.66C160.106 43.8947 159.915 43.3113 159.532 42.91C159.149 42.4993 158.627 42.294 157.964 42.294C157.292 42.294 156.755 42.504 156.354 42.924C155.962 43.344 155.766 43.9553 155.766 44.758V49H154.492V41.328H155.766V42.42C156.018 42.028 156.359 41.7247 156.788 41.51C157.227 41.2953 157.707 41.188 158.23 41.188ZM173.788 41.328L169.168 52.612H167.852L169.364 48.916L166.27 41.328H167.684L170.092 47.544L172.472 41.328H173.788ZM178.414 49.126C177.696 49.126 177.042 48.9627 176.454 48.636C175.876 48.3093 175.418 47.8473 175.082 47.25C174.756 46.6433 174.592 45.9433 174.592 45.15C174.592 44.366 174.76 43.6753 175.096 43.078C175.442 42.4713 175.908 42.0093 176.496 41.692C177.084 41.3653 177.742 41.202 178.47 41.202C179.198 41.202 179.856 41.3653 180.444 41.692C181.032 42.0093 181.494 42.4667 181.83 43.064C182.176 43.6613 182.348 44.3567 182.348 45.15C182.348 45.9433 182.171 46.6433 181.816 47.25C181.471 47.8473 181 48.3093 180.402 48.636C179.805 48.9627 179.142 49.126 178.414 49.126ZM178.414 48.006C178.872 48.006 179.301 47.8987 179.702 47.684C180.104 47.4693 180.426 47.1473 180.668 46.718C180.92 46.2887 181.046 45.766 181.046 45.15C181.046 44.534 180.925 44.0113 180.682 43.582C180.44 43.1527 180.122 42.8353 179.73 42.63C179.338 42.4153 178.914 42.308 178.456 42.308C177.99 42.308 177.56 42.4153 177.168 42.63C176.786 42.8353 176.478 43.1527 176.244 43.582C176.011 44.0113 175.894 44.534 175.894 45.15C175.894 45.7753 176.006 46.3027 176.23 46.732C176.464 47.1613 176.772 47.4833 177.154 47.698C177.537 47.9033 177.957 48.006 178.414 48.006ZM190.827 41.328V49H189.553V47.866C189.311 48.258 188.97 48.566 188.531 48.79C188.102 49.0047 187.626 49.112 187.103 49.112C186.506 49.112 185.969 48.9907 185.493 48.748C185.017 48.496 184.639 48.1227 184.359 47.628C184.089 47.1333 183.953 46.5313 183.953 45.822V41.328H185.213V45.654C185.213 46.41 185.405 46.9933 185.787 47.404C186.17 47.8053 186.693 48.006 187.355 48.006C188.037 48.006 188.573 47.796 188.965 47.376C189.357 46.956 189.553 46.3447 189.553 45.542V41.328H190.827ZM15.602 66.136C15.602 65.352 15.7607 64.666 16.078 64.078C16.3953 63.4807 16.8293 63.0187 17.38 62.692C17.94 62.3653 18.5607 62.202 19.242 62.202C19.914 62.202 20.4973 62.3467 20.992 62.636C21.4867 62.9253 21.8553 63.2893 22.098 63.728V62.328H23.386V70H22.098V68.572C21.846 69.02 21.468 69.3933 20.964 69.692C20.4693 69.9813 19.8907 70.126 19.228 70.126C18.5467 70.126 17.9307 69.958 17.38 69.622C16.8293 69.286 16.3953 68.8147 16.078 68.208C15.7607 67.6013 15.602 66.9107 15.602 66.136ZM22.098 66.15C22.098 65.5713 21.9813 65.0673 21.748 64.638C21.5147 64.2087 21.1973 63.882 20.796 63.658C20.404 63.4247 19.97 63.308 19.494 63.308C19.018 63.308 18.584 63.42 18.192 63.644C17.8 63.868 17.4873 64.1947 17.254 64.624C17.0207 65.0533 16.904 65.5573 16.904 66.136C16.904 66.724 17.0207 67.2373 17.254 67.676C17.4873 68.1053 17.8 68.4367 18.192 68.67C18.584 68.894 19.018 69.006 19.494 69.006C19.97 69.006 20.404 68.894 20.796 68.67C21.1973 68.4367 21.5147 68.1053 21.748 67.676C21.9813 67.2373 22.098 66.7287 22.098 66.15ZM25.0629 66.136C25.0629 65.352 25.2216 64.666 25.5389 64.078C25.8563 63.4807 26.2903 63.0187 26.8409 62.692C27.4009 62.3653 28.0263 62.202 28.7169 62.202C29.3143 62.202 29.8696 62.342 30.3829 62.622C30.8963 62.8927 31.2883 63.252 31.5589 63.7V59.64H32.8469V70H31.5589V68.558C31.3069 69.0153 30.9336 69.3933 30.4389 69.692C29.9443 69.9813 29.3656 70.126 28.7029 70.126C28.0216 70.126 27.4009 69.958 26.8409 69.622C26.2903 69.286 25.8563 68.8147 25.5389 68.208C25.2216 67.6013 25.0629 66.9107 25.0629 66.136ZM31.5589 66.15C31.5589 65.5713 31.4423 65.0673 31.2089 64.638C30.9756 64.2087 30.6583 63.882 30.2569 63.658C29.8649 63.4247 29.4309 63.308 28.9549 63.308C28.4789 63.308 28.0449 63.42 27.6529 63.644C27.2609 63.868 26.9483 64.1947 26.7149 64.624C26.4816 65.0533 26.3649 65.5573 26.3649 66.136C26.3649 66.724 26.4816 67.2373 26.7149 67.676C26.9483 68.1053 27.2609 68.4367 27.6529 68.67C28.0449 68.894 28.4789 69.006 28.9549 69.006C29.4309 69.006 29.8649 68.894 30.2569 68.67C30.6583 68.4367 30.9756 68.1053 31.2089 67.676C31.4423 67.2373 31.5589 66.7287 31.5589 66.15ZM34.5239 66.136C34.5239 65.352 34.6825 64.666 34.9999 64.078C35.3172 63.4807 35.7512 63.0187 36.3019 62.692C36.8619 62.3653 37.4825 62.202 38.1639 62.202C38.8359 62.202 39.4192 62.3467 39.9139 62.636C40.4085 62.9253 40.7772 63.2893 41.0199 63.728V62.328H42.3079V70H41.0199V68.572C40.7679 69.02 40.3899 69.3933 39.8859 69.692C39.3912 69.9813 38.8125 70.126 38.1499 70.126C37.4685 70.126 36.8525 69.958 36.3019 69.622C35.7512 69.286 35.3172 68.8147 34.9999 68.208C34.6825 67.6013 34.5239 66.9107 34.5239 66.136ZM41.0199 66.15C41.0199 65.5713 40.9032 65.0673 40.6699 64.638C40.4365 64.2087 40.1192 63.882 39.7179 63.658C39.3259 63.4247 38.8919 63.308 38.4159 63.308C37.9399 63.308 37.5059 63.42 37.1139 63.644C36.7219 63.868 36.4092 64.1947 36.1759 64.624C35.9425 65.0533 35.8259 65.5573 35.8259 66.136C35.8259 66.724 35.9425 67.2373 36.1759 67.676C36.4092 68.1053 36.7219 68.4367 37.1139 68.67C37.5059 68.894 37.9399 69.006 38.4159 69.006C38.8919 69.006 39.3259 68.894 39.7179 68.67C40.1192 68.4367 40.4365 68.1053 40.6699 67.676C40.9032 67.2373 41.0199 66.7287 41.0199 66.15ZM45.7348 63.742C45.9868 63.3033 46.3601 62.9393 46.8548 62.65C47.3588 62.3513 47.9421 62.202 48.6048 62.202C49.2861 62.202 49.9021 62.3653 50.4528 62.692C51.0128 63.0187 51.4515 63.4807 51.7688 64.078C52.0861 64.666 52.2448 65.352 52.2448 66.136C52.2448 66.9107 52.0861 67.6013 51.7688 68.208C51.4515 68.8147 51.0128 69.286 50.4528 69.622C49.9021 69.958 49.2861 70.126 48.6048 70.126C47.9515 70.126 47.3728 69.9813 46.8688 69.692C46.3741 69.3933 45.9961 69.0247 45.7348 68.586V73.64H44.4608V62.328H45.7348V63.742ZM50.9428 66.136C50.9428 65.5573 50.8261 65.0533 50.5928 64.624C50.3595 64.1947 50.0421 63.868 49.6408 63.644C49.2488 63.42 48.8148 63.308 48.3388 63.308C47.8721 63.308 47.4381 63.4247 47.0368 63.658C46.6448 63.882 46.3275 64.2133 46.0848 64.652C45.8515 65.0813 45.7348 65.5807 45.7348 66.15C45.7348 66.7287 45.8515 67.2373 46.0848 67.676C46.3275 68.1053 46.6448 68.4367 47.0368 68.67C47.4381 68.894 47.8721 69.006 48.3388 69.006C48.8148 69.006 49.2488 68.894 49.6408 68.67C50.0421 68.4367 50.3595 68.1053 50.5928 67.676C50.8261 67.2373 50.9428 66.724 50.9428 66.136ZM55.4758 63.378V67.9C55.4758 68.2733 55.5551 68.5393 55.7138 68.698C55.8724 68.8473 56.1478 68.922 56.5397 68.922H57.4778V70H56.3298C55.6204 70 55.0884 69.8367 54.7338 69.51C54.3791 69.1833 54.2018 68.6467 54.2018 67.9V63.378H53.2078V62.328H54.2018V60.396H55.4758V62.328H57.4778V63.378H55.4758ZM69.3618 62.328L64.7418 73.612H63.4258L64.9378 69.916L61.8438 62.328H63.2578L65.6658 68.544L68.0458 62.328H69.3618ZM73.9885 70.126C73.2698 70.126 72.6165 69.9627 72.0285 69.636C71.4498 69.3093 70.9925 68.8473 70.6565 68.25C70.3298 67.6433 70.1665 66.9433 70.1665 66.15C70.1665 65.366 70.3345 64.6753 70.6705 64.078C71.0158 63.4713 71.4825 63.0093 72.0705 62.692C72.6585 62.3653 73.3165 62.202 74.0445 62.202C74.7725 62.202 75.4305 62.3653 76.0185 62.692C76.6065 63.0093 77.0685 63.4667 77.4045 64.064C77.7498 64.6613 77.9225 65.3567 77.9225 66.15C77.9225 66.9433 77.7451 67.6433 77.3905 68.25C77.0451 68.8473 76.5738 69.3093 75.9765 69.636C75.3791 69.9627 74.7165 70.126 73.9885 70.126ZM73.9885 69.006C74.4458 69.006 74.8751 68.8987 75.2765 68.684C75.6778 68.4693 75.9998 68.1473 76.2425 67.718C76.4945 67.2887 76.6205 66.766 76.6205 66.15C76.6205 65.534 76.4991 65.0113 76.2565 64.582C76.0138 64.1527 75.6965 63.8353 75.3045 63.63C74.9125 63.4153 74.4878 63.308 74.0305 63.308C73.5638 63.308 73.1345 63.4153 72.7425 63.63C72.3598 63.8353 72.0518 64.1527 71.8185 64.582C71.5851 65.0113 71.4685 65.534 71.4685 66.15C71.4685 66.7753 71.5805 67.3027 71.8045 67.732C72.0378 68.1613 72.3458 68.4833 72.7285 68.698C73.1111 68.9033 73.5311 69.006 73.9885 69.006ZM86.4015 62.328V70H85.1275V68.866C84.8849 69.258 84.5442 69.566 84.1055 69.79C83.6762 70.0047 83.2002 70.112 82.6775 70.112C82.0802 70.112 81.5435 69.9907 81.0675 69.748C80.5915 69.496 80.2135 69.1227 79.9335 68.628C79.6629 68.1333 79.5275 67.5313 79.5275 66.822V62.328H80.7875V66.654C80.7875 67.41 80.9789 67.9933 81.3615 68.404C81.7442 68.8053 82.2669 69.006 82.9295 69.006C83.6109 69.006 84.1475 68.796 84.5395 68.376C84.9315 67.956 85.1275 67.3447 85.1275 66.542V62.328H86.4015ZM89.8266 63.574C90.0506 63.1353 90.3679 62.7947 90.7786 62.552C91.1986 62.3093 91.7073 62.188 92.3046 62.188V63.504H91.9686C90.5406 63.504 89.8266 64.2787 89.8266 65.828V70H88.5526V62.328H89.8266V63.574ZM100.364 68.824L102.744 62.328H104.102L101.092 70H99.6077L96.5977 62.328H97.9697L100.364 68.824ZM108.701 70.126C107.983 70.126 107.329 69.9627 106.741 69.636C106.163 69.3093 105.705 68.8473 105.369 68.25C105.043 67.6433 104.879 66.9433 104.879 66.15C104.879 65.366 105.047 64.6753 105.383 64.078C105.729 63.4713 106.195 63.0093 106.783 62.692C107.371 62.3653 108.029 62.202 108.757 62.202C109.485 62.202 110.143 62.3653 110.731 62.692C111.319 63.0093 111.781 63.4667 112.117 64.064C112.463 64.6613 112.635 65.3567 112.635 66.15C112.635 66.9433 112.458 67.6433 112.103 68.25C111.758 68.8473 111.287 69.3093 110.689 69.636C110.092 69.9627 109.429 70.126 108.701 70.126ZM108.701 69.006C109.159 69.006 109.588 68.8987 109.989 68.684C110.391 68.4693 110.713 68.1473 110.955 67.718C111.207 67.2887 111.333 66.766 111.333 66.15C111.333 65.534 111.212 65.0113 110.969 64.582C110.727 64.1527 110.409 63.8353 110.017 63.63C109.625 63.4153 109.201 63.308 108.743 63.308C108.277 63.308 107.847 63.4153 107.455 63.63C107.073 63.8353 106.765 64.1527 106.531 64.582C106.298 65.0113 106.181 65.534 106.181 66.15C106.181 66.7753 106.293 67.3027 106.517 67.732C106.751 68.1613 107.059 68.4833 107.441 68.698C107.824 68.9033 108.244 69.006 108.701 69.006ZM114.968 61.082C114.726 61.082 114.52 60.998 114.352 60.83C114.184 60.662 114.1 60.4567 114.1 60.214C114.1 59.9713 114.184 59.766 114.352 59.598C114.52 59.43 114.726 59.346 114.968 59.346C115.202 59.346 115.398 59.43 115.556 59.598C115.724 59.766 115.808 59.9713 115.808 60.214C115.808 60.4567 115.724 60.662 115.556 60.83C115.398 60.998 115.202 61.082 114.968 61.082ZM115.584 62.328V70H114.31V62.328H115.584ZM117.28 66.15C117.28 65.3567 117.438 64.666 117.756 64.078C118.073 63.4807 118.512 63.0187 119.072 62.692C119.641 62.3653 120.29 62.202 121.018 62.202C121.96 62.202 122.735 62.4307 123.342 62.888C123.958 63.3453 124.364 63.98 124.56 64.792H123.188C123.057 64.3253 122.8 63.9567 122.418 63.686C122.044 63.4153 121.578 63.28 121.018 63.28C120.29 63.28 119.702 63.532 119.254 64.036C118.806 64.5307 118.582 65.2353 118.582 66.15C118.582 67.074 118.806 67.788 119.254 68.292C119.702 68.796 120.29 69.048 121.018 69.048C121.578 69.048 122.044 68.9173 122.418 68.656C122.791 68.3947 123.048 68.0213 123.188 67.536H124.56C124.354 68.32 123.944 68.95 123.328 69.426C122.712 69.8927 121.942 70.126 121.018 70.126C120.29 70.126 119.641 69.9627 119.072 69.636C118.512 69.3093 118.073 68.8473 117.756 68.25C117.438 67.6527 117.28 66.9527 117.28 66.15ZM133.26 65.87C133.26 66.1127 133.246 66.3693 133.218 66.64H127.086C127.132 67.396 127.389 67.9887 127.856 68.418C128.332 68.838 128.906 69.048 129.578 69.048C130.128 69.048 130.586 68.922 130.95 68.67C131.323 68.4087 131.584 68.0633 131.734 67.634H133.106C132.9 68.3713 132.49 68.9733 131.874 69.44C131.258 69.8973 130.492 70.126 129.578 70.126C128.85 70.126 128.196 69.9627 127.618 69.636C127.048 69.3093 126.6 68.8473 126.274 68.25C125.947 67.6433 125.784 66.9433 125.784 66.15C125.784 65.3567 125.942 64.6613 126.26 64.064C126.577 63.4667 127.02 63.0093 127.59 62.692C128.168 62.3653 128.831 62.202 129.578 62.202C130.306 62.202 130.95 62.3607 131.51 62.678C132.07 62.9953 132.499 63.434 132.798 63.994C133.106 64.5447 133.26 65.17 133.26 65.87ZM131.944 65.604C131.944 65.1187 131.836 64.7033 131.622 64.358C131.407 64.0033 131.113 63.7373 130.74 63.56C130.376 63.3733 129.97 63.28 129.522 63.28C128.878 63.28 128.327 63.4853 127.87 63.896C127.422 64.3067 127.165 64.876 127.1 65.604H131.944ZM140.228 63.378V67.9C140.228 68.2733 140.307 68.5393 140.466 68.698C140.624 68.8473 140.9 68.922 141.292 68.922H142.23V70H141.082C140.372 70 139.84 69.8367 139.486 69.51C139.131 69.1833 138.954 68.6467 138.954 67.9V63.378H137.96V62.328H138.954V60.396H140.228V62.328H142.23V63.378H140.228ZM147.119 70.126C146.401 70.126 145.747 69.9627 145.159 69.636C144.581 69.3093 144.123 68.8473 143.787 68.25C143.461 67.6433 143.297 66.9433 143.297 66.15C143.297 65.366 143.465 64.6753 143.801 64.078C144.147 63.4713 144.613 63.0093 145.201 62.692C145.789 62.3653 146.447 62.202 147.175 62.202C147.903 62.202 148.561 62.3653 149.149 62.692C149.737 63.0093 150.199 63.4667 150.535 64.064C150.881 64.6613 151.053 65.3567 151.053 66.15C151.053 66.9433 150.876 67.6433 150.521 68.25C150.176 68.8473 149.705 69.3093 149.107 69.636C148.51 69.9627 147.847 70.126 147.119 70.126ZM147.119 69.006C147.577 69.006 148.006 68.8987 148.407 68.684C148.809 68.4693 149.131 68.1473 149.373 67.718C149.625 67.2887 149.751 66.766 149.751 66.15C149.751 65.534 149.63 65.0113 149.387 64.582C149.145 64.1527 148.827 63.8353 148.435 63.63C148.043 63.4153 147.619 63.308 147.161 63.308C146.695 63.308 146.265 63.4153 145.873 63.63C145.491 63.8353 145.183 64.1527 144.949 64.582C144.716 65.0113 144.599 65.534 144.599 66.15C144.599 66.7753 144.711 67.3027 144.935 67.732C145.169 68.1613 145.477 68.4833 145.859 68.698C146.242 68.9033 146.662 69.006 147.119 69.006ZM157.735 59.64V70H156.461V59.64H157.735ZM166.906 65.87C166.906 66.1127 166.892 66.3693 166.864 66.64H160.732C160.779 67.396 161.035 67.9887 161.502 68.418C161.978 68.838 162.552 69.048 163.224 69.048C163.775 69.048 164.232 68.922 164.596 68.67C164.969 68.4087 165.231 68.0633 165.38 67.634H166.752C166.547 68.3713 166.136 68.9733 165.52 69.44C164.904 69.8973 164.139 70.126 163.224 70.126C162.496 70.126 161.843 69.9627 161.264 69.636C160.695 69.3093 160.247 68.8473 159.92 68.25C159.593 67.6433 159.43 66.9433 159.43 66.15C159.43 65.3567 159.589 64.6613 159.906 64.064C160.223 63.4667 160.667 63.0093 161.236 62.692C161.815 62.3653 162.477 62.202 163.224 62.202C163.952 62.202 164.596 62.3607 165.156 62.678C165.716 62.9953 166.145 63.434 166.444 63.994C166.752 64.5447 166.906 65.17 166.906 65.87ZM165.59 65.604C165.59 65.1187 165.483 64.7033 165.268 64.358C165.053 64.0033 164.759 63.7373 164.386 63.56C164.022 63.3733 163.616 63.28 163.168 63.28C162.524 63.28 161.973 63.4853 161.516 63.896C161.068 64.3067 160.811 64.876 160.746 65.604H165.59ZM168.112 66.136C168.112 65.352 168.27 64.666 168.588 64.078C168.905 63.4807 169.339 63.0187 169.89 62.692C170.45 62.3653 171.07 62.202 171.752 62.202C172.424 62.202 173.007 62.3467 173.502 62.636C173.996 62.9253 174.365 63.2893 174.608 63.728V62.328H175.896V70H174.608V68.572C174.356 69.02 173.978 69.3933 173.474 69.692C172.979 69.9813 172.4 70.126 171.738 70.126C171.056 70.126 170.44 69.958 169.89 69.622C169.339 69.286 168.905 68.8147 168.588 68.208C168.27 67.6013 168.112 66.9107 168.112 66.136ZM174.608 66.15C174.608 65.5713 174.491 65.0673 174.258 64.638C174.024 64.2087 173.707 63.882 173.306 63.658C172.914 63.4247 172.48 63.308 172.004 63.308C171.528 63.308 171.094 63.42 170.702 63.644C170.31 63.868 169.997 64.1947 169.764 64.624C169.53 65.0533 169.414 65.5573 169.414 66.136C169.414 66.724 169.53 67.2373 169.764 67.676C169.997 68.1053 170.31 68.4367 170.702 68.67C171.094 68.894 171.528 69.006 172.004 69.006C172.48 69.006 172.914 68.894 173.306 68.67C173.707 68.4367 174.024 68.1053 174.258 67.676C174.491 67.2373 174.608 66.7287 174.608 66.15ZM177.573 66.136C177.573 65.352 177.731 64.666 178.049 64.078C178.366 63.4807 178.8 63.0187 179.351 62.692C179.911 62.3653 180.536 62.202 181.227 62.202C181.824 62.202 182.379 62.342 182.893 62.622C183.406 62.8927 183.798 63.252 184.069 63.7V59.64H185.357V70H184.069V68.558C183.817 69.0153 183.443 69.3933 182.949 69.692C182.454 69.9813 181.875 70.126 181.213 70.126C180.531 70.126 179.911 69.958 179.351 69.622C178.8 69.286 178.366 68.8147 178.049 68.208C177.731 67.6013 177.573 66.9107 177.573 66.136ZM184.069 66.15C184.069 65.5713 183.952 65.0673 183.719 64.638C183.485 64.2087 183.168 63.882 182.767 63.658C182.375 63.4247 181.941 63.308 181.465 63.308C180.989 63.308 180.555 63.42 180.163 63.644C179.771 63.868 179.458 64.1947 179.225 64.624C178.991 65.0533 178.875 65.5573 178.875 66.136C178.875 66.724 178.991 67.2373 179.225 67.676C179.458 68.1053 179.771 68.4367 180.163 68.67C180.555 68.894 180.989 69.006 181.465 69.006C181.941 69.006 182.375 68.894 182.767 68.67C183.168 68.4367 183.485 68.1053 183.719 67.676C183.952 67.2373 184.069 66.7287 184.069 66.15ZM15.602 87.136C15.602 86.352 15.7607 85.666 16.078 85.078C16.3953 84.4807 16.8293 84.0187 17.38 83.692C17.94 83.3653 18.5607 83.202 19.242 83.202C19.914 83.202 20.4973 83.3467 20.992 83.636C21.4867 83.9253 21.8553 84.2893 22.098 84.728V83.328H23.386V91H22.098V89.572C21.846 90.02 21.468 90.3933 20.964 90.692C20.4693 90.9813 19.8907 91.126 19.228 91.126C18.5467 91.126 17.9307 90.958 17.38 90.622C16.8293 90.286 16.3953 89.8147 16.078 89.208C15.7607 88.6013 15.602 87.9107 15.602 87.136ZM22.098 87.15C22.098 86.5713 21.9813 86.0673 21.748 85.638C21.5147 85.2087 21.1973 84.882 20.796 84.658C20.404 84.4247 19.97 84.308 19.494 84.308C19.018 84.308 18.584 84.42 18.192 84.644C17.8 84.868 17.4873 85.1947 17.254 85.624C17.0207 86.0533 16.904 86.5573 16.904 87.136C16.904 87.724 17.0207 88.2373 17.254 88.676C17.4873 89.1053 17.8 89.4367 18.192 89.67C18.584 89.894 19.018 90.006 19.494 90.006C19.97 90.006 20.404 89.894 20.796 89.67C21.1973 89.4367 21.5147 89.1053 21.748 88.676C21.9813 88.2373 22.098 87.7287 22.098 87.15ZM29.2769 83.188C30.2103 83.188 30.9663 83.4727 31.5449 84.042C32.1236 84.602 32.4129 85.414 32.4129 86.478V91H31.1529V86.66C31.1529 85.8947 30.9616 85.3113 30.5789 84.91C30.1963 84.4993 29.6736 84.294 29.0109 84.294C28.3389 84.294 27.8023 84.504 27.4009 84.924C27.0089 85.344 26.8129 85.9553 26.8129 86.758V91H25.5389V83.328H26.8129V84.42C27.0649 84.028 27.4056 83.7247 27.8349 83.51C28.2736 83.2953 28.7543 83.188 29.2769 83.188ZM34.018 87.136C34.018 86.352 34.1767 85.666 34.494 85.078C34.8113 84.4807 35.2453 84.0187 35.796 83.692C36.356 83.3653 36.9813 83.202 37.672 83.202C38.2693 83.202 38.8247 83.342 39.338 83.622C39.8513 83.8927 40.2433 84.252 40.514 84.7V80.64H41.802V91H40.514V89.558C40.262 90.0153 39.8887 90.3933 39.394 90.692C38.8993 90.9813 38.3207 91.126 37.658 91.126C36.9767 91.126 36.356 90.958 35.796 90.622C35.2453 90.286 34.8113 89.8147 34.494 89.208C34.1767 88.6013 34.018 87.9107 34.018 87.136ZM40.514 87.15C40.514 86.5713 40.3973 86.0673 40.164 85.638C39.9307 85.2087 39.6133 84.882 39.212 84.658C38.82 84.4247 38.386 84.308 37.91 84.308C37.434 84.308 37 84.42 36.608 84.644C36.216 84.868 35.9033 85.1947 35.67 85.624C35.4367 86.0533 35.32 86.5573 35.32 87.136C35.32 87.724 35.4367 88.2373 35.67 88.676C35.9033 89.1053 36.216 89.4367 36.608 89.67C37 89.894 37.434 90.006 37.91 90.006C38.386 90.006 38.82 89.894 39.212 89.67C39.6133 89.4367 39.9307 89.1053 40.164 88.676C40.3973 88.2373 40.514 87.7287 40.514 87.15ZM49.2414 84.378V88.9C49.2414 89.2733 49.3207 89.5393 49.4794 89.698C49.638 89.8473 49.9134 89.922 50.3054 89.922H51.2434V91H50.0954C49.386 91 48.854 90.8367 48.4994 90.51C48.1447 90.1833 47.9674 89.6467 47.9674 88.9V84.378H46.9734V83.328H47.9674V81.396H49.2414V83.328H51.2434V84.378H49.2414ZM56.595 83.188C57.1737 83.188 57.6963 83.314 58.163 83.566C58.6297 83.8087 58.9937 84.1773 59.255 84.672C59.5257 85.1667 59.661 85.7687 59.661 86.478V91H58.401V86.66C58.401 85.8947 58.2097 85.3113 57.827 84.91C57.4443 84.4993 56.9217 84.294 56.259 84.294C55.587 84.294 55.0503 84.504 54.649 84.924C54.257 85.344 54.061 85.9553 54.061 86.758V91H52.787V80.64H54.061V84.42C54.313 84.028 54.6583 83.7247 55.097 83.51C55.545 83.2953 56.0443 83.188 56.595 83.188ZM68.7421 86.87C68.7421 87.1127 68.7281 87.3693 68.7001 87.64H62.5681C62.6147 88.396 62.8714 88.9887 63.3381 89.418C63.8141 89.838 64.3881 90.048 65.0601 90.048C65.6107 90.048 66.0681 89.922 66.4321 89.67C66.8054 89.4087 67.0667 89.0633 67.2161 88.634H68.5881C68.3827 89.3713 67.9721 89.9733 67.3561 90.44C66.7401 90.8973 65.9747 91.126 65.0601 91.126C64.3321 91.126 63.6787 90.9627 63.1001 90.636C62.5307 90.3093 62.0827 89.8473 61.7561 89.25C61.4294 88.6433 61.2661 87.9433 61.2661 87.15C61.2661 86.3567 61.4247 85.6613 61.7421 85.064C62.0594 84.4667 62.5027 84.0093 63.0721 83.692C63.6507 83.3653 64.3134 83.202 65.0601 83.202C65.7881 83.202 66.4321 83.3607 66.9921 83.678C67.5521 83.9953 67.9814 84.434 68.2801 84.994C68.5881 85.5447 68.7421 86.17 68.7421 86.87ZM67.4261 86.604C67.4261 86.1187 67.3187 85.7033 67.1041 85.358C66.8894 85.0033 66.5954 84.7373 66.2221 84.56C65.8581 84.3733 65.4521 84.28 65.0041 84.28C64.3601 84.28 63.8094 84.4853 63.3521 84.896C62.9041 85.3067 62.6474 85.876 62.5821 86.604H67.4261ZM74.1617 83.188C75.095 83.188 75.851 83.4727 76.4297 84.042C77.0084 84.602 77.2977 85.414 77.2977 86.478V91H76.0377V86.66C76.0377 85.8947 75.8464 85.3113 75.4637 84.91C75.081 84.4993 74.5584 84.294 73.8957 84.294C73.2237 84.294 72.687 84.504 72.2857 84.924C71.8937 85.344 71.6977 85.9553 71.6977 86.758V91H70.4237V83.328H71.6977V84.42C71.9497 84.028 72.2904 83.7247 72.7197 83.51C73.1584 83.2953 73.639 83.188 74.1617 83.188ZM86.2332 84.378H84.6232V91H83.3492V84.378H82.3552V83.328H83.3492V82.782C83.3492 81.9233 83.5685 81.298 84.0072 80.906C84.4552 80.5047 85.1692 80.304 86.1492 80.304V81.368C85.5892 81.368 85.1925 81.48 84.9592 81.704C84.7352 81.9187 84.6232 82.278 84.6232 82.782V83.328H86.2332V84.378ZM91.0646 91.126C90.346 91.126 89.6926 90.9627 89.1046 90.636C88.526 90.3093 88.0686 89.8473 87.7326 89.25C87.406 88.6433 87.2426 87.9433 87.2426 87.15C87.2426 86.366 87.4106 85.6753 87.7466 85.078C88.092 84.4713 88.5586 84.0093 89.1466 83.692C89.7346 83.3653 90.3926 83.202 91.1206 83.202C91.8486 83.202 92.5066 83.3653 93.0946 83.692C93.6826 84.0093 94.1446 84.4667 94.4806 85.064C94.826 85.6613 94.9986 86.3567 94.9986 87.15C94.9986 87.9433 94.8213 88.6433 94.4666 89.25C94.1213 89.8473 93.65 90.3093 93.0526 90.636C92.4553 90.9627 91.7926 91.126 91.0646 91.126ZM91.0646 90.006C91.522 90.006 91.9513 89.8987 92.3526 89.684C92.754 89.4693 93.076 89.1473 93.3186 88.718C93.5706 88.2887 93.6966 87.766 93.6966 87.15C93.6966 86.534 93.5753 86.0113 93.3326 85.582C93.09 85.1527 92.7726 84.8353 92.3806 84.63C91.9886 84.4153 91.564 84.308 91.1066 84.308C90.64 84.308 90.2106 84.4153 89.8186 84.63C89.436 84.8353 89.128 85.1527 88.8946 85.582C88.6613 86.0113 88.5446 86.534 88.5446 87.15C88.5446 87.7753 88.6566 88.3027 88.8806 88.732C89.114 89.1613 89.422 89.4833 89.8046 89.698C90.1873 89.9033 90.6073 90.006 91.0646 90.006ZM97.9477 80.64V91H96.6737V80.64H97.9477ZM101.393 80.64V91H100.119V80.64H101.393ZM106.91 91.126C106.192 91.126 105.538 90.9627 104.95 90.636C104.372 90.3093 103.914 89.8473 103.578 89.25C103.252 88.6433 103.088 87.9433 103.088 87.15C103.088 86.366 103.256 85.6753 103.592 85.078C103.938 84.4713 104.404 84.0093 104.992 83.692C105.58 83.3653 106.238 83.202 106.966 83.202C107.694 83.202 108.352 83.3653 108.94 83.692C109.528 84.0093 109.99 84.4667 110.326 85.064C110.672 85.6613 110.844 86.3567 110.844 87.15C110.844 87.9433 110.667 88.6433 110.312 89.25C109.967 89.8473 109.496 90.3093 108.898 90.636C108.301 90.9627 107.638 91.126 106.91 91.126ZM106.91 90.006C107.368 90.006 107.797 89.8987 108.198 89.684C108.6 89.4693 108.922 89.1473 109.164 88.718C109.416 88.2887 109.542 87.766 109.542 87.15C109.542 86.534 109.421 86.0113 109.178 85.582C108.936 85.1527 108.618 84.8353 108.226 84.63C107.834 84.4153 107.41 84.308 106.952 84.308C106.486 84.308 106.056 84.4153 105.664 84.63C105.282 84.8353 104.974 85.1527 104.74 85.582C104.507 86.0113 104.39 86.534 104.39 87.15C104.39 87.7753 104.502 88.3027 104.726 88.732C104.96 89.1613 105.268 89.4833 105.65 89.698C106.033 89.9033 106.453 90.006 106.91 90.006ZM122.739 83.328L120.345 91H119.029L117.181 84.91L115.333 91H114.017L111.609 83.328H112.911L114.675 89.768L116.579 83.328H117.881L119.743 89.782L121.479 83.328H122.739ZM126.496 81.116C127.42 81.116 128.166 81.3773 128.736 81.9C129.305 82.4227 129.59 83.1227 129.59 84C129.59 84.98 129.286 85.708 128.68 86.184C128.073 86.6507 127.252 86.884 126.216 86.884L126.174 88.214H125.068L125.012 86.002H125.418C126.342 86.002 127.065 85.862 127.588 85.582C128.11 85.302 128.372 84.7747 128.372 84C128.372 83.44 128.204 82.9967 127.868 82.67C127.532 82.3433 127.079 82.18 126.51 82.18C125.931 82.18 125.474 82.3387 125.138 82.656C124.811 82.964 124.648 83.3887 124.648 83.93H123.444C123.444 83.37 123.57 82.88 123.822 82.46C124.074 82.0307 124.428 81.6993 124.886 81.466C125.352 81.2327 125.889 81.116 126.496 81.116ZM125.614 91.084C125.371 91.084 125.166 91 124.998 90.832C124.83 90.664 124.746 90.4587 124.746 90.216C124.746 89.9733 124.83 89.768 124.998 89.6C125.166 89.432 125.371 89.348 125.614 89.348C125.847 89.348 126.043 89.432 126.202 89.6C126.37 89.768 126.454 89.9733 126.454 90.216C126.454 90.4587 126.37 90.664 126.202 90.832C126.043 91 125.847 91.084 125.614 91.084Z" fill="black"/>
</svg>
