<svg width="232" height="110" viewBox="0 0 232 110" fill="none" xmlns="http://www.w3.org/2000/svg">
<path d="M0.5 0.5H220C226.351 0.5 231.5 5.64873 231.5 12V98C231.5 104.351 226.351 109.5 220 109.5H12C5.64873 109.5 0.5 104.351 0.5 98V0.5Z" stroke="#939393"/>
<path d="M22.91 18.242L19.732 24.318V28H18.458V24.318L15.266 18.242H16.68L19.088 23.184L21.496 18.242H22.91ZM27.5998 28.126C26.8811 28.126 26.2278 27.9627 25.6398 27.636C25.0611 27.3093 24.6038 26.8473 24.2678 26.25C23.9411 25.6433 23.7778 24.9433 23.7778 24.15C23.7778 23.366 23.9458 22.6753 24.2818 22.078C24.6271 21.4713 25.0938 21.0093 25.6818 20.692C26.2698 20.3653 26.9278 20.202 27.6558 20.202C28.3838 20.202 29.0418 20.3653 29.6298 20.692C30.2178 21.0093 30.6798 21.4667 31.0158 22.064C31.3611 22.6613 31.5338 23.3567 31.5338 24.15C31.5338 24.9433 31.3564 25.6433 31.0018 26.25C30.6564 26.8473 30.1851 27.3093 29.5878 27.636C28.9904 27.9627 28.3278 28.126 27.5998 28.126ZM27.5998 27.006C28.0571 27.006 28.4864 26.8987 28.8878 26.684C29.2891 26.4693 29.6111 26.1473 29.8538 25.718C30.1058 25.2887 30.2318 24.766 30.2318 24.15C30.2318 23.534 30.1104 23.0113 29.8678 22.582C29.6251 22.1527 29.3078 21.8353 28.9158 21.63C28.5238 21.4153 28.0991 21.308 27.6418 21.308C27.1751 21.308 26.7458 21.4153 26.3538 21.63C25.9711 21.8353 25.6631 22.1527 25.4298 22.582C25.1964 23.0113 25.0798 23.534 25.0798 24.15C25.0798 24.7753 25.1918 25.3027 25.4158 25.732C25.6491 26.1613 25.9571 26.4833 26.3398 26.698C26.7224 26.9033 27.1424 27.006 27.5998 27.006ZM40.0129 20.328V28H38.7389V26.866C38.4962 27.258 38.1555 27.566 37.7169 27.79C37.2875 28.0047 36.8115 28.112 36.2889 28.112C35.6915 28.112 35.1549 27.9907 34.6789 27.748C34.2029 27.496 33.8249 27.1227 33.5449 26.628C33.2742 26.1333 33.1389 25.5313 33.1389 24.822V20.328H34.3989V24.654C34.3989 25.41 34.5902 25.9933 34.9729 26.404C35.3555 26.8053 35.8782 27.006 36.5409 27.006C37.2222 27.006 37.7589 26.796 38.1509 26.376C38.5429 25.956 38.7389 25.3447 38.7389 24.542V20.328H40.0129ZM42.8079 16.856L42.6399 19.642H41.7579L41.5759 16.856H42.8079ZM45.6665 21.574C45.8905 21.1353 46.2078 20.7947 46.6185 20.552C47.0385 20.3093 47.5471 20.188 48.1445 20.188V21.504H47.8085C46.3805 21.504 45.6665 22.2787 45.6665 23.828V28H44.3925V20.328H45.6665V21.574ZM56.6151 23.87C56.6151 24.1127 56.6011 24.3693 56.5731 24.64H50.4411C50.4878 25.396 50.7444 25.9887 51.2111 26.418C51.6871 26.838 52.2611 27.048 52.9331 27.048C53.4838 27.048 53.9411 26.922 54.3051 26.67C54.6784 26.4087 54.9398 26.0633 55.0891 25.634H56.4611C56.2558 26.3713 55.8451 26.9733 55.2291 27.44C54.6131 27.8973 53.8478 28.126 52.9331 28.126C52.2051 28.126 51.5518 27.9627 50.9731 27.636C50.4038 27.3093 49.9558 26.8473 49.6291 26.25C49.3024 25.6433 49.1391 24.9433 49.1391 24.15C49.1391 23.3567 49.2978 22.6613 49.6151 22.064C49.9324 21.4667 50.3758 21.0093 50.9451 20.692C51.5238 20.3653 52.1864 20.202 52.9331 20.202C53.6611 20.202 54.3051 20.3607 54.8651 20.678C55.4251 20.9953 55.8544 21.434 56.1531 21.994C56.4611 22.5447 56.6151 23.17 56.6151 23.87ZM55.2991 23.604C55.2991 23.1187 55.1918 22.7033 54.9771 22.358C54.7624 22.0033 54.4684 21.7373 54.0951 21.56C53.7311 21.3733 53.3251 21.28 52.8771 21.28C52.2331 21.28 51.6824 21.4853 51.2251 21.896C50.7771 22.3067 50.5204 22.876 50.4551 23.604H55.2991ZM61.5532 24.136C61.5532 23.352 61.7118 22.666 62.0292 22.078C62.3465 21.4807 62.7805 21.0187 63.3312 20.692C63.8912 20.3653 64.5118 20.202 65.1932 20.202C65.8652 20.202 66.4485 20.3467 66.9432 20.636C67.4378 20.9253 67.8065 21.2893 68.0492 21.728V20.328H69.3372V28H68.0492V26.572C67.7972 27.02 67.4192 27.3933 66.9152 27.692C66.4205 27.9813 65.8418 28.126 65.1792 28.126C64.4978 28.126 63.8818 27.958 63.3312 27.622C62.7805 27.286 62.3465 26.8147 62.0292 26.208C61.7118 25.6013 61.5532 24.9107 61.5532 24.136ZM68.0492 24.15C68.0492 23.5713 67.9325 23.0673 67.6992 22.638C67.4658 22.2087 67.1485 21.882 66.7472 21.658C66.3552 21.4247 65.9212 21.308 65.4452 21.308C64.9692 21.308 64.5352 21.42 64.1432 21.644C63.7512 21.868 63.4385 22.1947 63.2052 22.624C62.9718 23.0533 62.8552 23.5573 62.8552 24.136C62.8552 24.724 62.9718 25.2373 63.2052 25.676C63.4385 26.1053 63.7512 26.4367 64.1432 26.67C64.5352 26.894 64.9692 27.006 65.4452 27.006C65.9212 27.006 66.3552 26.894 66.7472 26.67C67.1485 26.4367 67.4658 26.1053 67.6992 25.676C67.9325 25.2373 68.0492 24.7287 68.0492 24.15ZM73.0441 21.378V25.9C73.0441 26.2733 73.1234 26.5393 73.2821 26.698C73.4408 26.8473 73.7161 26.922 74.1081 26.922H75.0461V28H73.8981C73.1888 28 72.6568 27.8367 72.3021 27.51C71.9474 27.1833 71.7701 26.6467 71.7701 25.9V21.378H70.7761V20.328H71.7701V18.396H73.0441V20.328H75.0461V21.378H73.0441ZM79.8461 24.136C79.8461 23.352 80.0048 22.666 80.3221 22.078C80.6395 21.4807 81.0735 21.0187 81.6241 20.692C82.1841 20.3653 82.8048 20.202 83.4861 20.202C84.1581 20.202 84.7415 20.3467 85.2361 20.636C85.7308 20.9253 86.0995 21.2893 86.3421 21.728V20.328H87.6301V28H86.3421V26.572C86.0901 27.02 85.7121 27.3933 85.2081 27.692C84.7135 27.9813 84.1348 28.126 83.4721 28.126C82.7908 28.126 82.1748 27.958 81.6241 27.622C81.0735 27.286 80.6395 26.8147 80.3221 26.208C80.0048 25.6013 79.8461 24.9107 79.8461 24.136ZM86.3421 24.15C86.3421 23.5713 86.2255 23.0673 85.9921 22.638C85.7588 22.2087 85.4415 21.882 85.0401 21.658C84.6481 21.4247 84.2141 21.308 83.7381 21.308C83.2621 21.308 82.8281 21.42 82.4361 21.644C82.0441 21.868 81.7315 22.1947 81.4981 22.624C81.2648 23.0533 81.1481 23.5573 81.1481 24.136C81.1481 24.724 81.2648 25.2373 81.4981 25.676C81.7315 26.1053 82.0441 26.4367 82.4361 26.67C82.8281 26.894 83.2621 27.006 83.7381 27.006C84.2141 27.006 84.6481 26.894 85.0401 26.67C85.4415 26.4367 85.7588 26.1053 85.9921 25.676C86.2255 25.2373 86.3421 24.7287 86.3421 24.15ZM97.2535 20.188C98.1868 20.188 98.9428 20.4727 99.5215 21.042C100.1 21.602 100.39 22.414 100.39 23.478V28H99.1295V23.66C99.1295 22.8947 98.9382 22.3113 98.5555 21.91C98.1728 21.4993 97.6502 21.294 96.9875 21.294C96.3155 21.294 95.7788 21.504 95.3775 21.924C94.9855 22.344 94.7895 22.9553 94.7895 23.758V28H93.5155V20.328H94.7895V21.42C95.0415 21.028 95.3822 20.7247 95.8115 20.51C96.2502 20.2953 96.7308 20.188 97.2535 20.188ZM109.471 23.87C109.471 24.1127 109.457 24.3693 109.429 24.64H103.297C103.343 25.396 103.6 25.9887 104.067 26.418C104.543 26.838 105.117 27.048 105.789 27.048C106.339 27.048 106.797 26.922 107.161 26.67C107.534 26.4087 107.795 26.0633 107.945 25.634H109.317C109.111 26.3713 108.701 26.9733 108.085 27.44C107.469 27.8973 106.703 28.126 105.789 28.126C105.061 28.126 104.407 27.9627 103.829 27.636C103.259 27.3093 102.811 26.8473 102.485 26.25C102.158 25.6433 101.995 24.9433 101.995 24.15C101.995 23.3567 102.153 22.6613 102.471 22.064C102.788 21.4667 103.231 21.0093 103.801 20.692C104.379 20.3653 105.042 20.202 105.789 20.202C106.517 20.202 107.161 20.3607 107.721 20.678C108.281 20.9953 108.71 21.434 109.009 21.994C109.317 22.5447 109.471 23.17 109.471 23.87ZM108.155 23.604C108.155 23.1187 108.047 22.7033 107.833 22.358C107.618 22.0033 107.324 21.7373 106.951 21.56C106.587 21.3733 106.181 21.28 105.733 21.28C105.089 21.28 104.538 21.4853 104.081 21.896C103.633 22.3067 103.376 22.876 103.311 23.604H108.155ZM112.706 21.378V25.9C112.706 26.2733 112.786 26.5393 112.944 26.698C113.103 26.8473 113.378 26.922 113.77 26.922H114.708V28H113.56C112.851 28 112.319 27.8367 111.964 27.51C111.61 27.1833 111.432 26.6467 111.432 25.9V21.378H110.438V20.328H111.432V18.396H112.706V20.328H114.708V21.378H112.706ZM126.472 20.328L124.078 28H122.762L120.914 21.91L119.066 28H117.75L115.342 20.328H116.644L118.408 26.768L120.312 20.328H121.614L123.476 26.782L125.212 20.328H126.472ZM131.082 28.126C130.364 28.126 129.71 27.9627 129.122 27.636C128.544 27.3093 128.086 26.8473 127.75 26.25C127.424 25.6433 127.26 24.9433 127.26 24.15C127.26 23.366 127.428 22.6753 127.764 22.078C128.11 21.4713 128.576 21.0093 129.164 20.692C129.752 20.3653 130.41 20.202 131.138 20.202C131.866 20.202 132.524 20.3653 133.112 20.692C133.7 21.0093 134.162 21.4667 134.498 22.064C134.844 22.6613 135.016 23.3567 135.016 24.15C135.016 24.9433 134.839 25.6433 134.484 26.25C134.139 26.8473 133.668 27.3093 133.07 27.636C132.473 27.9627 131.81 28.126 131.082 28.126ZM131.082 27.006C131.54 27.006 131.969 26.8987 132.37 26.684C132.772 26.4693 133.094 26.1473 133.336 25.718C133.588 25.2887 133.714 24.766 133.714 24.15C133.714 23.534 133.593 23.0113 133.35 22.582C133.108 22.1527 132.79 21.8353 132.398 21.63C132.006 21.4153 131.582 21.308 131.124 21.308C130.658 21.308 130.228 21.4153 129.836 21.63C129.454 21.8353 129.146 22.1527 128.912 22.582C128.679 23.0113 128.562 23.534 128.562 24.15C128.562 24.7753 128.674 25.3027 128.898 25.732C129.132 26.1613 129.44 26.4833 129.822 26.698C130.205 26.9033 130.625 27.006 131.082 27.006ZM137.965 21.574C138.189 21.1353 138.507 20.7947 138.917 20.552C139.337 20.3093 139.846 20.188 140.443 20.188V21.504H140.107C138.679 21.504 137.965 22.2787 137.965 23.828V28H136.691V20.328H137.965V21.574ZM146.198 28L143.188 24.612V28H141.914V17.64H143.188V23.73L146.142 20.328H147.92L144.308 24.15L147.934 28H146.198ZM149.777 19.082C149.534 19.082 149.329 18.998 149.161 18.83C148.993 18.662 148.909 18.4567 148.909 18.214C148.909 17.9713 148.993 17.766 149.161 17.598C149.329 17.43 149.534 17.346 149.777 17.346C150.01 17.346 150.206 17.43 150.365 17.598C150.533 17.766 150.617 17.9713 150.617 18.214C150.617 18.4567 150.533 18.662 150.365 18.83C150.206 18.998 150.01 19.082 149.777 19.082ZM150.393 20.328V28H149.119V20.328H150.393ZM156.302 20.188C157.236 20.188 157.992 20.4727 158.57 21.042C159.149 21.602 159.438 22.414 159.438 23.478V28H158.178V23.66C158.178 22.8947 157.987 22.3113 157.604 21.91C157.222 21.4993 156.699 21.294 156.036 21.294C155.364 21.294 154.828 21.504 154.426 21.924C154.034 22.344 153.838 22.9553 153.838 23.758V28H152.564V20.328H153.838V21.42C154.09 21.028 154.431 20.7247 154.86 20.51C155.299 20.2953 155.78 20.188 156.302 20.188ZM164.683 20.202C165.346 20.202 165.925 20.3467 166.419 20.636C166.923 20.9253 167.297 21.2893 167.539 21.728V20.328H168.827V28.168C168.827 28.868 168.678 29.4887 168.379 30.03C168.081 30.5807 167.651 31.01 167.091 31.318C166.541 31.626 165.897 31.78 165.159 31.78C164.151 31.78 163.311 31.542 162.639 31.066C161.967 30.59 161.571 29.9413 161.449 29.12H162.709C162.849 29.5867 163.139 29.96 163.577 30.24C164.016 30.5293 164.543 30.674 165.159 30.674C165.859 30.674 166.429 30.4547 166.867 30.016C167.315 29.5773 167.539 28.9613 167.539 28.168V26.558C167.287 27.006 166.914 27.3793 166.419 27.678C165.925 27.9767 165.346 28.126 164.683 28.126C164.002 28.126 163.381 27.958 162.821 27.622C162.271 27.286 161.837 26.8147 161.519 26.208C161.202 25.6013 161.043 24.9107 161.043 24.136C161.043 23.352 161.202 22.666 161.519 22.078C161.837 21.4807 162.271 21.0187 162.821 20.692C163.381 20.3653 164.002 20.202 164.683 20.202ZM167.539 24.15C167.539 23.5713 167.423 23.0673 167.189 22.638C166.956 22.2087 166.639 21.882 166.237 21.658C165.845 21.4247 165.411 21.308 164.935 21.308C164.459 21.308 164.025 21.42 163.633 21.644C163.241 21.868 162.929 22.1947 162.695 22.624C162.462 23.0533 162.345 23.5573 162.345 24.136C162.345 24.724 162.462 25.2373 162.695 25.676C162.929 26.1053 163.241 26.4367 163.633 26.67C164.025 26.894 164.459 27.006 164.935 27.006C165.411 27.006 165.845 26.894 166.237 26.67C166.639 26.4367 166.956 26.1053 167.189 25.676C167.423 25.2373 167.539 24.7287 167.539 24.15ZM181.713 23.87C181.713 24.1127 181.699 24.3693 181.671 24.64H175.539C175.585 25.396 175.842 25.9887 176.309 26.418C176.785 26.838 177.359 27.048 178.031 27.048C178.581 27.048 179.039 26.922 179.403 26.67C179.776 26.4087 180.037 26.0633 180.187 25.634H181.559C181.353 26.3713 180.943 26.9733 180.327 27.44C179.711 27.8973 178.945 28.126 178.031 28.126C177.303 28.126 176.649 27.9627 176.071 27.636C175.501 27.3093 175.053 26.8473 174.727 26.25C174.4 25.6433 174.237 24.9433 174.237 24.15C174.237 23.3567 174.395 22.6613 174.713 22.064C175.03 21.4667 175.473 21.0093 176.043 20.692C176.621 20.3653 177.284 20.202 178.031 20.202C178.759 20.202 179.403 20.3607 179.963 20.678C180.523 20.9953 180.952 21.434 181.251 21.994C181.559 22.5447 181.713 23.17 181.713 23.87ZM180.397 23.604C180.397 23.1187 180.289 22.7033 180.075 22.358C179.86 22.0033 179.566 21.7373 179.193 21.56C178.829 21.3733 178.423 21.28 177.975 21.28C177.331 21.28 176.78 21.4853 176.323 21.896C175.875 22.3067 175.618 22.876 175.553 23.604H180.397ZM186.25 26.824L188.63 20.328H189.988L186.978 28H185.494L182.484 20.328H183.856L186.25 26.824ZM198.242 23.87C198.242 24.1127 198.228 24.3693 198.2 24.64H192.068C192.115 25.396 192.371 25.9887 192.838 26.418C193.314 26.838 193.888 27.048 194.56 27.048C195.111 27.048 195.568 26.922 195.932 26.67C196.305 26.4087 196.567 26.0633 196.716 25.634H198.088C197.883 26.3713 197.472 26.9733 196.856 27.44C196.24 27.8973 195.475 28.126 194.56 28.126C193.832 28.126 193.179 27.9627 192.6 27.636C192.031 27.3093 191.583 26.8473 191.256 26.25C190.929 25.6433 190.766 24.9433 190.766 24.15C190.766 23.3567 190.925 22.6613 191.242 22.064C191.559 21.4667 192.003 21.0093 192.572 20.692C193.151 20.3653 193.813 20.202 194.56 20.202C195.288 20.202 195.932 20.3607 196.492 20.678C197.052 20.9953 197.481 21.434 197.78 21.994C198.088 22.5447 198.242 23.17 198.242 23.87ZM196.926 23.604C196.926 23.1187 196.819 22.7033 196.604 22.358C196.389 22.0033 196.095 21.7373 195.722 21.56C195.358 21.3733 194.952 21.28 194.504 21.28C193.86 21.28 193.309 21.4853 192.852 21.896C192.404 22.3067 192.147 22.876 192.082 23.604H196.926ZM203.662 20.188C204.595 20.188 205.351 20.4727 205.93 21.042C206.508 21.602 206.798 22.414 206.798 23.478V28H205.538V23.66C205.538 22.8947 205.346 22.3113 204.964 21.91C204.581 21.4993 204.058 21.294 203.396 21.294C202.724 21.294 202.187 21.504 201.786 21.924C201.394 22.344 201.198 22.9553 201.198 23.758V28H199.924V20.328H201.198V21.42C201.45 21.028 201.79 20.7247 202.22 20.51C202.658 20.2953 203.139 20.188 203.662 20.188ZM210.433 21.378V25.9C210.433 26.2733 210.512 26.5393 210.671 26.698C210.829 26.8473 211.105 26.922 211.497 26.922H212.435V28H211.287C210.577 28 210.045 27.8367 209.691 27.51C209.336 27.1833 209.159 26.6467 209.159 25.9V21.378H208.165V20.328H209.159V18.396H210.433V20.328H212.435V21.378H210.433ZM18.794 49.126C18.206 49.126 17.6787 49.028 17.212 48.832C16.7453 48.6267 16.3767 48.3467 16.106 47.992C15.8353 47.628 15.686 47.2127 15.658 46.746H16.974C17.0113 47.1287 17.1887 47.4413 17.506 47.684C17.8327 47.9267 18.2573 48.048 18.78 48.048C19.2653 48.048 19.648 47.9407 19.928 47.726C20.208 47.5113 20.348 47.2407 20.348 46.914C20.348 46.578 20.1987 46.3307 19.9 46.172C19.6013 46.004 19.1393 45.8407 18.514 45.682C17.9447 45.5327 17.478 45.3833 17.114 45.234C16.7593 45.0753 16.4513 44.8467 16.19 44.548C15.938 44.24 15.812 43.8387 15.812 43.344C15.812 42.952 15.9287 42.5927 16.162 42.266C16.3953 41.9393 16.7267 41.6827 17.156 41.496C17.5853 41.3 18.0753 41.202 18.626 41.202C19.4753 41.202 20.1613 41.4167 20.684 41.846C21.2067 42.2753 21.4867 42.8633 21.524 43.61H20.25C20.222 43.2087 20.0587 42.8867 19.76 42.644C19.4707 42.4013 19.0787 42.28 18.584 42.28C18.1267 42.28 17.7627 42.378 17.492 42.574C17.2213 42.77 17.086 43.0267 17.086 43.344C17.086 43.596 17.1653 43.806 17.324 43.974C17.492 44.1327 17.6973 44.2633 17.94 44.366C18.192 44.4593 18.5373 44.5667 18.976 44.688C19.5267 44.8373 19.9747 44.9867 20.32 45.136C20.6653 45.276 20.9593 45.4907 21.202 45.78C21.454 46.0693 21.5847 46.4473 21.594 46.914C21.594 47.334 21.4773 47.712 21.244 48.048C21.0107 48.384 20.6793 48.65 20.25 48.846C19.83 49.0327 19.3447 49.126 18.794 49.126ZM30.1965 41.328V49H28.9225V47.866C28.6798 48.258 28.3391 48.566 27.9005 48.79C27.4711 49.0047 26.9951 49.112 26.4725 49.112C25.8751 49.112 25.3385 48.9907 24.8625 48.748C24.3865 48.496 24.0085 48.1227 23.7285 47.628C23.4578 47.1333 23.3225 46.5313 23.3225 45.822V41.328H24.5825V45.654C24.5825 46.41 24.7738 46.9933 25.1565 47.404C25.5391 47.8053 26.0618 48.006 26.7245 48.006C27.4058 48.006 27.9425 47.796 28.3345 47.376C28.7265 46.956 28.9225 46.3447 28.9225 45.542V41.328H30.1965ZM33.6215 42.574C33.8455 42.1353 34.1629 41.7947 34.5735 41.552C34.9935 41.3093 35.5022 41.188 36.0995 41.188V42.504H35.7635C34.3355 42.504 33.6215 43.2787 33.6215 44.828V49H32.3475V41.328H33.6215V42.574ZM38.8442 42.574C39.0682 42.1353 39.3855 41.7947 39.7962 41.552C40.2162 41.3093 40.7249 41.188 41.3222 41.188V42.504H40.9862C39.5582 42.504 38.8442 43.2787 38.8442 44.828V49H37.5702V41.328H38.8442V42.574ZM46.1388 49.126C45.4202 49.126 44.7668 48.9627 44.1788 48.636C43.6002 48.3093 43.1428 47.8473 42.8068 47.25C42.4802 46.6433 42.3168 45.9433 42.3168 45.15C42.3168 44.366 42.4848 43.6753 42.8208 43.078C43.1662 42.4713 43.6328 42.0093 44.2208 41.692C44.8088 41.3653 45.4668 41.202 46.1948 41.202C46.9228 41.202 47.5808 41.3653 48.1688 41.692C48.7568 42.0093 49.2188 42.4667 49.5548 43.064C49.9002 43.6613 50.0728 44.3567 50.0728 45.15C50.0728 45.9433 49.8955 46.6433 49.5408 47.25C49.1955 47.8473 48.7242 48.3093 48.1268 48.636C47.5295 48.9627 46.8668 49.126 46.1388 49.126ZM46.1388 48.006C46.5962 48.006 47.0255 47.8987 47.4268 47.684C47.8282 47.4693 48.1502 47.1473 48.3928 46.718C48.6448 46.2887 48.7708 45.766 48.7708 45.15C48.7708 44.534 48.6495 44.0113 48.4068 43.582C48.1642 43.1527 47.8468 42.8353 47.4548 42.63C47.0628 42.4153 46.6382 42.308 46.1808 42.308C45.7142 42.308 45.2848 42.4153 44.8928 42.63C44.5102 42.8353 44.2022 43.1527 43.9688 43.582C43.7355 44.0113 43.6188 44.534 43.6188 45.15C43.6188 45.7753 43.7308 46.3027 43.9548 46.732C44.1882 47.1613 44.4962 47.4833 44.8788 47.698C45.2615 47.9033 45.6815 48.006 46.1388 48.006ZM58.5519 41.328V49H57.2779V47.866C57.0353 48.258 56.6946 48.566 56.2559 48.79C55.8266 49.0047 55.3506 49.112 54.8279 49.112C54.2306 49.112 53.6939 48.9907 53.2179 48.748C52.7419 48.496 52.3639 48.1227 52.0839 47.628C51.8133 47.1333 51.6779 46.5313 51.6779 45.822V41.328H52.9379V45.654C52.9379 46.41 53.1293 46.9933 53.5119 47.404C53.8946 47.8053 54.4173 48.006 55.0799 48.006C55.7613 48.006 56.2979 47.796 56.6899 47.376C57.0819 46.956 57.2779 46.3447 57.2779 45.542V41.328H58.5519ZM64.441 41.188C65.3743 41.188 66.1303 41.4727 66.709 42.042C67.2877 42.602 67.577 43.414 67.577 44.478V49H66.317V44.66C66.317 43.8947 66.1257 43.3113 65.743 42.91C65.3603 42.4993 64.8377 42.294 64.175 42.294C63.503 42.294 62.9663 42.504 62.565 42.924C62.173 43.344 61.977 43.9553 61.977 44.758V49H60.703V41.328H61.977V42.42C62.229 42.028 62.5697 41.7247 62.999 41.51C63.4377 41.2953 63.9183 41.188 64.441 41.188ZM69.1821 45.136C69.1821 44.352 69.3407 43.666 69.6581 43.078C69.9754 42.4807 70.4094 42.0187 70.9601 41.692C71.5201 41.3653 72.1454 41.202 72.8361 41.202C73.4334 41.202 73.9887 41.342 74.5021 41.622C75.0154 41.8927 75.4074 42.252 75.6781 42.7V38.64H76.9661V49H75.6781V47.558C75.4261 48.0153 75.0527 48.3933 74.5581 48.692C74.0634 48.9813 73.4847 49.126 72.8221 49.126C72.1407 49.126 71.5201 48.958 70.9601 48.622C70.4094 48.286 69.9754 47.8147 69.6581 47.208C69.3407 46.6013 69.1821 45.9107 69.1821 45.136ZM75.6781 45.15C75.6781 44.5713 75.5614 44.0673 75.3281 43.638C75.0947 43.2087 74.7774 42.882 74.3761 42.658C73.9841 42.4247 73.5501 42.308 73.0741 42.308C72.5981 42.308 72.1641 42.42 71.7721 42.644C71.3801 42.868 71.0674 43.1947 70.8341 43.624C70.6007 44.0533 70.4841 44.5573 70.4841 45.136C70.4841 45.724 70.6007 46.2373 70.8341 46.676C71.0674 47.1053 71.3801 47.4367 71.7721 47.67C72.1641 47.894 72.5981 48.006 73.0741 48.006C73.5501 48.006 73.9841 47.894 74.3761 47.67C74.7774 47.4367 75.0947 47.1053 75.3281 46.676C75.5614 46.2373 75.6781 45.7287 75.6781 45.15ZM86.119 44.87C86.119 45.1127 86.105 45.3693 86.077 45.64H79.945C79.9917 46.396 80.2483 46.9887 80.715 47.418C81.191 47.838 81.765 48.048 82.437 48.048C82.9877 48.048 83.445 47.922 83.809 47.67C84.1823 47.4087 84.4437 47.0633 84.593 46.634H85.965C85.7597 47.3713 85.349 47.9733 84.733 48.44C84.117 48.8973 83.3517 49.126 82.437 49.126C81.709 49.126 81.0557 48.9627 80.477 48.636C79.9077 48.3093 79.4597 47.8473 79.133 47.25C78.8063 46.6433 78.643 45.9433 78.643 45.15C78.643 44.3567 78.8017 43.6613 79.119 43.064C79.4363 42.4667 79.8797 42.0093 80.449 41.692C81.0277 41.3653 81.6903 41.202 82.437 41.202C83.165 41.202 83.809 41.3607 84.369 41.678C84.929 41.9953 85.3583 42.434 85.657 42.994C85.965 43.5447 86.119 44.17 86.119 44.87ZM84.803 44.604C84.803 44.1187 84.6957 43.7033 84.481 43.358C84.2663 43.0033 83.9723 42.7373 83.599 42.56C83.235 42.3733 82.829 42.28 82.381 42.28C81.737 42.28 81.1863 42.4853 80.729 42.896C80.281 43.3067 80.0243 43.876 79.959 44.604H84.803ZM87.3247 45.136C87.3247 44.352 87.4833 43.666 87.8007 43.078C88.118 42.4807 88.552 42.0187 89.1027 41.692C89.6627 41.3653 90.288 41.202 90.9787 41.202C91.576 41.202 92.1313 41.342 92.6447 41.622C93.158 41.8927 93.55 42.252 93.8207 42.7V38.64H95.1087V49H93.8207V47.558C93.5687 48.0153 93.1953 48.3933 92.7007 48.692C92.206 48.9813 91.6273 49.126 90.9647 49.126C90.2833 49.126 89.6627 48.958 89.1027 48.622C88.552 48.286 88.118 47.8147 87.8007 47.208C87.4833 46.6013 87.3247 45.9107 87.3247 45.136ZM93.8207 45.15C93.8207 44.5713 93.704 44.0673 93.4707 43.638C93.2373 43.2087 92.92 42.882 92.5187 42.658C92.1267 42.4247 91.6927 42.308 91.2167 42.308C90.7407 42.308 90.3067 42.42 89.9147 42.644C89.5227 42.868 89.21 43.1947 88.9767 43.624C88.7433 44.0533 88.6267 44.5573 88.6267 45.136C88.6267 45.724 88.7433 46.2373 88.9767 46.676C89.21 47.1053 89.5227 47.4367 89.9147 47.67C90.3067 47.894 90.7407 48.006 91.2167 48.006C91.6927 48.006 92.1267 47.894 92.5187 47.67C92.92 47.4367 93.2373 47.1053 93.4707 46.676C93.704 46.2373 93.8207 45.7287 93.8207 45.15ZM102.268 42.756C102.529 42.2987 102.912 41.9253 103.416 41.636C103.92 41.3467 104.494 41.202 105.138 41.202C105.829 41.202 106.449 41.3653 107 41.692C107.551 42.0187 107.985 42.4807 108.302 43.078C108.619 43.666 108.778 44.352 108.778 45.136C108.778 45.9107 108.619 46.6013 108.302 47.208C107.985 47.8147 107.546 48.286 106.986 48.622C106.435 48.958 105.819 49.126 105.138 49.126C104.475 49.126 103.892 48.9813 103.388 48.692C102.893 48.4027 102.52 48.034 102.268 47.586V49H100.994V38.64H102.268V42.756ZM107.476 45.136C107.476 44.5573 107.359 44.0533 107.126 43.624C106.893 43.1947 106.575 42.868 106.174 42.644C105.782 42.42 105.348 42.308 104.872 42.308C104.405 42.308 103.971 42.4247 103.57 42.658C103.178 42.882 102.861 43.2133 102.618 43.652C102.385 44.0813 102.268 44.5807 102.268 45.15C102.268 45.7287 102.385 46.2373 102.618 46.676C102.861 47.1053 103.178 47.4367 103.57 47.67C103.971 47.894 104.405 48.006 104.872 48.006C105.348 48.006 105.782 47.894 106.174 47.67C106.575 47.4367 106.893 47.1053 107.126 46.676C107.359 46.2373 107.476 45.724 107.476 45.136ZM117.063 41.328L112.443 52.612H111.127L112.639 48.916L109.545 41.328H110.959L113.367 47.544L115.747 41.328H117.063ZM125.814 41.188C126.747 41.188 127.503 41.4727 128.082 42.042C128.661 42.602 128.95 43.414 128.95 44.478V49H127.69V44.66C127.69 43.8947 127.499 43.3113 127.116 42.91C126.733 42.4993 126.211 42.294 125.548 42.294C124.876 42.294 124.339 42.504 123.938 42.924C123.546 43.344 123.35 43.9553 123.35 44.758V49H122.076V41.328H123.35V42.42C123.602 42.028 123.943 41.7247 124.372 41.51C124.811 41.2953 125.291 41.188 125.814 41.188ZM138.031 44.87C138.031 45.1127 138.017 45.3693 137.989 45.64H131.857C131.904 46.396 132.16 46.9887 132.627 47.418C133.103 47.838 133.677 48.048 134.349 48.048C134.9 48.048 135.357 47.922 135.721 47.67C136.094 47.4087 136.356 47.0633 136.505 46.634H137.877C137.672 47.3713 137.261 47.9733 136.645 48.44C136.029 48.8973 135.264 49.126 134.349 49.126C133.621 49.126 132.968 48.9627 132.389 48.636C131.82 48.3093 131.372 47.8473 131.045 47.25C130.718 46.6433 130.555 45.9433 130.555 45.15C130.555 44.3567 130.714 43.6613 131.031 43.064C131.348 42.4667 131.792 42.0093 132.361 41.692C132.94 41.3653 133.602 41.202 134.349 41.202C135.077 41.202 135.721 41.3607 136.281 41.678C136.841 41.9953 137.27 42.434 137.569 42.994C137.877 43.5447 138.031 44.17 138.031 44.87ZM136.715 44.604C136.715 44.1187 136.608 43.7033 136.393 43.358C136.178 43.0033 135.884 42.7373 135.511 42.56C135.147 42.3733 134.741 42.28 134.293 42.28C133.649 42.28 133.098 42.4853 132.641 42.896C132.193 43.3067 131.936 43.876 131.871 44.604H136.715ZM149.933 41.328L147.539 49H146.223L144.375 42.91L142.527 49H141.211L138.803 41.328H140.105L141.869 47.768L143.773 41.328H145.075L146.937 47.782L148.673 41.328H149.933ZM158.052 42.378H156.442V49H155.168V42.378H154.174V41.328H155.168V40.782C155.168 39.9233 155.387 39.298 155.826 38.906C156.274 38.5047 156.988 38.304 157.968 38.304V39.368C157.408 39.368 157.011 39.48 156.778 39.704C156.554 39.9187 156.442 40.278 156.442 40.782V41.328H158.052V42.378ZM159.061 45.136C159.061 44.352 159.22 43.666 159.537 43.078C159.854 42.4807 160.288 42.0187 160.839 41.692C161.399 41.3653 162.02 41.202 162.701 41.202C163.373 41.202 163.956 41.3467 164.451 41.636C164.946 41.9253 165.314 42.2893 165.557 42.728V41.328H166.845V49H165.557V47.572C165.305 48.02 164.927 48.3933 164.423 48.692C163.928 48.9813 163.35 49.126 162.687 49.126C162.006 49.126 161.39 48.958 160.839 48.622C160.288 48.286 159.854 47.8147 159.537 47.208C159.22 46.6013 159.061 45.9107 159.061 45.136ZM165.557 45.15C165.557 44.5713 165.44 44.0673 165.207 43.638C164.974 43.2087 164.656 42.882 164.255 42.658C163.863 42.4247 163.429 42.308 162.953 42.308C162.477 42.308 162.043 42.42 161.651 42.644C161.259 42.868 160.946 43.1947 160.713 43.624C160.48 44.0533 160.363 44.5573 160.363 45.136C160.363 45.724 160.48 46.2373 160.713 46.676C160.946 47.1053 161.259 47.4367 161.651 47.67C162.043 47.894 162.477 48.006 162.953 48.006C163.429 48.006 163.863 47.894 164.255 47.67C164.656 47.4367 164.974 47.1053 165.207 46.676C165.44 46.2373 165.557 45.7287 165.557 45.15ZM168.522 45.15C168.522 44.3567 168.681 43.666 168.998 43.078C169.315 42.4807 169.754 42.0187 170.314 41.692C170.883 41.3653 171.532 41.202 172.26 41.202C173.203 41.202 173.977 41.4307 174.584 41.888C175.2 42.3453 175.606 42.98 175.802 43.792H174.43C174.299 43.3253 174.043 42.9567 173.66 42.686C173.287 42.4153 172.82 42.28 172.26 42.28C171.532 42.28 170.944 42.532 170.496 43.036C170.048 43.5307 169.824 44.2353 169.824 45.15C169.824 46.074 170.048 46.788 170.496 47.292C170.944 47.796 171.532 48.048 172.26 48.048C172.82 48.048 173.287 47.9173 173.66 47.656C174.033 47.3947 174.29 47.0213 174.43 46.536H175.802C175.597 47.32 175.186 47.95 174.57 48.426C173.954 48.8927 173.184 49.126 172.26 49.126C171.532 49.126 170.883 48.9627 170.314 48.636C169.754 48.3093 169.315 47.8473 168.998 47.25C168.681 46.6527 168.522 45.9527 168.522 45.15ZM184.502 44.87C184.502 45.1127 184.488 45.3693 184.46 45.64H178.328C178.374 46.396 178.631 46.9887 179.098 47.418C179.574 47.838 180.148 48.048 180.82 48.048C181.37 48.048 181.828 47.922 182.192 47.67C182.565 47.4087 182.826 47.0633 182.976 46.634H184.348C184.142 47.3713 183.732 47.9733 183.116 48.44C182.5 48.8973 181.734 49.126 180.82 49.126C180.092 49.126 179.438 48.9627 178.86 48.636C178.29 48.3093 177.842 47.8473 177.516 47.25C177.189 46.6433 177.026 45.9433 177.026 45.15C177.026 44.3567 177.184 43.6613 177.502 43.064C177.819 42.4667 178.262 42.0093 178.832 41.692C179.41 41.3653 180.073 41.202 180.82 41.202C181.548 41.202 182.192 41.3607 182.752 41.678C183.312 41.9953 183.741 42.434 184.04 42.994C184.348 43.5447 184.502 44.17 184.502 44.87ZM183.186 44.604C183.186 44.1187 183.078 43.7033 182.864 43.358C182.649 43.0033 182.355 42.7373 181.982 42.56C181.618 42.3733 181.212 42.28 180.764 42.28C180.12 42.28 179.569 42.4853 179.112 42.896C178.664 43.3067 178.407 43.876 178.342 44.604H183.186ZM188.899 49.126C188.311 49.126 187.784 49.028 187.317 48.832C186.851 48.6267 186.482 48.3467 186.211 47.992C185.941 47.628 185.791 47.2127 185.763 46.746H187.079C187.117 47.1287 187.294 47.4413 187.611 47.684C187.938 47.9267 188.363 48.048 188.885 48.048C189.371 48.048 189.753 47.9407 190.033 47.726C190.313 47.5113 190.453 47.2407 190.453 46.914C190.453 46.578 190.304 46.3307 190.005 46.172C189.707 46.004 189.245 45.8407 188.619 45.682C188.05 45.5327 187.583 45.3833 187.219 45.234C186.865 45.0753 186.557 44.8467 186.295 44.548C186.043 44.24 185.917 43.8387 185.917 43.344C185.917 42.952 186.034 42.5927 186.267 42.266C186.501 41.9393 186.832 41.6827 187.261 41.496C187.691 41.3 188.181 41.202 188.731 41.202C189.581 41.202 190.267 41.4167 190.789 41.846C191.312 42.2753 191.592 42.8633 191.629 43.61H190.355C190.327 43.2087 190.164 42.8867 189.865 42.644C189.576 42.4013 189.184 42.28 188.689 42.28C188.232 42.28 187.868 42.378 187.597 42.574C187.327 42.77 187.191 43.0267 187.191 43.344C187.191 43.596 187.271 43.806 187.429 43.974C187.597 44.1327 187.803 44.2633 188.045 44.366C188.297 44.4593 188.643 44.5667 189.081 44.688C189.632 44.8373 190.08 44.9867 190.425 45.136C190.771 45.276 191.065 45.4907 191.307 45.78C191.559 46.0693 191.69 46.4473 191.699 46.914C191.699 47.334 191.583 47.712 191.349 48.048C191.116 48.384 190.785 48.65 190.355 48.846C189.935 49.0327 189.45 49.126 188.899 49.126ZM193.904 49.084C193.661 49.084 193.456 49 193.288 48.832C193.12 48.664 193.036 48.4587 193.036 48.216C193.036 47.9733 193.12 47.768 193.288 47.6C193.456 47.432 193.661 47.348 193.904 47.348C194.137 47.348 194.333 47.432 194.492 47.6C194.66 47.768 194.744 47.9733 194.744 48.216C194.744 48.4587 194.66 48.664 194.492 48.832C194.333 49 194.137 49.084 193.904 49.084ZM23.596 60.242V70H22.322V65.576H17.352V70H16.078V60.242H17.352V64.526H22.322V60.242H23.596ZM29.1174 70.126C28.3987 70.126 27.7454 69.9627 27.1574 69.636C26.5787 69.3093 26.1214 68.8473 25.7854 68.25C25.4587 67.6433 25.2954 66.9433 25.2954 66.15C25.2954 65.366 25.4634 64.6753 25.7994 64.078C26.1447 63.4713 26.6114 63.0093 27.1994 62.692C27.7874 62.3653 28.4454 62.202 29.1734 62.202C29.9014 62.202 30.5594 62.3653 31.1474 62.692C31.7354 63.0093 32.1974 63.4667 32.5334 64.064C32.8787 64.6613 33.0514 65.3567 33.0514 66.15C33.0514 66.9433 32.874 67.6433 32.5194 68.25C32.174 68.8473 31.7027 69.3093 31.1054 69.636C30.508 69.9627 29.8454 70.126 29.1174 70.126ZM29.1174 69.006C29.5747 69.006 30.004 68.8987 30.4054 68.684C30.8067 68.4693 31.1287 68.1473 31.3714 67.718C31.6234 67.2887 31.7494 66.766 31.7494 66.15C31.7494 65.534 31.628 65.0113 31.3854 64.582C31.1427 64.1527 30.8254 63.8353 30.4334 63.63C30.0414 63.4153 29.6167 63.308 29.1594 63.308C28.6927 63.308 28.2634 63.4153 27.8714 63.63C27.4887 63.8353 27.1807 64.1527 26.9474 64.582C26.714 65.0113 26.5974 65.534 26.5974 66.15C26.5974 66.7753 26.7094 67.3027 26.9334 67.732C27.1667 68.1613 27.4747 68.4833 27.8574 68.698C28.24 68.9033 28.66 69.006 29.1174 69.006ZM44.9464 62.328L42.5524 70H41.2364L39.3884 63.91L37.5404 70H36.2244L33.8164 62.328H35.1184L36.8824 68.768L38.7864 62.328H40.0884L41.9504 68.782L43.6864 62.328H44.9464ZM49.4672 66.136C49.4672 65.352 49.6259 64.666 49.9432 64.078C50.2606 63.4807 50.6946 63.0187 51.2452 62.692C51.8052 62.3653 52.4306 62.202 53.1212 62.202C53.7186 62.202 54.2739 62.342 54.7872 62.622C55.3006 62.8927 55.6926 63.252 55.9632 63.7V59.64H57.2512V70H55.9632V68.558C55.7112 69.0153 55.3379 69.3933 54.8432 69.692C54.3486 69.9813 53.7699 70.126 53.1072 70.126C52.4259 70.126 51.8052 69.958 51.2452 69.622C50.6946 69.286 50.2606 68.8147 49.9432 68.208C49.6259 67.6013 49.4672 66.9107 49.4672 66.136ZM55.9632 66.15C55.9632 65.5713 55.8466 65.0673 55.6132 64.638C55.3799 64.2087 55.0626 63.882 54.6612 63.658C54.2692 63.4247 53.8352 63.308 53.3592 63.308C52.8832 63.308 52.4492 63.42 52.0572 63.644C51.6652 63.868 51.3526 64.1947 51.1192 64.624C50.8859 65.0533 50.7692 65.5573 50.7692 66.136C50.7692 66.724 50.8859 67.2373 51.1192 67.676C51.3526 68.1053 51.6652 68.4367 52.0572 68.67C52.4492 68.894 52.8832 69.006 53.3592 69.006C53.8352 69.006 54.2692 68.894 54.6612 68.67C55.0626 68.4367 55.3799 68.1053 55.6132 67.676C55.8466 67.2373 55.9632 66.7287 55.9632 66.15ZM62.7502 70.126C62.0315 70.126 61.3782 69.9627 60.7902 69.636C60.2115 69.3093 59.7542 68.8473 59.4182 68.25C59.0915 67.6433 58.9282 66.9433 58.9282 66.15C58.9282 65.366 59.0962 64.6753 59.4322 64.078C59.7775 63.4713 60.2442 63.0093 60.8322 62.692C61.4202 62.3653 62.0782 62.202 62.8062 62.202C63.5342 62.202 64.1922 62.3653 64.7802 62.692C65.3682 63.0093 65.8302 63.4667 66.1662 64.064C66.5115 64.6613 66.6842 65.3567 66.6842 66.15C66.6842 66.9433 66.5068 67.6433 66.1522 68.25C65.8068 68.8473 65.3355 69.3093 64.7382 69.636C64.1408 69.9627 63.4782 70.126 62.7502 70.126ZM62.7502 69.006C63.2075 69.006 63.6368 68.8987 64.0382 68.684C64.4395 68.4693 64.7615 68.1473 65.0042 67.718C65.2562 67.2887 65.3822 66.766 65.3822 66.15C65.3822 65.534 65.2608 65.0113 65.0182 64.582C64.7755 64.1527 64.4582 63.8353 64.0662 63.63C63.6742 63.4153 63.2495 63.308 62.7922 63.308C62.3255 63.308 61.8962 63.4153 61.5042 63.63C61.1215 63.8353 60.8135 64.1527 60.5802 64.582C60.3468 65.0113 60.2302 65.534 60.2302 66.15C60.2302 66.7753 60.3422 67.3027 60.5662 67.732C60.7995 68.1613 61.1075 68.4833 61.4902 68.698C61.8728 68.9033 62.2928 69.006 62.7502 69.006ZM78.6997 62.328L74.0797 73.612H72.7637L74.2757 69.916L71.1817 62.328H72.5957L75.0037 68.544L77.3837 62.328H78.6997ZM83.3263 70.126C82.6077 70.126 81.9543 69.9627 81.3663 69.636C80.7877 69.3093 80.3303 68.8473 79.9943 68.25C79.6677 67.6433 79.5043 66.9433 79.5043 66.15C79.5043 65.366 79.6723 64.6753 80.0083 64.078C80.3537 63.4713 80.8203 63.0093 81.4083 62.692C81.9963 62.3653 82.6543 62.202 83.3823 62.202C84.1103 62.202 84.7683 62.3653 85.3563 62.692C85.9443 63.0093 86.4063 63.4667 86.7423 64.064C87.0877 64.6613 87.2603 65.3567 87.2603 66.15C87.2603 66.9433 87.083 67.6433 86.7283 68.25C86.383 68.8473 85.9117 69.3093 85.3143 69.636C84.717 69.9627 84.0543 70.126 83.3263 70.126ZM83.3263 69.006C83.7837 69.006 84.213 68.8987 84.6143 68.684C85.0157 68.4693 85.3377 68.1473 85.5803 67.718C85.8323 67.2887 85.9583 66.766 85.9583 66.15C85.9583 65.534 85.837 65.0113 85.5943 64.582C85.3517 64.1527 85.0343 63.8353 84.6423 63.63C84.2503 63.4153 83.8257 63.308 83.3683 63.308C82.9017 63.308 82.4723 63.4153 82.0803 63.63C81.6977 63.8353 81.3897 64.1527 81.1563 64.582C80.923 65.0113 80.8063 65.534 80.8063 66.15C80.8063 66.7753 80.9183 67.3027 81.1423 67.732C81.3757 68.1613 81.6837 68.4833 82.0663 68.698C82.449 68.9033 82.869 69.006 83.3263 69.006ZM95.7394 62.328V70H94.4654V68.866C94.2228 69.258 93.8821 69.566 93.4434 69.79C93.0141 70.0047 92.5381 70.112 92.0154 70.112C91.4181 70.112 90.8814 69.9907 90.4054 69.748C89.9294 69.496 89.5514 69.1227 89.2714 68.628C89.0008 68.1333 88.8654 67.5313 88.8654 66.822V62.328H90.1254V66.654C90.1254 67.41 90.3168 67.9933 90.6994 68.404C91.0821 68.8053 91.6048 69.006 92.2674 69.006C92.9488 69.006 93.4854 68.796 93.8774 68.376C94.2694 67.956 94.4654 67.3447 94.4654 66.542V62.328H95.7394ZM104.745 63.378H103.135V70H101.861V63.378H100.867V62.328H101.861V61.782C101.861 60.9233 102.08 60.298 102.519 59.906C102.967 59.5047 103.681 59.304 104.661 59.304V60.368C104.101 60.368 103.704 60.48 103.471 60.704C103.247 60.9187 103.135 61.278 103.135 61.782V62.328H104.745V63.378ZM113.23 65.87C113.23 66.1127 113.216 66.3693 113.188 66.64H107.056C107.103 67.396 107.36 67.9887 107.826 68.418C108.302 68.838 108.876 69.048 109.548 69.048C110.099 69.048 110.556 68.922 110.92 68.67C111.294 68.4087 111.555 68.0633 111.704 67.634H113.076C112.871 68.3713 112.46 68.9733 111.844 69.44C111.228 69.8973 110.463 70.126 109.548 70.126C108.82 70.126 108.167 69.9627 107.588 69.636C107.019 69.3093 106.571 68.8473 106.244 68.25C105.918 67.6433 105.754 66.9433 105.754 66.15C105.754 65.3567 105.913 64.6613 106.23 64.064C106.548 63.4667 106.991 63.0093 107.56 62.692C108.139 62.3653 108.802 62.202 109.548 62.202C110.276 62.202 110.92 62.3607 111.48 62.678C112.04 62.9953 112.47 63.434 112.768 63.994C113.076 64.5447 113.23 65.17 113.23 65.87ZM111.914 65.604C111.914 65.1187 111.807 64.7033 111.592 64.358C111.378 64.0033 111.084 63.7373 110.71 63.56C110.346 63.3733 109.94 63.28 109.492 63.28C108.848 63.28 108.298 63.4853 107.84 63.896C107.392 64.3067 107.136 64.876 107.07 65.604H111.914ZM121.912 65.87C121.912 66.1127 121.898 66.3693 121.87 66.64H115.738C115.785 67.396 116.041 67.9887 116.508 68.418C116.984 68.838 117.558 69.048 118.23 69.048C118.781 69.048 119.238 68.922 119.602 68.67C119.975 68.4087 120.237 68.0633 120.386 67.634H121.758C121.553 68.3713 121.142 68.9733 120.526 69.44C119.91 69.8973 119.145 70.126 118.23 70.126C117.502 70.126 116.849 69.9627 116.27 69.636C115.701 69.3093 115.253 68.8473 114.926 68.25C114.599 67.6433 114.436 66.9433 114.436 66.15C114.436 65.3567 114.595 64.6613 114.912 64.064C115.229 63.4667 115.673 63.0093 116.242 62.692C116.821 62.3653 117.483 62.202 118.23 62.202C118.958 62.202 119.602 62.3607 120.162 62.678C120.722 62.9953 121.151 63.434 121.45 63.994C121.758 64.5447 121.912 65.17 121.912 65.87ZM120.596 65.604C120.596 65.1187 120.489 64.7033 120.274 64.358C120.059 64.0033 119.765 63.7373 119.392 63.56C119.028 63.3733 118.622 63.28 118.174 63.28C117.53 63.28 116.979 63.4853 116.522 63.896C116.074 64.3067 115.817 64.876 115.752 65.604H120.596ZM124.868 59.64V70H123.594V59.64H124.868ZM130.295 66.136C130.295 65.352 130.454 64.666 130.771 64.078C131.089 63.4807 131.523 63.0187 132.073 62.692C132.633 62.3653 133.254 62.202 133.935 62.202C134.607 62.202 135.191 62.3467 135.685 62.636C136.18 62.9253 136.549 63.2893 136.791 63.728V62.328H138.079V70H136.791V68.572C136.539 69.02 136.161 69.3933 135.657 69.692C135.163 69.9813 134.584 70.126 133.921 70.126C133.24 70.126 132.624 69.958 132.073 69.622C131.523 69.286 131.089 68.8147 130.771 68.208C130.454 67.6013 130.295 66.9107 130.295 66.136ZM136.791 66.15C136.791 65.5713 136.675 65.0673 136.441 64.638C136.208 64.2087 135.891 63.882 135.489 63.658C135.097 63.4247 134.663 63.308 134.187 63.308C133.711 63.308 133.277 63.42 132.885 63.644C132.493 63.868 132.181 64.1947 131.947 64.624C131.714 65.0533 131.597 65.5573 131.597 66.136C131.597 66.724 131.714 67.2373 131.947 67.676C132.181 68.1053 132.493 68.4367 132.885 68.67C133.277 68.894 133.711 69.006 134.187 69.006C134.663 69.006 135.097 68.894 135.489 68.67C135.891 68.4367 136.208 68.1053 136.441 67.676C136.675 67.2373 136.791 66.7287 136.791 66.15ZM141.506 63.756C141.768 63.2987 142.15 62.9253 142.654 62.636C143.158 62.3467 143.732 62.202 144.376 62.202C145.067 62.202 145.688 62.3653 146.238 62.692C146.789 63.0187 147.223 63.4807 147.54 64.078C147.858 64.666 148.016 65.352 148.016 66.136C148.016 66.9107 147.858 67.6013 147.54 68.208C147.223 68.8147 146.784 69.286 146.224 69.622C145.674 69.958 145.058 70.126 144.376 70.126C143.714 70.126 143.13 69.9813 142.626 69.692C142.132 69.4027 141.758 69.034 141.506 68.586V70H140.232V59.64H141.506V63.756ZM146.714 66.136C146.714 65.5573 146.598 65.0533 146.364 64.624C146.131 64.1947 145.814 63.868 145.412 63.644C145.02 63.42 144.586 63.308 144.11 63.308C143.644 63.308 143.21 63.4247 142.808 63.658C142.416 63.882 142.099 64.2133 141.856 64.652C141.623 65.0813 141.506 65.5807 141.506 66.15C141.506 66.7287 141.623 67.2373 141.856 67.676C142.099 68.1053 142.416 68.4367 142.808 68.67C143.21 68.894 143.644 69.006 144.11 69.006C144.586 69.006 145.02 68.894 145.412 68.67C145.814 68.4367 146.131 68.1053 146.364 67.676C146.598 67.2373 146.714 66.724 146.714 66.136ZM153.039 70.126C152.321 70.126 151.667 69.9627 151.079 69.636C150.501 69.3093 150.043 68.8473 149.707 68.25C149.381 67.6433 149.217 66.9433 149.217 66.15C149.217 65.366 149.385 64.6753 149.721 64.078C150.067 63.4713 150.533 63.0093 151.121 62.692C151.709 62.3653 152.367 62.202 153.095 62.202C153.823 62.202 154.481 62.3653 155.069 62.692C155.657 63.0093 156.119 63.4667 156.455 64.064C156.801 64.6613 156.973 65.3567 156.973 66.15C156.973 66.9433 156.796 67.6433 156.441 68.25C156.096 68.8473 155.625 69.3093 155.027 69.636C154.43 69.9627 153.767 70.126 153.039 70.126ZM153.039 69.006C153.497 69.006 153.926 68.8987 154.327 68.684C154.729 68.4693 155.051 68.1473 155.293 67.718C155.545 67.2887 155.671 66.766 155.671 66.15C155.671 65.534 155.55 65.0113 155.307 64.582C155.065 64.1527 154.747 63.8353 154.355 63.63C153.963 63.4153 153.539 63.308 153.081 63.308C152.615 63.308 152.185 63.4153 151.793 63.63C151.411 63.8353 151.103 64.1527 150.869 64.582C150.636 65.0113 150.519 65.534 150.519 66.15C150.519 66.7753 150.631 67.3027 150.855 67.732C151.089 68.1613 151.397 68.4833 151.779 68.698C152.162 68.9033 152.582 69.006 153.039 69.006ZM165.452 62.328V70H164.178V68.866C163.936 69.258 163.595 69.566 163.156 69.79C162.727 70.0047 162.251 70.112 161.728 70.112C161.131 70.112 160.594 69.9907 160.118 69.748C159.642 69.496 159.264 69.1227 158.984 68.628C158.714 68.1333 158.578 67.5313 158.578 66.822V62.328H159.838V66.654C159.838 67.41 160.03 67.9933 160.412 68.404C160.795 68.8053 161.318 69.006 161.98 69.006C162.662 69.006 163.198 68.796 163.59 68.376C163.982 67.956 164.178 67.3447 164.178 66.542V62.328H165.452ZM169.157 63.378V67.9C169.157 68.2733 169.237 68.5393 169.395 68.698C169.554 68.8473 169.829 68.922 170.221 68.922H171.159V70H170.011C169.302 70 168.77 69.8367 168.415 69.51C168.061 69.1833 167.883 68.6467 167.883 67.9V63.378H166.889V62.328H167.883V60.396H169.157V62.328H171.159V63.378H169.157ZM16.736 82.082C16.4933 82.082 16.288 81.998 16.12 81.83C15.952 81.662 15.868 81.4567 15.868 81.214C15.868 80.9713 15.952 80.766 16.12 80.598C16.288 80.43 16.4933 80.346 16.736 80.346C16.9693 80.346 17.1653 80.43 17.324 80.598C17.492 80.766 17.576 80.9713 17.576 81.214C17.576 81.4567 17.492 81.662 17.324 81.83C17.1653 81.998 16.9693 82.082 16.736 82.082ZM17.352 83.328V91H16.078V83.328H17.352ZM23.2613 83.188C24.1946 83.188 24.9506 83.4727 25.5293 84.042C26.108 84.602 26.3973 85.414 26.3973 86.478V91H25.1373V86.66C25.1373 85.8947 24.946 85.3113 24.5633 84.91C24.1806 84.4993 23.658 84.294 22.9953 84.294C22.3233 84.294 21.7866 84.504 21.3853 84.924C20.9933 85.344 20.7973 85.9553 20.7973 86.758V91H19.5233V83.328H20.7973V84.42C21.0493 84.028 21.39 83.7247 21.8193 83.51C22.258 83.2953 22.7386 83.188 23.2613 83.188ZM30.0324 84.378V88.9C30.0324 89.2733 30.1117 89.5393 30.2704 89.698C30.4291 89.8473 30.7044 89.922 31.0964 89.922H32.0344V91H30.8864C30.1771 91 29.6451 90.8367 29.2904 90.51C28.9357 90.1833 28.7584 89.6467 28.7584 88.9V84.378H27.7644V83.328H28.7584V81.396H30.0324V83.328H32.0344V84.378H30.0324ZM34.852 84.574C35.076 84.1353 35.3933 83.7947 35.804 83.552C36.224 83.3093 36.7327 83.188 37.33 83.188V84.504H36.994C35.566 84.504 34.852 85.2787 34.852 86.828V91H33.578V83.328H34.852V84.574ZM42.1467 91.126C41.428 91.126 40.7747 90.9627 40.1867 90.636C39.608 90.3093 39.1507 89.8473 38.8147 89.25C38.488 88.6433 38.3247 87.9433 38.3247 87.15C38.3247 86.366 38.4927 85.6753 38.8287 85.078C39.174 84.4713 39.6407 84.0093 40.2287 83.692C40.8167 83.3653 41.4747 83.202 42.2027 83.202C42.9307 83.202 43.5887 83.3653 44.1767 83.692C44.7647 84.0093 45.2267 84.4667 45.5627 85.064C45.908 85.6613 46.0807 86.3567 46.0807 87.15C46.0807 87.9433 45.9033 88.6433 45.5487 89.25C45.2033 89.8473 44.732 90.3093 44.1347 90.636C43.5373 90.9627 42.8747 91.126 42.1467 91.126ZM42.1467 90.006C42.604 90.006 43.0333 89.8987 43.4347 89.684C43.836 89.4693 44.158 89.1473 44.4007 88.718C44.6527 88.2887 44.7787 87.766 44.7787 87.15C44.7787 86.534 44.6573 86.0113 44.4147 85.582C44.172 85.1527 43.8547 84.8353 43.4627 84.63C43.0707 84.4153 42.646 84.308 42.1887 84.308C41.722 84.308 41.2927 84.4153 40.9007 84.63C40.518 84.8353 40.21 85.1527 39.9767 85.582C39.7433 86.0113 39.6267 86.534 39.6267 87.15C39.6267 87.7753 39.7387 88.3027 39.9627 88.732C40.196 89.1613 40.504 89.4833 40.8867 89.698C41.2693 89.9033 41.6893 90.006 42.1467 90.006ZM47.2797 87.136C47.2797 86.352 47.4384 85.666 47.7557 85.078C48.0731 84.4807 48.5071 84.0187 49.0577 83.692C49.6177 83.3653 50.2431 83.202 50.9337 83.202C51.5311 83.202 52.0864 83.342 52.5997 83.622C53.1131 83.8927 53.5051 84.252 53.7757 84.7V80.64H55.0637V91H53.7757V89.558C53.5237 90.0153 53.1504 90.3933 52.6557 90.692C52.1611 90.9813 51.5824 91.126 50.9197 91.126C50.2384 91.126 49.6177 90.958 49.0577 90.622C48.5071 90.286 48.0731 89.8147 47.7557 89.208C47.4384 88.6013 47.2797 87.9107 47.2797 87.136ZM53.7757 87.15C53.7757 86.5713 53.6591 86.0673 53.4257 85.638C53.1924 85.2087 52.8751 84.882 52.4737 84.658C52.0817 84.4247 51.6477 84.308 51.1717 84.308C50.6957 84.308 50.2617 84.42 49.8697 84.644C49.4777 84.868 49.1651 85.1947 48.9317 85.624C48.6984 86.0533 48.5817 86.5573 48.5817 87.136C48.5817 87.724 48.6984 88.2373 48.9317 88.676C49.1651 89.1053 49.4777 89.4367 49.8697 89.67C50.2617 89.894 50.6957 90.006 51.1717 90.006C51.6477 90.006 52.0817 89.894 52.4737 89.67C52.8751 89.4367 53.1924 89.1053 53.4257 88.676C53.6591 88.2373 53.7757 87.7287 53.7757 87.15ZM64.0207 83.328V91H62.7467V89.866C62.504 90.258 62.1633 90.566 61.7247 90.79C61.2953 91.0047 60.8193 91.112 60.2967 91.112C59.6993 91.112 59.1627 90.9907 58.6867 90.748C58.2107 90.496 57.8327 90.1227 57.5527 89.628C57.282 89.1333 57.1467 88.5313 57.1467 87.822V83.328H58.4067V87.654C58.4067 88.41 58.598 88.9933 58.9807 89.404C59.3633 89.8053 59.886 90.006 60.5487 90.006C61.23 90.006 61.7667 89.796 62.1587 89.376C62.5507 88.956 62.7467 88.3447 62.7467 87.542V83.328H64.0207ZM65.6958 87.15C65.6958 86.3567 65.8544 85.666 66.1718 85.078C66.4891 84.4807 66.9278 84.0187 67.4878 83.692C68.0571 83.3653 68.7058 83.202 69.4338 83.202C70.3764 83.202 71.1511 83.4307 71.7578 83.888C72.3738 84.3453 72.7798 84.98 72.9758 85.792H71.6038C71.4731 85.3253 71.2164 84.9567 70.8338 84.686C70.4604 84.4153 69.9938 84.28 69.4338 84.28C68.7058 84.28 68.1178 84.532 67.6698 85.036C67.2218 85.5307 66.9978 86.2353 66.9978 87.15C66.9978 88.074 67.2218 88.788 67.6698 89.292C68.1178 89.796 68.7058 90.048 69.4338 90.048C69.9938 90.048 70.4604 89.9173 70.8338 89.656C71.2071 89.3947 71.4638 89.0213 71.6038 88.536H72.9758C72.7704 89.32 72.3598 89.95 71.7438 90.426C71.1278 90.8927 70.3578 91.126 69.4338 91.126C68.7058 91.126 68.0571 90.9627 67.4878 90.636C66.9278 90.3093 66.4891 89.8473 66.1718 89.25C65.8544 88.6527 65.6958 87.9527 65.6958 87.15ZM75.3337 82.082C75.091 82.082 74.8857 81.998 74.7177 81.83C74.5497 81.662 74.4657 81.4567 74.4657 81.214C74.4657 80.9713 74.5497 80.766 74.7177 80.598C74.8857 80.43 75.091 80.346 75.3337 80.346C75.567 80.346 75.763 80.43 75.9217 80.598C76.0897 80.766 76.1737 80.9713 76.1737 81.214C76.1737 81.4567 76.0897 81.662 75.9217 81.83C75.763 81.998 75.567 82.082 75.3337 82.082ZM75.9497 83.328V91H74.6757V83.328H75.9497ZM81.859 83.188C82.7923 83.188 83.5483 83.4727 84.127 84.042C84.7056 84.602 84.995 85.414 84.995 86.478V91H83.735V86.66C83.735 85.8947 83.5436 85.3113 83.161 84.91C82.7783 84.4993 82.2556 84.294 81.593 84.294C80.921 84.294 80.3843 84.504 79.983 84.924C79.591 85.344 79.395 85.9553 79.395 86.758V91H78.121V83.328H79.395V84.42C79.647 84.028 79.9876 83.7247 80.417 83.51C80.8556 83.2953 81.3363 83.188 81.859 83.188ZM90.24 83.202C90.9027 83.202 91.4814 83.3467 91.976 83.636C92.48 83.9253 92.8534 84.2893 93.096 84.728V83.328H94.384V91.168C94.384 91.868 94.2347 92.4887 93.936 93.03C93.6374 93.5807 93.208 94.01 92.648 94.318C92.0974 94.626 91.4534 94.78 90.716 94.78C89.708 94.78 88.868 94.542 88.196 94.066C87.524 93.59 87.1274 92.9413 87.006 92.12H88.266C88.406 92.5867 88.6954 92.96 89.134 93.24C89.5727 93.5293 90.1 93.674 90.716 93.674C91.416 93.674 91.9854 93.4547 92.424 93.016C92.872 92.5773 93.096 91.9613 93.096 91.168V89.558C92.844 90.006 92.4707 90.3793 91.976 90.678C91.4814 90.9767 90.9027 91.126 90.24 91.126C89.5587 91.126 88.938 90.958 88.378 90.622C87.8274 90.286 87.3934 89.8147 87.076 89.208C86.7587 88.6013 86.6 87.9107 86.6 87.136C86.6 86.352 86.7587 85.666 87.076 85.078C87.3934 84.4807 87.8274 84.0187 88.378 83.692C88.938 83.3653 89.5587 83.202 90.24 83.202ZM93.096 87.15C93.096 86.5713 92.9794 86.0673 92.746 85.638C92.5127 85.2087 92.1954 84.882 91.794 84.658C91.402 84.4247 90.968 84.308 90.492 84.308C90.016 84.308 89.582 84.42 89.19 84.644C88.798 84.868 88.4854 85.1947 88.252 85.624C88.0187 86.0533 87.902 86.5573 87.902 87.136C87.902 87.724 88.0187 88.2373 88.252 88.676C88.4854 89.1053 88.798 89.4367 89.19 89.67C89.582 89.894 90.016 90.006 90.492 90.006C90.968 90.006 91.402 89.894 91.794 89.67C92.1954 89.4367 92.5127 89.1053 92.746 88.676C92.9794 88.2373 93.096 87.7287 93.096 87.15ZM106.877 83.328L102.257 94.612H100.941L102.453 90.916L99.3594 83.328H100.773L103.181 89.544L105.561 83.328H106.877ZM111.504 91.126C110.785 91.126 110.132 90.9627 109.544 90.636C108.965 90.3093 108.508 89.8473 108.172 89.25C107.845 88.6433 107.682 87.9433 107.682 87.15C107.682 86.366 107.85 85.6753 108.186 85.078C108.531 84.4713 108.998 84.0093 109.586 83.692C110.174 83.3653 110.832 83.202 111.56 83.202C112.288 83.202 112.946 83.3653 113.534 83.692C114.122 84.0093 114.584 84.4667 114.92 85.064C115.265 85.6613 115.438 86.3567 115.438 87.15C115.438 87.9433 115.261 88.6433 114.906 89.25C114.561 89.8473 114.089 90.3093 113.492 90.636C112.895 90.9627 112.232 91.126 111.504 91.126ZM111.504 90.006C111.961 90.006 112.391 89.8987 112.792 89.684C113.193 89.4693 113.515 89.1473 113.758 88.718C114.01 88.2887 114.136 87.766 114.136 87.15C114.136 86.534 114.015 86.0113 113.772 85.582C113.529 85.1527 113.212 84.8353 112.82 84.63C112.428 84.4153 112.003 84.308 111.546 84.308C111.079 84.308 110.65 84.4153 110.258 84.63C109.875 84.8353 109.567 85.1527 109.334 85.582C109.101 86.0113 108.984 86.534 108.984 87.15C108.984 87.7753 109.096 88.3027 109.32 88.732C109.553 89.1613 109.861 89.4833 110.244 89.698C110.627 89.9033 111.047 90.006 111.504 90.006ZM123.917 83.328V91H122.643V89.866C122.4 90.258 122.06 90.566 121.621 90.79C121.192 91.0047 120.716 91.112 120.193 91.112C119.596 91.112 119.059 90.9907 118.583 90.748C118.107 90.496 117.729 90.1227 117.449 89.628C117.178 89.1333 117.043 88.5313 117.043 87.822V83.328H118.303V87.654C118.303 88.41 118.494 88.9933 118.877 89.404C119.26 89.8053 119.782 90.006 120.445 90.006C121.126 90.006 121.663 89.796 122.055 89.376C122.447 88.956 122.643 88.3447 122.643 87.542V83.328H123.917ZM127.342 84.574C127.566 84.1353 127.884 83.7947 128.294 83.552C128.714 83.3093 129.223 83.188 129.82 83.188V84.504H129.484C128.056 84.504 127.342 85.2787 127.342 86.828V91H126.068V83.328H127.342V84.574ZM134.007 91.126C133.419 91.126 132.892 91.028 132.425 90.832C131.958 90.6267 131.59 90.3467 131.319 89.992C131.048 89.628 130.899 89.2127 130.871 88.746H132.187C132.224 89.1287 132.402 89.4413 132.719 89.684C133.046 89.9267 133.47 90.048 133.993 90.048C134.478 90.048 134.861 89.9407 135.141 89.726C135.421 89.5113 135.561 89.2407 135.561 88.914C135.561 88.578 135.412 88.3307 135.113 88.172C134.814 88.004 134.352 87.8407 133.727 87.682C133.158 87.5327 132.691 87.3833 132.327 87.234C131.972 87.0753 131.664 86.8467 131.403 86.548C131.151 86.24 131.025 85.8387 131.025 85.344C131.025 84.952 131.142 84.5927 131.375 84.266C131.608 83.9393 131.94 83.6827 132.369 83.496C132.798 83.3 133.288 83.202 133.839 83.202C134.688 83.202 135.374 83.4167 135.897 83.846C136.42 84.2753 136.7 84.8633 136.737 85.61H135.463C135.435 85.2087 135.272 84.8867 134.973 84.644C134.684 84.4013 134.292 84.28 133.797 84.28C133.34 84.28 132.976 84.378 132.705 84.574C132.434 84.77 132.299 85.0267 132.299 85.344C132.299 85.596 132.378 85.806 132.537 85.974C132.705 86.1327 132.91 86.2633 133.153 86.366C133.405 86.4593 133.75 86.5667 134.189 86.688C134.74 86.8373 135.188 86.9867 135.533 87.136C135.878 87.276 136.172 87.4907 136.415 87.78C136.667 88.0693 136.798 88.4473 136.807 88.914C136.807 89.334 136.69 89.712 136.457 90.048C136.224 90.384 135.892 90.65 135.463 90.846C135.043 91.0327 134.558 91.126 134.007 91.126ZM145.605 86.87C145.605 87.1127 145.591 87.3693 145.563 87.64H139.431C139.478 88.396 139.735 88.9887 140.201 89.418C140.677 89.838 141.251 90.048 141.923 90.048C142.474 90.048 142.931 89.922 143.295 89.67C143.669 89.4087 143.93 89.0633 144.079 88.634H145.451C145.246 89.3713 144.835 89.9733 144.219 90.44C143.603 90.8973 142.838 91.126 141.923 91.126C141.195 91.126 140.542 90.9627 139.963 90.636C139.394 90.3093 138.946 89.8473 138.619 89.25C138.293 88.6433 138.129 87.9433 138.129 87.15C138.129 86.3567 138.288 85.6613 138.605 85.064C138.923 84.4667 139.366 84.0093 139.935 83.692C140.514 83.3653 141.177 83.202 141.923 83.202C142.651 83.202 143.295 83.3607 143.855 83.678C144.415 83.9953 144.845 84.434 145.143 84.994C145.451 85.5447 145.605 86.17 145.605 86.87ZM144.289 86.604C144.289 86.1187 144.182 85.7033 143.967 85.358C143.753 85.0033 143.459 84.7373 143.085 84.56C142.721 84.3733 142.315 84.28 141.867 84.28C141.223 84.28 140.673 84.4853 140.215 84.896C139.767 85.3067 139.511 85.876 139.445 86.604H144.289ZM148.561 80.64V91H147.287V80.64H148.561ZM153.854 84.378H152.244V91H150.97V84.378H149.976V83.328H150.97V82.782C150.97 81.9233 151.19 81.298 151.628 80.906C152.076 80.5047 152.79 80.304 153.77 80.304V81.368C153.21 81.368 152.814 81.48 152.58 81.704C152.356 81.9187 152.244 82.278 152.244 82.782V83.328H153.854V84.378ZM157.832 81.116C158.756 81.116 159.502 81.3773 160.072 81.9C160.641 82.4227 160.926 83.1227 160.926 84C160.926 84.98 160.622 85.708 160.016 86.184C159.409 86.6507 158.588 86.884 157.552 86.884L157.51 88.214H156.404L156.348 86.002H156.754C157.678 86.002 158.401 85.862 158.924 85.582C159.446 85.302 159.708 84.7747 159.708 84C159.708 83.44 159.54 82.9967 159.204 82.67C158.868 82.3433 158.415 82.18 157.846 82.18C157.267 82.18 156.81 82.3387 156.474 82.656C156.147 82.964 155.984 83.3887 155.984 83.93H154.78C154.78 83.37 154.906 82.88 155.158 82.46C155.41 82.0307 155.764 81.6993 156.222 81.466C156.688 81.2327 157.225 81.116 157.832 81.116ZM156.95 91.084C156.707 91.084 156.502 91 156.334 90.832C156.166 90.664 156.082 90.4587 156.082 90.216C156.082 89.9733 156.166 89.768 156.334 89.6C156.502 89.432 156.707 89.348 156.95 89.348C157.183 89.348 157.379 89.432 157.538 89.6C157.706 89.768 157.79 89.9733 157.79 90.216C157.79 90.4587 157.706 90.664 157.538 90.832C157.379 91 157.183 91.084 156.95 91.084Z" fill="black"/>
</svg>
