<svg width="357" height="60" viewBox="0 0 357 60" fill="none" xmlns="http://www.w3.org/2000/svg">
<rect width="357" height="60" rx="12" fill="#6442EF"/>
<path d="M128.235 34.528H131.995V36H126.411V24.88H128.235V34.528ZM141.6 31.376C141.6 31.7067 141.579 32.0053 141.536 32.272H134.8C134.854 32.976 135.115 33.5413 135.584 33.968C136.054 34.3947 136.63 34.608 137.312 34.608C138.294 34.608 138.987 34.1973 139.392 33.376H141.36C141.094 34.1867 140.608 34.8533 139.904 35.376C139.211 35.888 138.347 36.144 137.312 36.144C136.47 36.144 135.712 35.9573 135.04 35.584C134.379 35.2 133.856 34.6667 133.472 33.984C133.099 33.2907 132.912 32.4907 132.912 31.584C132.912 30.6773 133.094 29.8827 133.456 29.2C133.83 28.5067 134.347 27.9733 135.008 27.6C135.68 27.2267 136.448 27.04 137.312 27.04C138.144 27.04 138.886 27.2213 139.536 27.584C140.187 27.9467 140.694 28.4587 141.056 29.12C141.419 29.7707 141.6 30.5227 141.6 31.376ZM139.696 30.8C139.686 30.128 139.446 29.5893 138.976 29.184C138.507 28.7787 137.926 28.576 137.232 28.576C136.603 28.576 136.064 28.7787 135.616 29.184C135.168 29.5787 134.902 30.1173 134.816 30.8H139.696ZM145.523 28.672V33.552C145.523 33.8827 145.598 34.1227 145.747 34.272C145.907 34.4107 146.174 34.48 146.547 34.48H147.667V36H146.227C145.406 36 144.777 35.808 144.339 35.424C143.902 35.04 143.683 34.416 143.683 33.552V28.672H142.643V27.184H143.683V24.992H145.523V27.184H147.667V28.672H145.523ZM149.636 24.88H151.62L149.94 28.688H148.66L149.636 24.88ZM156.423 36.144C155.73 36.144 155.106 36.0213 154.551 35.776C154.007 35.52 153.575 35.1787 153.255 34.752C152.935 34.3147 152.765 33.8293 152.743 33.296H154.631C154.663 33.6693 154.839 33.984 155.159 34.24C155.49 34.4853 155.901 34.608 156.391 34.608C156.903 34.608 157.298 34.512 157.575 34.32C157.863 34.1173 158.007 33.8613 158.007 33.552C158.007 33.2213 157.847 32.976 157.527 32.816C157.218 32.656 156.722 32.48 156.039 32.288C155.378 32.1067 154.839 31.9307 154.423 31.76C154.007 31.5893 153.645 31.328 153.335 30.976C153.037 30.624 152.887 30.16 152.887 29.584C152.887 29.1147 153.026 28.688 153.303 28.304C153.581 27.9093 153.975 27.6 154.487 27.376C155.01 27.152 155.607 27.04 156.279 27.04C157.282 27.04 158.087 27.296 158.695 27.808C159.314 28.3093 159.645 28.9973 159.687 29.872H157.863C157.831 29.4773 157.671 29.1627 157.383 28.928C157.095 28.6933 156.706 28.576 156.215 28.576C155.735 28.576 155.367 28.6667 155.111 28.848C154.855 29.0293 154.727 29.2693 154.727 29.568C154.727 29.8027 154.813 30 154.983 30.16C155.154 30.32 155.362 30.448 155.607 30.544C155.853 30.6293 156.215 30.7413 156.695 30.88C157.335 31.0507 157.858 31.2267 158.263 31.408C158.679 31.5787 159.037 31.8347 159.335 32.176C159.634 32.5173 159.789 32.9707 159.799 33.536C159.799 34.0373 159.661 34.4853 159.383 34.88C159.106 35.2747 158.711 35.584 158.199 35.808C157.698 36.032 157.106 36.144 156.423 36.144ZM167.751 28.48C168.06 28.0747 168.481 27.7333 169.015 27.456C169.548 27.1787 170.151 27.04 170.823 27.04C171.591 27.04 172.289 27.232 172.919 27.616C173.559 27.9893 174.06 28.5173 174.423 29.2C174.785 29.8827 174.967 30.6667 174.967 31.552C174.967 32.4373 174.785 33.232 174.423 33.936C174.06 34.6293 173.559 35.1733 172.919 35.568C172.289 35.952 171.591 36.144 170.823 36.144C170.151 36.144 169.553 36.0107 169.031 35.744C168.508 35.4667 168.081 35.1253 167.751 34.72V40.192H165.927V27.184H167.751V28.48ZM173.111 31.552C173.111 30.944 172.983 30.4213 172.727 29.984C172.481 29.536 172.151 29.2 171.735 28.976C171.329 28.7413 170.892 28.624 170.423 28.624C169.964 28.624 169.527 28.7413 169.111 28.976C168.705 29.2107 168.375 29.552 168.119 30C167.873 30.448 167.751 30.976 167.751 31.584C167.751 32.192 167.873 32.7253 168.119 33.184C168.375 33.632 168.705 33.9733 169.111 34.208C169.527 34.4427 169.964 34.56 170.423 34.56C170.892 34.56 171.329 34.4427 171.735 34.208C172.151 33.9627 172.481 33.6107 172.727 33.152C172.983 32.6933 173.111 32.16 173.111 31.552ZM178.594 28.464C178.861 28.016 179.213 27.6693 179.65 27.424C180.098 27.168 180.626 27.04 181.234 27.04V28.928H180.77C180.056 28.928 179.512 29.1093 179.138 29.472C178.776 29.8347 178.594 30.464 178.594 31.36V36H176.77V27.184H178.594V28.464ZM182.303 31.552C182.303 30.6667 182.484 29.8827 182.847 29.2C183.22 28.5173 183.722 27.9893 184.351 27.616C184.991 27.232 185.695 27.04 186.463 27.04C187.156 27.04 187.759 27.1787 188.271 27.456C188.794 27.7227 189.21 28.0587 189.519 28.464V27.184H191.359V36H189.519V34.688C189.21 35.104 188.788 35.4507 188.255 35.728C187.722 36.0053 187.114 36.144 186.431 36.144C185.674 36.144 184.98 35.952 184.351 35.568C183.722 35.1733 183.22 34.6293 182.847 33.936C182.484 33.232 182.303 32.4373 182.303 31.552ZM189.519 31.584C189.519 30.976 189.391 30.448 189.135 30C188.89 29.552 188.564 29.2107 188.159 28.976C187.754 28.7413 187.316 28.624 186.847 28.624C186.378 28.624 185.94 28.7413 185.535 28.976C185.13 29.2 184.799 29.536 184.543 29.984C184.298 30.4213 184.175 30.944 184.175 31.552C184.175 32.16 184.298 32.6933 184.543 33.152C184.799 33.6107 185.13 33.9627 185.535 34.208C185.951 34.4427 186.388 34.56 186.847 34.56C187.316 34.56 187.754 34.4427 188.159 34.208C188.564 33.9733 188.89 33.632 189.135 33.184C189.391 32.7253 189.519 32.192 189.519 31.584ZM193.147 31.584C193.147 30.6773 193.328 29.8827 193.691 29.2C194.064 28.5067 194.576 27.9733 195.227 27.6C195.877 27.2267 196.624 27.04 197.467 27.04C198.533 27.04 199.413 27.296 200.107 27.808C200.811 28.3093 201.285 29.0293 201.531 29.968H199.563C199.403 29.5307 199.147 29.1893 198.795 28.944C198.443 28.6987 198 28.576 197.467 28.576C196.72 28.576 196.123 28.8427 195.675 29.376C195.237 29.8987 195.019 30.6347 195.019 31.584C195.019 32.5333 195.237 33.2747 195.675 33.808C196.123 34.3413 196.72 34.608 197.467 34.608C198.523 34.608 199.221 34.144 199.563 33.216H201.531C201.275 34.112 200.795 34.8267 200.091 35.36C199.387 35.8827 198.512 36.144 197.467 36.144C196.624 36.144 195.877 35.9573 195.227 35.584C194.576 35.2 194.064 34.6667 193.691 33.984C193.328 33.2907 193.147 32.4907 193.147 31.584ZM205.476 28.672V33.552C205.476 33.8827 205.551 34.1227 205.7 34.272C205.86 34.4107 206.127 34.48 206.5 34.48H207.62V36H206.18C205.359 36 204.73 35.808 204.292 35.424C203.855 35.04 203.636 34.416 203.636 33.552V28.672H202.596V27.184H203.636V24.992H205.476V27.184H207.62V28.672H205.476ZM210.23 26.016C209.899 26.016 209.622 25.904 209.398 25.68C209.174 25.456 209.062 25.1787 209.062 24.848C209.062 24.5173 209.174 24.24 209.398 24.016C209.622 23.792 209.899 23.68 210.23 23.68C210.55 23.68 210.822 23.792 211.046 24.016C211.27 24.24 211.382 24.5173 211.382 24.848C211.382 25.1787 211.27 25.456 211.046 25.68C210.822 25.904 210.55 26.016 210.23 26.016ZM211.126 27.184V36H209.302V27.184H211.126ZM212.912 31.584C212.912 30.6773 213.094 29.8827 213.456 29.2C213.83 28.5067 214.342 27.9733 214.992 27.6C215.643 27.2267 216.39 27.04 217.232 27.04C218.299 27.04 219.179 27.296 219.872 27.808C220.576 28.3093 221.051 29.0293 221.296 29.968H219.328C219.168 29.5307 218.912 29.1893 218.56 28.944C218.208 28.6987 217.766 28.576 217.232 28.576C216.486 28.576 215.888 28.8427 215.44 29.376C215.003 29.8987 214.784 30.6347 214.784 31.584C214.784 32.5333 215.003 33.2747 215.44 33.808C215.888 34.3413 216.486 34.608 217.232 34.608C218.288 34.608 218.987 34.144 219.328 33.216H221.296C221.04 34.112 220.56 34.8267 219.856 35.36C219.152 35.8827 218.278 36.144 217.232 36.144C216.39 36.144 215.643 35.9573 214.992 35.584C214.342 35.2 213.83 34.6667 213.456 33.984C213.094 33.2907 212.912 32.4907 212.912 31.584ZM231.194 31.376C231.194 31.7067 231.173 32.0053 231.13 32.272H224.394C224.447 32.976 224.709 33.5413 225.178 33.968C225.647 34.3947 226.223 34.608 226.906 34.608C227.887 34.608 228.581 34.1973 228.986 33.376H230.954C230.687 34.1867 230.202 34.8533 229.498 35.376C228.805 35.888 227.941 36.144 226.906 36.144C226.063 36.144 225.306 35.9573 224.634 35.584C223.973 35.2 223.45 34.6667 223.066 33.984C222.693 33.2907 222.506 32.4907 222.506 31.584C222.506 30.6773 222.687 29.8827 223.05 29.2C223.423 28.5067 223.941 27.9733 224.602 27.6C225.274 27.2267 226.042 27.04 226.906 27.04C227.738 27.04 228.479 27.2213 229.13 27.584C229.781 27.9467 230.287 28.4587 230.65 29.12C231.013 29.7707 231.194 30.5227 231.194 31.376ZM229.29 30.8C229.279 30.128 229.039 29.5893 228.57 29.184C228.101 28.7787 227.519 28.576 226.826 28.576C226.197 28.576 225.658 28.7787 225.21 29.184C224.762 29.5787 224.495 30.1173 224.41 30.8H229.29Z" fill="white"/>
</svg>
