<svg width="347" height="60" viewBox="0 0 347 60" fill="none" xmlns="http://www.w3.org/2000/svg">
<rect x="0.5" width="346" height="60" rx="12" fill="#6442EF"/>
<path d="M136.936 28.08C136.648 27.5253 136.248 27.1093 135.736 26.832C135.224 26.544 134.632 26.4 133.96 26.4C133.224 26.4 132.568 26.5653 131.992 26.896C131.416 27.2267 130.962 27.696 130.632 28.304C130.312 28.912 130.152 29.616 130.152 30.416C130.152 31.216 130.312 31.9253 130.632 32.544C130.962 33.152 131.416 33.6213 131.992 33.952C132.568 34.2827 133.224 34.448 133.96 34.448C134.952 34.448 135.757 34.1707 136.376 33.616C136.994 33.0613 137.373 32.3093 137.512 31.36H133.336V29.904H139.464V31.328C139.346 32.192 139.037 32.9867 138.536 33.712C138.045 34.4373 137.4 35.0187 136.6 35.456C135.81 35.8827 134.93 36.096 133.96 36.096C132.914 36.096 131.96 35.856 131.096 35.376C130.232 34.8853 129.544 34.208 129.032 33.344C128.53 32.48 128.28 31.504 128.28 30.416C128.28 29.328 128.53 28.352 129.032 27.488C129.544 26.624 130.232 25.952 131.096 25.472C131.97 24.9813 132.925 24.736 133.96 24.736C135.144 24.736 136.194 25.0293 137.112 25.616C138.04 26.192 138.712 27.0133 139.128 28.08H136.936ZM149.343 31.376C149.343 31.7067 149.321 32.0053 149.279 32.272H142.543C142.596 32.976 142.857 33.5413 143.327 33.968C143.796 34.3947 144.372 34.608 145.055 34.608C146.036 34.608 146.729 34.1973 147.135 33.376H149.102C148.836 34.1867 148.351 34.8533 147.647 35.376C146.953 35.888 146.089 36.144 145.055 36.144C144.212 36.144 143.455 35.9573 142.783 35.584C142.121 35.2 141.599 34.6667 141.215 33.984C140.841 33.2907 140.655 32.4907 140.655 31.584C140.655 30.6773 140.836 29.8827 141.199 29.2C141.572 28.5067 142.089 27.9733 142.751 27.6C143.423 27.2267 144.191 27.04 145.055 27.04C145.887 27.04 146.628 27.2213 147.279 27.584C147.929 27.9467 148.436 28.4587 148.799 29.12C149.161 29.7707 149.343 30.5227 149.343 31.376ZM147.439 30.8C147.428 30.128 147.188 29.5893 146.719 29.184C146.249 28.7787 145.668 28.576 144.975 28.576C144.345 28.576 143.807 28.7787 143.359 29.184C142.911 29.5787 142.644 30.1173 142.559 30.8H147.439ZM153.266 28.672V33.552C153.266 33.8827 153.34 34.1227 153.49 34.272C153.65 34.4107 153.916 34.48 154.29 34.48H155.41V36H153.97C153.148 36 152.519 35.808 152.082 35.424C151.644 35.04 151.426 34.416 151.426 33.552V28.672H150.386V27.184H151.426V24.992H153.266V27.184H155.41V28.672H153.266ZM164.911 36.112C164.164 36.112 163.492 35.984 162.895 35.728C162.298 35.4613 161.828 35.088 161.487 34.608C161.146 34.128 160.975 33.568 160.975 32.928H162.927C162.97 33.408 163.156 33.8027 163.487 34.112C163.828 34.4213 164.303 34.576 164.911 34.576C165.54 34.576 166.031 34.4267 166.383 34.128C166.735 33.8187 166.911 33.424 166.911 32.944C166.911 32.5707 166.799 32.2667 166.575 32.032C166.362 31.7973 166.09 31.616 165.759 31.488C165.439 31.36 164.991 31.2213 164.415 31.072C163.69 30.88 163.098 30.688 162.639 30.496C162.191 30.2933 161.807 29.984 161.487 29.568C161.167 29.152 161.007 28.5973 161.007 27.904C161.007 27.264 161.167 26.704 161.487 26.224C161.807 25.744 162.255 25.376 162.831 25.12C163.407 24.864 164.074 24.736 164.831 24.736C165.908 24.736 166.788 25.008 167.471 25.552C168.164 26.0853 168.548 26.8213 168.623 27.76H166.607C166.575 27.3547 166.383 27.008 166.031 26.72C165.679 26.432 165.215 26.288 164.639 26.288C164.116 26.288 163.69 26.4213 163.359 26.688C163.028 26.9547 162.863 27.3387 162.863 27.84C162.863 28.1813 162.964 28.464 163.167 28.688C163.38 28.9013 163.647 29.072 163.967 29.2C164.287 29.328 164.724 29.4667 165.279 29.616C166.015 29.8187 166.612 30.0213 167.071 30.224C167.54 30.4267 167.935 30.7413 168.255 31.168C168.586 31.584 168.751 32.144 168.751 32.848C168.751 33.4133 168.596 33.9467 168.287 34.448C167.988 34.9493 167.546 35.3547 166.959 35.664C166.383 35.9627 165.7 36.112 164.911 36.112ZM173.031 28.672V33.552C173.031 33.8827 173.106 34.1227 173.255 34.272C173.415 34.4107 173.682 34.48 174.055 34.48H175.175V36H173.735C172.914 36 172.284 35.808 171.847 35.424C171.41 35.04 171.191 34.416 171.191 33.552V28.672H170.151V27.184H171.191V24.992H173.031V27.184H175.175V28.672H173.031ZM176.248 31.552C176.248 30.6667 176.43 29.8827 176.792 29.2C177.166 28.5173 177.667 27.9893 178.296 27.616C178.936 27.232 179.64 27.04 180.408 27.04C181.102 27.04 181.704 27.1787 182.216 27.456C182.739 27.7227 183.155 28.0587 183.464 28.464V27.184H185.304V36H183.464V34.688C183.155 35.104 182.734 35.4507 182.2 35.728C181.667 36.0053 181.059 36.144 180.376 36.144C179.619 36.144 178.926 35.952 178.296 35.568C177.667 35.1733 177.166 34.6293 176.792 33.936C176.43 33.232 176.248 32.4373 176.248 31.552ZM183.464 31.584C183.464 30.976 183.336 30.448 183.08 30C182.835 29.552 182.51 29.2107 182.104 28.976C181.699 28.7413 181.262 28.624 180.792 28.624C180.323 28.624 179.886 28.7413 179.48 28.976C179.075 29.2 178.744 29.536 178.488 29.984C178.243 30.4213 178.12 30.944 178.12 31.552C178.12 32.16 178.243 32.6933 178.488 33.152C178.744 33.6107 179.075 33.9627 179.48 34.208C179.896 34.4427 180.334 34.56 180.792 34.56C181.262 34.56 181.699 34.4427 182.104 34.208C182.51 33.9733 182.835 33.632 183.08 33.184C183.336 32.7253 183.464 32.192 183.464 31.584ZM189.524 28.464C189.791 28.016 190.143 27.6693 190.58 27.424C191.028 27.168 191.556 27.04 192.164 27.04V28.928H191.7C190.985 28.928 190.441 29.1093 190.068 29.472C189.705 29.8347 189.524 30.464 189.524 31.36V36H187.7V27.184H189.524V28.464ZM195.969 28.672V33.552C195.969 33.8827 196.043 34.1227 196.193 34.272C196.353 34.4107 196.619 34.48 196.993 34.48H198.113V36H196.673C195.851 36 195.222 35.808 194.785 35.424C194.347 35.04 194.129 34.416 194.129 33.552V28.672H193.089V27.184H194.129V24.992H195.969V27.184H198.113V28.672H195.969ZM207.874 31.376C207.874 31.7067 207.852 32.0053 207.81 32.272H201.074C201.127 32.976 201.388 33.5413 201.858 33.968C202.327 34.3947 202.903 34.608 203.586 34.608C204.567 34.608 205.26 34.1973 205.666 33.376H207.634C207.367 34.1867 206.882 34.8533 206.178 35.376C205.484 35.888 204.62 36.144 203.586 36.144C202.743 36.144 201.986 35.9573 201.314 35.584C200.652 35.2 200.13 34.6667 199.746 33.984C199.372 33.2907 199.186 32.4907 199.186 31.584C199.186 30.6773 199.367 29.8827 199.73 29.2C200.103 28.5067 200.62 27.9733 201.282 27.6C201.954 27.2267 202.722 27.04 203.586 27.04C204.418 27.04 205.159 27.2213 205.81 27.584C206.46 27.9467 206.967 28.4587 207.33 29.12C207.692 29.7707 207.874 30.5227 207.874 31.376ZM205.97 30.8C205.959 30.128 205.719 29.5893 205.25 29.184C204.78 28.7787 204.199 28.576 203.506 28.576C202.876 28.576 202.338 28.7787 201.89 29.184C201.442 29.5787 201.175 30.1173 201.09 30.8H205.97ZM209.061 31.552C209.061 30.6667 209.242 29.8827 209.605 29.2C209.978 28.5173 210.479 27.9893 211.109 27.616C211.749 27.232 212.458 27.04 213.237 27.04C213.813 27.04 214.378 27.168 214.933 27.424C215.498 27.6693 215.946 28 216.277 28.416V24.16H218.117V36H216.277V34.672C215.978 35.0987 215.562 35.4507 215.029 35.728C214.506 36.0053 213.903 36.144 213.221 36.144C212.453 36.144 211.749 35.952 211.109 35.568C210.479 35.1733 209.978 34.6293 209.605 33.936C209.242 33.232 209.061 32.4373 209.061 31.552ZM216.277 31.584C216.277 30.976 216.149 30.448 215.893 30C215.647 29.552 215.322 29.2107 214.917 28.976C214.511 28.7413 214.074 28.624 213.605 28.624C213.135 28.624 212.698 28.7413 212.293 28.976C211.887 29.2 211.557 29.536 211.301 29.984C211.055 30.4213 210.933 30.944 210.933 31.552C210.933 32.16 211.055 32.6933 211.301 33.152C211.557 33.6107 211.887 33.9627 212.293 34.208C212.709 34.4427 213.146 34.56 213.605 34.56C214.074 34.56 214.511 34.4427 214.917 34.208C215.322 33.9733 215.647 33.632 215.893 33.184C216.149 32.7253 216.277 32.192 216.277 31.584Z" fill="white"/>
</svg>
