<svg width="55" height="55" viewBox="0 0 55 55" fill="none" xmlns="http://www.w3.org/2000/svg">
<rect width="55" height="55" rx="27.5" fill="#6442EF"/>
<path d="M29.6796 33.0711C29.6796 32.8811 29.7496 32.6911 29.8996 32.5411L35.4396 27.0011L29.8996 21.4611C29.6096 21.1711 29.6096 20.6911 29.8996 20.4011C30.1896 20.1111 30.6696 20.1111 30.9596 20.4011L37.0296 26.4711C37.3196 26.7611 37.3196 27.2411 37.0296 27.5311L30.9596 33.6011C30.6696 33.8911 30.1896 33.8911 29.8996 33.6011C29.7496 33.4611 29.6796 33.2611 29.6796 33.0711Z" fill="white"/>
<path d="M18.7501 27C18.7501 26.59 19.0901 26.25 19.5001 26.25L36.3301 26.25C36.7401 26.25 37.0801 26.59 37.0801 27C37.0801 27.41 36.7401 27.75 36.3301 27.75L19.5001 27.75C19.0901 27.75 18.7501 27.41 18.7501 27Z" fill="white"/>
</svg>
