<svg width="357" height="60" viewBox="0 0 357 60" fill="none" xmlns="http://www.w3.org/2000/svg">
<rect width="357" height="60" rx="12" fill="#6442EF"/>
<path d="M166.318 28.08C166.03 27.5253 165.63 27.1093 165.118 26.832C164.606 26.544 164.014 26.4 163.342 26.4C162.606 26.4 161.95 26.5653 161.374 26.896C160.798 27.2267 160.345 27.696 160.014 28.304C159.694 28.912 159.534 29.616 159.534 30.416C159.534 31.216 159.694 31.9253 160.014 32.544C160.345 33.152 160.798 33.6213 161.374 33.952C161.95 34.2827 162.606 34.448 163.342 34.448C164.334 34.448 165.14 34.1707 165.758 33.616C166.377 33.0613 166.756 32.3093 166.894 31.36H162.718V29.904H168.846V31.328C168.729 32.192 168.42 32.9867 167.918 33.712C167.428 34.4373 166.782 35.0187 165.982 35.456C165.193 35.8827 164.313 36.096 163.342 36.096C162.297 36.096 161.342 35.856 160.478 35.376C159.614 34.8853 158.926 34.208 158.414 33.344C157.913 32.48 157.662 31.504 157.662 30.416C157.662 29.328 157.913 28.352 158.414 27.488C158.926 26.624 159.614 25.952 160.478 25.472C161.353 24.9813 162.308 24.736 163.342 24.736C164.526 24.736 165.577 25.0293 166.494 25.616C167.422 26.192 168.094 27.0133 168.51 28.08H166.318ZM174.469 36.144C173.637 36.144 172.885 35.9573 172.213 35.584C171.541 35.2 171.013 34.6667 170.629 33.984C170.245 33.2907 170.053 32.4907 170.053 31.584C170.053 30.688 170.251 29.8933 170.645 29.2C171.04 28.5067 171.579 27.9733 172.261 27.6C172.944 27.2267 173.707 27.04 174.549 27.04C175.392 27.04 176.155 27.2267 176.837 27.6C177.52 27.9733 178.059 28.5067 178.453 29.2C178.848 29.8933 179.045 30.688 179.045 31.584C179.045 32.48 178.843 33.2747 178.437 33.968C178.032 34.6613 177.477 35.2 176.773 35.584C176.08 35.9573 175.312 36.144 174.469 36.144ZM174.469 34.56C174.939 34.56 175.376 34.448 175.781 34.224C176.197 34 176.533 33.664 176.789 33.216C177.045 32.768 177.173 32.224 177.173 31.584C177.173 30.944 177.051 30.4053 176.805 29.968C176.56 29.52 176.235 29.184 175.829 28.96C175.424 28.736 174.987 28.624 174.517 28.624C174.048 28.624 173.611 28.736 173.205 28.96C172.811 29.184 172.496 29.52 172.261 29.968C172.027 30.4053 171.909 30.944 171.909 31.584C171.909 32.5333 172.149 33.2693 172.629 33.792C173.12 34.304 173.733 34.56 174.469 34.56ZM182.976 28.672V33.552C182.976 33.8827 183.051 34.1227 183.2 34.272C183.36 34.4107 183.627 34.48 184 34.48H185.12V36H183.68C182.859 36 182.23 35.808 181.792 35.424C181.355 35.04 181.136 34.416 181.136 33.552V28.672H180.096V27.184H181.136V24.992H182.976V27.184H185.12V28.672H182.976ZM191.886 26.016C191.555 26.016 191.278 25.904 191.054 25.68C190.83 25.456 190.718 25.1787 190.718 24.848C190.718 24.5173 190.83 24.24 191.054 24.016C191.278 23.792 191.555 23.68 191.886 23.68C192.206 23.68 192.478 23.792 192.702 24.016C192.926 24.24 193.038 24.5173 193.038 24.848C193.038 25.1787 192.926 25.456 192.702 25.68C192.478 25.904 192.206 26.016 191.886 26.016ZM192.782 27.184V36H190.958V27.184H192.782ZM197.305 28.672V33.552C197.305 33.8827 197.379 34.1227 197.529 34.272C197.689 34.4107 197.955 34.48 198.329 34.48H199.449V36H198.009C197.187 36 196.558 35.808 196.121 35.424C195.683 35.04 195.465 34.416 195.465 33.552V28.672H194.425V27.184H195.465V24.992H197.305V27.184H199.449V28.672H197.305Z" fill="white"/>
</svg>
