<svg width="232" height="110" viewBox="0 0 232 110" fill="none" xmlns="http://www.w3.org/2000/svg">
<path d="M0.5 0.5H220C226.351 0.5 231.5 5.64873 231.5 12V98C231.5 104.351 226.351 109.5 220 109.5H12C5.64873 109.5 0.5 104.351 0.5 98V0.5Z" stroke="#939393"/>
<path d="M17.846 35.83H13.59L12.806 38H11.462L14.99 28.298H16.46L19.974 38H18.63L17.846 35.83ZM17.482 34.794L15.718 29.866L13.954 34.794H17.482ZM24.6336 31.378H23.0236V38H21.7496V31.378H20.7556V30.328H21.7496V29.782C21.7496 28.9233 21.9689 28.298 22.4076 27.906C22.8556 27.5047 23.5696 27.304 24.5496 27.304V28.368C23.9896 28.368 23.5929 28.48 23.3596 28.704C23.1356 28.9187 23.0236 29.278 23.0236 29.782V30.328H24.6336V31.378ZM27.673 31.378V35.9C27.673 36.2733 27.7523 36.5393 27.911 36.698C28.0697 36.8473 28.345 36.922 28.737 36.922H29.675V38H28.527C27.8177 38 27.2857 37.8367 26.931 37.51C26.5763 37.1833 26.399 36.6467 26.399 35.9V31.378H25.405V30.328H26.399V28.396H27.673V30.328H29.675V31.378H27.673ZM38.2186 33.87C38.2186 34.1127 38.2046 34.3693 38.1766 34.64H32.0446C32.0913 35.396 32.348 35.9887 32.8146 36.418C33.2906 36.838 33.8646 37.048 34.5366 37.048C35.0873 37.048 35.5446 36.922 35.9086 36.67C36.282 36.4087 36.5433 36.0633 36.6926 35.634H38.0646C37.8593 36.3713 37.4486 36.9733 36.8326 37.44C36.2166 37.8973 35.4513 38.126 34.5366 38.126C33.8086 38.126 33.1553 37.9627 32.5766 37.636C32.0073 37.3093 31.5593 36.8473 31.2326 36.25C30.906 35.6433 30.7426 34.9433 30.7426 34.15C30.7426 33.3567 30.9013 32.6613 31.2186 32.064C31.536 31.4667 31.9793 31.0093 32.5486 30.692C33.1273 30.3653 33.79 30.202 34.5366 30.202C35.2646 30.202 35.9086 30.3607 36.4686 30.678C37.0286 30.9953 37.458 31.434 37.7566 31.994C38.0646 32.5447 38.2186 33.17 38.2186 33.87ZM36.9026 33.604C36.9026 33.1187 36.7953 32.7033 36.5806 32.358C36.366 32.0033 36.072 31.7373 35.6986 31.56C35.3346 31.3733 34.9286 31.28 34.4806 31.28C33.8366 31.28 33.286 31.4853 32.8286 31.896C32.3806 32.3067 32.124 32.876 32.0586 33.604H36.9026ZM41.1743 31.574C41.3983 31.1353 41.7156 30.7947 42.1263 30.552C42.5463 30.3093 43.0549 30.188 43.6523 30.188V31.504H43.3163C41.8883 31.504 41.1743 32.2787 41.1743 33.828V38H39.9003V30.328H41.1743V31.574ZM51.5713 38.126C50.9833 38.126 50.456 38.028 49.9893 37.832C49.5227 37.6267 49.154 37.3467 48.8833 36.992C48.6127 36.628 48.4633 36.2127 48.4353 35.746H49.7513C49.7887 36.1287 49.966 36.4413 50.2833 36.684C50.61 36.9267 51.0347 37.048 51.5573 37.048C52.0427 37.048 52.4253 36.9407 52.7053 36.726C52.9853 36.5113 53.1253 36.2407 53.1253 35.914C53.1253 35.578 52.976 35.3307 52.6773 35.172C52.3787 35.004 51.9167 34.8407 51.2913 34.682C50.722 34.5327 50.2553 34.3833 49.8913 34.234C49.5367 34.0753 49.2287 33.8467 48.9673 33.548C48.7153 33.24 48.5893 32.8387 48.5893 32.344C48.5893 31.952 48.706 31.5927 48.9393 31.266C49.1727 30.9393 49.504 30.6827 49.9333 30.496C50.3627 30.3 50.8527 30.202 51.4033 30.202C52.2527 30.202 52.9387 30.4167 53.4613 30.846C53.984 31.2753 54.264 31.8633 54.3013 32.61H53.0273C52.9993 32.2087 52.836 31.8867 52.5373 31.644C52.248 31.4013 51.856 31.28 51.3613 31.28C50.904 31.28 50.54 31.378 50.2693 31.574C49.9987 31.77 49.8633 32.0267 49.8633 32.344C49.8633 32.596 49.9427 32.806 50.1013 32.974C50.2693 33.1327 50.4747 33.2633 50.7173 33.366C50.9693 33.4593 51.3147 33.5667 51.7533 33.688C52.304 33.8373 52.752 33.9867 53.0973 34.136C53.4427 34.276 53.7367 34.4907 53.9793 34.78C54.2313 35.0693 54.362 35.4473 54.3713 35.914C54.3713 36.334 54.2547 36.712 54.0213 37.048C53.788 37.384 53.4567 37.65 53.0273 37.846C52.6073 38.0327 52.122 38.126 51.5713 38.126ZM59.9778 30.188C60.5565 30.188 61.0791 30.314 61.5458 30.566C62.0125 30.8087 62.3765 31.1773 62.6378 31.672C62.9085 32.1667 63.0438 32.7687 63.0438 33.478V38H61.7838V33.66C61.7838 32.8947 61.5925 32.3113 61.2098 31.91C60.8271 31.4993 60.3045 31.294 59.6418 31.294C58.9698 31.294 58.4331 31.504 58.0318 31.924C57.6398 32.344 57.4438 32.9553 57.4438 33.758V38H56.1698V27.64H57.4438V31.42C57.6958 31.028 58.0411 30.7247 58.4798 30.51C58.9278 30.2953 59.4271 30.188 59.9778 30.188ZM64.6489 34.136C64.6489 33.352 64.8075 32.666 65.1249 32.078C65.4422 31.4807 65.8762 31.0187 66.4269 30.692C66.9869 30.3653 67.6075 30.202 68.2889 30.202C68.9609 30.202 69.5442 30.3467 70.0389 30.636C70.5335 30.9253 70.9022 31.2893 71.1449 31.728V30.328H72.4329V38H71.1449V36.572C70.8929 37.02 70.5149 37.3933 70.0109 37.692C69.5162 37.9813 68.9375 38.126 68.2749 38.126C67.5935 38.126 66.9775 37.958 66.4269 37.622C65.8762 37.286 65.4422 36.8147 65.1249 36.208C64.8075 35.6013 64.6489 34.9107 64.6489 34.136ZM71.1449 34.15C71.1449 33.5713 71.0282 33.0673 70.7949 32.638C70.5615 32.2087 70.2442 31.882 69.8429 31.658C69.4509 31.4247 69.0169 31.308 68.5409 31.308C68.0649 31.308 67.6309 31.42 67.2389 31.644C66.8469 31.868 66.5342 32.1947 66.3009 32.624C66.0675 33.0533 65.9509 33.5573 65.9509 34.136C65.9509 34.724 66.0675 35.2373 66.3009 35.676C66.5342 36.1053 66.8469 36.4367 67.2389 36.67C67.6309 36.894 68.0649 37.006 68.5409 37.006C69.0169 37.006 69.4509 36.894 69.8429 36.67C70.2442 36.4367 70.5615 36.1053 70.7949 35.676C71.0282 35.2373 71.1449 34.7287 71.1449 34.15ZM75.8598 31.574C76.0838 31.1353 76.4011 30.7947 76.8118 30.552C77.2318 30.3093 77.7405 30.188 78.3378 30.188V31.504H78.0018C76.5738 31.504 75.8598 32.2787 75.8598 33.828V38H74.5858V30.328H75.8598V31.574ZM80.4665 29.082C80.2238 29.082 80.0185 28.998 79.8505 28.83C79.6825 28.662 79.5985 28.4567 79.5985 28.214C79.5985 27.9713 79.6825 27.766 79.8505 27.598C80.0185 27.43 80.2238 27.346 80.4665 27.346C80.6998 27.346 80.8958 27.43 81.0545 27.598C81.2225 27.766 81.3065 27.9713 81.3065 28.214C81.3065 28.4567 81.2225 28.662 81.0545 28.83C80.8958 28.998 80.6998 29.082 80.4665 29.082ZM81.0825 30.328V38H79.8085V30.328H81.0825ZM86.9918 30.188C87.9251 30.188 88.6811 30.4727 89.2598 31.042C89.8384 31.602 90.1278 32.414 90.1278 33.478V38H88.8678V33.66C88.8678 32.8947 88.6764 32.3113 88.2938 31.91C87.9111 31.4993 87.3884 31.294 86.7258 31.294C86.0538 31.294 85.5171 31.504 85.1158 31.924C84.7238 32.344 84.5278 32.9553 84.5278 33.758V38H83.2538V30.328H84.5278V31.42C84.7798 31.028 85.1204 30.7247 85.5498 30.51C85.9884 30.2953 86.4691 30.188 86.9918 30.188ZM95.3729 30.202C96.0355 30.202 96.6142 30.3467 97.1089 30.636C97.6129 30.9253 97.9862 31.2893 98.2289 31.728V30.328H99.5169V38.168C99.5169 38.868 99.3675 39.4887 99.0689 40.03C98.7702 40.5807 98.3409 41.01 97.7809 41.318C97.2302 41.626 96.5862 41.78 95.8489 41.78C94.8409 41.78 94.0009 41.542 93.3289 41.066C92.6569 40.59 92.2602 39.9413 92.1389 39.12H93.3989C93.5389 39.5867 93.8282 39.96 94.2669 40.24C94.7055 40.5293 95.2329 40.674 95.8489 40.674C96.5489 40.674 97.1182 40.4547 97.5569 40.016C98.0049 39.5773 98.2289 38.9613 98.2289 38.168V36.558C97.9769 37.006 97.6035 37.3793 97.1089 37.678C96.6142 37.9767 96.0355 38.126 95.3729 38.126C94.6915 38.126 94.0709 37.958 93.5109 37.622C92.9602 37.286 92.5262 36.8147 92.2089 36.208C91.8915 35.6013 91.7329 34.9107 91.7329 34.136C91.7329 33.352 91.8915 32.666 92.2089 32.078C92.5262 31.4807 92.9602 31.0187 93.5109 30.692C94.0709 30.3653 94.6915 30.202 95.3729 30.202ZM98.2289 34.15C98.2289 33.5713 98.1122 33.0673 97.8789 32.638C97.6455 32.2087 97.3282 31.882 96.9269 31.658C96.5349 31.4247 96.1009 31.308 95.6249 31.308C95.1489 31.308 94.7149 31.42 94.3229 31.644C93.9309 31.868 93.6182 32.1947 93.3849 32.624C93.1515 33.0533 93.0349 33.5573 93.0349 34.136C93.0349 34.724 93.1515 35.2373 93.3849 35.676C93.6182 36.1053 93.9309 36.4367 94.3229 36.67C94.7149 36.894 95.1489 37.006 95.6249 37.006C96.1009 37.006 96.5349 36.894 96.9269 36.67C97.3282 36.4367 97.6455 36.1053 97.8789 35.676C98.1122 35.2373 98.2289 34.7287 98.2289 34.15ZM104.926 34.136C104.926 33.352 105.085 32.666 105.402 32.078C105.72 31.4807 106.154 31.0187 106.704 30.692C107.264 30.3653 107.885 30.202 108.566 30.202C109.238 30.202 109.822 30.3467 110.316 30.636C110.811 30.9253 111.18 31.2893 111.422 31.728V30.328H112.71V38H111.422V36.572C111.17 37.02 110.792 37.3933 110.288 37.692C109.794 37.9813 109.215 38.126 108.552 38.126C107.871 38.126 107.255 37.958 106.704 37.622C106.154 37.286 105.72 36.8147 105.402 36.208C105.085 35.6013 104.926 34.9107 104.926 34.136ZM111.422 34.15C111.422 33.5713 111.306 33.0673 111.072 32.638C110.839 32.2087 110.522 31.882 110.12 31.658C109.728 31.4247 109.294 31.308 108.818 31.308C108.342 31.308 107.908 31.42 107.516 31.644C107.124 31.868 106.812 32.1947 106.578 32.624C106.345 33.0533 106.228 33.5573 106.228 34.136C106.228 34.724 106.345 35.2373 106.578 35.676C106.812 36.1053 107.124 36.4367 107.516 36.67C107.908 36.894 108.342 37.006 108.818 37.006C109.294 37.006 109.728 36.894 110.12 36.67C110.522 36.4367 110.839 36.1053 111.072 35.676C111.306 35.2373 111.422 34.7287 111.422 34.15ZM119.87 31.742C120.122 31.3033 120.495 30.9393 120.99 30.65C121.494 30.3513 122.077 30.202 122.74 30.202C123.421 30.202 124.037 30.3653 124.588 30.692C125.148 31.0187 125.586 31.4807 125.904 32.078C126.221 32.666 126.38 33.352 126.38 34.136C126.38 34.9107 126.221 35.6013 125.904 36.208C125.586 36.8147 125.148 37.286 124.588 37.622C124.037 37.958 123.421 38.126 122.74 38.126C122.086 38.126 121.508 37.9813 121.004 37.692C120.509 37.3933 120.131 37.0247 119.87 36.586V41.64H118.596V30.328H119.87V31.742ZM125.078 34.136C125.078 33.5573 124.961 33.0533 124.728 32.624C124.494 32.1947 124.177 31.868 123.776 31.644C123.384 31.42 122.95 31.308 122.474 31.308C122.007 31.308 121.573 31.4247 121.172 31.658C120.78 31.882 120.462 32.2133 120.22 32.652C119.986 33.0813 119.87 33.5807 119.87 34.15C119.87 34.7287 119.986 35.2373 120.22 35.676C120.462 36.1053 120.78 36.4367 121.172 36.67C121.573 36.894 122.007 37.006 122.474 37.006C122.95 37.006 123.384 36.894 123.776 36.67C124.177 36.4367 124.494 36.1053 124.728 35.676C124.961 35.2373 125.078 34.724 125.078 34.136ZM135.057 33.87C135.057 34.1127 135.043 34.3693 135.015 34.64H128.883C128.929 35.396 129.186 35.9887 129.653 36.418C130.129 36.838 130.703 37.048 131.375 37.048C131.925 37.048 132.383 36.922 132.747 36.67C133.12 36.4087 133.381 36.0633 133.531 35.634H134.903C134.697 36.3713 134.287 36.9733 133.671 37.44C133.055 37.8973 132.289 38.126 131.375 38.126C130.647 38.126 129.993 37.9627 129.415 37.636C128.845 37.3093 128.397 36.8473 128.071 36.25C127.744 35.6433 127.581 34.9433 127.581 34.15C127.581 33.3567 127.739 32.6613 128.057 32.064C128.374 31.4667 128.817 31.0093 129.387 30.692C129.965 30.3653 130.628 30.202 131.375 30.202C132.103 30.202 132.747 30.3607 133.307 30.678C133.867 30.9953 134.296 31.434 134.595 31.994C134.903 32.5447 135.057 33.17 135.057 33.87ZM133.741 33.604C133.741 33.1187 133.633 32.7033 133.419 32.358C133.204 32.0033 132.91 31.7373 132.537 31.56C132.173 31.3733 131.767 31.28 131.319 31.28C130.675 31.28 130.124 31.4853 129.667 31.896C129.219 32.3067 128.962 32.876 128.897 33.604H133.741ZM138.012 31.574C138.236 31.1353 138.553 30.7947 138.964 30.552C139.384 30.3093 139.893 30.188 140.49 30.188V31.504H140.154C138.726 31.504 138.012 32.2787 138.012 33.828V38H136.738V30.328H138.012V31.574ZM144.677 38.126C144.089 38.126 143.561 38.028 143.095 37.832C142.628 37.6267 142.259 37.3467 141.989 36.992C141.718 36.628 141.569 36.2127 141.541 35.746H142.857C142.894 36.1287 143.071 36.4413 143.389 36.684C143.715 36.9267 144.14 37.048 144.663 37.048C145.148 37.048 145.531 36.9407 145.811 36.726C146.091 36.5113 146.231 36.2407 146.231 35.914C146.231 35.578 146.081 35.3307 145.783 35.172C145.484 35.004 145.022 34.8407 144.397 34.682C143.827 34.5327 143.361 34.3833 142.997 34.234C142.642 34.0753 142.334 33.8467 142.073 33.548C141.821 33.24 141.695 32.8387 141.695 32.344C141.695 31.952 141.811 31.5927 142.045 31.266C142.278 30.9393 142.609 30.6827 143.039 30.496C143.468 30.3 143.958 30.202 144.509 30.202C145.358 30.202 146.044 30.4167 146.567 30.846C147.089 31.2753 147.369 31.8633 147.407 32.61H146.133C146.105 32.2087 145.941 31.8867 145.643 31.644C145.353 31.4013 144.961 31.28 144.467 31.28C144.009 31.28 143.645 31.378 143.375 31.574C143.104 31.77 142.969 32.0267 142.969 32.344C142.969 32.596 143.048 32.806 143.207 32.974C143.375 33.1327 143.58 33.2633 143.823 33.366C144.075 33.4593 144.42 33.5667 144.859 33.688C145.409 33.8373 145.857 33.9867 146.203 34.136C146.548 34.276 146.842 34.4907 147.085 34.78C147.337 35.0693 147.467 35.4473 147.477 35.914C147.477 36.334 147.36 36.712 147.127 37.048C146.893 37.384 146.562 37.65 146.133 37.846C145.713 38.0327 145.227 38.126 144.677 38.126ZM152.621 38.126C151.903 38.126 151.249 37.9627 150.661 37.636C150.083 37.3093 149.625 36.8473 149.289 36.25C148.963 35.6433 148.799 34.9433 148.799 34.15C148.799 33.366 148.967 32.6753 149.303 32.078C149.649 31.4713 150.115 31.0093 150.703 30.692C151.291 30.3653 151.949 30.202 152.677 30.202C153.405 30.202 154.063 30.3653 154.651 30.692C155.239 31.0093 155.701 31.4667 156.037 32.064C156.383 32.6613 156.555 33.3567 156.555 34.15C156.555 34.9433 156.378 35.6433 156.023 36.25C155.678 36.8473 155.207 37.3093 154.609 37.636C154.012 37.9627 153.349 38.126 152.621 38.126ZM152.621 37.006C153.079 37.006 153.508 36.8987 153.909 36.684C154.311 36.4693 154.633 36.1473 154.875 35.718C155.127 35.2887 155.253 34.766 155.253 34.15C155.253 33.534 155.132 33.0113 154.889 32.582C154.647 32.1527 154.329 31.8353 153.937 31.63C153.545 31.4153 153.121 31.308 152.663 31.308C152.197 31.308 151.767 31.4153 151.375 31.63C150.993 31.8353 150.685 32.1527 150.451 32.582C150.218 33.0113 150.101 33.534 150.101 34.15C150.101 34.7753 150.213 35.3027 150.437 35.732C150.671 36.1613 150.979 36.4833 151.361 36.698C151.744 36.9033 152.164 37.006 152.621 37.006ZM161.968 30.188C162.902 30.188 163.658 30.4727 164.236 31.042C164.815 31.602 165.104 32.414 165.104 33.478V38H163.844V33.66C163.844 32.8947 163.653 32.3113 163.27 31.91C162.888 31.4993 162.365 31.294 161.702 31.294C161.03 31.294 160.494 31.504 160.092 31.924C159.7 32.344 159.504 32.9553 159.504 33.758V38H158.23V30.328H159.504V31.42C159.756 31.028 160.097 30.7247 160.526 30.51C160.965 30.2953 161.446 30.188 161.968 30.188ZM166.709 34.136C166.709 33.352 166.868 32.666 167.185 32.078C167.503 31.4807 167.937 31.0187 168.487 30.692C169.047 30.3653 169.668 30.202 170.349 30.202C171.021 30.202 171.605 30.3467 172.099 30.636C172.594 30.9253 172.963 31.2893 173.205 31.728V30.328H174.493V38H173.205V36.572C172.953 37.02 172.575 37.3933 172.071 37.692C171.577 37.9813 170.998 38.126 170.335 38.126C169.654 38.126 169.038 37.958 168.487 37.622C167.937 37.286 167.503 36.8147 167.185 36.208C166.868 35.6013 166.709 34.9107 166.709 34.136ZM173.205 34.15C173.205 33.5713 173.089 33.0673 172.855 32.638C172.622 32.2087 172.305 31.882 171.903 31.658C171.511 31.4247 171.077 31.308 170.601 31.308C170.125 31.308 169.691 31.42 169.299 31.644C168.907 31.868 168.595 32.1947 168.361 32.624C168.128 33.0533 168.011 33.5573 168.011 34.136C168.011 34.724 168.128 35.2373 168.361 35.676C168.595 36.1053 168.907 36.4367 169.299 36.67C169.691 36.894 170.125 37.006 170.601 37.006C171.077 37.006 171.511 36.894 171.903 36.67C172.305 36.4367 172.622 36.1053 172.855 35.676C173.089 35.2373 173.205 34.7287 173.205 34.15ZM177.92 27.64V38H176.646V27.64H177.92ZM186.54 38.126C185.952 38.126 185.425 38.028 184.958 37.832C184.491 37.6267 184.123 37.3467 183.852 36.992C183.581 36.628 183.432 36.2127 183.404 35.746H184.72C184.757 36.1287 184.935 36.4413 185.252 36.684C185.579 36.9267 186.003 37.048 186.526 37.048C187.011 37.048 187.394 36.9407 187.674 36.726C187.954 36.5113 188.094 36.2407 188.094 35.914C188.094 35.578 187.945 35.3307 187.646 35.172C187.347 35.004 186.885 34.8407 186.26 34.682C185.691 34.5327 185.224 34.3833 184.86 34.234C184.505 34.0753 184.197 33.8467 183.936 33.548C183.684 33.24 183.558 32.8387 183.558 32.344C183.558 31.952 183.675 31.5927 183.908 31.266C184.141 30.9393 184.473 30.6827 184.902 30.496C185.331 30.3 185.821 30.202 186.372 30.202C187.221 30.202 187.907 30.4167 188.43 30.846C188.953 31.2753 189.233 31.8633 189.27 32.61H187.996C187.968 32.2087 187.805 31.8867 187.506 31.644C187.217 31.4013 186.825 31.28 186.33 31.28C185.873 31.28 185.509 31.378 185.238 31.574C184.967 31.77 184.832 32.0267 184.832 32.344C184.832 32.596 184.911 32.806 185.07 32.974C185.238 33.1327 185.443 33.2633 185.686 33.366C185.938 33.4593 186.283 33.5667 186.722 33.688C187.273 33.8373 187.721 33.9867 188.066 34.136C188.411 34.276 188.705 34.4907 188.948 34.78C189.2 35.0693 189.331 35.4473 189.34 35.914C189.34 36.334 189.223 36.712 188.99 37.048C188.757 37.384 188.425 37.65 187.996 37.846C187.576 38.0327 187.091 38.126 186.54 38.126ZM192.693 31.378V35.9C192.693 36.2733 192.772 36.5393 192.931 36.698C193.089 36.8473 193.365 36.922 193.757 36.922H194.695V38H193.547C192.837 38 192.305 37.8367 191.951 37.51C191.596 37.1833 191.419 36.6467 191.419 35.9V31.378H190.425V30.328H191.419V28.396H192.693V30.328H194.695V31.378H192.693ZM199.584 38.126C198.865 38.126 198.212 37.9627 197.624 37.636C197.045 37.3093 196.588 36.8473 196.252 36.25C195.925 35.6433 195.762 34.9433 195.762 34.15C195.762 33.366 195.93 32.6753 196.266 32.078C196.611 31.4713 197.078 31.0093 197.666 30.692C198.254 30.3653 198.912 30.202 199.64 30.202C200.368 30.202 201.026 30.3653 201.614 30.692C202.202 31.0093 202.664 31.4667 203 32.064C203.345 32.6613 203.518 33.3567 203.518 34.15C203.518 34.9433 203.341 35.6433 202.986 36.25C202.641 36.8473 202.169 37.3093 201.572 37.636C200.975 37.9627 200.312 38.126 199.584 38.126ZM199.584 37.006C200.041 37.006 200.471 36.8987 200.872 36.684C201.273 36.4693 201.595 36.1473 201.838 35.718C202.09 35.2887 202.216 34.766 202.216 34.15C202.216 33.534 202.095 33.0113 201.852 32.582C201.609 32.1527 201.292 31.8353 200.9 31.63C200.508 31.4153 200.083 31.308 199.626 31.308C199.159 31.308 198.73 31.4153 198.338 31.63C197.955 31.8353 197.647 32.1527 197.414 32.582C197.181 33.0113 197.064 33.534 197.064 34.15C197.064 34.7753 197.176 35.3027 197.4 35.732C197.633 36.1613 197.941 36.4833 198.324 36.698C198.707 36.9033 199.127 37.006 199.584 37.006ZM206.467 31.574C206.691 31.1353 207.009 30.7947 207.419 30.552C207.839 30.3093 208.348 30.188 208.945 30.188V31.504H208.609C207.181 31.504 206.467 32.2787 206.467 33.828V38H205.193V30.328H206.467V31.574ZM217.024 30.328L212.404 41.612H211.088L212.6 37.916L209.506 30.328H210.92L213.328 36.544L215.708 30.328H217.024ZM219.621 36.236L218.053 40.002H217.199L218.221 36.236H219.621ZM11.602 55.136C11.602 54.352 11.7607 53.666 12.078 53.078C12.3953 52.4807 12.8293 52.0187 13.38 51.692C13.94 51.3653 14.5653 51.202 15.256 51.202C15.8533 51.202 16.4087 51.342 16.922 51.622C17.4353 51.8927 17.8273 52.252 18.098 52.7V48.64H19.386V59H18.098V57.558C17.846 58.0153 17.4727 58.3933 16.978 58.692C16.4833 58.9813 15.9047 59.126 15.242 59.126C14.5607 59.126 13.94 58.958 13.38 58.622C12.8293 58.286 12.3953 57.8147 12.078 57.208C11.7607 56.6013 11.602 55.9107 11.602 55.136ZM18.098 55.15C18.098 54.5713 17.9813 54.0673 17.748 53.638C17.5147 53.2087 17.1973 52.882 16.796 52.658C16.404 52.4247 15.97 52.308 15.494 52.308C15.018 52.308 14.584 52.42 14.192 52.644C13.8 52.868 13.4873 53.1947 13.254 53.624C13.0207 54.0533 12.904 54.5573 12.904 55.136C12.904 55.724 13.0207 56.2373 13.254 56.676C13.4873 57.1053 13.8 57.4367 14.192 57.67C14.584 57.894 15.018 58.006 15.494 58.006C15.97 58.006 16.404 57.894 16.796 57.67C17.1973 57.4367 17.5147 57.1053 17.748 56.676C17.9813 56.2373 18.098 55.7287 18.098 55.15ZM24.8849 59.126C24.1663 59.126 23.5129 58.9627 22.9249 58.636C22.3463 58.3093 21.8889 57.8473 21.5529 57.25C21.2263 56.6433 21.0629 55.9433 21.0629 55.15C21.0629 54.366 21.2309 53.6753 21.5669 53.078C21.9123 52.4713 22.3789 52.0093 22.9669 51.692C23.5549 51.3653 24.2129 51.202 24.9409 51.202C25.6689 51.202 26.3269 51.3653 26.9149 51.692C27.5029 52.0093 27.9649 52.4667 28.3009 53.064C28.6463 53.6613 28.8189 54.3567 28.8189 55.15C28.8189 55.9433 28.6416 56.6433 28.2869 57.25C27.9416 57.8473 27.4703 58.3093 26.8729 58.636C26.2756 58.9627 25.6129 59.126 24.8849 59.126ZM24.8849 58.006C25.3423 58.006 25.7716 57.8987 26.1729 57.684C26.5743 57.4693 26.8963 57.1473 27.1389 56.718C27.3909 56.2887 27.5169 55.766 27.5169 55.15C27.5169 54.534 27.3956 54.0113 27.1529 53.582C26.9103 53.1527 26.5929 52.8353 26.2009 52.63C25.8089 52.4153 25.3843 52.308 24.9269 52.308C24.4603 52.308 24.0309 52.4153 23.6389 52.63C23.2563 52.8353 22.9483 53.1527 22.7149 53.582C22.4816 54.0113 22.3649 54.534 22.3649 55.15C22.3649 55.7753 22.4769 56.3027 22.7009 56.732C22.9343 57.1613 23.2423 57.4833 23.6249 57.698C24.0076 57.9033 24.4276 58.006 24.8849 58.006ZM40.8344 51.328L36.2144 62.612H34.8984L36.4104 58.916L33.3164 51.328H34.7304L37.1384 57.544L39.5184 51.328H40.8344ZM45.4611 59.126C44.7424 59.126 44.0891 58.9627 43.5011 58.636C42.9224 58.3093 42.4651 57.8473 42.1291 57.25C41.8024 56.6433 41.6391 55.9433 41.6391 55.15C41.6391 54.366 41.8071 53.6753 42.1431 53.078C42.4884 52.4713 42.9551 52.0093 43.5431 51.692C44.1311 51.3653 44.7891 51.202 45.5171 51.202C46.2451 51.202 46.9031 51.3653 47.4911 51.692C48.0791 52.0093 48.5411 52.4667 48.8771 53.064C49.2224 53.6613 49.3951 54.3567 49.3951 55.15C49.3951 55.9433 49.2178 56.6433 48.8631 57.25C48.5178 57.8473 48.0464 58.3093 47.4491 58.636C46.8518 58.9627 46.1891 59.126 45.4611 59.126ZM45.4611 58.006C45.9184 58.006 46.3478 57.8987 46.7491 57.684C47.1504 57.4693 47.4724 57.1473 47.7151 56.718C47.9671 56.2887 48.0931 55.766 48.0931 55.15C48.0931 54.534 47.9718 54.0113 47.7291 53.582C47.4864 53.1527 47.1691 52.8353 46.7771 52.63C46.3851 52.4153 45.9604 52.308 45.5031 52.308C45.0364 52.308 44.6071 52.4153 44.2151 52.63C43.8324 52.8353 43.5244 53.1527 43.2911 53.582C43.0578 54.0113 42.9411 54.534 42.9411 55.15C42.9411 55.7753 43.0531 56.3027 43.2771 56.732C43.5104 57.1613 43.8184 57.4833 44.2011 57.698C44.5838 57.9033 45.0038 58.006 45.4611 58.006ZM57.8742 51.328V59H56.6002V57.866C56.3575 58.258 56.0169 58.566 55.5782 58.79C55.1489 59.0047 54.6729 59.112 54.1502 59.112C53.5529 59.112 53.0162 58.9907 52.5402 58.748C52.0642 58.496 51.6862 58.1227 51.4062 57.628C51.1355 57.1333 51.0002 56.5313 51.0002 55.822V51.328H52.2602V55.654C52.2602 56.41 52.4515 56.9933 52.8342 57.404C53.2169 57.8053 53.7395 58.006 54.4022 58.006C55.0835 58.006 55.6202 57.796 56.0122 57.376C56.4042 56.956 56.6002 56.3447 56.6002 55.542V51.328H57.8742ZM66.4737 59.126C65.8857 59.126 65.3584 59.028 64.8917 58.832C64.425 58.6267 64.0564 58.3467 63.7857 57.992C63.515 57.628 63.3657 57.2127 63.3377 56.746H64.6537C64.691 57.1287 64.8684 57.4413 65.1857 57.684C65.5124 57.9267 65.937 58.048 66.4597 58.048C66.945 58.048 67.3277 57.9407 67.6077 57.726C67.8877 57.5113 68.0277 57.2407 68.0277 56.914C68.0277 56.578 67.8784 56.3307 67.5797 56.172C67.281 56.004 66.819 55.8407 66.1937 55.682C65.6244 55.5327 65.1577 55.3833 64.7937 55.234C64.439 55.0753 64.131 54.8467 63.8697 54.548C63.6177 54.24 63.4917 53.8387 63.4917 53.344C63.4917 52.952 63.6084 52.5927 63.8417 52.266C64.075 51.9393 64.4064 51.6827 64.8357 51.496C65.265 51.3 65.755 51.202 66.3057 51.202C67.155 51.202 67.841 51.4167 68.3637 51.846C68.8864 52.2753 69.1664 52.8633 69.2037 53.61H67.9297C67.9017 53.2087 67.7384 52.8867 67.4397 52.644C67.1504 52.4013 66.7584 52.28 66.2637 52.28C65.8064 52.28 65.4424 52.378 65.1717 52.574C64.901 52.77 64.7657 53.0267 64.7657 53.344C64.7657 53.596 64.845 53.806 65.0037 53.974C65.1717 54.1327 65.377 54.2633 65.6197 54.366C65.8717 54.4593 66.217 54.5667 66.6557 54.688C67.2064 54.8373 67.6544 54.9867 67.9997 55.136C68.345 55.276 68.639 55.4907 68.8817 55.78C69.1337 56.0693 69.2644 56.4473 69.2737 56.914C69.2737 57.334 69.157 57.712 68.9237 58.048C68.6904 58.384 68.359 58.65 67.9297 58.846C67.5097 59.0327 67.0244 59.126 66.4737 59.126ZM78.0721 54.87C78.0721 55.1127 78.0581 55.3693 78.0301 55.64H71.8981C71.9448 56.396 72.2015 56.9887 72.6681 57.418C73.1441 57.838 73.7181 58.048 74.3901 58.048C74.9408 58.048 75.3981 57.922 75.7621 57.67C76.1355 57.4087 76.3968 57.0633 76.5461 56.634H77.9181C77.7128 57.3713 77.3021 57.9733 76.6861 58.44C76.0701 58.8973 75.3048 59.126 74.3901 59.126C73.6621 59.126 73.0088 58.9627 72.4301 58.636C71.8608 58.3093 71.4128 57.8473 71.0861 57.25C70.7595 56.6433 70.5961 55.9433 70.5961 55.15C70.5961 54.3567 70.7548 53.6613 71.0721 53.064C71.3895 52.4667 71.8328 52.0093 72.4021 51.692C72.9808 51.3653 73.6435 51.202 74.3901 51.202C75.1181 51.202 75.7621 51.3607 76.3221 51.678C76.8821 51.9953 77.3115 52.434 77.6101 52.994C77.9181 53.5447 78.0721 54.17 78.0721 54.87ZM76.7561 54.604C76.7561 54.1187 76.6488 53.7033 76.4341 53.358C76.2195 53.0033 75.9255 52.7373 75.5521 52.56C75.1881 52.3733 74.7821 52.28 74.3341 52.28C73.6901 52.28 73.1395 52.4853 72.6821 52.896C72.2341 53.3067 71.9775 53.876 71.9121 54.604H76.7561ZM83.4918 51.188C84.4251 51.188 85.1811 51.4727 85.7598 52.042C86.3384 52.602 86.6278 53.414 86.6278 54.478V59H85.3678V54.66C85.3678 53.8947 85.1764 53.3113 84.7938 52.91C84.4111 52.4993 83.8884 52.294 83.2258 52.294C82.5538 52.294 82.0171 52.504 81.6158 52.924C81.2238 53.344 81.0278 53.9553 81.0278 54.758V59H79.7538V51.328H81.0278V52.42C81.2798 52.028 81.6204 51.7247 82.0498 51.51C82.4884 51.2953 82.9691 51.188 83.4918 51.188ZM91.4249 59.126C90.8369 59.126 90.3095 59.028 89.8429 58.832C89.3762 58.6267 89.0075 58.3467 88.7369 57.992C88.4662 57.628 88.3169 57.2127 88.2889 56.746H89.6049C89.6422 57.1287 89.8195 57.4413 90.1369 57.684C90.4635 57.9267 90.8882 58.048 91.4109 58.048C91.8962 58.048 92.2789 57.9407 92.5589 57.726C92.8389 57.5113 92.9789 57.2407 92.9789 56.914C92.9789 56.578 92.8295 56.3307 92.5309 56.172C92.2322 56.004 91.7702 55.8407 91.1449 55.682C90.5755 55.5327 90.1089 55.3833 89.7449 55.234C89.3902 55.0753 89.0822 54.8467 88.8209 54.548C88.5689 54.24 88.4429 53.8387 88.4429 53.344C88.4429 52.952 88.5595 52.5927 88.7929 52.266C89.0262 51.9393 89.3575 51.6827 89.7869 51.496C90.2162 51.3 90.7062 51.202 91.2569 51.202C92.1062 51.202 92.7922 51.4167 93.3149 51.846C93.8375 52.2753 94.1175 52.8633 94.1549 53.61H92.8809C92.8529 53.2087 92.6895 52.8867 92.3909 52.644C92.1015 52.4013 91.7095 52.28 91.2149 52.28C90.7575 52.28 90.3935 52.378 90.1229 52.574C89.8522 52.77 89.7169 53.0267 89.7169 53.344C89.7169 53.596 89.7962 53.806 89.9549 53.974C90.1229 54.1327 90.3282 54.2633 90.5709 54.366C90.8229 54.4593 91.1682 54.5667 91.6069 54.688C92.1575 54.8373 92.6055 54.9867 92.9509 55.136C93.2962 55.276 93.5902 55.4907 93.8329 55.78C94.0849 56.0693 94.2155 56.4473 94.2249 56.914C94.2249 57.334 94.1082 57.712 93.8749 58.048C93.6415 58.384 93.3102 58.65 92.8809 58.846C92.4609 59.0327 91.9755 59.126 91.4249 59.126ZM103.023 54.87C103.023 55.1127 103.009 55.3693 102.981 55.64H96.8493C96.896 56.396 97.1526 56.9887 97.6193 57.418C98.0953 57.838 98.6693 58.048 99.3413 58.048C99.892 58.048 100.349 57.922 100.713 57.67C101.087 57.4087 101.348 57.0633 101.497 56.634H102.869C102.664 57.3713 102.253 57.9733 101.637 58.44C101.021 58.8973 100.256 59.126 99.3413 59.126C98.6133 59.126 97.96 58.9627 97.3813 58.636C96.812 58.3093 96.364 57.8473 96.0373 57.25C95.7106 56.6433 95.5473 55.9433 95.5473 55.15C95.5473 54.3567 95.706 53.6613 96.0233 53.064C96.3406 52.4667 96.784 52.0093 97.3533 51.692C97.932 51.3653 98.5946 51.202 99.3413 51.202C100.069 51.202 100.713 51.3607 101.273 51.678C101.833 51.9953 102.263 52.434 102.561 52.994C102.869 53.5447 103.023 54.17 103.023 54.87ZM101.707 54.604C101.707 54.1187 101.6 53.7033 101.385 53.358C101.171 53.0033 100.877 52.7373 100.503 52.56C100.139 52.3733 99.7333 52.28 99.2853 52.28C98.6413 52.28 98.0906 52.4853 97.6333 52.896C97.1853 53.3067 96.9286 53.876 96.8633 54.604H101.707ZM111.783 59.126C111.065 59.126 110.411 58.9627 109.823 58.636C109.245 58.3093 108.787 57.8473 108.451 57.25C108.125 56.6433 107.961 55.9433 107.961 55.15C107.961 54.366 108.129 53.6753 108.465 53.078C108.811 52.4713 109.277 52.0093 109.865 51.692C110.453 51.3653 111.111 51.202 111.839 51.202C112.567 51.202 113.225 51.3653 113.813 51.692C114.401 52.0093 114.863 52.4667 115.199 53.064C115.545 53.6613 115.717 54.3567 115.717 55.15C115.717 55.9433 115.54 56.6433 115.185 57.25C114.84 57.8473 114.369 58.3093 113.771 58.636C113.174 58.9627 112.511 59.126 111.783 59.126ZM111.783 58.006C112.241 58.006 112.67 57.8987 113.071 57.684C113.473 57.4693 113.795 57.1473 114.037 56.718C114.289 56.2887 114.415 55.766 114.415 55.15C114.415 54.534 114.294 54.0113 114.051 53.582C113.809 53.1527 113.491 52.8353 113.099 52.63C112.707 52.4153 112.283 52.308 111.825 52.308C111.359 52.308 110.929 52.4153 110.537 52.63C110.155 52.8353 109.847 53.1527 109.613 53.582C109.38 54.0113 109.263 54.534 109.263 55.15C109.263 55.7753 109.375 56.3027 109.599 56.732C109.833 57.1613 110.141 57.4833 110.523 57.698C110.906 57.9033 111.326 58.006 111.783 58.006ZM118.946 52.378V56.9C118.946 57.2733 119.026 57.5393 119.184 57.698C119.343 57.8473 119.618 57.922 120.01 57.922H120.948V59H119.8C119.091 59 118.559 58.8367 118.204 58.51C117.85 58.1833 117.672 57.6467 117.672 56.9V52.378H116.678V51.328H117.672V49.396H118.946V51.328H120.948V52.378H118.946ZM126.3 51.188C126.879 51.188 127.401 51.314 127.868 51.566C128.335 51.8087 128.699 52.1773 128.96 52.672C129.231 53.1667 129.366 53.7687 129.366 54.478V59H128.106V54.66C128.106 53.8947 127.915 53.3113 127.532 52.91C127.149 52.4993 126.627 52.294 125.964 52.294C125.292 52.294 124.755 52.504 124.354 52.924C123.962 53.344 123.766 53.9553 123.766 54.758V59H122.492V48.64H123.766V52.42C124.018 52.028 124.363 51.7247 124.802 51.51C125.25 51.2953 125.749 51.188 126.3 51.188ZM138.447 54.87C138.447 55.1127 138.433 55.3693 138.405 55.64H132.273C132.32 56.396 132.576 56.9887 133.043 57.418C133.519 57.838 134.093 58.048 134.765 58.048C135.316 58.048 135.773 57.922 136.137 57.67C136.51 57.4087 136.772 57.0633 136.921 56.634H138.293C138.088 57.3713 137.677 57.9733 137.061 58.44C136.445 58.8973 135.68 59.126 134.765 59.126C134.037 59.126 133.384 58.9627 132.805 58.636C132.236 58.3093 131.788 57.8473 131.461 57.25C131.134 56.6433 130.971 55.9433 130.971 55.15C130.971 54.3567 131.13 53.6613 131.447 53.064C131.764 52.4667 132.208 52.0093 132.777 51.692C133.356 51.3653 134.018 51.202 134.765 51.202C135.493 51.202 136.137 51.3607 136.697 51.678C137.257 51.9953 137.686 52.434 137.985 52.994C138.293 53.5447 138.447 54.17 138.447 54.87ZM137.131 54.604C137.131 54.1187 137.024 53.7033 136.809 53.358C136.594 53.0033 136.3 52.7373 135.927 52.56C135.563 52.3733 135.157 52.28 134.709 52.28C134.065 52.28 133.514 52.4853 133.057 52.896C132.609 53.3067 132.352 53.876 132.287 54.604H137.131ZM141.403 52.574C141.627 52.1353 141.944 51.7947 142.355 51.552C142.775 51.3093 143.283 51.188 143.881 51.188V52.504H143.545C142.117 52.504 141.403 53.2787 141.403 54.828V59H140.129V51.328H141.403V52.574ZM148.067 59.126C147.479 59.126 146.952 59.028 146.485 58.832C146.019 58.6267 145.65 58.3467 145.379 57.992C145.109 57.628 144.959 57.2127 144.931 56.746H146.247C146.285 57.1287 146.462 57.4413 146.779 57.684C147.106 57.9267 147.531 58.048 148.053 58.048C148.539 58.048 148.921 57.9407 149.201 57.726C149.481 57.5113 149.621 57.2407 149.621 56.914C149.621 56.578 149.472 56.3307 149.173 56.172C148.875 56.004 148.413 55.8407 147.787 55.682C147.218 55.5327 146.751 55.3833 146.387 55.234C146.033 55.0753 145.725 54.8467 145.463 54.548C145.211 54.24 145.085 53.8387 145.085 53.344C145.085 52.952 145.202 52.5927 145.435 52.266C145.669 51.9393 146 51.6827 146.429 51.496C146.859 51.3 147.349 51.202 147.899 51.202C148.749 51.202 149.435 51.4167 149.957 51.846C150.48 52.2753 150.76 52.8633 150.797 53.61H149.523C149.495 53.2087 149.332 52.8867 149.033 52.644C148.744 52.4013 148.352 52.28 147.857 52.28C147.4 52.28 147.036 52.378 146.765 52.574C146.495 52.77 146.359 53.0267 146.359 53.344C146.359 53.596 146.439 53.806 146.597 53.974C146.765 54.1327 146.971 54.2633 147.213 54.366C147.465 54.4593 147.811 54.5667 148.249 54.688C148.8 54.8373 149.248 54.9867 149.593 55.136C149.939 55.276 150.233 55.4907 150.475 55.78C150.727 56.0693 150.858 56.4473 150.867 56.914C150.867 57.334 150.751 57.712 150.517 58.048C150.284 58.384 149.953 58.65 149.523 58.846C149.103 59.0327 148.618 59.126 148.067 59.126ZM153.31 47.856L153.142 50.642H152.26L152.078 47.856H153.31ZM19.078 75.87C19.078 76.1127 19.064 76.3693 19.036 76.64H12.904C12.9507 77.396 13.2073 77.9887 13.674 78.418C14.15 78.838 14.724 79.048 15.396 79.048C15.9467 79.048 16.404 78.922 16.768 78.67C17.1413 78.4087 17.4027 78.0633 17.552 77.634H18.924C18.7187 78.3713 18.308 78.9733 17.692 79.44C17.076 79.8973 16.3107 80.126 15.396 80.126C14.668 80.126 14.0147 79.9627 13.436 79.636C12.8667 79.3093 12.4187 78.8473 12.092 78.25C11.7653 77.6433 11.602 76.9433 11.602 76.15C11.602 75.3567 11.7607 74.6613 12.078 74.064C12.3953 73.4667 12.8387 73.0093 13.408 72.692C13.9867 72.3653 14.6493 72.202 15.396 72.202C16.124 72.202 16.768 72.3607 17.328 72.678C17.888 72.9953 18.3173 73.434 18.616 73.994C18.924 74.5447 19.078 75.17 19.078 75.87ZM17.762 75.604C17.762 75.1187 17.6547 74.7033 17.44 74.358C17.2253 74.0033 16.9313 73.7373 16.558 73.56C16.194 73.3733 15.788 73.28 15.34 73.28C14.696 73.28 14.1453 73.4853 13.688 73.896C13.24 74.3067 12.9833 74.876 12.918 75.604H17.762ZM29.9856 72.188C30.583 72.188 31.115 72.314 31.5816 72.566C32.0483 72.8087 32.417 73.1773 32.6876 73.672C32.9583 74.1667 33.0936 74.7687 33.0936 75.478V80H31.8336V75.66C31.8336 74.8947 31.6423 74.3113 31.2596 73.91C30.8863 73.4993 30.3776 73.294 29.7336 73.294C29.071 73.294 28.5436 73.5087 28.1516 73.938C27.7596 74.358 27.5636 74.9693 27.5636 75.772V80H26.3036V75.66C26.3036 74.8947 26.1123 74.3113 25.7296 73.91C25.3563 73.4993 24.8476 73.294 24.2036 73.294C23.541 73.294 23.0136 73.5087 22.6216 73.938C22.2296 74.358 22.0336 74.9693 22.0336 75.772V80H20.7596V72.328H22.0336V73.434C22.2856 73.0327 22.6216 72.7247 23.0416 72.51C23.471 72.2953 23.9423 72.188 24.4556 72.188C25.0996 72.188 25.669 72.3327 26.1636 72.622C26.6583 72.9113 27.027 73.336 27.2696 73.896C27.4843 73.3547 27.839 72.9347 28.3336 72.636C28.8283 72.3373 29.379 72.188 29.9856 72.188ZM36.4575 73.742C36.7095 73.3033 37.0828 72.9393 37.5775 72.65C38.0815 72.3513 38.6648 72.202 39.3275 72.202C40.0088 72.202 40.6248 72.3653 41.1755 72.692C41.7355 73.0187 42.1741 73.4807 42.4915 74.078C42.8088 74.666 42.9675 75.352 42.9675 76.136C42.9675 76.9107 42.8088 77.6013 42.4915 78.208C42.1741 78.8147 41.7355 79.286 41.1755 79.622C40.6248 79.958 40.0088 80.126 39.3275 80.126C38.6741 80.126 38.0955 79.9813 37.5915 79.692C37.0968 79.3933 36.7188 79.0247 36.4575 78.586V83.64H35.1835V72.328H36.4575V73.742ZM41.6655 76.136C41.6655 75.5573 41.5488 75.0533 41.3155 74.624C41.0821 74.1947 40.7648 73.868 40.3635 73.644C39.9715 73.42 39.5375 73.308 39.0615 73.308C38.5948 73.308 38.1608 73.4247 37.7595 73.658C37.3675 73.882 37.0501 74.2133 36.8075 74.652C36.5741 75.0813 36.4575 75.5807 36.4575 76.15C36.4575 76.7287 36.5741 77.2373 36.8075 77.676C37.0501 78.1053 37.3675 78.4367 37.7595 78.67C38.1608 78.894 38.5948 79.006 39.0615 79.006C39.5375 79.006 39.9715 78.894 40.3635 78.67C40.7648 78.4367 41.0821 78.1053 41.3155 77.676C41.5488 77.2373 41.6655 76.724 41.6655 76.136ZM44.1684 76.136C44.1684 75.352 44.3271 74.666 44.6444 74.078C44.9617 73.4807 45.3957 73.0187 45.9464 72.692C46.5064 72.3653 47.1271 72.202 47.8084 72.202C48.4804 72.202 49.0637 72.3467 49.5584 72.636C50.0531 72.9253 50.4217 73.2893 50.6644 73.728V72.328H51.9524V80H50.6644V78.572C50.4124 79.02 50.0344 79.3933 49.5304 79.692C49.0357 79.9813 48.4571 80.126 47.7944 80.126C47.1131 80.126 46.4971 79.958 45.9464 79.622C45.3957 79.286 44.9617 78.8147 44.6444 78.208C44.3271 77.6013 44.1684 76.9107 44.1684 76.136ZM50.6644 76.15C50.6644 75.5713 50.5477 75.0673 50.3144 74.638C50.0811 74.2087 49.7637 73.882 49.3624 73.658C48.9704 73.4247 48.5364 73.308 48.0604 73.308C47.5844 73.308 47.1504 73.42 46.7584 73.644C46.3664 73.868 46.0537 74.1947 45.8204 74.624C45.5871 75.0533 45.4704 75.5573 45.4704 76.136C45.4704 76.724 45.5871 77.2373 45.8204 77.676C46.0537 78.1053 46.3664 78.4367 46.7584 78.67C47.1504 78.894 47.5844 79.006 48.0604 79.006C48.5364 79.006 48.9704 78.894 49.3624 78.67C49.7637 78.4367 50.0811 78.1053 50.3144 77.676C50.5477 77.2373 50.6644 76.7287 50.6644 76.15ZM55.6593 73.378V77.9C55.6593 78.2733 55.7387 78.5393 55.8973 78.698C56.056 78.8473 56.3313 78.922 56.7233 78.922H57.6613V80H56.5133C55.804 80 55.272 79.8367 54.9173 79.51C54.5627 79.1833 54.3853 78.6467 54.3853 77.9V73.378H53.3913V72.328H54.3853V70.396H55.6593V72.328H57.6613V73.378H55.6593ZM63.013 72.188C63.5916 72.188 64.1143 72.314 64.581 72.566C65.0476 72.8087 65.4116 73.1773 65.673 73.672C65.9436 74.1667 66.079 74.7687 66.079 75.478V80H64.819V75.66C64.819 74.8947 64.6276 74.3113 64.245 73.91C63.8623 73.4993 63.3396 73.294 62.677 73.294C62.005 73.294 61.4683 73.504 61.067 73.924C60.675 74.344 60.479 74.9553 60.479 75.758V80H59.205V69.64H60.479V73.42C60.731 73.028 61.0763 72.7247 61.515 72.51C61.963 72.2953 62.4623 72.188 63.013 72.188ZM74.768 72.328L70.148 83.612H68.832L70.344 79.916L67.25 72.328H68.664L71.072 78.544L73.452 72.328H74.768ZM81.3351 73.378V77.9C81.3351 78.2733 81.4145 78.5393 81.5731 78.698C81.7318 78.8473 82.0071 78.922 82.3991 78.922H83.3371V80H82.1891C81.4798 80 80.9478 79.8367 80.5931 79.51C80.2385 79.1833 80.0611 78.6467 80.0611 77.9V73.378H79.0671V72.328H80.0611V70.396H81.3351V72.328H83.3371V73.378H81.3351ZM88.2267 80.126C87.5081 80.126 86.8547 79.9627 86.2667 79.636C85.6881 79.3093 85.2307 78.8473 84.8947 78.25C84.5681 77.6433 84.4047 76.9433 84.4047 76.15C84.4047 75.366 84.5727 74.6753 84.9087 74.078C85.2541 73.4713 85.7207 73.0093 86.3087 72.692C86.8967 72.3653 87.5547 72.202 88.2827 72.202C89.0107 72.202 89.6687 72.3653 90.2567 72.692C90.8447 73.0093 91.3067 73.4667 91.6427 74.064C91.9881 74.6613 92.1607 75.3567 92.1607 76.15C92.1607 76.9433 91.9834 77.6433 91.6287 78.25C91.2834 78.8473 90.8121 79.3093 90.2147 79.636C89.6174 79.9627 88.9547 80.126 88.2267 80.126ZM88.2267 79.006C88.6841 79.006 89.1134 78.8987 89.5147 78.684C89.9161 78.4693 90.2381 78.1473 90.4807 77.718C90.7327 77.2887 90.8587 76.766 90.8587 76.15C90.8587 75.534 90.7374 75.0113 90.4947 74.582C90.2521 74.1527 89.9347 73.8353 89.5427 73.63C89.1507 73.4153 88.7261 73.308 88.2687 73.308C87.8021 73.308 87.3727 73.4153 86.9807 73.63C86.5981 73.8353 86.2901 74.1527 86.0567 74.582C85.8234 75.0113 85.7067 75.534 85.7067 76.15C85.7067 76.7753 85.8187 77.3027 86.0427 77.732C86.2761 78.1613 86.5841 78.4833 86.9667 78.698C87.3494 78.9033 87.7694 79.006 88.2267 79.006ZM104.056 72.328L101.662 80H100.346L98.4978 73.91L96.6498 80H95.3338L92.9258 72.328H94.2278L95.9918 78.768L97.8958 72.328H99.1978L101.06 78.782L102.796 72.328H104.056ZM104.844 76.136C104.844 75.352 105.003 74.666 105.32 74.078C105.638 73.4807 106.072 73.0187 106.622 72.692C107.182 72.3653 107.803 72.202 108.484 72.202C109.156 72.202 109.74 72.3467 110.234 72.636C110.729 72.9253 111.098 73.2893 111.34 73.728V72.328H112.628V80H111.34V78.572C111.088 79.02 110.71 79.3933 110.206 79.692C109.712 79.9813 109.133 80.126 108.47 80.126C107.789 80.126 107.173 79.958 106.622 79.622C106.072 79.286 105.638 78.8147 105.32 78.208C105.003 77.6013 104.844 76.9107 104.844 76.136ZM111.34 76.15C111.34 75.5713 111.224 75.0673 110.99 74.638C110.757 74.2087 110.44 73.882 110.038 73.658C109.646 73.4247 109.212 73.308 108.736 73.308C108.26 73.308 107.826 73.42 107.434 73.644C107.042 73.868 106.73 74.1947 106.496 74.624C106.263 75.0533 106.146 75.5573 106.146 76.136C106.146 76.724 106.263 77.2373 106.496 77.676C106.73 78.1053 107.042 78.4367 107.434 78.67C107.826 78.894 108.26 79.006 108.736 79.006C109.212 79.006 109.646 78.894 110.038 78.67C110.44 78.4367 110.757 78.1053 110.99 77.676C111.224 77.2373 111.34 76.7287 111.34 76.15ZM116.055 73.574C116.279 73.1353 116.596 72.7947 117.007 72.552C117.427 72.3093 117.936 72.188 118.533 72.188V73.504H118.197C116.769 73.504 116.055 74.2787 116.055 75.828V80H114.781V72.328H116.055V73.574ZM119.528 76.136C119.528 75.352 119.686 74.666 120.004 74.078C120.321 73.4807 120.755 73.0187 121.306 72.692C121.866 72.3653 122.491 72.202 123.182 72.202C123.779 72.202 124.334 72.342 124.848 72.622C125.361 72.8927 125.753 73.252 126.024 73.7V69.64H127.312V80H126.024V78.558C125.772 79.0153 125.398 79.3933 124.904 79.692C124.409 79.9813 123.83 80.126 123.168 80.126C122.486 80.126 121.866 79.958 121.306 79.622C120.755 79.286 120.321 78.8147 120.004 78.208C119.686 77.6013 119.528 76.9107 119.528 76.136ZM126.024 76.15C126.024 75.5713 125.907 75.0673 125.674 74.638C125.44 74.2087 125.123 73.882 124.722 73.658C124.33 73.4247 123.896 73.308 123.42 73.308C122.944 73.308 122.51 73.42 122.118 73.644C121.726 73.868 121.413 74.1947 121.18 74.624C120.946 75.0533 120.83 75.5573 120.83 76.136C120.83 76.724 120.946 77.2373 121.18 77.676C121.413 78.1053 121.726 78.4367 122.118 78.67C122.51 78.894 122.944 79.006 123.42 79.006C123.896 79.006 124.33 78.894 124.722 78.67C125.123 78.4367 125.44 78.1053 125.674 77.676C125.907 77.2373 126.024 76.7287 126.024 76.15ZM132.181 80.126C131.593 80.126 131.065 80.028 130.599 79.832C130.132 79.6267 129.763 79.3467 129.493 78.992C129.222 78.628 129.073 78.2127 129.045 77.746H130.361C130.398 78.1287 130.575 78.4413 130.893 78.684C131.219 78.9267 131.644 79.048 132.167 79.048C132.652 79.048 133.035 78.9407 133.315 78.726C133.595 78.5113 133.735 78.2407 133.735 77.914C133.735 77.578 133.585 77.3307 133.287 77.172C132.988 77.004 132.526 76.8407 131.901 76.682C131.331 76.5327 130.865 76.3833 130.501 76.234C130.146 76.0753 129.838 75.8467 129.577 75.548C129.325 75.24 129.199 74.8387 129.199 74.344C129.199 73.952 129.315 73.5927 129.549 73.266C129.782 72.9393 130.113 72.6827 130.543 72.496C130.972 72.3 131.462 72.202 132.013 72.202C132.862 72.202 133.548 72.4167 134.071 72.846C134.593 73.2753 134.873 73.8633 134.911 74.61H133.637C133.609 74.2087 133.445 73.8867 133.147 73.644C132.857 73.4013 132.465 73.28 131.971 73.28C131.513 73.28 131.149 73.378 130.879 73.574C130.608 73.77 130.473 74.0267 130.473 74.344C130.473 74.596 130.552 74.806 130.711 74.974C130.879 75.1327 131.084 75.2633 131.327 75.366C131.579 75.4593 131.924 75.5667 132.363 75.688C132.913 75.8373 133.361 75.9867 133.707 76.136C134.052 76.276 134.346 76.4907 134.589 76.78C134.841 77.0693 134.971 77.4473 134.981 77.914C134.981 78.334 134.864 78.712 134.631 79.048C134.397 79.384 134.066 79.65 133.637 79.846C133.217 80.0327 132.731 80.126 132.181 80.126ZM147.12 72.328L142.5 83.612H141.184L142.696 79.916L139.602 72.328H141.016L143.424 78.544L145.804 72.328H147.12ZM151.746 80.126C151.028 80.126 150.374 79.9627 149.786 79.636C149.208 79.3093 148.75 78.8473 148.414 78.25C148.088 77.6433 147.924 76.9433 147.924 76.15C147.924 75.366 148.092 74.6753 148.428 74.078C148.774 73.4713 149.24 73.0093 149.828 72.692C150.416 72.3653 151.074 72.202 151.802 72.202C152.53 72.202 153.188 72.3653 153.776 72.692C154.364 73.0093 154.826 73.4667 155.162 74.064C155.508 74.6613 155.68 75.3567 155.68 76.15C155.68 76.9433 155.503 77.6433 155.148 78.25C154.803 78.8473 154.332 79.3093 153.734 79.636C153.137 79.9627 152.474 80.126 151.746 80.126ZM151.746 79.006C152.204 79.006 152.633 78.8987 153.034 78.684C153.436 78.4693 153.758 78.1473 154 77.718C154.252 77.2887 154.378 76.766 154.378 76.15C154.378 75.534 154.257 75.0113 154.014 74.582C153.772 74.1527 153.454 73.8353 153.062 73.63C152.67 73.4153 152.246 73.308 151.788 73.308C151.322 73.308 150.892 73.4153 150.5 73.63C150.118 73.8353 149.81 74.1527 149.576 74.582C149.343 75.0113 149.226 75.534 149.226 76.15C149.226 76.7753 149.338 77.3027 149.562 77.732C149.796 78.1613 150.104 78.4833 150.486 78.698C150.869 78.9033 151.289 79.006 151.746 79.006ZM164.159 72.328V80H162.885V78.866C162.643 79.258 162.302 79.566 161.863 79.79C161.434 80.0047 160.958 80.112 160.435 80.112C159.838 80.112 159.301 79.9907 158.825 79.748C158.349 79.496 157.971 79.1227 157.691 78.628C157.421 78.1333 157.285 77.5313 157.285 76.822V72.328H158.545V76.654C158.545 77.41 158.737 77.9933 159.119 78.404C159.502 78.8053 160.025 79.006 160.687 79.006C161.369 79.006 161.905 78.796 162.297 78.376C162.689 77.956 162.885 77.3447 162.885 76.542V72.328H164.159ZM168.802 70.116C169.726 70.116 170.473 70.3773 171.042 70.9C171.612 71.4227 171.896 72.1227 171.896 73C171.896 73.98 171.593 74.708 170.986 75.184C170.38 75.6507 169.558 75.884 168.522 75.884L168.48 77.214H167.374L167.318 75.002H167.724C168.648 75.002 169.372 74.862 169.894 74.582C170.417 74.302 170.678 73.7747 170.678 73C170.678 72.44 170.51 71.9967 170.174 71.67C169.838 71.3433 169.386 71.18 168.816 71.18C168.238 71.18 167.78 71.3387 167.444 71.656C167.118 71.964 166.954 72.3887 166.954 72.93H165.75C165.75 72.37 165.876 71.88 166.128 71.46C166.38 71.0307 166.735 70.6993 167.192 70.466C167.659 70.2327 168.196 70.116 168.802 70.116ZM167.92 80.084C167.678 80.084 167.472 80 167.304 79.832C167.136 79.664 167.052 79.4587 167.052 79.216C167.052 78.9733 167.136 78.768 167.304 78.6C167.472 78.432 167.678 78.348 167.92 78.348C168.154 78.348 168.35 78.432 168.508 78.6C168.676 78.768 168.76 78.9733 168.76 79.216C168.76 79.4587 168.676 79.664 168.508 79.832C168.35 80 168.154 80.084 167.92 80.084Z" fill="black"/>
</svg>
